<svg xmlns="http://www.w3.org/2000/svg" width="32" height="32" viewBox="0 0 32 32">
  <defs>
    <style>
      .cls-1 {
        fill: #ccc;
      }

      .cls-2 {
        fill: #707070;
      }

      .cls-3 {
        fill: none;
      }
    </style>
  </defs>
  <g id="组_1379" data-name="组 1379" transform="translate(16048 21000)">
    <g id="消息" transform="translate(-16142.086 -21122.068)">
      <path id="路径_832" data-name="路径 832" class="cls-1" d="M695.438,293.056A8.3,8.3,0,0,1,693,298.94l1.471,1.471a10.4,10.4,0,0,0,0-14.711L693,287.173A8.3,8.3,0,0,1,695.438,293.056Z" transform="translate(-577.593 -154.954)"/>
      <path id="路径_833" data-name="路径 833" class="cls-1" d="M787.186,205.508a12.444,12.444,0,0,1-3.656,8.827L785,215.805a14.563,14.563,0,0,0,0-20.6l-1.471,1.471A12.444,12.444,0,0,1,787.186,205.508Z" transform="translate(-665.18 -67.405)"/>
      <path id="路径_834" data-name="路径 834" class="cls-1" d="M684.692,684.69m-.736.736a1.04,1.04,0,1,0,0-1.471A1.04,1.04,0,0,0,683.957,685.426Z" transform="translate(-568.549 -539.968)"/>
      <path id="路径_835" data-name="路径 835" class="cls-1" d="M775.2,775.191m-.736.736a1.04,1.04,0,1,0,0-1.471A1.04,1.04,0,0,0,774.468,775.927Z" transform="translate(-656.118 -627.527)"/>
      <path id="路径_836" data-name="路径 836" class="cls-1" d="M684.688,277.385m-.736.736a1.04,1.04,0,1,0,0-1.471A1.04,1.04,0,0,0,683.953,278.121Z" transform="translate(-568.545 -145.903)"/>
      <path id="路径_837" data-name="路径 837" class="cls-1" d="M775.2,186.875m-.736.736a1.04,1.04,0,1,0,0-1.471A1.04,1.04,0,0,0,774.463,187.611Z" transform="translate(-656.113 -58.335)"/>
      <path id="路径_838" data-name="路径 838" class="cls-2" d="M110.563,125.54h-.628a2.073,2.073,0,0,0-1.424.564l-6.128,5.757H97.04A1.04,1.04,0,0,0,96,132.9v10.4a1.04,1.04,0,0,0,1.04,1.04h5.343l6.128,5.757a2.073,2.073,0,0,0,1.424.564h.628a2.083,2.083,0,0,0,2.08-2.08V127.62A2.083,2.083,0,0,0,110.563,125.54ZM101.2,142.784H98.08v-8.842H101.2Zm9.362,5.8h-.628l-6.653-6.251v-8.462l6.653-6.251h.628v20.964Z"/>
    </g>
    <rect id="矩形_1092" data-name="矩形 1092" class="cls-3" width="32" height="32" transform="translate(-16048 -21000)"/>
  </g>
</svg>
