<svg xmlns="http://www.w3.org/2000/svg" width="32" height="32" viewBox="0 0 32 32">
  <defs>
    <style>
      .cls-1 {
        fill: none;
      }

      .cls-2, .cls-3, .cls-4 {
        fill: #fff;
      }

      .cls-2, .cls-4 {
        stroke: #707070;
        stroke-miterlimit: 10;
        stroke-width: 2px;
      }

      .cls-4 {
        stroke-linecap: round;
      }

      .cls-5, .cls-6 {
        stroke: none;
      }

      .cls-6 {
        fill: #707070;
      }
    </style>
  </defs>
  <g id="组_1354" data-name="组 1354" transform="translate(17469 21886)">
    <path id="路径_785" data-name="路径 785" class="cls-1" d="M0,0H32V32H0Z" transform="translate(-17469 -21886)"/>
    <g id="组_1181" data-name="组 1181" transform="translate(-17469 -21886)">
      <rect id="矩形_756" data-name="矩形 756" class="cls-1" width="32" height="32"/>
      <g id="组_658" data-name="组 658" transform="translate(-7908 -681)">
        <path id="路径_327" data-name="路径 327" class="cls-2" d="M27,20.7a11,11,0,0,0-22,0v9.4H27Z" transform="translate(7908 680.2)"/>
        <g id="路径_328" data-name="路径 328" class="cls-3" transform="translate(7909.256 678.958)">
          <path class="cls-5" d="M 27.80241394042969 31.74220275878906 L 1.79133403301239 31.74220275878906 C 1.669684052467346 31.74220275878906 1.500004053115845 31.50411224365234 1.500004053115845 31.11635208129883 L 1.500004053115845 25.42585372924805 C 1.500004053115845 25.03809356689453 1.669684052467346 24.80000305175781 1.79133403301239 24.80000305175781 L 27.80241394042969 24.80000305175781 C 27.92406463623047 24.80000305175781 28.0937442779541 25.03809356689453 28.0937442779541 25.42585372924805 L 28.0937442779541 31.11635208129883 C 28.0937442779541 31.50411224365234 27.92406463623047 31.74220275878906 27.80241394042969 31.74220275878906 Z"/>
          <path class="cls-6" d="M 27.0937442779541 30.74220275878906 L 27.0937442779541 25.80000305175781 L 2.500004053115845 25.80000305175781 L 2.500004053115845 30.74220275878906 L 27.0937442779541 30.74220275878906 M 27.80241394042969 32.74220275878906 L 1.79133403301239 32.74220275878906 C 1.053424000740051 32.74220275878906 0.5000040531158447 32.04540252685547 0.5000040531158447 31.11635208129883 L 0.5000040531158447 25.42585372924805 C 0.5000040531158447 24.49679374694824 1.053424000740051 23.80000305175781 1.79133403301239 23.80000305175781 L 27.80241394042969 23.80000305175781 C 28.54032325744629 23.80000305175781 29.0937442779541 24.49679374694824 29.0937442779541 25.42585372924805 L 29.0937442779541 31.11635208129883 C 29.0937442779541 32.04540252685547 28.54032325744629 32.74220275878906 27.80241394042969 32.74220275878906 Z"/>
        </g>
        <line id="直线_84" data-name="直线 84" class="cls-4" y1="3.8" transform="translate(7924 683)"/>
        <line id="直线_85" data-name="直线 85" class="cls-4" y1="2.7" x2="2.7" transform="translate(7933.4 688)"/>
        <line id="直线_86" data-name="直线 86" class="cls-4" x2="2.7" y2="2.7" transform="translate(7911.9 688)"/>
      </g>
    </g>
  </g>
</svg>
