<svg xmlns="http://www.w3.org/2000/svg" width="32" height="32" viewBox="0 0 32 32">
  <defs>
    <style>
      .cls-1, .cls-4 {
        fill: none;
      }

      .cls-2 {
        fill: #fff;
        stroke: #707070;
      }

      .cls-2, .cls-4 {
        stroke-width: 2px;
      }

      .cls-3 {
        fill: #707070;
      }

      .cls-4 {
        stroke: #ccc;
        stroke-linecap: round;
      }

      .cls-5 {
        stroke: none;
      }
    </style>
  </defs>
  <g id="组_1353" data-name="组 1353" transform="translate(17328 21755)">
    <rect id="矩形_756" data-name="矩形 756" class="cls-1" width="32" height="32" transform="translate(-17328 -21755)"/>
    <g id="组_1192" data-name="组 1192" transform="translate(2 2)">
      <g id="组_1191" data-name="组 1191" transform="translate(-17328 -21755)">
        <g id="矩形_1041" data-name="矩形 1041" class="cls-2" transform="translate(0 7)">
          <rect class="cls-5" width="28" height="20" rx="3"/>
          <rect class="cls-1" x="1" y="1" width="26" height="18" rx="2"/>
        </g>
        <g id="矩形_1038" data-name="矩形 1038" class="cls-2">
          <rect class="cls-5" width="28" height="13" rx="3"/>
          <rect class="cls-1" x="1" y="1" width="26" height="11" rx="2"/>
        </g>
        <path id="多边形_8" data-name="多边形 8" class="cls-3" d="M3.124.43a.5.5,0,0,1,.753,0l2.4,2.741A.5.5,0,0,1,5.9,4H1.1a.5.5,0,0,1-.376-.829Z" transform="translate(24 9) rotate(180)"/>
      </g>
      <path id="路径_786" data-name="路径 786" class="cls-4" d="M-17322.369-21735.045h18.477" transform="translate(-0.756 -2.679)"/>
      <path id="路径_787" data-name="路径 787" class="cls-4" d="M-17322.369-21735.045h18.477" transform="translate(-0.756 1.649)"/>
    </g>
  </g>
</svg>
