<svg xmlns="http://www.w3.org/2000/svg" width="28" height="28" viewBox="0 0 28 28"><defs><style>.a,.b,.f{fill:none;}.a,.c{stroke:#707070;}.a,.b,.c{stroke-width:2px;}.b{stroke:#ccc;stroke-linecap:round;stroke-linejoin:round;stroke-dasharray:4 5;}.c{fill:#fff;}.d{fill:#707070;}.e,.g{stroke:none;}.g{fill:#707070;}</style></defs><g transform="translate(-438 -1891)"><g class="a" transform="translate(438 1896)"><rect class="e" width="23" height="23" rx="5"/><rect class="f" x="1" y="1" width="21" height="21" rx="4"/></g><g class="b" transform="translate(443 1891)"><rect class="e" width="23" height="23" rx="5"/><rect class="f" x="1" y="1" width="21" height="21" rx="4"/></g><g class="c" transform="translate(438 1896)"><rect class="e" width="23" height="23" rx="5"/><rect class="f" x="1" y="1" width="21" height="21" rx="4"/></g><g transform="translate(-5)"><g class="d" transform="translate(-16.984 1830.037)"><path class="e" d="M 471.2395935058594 78.54032135009766 L 471.2394104003906 78.54032135009766 L 471.2392272949219 78.54032135009766 C 470.986083984375 78.53942108154297 470.7478332519531 78.44052886962891 470.5683898925781 78.26187896728516 C 470.3903198242188 78.08589172363281 470.2881164550781 77.84123229980469 470.2881164550781 77.59075927734375 C 470.2881164550781 77.34029388427734 470.3903198242188 77.09564208984375 470.5685119628906 76.91952514648438 L 476.412841796875 70.89503479003906 C 476.591064453125 70.72891235351562 476.8209228515625 70.63841247558594 477.0619506835938 70.63841247558594 C 477.3156433105469 70.63841247558594 477.5541687011719 70.73717498779297 477.7335205078125 70.91651153564453 C 478.096923828125 71.27997589111328 478.1071472167969 71.8592529296875 477.7568054199219 72.23530578613281 L 471.9109191894531 78.26126861572266 C 471.7309265136719 78.44052886962891 471.4927368164062 78.53942108154297 471.2395935058594 78.54032135009766 Z"/><path class="g" d="M 471.2394104003906 78.49032592773438 C 471.4776916503906 78.48947143554688 471.7061462402344 78.3946533203125 471.8750305175781 78.22645568847656 L 477.72021484375 72.20122528076172 C 478.0504150390625 71.8468017578125 478.0407104492188 71.29446411132812 477.6981811523438 70.95187377929688 C 477.3555297851562 70.60932159423828 476.8032531738281 70.59957122802734 476.44873046875 70.92984008789062 L 470.6036682128906 76.95508575439453 C 470.4338073730469 77.12295532226562 470.3381042480469 77.35188293457031 470.3381042480469 77.59075927734375 C 470.3381042480469 77.82965087890625 470.4338073730469 78.05858612060547 470.6036682128906 78.22645568847656 C 470.7726135253906 78.3946533203125 471.0010070800781 78.48947143554688 471.2394104003906 78.49032592773438 M 471.2397766113281 78.59032440185547 L 471.2390441894531 78.59032440185547 C 470.97265625 78.58937072753906 470.7219543457031 78.48531341552734 470.5331115722656 78.29732513427734 C 470.3457336425781 78.11212921142578 470.2380981445312 77.85449981689453 470.2380981445312 77.59075927734375 C 470.2380981445312 77.32701873779297 470.3457336425781 77.06940460205078 470.5333862304688 76.88394927978516 L 476.3805541992188 70.85667419433594 C 476.5662536621094 70.68368530273438 476.8082580566406 70.58840942382812 477.0619506835938 70.58840942382812 C 477.3290100097656 70.58840942382812 477.580078125 70.69237518310547 477.7688903808594 70.88114929199219 C 478.1514282226562 71.26376342773438 478.1621704101562 71.87354278564453 477.7933959960938 72.26939392089844 L 471.9468078613281 78.29608154296875 C 471.7568359375 78.48531341552734 471.5061645507812 78.58937072753906 471.2397766113281 78.59032440185547 Z"/></g><g class="d" transform="translate(-243.779 1830.885)"><path class="e" d="M 703.8790893554688 71.66694641113281 L 699.0816040039062 71.66694641113281 C 698.5579833984375 71.66694641113281 698.1319580078125 71.24097442626953 698.1319580078125 70.71738433837891 C 698.1319580078125 70.19379425048828 698.5579833984375 69.76781463623047 699.0816040039062 69.76781463623047 L 703.8790893554688 69.76781463623047 C 704.4027709960938 69.76781463623047 704.828857421875 70.19379425048828 704.828857421875 70.71738433837891 C 704.828857421875 71.24097442626953 704.4027709960938 71.66694641113281 703.8790893554688 71.66694641113281 Z"/><path class="g" d="M 703.8790893554688 71.616943359375 C 704.3760375976562 71.616943359375 704.7788696289062 71.21417999267578 704.7788696289062 70.71738433837891 C 704.7788696289062 70.22056579589844 704.3760375976562 69.81781768798828 703.8790893554688 69.81781768798828 L 699.0816040039062 69.81781768798828 C 698.5847778320312 69.81781768798828 698.1819458007812 70.22056579589844 698.1819458007812 70.71738433837891 C 698.1819458007812 71.21417999267578 698.5847778320312 71.616943359375 699.0816040039062 71.616943359375 L 703.8790893554688 71.616943359375 M 703.8790893554688 71.71694946289062 L 699.0816040039062 71.71694946289062 C 698.5303955078125 71.71694946289062 698.0819702148438 71.26854705810547 698.0819702148438 70.71738433837891 C 698.0819702148438 70.16622924804688 698.5303955078125 69.71781921386719 699.0816040039062 69.71781921386719 L 703.8790893554688 69.71781921386719 C 704.4303588867188 69.71781921386719 704.8788452148438 70.16622924804688 704.8788452148438 70.71738433837891 C 704.8788452148438 71.26854705810547 704.4303588867188 71.71694946289062 703.8790893554688 71.71694946289062 Z"/></g><g class="d" transform="translate(-425.163 1830.885)"><path class="e" d="M 885.263671875 76.46460723876953 C 884.7400512695312 76.46460723876953 884.3140258789062 76.03862762451172 884.3140258789062 75.51503753662109 L 884.3140258789062 70.71738433837891 C 884.3140258789062 70.19377899169922 884.7400512695312 69.76779937744141 885.263671875 69.76779937744141 C 885.7872314453125 69.76779937744141 886.2131958007812 70.19377899169922 886.2131958007812 70.71738433837891 L 886.2131958007812 75.51503753662109 C 886.2131958007812 76.03862762451172 885.7872314453125 76.46460723876953 885.263671875 76.46460723876953 Z"/><path class="g" d="M 885.263671875 76.41461181640625 C 885.7606201171875 76.41461181640625 886.1632080078125 76.01186370849609 886.1632080078125 75.51503753662109 L 886.1632080078125 70.71738433837891 C 886.1632080078125 70.22055053710938 885.7606201171875 69.81780242919922 885.263671875 69.81780242919922 C 884.766845703125 69.81780242919922 884.364013671875 70.22055053710938 884.364013671875 70.71738433837891 L 884.364013671875 75.51503753662109 C 884.364013671875 76.01186370849609 884.766845703125 76.41461181640625 885.263671875 76.41461181640625 M 885.263671875 76.51461029052734 C 884.7124633789062 76.51461029052734 884.2640380859375 76.06620025634766 884.2640380859375 75.51503753662109 L 884.2640380859375 70.71738433837891 C 884.2640380859375 70.16621398925781 884.7124633789062 69.71780395507812 885.263671875 69.71780395507812 C 885.8148193359375 69.71780395507812 886.26318359375 70.16621398925781 886.26318359375 70.71738433837891 L 886.26318359375 75.51503753662109 C 886.26318359375 76.06620025634766 885.8148193359375 76.51461029052734 885.263671875 76.51461029052734 Z"/></g></g></g></svg>