<svg xmlns="http://www.w3.org/2000/svg" width="32" height="32" viewBox="0 0 32 32">
  <defs>
    <style>
      .cls-1 {
        fill: none;
      }

      .cls-2 {
        fill: #fff;
        stroke: #707070;
        stroke-width: 2px;
      }

      .cls-3 {
        fill: #e6e6e6;
        font-size: 8px;
        font-family: PingFang SC Bold, PingFang SC;
      }

      .cls-4 {
        fill: #707070;
      }

      .cls-5 {
        stroke: none;
      }
    </style>
  </defs>
  <g id="组_1359" data-name="组 1359" transform="translate(17317 21764)">
    <rect id="矩形_756" data-name="矩形 756" class="cls-1" width="32" height="32" transform="translate(-17317 -21764)"/>
    <g id="矩形_1038" data-name="矩形 1038" class="cls-2" transform="translate(-17317 -21756)">
      <rect class="cls-5" width="32" height="16" rx="3"/>
      <rect class="cls-1" x="1" y="1" width="30" height="14" rx="2"/>
    </g>
    <text id="_123" data-name="123" class="cls-3" transform="translate(-17306 -21745)"><tspan x="-7.2" y="0">123</tspan></text>
    <path id="多边形_7" data-name="多边形 7" class="cls-4" d="M3.7.225a.5.5,0,0,1,.6,0L6.8,2.1a.5.5,0,0,1-.3.9h-5a.5.5,0,0,1-.3-.9Z" transform="translate(-17296 -21752)"/>
    <path id="多边形_8" data-name="多边形 8" class="cls-4" d="M3.7.225a.5.5,0,0,1,.6,0L6.8,2.1a.5.5,0,0,1-.3.9h-5a.5.5,0,0,1-.3-.9Z" transform="translate(-17288 -21744) rotate(180)"/>
  </g>
</svg>
