<svg id="组_897" data-name="组 897" xmlns="http://www.w3.org/2000/svg" width="32" height="32" viewBox="0 0 32 32">
  <rect id="矩形_756" data-name="矩形 756" width="32" height="32" fill="none"/>
  <g id="组_659" data-name="组 659" transform="translate(-297 -679)">
    <line id="直线_84" data-name="直线 84" y1="3.8" transform="translate(313 681)" fill="#fff" stroke="#707070" stroke-linecap="round" stroke-miterlimit="10" stroke-width="2"/>
    <line id="直线_85" data-name="直线 85" y1="2.7" x2="2.7" transform="translate(322.4 684)" fill="#fff" stroke="#707070" stroke-linecap="round" stroke-miterlimit="10" stroke-width="2"/>
    <line id="直线_86" data-name="直线 86" x2="2.7" y2="2.7" transform="translate(300.9 684)" fill="#fff" stroke="#707070" stroke-linecap="round" stroke-miterlimit="10" stroke-width="2"/>
    <g id="矩形_766" data-name="矩形 766" transform="translate(302 689)" fill="#fff" stroke="#707070" stroke-width="2">
      <rect width="22" height="16" rx="3" stroke="none"/>
      <rect x="1" y="1" width="20" height="14" rx="2" fill="none"/>
    </g>
    <g id="路径_328" data-name="路径 328" transform="translate(298.256 676.958)" fill="#fff">
      <path d="M 27.80241394042969 31.74220275878906 L 1.79133403301239 31.74220275878906 C 1.669684052467346 31.74220275878906 1.500004053115845 31.50411224365234 1.500004053115845 31.11635208129883 L 1.500004053115845 25.42585372924805 C 1.500004053115845 25.03809356689453 1.669684052467346 24.80000305175781 1.79133403301239 24.80000305175781 L 27.80241394042969 24.80000305175781 C 27.92406463623047 24.80000305175781 28.0937442779541 25.03809356689453 28.0937442779541 25.42585372924805 L 28.0937442779541 31.11635208129883 C 28.0937442779541 31.50411224365234 27.92406463623047 31.74220275878906 27.80241394042969 31.74220275878906 Z" stroke="none"/>
      <path d="M 27.0937442779541 30.74220275878906 L 27.0937442779541 25.80000305175781 L 2.500004053115845 25.80000305175781 L 2.500004053115845 30.74220275878906 L 27.0937442779541 30.74220275878906 M 27.80241394042969 32.74220275878906 L 1.79133403301239 32.74220275878906 C 1.053424000740051 32.74220275878906 0.5000040531158447 32.04540252685547 0.5000040531158447 31.11635208129883 L 0.5000040531158447 25.42585372924805 C 0.5000040531158447 24.49679374694824 1.053424000740051 23.80000305175781 1.79133403301239 23.80000305175781 L 27.80241394042969 23.80000305175781 C 28.54032325744629 23.80000305175781 29.0937442779541 24.49679374694824 29.0937442779541 25.42585372924805 L 29.0937442779541 31.11635208129883 C 29.0937442779541 32.04540252685547 28.54032325744629 32.74220275878906 27.80241394042969 32.74220275878906 Z" stroke="none" fill="#707070"/>
    </g>
  </g>
</svg>
