<svg xmlns="http://www.w3.org/2000/svg" width="16" height="14" viewBox="0 0 16 14">
  <path id="路径_347" data-name="路径 347" d="M4.012,59.954a1.025,1.025,0,0,1,1.033,1.017v6.517a1.033,1.033,0,0,1-2.067,0V60.971a1.025,1.025,0,0,1,1.033-1.017Zm3.508,6.8h4.737a.875.875,0,1,1,0,1.75H7.52a.875.875,0,1,1,0-1.75Zm.444-6.8h3.848a1.323,1.323,0,0,1,1.333,1.312v2.922A1.323,1.323,0,0,1,11.812,65.5H7.964a1.323,1.323,0,0,1-1.333-1.312V61.267A1.323,1.323,0,0,1,7.964,59.954ZM13,58.559H3.226a1.764,1.764,0,0,0-1.778,1.75v7.75a1.764,1.764,0,0,0,1.778,1.75H13a1.764,1.764,0,0,0,1.778-1.75v-7.75A1.764,1.764,0,0,0,13,58.559Zm.43-1.429A2.646,2.646,0,0,1,16.1,59.755v8.75a2.646,2.646,0,0,1-2.667,2.625H2.767A2.646,2.646,0,0,1,.1,68.505v-8.75A2.646,2.646,0,0,1,2.767,57.13Z" transform="translate(-0.1 -57.13)" fill="#fff"/>
</svg>
