<svg xmlns="http://www.w3.org/2000/svg" width="40" height="40" viewBox="0 0 40 40">
  <defs>
    <style>
      .cls-1, .cls-4 {
        fill: none;
      }

      .cls-1 {
        stroke: #707070;
        stroke-width: 2.2px;
      }

      .cls-2 {
        fill: #707070;
      }

      .cls-3 {
        stroke: none;
      }
    </style>
  </defs>
  <g id="组_544" data-name="组 544" transform="translate(-59 -1097)">
    <g id="组_365" data-name="组 365" transform="translate(-8000 -556)">
      <g id="矩形_538" data-name="矩形 538" class="cls-1" transform="translate(8059 1653)">
        <rect class="cls-3" width="40" height="40" rx="7"/>
        <rect class="cls-4" x="1.1" y="1.1" width="37.8" height="37.8" rx="5.9"/>
      </g>
      <g id="风扇" transform="translate(8063.179 1657.169)">
        <path id="路径_303" data-name="路径 303" class="cls-2" d="M12.779,22.269l2.183-7.951a.7.7,0,0,0-.468-.935,4.509,4.509,0,0,1-1.715-1.715,1.111,1.111,0,0,0-.935-.468L3.892,13.383a3.716,3.716,0,0,0-1.715.935,3.864,3.864,0,0,0,0,5.3l4.365,4.365a3.716,3.716,0,0,0,1.715.935A3.617,3.617,0,0,0,12.779,22.269Zm-5.145.468L3.269,18.371a1.347,1.347,0,0,1-.468-.935,2,2,0,0,1,1.4-2.494l7.483-2.027a5.953,5.953,0,0,0,1.4,1.4L11.064,21.8l-.468.935A2.168,2.168,0,0,1,7.634,22.737Z" transform="translate(0.112 5.74)"/>
        <path id="路径_304" data-name="路径 304" class="cls-2" d="M24.919,17.881a3.9,3.9,0,0,0-2.65-4.677l-7.951-2.183a.7.7,0,0,0-.935.468A4.509,4.509,0,0,1,11.668,13.2a1.111,1.111,0,0,0-.468.935l2.183,7.951a3.716,3.716,0,0,0,.935,1.715,3.862,3.862,0,0,0,5.3,0l4.365-4.365A2.651,2.651,0,0,0,24.919,17.881Zm-6.548,4.833a1.347,1.347,0,0,1-.935.468,2,2,0,0,1-2.494-1.4l-2.027-7.483h0a5.953,5.953,0,0,0,1.4-1.4L21.8,14.918l.935.468a2.168,2.168,0,0,1,0,2.962Z" transform="translate(5.744 5.608)"/>
        <path id="路径_305" data-name="路径 305" class="cls-2" d="M23.8,6.339,19.44,1.974a3.716,3.716,0,0,0-1.715-.935,3.9,3.9,0,0,0-4.677,2.65L11.021,11.64a.7.7,0,0,0,.468.935A4.509,4.509,0,0,1,13.2,14.29l.156.156a.686.686,0,0,0,.78.156l7.951-2.183a3.716,3.716,0,0,0,1.715-.935A3.413,3.413,0,0,0,23.8,6.339Zm-2.027,4.677-7.483,2.027c-.156-.312-.468-.468-.624-.78a2.737,2.737,0,0,0-.78-.624l2.027-7.483.468-.935a2.168,2.168,0,0,1,2.962,0l4.365,4.365a1.347,1.347,0,0,1,.468.935A2,2,0,0,1,21.778,11.016Z" transform="translate(5.611 0)"/>
        <path id="路径_306" data-name="路径 306" class="cls-2" d="M14.449,12.779a.75.75,0,0,0,.312-.935L12.734,3.736a3.564,3.564,0,0,0-1.091-1.559,3.864,3.864,0,0,0-5.3,0L1.977,6.387a4.063,4.063,0,0,0,0,5.457,3.716,3.716,0,0,0,1.715.935l7.951,2.183a.7.7,0,0,0,.935-.468A6.646,6.646,0,0,1,14.449,12.779Zm-2.962.312L4.16,11.064a1.347,1.347,0,0,1-.935-.468,2.168,2.168,0,0,1,0-2.962L7.59,3.269a2.166,2.166,0,0,1,2.962,0,1.348,1.348,0,0,1,.468.935l2.027,7.483A6.7,6.7,0,0,0,11.487,13.09Z" transform="translate(0 0.108)"/>
        <path id="路径_307" data-name="路径 307" class="cls-2" d="M8.9,15.407a4.74,4.74,0,1,1,6.7,0h0A4.705,4.705,0,0,1,8.9,15.407ZM14.36,9.794A3.087,3.087,0,0,0,9.994,14.16,3.087,3.087,0,0,0,14.36,9.794Z" transform="translate(3.675 3.56)"/>
      </g>
    </g>
  </g>
</svg>
