<svg xmlns="http://www.w3.org/2000/svg" width="32" height="32" viewBox="0 0 32 32">
  <defs>
    <style>
      .cls-1 {
        fill: none;
      }

      .cls-2 {
        fill: #707070;
      }
    </style>
  </defs>
  <g id="组_1368" data-name="组 1368" transform="translate(16204 20842)">
    <rect id="矩形_756" data-name="矩形 756" class="cls-1" width="32" height="32" transform="translate(-16204 -20842)"/>
    <g id="组_1341" data-name="组 1341" transform="translate(0.039 -102.961)">
      <g id="按钮" transform="translate(-16201.383 -20736.381)">
        <path id="路径_892" data-name="路径 892" class="cls-2" d="M194.551,185.2h-6.945a1.038,1.038,0,0,1-1.035-1.038c0-.572.462-.881,1.035-.883h6.945a1.314,1.314,0,0,0,1.183-1.195v-8.307a1.286,1.286,0,0,0-1.183-1.165H173.783a1.3,1.3,0,0,0-1.195,1.165v8.307a1.325,1.325,0,0,0,1.195,1.195h1.072a.915.915,0,0,1,1.033.883,1.038,1.038,0,0,1-1.033,1.038h-1.072a3.119,3.119,0,0,1-3.116-3.115v-8.307a3.119,3.119,0,0,1,3.116-3.116h20.769a3.12,3.12,0,0,1,3.116,3.116v8.307a3.119,3.119,0,0,1-3.116,3.116ZM179.46,197.667a1.038,1.038,0,0,1-1.033-1.04c0-.57.462-.754,1.033-.758h12.56c.422,0,1.075-.756,1.075-1.318V190.4a1.483,1.483,0,0,0-1.075-1.279h-8.569c-.57,0,.468-.226.468-.8s-1.038-1.036-.468-1.038h8.569a3,3,0,0,1,2.856,3.116v4.152a3,3,0,0,1-2.856,3.117H179.46Z" transform="translate(-170.667 -170.667)"/>
        <path id="路径_893" data-name="路径 893" class="cls-2" d="M362.624,367.6v-8.971a3.038,3.038,0,0,1,6.076,0v6.877a1.014,1.014,0,0,1-1.014,1.009c-.556,0-.76-.453-.764-1.009v-6.877a1.373,1.373,0,0,0-1.261-1.124,1.418,1.418,0,0,0-1.3,1.124V367.6c0,.178,0,.416-.008.716a1.449,1.449,0,0,1-.718.3,1.012,1.012,0,0,1-1.012-1.012Z" transform="translate(-354.974 -348.134)"/>
        <path id="路径_894" data-name="路径 894" class="cls-2" d="M229.478,588.407a1.012,1.012,0,0,1-.741-.323l-4.8-5.161a3.038,3.038,0,0,1,4.32-4.272l1.585,1.817c.383.4,0,1.359,0,1.419a1.094,1.094,0,0,1-1.168-.059l-1.848-1.743a1.159,1.159,0,0,0-1.519-.16,1.471,1.471,0,0,0,0,1.756l4.827,5.024a1.049,1.049,0,0,1,.275,1.093,1.012,1.012,0,0,1-.928.609Z" transform="translate(-221.062 -561.407)"/>
      </g>
      <path id="减去_24" data-name="减去 24" class="cls-2" d="M3,7.095H3L2.541,6.7A5.846,5.846,0,0,0,4.27,2.064V1.987H3.112V1.456H4.27V.023h.572V1.456H6.8c0,1.344-.012,2.417-.034,3.192-.233-.082-.447-.149-.547-.175.014-.617.025-1.453.032-2.486H4.841v.077C4.81,4.349,4.19,6.041,3,7.094Zm8.323-.016h-.533V2.735h2.888V6.348c0,.45-.218.678-.649.678h-.641L12.245,6.5l.595.023a.26.26,0,0,0,.293-.293V5.608H11.319V7.078Zm0-2.658v.717h1.814V4.421Zm0-1.2V3.96h1.814V3.22Zm5.026,3.728H15.078c-.461,0-.695-.223-.695-.663V3.659h.549v.948A10.694,10.694,0,0,0,17,4.213l.177.493a12.076,12.076,0,0,1-2.246.408V6.17c0,.184.1.277.3.277h1.012a.4.4,0,0,0,.324-.115,2.078,2.078,0,0,0,.162-.871l.509.162a2.131,2.131,0,0,1-.293,1.147A.874.874,0,0,1,16.345,6.948ZM.139,5.97h0L0,5.408c.432-.084.815-.169,1.174-.262V1.287H.063V.747H2.849v.54H1.737V4.976c.366-.11.774-.254,1.213-.431V5.1a19.453,19.453,0,0,1-2.81.87ZM16.36,3.343H15.086c-.476,0-.717-.259-.717-.77V0h.548V1.024C15.743.9,16.445.76,17,.616l.177.485a22.414,22.414,0,0,1-2.262.432v.925c0,.255.109.385.324.385h1.012a.4.4,0,0,0,.324-.115,2.169,2.169,0,0,0,.155-.855l.517.162a2.088,2.088,0,0,1-.294,1.132A.856.856,0,0,1,16.36,3.343ZM13.72,2.5h0c-.085-.174-.178-.345-.277-.508a28.372,28.372,0,0,1-2.957.285l-.155-.462a.619.619,0,0,0,.254-.146A6.71,6.71,0,0,0,11.774,0L12.3.162a5.772,5.772,0,0,1-1.173,1.617c.673-.04,1.367-.1,2.062-.192-.175-.267-.347-.519-.525-.77l.433-.27a15.588,15.588,0,0,1,1.081,1.626l-.454.323Z" transform="translate(-16196.824 -20732.68)"/>
    </g>
  </g>
</svg>
