<svg xmlns="http://www.w3.org/2000/svg" width="32" height="32" viewBox="0 0 32 32">
  <defs>
    <style>
      .cls-1 {
        fill: none;
      }

      .cls-2 {
        fill: #666;
        stroke: #fff;
      }
    </style>
  </defs>
  <g id="组_1366" data-name="组 1366" transform="translate(16374 21000)">
    <rect id="矩形_1091" data-name="矩形 1091" class="cls-1" width="32" height="32" transform="translate(-16374 -21000)"/>
    <path id="超链接" class="cls-2" d="M100.473,85.931a1.587,1.587,0,0,1-2.222-2.238l3.286-3.318A7.937,7.937,0,1,1,112.761,91.6l-3.4,3.333a1.587,1.587,0,1,1-2.238-2.238l3.334-3.334a4.762,4.762,0,0,0-6.731-6.731Zm2.191,11.287a1.587,1.587,0,1,1,2.238,2.207l-3.35,3.35A7.937,7.937,0,0,1,90.314,91.6l3.35-3.286a1.587,1.587,0,1,1,2.254,2.175l-3.365,3.35a4.762,4.762,0,0,0,6.731,6.731Zm-3.953-.524a1.587,1.587,0,1,1-2.238-2.238l7.858-7.858a1.587,1.587,0,0,1,2.238,2.238Z" transform="translate(-16459.955 -21075.695)"/>
  </g>
</svg>
