<svg xmlns="http://www.w3.org/2000/svg" width="40" height="40" viewBox="0 0 40 40">
  <defs>
    <style>
      .cls-1 {
        fill: #707070;
      }
    </style>
  </defs>
  <g id="组_344" data-name="组 344" transform="translate(-207 -935.686)">
    <path id="图片_1_" data-name="图片 (1)" class="cls-1" d="M5,0A5,5,0,0,0,0,5V35a5,5,0,0,0,5,5H35a5,5,0,0,0,5-5V5a5,5,0,0,0-5-5Zm5,5a5,5,0,1,1-5,5,5,5,0,0,1,5-5Zm0,7.5A2.5,2.5,0,1,0,7.5,10,2.5,2.5,0,0,0,10,12.5ZM2.5,35V33.826L10.563,26.6a2.673,2.673,0,0,1,3.642.1L25,37.5H5A2.5,2.5,0,0,1,2.5,35ZM35,37.5H28.54l-9.21-9.331,8.908-8.908a2.509,2.509,0,0,1,3.539.015L37.5,25V35A2.5,2.5,0,0,1,35,37.5ZM2.5,30.788V5.01A2.512,2.512,0,0,1,5.017,2.5H34.983A2.519,2.519,0,0,1,37.5,4.995V21.583l-5.787-5.295a2.658,2.658,0,0,0-3.636.081L17.75,26.6l-3.423-2.948a2.954,2.954,0,0,0-3.757.022Z" transform="translate(207 935.686)"/>
  </g>
</svg>
