<svg xmlns="http://www.w3.org/2000/svg" width="40" height="31" viewBox="0 0 40 31">
  <defs>
    <style>
      .cls-1 {
        fill: #707070;
      }
    </style>
  </defs>
  <path id="仪表盘" class="cls-1" d="M123,221.03c-2.207-1.7-1.025-3.205.98-5.147S140.4,199.617,140.4,199.617s-10.163,15.881-12.463,19.032S125.234,222.752,123,221.03Zm21.2-2.117a19.573,19.573,0,0,0-2.576-9.733l-.049.029a1.382,1.382,0,0,0-2.655.522,1.356,1.356,0,0,0,.389.951,16.95,16.95,0,0,1-.424,17.183,1.382,1.382,0,1,0,2.345,1.434A19.6,19.6,0,0,0,144.2,218.913Zm-12.187-18.2.015-.034A20.039,20.039,0,0,0,104.2,218.908a19.588,19.588,0,0,0,3.113,10.616l.01-.01a1.385,1.385,0,0,0,1.128.585,1.371,1.371,0,0,0,1.379-1.366,1.343,1.343,0,0,0-.315-.868,16.885,16.885,0,0,1-2.557-8.953A17.159,17.159,0,0,1,124.2,201.837a17.415,17.415,0,0,1,6.665,1.322,1.371,1.371,0,1,0,1.148-2.449Z" transform="translate(-104.2 -199.1)"/>
</svg>
