<svg id="组_1507" data-name="组 1507" xmlns="http://www.w3.org/2000/svg" width="32" height="32" viewBox="0 0 32 32">
  <rect id="矩形_770" data-name="矩形 770" width="32" height="32" fill="none"/>
  <path id="仪表盘" d="M118.3,215.548c-1.655-1.277-.768-2.4.735-3.86s12.314-12.2,12.314-12.2S123.726,211.4,122,213.762,119.976,216.839,118.3,215.548Zm15.9-1.588a14.679,14.679,0,0,0-1.932-7.3l-.037.022a1.037,1.037,0,0,0-1.991.392,1.017,1.017,0,0,0,.292.714,12.712,12.712,0,0,1-.318,12.887,1.036,1.036,0,1,0,1.759,1.076A14.7,14.7,0,0,0,134.2,213.96Zm-9.14-13.652.011-.026A15.03,15.03,0,0,0,104.2,213.956a14.691,14.691,0,0,0,2.335,7.962l.007-.007a1.039,1.039,0,0,0,.846.439,1.028,1.028,0,0,0,1.035-1.025,1.007,1.007,0,0,0-.236-.651,12.664,12.664,0,0,1-1.917-6.714A12.869,12.869,0,0,1,119.2,201.153a13.061,13.061,0,0,1,5,.992,1.028,1.028,0,1,0,.861-1.837Z" transform="translate(-103.2 -195.1)" fill="#707070"/>
</svg>
