<svg id="组_1504" data-name="组 1504" xmlns="http://www.w3.org/2000/svg" xmlns:xlink="http://www.w3.org/1999/xlink" width="220" height="80" viewBox="0 0 220 80">
  <defs>
    <linearGradient id="linear-gradient" x1="0.5" x2="0.5" y2="1" gradientUnits="objectBoundingBox">
      <stop offset="0" stop-color="#50c6fa"/>
      <stop offset="1" stop-color="#478de9"/>
    </linearGradient>
  </defs>
  <g id="组_1329" data-name="组 1329" transform="translate(15546 20488)">
    <rect id="矩形_1108" data-name="矩形 1108" width="220" height="80" rx="3" transform="translate(-15546 -20488)" fill="url(#linear-gradient)"/>
    <path id="交叉_16" data-name="交叉 16" d="M17.841,80C49.422,60.562,93.4,44.352,143.312,35.6A423.349,423.349,0,0,1,220,29.019V77a3,3,0,0,1-3,3Z" transform="translate(-15546 -20488)" fill="#fff" opacity="0.2"/>
    <path id="交叉_15" data-name="交叉 15" d="M3,80a3,3,0,0,1-3-3V40.018C1.431,40.006,2.894,40,4.351,40a603.791,603.791,0,0,1,77.5,5.179c4.133.537,8.344,1.13,12.516,1.756C65.334,55.552,38.885,66.979,17.836,80Z" transform="translate(-15546 -20488)" fill="#fff" opacity="0.1"/>
  </g>
  <g id="组_1324" data-name="组 1324" transform="translate(-14 -1)">
    <text id="_" data-name="℃" transform="translate(82 28)" fill="#fff" font-size="12" font-family="PingFang SC Medium, PingFang SC"><tspan x="0" y="0">℃</tspan></text>
  </g>
  <text id="空气质量_:_" data-name="空气质量 :  " transform="translate(15 63)" fill="#fff" font-size="10" font-family="PingFang SC Medium, PingFang SC"><tspan x="0" y="0" xml:space="preserve">空气质量 :  </tspan></text>
  <g id="组_1327" data-name="组 1327" transform="translate(21 6)">
    <path id="减去_22" data-name="减去 22" d="M4.407,12h0C2.177,9.664,0,7.171,0,4.615A4.467,4.467,0,0,1,4.407,0,4.52,4.52,0,0,1,8.814,4.615C8.814,7.1,6.3,10.019,4.408,12ZM4.5,2.77A1.808,1.808,0,0,0,2.733,4.616,1.808,1.808,0,0,0,4.5,6.463,1.808,1.808,0,0,0,6.259,4.616,1.808,1.808,0,0,0,4.5,2.77Z" transform="translate(79.929 47.404)" fill="#fff"/>
  </g>
</svg>
