<svg xmlns="http://www.w3.org/2000/svg" width="32" height="32" viewBox="0 0 32 32">
  <defs>
    <style>
      .cls-1 {
        fill: none;
      }

      .cls-2, .cls-3 {
        fill: #fff;
        stroke-linecap: round;
        stroke-linejoin: round;
      }

      .cls-2 {
        stroke: #ccc;
        stroke-width: 2px;
      }

      .cls-4, .cls-5 {
        stroke: none;
      }

      .cls-5 {
        fill: #707070;
      }
    </style>
  </defs>
  <g id="组_1369" data-name="组 1369" transform="translate(16406 21079)">
    <rect id="矩形_1087" data-name="矩形 1087" class="cls-1" width="32" height="32" transform="translate(-16406 -21079)"/>
    <g id="组_1277" data-name="组 1277" transform="translate(-42.264 -2.264)">
      <g id="椭圆_178" data-name="椭圆 178" class="cls-2" transform="translate(-16363.736 -21074.736)">
        <circle class="cls-4" cx="15" cy="15" r="15"/>
        <circle class="cls-1" cx="15" cy="15" r="14"/>
      </g>
      <g id="交叉_9" data-name="交叉 9" class="cls-3" transform="translate(-16348.736 -21076.736)">
        <path class="cls-4" d="M 15.96946620941162 16 L 1 16 L 1 1.030534386634827 C 4.897666931152344 1.269205212593079 8.52849006652832 2.901052951812744 11.31363964080811 5.68612003326416 C 14.09885406494141 8.471251487731934 15.73078441619873 12.10218811035156 15.96946620941162 16 Z"/>
        <path class="cls-5" d="M 14.86869621276855 15 C 14.4385929107666 11.75121688842773 12.96278858184814 8.749411582946777 10.60653972625732 6.393229961395264 C 8.250349998474121 4.037106513977051 5.248672485351563 2.561387777328491 2 2.131307125091553 L 2 15 L 14.86869621276855 15 M 17 17 L 0 17 L 0 0 C 9.388629913330078 0 17 7.61067008972168 17 17 Z"/>
      </g>
    </g>
  </g>
</svg>
