<svg xmlns="http://www.w3.org/2000/svg" xmlns:xlink="http://www.w3.org/1999/xlink" width="72" height="72" viewBox="0 0 72 72">
  <defs>
    <clipPath id="clip-自定义大小_2">
      <rect width="72" height="72"/>
    </clipPath>
  </defs>
  <g id="自定义大小_2" data-name="自定义大小 – 2" clip-path="url(#clip-自定义大小_2)">
    <rect width="72" height="72" fill="#fff"/>
    <g id="组_2" data-name="组 2" transform="translate(-111.38 -105.63)">
      <path id="路径_1674" data-name="路径 1674" d="M138.975,23.65,117.609,36.788a3.35,3.35,0,0,1-3.538,3.14,3.3,3.3,0,0,1-1.214-.3L109.1,42.011,106.89,37.73l3.957-1.738a3.5,3.5,0,0,1,4.02-2.9,3.611,3.611,0,0,1,1.361.523ZM115.7,35.678h0a1.592,1.592,0,0,0-2.847,1.424C113.809,38.839,116.657,37.416,115.7,35.678Z" transform="translate(33.173 105.073)" fill="#3e3a39"/>
      <path id="路径_1675" data-name="路径 1675" d="M113.927,33a2.847,2.847,0,1,1-2.847,2.847h0A2.837,2.837,0,0,1,113.906,33Z" transform="translate(33.369 105.51)"/>
      <path id="路径_1676" data-name="路径 1676" d="M113.906,33.32a2.533,2.533,0,1,1,0,5.067,2.366,2.366,0,0,1-2.376-2.366v-.167a2.481,2.481,0,0,1,2.376-2.533Z" transform="translate(33.39 105.525)" fill="#b1b1b2"/>
      <path id="路径_1677" data-name="路径 1677" d="M113.9,33.48a2.219,2.219,0,1,1-2.219,2.209A2.366,2.366,0,0,1,113.9,33.48Z" transform="translate(33.397 105.533)" fill="#d5d5d6"/>
      <path id="路径_1678" data-name="路径 1678" d="M113.878,33.48a1.738,1.738,0,1,1-1.738,1.738h0a1.748,1.748,0,0,1,1.738-1.738Z" transform="translate(33.419 105.533)" fill="#e6e6e6"/>
      <path id="路径_1679" data-name="路径 1679" d="M114.057,35.29c.639,0,1.267.314,1.267.628s-.628.8-1.267.8-1.267-.314-1.267-.628C112.738,35.6,113.376,35.29,114.057,35.29Z" transform="translate(33.449 105.618)" fill="#f7f8f8"/>
      <circle id="椭圆_7" data-name="椭圆 7" cx="36" cy="36" r="36" transform="translate(111.38 105.63)" fill="none"/>
    </g>
  </g>
</svg>
