<svg xmlns="http://www.w3.org/2000/svg" width="38" height="40" viewBox="0 0 38 40">
  <defs>
    <style>
      .cls-1 {
        fill: #707070;
      }
    </style>
  </defs>
  <path id="路径_324" data-name="路径 324" class="cls-1" d="M17.957-31.067v9.685H14.866V-28.07H-15.363v6.688h-3.092v-9.685H-1.58a33.394,33.394,0,0,0-1.932-4.213l3.521-.608q.9,2.085,1.8,4.821Zm-29.8,7.687H11.216v2.91a98.815,98.815,0,0,1-9.36,5.82v2.91H18.773V-8.7H1.855V.508q0,3.6-3.736,3.6H-7.161l-.73-2.866q3.006.087,4.938.087,1.675,0,1.675-1.911V-8.7H-19.227v-3.04H-1.279V-16q4.852-2.562,7.858-4.473h-18.42Z" transform="translate(19.227 35.888)"/>
</svg>
