<svg xmlns="http://www.w3.org/2000/svg" width="40" height="30" viewBox="0 0 40 30">
  <defs>
    <style>
      .cls-1 {
        fill: #707070;
      }
    </style>
  </defs>
  <g id="视频_1_" data-name="视频 (1)" transform="translate(-85.333 -203.37)">
    <path id="路径_294" data-name="路径 294" class="cls-1" d="M124.973,208.486a2.343,2.343,0,0,0-2.59-1.075,2.729,2.729,0,0,0-1.35.825l-.969,1.008c-.6.628-1.206,1.25-1.812,1.878l-1.392,1.443v-4.128a4.985,4.985,0,0,0-4.889-5.067H90.222a4.986,4.986,0,0,0-4.889,5.068V228.3a4.984,4.984,0,0,0,4.889,5.067H111.97a4.985,4.985,0,0,0,4.889-5.067v-3.891c.135.149.271.3.406.451,1.063,1.175,2.159,2.391,3.327,3.51a3.3,3.3,0,0,0,2.243,1.018,2.289,2.289,0,0,0,.872-.171,2.776,2.776,0,0,0,1.571-2.742c0-.707-.009-1.425-.025-2.132-.009-.447,0-.9,0-1.364,0-.311.013-.632.013-.957v-3.356c0-1.185.009-2.386.017-3.553.009-1.189.017-2.413.017-3.624,0-.509.013-.9.025-1.268a3.134,3.134,0,0,0-.355-1.738ZM114.742,228.3a2.829,2.829,0,0,1-2.773,2.874H90.222a2.829,2.829,0,0,1-2.773-2.874V208.434a2.829,2.829,0,0,1,2.773-2.874H111.97a2.829,2.829,0,0,1,2.773,2.874V228.3Zm8.474-18.154c-.013.39-.021.8-.025,1.334v.009c0,1.2-.008,2.431-.017,3.616s-.016,2.378-.017,3.567v3.356c0,.3,0,.614-.009.917-.008.469-.017.957,0,1.452.013.689.021,1.391.021,2.084,0,.224-.051.622-.237.7a1.151,1.151,0,0,1-.9-.421c-1.113-1.066-2.184-2.25-3.217-3.4-.635-.7-1.287-1.425-1.952-2.124v-5.572l2.891-3,1.812-1.878.969-1.009a.75.75,0,0,1,.321-.232c.139-.035.275,0,.3.061a1.144,1.144,0,0,1,.058.533Zm0,0"/>
    <path id="路径_295" data-name="路径 295" class="cls-1" d="M295.173,370.249l-6.535-3.7a2.908,2.908,0,0,0-2.993-.1,3.135,3.135,0,0,0-1.677,2.752v7.429a3.136,3.136,0,0,0,1.677,2.756,3.008,3.008,0,0,0,1.426.364,2.9,2.9,0,0,0,1.571-.465l6.484-3.675a2.844,2.844,0,0,0,1.727-2.446A3.189,3.189,0,0,0,295.173,370.249Zm-.435,2.793a.738.738,0,0,1-.5.648l-.055.021-6.611,3.746-.034.017-.034.021a.809.809,0,0,1-.855.021,1.043,1.043,0,0,1-.559-.889V369.2a1.034,1.034,0,0,1,.559-.885.953.953,0,0,1,.431-.114.751.751,0,0,1,.423.131l.03.021,6.59,3.734A1.074,1.074,0,0,1,294.737,373.042Zm0,0" transform="translate(-189.315 -154.549)"/>
  </g>
</svg>
