<svg id="组_1380" data-name="组 1380" xmlns="http://www.w3.org/2000/svg" width="32" height="32" viewBox="0 0 32 32">
  <rect id="矩形_775" data-name="矩形 775" width="32" height="32" fill="none"/>
  <g id="组_671" data-name="组 671" transform="translate(0.334 4.097)">
    <g id="视频_1_" data-name="视频 (1)">
      <path id="路径_294" data-name="路径 294" d="M116.385,207.378a1.835,1.835,0,0,0-2.029-.842,2.138,2.138,0,0,0-1.058.646l-.759.79c-.47.492-.945.979-1.419,1.471l-1.091,1.13V207.34a3.905,3.905,0,0,0-3.829-3.969H89.163a3.906,3.906,0,0,0-3.829,3.97V222.9a3.9,3.9,0,0,0,3.83,3.969H106.2a3.905,3.905,0,0,0,3.829-3.969v-3.048c.106.117.212.237.318.354.833.921,1.691,1.873,2.606,2.749a2.588,2.588,0,0,0,1.757.8,1.793,1.793,0,0,0,.683-.134,2.174,2.174,0,0,0,1.23-2.148c0-.553-.007-1.117-.02-1.67-.007-.35,0-.7,0-1.069,0-.244.01-.495.01-.749v-2.629c0-.928.007-1.869.013-2.783.007-.931.013-1.89.013-2.839,0-.4.01-.7.02-.993a2.455,2.455,0,0,0-.278-1.361Zm-8.014,15.52a2.216,2.216,0,0,1-2.172,2.251H89.163a2.216,2.216,0,0,1-2.172-2.251V207.337a2.216,2.216,0,0,1,2.172-2.251H106.2a2.216,2.216,0,0,1,2.172,2.251V222.9Zm6.638-14.221c-.01.306-.016.626-.02,1.045v.007c0,.942-.006,1.9-.013,2.832s-.012,1.863-.013,2.794v2.629c0,.237,0,.481-.007.718-.006.367-.013.749,0,1.138.01.54.016,1.09.016,1.633,0,.176-.04.488-.186.55a.9.9,0,0,1-.7-.33c-.872-.835-1.711-1.763-2.52-2.663-.5-.55-1.008-1.117-1.529-1.664V213l2.264-2.347,1.419-1.471.759-.791a.588.588,0,0,1,.252-.182c.109-.028.216,0,.238.048a.9.9,0,0,1,.045.418Zm0,0" transform="translate(-85.333 -203.37)" fill="#707070" stroke="#707070" stroke-width="0.2"/>
      <path id="路径_295" data-name="路径 295" d="M292.745,369.346l-5.119-2.9a2.277,2.277,0,0,0-2.344-.076,2.456,2.456,0,0,0-1.313,2.155v5.82a2.457,2.457,0,0,0,1.313,2.159,2.356,2.356,0,0,0,1.117.285,2.272,2.272,0,0,0,1.23-.365l5.079-2.878a2.228,2.228,0,0,0,1.353-1.916A2.5,2.5,0,0,0,292.745,369.346Zm-.341,2.188a.578.578,0,0,1-.394.507l-.043.016-5.179,2.934-.027.013-.027.017a.634.634,0,0,1-.67.016.817.817,0,0,1-.437-.7v-5.819a.81.81,0,0,1,.438-.693.747.747,0,0,1,.338-.089.588.588,0,0,1,.332.1l.024.016,5.162,2.925A.841.841,0,0,1,292.4,371.534Zm0,0" transform="translate(-276.667 -359.688)" fill="#707070" stroke="#707070" stroke-width="0.2"/>
    </g>
  </g>
</svg>
