<svg xmlns="http://www.w3.org/2000/svg" width="40.503" height="40.503" viewBox="0 0 40.503 40.503">
  <defs>
    <style>
      .cls-1 {
        fill: #707070;
        stroke: #707070;
        stroke-width: 0.5px;
      }
    </style>
  </defs>
  <g id="天气" transform="translate(-64.269 -67.9)">
    <path id="路径_286" data-name="路径 286" class="cls-1" d="M254.784,72.162a.864.864,0,0,0,1.6-.65l-1.145-2.82a.864.864,0,0,0-1.6.65Z" transform="translate(-180.594)"/>
    <path id="路径_287" data-name="路径 287" class="cls-1" d="M66.849,253.384l2.8,1.184a.864.864,0,0,0,.672-1.591l-2.8-1.184a.864.864,0,1,0-.672,1.591Z" transform="translate(-1.722 -175.283)"/>
    <path id="路径_288" data-name="路径 288" class="cls-1" d="M68.531,487.155a.864.864,0,1,0-.65-1.6l-2.82,1.145a.864.864,0,1,0,.65,1.6Z" transform="translate(0 -398.495)"/>
    <path id="路径_289" data-name="路径 289" class="cls-1" d="M632.2,258.906a.861.861,0,0,0,.325-.064l2.737-1.111a.864.864,0,0,0-.65-1.6l-2.737,1.111a.864.864,0,0,0,.325,1.664Z" transform="translate(-541.416 -179.429)"/>
    <path id="路径_290" data-name="路径 290" class="cls-1" d="M485.051,75.2a.863.863,0,0,0,1.132-.46l1.184-2.8a.864.864,0,0,0-1.591-.672l-1.184,2.8A.864.864,0,0,0,485.051,75.2Z" transform="translate(-401.209 -2.469)"/>
    <path id="路径_291" data-name="路径 291" class="cls-1" d="M128.311,227.177a7,7,0,0,0-3.932-1.944,10.544,10.544,0,0,0-10.266-9.73c.022-.249.034-.5.034-.749a8.931,8.931,0,0,0-17.851,0,8.422,8.422,0,0,0,2.81,6.286,4.645,4.645,0,0,0-2.553,4.11q0,.109.005.217a6.683,6.683,0,0,0,1.836,13.173h24.978a6.992,6.992,0,0,0,4.866-1.954,6.506,6.506,0,0,0,.073-9.41ZM98.084,214.755a7.142,7.142,0,0,1,14.276,0,6.762,6.762,0,0,1-.051.828,10.689,10.689,0,0,0-8.225,5.712,4.924,4.924,0,0,0-2.708-.8h-.114A6.789,6.789,0,0,1,98.084,214.755Zm28.895,20.607a5.184,5.184,0,0,1-3.606,1.452H98.395a4.97,4.97,0,0,1-.715-9.908.9.9,0,0,0,.617-.369.84.84,0,0,0,.13-.69,2.85,2.85,0,0,1-.086-.7,2.971,2.971,0,0,1,2.589-2.9.911.911,0,0,0,.409-.031h.036a3.067,3.067,0,0,1,2.354,1.082.911.911,0,0,0,.85.3.885.885,0,0,0,.688-.57,8.9,8.9,0,0,1,8.43-5.814,8.773,8.773,0,0,1,8.912,8.607c0,.036,0,.072,0,.107s0,.047,0,.071a.877.877,0,0,0,.869.881,5.229,5.229,0,0,1,3.553,1.5,4.819,4.819,0,0,1-.056,6.976Z" transform="translate(-25.765 -130.388)"/>
  </g>
</svg>
