<svg xmlns="http://www.w3.org/2000/svg" xmlns:xlink="http://www.w3.org/1999/xlink" width="72" height="56.942" viewBox="0 0 72 56.942">
  <defs>
    <linearGradient id="linear-gradient" x1="0.5" y1="0.93" x2="0.5" y2="-0.097" gradientUnits="objectBoundingBox">
      <stop offset="0" stop-color="#727272"/>
      <stop offset="0.17" stop-color="#b9b9b9"/>
      <stop offset="0.35" stop-color="#e9e9e9"/>
      <stop offset="0.48" stop-color="#f7f7f7"/>
      <stop offset="0.58" stop-color="#fefefe"/>
      <stop offset="0.71" stop-color="#bbb"/>
      <stop offset="0.82" stop-color="#6b6b6b"/>
      <stop offset="1" stop-color="#d9d9d9"/>
    </linearGradient>
    <linearGradient id="linear-gradient-2" x1="0.93" y1="0.5" x2="-0.097" y2="0.5" gradientUnits="objectBoundingBox">
      <stop offset="0" stop-color="#6a6a6a"/>
      <stop offset="0.17" stop-color="#adadad"/>
      <stop offset="0.35" stop-color="#ebebeb"/>
      <stop offset="0.48" stop-color="#f6f6f6"/>
      <stop offset="0.58" stop-color="#fefefe"/>
      <stop offset="0.71" stop-color="#b8b8b8"/>
      <stop offset="0.82" stop-color="#747474"/>
      <stop offset="1" stop-color="#d8d8d8"/>
    </linearGradient>
    <linearGradient id="linear-gradient-3" x1="0.5" y1="0.93" x2="0.5" y2="-0.097" gradientUnits="objectBoundingBox">
      <stop offset="0" stop-color="#737373"/>
      <stop offset="0.17" stop-color="#b5b5b5"/>
      <stop offset="0.35" stop-color="#e7e7e7"/>
      <stop offset="0.48" stop-color="#f3f3f3"/>
      <stop offset="0.58" stop-color="#fefefe"/>
      <stop offset="0.71" stop-color="#bbb"/>
      <stop offset="0.82" stop-color="#777"/>
      <stop offset="1" stop-color="#dcdcdc"/>
    </linearGradient>
    <linearGradient id="linear-gradient-4" x1="0.501" y1="0.941" x2="0.501" y2="-0.134" gradientUnits="objectBoundingBox">
      <stop offset="0" stop-color="#6c6c6c"/>
      <stop offset="0.21" stop-color="#b1b1b1"/>
      <stop offset="0.3" stop-color="#ececec"/>
      <stop offset="0.36" stop-color="#f7f7f7"/>
      <stop offset="0.5" stop-color="#fefefe"/>
      <stop offset="0.71" stop-color="#bcbcbc"/>
      <stop offset="0.82" stop-color="#787878"/>
      <stop offset="1" stop-color="#d7d7d7"/>
    </linearGradient>
    <linearGradient id="linear-gradient-5" x1="0.494" y1="0.059" x2="0.494" y2="1.077" gradientUnits="objectBoundingBox">
      <stop offset="0" stop-color="#696969"/>
      <stop offset="0.17" stop-color="#afafaf"/>
      <stop offset="0.35" stop-color="#efefef"/>
      <stop offset="0.48" stop-color="#f8f8f8"/>
      <stop offset="0.58" stop-color="#fefefe"/>
      <stop offset="0.71" stop-color="#b7b7b7"/>
      <stop offset="0.82" stop-color="#737373"/>
      <stop offset="1" stop-color="#dcdcdc"/>
    </linearGradient>
    <linearGradient id="linear-gradient-6" x1="0.5" y1="0.071" x2="0.5" y2="1.091" gradientUnits="objectBoundingBox">
      <stop offset="0" stop-color="#6b6b6b"/>
      <stop offset="0.17" stop-color="#adadad"/>
      <stop offset="0.35" stop-color="#ededed"/>
      <stop offset="0.48" stop-color="#f7f7f7"/>
      <stop offset="0.58" stop-color="#fefefe"/>
      <stop offset="0.71" stop-color="#b9b9b9"/>
      <stop offset="0.82" stop-color="#707070"/>
      <stop offset="1" stop-color="#d0d0d0"/>
    </linearGradient>
  </defs>
  <g id="_05" data-name="05" transform="translate(-2407.45 741)">
    <path id="路径_368" data-name="路径 368" d="M138.912,311.478H130.5V277.526h8.412a6.027,6.027,0,0,0,6.015-6.015V263.1h33.952v8.412a6.027,6.027,0,0,0,6.015,6.015H193.3v33.952H138.912Z" transform="translate(2281.81 -999.546)" fill-rule="evenodd"/>
    <path id="路径_369" data-name="路径 369" d="M139.137,311.485H130.9V277.926h8.237a6.213,6.213,0,0,0,6.189-6.189V263.5h33.559v8.237a6.213,6.213,0,0,0,6.189,6.189h8.237v33.559H139.137Z" transform="translate(2281.584 -999.771)" fill-rule="evenodd" fill="url(#linear-gradient)"/>
    <path id="路径_370" data-name="路径 370" d="M164,287.018V263.5h33.559v23.518h0v10.16H164Z" transform="translate(2262.866 -999.706)" fill-rule="evenodd" fill="url(#linear-gradient-2)"/>
    <path id="路径_371" data-name="路径 371" d="M139.312,330.159H130.9V296.6h14.557a100.859,100.859,0,0,0,33.559,0h14.252v33.559H139.312Z" transform="translate(2281.584 -1018.445)" fill-rule="evenodd" fill="url(#linear-gradient-3)"/>
    <g id="组_282" data-name="组 282" transform="translate(2422.508 -741)">
      <g id="组_281" data-name="组 281" transform="translate(0 9.24) rotate(-90)">
        <path id="路径_189" data-name="路径 189" d="M7.017,1.525A1.544,1.544,0,0,0,5.492,0H1.525A1.544,1.544,0,0,0,0,1.525V40.358a1.544,1.544,0,0,0,1.525,1.525H5.492a1.544,1.544,0,0,0,1.525-1.525Z" transform="translate(2.223 0)" fill-rule="evenodd"/>
        <path id="路径_190" data-name="路径 190" d="M6.581,1.31V40.143A1.311,1.311,0,0,1,5.274,41.45H1.308A1.311,1.311,0,0,1,0,40.143V1.31A1.311,1.311,0,0,1,1.308,0H5.274A1.259,1.259,0,0,1,6.581,1.31Z" transform="translate(2.441 0.216)" fill-rule="evenodd" fill="url(#linear-gradient-4)"/>
        <g id="组_39" data-name="组 39" transform="translate(0 35.499)">
          <rect id="矩形_57" data-name="矩形 57" width="1.351" height="2.397" transform="translate(1.09 0.828)"/>
          <rect id="矩形_58" data-name="矩形 58" width="0.959" height="2.048" transform="translate(1.264 1.046)" fill="url(#linear-gradient-5)"/>
          <path id="路径_201" data-name="路径 201" d="M.392,4.1H1.569A.391.391,0,0,0,1.961,3.7V.392A.391.391,0,0,0,1.569,0H.392A.391.391,0,0,0,0,.392V3.7A.391.391,0,0,0,.392,4.1Z" transform="translate(0)" fill-rule="evenodd"/>
          <path id="路径_202" data-name="路径 202" d="M.218,3.748H1.395a.206.206,0,0,0,.218-.218V.218A.206.206,0,0,0,1.395,0H.218A.206.206,0,0,0,0,.218V3.53C.044,3.617.131,3.748.218,3.748Z" transform="translate(0.174 0.174)" fill-rule="evenodd" fill="url(#linear-gradient-6)"/>
          <path id="路径_203" data-name="路径 203" d="M1.22.959H.174A.187.187,0,0,1,0,.785V.174A.187.187,0,0,1,.174,0H1.22a.187.187,0,0,1,.174.174v.61A.16.16,0,0,1,1.22.959Z" transform="translate(0.262 0.262)" fill="#666" fill-rule="evenodd"/>
          <path id="路径_204" data-name="路径 204" d="M1.22,1.831H.174A.187.187,0,0,1,0,1.656V.174A.187.187,0,0,1,.174,0H1.22a.187.187,0,0,1,.174.174V1.656A.187.187,0,0,1,1.22,1.831Z" transform="translate(0.262 1.351)" fill="#898989" fill-rule="evenodd"/>
          <path id="路径_205" data-name="路径 205" d="M1.22.523H.174A.187.187,0,0,1,0,.349V.174A.187.187,0,0,1,.174,0H1.22a.187.187,0,0,1,.174.174V.349A.187.187,0,0,1,1.22.523Z" transform="translate(0.262 3.312)" fill="#c5c5c5" fill-rule="evenodd"/>
        </g>
        <g id="组_270" data-name="组 270" transform="translate(0 24.603)">
          <rect id="矩形_57-2" data-name="矩形 57" width="1.351" height="2.397" transform="translate(1.09 0.828)"/>
          <rect id="矩形_58-2" data-name="矩形 58" width="0.959" height="2.048" transform="translate(1.264 1.046)" fill="url(#linear-gradient-5)"/>
          <path id="路径_201-2" data-name="路径 201" d="M.392,4.1H1.569A.391.391,0,0,0,1.961,3.7V.392A.391.391,0,0,0,1.569,0H.392A.391.391,0,0,0,0,.392V3.7A.391.391,0,0,0,.392,4.1Z" transform="translate(0)" fill-rule="evenodd"/>
          <path id="路径_202-2" data-name="路径 202" d="M.218,3.748H1.395a.206.206,0,0,0,.218-.218V.218A.206.206,0,0,0,1.395,0H.218A.206.206,0,0,0,0,.218V3.53C.044,3.617.131,3.748.218,3.748Z" transform="translate(0.174 0.174)" fill-rule="evenodd" fill="url(#linear-gradient-6)"/>
          <path id="路径_203-2" data-name="路径 203" d="M1.22.959H.174A.187.187,0,0,1,0,.785V.174A.187.187,0,0,1,.174,0H1.22a.187.187,0,0,1,.174.174v.61A.16.16,0,0,1,1.22.959Z" transform="translate(0.262 0.262)" fill="#666" fill-rule="evenodd"/>
          <path id="路径_204-2" data-name="路径 204" d="M1.22,1.831H.174A.187.187,0,0,1,0,1.656V.174A.187.187,0,0,1,.174,0H1.22a.187.187,0,0,1,.174.174V1.656A.187.187,0,0,1,1.22,1.831Z" transform="translate(0.262 1.351)" fill="#898989" fill-rule="evenodd"/>
          <path id="路径_205-2" data-name="路径 205" d="M1.22.523H.174A.187.187,0,0,1,0,.349V.174A.187.187,0,0,1,.174,0H1.22a.187.187,0,0,1,.174.174V.349A.187.187,0,0,1,1.22.523Z" transform="translate(0.262 3.312)" fill="#c5c5c5" fill-rule="evenodd"/>
        </g>
        <g id="组_271" data-name="组 271" transform="translate(0 13.271)">
          <rect id="矩形_57-3" data-name="矩形 57" width="1.351" height="2.397" transform="translate(1.09 0.828)"/>
          <rect id="矩形_58-3" data-name="矩形 58" width="0.959" height="2.048" transform="translate(1.264 1.046)" fill="url(#linear-gradient-5)"/>
          <path id="路径_201-3" data-name="路径 201" d="M.392,4.1H1.569A.391.391,0,0,0,1.961,3.7V.392A.391.391,0,0,0,1.569,0H.392A.391.391,0,0,0,0,.392V3.7A.391.391,0,0,0,.392,4.1Z" transform="translate(0)" fill-rule="evenodd"/>
          <path id="路径_202-3" data-name="路径 202" d="M.218,3.748H1.395a.206.206,0,0,0,.218-.218V.218A.206.206,0,0,0,1.395,0H.218A.206.206,0,0,0,0,.218V3.53C.044,3.617.131,3.748.218,3.748Z" transform="translate(0.174 0.174)" fill-rule="evenodd" fill="url(#linear-gradient-6)"/>
          <path id="路径_203-3" data-name="路径 203" d="M1.22.959H.174A.187.187,0,0,1,0,.785V.174A.187.187,0,0,1,.174,0H1.22a.187.187,0,0,1,.174.174v.61A.16.16,0,0,1,1.22.959Z" transform="translate(0.262 0.262)" fill="#666" fill-rule="evenodd"/>
          <path id="路径_204-3" data-name="路径 204" d="M1.22,1.831H.174A.187.187,0,0,1,0,1.656V.174A.187.187,0,0,1,.174,0H1.22a.187.187,0,0,1,.174.174V1.656A.187.187,0,0,1,1.22,1.831Z" transform="translate(0.262 1.351)" fill="#898989" fill-rule="evenodd"/>
          <path id="路径_205-3" data-name="路径 205" d="M1.22.523H.174A.187.187,0,0,1,0,.349V.174A.187.187,0,0,1,.174,0H1.22a.187.187,0,0,1,.174.174V.349A.187.187,0,0,1,1.22.523Z" transform="translate(0.262 3.312)" fill="#c5c5c5" fill-rule="evenodd"/>
        </g>
        <g id="组_272" data-name="组 272" transform="translate(0 2.375)">
          <rect id="矩形_57-4" data-name="矩形 57" width="1.351" height="2.397" transform="translate(1.09 0.828)"/>
          <rect id="矩形_58-4" data-name="矩形 58" width="0.959" height="2.048" transform="translate(1.264 1.046)" fill="url(#linear-gradient-5)"/>
          <path id="路径_201-4" data-name="路径 201" d="M.392,4.1H1.569A.391.391,0,0,0,1.961,3.7V.392A.391.391,0,0,0,1.569,0H.392A.391.391,0,0,0,0,.392V3.7A.391.391,0,0,0,.392,4.1Z" transform="translate(0)" fill-rule="evenodd"/>
          <path id="路径_202-4" data-name="路径 202" d="M.218,3.748H1.395a.206.206,0,0,0,.218-.218V.218A.206.206,0,0,0,1.395,0H.218A.206.206,0,0,0,0,.218V3.53C.044,3.617.131,3.748.218,3.748Z" transform="translate(0.174 0.174)" fill-rule="evenodd" fill="url(#linear-gradient-6)"/>
          <path id="路径_203-4" data-name="路径 203" d="M1.22.959H.174A.187.187,0,0,1,0,.785V.174A.187.187,0,0,1,.174,0H1.22a.187.187,0,0,1,.174.174v.61A.16.16,0,0,1,1.22.959Z" transform="translate(0.262 0.262)" fill="#666" fill-rule="evenodd"/>
          <path id="路径_204-4" data-name="路径 204" d="M1.22,1.831H.174A.187.187,0,0,1,0,1.656V.174A.187.187,0,0,1,.174,0H1.22a.187.187,0,0,1,.174.174V1.656A.187.187,0,0,1,1.22,1.831Z" transform="translate(0.262 1.351)" fill="#898989" fill-rule="evenodd"/>
          <path id="路径_205-4" data-name="路径 205" d="M1.22.523H.174A.187.187,0,0,1,0,.349V.174A.187.187,0,0,1,.174,0H1.22a.187.187,0,0,1,.174.174V.349A.187.187,0,0,1,1.22.523Z" transform="translate(0.262 3.312)" fill="#c5c5c5" fill-rule="evenodd"/>
        </g>
      </g>
    </g>
    <g id="组_283" data-name="组 283" transform="translate(2479.45 -725.942) rotate(90)">
      <g id="组_280" data-name="组 280" transform="translate(41.884 62.76) rotate(90)">
        <path id="路径_189-2" data-name="路径 189" d="M7.017,1.525A1.544,1.544,0,0,0,5.492,0H1.525A1.544,1.544,0,0,0,0,1.525V40.358a1.544,1.544,0,0,0,1.525,1.525H5.492a1.544,1.544,0,0,0,1.525-1.525Z" transform="translate(2.223 0)" fill-rule="evenodd"/>
        <path id="路径_190-2" data-name="路径 190" d="M6.581,1.31V40.143A1.311,1.311,0,0,1,5.274,41.45H1.308A1.311,1.311,0,0,1,0,40.143V1.31A1.311,1.311,0,0,1,1.308,0H5.274A1.259,1.259,0,0,1,6.581,1.31Z" transform="translate(2.441 0.216)" fill-rule="evenodd" fill="url(#linear-gradient-4)"/>
        <g id="组_39-2" data-name="组 39" transform="translate(0 35.499)">
          <rect id="矩形_57-5" data-name="矩形 57" width="1.351" height="2.397" transform="translate(1.09 0.828)"/>
          <rect id="矩形_58-5" data-name="矩形 58" width="0.959" height="2.048" transform="translate(1.264 1.046)" fill="url(#linear-gradient-5)"/>
          <path id="路径_201-5" data-name="路径 201" d="M.392,4.1H1.569A.391.391,0,0,0,1.961,3.7V.392A.391.391,0,0,0,1.569,0H.392A.391.391,0,0,0,0,.392V3.7A.391.391,0,0,0,.392,4.1Z" transform="translate(0)" fill-rule="evenodd"/>
          <path id="路径_202-5" data-name="路径 202" d="M.218,3.748H1.395a.206.206,0,0,0,.218-.218V.218A.206.206,0,0,0,1.395,0H.218A.206.206,0,0,0,0,.218V3.53C.044,3.617.131,3.748.218,3.748Z" transform="translate(0.174 0.174)" fill-rule="evenodd" fill="url(#linear-gradient-6)"/>
          <path id="路径_203-5" data-name="路径 203" d="M1.22.959H.174A.187.187,0,0,1,0,.785V.174A.187.187,0,0,1,.174,0H1.22a.187.187,0,0,1,.174.174v.61A.16.16,0,0,1,1.22.959Z" transform="translate(0.262 0.262)" fill="#666" fill-rule="evenodd"/>
          <path id="路径_204-5" data-name="路径 204" d="M1.22,1.831H.174A.187.187,0,0,1,0,1.656V.174A.187.187,0,0,1,.174,0H1.22a.187.187,0,0,1,.174.174V1.656A.187.187,0,0,1,1.22,1.831Z" transform="translate(0.262 1.351)" fill="#898989" fill-rule="evenodd"/>
          <path id="路径_205-5" data-name="路径 205" d="M1.22.523H.174A.187.187,0,0,1,0,.349V.174A.187.187,0,0,1,.174,0H1.22a.187.187,0,0,1,.174.174V.349A.187.187,0,0,1,1.22.523Z" transform="translate(0.262 3.312)" fill="#c5c5c5" fill-rule="evenodd"/>
        </g>
        <g id="组_270-2" data-name="组 270" transform="translate(0 24.603)">
          <rect id="矩形_57-6" data-name="矩形 57" width="1.351" height="2.397" transform="translate(1.09 0.828)"/>
          <rect id="矩形_58-6" data-name="矩形 58" width="0.959" height="2.048" transform="translate(1.264 1.046)" fill="url(#linear-gradient-5)"/>
          <path id="路径_201-6" data-name="路径 201" d="M.392,4.1H1.569A.391.391,0,0,0,1.961,3.7V.392A.391.391,0,0,0,1.569,0H.392A.391.391,0,0,0,0,.392V3.7A.391.391,0,0,0,.392,4.1Z" transform="translate(0)" fill-rule="evenodd"/>
          <path id="路径_202-6" data-name="路径 202" d="M.218,3.748H1.395a.206.206,0,0,0,.218-.218V.218A.206.206,0,0,0,1.395,0H.218A.206.206,0,0,0,0,.218V3.53C.044,3.617.131,3.748.218,3.748Z" transform="translate(0.174 0.174)" fill-rule="evenodd" fill="url(#linear-gradient-6)"/>
          <path id="路径_203-6" data-name="路径 203" d="M1.22.959H.174A.187.187,0,0,1,0,.785V.174A.187.187,0,0,1,.174,0H1.22a.187.187,0,0,1,.174.174v.61A.16.16,0,0,1,1.22.959Z" transform="translate(0.262 0.262)" fill="#666" fill-rule="evenodd"/>
          <path id="路径_204-6" data-name="路径 204" d="M1.22,1.831H.174A.187.187,0,0,1,0,1.656V.174A.187.187,0,0,1,.174,0H1.22a.187.187,0,0,1,.174.174V1.656A.187.187,0,0,1,1.22,1.831Z" transform="translate(0.262 1.351)" fill="#898989" fill-rule="evenodd"/>
          <path id="路径_205-6" data-name="路径 205" d="M1.22.523H.174A.187.187,0,0,1,0,.349V.174A.187.187,0,0,1,.174,0H1.22a.187.187,0,0,1,.174.174V.349A.187.187,0,0,1,1.22.523Z" transform="translate(0.262 3.312)" fill="#c5c5c5" fill-rule="evenodd"/>
        </g>
        <g id="组_271-2" data-name="组 271" transform="translate(0 13.271)">
          <rect id="矩形_57-7" data-name="矩形 57" width="1.351" height="2.397" transform="translate(1.09 0.828)"/>
          <rect id="矩形_58-7" data-name="矩形 58" width="0.959" height="2.048" transform="translate(1.264 1.046)" fill="url(#linear-gradient-5)"/>
          <path id="路径_201-7" data-name="路径 201" d="M.392,4.1H1.569A.391.391,0,0,0,1.961,3.7V.392A.391.391,0,0,0,1.569,0H.392A.391.391,0,0,0,0,.392V3.7A.391.391,0,0,0,.392,4.1Z" transform="translate(0)" fill-rule="evenodd"/>
          <path id="路径_202-7" data-name="路径 202" d="M.218,3.748H1.395a.206.206,0,0,0,.218-.218V.218A.206.206,0,0,0,1.395,0H.218A.206.206,0,0,0,0,.218V3.53C.044,3.617.131,3.748.218,3.748Z" transform="translate(0.174 0.174)" fill-rule="evenodd" fill="url(#linear-gradient-6)"/>
          <path id="路径_203-7" data-name="路径 203" d="M1.22.959H.174A.187.187,0,0,1,0,.785V.174A.187.187,0,0,1,.174,0H1.22a.187.187,0,0,1,.174.174v.61A.16.16,0,0,1,1.22.959Z" transform="translate(0.262 0.262)" fill="#666" fill-rule="evenodd"/>
          <path id="路径_204-7" data-name="路径 204" d="M1.22,1.831H.174A.187.187,0,0,1,0,1.656V.174A.187.187,0,0,1,.174,0H1.22a.187.187,0,0,1,.174.174V1.656A.187.187,0,0,1,1.22,1.831Z" transform="translate(0.262 1.351)" fill="#898989" fill-rule="evenodd"/>
          <path id="路径_205-7" data-name="路径 205" d="M1.22.523H.174A.187.187,0,0,1,0,.349V.174A.187.187,0,0,1,.174,0H1.22a.187.187,0,0,1,.174.174V.349A.187.187,0,0,1,1.22.523Z" transform="translate(0.262 3.312)" fill="#c5c5c5" fill-rule="evenodd"/>
        </g>
        <g id="组_272-2" data-name="组 272" transform="translate(0 2.375)">
          <rect id="矩形_57-8" data-name="矩形 57" width="1.351" height="2.397" transform="translate(1.09 0.828)"/>
          <rect id="矩形_58-8" data-name="矩形 58" width="0.959" height="2.048" transform="translate(1.264 1.046)" fill="url(#linear-gradient-5)"/>
          <path id="路径_201-8" data-name="路径 201" d="M.392,4.1H1.569A.391.391,0,0,0,1.961,3.7V.392A.391.391,0,0,0,1.569,0H.392A.391.391,0,0,0,0,.392V3.7A.391.391,0,0,0,.392,4.1Z" transform="translate(0)" fill-rule="evenodd"/>
          <path id="路径_202-8" data-name="路径 202" d="M.218,3.748H1.395a.206.206,0,0,0,.218-.218V.218A.206.206,0,0,0,1.395,0H.218A.206.206,0,0,0,0,.218V3.53C.044,3.617.131,3.748.218,3.748Z" transform="translate(0.174 0.174)" fill-rule="evenodd" fill="url(#linear-gradient-6)"/>
          <path id="路径_203-8" data-name="路径 203" d="M1.22.959H.174A.187.187,0,0,1,0,.785V.174A.187.187,0,0,1,.174,0H1.22a.187.187,0,0,1,.174.174v.61A.16.16,0,0,1,1.22.959Z" transform="translate(0.262 0.262)" fill="#666" fill-rule="evenodd"/>
          <path id="路径_204-8" data-name="路径 204" d="M1.22,1.831H.174A.187.187,0,0,1,0,1.656V.174A.187.187,0,0,1,.174,0H1.22a.187.187,0,0,1,.174.174V1.656A.187.187,0,0,1,1.22,1.831Z" transform="translate(0.262 1.351)" fill="#898989" fill-rule="evenodd"/>
          <path id="路径_205-8" data-name="路径 205" d="M1.22.523H.174A.187.187,0,0,1,0,.349V.174A.187.187,0,0,1,.174,0H1.22a.187.187,0,0,1,.174.174V.349A.187.187,0,0,1,1.22.523Z" transform="translate(0.262 3.312)" fill="#c5c5c5" fill-rule="evenodd"/>
        </g>
      </g>
      <g id="组_281-2" data-name="组 281" transform="translate(0 9.24) rotate(-90)">
        <path id="路径_189-3" data-name="路径 189" d="M7.017,1.525A1.544,1.544,0,0,0,5.492,0H1.525A1.544,1.544,0,0,0,0,1.525V40.358a1.544,1.544,0,0,0,1.525,1.525H5.492a1.544,1.544,0,0,0,1.525-1.525Z" transform="translate(2.223 0)" fill-rule="evenodd"/>
        <path id="路径_190-3" data-name="路径 190" d="M6.581,1.31V40.143A1.311,1.311,0,0,1,5.274,41.45H1.308A1.311,1.311,0,0,1,0,40.143V1.31A1.311,1.311,0,0,1,1.308,0H5.274A1.259,1.259,0,0,1,6.581,1.31Z" transform="translate(2.441 0.216)" fill-rule="evenodd" fill="url(#linear-gradient-4)"/>
        <g id="组_39-3" data-name="组 39" transform="translate(0 35.499)">
          <rect id="矩形_57-9" data-name="矩形 57" width="1.351" height="2.397" transform="translate(1.09 0.828)"/>
          <rect id="矩形_58-9" data-name="矩形 58" width="0.959" height="2.048" transform="translate(1.264 1.046)" fill="url(#linear-gradient-5)"/>
          <path id="路径_201-9" data-name="路径 201" d="M.392,4.1H1.569A.391.391,0,0,0,1.961,3.7V.392A.391.391,0,0,0,1.569,0H.392A.391.391,0,0,0,0,.392V3.7A.391.391,0,0,0,.392,4.1Z" transform="translate(0)" fill-rule="evenodd"/>
          <path id="路径_202-9" data-name="路径 202" d="M.218,3.748H1.395a.206.206,0,0,0,.218-.218V.218A.206.206,0,0,0,1.395,0H.218A.206.206,0,0,0,0,.218V3.53C.044,3.617.131,3.748.218,3.748Z" transform="translate(0.174 0.174)" fill-rule="evenodd" fill="url(#linear-gradient-6)"/>
          <path id="路径_203-9" data-name="路径 203" d="M1.22.959H.174A.187.187,0,0,1,0,.785V.174A.187.187,0,0,1,.174,0H1.22a.187.187,0,0,1,.174.174v.61A.16.16,0,0,1,1.22.959Z" transform="translate(0.262 0.262)" fill="#666" fill-rule="evenodd"/>
          <path id="路径_204-9" data-name="路径 204" d="M1.22,1.831H.174A.187.187,0,0,1,0,1.656V.174A.187.187,0,0,1,.174,0H1.22a.187.187,0,0,1,.174.174V1.656A.187.187,0,0,1,1.22,1.831Z" transform="translate(0.262 1.351)" fill="#898989" fill-rule="evenodd"/>
          <path id="路径_205-9" data-name="路径 205" d="M1.22.523H.174A.187.187,0,0,1,0,.349V.174A.187.187,0,0,1,.174,0H1.22a.187.187,0,0,1,.174.174V.349A.187.187,0,0,1,1.22.523Z" transform="translate(0.262 3.312)" fill="#c5c5c5" fill-rule="evenodd"/>
        </g>
        <g id="组_270-3" data-name="组 270" transform="translate(0 24.603)">
          <rect id="矩形_57-10" data-name="矩形 57" width="1.351" height="2.397" transform="translate(1.09 0.828)"/>
          <rect id="矩形_58-10" data-name="矩形 58" width="0.959" height="2.048" transform="translate(1.264 1.046)" fill="url(#linear-gradient-5)"/>
          <path id="路径_201-10" data-name="路径 201" d="M.392,4.1H1.569A.391.391,0,0,0,1.961,3.7V.392A.391.391,0,0,0,1.569,0H.392A.391.391,0,0,0,0,.392V3.7A.391.391,0,0,0,.392,4.1Z" transform="translate(0)" fill-rule="evenodd"/>
          <path id="路径_202-10" data-name="路径 202" d="M.218,3.748H1.395a.206.206,0,0,0,.218-.218V.218A.206.206,0,0,0,1.395,0H.218A.206.206,0,0,0,0,.218V3.53C.044,3.617.131,3.748.218,3.748Z" transform="translate(0.174 0.174)" fill-rule="evenodd" fill="url(#linear-gradient-6)"/>
          <path id="路径_203-10" data-name="路径 203" d="M1.22.959H.174A.187.187,0,0,1,0,.785V.174A.187.187,0,0,1,.174,0H1.22a.187.187,0,0,1,.174.174v.61A.16.16,0,0,1,1.22.959Z" transform="translate(0.262 0.262)" fill="#666" fill-rule="evenodd"/>
          <path id="路径_204-10" data-name="路径 204" d="M1.22,1.831H.174A.187.187,0,0,1,0,1.656V.174A.187.187,0,0,1,.174,0H1.22a.187.187,0,0,1,.174.174V1.656A.187.187,0,0,1,1.22,1.831Z" transform="translate(0.262 1.351)" fill="#898989" fill-rule="evenodd"/>
          <path id="路径_205-10" data-name="路径 205" d="M1.22.523H.174A.187.187,0,0,1,0,.349V.174A.187.187,0,0,1,.174,0H1.22a.187.187,0,0,1,.174.174V.349A.187.187,0,0,1,1.22.523Z" transform="translate(0.262 3.312)" fill="#c5c5c5" fill-rule="evenodd"/>
        </g>
        <g id="组_271-3" data-name="组 271" transform="translate(0 13.271)">
          <rect id="矩形_57-11" data-name="矩形 57" width="1.351" height="2.397" transform="translate(1.09 0.828)"/>
          <rect id="矩形_58-11" data-name="矩形 58" width="0.959" height="2.048" transform="translate(1.264 1.046)" fill="url(#linear-gradient-5)"/>
          <path id="路径_201-11" data-name="路径 201" d="M.392,4.1H1.569A.391.391,0,0,0,1.961,3.7V.392A.391.391,0,0,0,1.569,0H.392A.391.391,0,0,0,0,.392V3.7A.391.391,0,0,0,.392,4.1Z" transform="translate(0)" fill-rule="evenodd"/>
          <path id="路径_202-11" data-name="路径 202" d="M.218,3.748H1.395a.206.206,0,0,0,.218-.218V.218A.206.206,0,0,0,1.395,0H.218A.206.206,0,0,0,0,.218V3.53C.044,3.617.131,3.748.218,3.748Z" transform="translate(0.174 0.174)" fill-rule="evenodd" fill="url(#linear-gradient-6)"/>
          <path id="路径_203-11" data-name="路径 203" d="M1.22.959H.174A.187.187,0,0,1,0,.785V.174A.187.187,0,0,1,.174,0H1.22a.187.187,0,0,1,.174.174v.61A.16.16,0,0,1,1.22.959Z" transform="translate(0.262 0.262)" fill="#666" fill-rule="evenodd"/>
          <path id="路径_204-11" data-name="路径 204" d="M1.22,1.831H.174A.187.187,0,0,1,0,1.656V.174A.187.187,0,0,1,.174,0H1.22a.187.187,0,0,1,.174.174V1.656A.187.187,0,0,1,1.22,1.831Z" transform="translate(0.262 1.351)" fill="#898989" fill-rule="evenodd"/>
          <path id="路径_205-11" data-name="路径 205" d="M1.22.523H.174A.187.187,0,0,1,0,.349V.174A.187.187,0,0,1,.174,0H1.22a.187.187,0,0,1,.174.174V.349A.187.187,0,0,1,1.22.523Z" transform="translate(0.262 3.312)" fill="#c5c5c5" fill-rule="evenodd"/>
        </g>
        <g id="组_272-3" data-name="组 272" transform="translate(0 2.375)">
          <rect id="矩形_57-12" data-name="矩形 57" width="1.351" height="2.397" transform="translate(1.09 0.828)"/>
          <rect id="矩形_58-12" data-name="矩形 58" width="0.959" height="2.048" transform="translate(1.264 1.046)" fill="url(#linear-gradient-5)"/>
          <path id="路径_201-12" data-name="路径 201" d="M.392,4.1H1.569A.391.391,0,0,0,1.961,3.7V.392A.391.391,0,0,0,1.569,0H.392A.391.391,0,0,0,0,.392V3.7A.391.391,0,0,0,.392,4.1Z" transform="translate(0)" fill-rule="evenodd"/>
          <path id="路径_202-12" data-name="路径 202" d="M.218,3.748H1.395a.206.206,0,0,0,.218-.218V.218A.206.206,0,0,0,1.395,0H.218A.206.206,0,0,0,0,.218V3.53C.044,3.617.131,3.748.218,3.748Z" transform="translate(0.174 0.174)" fill-rule="evenodd" fill="url(#linear-gradient-6)"/>
          <path id="路径_203-12" data-name="路径 203" d="M1.22.959H.174A.187.187,0,0,1,0,.785V.174A.187.187,0,0,1,.174,0H1.22a.187.187,0,0,1,.174.174v.61A.16.16,0,0,1,1.22.959Z" transform="translate(0.262 0.262)" fill="#666" fill-rule="evenodd"/>
          <path id="路径_204-12" data-name="路径 204" d="M1.22,1.831H.174A.187.187,0,0,1,0,1.656V.174A.187.187,0,0,1,.174,0H1.22a.187.187,0,0,1,.174.174V1.656A.187.187,0,0,1,1.22,1.831Z" transform="translate(0.262 1.351)" fill="#898989" fill-rule="evenodd"/>
          <path id="路径_205-12" data-name="路径 205" d="M1.22.523H.174A.187.187,0,0,1,0,.349V.174A.187.187,0,0,1,.174,0H1.22a.187.187,0,0,1,.174.174V.349A.187.187,0,0,1,1.22.523Z" transform="translate(0.262 3.312)" fill="#c5c5c5" fill-rule="evenodd"/>
        </g>
      </g>
    </g>
  </g>
</svg>
