<svg id="_03" data-name="03" xmlns="http://www.w3.org/2000/svg" xmlns:xlink="http://www.w3.org/1999/xlink" width="72" height="72.07" viewBox="0 0 72 72.07">
  <defs>
    <linearGradient id="linear-gradient" x1="0.048" y1="0.5" x2="0.949" y2="0.5" gradientUnits="objectBoundingBox">
      <stop offset="0" stop-color="#231815"/>
      <stop offset="0.5" stop-color="#e8e9e9"/>
      <stop offset="0.78" stop-color="#9e9e9f"/>
      <stop offset="1" stop-color="#484545"/>
    </linearGradient>
    <linearGradient id="linear-gradient-2" x1="-0.072" y1="0.5" x2="1.615" y2="0.5" gradientUnits="objectBoundingBox">
      <stop offset="0" stop-color="#231815"/>
      <stop offset="0.38" stop-color="#9e9e9f"/>
      <stop offset="0.86" stop-color="#e8e9e9"/>
      <stop offset="1" stop-color="#484545"/>
    </linearGradient>
    <linearGradient id="linear-gradient-3" x1="0.5" y1="0.93" x2="0.5" y2="-0.097" gradientUnits="objectBoundingBox">
      <stop offset="0" stop-color="#737373"/>
      <stop offset="0.17" stop-color="#b5b5b5"/>
      <stop offset="0.35" stop-color="#e7e7e7"/>
      <stop offset="0.48" stop-color="#f3f3f3"/>
      <stop offset="0.58" stop-color="#fefefe"/>
      <stop offset="0.71" stop-color="#bbb"/>
      <stop offset="0.82" stop-color="#777"/>
      <stop offset="1" stop-color="#dcdcdc"/>
    </linearGradient>
    <radialGradient id="radial-gradient" cx="0.841" cy="0.704" r="1.964" gradientTransform="translate(0.27) scale(0.46 1)" gradientUnits="objectBoundingBox">
      <stop offset="0" stop-color="#fff"/>
      <stop offset="1" stop-color="#9e9e9f"/>
    </radialGradient>
    <linearGradient id="linear-gradient-4" x1="0.5" y1="0.93" x2="0.5" y2="-0.097" gradientUnits="objectBoundingBox">
      <stop offset="0" stop-color="#727272"/>
      <stop offset="0.17" stop-color="#b9b9b9"/>
      <stop offset="0.35" stop-color="#e9e9e9"/>
      <stop offset="0.48" stop-color="#f7f7f7"/>
      <stop offset="0.58" stop-color="#fefefe"/>
      <stop offset="0.71" stop-color="#bbb"/>
      <stop offset="0.82" stop-color="#6b6b6b"/>
      <stop offset="1" stop-color="#d9d9d9"/>
    </linearGradient>
    <linearGradient id="linear-gradient-5" x1="0.93" y1="0.5" x2="-0.097" y2="0.5" gradientUnits="objectBoundingBox">
      <stop offset="0" stop-color="#6a6a6a"/>
      <stop offset="0.17" stop-color="#adadad"/>
      <stop offset="0.35" stop-color="#ebebeb"/>
      <stop offset="0.48" stop-color="#f6f6f6"/>
      <stop offset="0.58" stop-color="#fefefe"/>
      <stop offset="0.71" stop-color="#b8b8b8"/>
      <stop offset="0.82" stop-color="#747474"/>
      <stop offset="1" stop-color="#d8d8d8"/>
    </linearGradient>
    <linearGradient id="linear-gradient-7" x1="0.501" y1="0.941" x2="0.501" y2="-0.134" gradientUnits="objectBoundingBox">
      <stop offset="0" stop-color="#6c6c6c"/>
      <stop offset="0.21" stop-color="#b1b1b1"/>
      <stop offset="0.3" stop-color="#ececec"/>
      <stop offset="0.36" stop-color="#f7f7f7"/>
      <stop offset="0.5" stop-color="#fefefe"/>
      <stop offset="0.71" stop-color="#bcbcbc"/>
      <stop offset="0.82" stop-color="#787878"/>
      <stop offset="1" stop-color="#d7d7d7"/>
    </linearGradient>
    <linearGradient id="linear-gradient-8" x1="0.494" y1="0.059" x2="0.494" y2="1.077" gradientUnits="objectBoundingBox">
      <stop offset="0" stop-color="#696969"/>
      <stop offset="0.17" stop-color="#afafaf"/>
      <stop offset="0.35" stop-color="#efefef"/>
      <stop offset="0.48" stop-color="#f8f8f8"/>
      <stop offset="0.58" stop-color="#fefefe"/>
      <stop offset="0.71" stop-color="#b7b7b7"/>
      <stop offset="0.82" stop-color="#737373"/>
      <stop offset="1" stop-color="#dcdcdc"/>
    </linearGradient>
    <linearGradient id="linear-gradient-9" x1="0.5" y1="0.071" x2="0.5" y2="1.091" gradientUnits="objectBoundingBox">
      <stop offset="0" stop-color="#6b6b6b"/>
      <stop offset="0.17" stop-color="#adadad"/>
      <stop offset="0.35" stop-color="#ededed"/>
      <stop offset="0.48" stop-color="#f7f7f7"/>
      <stop offset="0.58" stop-color="#fefefe"/>
      <stop offset="0.71" stop-color="#b9b9b9"/>
      <stop offset="0.82" stop-color="#707070"/>
      <stop offset="1" stop-color="#d0d0d0"/>
    </linearGradient>
    <linearGradient id="linear-gradient-25" x1="1.032" y1="0.566" x2="-0.055" y2="0.419" gradientUnits="objectBoundingBox">
      <stop offset="0" stop-color="#929292"/>
      <stop offset="0.106" stop-color="#787878"/>
      <stop offset="0.449" stop-color="#efefef"/>
      <stop offset="0.767" stop-color="#f6f6f6"/>
      <stop offset="1" stop-color="#939393"/>
    </linearGradient>
    <linearGradient id="linear-gradient-26" x1="0.5" x2="0.5" y2="1" gradientUnits="objectBoundingBox">
      <stop offset="0" stop-color="#b4b4b4"/>
      <stop offset="0.042" stop-color="#e1e1e1"/>
      <stop offset="0.084" stop-color="#c9c9c9"/>
      <stop offset="0.901" stop-color="#a0a0a0"/>
      <stop offset="0.94" stop-color="#cecece"/>
      <stop offset="1" stop-color="#7f7f7f"/>
    </linearGradient>
    <linearGradient id="linear-gradient-27" x1="0.5" x2="0.5" y2="1" gradientUnits="objectBoundingBox">
      <stop offset="0" stop-color="#d20000"/>
      <stop offset="0.377" stop-color="#f00000"/>
      <stop offset="1" stop-color="#900000"/>
    </linearGradient>
  </defs>
  <g id="组_1612" data-name="组 1612" transform="translate(-2989.45 -42)">
    <g id="组_1599" data-name="组 1599" transform="translate(3018.275 46.419)">
      <path id="路径_3298" data-name="路径 3298" d="M306.382,330.868h0a.837.837,0,0,1,.088.248c.059.315-.044.608-.25.676v1.419a.651.651,0,0,1,.206.315c0,.023.015.023.015.045a.632.632,0,0,1-.118.721c-.029.023-.074.045-.1.068V335.8a.545.545,0,0,1,.177.225.53.53,0,0,1,.088.315c.029.293-.074.541-.265.586v1.352a.6.6,0,0,1,.147.158l.029.045a.479.479,0,0,1,.088.248c0,.023.015.068.015.09a1.15,1.15,0,0,1-.824.406h-2.869a1.357,1.357,0,0,1-.427-.09v-.946c-.015,0-.044-.023-.059-.023-.559-.27-.559-1.284.074-1.194l.015-1.262a.044.044,0,0,1-.044-.023c-.544-.18-.618-1.284.059-1.216l.015-1.352c-.015,0-.044-.023-.059-.023-.574-.225-.53-1.374.074-1.239l.015-1.329c-.015,0-.044-.023-.059-.023-.574-.225-.53-1.4.074-1.262,0-.451.015-.9.015-1.374-.015,0-.044-.023-.059-.023a.878.878,0,0,1-.4-.563.8.8,0,0,1,.088-.586.244.244,0,0,1,.059-.068.4.4,0,0,1,.339-.09l.015-1.419c-.029,0-.044-.023-.074-.023-.53-.248-.559-1.419.074-1.329l.015-1.464c-.633-.248-.647-1.532.015-1.4l.015-1.487c-.015,0-.044-.023-.059-.023-.559-.2-.574-1.509.074-1.4l.015-1.554c-.015,0-.044-.023-.059-.023a1.018,1.018,0,0,1-.28-1.329.374.374,0,0,1,.353-.135v-.541a.644.644,0,0,1,.206-.023h2.884a1.013,1.013,0,0,1,.647.248.584.584,0,0,1-.177.18v1.712c.309.293.4,1.149,0,1.307v1.667c.338.315.353,1.126,0,1.284v1.6c.324.293.4,1.059,0,1.216v1.6a.835.835,0,0,1,.191.293l.044.135c.074.338-.015.676-.235.766v1.532a.835.835,0,0,1,.191.293.32.32,0,0,1,.044.158.614.614,0,0,1-.235.721V330.6A1.575,1.575,0,0,1,306.382,330.868Z" transform="translate(-301.91 -314.4)" fill="#231815" fill-rule="evenodd"/>
      <path id="路径_3299" data-name="路径 3299" d="M309.193,327.171v.7c0,.946,0,1.892.015,2.816s0,1.825.015,2.748v2.681c0,.879,0,1.757.015,2.591v.586a.912.912,0,0,1-.486.135h-2.884a1.061,1.061,0,0,1-.368-.068v-.653c.015-.856.015-1.735.029-2.591.015-.879.015-1.78.029-2.681s.015-1.825.029-2.748.015-1.87.029-2.816v-.7c.015-.969.015-1.937.029-2.906.015-.991.015-1.982.029-3s.015-2.05.029-3.064c.015-1.059.015-2.1.029-3.176v-.406c.044,0,.1-.023.147-.023h2.884a1.267,1.267,0,0,1,.412.09v.315c0,1.059,0,2.118.015,3.176,0,1.036,0,2.05.015,3.064s0,2.005.015,3C309.193,325.233,309.193,326.2,309.193,327.171Z" transform="translate(-304.972 -314.571)" fill-rule="evenodd" fill="url(#linear-gradient)"/>
      <path id="路径_3300" data-name="路径 3300" d="M306.368,316.718c.471,0,.677,1.442-.015,1.262-.177-.045-.868-.338-1.589-.654s-1.486-.653-1.8-.789a.885.885,0,0,1-.25-1.149c.088-.113.294-.18.4-.045.029.045.824.361,1.619.7.78.293,1.575.631,1.633.676Zm-.824-2.118h.574a1.007,1.007,0,0,1,.6.2.365.365,0,0,1-.383.158h-.044a6.915,6.915,0,0,0-.677-.338l-.074-.023Zm1.339,24.473a1.26,1.26,0,0,1-.574.338c-.471-.158-1.089-.338-1.707-.5a11.786,11.786,0,0,1-1.825-.631c-.486-.248-.515-1.1.074-1.014h.074c.029.045.809.293,1.633.563s1.663.541,1.839.586a.668.668,0,0,1,.486.654Zm-.53-10.975c.633.158.647,1.375-.015,1.127-.25-.09-1.059-.383-1.825-.654a16.971,16.971,0,0,1-1.633-.631.748.748,0,0,1-.25-1.059c.118-.113.25-.068.383-.068a13.926,13.926,0,0,0,1.574.631c.78.293,1.619.586,1.766.654Zm.029,7.842c-.177-.068-1.015-.338-1.825-.608a16.173,16.173,0,0,1-1.619-.586H302.9c-.677-.113-.559.879-.088,1.037.589.2,1.192.406,1.781.609s1.177.406,1.766.586c.647.293.692-.879.029-1.037Zm-.044-16.27c-.162-.068-.971-.383-1.736-.7a16.394,16.394,0,0,1-1.53-.676h-.059c-.6-.158-.574,1.014-.088,1.194.574.225,1.133.473,1.692.7s1.118.451,1.677.7c.589.361.736-1.037.044-1.217Zm.029,11.087c-.559-.2-1.133-.406-1.692-.608s-1.133-.406-1.707-.608c-.6-.225-.647.856-.132,1.059.574.225,1.162.428,1.751.654.589.2,1.177.406,1.751.608.677.248.662-.946.029-1.1Zm-.015-5.386c.6.135.647,1.375.015,1.172-.574-.225-1.162-.451-1.736-.654-.589-.225-1.163-.451-1.751-.676-.486-.225-.5-1.239.074-1.149h.059a13.079,13.079,0,0,0,1.56.631c.795.293,1.619.608,1.781.676Zm-3.37-2.975c-.574-.225-.6-1.352,0-1.194h.074a17.19,17.19,0,0,0,1.589.676c.795.316,1.619.631,1.81.7.486.2.544,1.284-.088,1.149h-.044a15.809,15.809,0,0,0-1.619-.654,12.911,12.911,0,0,1-1.722-.676Zm3.414,10.975c.28-.045.692.7.338,1.014-.118.113-.235.045-.368.045a15.607,15.607,0,0,0-1.633-.586c-.824-.27-1.707-.586-1.9-.654-.53-.2-.486-1.262.132-1.037l1.722.608C305.25,332.966,305.824,333.169,306.4,333.372Z" transform="translate(-302.338 -314.571)" fill-rule="evenodd" fill="url(#linear-gradient-2)"/>
      <path id="路径_3301" data-name="路径 3301" d="M303.544,318.3c.28.115.559.229.839.367.28.115.559.229.839.367.28.115.559.229.839.366l.839.344s.015,0,.029.023h.015c.015,0,.015,0,.029.023H307a.415.415,0,0,1,.206.229.758.758,0,0,1,.074.321.438.438,0,0,1-.015.137.886.886,0,0,0-.059-.183.51.51,0,0,0-.206-.229h-.074c-.015,0-.015,0-.029-.023l-.839-.344-.839-.344c-.28-.115-.559-.229-.839-.366-.28-.115-.559-.229-.839-.367h-.059a.159.159,0,0,0-.221.046c-.029.023-.044.092-.059.137a.514.514,0,0,1-.015-.16.376.376,0,0,1,.074-.252.159.159,0,0,1,.221-.046h.029c.015-.046.015-.046.029-.046Zm-.1,11.706c.294.115.574.229.868.321.294.115.574.206.868.321s.589.206.868.321.589.206.868.321h.029c.015,0,.015,0,.029.023H307c.015,0,.015,0,.029.023a.426.426,0,0,1,.221.206.641.641,0,0,1,.074.275.253.253,0,0,1-.015.115.707.707,0,0,0-.059-.16.32.32,0,0,0-.221-.183c-.015,0-.015,0-.029-.023h-.029c-.015,0-.015,0-.029-.023h-.029c-.294-.115-.589-.206-.868-.321s-.589-.206-.868-.321-.574-.206-.868-.321-.574-.206-.868-.321h-.059a.211.211,0,0,0-.235.023.238.238,0,0,0-.059.115.439.439,0,0,1-.015-.137.479.479,0,0,1,.074-.252.207.207,0,0,1,.235-.023h.029c.015,0,.015,0,.029.023Zm-.059,8.063c.294.092.589.206.9.3s.589.206.9.3.6.183.9.3c.294.092.6.183.9.3h.059c.015,0,.015,0,.029.023h.029a.39.39,0,0,1,.221.183.549.549,0,0,1,.074.252.307.307,0,0,1-.015.115.552.552,0,0,0-.059-.137.353.353,0,0,0-.221-.183h-.118c-.294-.115-.6-.206-.9-.3-.294-.115-.6-.206-.9-.3s-.6-.206-.9-.3-.589-.206-.9-.3h-.059a.207.207,0,0,0-.235.023.238.238,0,0,0-.059.115.373.373,0,0,1-.015-.115.352.352,0,0,1,.074-.229.207.207,0,0,1,.235-.023h.029c.015-.046.015-.046.029-.023Zm-.029,2.543c.294.092.6.206.9.3s.6.183.9.3c.294.092.6.206.9.3s.6.183.9.3h.029c.015,0,.015,0,.029.023h.059a.456.456,0,0,1,.309.435.307.307,0,0,1-.015.115.55.55,0,0,0-.059-.137.353.353,0,0,0-.221-.183h-.118c-.294-.092-.6-.206-.9-.3s-.6-.206-.9-.3-.6-.183-.9-.3c-.294-.092-.6-.206-.9-.3h-.059a.207.207,0,0,0-.235.023.238.238,0,0,0-.059.115.373.373,0,0,1-.015-.115.4.4,0,0,1,.074-.229.211.211,0,0,1,.235-.023h.029c0-.046,0-.046.015-.023Zm.162-19.265c.28.115.559.229.853.344s.559.229.853.344.559.229.853.344.574.229.853.344h.059s.015,0,.029.023h.029a.577.577,0,0,1,.221.206.74.74,0,0,1,.074.3.437.437,0,0,1-.015.137.709.709,0,0,0-.059-.16.353.353,0,0,0-.221-.206h-.118c-.28-.115-.574-.229-.853-.344s-.574-.229-.853-.344-.559-.229-.853-.344l-.839-.344h-.059a.158.158,0,0,0-.221.046.234.234,0,0,0-.059.137.437.437,0,0,1-.015-.137.5.5,0,0,1,.074-.275c.044-.069.118-.069.221-.046h.029c0-.046,0-.046.015-.023Zm-.088,11.385c.294.115.589.206.883.321s.589.206.883.321c.294.092.589.206.883.321s.589.206.883.321h.029c.015,0,.015,0,.029.023h.029c.015,0,.015,0,.029.023a.5.5,0,0,1,.221.183.64.64,0,0,1,.074.275.252.252,0,0,1-.015.115.7.7,0,0,0-.059-.16.32.32,0,0,0-.221-.183c-.015,0-.015,0-.029-.023h-.029c-.015,0-.015,0-.029-.023h-.029c-.294-.115-.589-.206-.883-.321-.294-.092-.589-.206-.883-.321-.294-.092-.589-.206-.883-.321s-.589-.206-.883-.321h-.059c-.1-.023-.177-.023-.235.046a.237.237,0,0,0-.059.115.373.373,0,0,1-.015-.115.352.352,0,0,1,.074-.229.254.254,0,0,1,.235-.046h.059Zm.044-5.544c.294.115.574.229.868.344s.574.229.868.321c.294.115.574.229.868.321.294.115.574.206.868.321h.029c.015,0,.015,0,.029.023h.059a.427.427,0,0,1,.221.206.658.658,0,0,1,.074.3.253.253,0,0,1-.015.115.709.709,0,0,0-.059-.16.426.426,0,0,0-.221-.206H307c-.015,0-.015,0-.029-.023h-.029c-.294-.115-.574-.229-.868-.321-.294-.115-.574-.229-.868-.321-.294-.115-.574-.229-.868-.321-.294-.115-.574-.229-.868-.344h-.059a.211.211,0,0,0-.235.023.333.333,0,0,0-.059.137.437.437,0,0,1-.015-.137.479.479,0,0,1,.074-.252.207.207,0,0,1,.235-.023h.059Zm.015-2.886c.28.115.574.229.853.344s.574.229.853.344.574.229.854.344.574.229.868.344h.029c.015,0,.015,0,.029.023h.059a.49.49,0,0,1,.221.206.74.74,0,0,1,.074.3.253.253,0,0,1-.015.115.708.708,0,0,0-.059-.16.353.353,0,0,0-.221-.206h-.059c-.015,0-.015,0-.029-.023h-.029c-.294-.115-.574-.229-.854-.344s-.574-.229-.853-.344-.574-.229-.853-.344-.574-.229-.853-.344h-.059a.183.183,0,0,0-.221.023.234.234,0,0,0-.059.137.439.439,0,0,1-.015-.137.423.423,0,0,1,.074-.252.183.183,0,0,1,.221-.023h.044Zm-.088,11.11c.294.115.589.206.883.321s.589.206.883.3c.294.115.589.206.883.3s.589.206.883.3h.118a.5.5,0,0,1,.221.183.641.641,0,0,1,.074.275.308.308,0,0,1-.015.115,1.647,1.647,0,0,0-.059-.16.32.32,0,0,0-.221-.183c-.015,0-.015,0-.029-.023h-.088c-.294-.092-.589-.206-.883-.3s-.589-.206-.883-.3-.589-.206-.883-.3c-.294-.115-.589-.206-.883-.3h-.059a.177.177,0,0,0-.235.046.239.239,0,0,0-.059.115.439.439,0,0,1-.015-.138.352.352,0,0,1,.074-.229.254.254,0,0,1,.235-.046h.029c.015.023.015.023.029.023Z" transform="translate(-302.84 -317.726)" fill="#f7f7f7" fill-rule="evenodd"/>
    </g>
    <path id="路径_3625" data-name="路径 3625" d="M0,23.246V0H7.057V23.246Z" transform="translate(3031.959 61.718) rotate(90)" stroke="#000" stroke-width="0.5" fill-rule="evenodd" fill="url(#linear-gradient-3)"/>
    <g id="组_1600" data-name="组 1600" transform="translate(3014.733 55.717)">
      <path id="路径_3585" data-name="路径 3585" d="M246.1,349H235.773l-.773.984v3.935l.773.843H246.1l.773-.773v-4.216Z" transform="translate(-235 -349)" fill="#231815" fill-rule="evenodd"/>
      <path id="路径_3586" data-name="路径 3586" d="M246.191,349.4H235.932l-.632.773v3.794l.632.7h10.258l.562-.632v-4.075Z" transform="translate(-235.089 -349.119)" fill-rule="evenodd" fill="url(#radial-gradient)"/>
      <path id="路径_3587" data-name="路径 3587" d="M248.9,350.222v3.724c0,.281.211.422.492.422h.492a.47.47,0,0,0,.492-.422v-3.724a.47.47,0,0,0-.492-.422h-.492A.47.47,0,0,0,248.9,350.222Z" transform="translate(-239.134 -349.238)" fill="#c8c9ca" fill-rule="evenodd"/>
      <path id="路径_3588" data-name="路径 3588" d="M238.7,350.222v3.724c0,.281.281.422.632.422h5.41c.351,0,.632-.211.632-.422v-3.724c0-.281-.281-.422-.632-.422h-5.41C238.981,349.8,238.7,350.011,238.7,350.222Z" transform="translate(-236.1 -349.238)" fill="#6d6c6c" fill-rule="evenodd"/>
      <path id="路径_3589" data-name="路径 3589" d="M235.8,350.222v3.724c0,.281.211.422.492.422h.492a.47.47,0,0,0,.492-.422v-3.724a.47.47,0,0,0-.492-.422h-.492A.47.47,0,0,0,235.8,350.222Z" transform="translate(-235.238 -349.238)" fill="#3e3a39" fill-rule="evenodd"/>
    </g>
    <path id="路径_368" data-name="路径 368" d="M137.758,304.842H130.5V275.547h7.258a5.2,5.2,0,0,0,5.19-5.19V263.1h29.294v7.258a5.2,5.2,0,0,0,5.19,5.19h7.258v29.294H137.758Z" transform="translate(2863.143 -194.231)" fill-rule="evenodd"/>
    <path id="路径_369" data-name="路径 369" d="M138.007,304.9H130.9V275.947h7.107a5.361,5.361,0,0,0,5.34-5.34V263.5H172.3v7.107a5.361,5.361,0,0,0,5.34,5.34h7.107V304.9H138.007Z" transform="translate(2862.893 -194.481)" fill-rule="evenodd" fill="url(#linear-gradient-4)"/>
    <path id="路径_370" data-name="路径 370" d="M164,283.792V263.5h28.956v20.292h0v8.766H164Z" transform="translate(2842.203 -194.424)" fill-rule="evenodd" fill="url(#linear-gradient-5)"/>
    <path id="路径_371" data-name="路径 371" d="M138.158,325.556H130.9V296.6h12.56a87.027,87.027,0,0,0,28.956,0h12.3v28.956H138.158Z" transform="translate(2862.893 -215.133)" fill-rule="evenodd" fill="url(#linear-gradient-3)"/>
    <g id="组_283" data-name="组 283" transform="translate(3051.574 77.932) rotate(90)">
      <g id="组_280" data-name="组 280" transform="translate(36.139 54.151) rotate(90)">
        <path id="路径_189" data-name="路径 189" d="M6.054,1.316A1.332,1.332,0,0,0,4.738,0H1.316A1.332,1.332,0,0,0,0,1.316V34.822a1.332,1.332,0,0,0,1.316,1.316H4.738a1.332,1.332,0,0,0,1.316-1.316Z" transform="translate(1.918 0)" fill-rule="evenodd"/>
        <path id="路径_190" data-name="路径 190" d="M5.678,1.13V34.636A1.131,1.131,0,0,1,4.55,35.764H1.128A1.131,1.131,0,0,1,0,34.636V1.13A1.131,1.131,0,0,1,1.128,0H4.55A1.086,1.086,0,0,1,5.678,1.13Z" transform="translate(2.106 0.186)" fill-rule="evenodd" fill="url(#linear-gradient-7)"/>
        <g id="组_39" data-name="组 39" transform="translate(0 30.629)">
          <rect id="矩形_57" data-name="矩形 57" width="1.166" height="2.068" transform="translate(0.94 0.714)"/>
          <rect id="矩形_58" data-name="矩形 58" width="0.827" height="1.767" transform="translate(1.091 0.903)" fill="url(#linear-gradient-8)"/>
          <path id="路径_201" data-name="路径 201" d="M.338,3.535H1.354A.337.337,0,0,0,1.692,3.2V.338A.337.337,0,0,0,1.354,0H.338A.337.337,0,0,0,0,.338V3.2A.337.337,0,0,0,.338,3.535Z" transform="translate(0 0)" fill-rule="evenodd"/>
          <path id="路径_202" data-name="路径 202" d="M.188,3.234H1.2a.178.178,0,0,0,.188-.188V.188A.178.178,0,0,0,1.2,0H.188A.178.178,0,0,0,0,.188V3.046C.038,3.121.113,3.234.188,3.234Z" transform="translate(0.15 0.15)" fill-rule="evenodd" fill="url(#linear-gradient-9)"/>
          <path id="路径_203" data-name="路径 203" d="M1.053.827H.15A.162.162,0,0,1,0,.677V.15A.162.162,0,0,1,.15,0h.9A.162.162,0,0,1,1.2.15V.677A.138.138,0,0,1,1.053.827Z" transform="translate(0.226 0.226)" fill="#666" fill-rule="evenodd"/>
          <path id="路径_204" data-name="路径 204" d="M1.053,1.579H.15A.162.162,0,0,1,0,1.429V.15A.162.162,0,0,1,.15,0h.9A.162.162,0,0,1,1.2.15V1.429A.162.162,0,0,1,1.053,1.579Z" transform="translate(0.226 1.166)" fill="#898989" fill-rule="evenodd"/>
          <path id="路径_205" data-name="路径 205" d="M1.053.451H.15A.162.162,0,0,1,0,.3V.15A.162.162,0,0,1,.15,0h.9A.162.162,0,0,1,1.2.15V.3A.162.162,0,0,1,1.053.451Z" transform="translate(0.226 2.858)" fill="#c5c5c5" fill-rule="evenodd"/>
        </g>
        <g id="组_270" data-name="组 270" transform="translate(0 21.228)">
          <rect id="矩形_57-2" data-name="矩形 57" width="1.166" height="2.068" transform="translate(0.94 0.714)"/>
          <rect id="矩形_58-2" data-name="矩形 58" width="0.827" height="1.767" transform="translate(1.091 0.903)" fill="url(#linear-gradient-8)"/>
          <path id="路径_201-2" data-name="路径 201" d="M.338,3.535H1.354A.337.337,0,0,0,1.692,3.2V.338A.337.337,0,0,0,1.354,0H.338A.337.337,0,0,0,0,.338V3.2A.337.337,0,0,0,.338,3.535Z" transform="translate(0 0)" fill-rule="evenodd"/>
          <path id="路径_202-2" data-name="路径 202" d="M.188,3.234H1.2a.178.178,0,0,0,.188-.188V.188A.178.178,0,0,0,1.2,0H.188A.178.178,0,0,0,0,.188V3.046C.038,3.121.113,3.234.188,3.234Z" transform="translate(0.15 0.15)" fill-rule="evenodd" fill="url(#linear-gradient-9)"/>
          <path id="路径_203-2" data-name="路径 203" d="M1.053.827H.15A.162.162,0,0,1,0,.677V.15A.162.162,0,0,1,.15,0h.9A.162.162,0,0,1,1.2.15V.677A.138.138,0,0,1,1.053.827Z" transform="translate(0.226 0.226)" fill="#666" fill-rule="evenodd"/>
          <path id="路径_204-2" data-name="路径 204" d="M1.053,1.579H.15A.162.162,0,0,1,0,1.429V.15A.162.162,0,0,1,.15,0h.9A.162.162,0,0,1,1.2.15V1.429A.162.162,0,0,1,1.053,1.579Z" transform="translate(0.226 1.166)" fill="#898989" fill-rule="evenodd"/>
          <path id="路径_205-2" data-name="路径 205" d="M1.053.451H.15A.162.162,0,0,1,0,.3V.15A.162.162,0,0,1,.15,0h.9A.162.162,0,0,1,1.2.15V.3A.162.162,0,0,1,1.053.451Z" transform="translate(0.226 2.858)" fill="#c5c5c5" fill-rule="evenodd"/>
        </g>
        <g id="组_271" data-name="组 271" transform="translate(0 11.451)">
          <rect id="矩形_57-3" data-name="矩形 57" width="1.166" height="2.068" transform="translate(0.94 0.714)"/>
          <rect id="矩形_58-3" data-name="矩形 58" width="0.827" height="1.767" transform="translate(1.091 0.903)" fill="url(#linear-gradient-8)"/>
          <path id="路径_201-3" data-name="路径 201" d="M.338,3.535H1.354A.337.337,0,0,0,1.692,3.2V.338A.337.337,0,0,0,1.354,0H.338A.337.337,0,0,0,0,.338V3.2A.337.337,0,0,0,.338,3.535Z" transform="translate(0 0)" fill-rule="evenodd"/>
          <path id="路径_202-3" data-name="路径 202" d="M.188,3.234H1.2a.178.178,0,0,0,.188-.188V.188A.178.178,0,0,0,1.2,0H.188A.178.178,0,0,0,0,.188V3.046C.038,3.121.113,3.234.188,3.234Z" transform="translate(0.15 0.15)" fill-rule="evenodd" fill="url(#linear-gradient-9)"/>
          <path id="路径_203-3" data-name="路径 203" d="M1.053.827H.15A.162.162,0,0,1,0,.677V.15A.162.162,0,0,1,.15,0h.9A.162.162,0,0,1,1.2.15V.677A.138.138,0,0,1,1.053.827Z" transform="translate(0.226 0.226)" fill="#666" fill-rule="evenodd"/>
          <path id="路径_204-3" data-name="路径 204" d="M1.053,1.579H.15A.162.162,0,0,1,0,1.429V.15A.162.162,0,0,1,.15,0h.9A.162.162,0,0,1,1.2.15V1.429A.162.162,0,0,1,1.053,1.579Z" transform="translate(0.226 1.166)" fill="#898989" fill-rule="evenodd"/>
          <path id="路径_205-3" data-name="路径 205" d="M1.053.451H.15A.162.162,0,0,1,0,.3V.15A.162.162,0,0,1,.15,0h.9A.162.162,0,0,1,1.2.15V.3A.162.162,0,0,1,1.053.451Z" transform="translate(0.226 2.858)" fill="#c5c5c5" fill-rule="evenodd"/>
        </g>
        <g id="组_272" data-name="组 272" transform="translate(0 2.049)">
          <rect id="矩形_57-4" data-name="矩形 57" width="1.166" height="2.068" transform="translate(0.94 0.714)"/>
          <rect id="矩形_58-4" data-name="矩形 58" width="0.827" height="1.767" transform="translate(1.091 0.903)" fill="url(#linear-gradient-8)"/>
          <path id="路径_201-4" data-name="路径 201" d="M.338,3.535H1.354A.337.337,0,0,0,1.692,3.2V.338A.337.337,0,0,0,1.354,0H.338A.337.337,0,0,0,0,.338V3.2A.337.337,0,0,0,.338,3.535Z" transform="translate(0 0)" fill-rule="evenodd"/>
          <path id="路径_202-4" data-name="路径 202" d="M.188,3.234H1.2a.178.178,0,0,0,.188-.188V.188A.178.178,0,0,0,1.2,0H.188A.178.178,0,0,0,0,.188V3.046C.038,3.121.113,3.234.188,3.234Z" transform="translate(0.15 0.15)" fill-rule="evenodd" fill="url(#linear-gradient-9)"/>
          <path id="路径_203-4" data-name="路径 203" d="M1.053.827H.15A.162.162,0,0,1,0,.677V.15A.162.162,0,0,1,.15,0h.9A.162.162,0,0,1,1.2.15V.677A.138.138,0,0,1,1.053.827Z" transform="translate(0.226 0.226)" fill="#666" fill-rule="evenodd"/>
          <path id="路径_204-4" data-name="路径 204" d="M1.053,1.579H.15A.162.162,0,0,1,0,1.429V.15A.162.162,0,0,1,.15,0h.9A.162.162,0,0,1,1.2.15V1.429A.162.162,0,0,1,1.053,1.579Z" transform="translate(0.226 1.166)" fill="#898989" fill-rule="evenodd"/>
          <path id="路径_205-4" data-name="路径 205" d="M1.053.451H.15A.162.162,0,0,1,0,.3V.15A.162.162,0,0,1,.15,0h.9A.162.162,0,0,1,1.2.15V.3A.162.162,0,0,1,1.053.451Z" transform="translate(0.226 2.858)" fill="#c5c5c5" fill-rule="evenodd"/>
        </g>
      </g>
      <g id="组_281" data-name="组 281" transform="translate(0 7.972) rotate(-90)">
        <path id="路径_189-2" data-name="路径 189" d="M6.054,1.316A1.332,1.332,0,0,0,4.738,0H1.316A1.332,1.332,0,0,0,0,1.316V34.822a1.332,1.332,0,0,0,1.316,1.316H4.738a1.332,1.332,0,0,0,1.316-1.316Z" transform="translate(1.918)" fill-rule="evenodd"/>
        <path id="路径_190-2" data-name="路径 190" d="M5.678,1.13V34.636A1.131,1.131,0,0,1,4.55,35.764H1.128A1.131,1.131,0,0,1,0,34.636V1.13A1.131,1.131,0,0,1,1.128,0H4.55A1.086,1.086,0,0,1,5.678,1.13Z" transform="translate(2.106 0.186)" fill-rule="evenodd" fill="url(#linear-gradient-7)"/>
        <g id="组_39-2" data-name="组 39" transform="translate(0 30.629)">
          <rect id="矩形_57-5" data-name="矩形 57" width="1.166" height="2.068" transform="translate(0.94 0.714)"/>
          <rect id="矩形_58-5" data-name="矩形 58" width="0.827" height="1.767" transform="translate(1.091 0.903)" fill="url(#linear-gradient-8)"/>
          <path id="路径_201-5" data-name="路径 201" d="M.338,3.535H1.354A.337.337,0,0,0,1.692,3.2V.338A.337.337,0,0,0,1.354,0H.338A.337.337,0,0,0,0,.338V3.2A.337.337,0,0,0,.338,3.535Z" transform="translate(0 0)" fill-rule="evenodd"/>
          <path id="路径_202-5" data-name="路径 202" d="M.188,3.234H1.2a.178.178,0,0,0,.188-.188V.188A.178.178,0,0,0,1.2,0H.188A.178.178,0,0,0,0,.188V3.046C.038,3.121.113,3.234.188,3.234Z" transform="translate(0.15 0.15)" fill-rule="evenodd" fill="url(#linear-gradient-9)"/>
          <path id="路径_203-5" data-name="路径 203" d="M1.053.827H.15A.162.162,0,0,1,0,.677V.15A.162.162,0,0,1,.15,0h.9A.162.162,0,0,1,1.2.15V.677A.138.138,0,0,1,1.053.827Z" transform="translate(0.226 0.226)" fill="#666" fill-rule="evenodd"/>
          <path id="路径_204-5" data-name="路径 204" d="M1.053,1.579H.15A.162.162,0,0,1,0,1.429V.15A.162.162,0,0,1,.15,0h.9A.162.162,0,0,1,1.2.15V1.429A.162.162,0,0,1,1.053,1.579Z" transform="translate(0.226 1.166)" fill="#898989" fill-rule="evenodd"/>
          <path id="路径_205-5" data-name="路径 205" d="M1.053.451H.15A.162.162,0,0,1,0,.3V.15A.162.162,0,0,1,.15,0h.9A.162.162,0,0,1,1.2.15V.3A.162.162,0,0,1,1.053.451Z" transform="translate(0.226 2.858)" fill="#c5c5c5" fill-rule="evenodd"/>
        </g>
        <g id="组_270-2" data-name="组 270" transform="translate(0 21.228)">
          <rect id="矩形_57-6" data-name="矩形 57" width="1.166" height="2.068" transform="translate(0.94 0.714)"/>
          <rect id="矩形_58-6" data-name="矩形 58" width="0.827" height="1.767" transform="translate(1.091 0.903)" fill="url(#linear-gradient-8)"/>
          <path id="路径_201-6" data-name="路径 201" d="M.338,3.535H1.354A.337.337,0,0,0,1.692,3.2V.338A.337.337,0,0,0,1.354,0H.338A.337.337,0,0,0,0,.338V3.2A.337.337,0,0,0,.338,3.535Z" transform="translate(0 0)" fill-rule="evenodd"/>
          <path id="路径_202-6" data-name="路径 202" d="M.188,3.234H1.2a.178.178,0,0,0,.188-.188V.188A.178.178,0,0,0,1.2,0H.188A.178.178,0,0,0,0,.188V3.046C.038,3.121.113,3.234.188,3.234Z" transform="translate(0.15 0.15)" fill-rule="evenodd" fill="url(#linear-gradient-9)"/>
          <path id="路径_203-6" data-name="路径 203" d="M1.053.827H.15A.162.162,0,0,1,0,.677V.15A.162.162,0,0,1,.15,0h.9A.162.162,0,0,1,1.2.15V.677A.138.138,0,0,1,1.053.827Z" transform="translate(0.226 0.226)" fill="#666" fill-rule="evenodd"/>
          <path id="路径_204-6" data-name="路径 204" d="M1.053,1.579H.15A.162.162,0,0,1,0,1.429V.15A.162.162,0,0,1,.15,0h.9A.162.162,0,0,1,1.2.15V1.429A.162.162,0,0,1,1.053,1.579Z" transform="translate(0.226 1.166)" fill="#898989" fill-rule="evenodd"/>
          <path id="路径_205-6" data-name="路径 205" d="M1.053.451H.15A.162.162,0,0,1,0,.3V.15A.162.162,0,0,1,.15,0h.9A.162.162,0,0,1,1.2.15V.3A.162.162,0,0,1,1.053.451Z" transform="translate(0.226 2.858)" fill="#c5c5c5" fill-rule="evenodd"/>
        </g>
        <g id="组_271-2" data-name="组 271" transform="translate(0 11.451)">
          <rect id="矩形_57-7" data-name="矩形 57" width="1.166" height="2.068" transform="translate(0.94 0.714)"/>
          <rect id="矩形_58-7" data-name="矩形 58" width="0.827" height="1.767" transform="translate(1.091 0.903)" fill="url(#linear-gradient-8)"/>
          <path id="路径_201-7" data-name="路径 201" d="M.338,3.535H1.354A.337.337,0,0,0,1.692,3.2V.338A.337.337,0,0,0,1.354,0H.338A.337.337,0,0,0,0,.338V3.2A.337.337,0,0,0,.338,3.535Z" transform="translate(0 0)" fill-rule="evenodd"/>
          <path id="路径_202-7" data-name="路径 202" d="M.188,3.234H1.2a.178.178,0,0,0,.188-.188V.188A.178.178,0,0,0,1.2,0H.188A.178.178,0,0,0,0,.188V3.046C.038,3.121.113,3.234.188,3.234Z" transform="translate(0.15 0.15)" fill-rule="evenodd" fill="url(#linear-gradient-9)"/>
          <path id="路径_203-7" data-name="路径 203" d="M1.053.827H.15A.162.162,0,0,1,0,.677V.15A.162.162,0,0,1,.15,0h.9A.162.162,0,0,1,1.2.15V.677A.138.138,0,0,1,1.053.827Z" transform="translate(0.226 0.226)" fill="#666" fill-rule="evenodd"/>
          <path id="路径_204-7" data-name="路径 204" d="M1.053,1.579H.15A.162.162,0,0,1,0,1.429V.15A.162.162,0,0,1,.15,0h.9A.162.162,0,0,1,1.2.15V1.429A.162.162,0,0,1,1.053,1.579Z" transform="translate(0.226 1.166)" fill="#898989" fill-rule="evenodd"/>
          <path id="路径_205-7" data-name="路径 205" d="M1.053.451H.15A.162.162,0,0,1,0,.3V.15A.162.162,0,0,1,.15,0h.9A.162.162,0,0,1,1.2.15V.3A.162.162,0,0,1,1.053.451Z" transform="translate(0.226 2.858)" fill="#c5c5c5" fill-rule="evenodd"/>
        </g>
        <g id="组_272-2" data-name="组 272" transform="translate(0 2.049)">
          <rect id="矩形_57-8" data-name="矩形 57" width="1.166" height="2.068" transform="translate(0.94 0.714)"/>
          <rect id="矩形_58-8" data-name="矩形 58" width="0.827" height="1.767" transform="translate(1.091 0.903)" fill="url(#linear-gradient-8)"/>
          <path id="路径_201-8" data-name="路径 201" d="M.338,3.535H1.354A.337.337,0,0,0,1.692,3.2V.338A.337.337,0,0,0,1.354,0H.338A.337.337,0,0,0,0,.338V3.2A.337.337,0,0,0,.338,3.535Z" transform="translate(0 0)" fill-rule="evenodd"/>
          <path id="路径_202-8" data-name="路径 202" d="M.188,3.234H1.2a.178.178,0,0,0,.188-.188V.188A.178.178,0,0,0,1.2,0H.188A.178.178,0,0,0,0,.188V3.046C.038,3.121.113,3.234.188,3.234Z" transform="translate(0.15 0.15)" fill-rule="evenodd" fill="url(#linear-gradient-9)"/>
          <path id="路径_203-8" data-name="路径 203" d="M1.053.827H.15A.162.162,0,0,1,0,.677V.15A.162.162,0,0,1,.15,0h.9A.162.162,0,0,1,1.2.15V.677A.138.138,0,0,1,1.053.827Z" transform="translate(0.226 0.226)" fill="#666" fill-rule="evenodd"/>
          <path id="路径_204-8" data-name="路径 204" d="M1.053,1.579H.15A.162.162,0,0,1,0,1.429V.15A.162.162,0,0,1,.15,0h.9A.162.162,0,0,1,1.2.15V1.429A.162.162,0,0,1,1.053,1.579Z" transform="translate(0.226 1.166)" fill="#898989" fill-rule="evenodd"/>
          <path id="路径_205-8" data-name="路径 205" d="M1.053.451H.15A.162.162,0,0,1,0,.3V.15A.162.162,0,0,1,.15,0h.9A.162.162,0,0,1,1.2.15V.3A.162.162,0,0,1,1.053.451Z" transform="translate(0.226 2.858)" fill="#c5c5c5" fill-rule="evenodd"/>
        </g>
      </g>
    </g>
    <path id="路径_3598" data-name="路径 3598" d="M223.326,364.5v.578H221.4V364.5Zm18.807,0v.578h-1.926V364.5Zm7.638,0v.578h-1.926V364.5Zm-18.807,0v.578h-1.926V364.5Z" transform="translate(2785.117 -294.824)" fill="#231815" fill-rule="evenodd"/>
    <path id="路径_3599" data-name="路径 3599" d="M223.269,364.8H221.6v.321h1.669V364.8Zm18.743,0h-1.669v.321h1.669V364.8Zm7.7,0h-1.669v.321h1.669V364.8Zm-18.807,0h-1.669v.321h1.669Z" transform="translate(2785.045 -294.931)" fill="#3e3a39" fill-rule="evenodd"/>
    <rect id="矩形_803" data-name="矩形 803" width="29.719" height="4.108" transform="translate(3005.811 70.126)" fill="#231815"/>
    <path id="路径_3600" data-name="路径 3600" d="M249.934,369.287H220.6v-1.412h0V365.5h29.334Z" transform="translate(2785.403 -295.182)" fill-rule="evenodd" fill="url(#linear-gradient-25)"/>
    <g id="未标题-1_画板_1" data-name="未标题-1_画板 1" transform="translate(3006.203 42)">
      <path id="路径_3619" data-name="路径 3619" d="M177.478,369.489h23.917a2.694,2.694,0,0,0,2.482-1.692l6.28-15.493a1.963,1.963,0,0,1,1.767-1.2h2.144v2.181h-1.015a1.974,1.974,0,0,0-1.805,1.2l-5.942,15.08a2.706,2.706,0,0,1-2.52,1.692H177.4a.915.915,0,0,1-.9-.9h0A1.011,1.011,0,0,1,177.478,369.489Z" transform="translate(-176.5 -350.31)" stroke="#000" stroke-width="0.5" fill="url(#linear-gradient-26)"/>
      <path id="路径_3626" data-name="路径 3626" d="M.986,0h17.1c.545,0,.986.758.986,1.692s-.442,1.692-.986,1.692H.986C.442,3.384,0,2.627,0,1.692S.442,0,.986,0Z" transform="translate(35.725 0)" fill="url(#linear-gradient-27)"/>
      <g id="组_1595" data-name="组 1595" transform="translate(13.688 0.827)">
        <g id="组_1594" data-name="组 1594">
          <path id="路径_3621" data-name="路径 3621" d="M230.725,357.781l-11.7-4.7H214.78v3.572H212.9v-4.325a1.131,1.131,0,0,1,1.128-1.128h5.378l12.034,4.851Z" transform="translate(-212.9 -351.2)" fill="#777"/>
        </g>
      </g>
      <g id="组_1597" data-name="组 1597" transform="translate(13.726 1.053)">
        <g id="组_1596" data-name="组 1596">
          <path id="路径_3622" data-name="路径 3622" d="M231.051,357.027l-11.733-4.663h-5.566a.178.178,0,0,0-.188.188v4.475H213v-4.475a.754.754,0,0,1,.752-.752h5.528a.828.828,0,0,1,.3.038l11.733,4.663Z" transform="translate(-213 -351.8)" fill="#c2c2c2"/>
        </g>
      </g>
      <path id="路径_3623" data-name="路径 3623" d="M213.9,357.489v-4.437a.457.457,0,0,1,.451-.451h5.3" transform="translate(-199.836 -351.246)" fill="none" stroke="#fff" stroke-linecap="round" stroke-linejoin="round" stroke-miterlimit="10" stroke-width="1"/>
    </g>
    <g id="组_1598" data-name="组 1598" transform="translate(3017.975 46.4)">
      <path id="路径_3556" data-name="路径 3556" d="M510.538,347.7h5.114l.376.526v1.542l-.376.451h-5.114l-.339-.414v-1.692Z" transform="translate(-510.2 -347.7)" fill-rule="evenodd"/>
      <path id="路径_3557" data-name="路径 3557" d="M510.6,348.1h5.07l.3.414v1.467l-.3.338H510.6l-.3-.3V348.4Z" transform="translate(-510.213 -347.95)" fill="#b5b5b6" fill-rule="evenodd"/>
      <path id="路径_3558" data-name="路径 3558" d="M512.267,348.763v1.391a.257.257,0,0,1-.263.263h-.94a.257.257,0,0,1-.263-.263v-1.391a.257.257,0,0,1,.263-.263H512A.257.257,0,0,1,512.267,348.763Z" transform="translate(-510.574 -348.199)" fill="#898989" fill-rule="evenodd"/>
      <path id="路径_3559" data-name="路径 3559" d="M517.908,348.763v1.391a.257.257,0,0,1-.263.263h-2.181a.257.257,0,0,1-.263-.263v-1.391a.257.257,0,0,1,.263-.263h2.181A.257.257,0,0,1,517.908,348.763Z" transform="translate(-513.32 -348.199)" fill="#595757" fill-rule="evenodd"/>
      <path id="路径_3560" data-name="路径 3560" d="M523.59,348.763v1.391a.257.257,0,0,1-.263.263h-.263a.257.257,0,0,1-.263-.263v-1.391a.257.257,0,0,1,.263-.263h.263A.257.257,0,0,1,523.59,348.763Z" transform="translate(-518.062 -348.199)" fill="#3e3a39" fill-rule="evenodd"/>
    </g>
  </g>
  <rect id="矩形_2604" data-name="矩形 2604" width="72" height="72" fill="none"/>
</svg>
