<svg id="_06" data-name="06" xmlns="http://www.w3.org/2000/svg" xmlns:xlink="http://www.w3.org/1999/xlink" width="72" height="72" viewBox="0 0 72 72">
  <defs>
    <linearGradient id="linear-gradient" x1="0.5" x2="0.5" y2="1" gradientUnits="objectBoundingBox">
      <stop offset="0" stop-color="#6f6f6f"/>
      <stop offset="0.45" stop-color="#e6e6e6"/>
      <stop offset="0.647" stop-color="#fff"/>
      <stop offset="0.92" stop-color="#747474"/>
      <stop offset="1" stop-color="#a7a7a7"/>
    </linearGradient>
    <linearGradient id="linear-gradient-2" x1="0.501" y1="0.941" x2="0.501" y2="-0.134" gradientUnits="objectBoundingBox">
      <stop offset="0" stop-color="#6c6c6c"/>
      <stop offset="0.21" stop-color="#b1b1b1"/>
      <stop offset="0.3" stop-color="#ececec"/>
      <stop offset="0.36" stop-color="#f7f7f7"/>
      <stop offset="0.5" stop-color="#fefefe"/>
      <stop offset="0.71" stop-color="#bcbcbc"/>
      <stop offset="0.82" stop-color="#787878"/>
      <stop offset="1" stop-color="#d7d7d7"/>
    </linearGradient>
    <linearGradient id="linear-gradient-3" x1="0.494" y1="0.059" x2="0.494" y2="1.077" gradientUnits="objectBoundingBox">
      <stop offset="0" stop-color="#696969"/>
      <stop offset="0.17" stop-color="#afafaf"/>
      <stop offset="0.35" stop-color="#efefef"/>
      <stop offset="0.48" stop-color="#f8f8f8"/>
      <stop offset="0.58" stop-color="#fefefe"/>
      <stop offset="0.71" stop-color="#b7b7b7"/>
      <stop offset="0.82" stop-color="#737373"/>
      <stop offset="1" stop-color="#dcdcdc"/>
    </linearGradient>
    <linearGradient id="linear-gradient-4" x1="0.5" y1="0.071" x2="0.5" y2="1.091" gradientUnits="objectBoundingBox">
      <stop offset="0" stop-color="#6b6b6b"/>
      <stop offset="0.17" stop-color="#adadad"/>
      <stop offset="0.35" stop-color="#ededed"/>
      <stop offset="0.48" stop-color="#f7f7f7"/>
      <stop offset="0.58" stop-color="#fefefe"/>
      <stop offset="0.71" stop-color="#b9b9b9"/>
      <stop offset="0.82" stop-color="#707070"/>
      <stop offset="1" stop-color="#d0d0d0"/>
    </linearGradient>
    <radialGradient id="radial-gradient" cx="0.5" cy="0.5" r="0.5" gradientUnits="objectBoundingBox">
      <stop offset="0" stop-color="#dedede"/>
      <stop offset="1" stop-color="#adadad"/>
    </radialGradient>
    <radialGradient id="radial-gradient-2" cx="0.5" cy="0.5" r="0.435" gradientTransform="translate(0 -0.074) scale(1 1.148)" gradientUnits="objectBoundingBox">
      <stop offset="0" stop-color="#fff" stop-opacity="0.91"/>
      <stop offset="0.491" stop-color="#fff" stop-opacity="0.69"/>
      <stop offset="1" stop-color="#fff" stop-opacity="0.09"/>
    </radialGradient>
    <radialGradient id="radial-gradient-3" cx="0.5" cy="0.5" r="0.393" gradientTransform="translate(0 -0.147) scale(1 1.294)" gradientUnits="objectBoundingBox">
      <stop offset="0" stop-color="#fff" stop-opacity="0.89"/>
      <stop offset="0.402" stop-color="#fff" stop-opacity="0.718"/>
      <stop offset="1" stop-color="#fff" stop-opacity="0.11"/>
    </radialGradient>
    <radialGradient id="radial-gradient-4" cx="0.5" cy="0.5" r="0.5" gradientUnits="objectBoundingBox">
      <stop offset="0" stop-color="#dadada" stop-opacity="0"/>
      <stop offset="0.736" stop-color="#c3c3c3" stop-opacity="0.078"/>
      <stop offset="1" stop-opacity="0.749"/>
    </radialGradient>
    <linearGradient id="linear-gradient-20" x1="0.16" y1="0.691" x2="1.758" y2="-0.205" gradientUnits="objectBoundingBox">
      <stop offset="0" stop-color="#9e9e9f"/>
      <stop offset="1" stop-color="#fff"/>
    </linearGradient>
    <linearGradient id="linear-gradient-21" x1="0.662" y1="0.754" x2="0.233" y2="0.145" gradientUnits="objectBoundingBox">
      <stop offset="0" stop-color="#9fa0a0"/>
      <stop offset="1" stop-color="#fff"/>
    </linearGradient>
    <radialGradient id="radial-gradient-5" cx="0.339" cy="0.138" r="0.609" gradientTransform="translate(0.003) scale(0.995 1)" gradientUnits="objectBoundingBox">
      <stop offset="0" stop-color="#fff"/>
      <stop offset="1" stop-color="#9fa0a0"/>
    </radialGradient>
    <linearGradient id="linear-gradient-22" x1="0.175" y1="0.193" x2="1.249" y2="1.215" gradientUnits="objectBoundingBox">
      <stop offset="0" stop-color="#b60005"/>
      <stop offset="1" stop-color="#e60012"/>
    </linearGradient>
  </defs>
  <rect id="矩形_2607" data-name="矩形 2607" width="72" height="72" fill="none"/>
  <g id="组_1701" data-name="组 1701" transform="translate(-447.45 -1809.55)">
    <g id="矩形_811" data-name="矩形 811" transform="translate(515.303 1859.489) rotate(180)" stroke="#000" stroke-width="0.5" fill="url(#linear-gradient)">
      <rect width="67.015" height="32.69" stroke="none"/>
      <rect x="0.25" y="0.25" width="66.515" height="32.19" fill="none"/>
    </g>
    <g id="组_1606" data-name="组 1606" transform="translate(510.787 1823.55)">
      <path id="路径_189" data-name="路径 189" d="M272.279,411.63a1.448,1.448,0,0,0-1.43-1.43H267.13a1.448,1.448,0,0,0-1.43,1.43v36.409a1.448,1.448,0,0,0,1.43,1.43h3.719a1.448,1.448,0,0,0,1.43-1.43Z" transform="translate(-263.616 -410.2)" fill-rule="evenodd"/>
      <path id="路径_190" data-name="路径 190" d="M272.37,411.923v36.409a1.229,1.229,0,0,1-1.226,1.226h-3.719a1.229,1.229,0,0,1-1.226-1.226V411.923a1.229,1.229,0,0,1,1.226-1.226h3.719A1.18,1.18,0,0,1,272.37,411.923Z" transform="translate(-263.912 -410.493)" fill-rule="evenodd" fill="url(#linear-gradient-2)"/>
      <g id="组_39" data-name="组 39" transform="translate(0 33.283)">
        <rect id="矩形_57" data-name="矩形 57" width="1.267" height="2.247" transform="translate(1.022 0.776)"/>
        <rect id="矩形_58" data-name="矩形 58" width="0.899" height="1.921" transform="translate(1.185 0.981)" fill="url(#linear-gradient-3)"/>
        <path id="路径_201" data-name="路径 201" d="M260.968,470.241h1.1a.366.366,0,0,0,.368-.368v-3.106a.366.366,0,0,0-.368-.368h-1.1a.366.366,0,0,0-.368.368v3.106A.366.366,0,0,0,260.968,470.241Z" transform="translate(-260.6 -466.4)" fill-rule="evenodd"/>
        <path id="路径_202" data-name="路径 202" d="M261.2,470.314h1.1a.193.193,0,0,0,.2-.2V467a.193.193,0,0,0-.2-.2h-1.1a.193.193,0,0,0-.2.2v3.106C261.041,470.192,261.123,470.314,261.2,470.314Z" transform="translate(-260.837 -466.637)" fill-rule="evenodd" fill="url(#linear-gradient-4)"/>
        <path id="路径_203" data-name="路径 203" d="M262.344,467.9h-.981a.176.176,0,0,1-.163-.163v-.572a.176.176,0,0,1,.163-.163h.981a.176.176,0,0,1,.163.163v.572A.15.15,0,0,1,262.344,467.9Z" transform="translate(-260.955 -466.755)" fill="#666" fill-rule="evenodd"/>
        <path id="路径_204" data-name="路径 204" d="M262.344,471.216h-.981a.176.176,0,0,1-.163-.163v-1.389a.176.176,0,0,1,.163-.164h.981a.176.176,0,0,1,.163.164v1.389A.176.176,0,0,1,262.344,471.216Z" transform="translate(-260.955 -468.233)" fill="#898989" fill-rule="evenodd"/>
        <path id="路径_205" data-name="路径 205" d="M262.344,474.49h-.981a.176.176,0,0,1-.163-.163v-.163a.176.176,0,0,1,.163-.163h.981a.176.176,0,0,1,.163.163v.163A.176.176,0,0,1,262.344,474.49Z" transform="translate(-260.955 -470.894)" fill="#c5c5c5" fill-rule="evenodd"/>
      </g>
      <g id="组_270" data-name="组 270" transform="translate(0 23.067)">
        <rect id="矩形_57-2" data-name="矩形 57" width="1.267" height="2.247" transform="translate(1.022 0.776)"/>
        <rect id="矩形_58-2" data-name="矩形 58" width="0.899" height="1.921" transform="translate(1.185 0.981)" fill="url(#linear-gradient-3)"/>
        <path id="路径_201-2" data-name="路径 201" d="M260.968,470.241h1.1a.366.366,0,0,0,.368-.368v-3.106a.366.366,0,0,0-.368-.368h-1.1a.366.366,0,0,0-.368.368v3.106A.366.366,0,0,0,260.968,470.241Z" transform="translate(-260.6 -466.4)" fill-rule="evenodd"/>
        <path id="路径_202-2" data-name="路径 202" d="M261.2,470.314h1.1a.193.193,0,0,0,.2-.2V467a.193.193,0,0,0-.2-.2h-1.1a.193.193,0,0,0-.2.2v3.106C261.041,470.192,261.123,470.314,261.2,470.314Z" transform="translate(-260.837 -466.637)" fill-rule="evenodd" fill="url(#linear-gradient-4)"/>
        <path id="路径_203-2" data-name="路径 203" d="M262.344,467.9h-.981a.176.176,0,0,1-.163-.163v-.572a.176.176,0,0,1,.163-.163h.981a.176.176,0,0,1,.163.163v.572A.15.15,0,0,1,262.344,467.9Z" transform="translate(-260.955 -466.755)" fill="#666" fill-rule="evenodd"/>
        <path id="路径_204-2" data-name="路径 204" d="M262.344,471.216h-.981a.176.176,0,0,1-.163-.163v-1.389a.176.176,0,0,1,.163-.164h.981a.176.176,0,0,1,.163.164v1.389A.176.176,0,0,1,262.344,471.216Z" transform="translate(-260.955 -468.233)" fill="#898989" fill-rule="evenodd"/>
        <path id="路径_205-2" data-name="路径 205" d="M262.344,474.49h-.981a.176.176,0,0,1-.163-.163v-.163a.176.176,0,0,1,.163-.163h.981a.176.176,0,0,1,.163.163v.163A.176.176,0,0,1,262.344,474.49Z" transform="translate(-260.955 -470.894)" fill="#c5c5c5" fill-rule="evenodd"/>
      </g>
      <g id="组_271" data-name="组 271" transform="translate(0 12.443)">
        <rect id="矩形_57-3" data-name="矩形 57" width="1.267" height="2.247" transform="translate(1.022 0.776)"/>
        <rect id="矩形_58-3" data-name="矩形 58" width="0.899" height="1.921" transform="translate(1.185 0.981)" fill="url(#linear-gradient-3)"/>
        <path id="路径_201-3" data-name="路径 201" d="M260.968,470.241h1.1a.366.366,0,0,0,.368-.368v-3.106a.366.366,0,0,0-.368-.368h-1.1a.366.366,0,0,0-.368.368v3.106A.366.366,0,0,0,260.968,470.241Z" transform="translate(-260.6 -466.4)" fill-rule="evenodd"/>
        <path id="路径_202-3" data-name="路径 202" d="M261.2,470.314h1.1a.193.193,0,0,0,.2-.2V467a.193.193,0,0,0-.2-.2h-1.1a.193.193,0,0,0-.2.2v3.106C261.041,470.192,261.123,470.314,261.2,470.314Z" transform="translate(-260.837 -466.637)" fill-rule="evenodd" fill="url(#linear-gradient-4)"/>
        <path id="路径_203-3" data-name="路径 203" d="M262.344,467.9h-.981a.176.176,0,0,1-.163-.163v-.572a.176.176,0,0,1,.163-.163h.981a.176.176,0,0,1,.163.163v.572A.15.15,0,0,1,262.344,467.9Z" transform="translate(-260.955 -466.755)" fill="#666" fill-rule="evenodd"/>
        <path id="路径_204-3" data-name="路径 204" d="M262.344,471.216h-.981a.176.176,0,0,1-.163-.163v-1.389a.176.176,0,0,1,.163-.164h.981a.176.176,0,0,1,.163.164v1.389A.176.176,0,0,1,262.344,471.216Z" transform="translate(-260.955 -468.233)" fill="#898989" fill-rule="evenodd"/>
        <path id="路径_205-3" data-name="路径 205" d="M262.344,474.49h-.981a.176.176,0,0,1-.163-.163v-.163a.176.176,0,0,1,.163-.163h.981a.176.176,0,0,1,.163.163v.163A.176.176,0,0,1,262.344,474.49Z" transform="translate(-260.955 -470.894)" fill="#c5c5c5" fill-rule="evenodd"/>
      </g>
      <g id="组_272" data-name="组 272" transform="translate(0 2.227)">
        <rect id="矩形_57-4" data-name="矩形 57" width="1.267" height="2.247" transform="translate(1.022 0.776)"/>
        <rect id="矩形_58-4" data-name="矩形 58" width="0.899" height="1.921" transform="translate(1.185 0.981)" fill="url(#linear-gradient-3)"/>
        <path id="路径_201-4" data-name="路径 201" d="M260.968,470.241h1.1a.366.366,0,0,0,.368-.368v-3.106a.366.366,0,0,0-.368-.368h-1.1a.366.366,0,0,0-.368.368v3.106A.366.366,0,0,0,260.968,470.241Z" transform="translate(-260.6 -466.4)" fill-rule="evenodd"/>
        <path id="路径_202-4" data-name="路径 202" d="M261.2,470.314h1.1a.193.193,0,0,0,.2-.2V467a.193.193,0,0,0-.2-.2h-1.1a.193.193,0,0,0-.2.2v3.106C261.041,470.192,261.123,470.314,261.2,470.314Z" transform="translate(-260.837 -466.637)" fill-rule="evenodd" fill="url(#linear-gradient-4)"/>
        <path id="路径_203-4" data-name="路径 203" d="M262.344,467.9h-.981a.176.176,0,0,1-.163-.163v-.572a.176.176,0,0,1,.163-.163h.981a.176.176,0,0,1,.163.163v.572A.15.15,0,0,1,262.344,467.9Z" transform="translate(-260.955 -466.755)" fill="#666" fill-rule="evenodd"/>
        <path id="路径_204-4" data-name="路径 204" d="M262.344,471.216h-.981a.176.176,0,0,1-.163-.163v-1.389a.176.176,0,0,1,.163-.164h.981a.176.176,0,0,1,.163.164v1.389A.176.176,0,0,1,262.344,471.216Z" transform="translate(-260.955 -468.233)" fill="#898989" fill-rule="evenodd"/>
        <path id="路径_205-4" data-name="路径 205" d="M262.344,474.49h-.981a.176.176,0,0,1-.163-.163v-.163a.176.176,0,0,1,.163-.163h.981a.176.176,0,0,1,.163.163v.163A.176.176,0,0,1,262.344,474.49Z" transform="translate(-260.955 -470.894)" fill="#c5c5c5" fill-rule="evenodd"/>
      </g>
    </g>
    <g id="组_1609" data-name="组 1609" transform="translate(456.113 1862.819) rotate(180)">
      <path id="路径_189-2" data-name="路径 189" d="M6.579,1.43A1.448,1.448,0,0,0,5.149,0H1.43A1.448,1.448,0,0,0,0,1.43V37.839a1.448,1.448,0,0,0,1.43,1.43H5.149a1.448,1.448,0,0,0,1.43-1.43Z" transform="translate(2.084 0)" fill-rule="evenodd"/>
      <path id="路径_190-2" data-name="路径 190" d="M6.17,1.228V37.637a1.229,1.229,0,0,1-1.226,1.226H1.226A1.229,1.229,0,0,1,0,37.637V1.228A1.229,1.229,0,0,1,1.226,0H4.944A1.18,1.18,0,0,1,6.17,1.228Z" transform="translate(2.288 0.202)" fill-rule="evenodd" fill="url(#linear-gradient-2)"/>
      <g id="组_39-2" data-name="组 39" transform="translate(0 33.283)">
        <rect id="矩形_57-5" data-name="矩形 57" width="1.267" height="2.247" transform="translate(1.022 0.776)"/>
        <rect id="矩形_58-5" data-name="矩形 58" width="0.899" height="1.921" transform="translate(1.185 0.981)" fill="url(#linear-gradient-3)"/>
        <path id="路径_201-5" data-name="路径 201" d="M.368,3.841h1.1a.366.366,0,0,0,.368-.368V.368A.366.366,0,0,0,1.471,0H.368A.366.366,0,0,0,0,.368V3.473A.366.366,0,0,0,.368,3.841Z" transform="translate(0 0)" fill-rule="evenodd"/>
        <path id="路径_202-5" data-name="路径 202" d="M.2,3.514h1.1a.193.193,0,0,0,.2-.2V.2a.193.193,0,0,0-.2-.2H.2A.193.193,0,0,0,0,.2V3.31C.041,3.392.123,3.514.2,3.514Z" transform="translate(0.163 0.163)" fill-rule="evenodd" fill="url(#linear-gradient-4)"/>
        <path id="路径_203-5" data-name="路径 203" d="M1.144.9H.163A.176.176,0,0,1,0,.736V.163A.176.176,0,0,1,.163,0h.981a.176.176,0,0,1,.163.163V.736A.15.15,0,0,1,1.144.9Z" transform="translate(0.245 0.245)" fill="#666" fill-rule="evenodd"/>
        <path id="路径_204-5" data-name="路径 204" d="M1.144,1.716H.163A.176.176,0,0,1,0,1.553V.163A.176.176,0,0,1,.163,0h.981a.176.176,0,0,1,.163.163V1.553A.176.176,0,0,1,1.144,1.716Z" transform="translate(0.245 1.267)" fill="#898989" fill-rule="evenodd"/>
        <path id="路径_205-5" data-name="路径 205" d="M1.144.49H.163A.176.176,0,0,1,0,.327V.163A.176.176,0,0,1,.163,0h.981a.176.176,0,0,1,.163.163V.327A.176.176,0,0,1,1.144.49Z" transform="translate(0.245 3.106)" fill="#c5c5c5" fill-rule="evenodd"/>
      </g>
      <g id="组_270-2" data-name="组 270" transform="translate(0 23.067)">
        <rect id="矩形_57-6" data-name="矩形 57" width="1.267" height="2.247" transform="translate(1.022 0.776)"/>
        <rect id="矩形_58-6" data-name="矩形 58" width="0.899" height="1.921" transform="translate(1.185 0.981)" fill="url(#linear-gradient-3)"/>
        <path id="路径_201-6" data-name="路径 201" d="M.368,3.841h1.1a.366.366,0,0,0,.368-.368V.368A.366.366,0,0,0,1.471,0H.368A.366.366,0,0,0,0,.368V3.473A.366.366,0,0,0,.368,3.841Z" transform="translate(0 0)" fill-rule="evenodd"/>
        <path id="路径_202-6" data-name="路径 202" d="M.2,3.514h1.1a.193.193,0,0,0,.2-.2V.2a.193.193,0,0,0-.2-.2H.2A.193.193,0,0,0,0,.2V3.31C.041,3.392.123,3.514.2,3.514Z" transform="translate(0.163 0.163)" fill-rule="evenodd" fill="url(#linear-gradient-4)"/>
        <path id="路径_203-6" data-name="路径 203" d="M1.144.9H.163A.176.176,0,0,1,0,.736V.163A.176.176,0,0,1,.163,0h.981a.176.176,0,0,1,.163.163V.736A.15.15,0,0,1,1.144.9Z" transform="translate(0.245 0.245)" fill="#666" fill-rule="evenodd"/>
        <path id="路径_204-6" data-name="路径 204" d="M1.144,1.716H.163A.176.176,0,0,1,0,1.553V.163A.176.176,0,0,1,.163,0h.981a.176.176,0,0,1,.163.163V1.553A.176.176,0,0,1,1.144,1.716Z" transform="translate(0.245 1.267)" fill="#898989" fill-rule="evenodd"/>
        <path id="路径_205-6" data-name="路径 205" d="M1.144.49H.163A.176.176,0,0,1,0,.327V.163A.176.176,0,0,1,.163,0h.981a.176.176,0,0,1,.163.163V.327A.176.176,0,0,1,1.144.49Z" transform="translate(0.245 3.106)" fill="#c5c5c5" fill-rule="evenodd"/>
      </g>
      <g id="组_271-2" data-name="组 271" transform="translate(0 12.443)">
        <rect id="矩形_57-7" data-name="矩形 57" width="1.267" height="2.247" transform="translate(1.022 0.776)"/>
        <rect id="矩形_58-7" data-name="矩形 58" width="0.899" height="1.921" transform="translate(1.185 0.981)" fill="url(#linear-gradient-3)"/>
        <path id="路径_201-7" data-name="路径 201" d="M.368,3.841h1.1a.366.366,0,0,0,.368-.368V.368A.366.366,0,0,0,1.471,0H.368A.366.366,0,0,0,0,.368V3.473A.366.366,0,0,0,.368,3.841Z" transform="translate(0 0)" fill-rule="evenodd"/>
        <path id="路径_202-7" data-name="路径 202" d="M.2,3.514h1.1a.193.193,0,0,0,.2-.2V.2a.193.193,0,0,0-.2-.2H.2A.193.193,0,0,0,0,.2V3.31C.041,3.392.123,3.514.2,3.514Z" transform="translate(0.163 0.163)" fill-rule="evenodd" fill="url(#linear-gradient-4)"/>
        <path id="路径_203-7" data-name="路径 203" d="M1.144.9H.163A.176.176,0,0,1,0,.736V.163A.176.176,0,0,1,.163,0h.981a.176.176,0,0,1,.163.163V.736A.15.15,0,0,1,1.144.9Z" transform="translate(0.245 0.245)" fill="#666" fill-rule="evenodd"/>
        <path id="路径_204-7" data-name="路径 204" d="M1.144,1.716H.163A.176.176,0,0,1,0,1.553V.163A.176.176,0,0,1,.163,0h.981a.176.176,0,0,1,.163.163V1.553A.176.176,0,0,1,1.144,1.716Z" transform="translate(0.245 1.267)" fill="#898989" fill-rule="evenodd"/>
        <path id="路径_205-7" data-name="路径 205" d="M1.144.49H.163A.176.176,0,0,1,0,.327V.163A.176.176,0,0,1,.163,0h.981a.176.176,0,0,1,.163.163V.327A.176.176,0,0,1,1.144.49Z" transform="translate(0.245 3.106)" fill="#c5c5c5" fill-rule="evenodd"/>
      </g>
      <g id="组_272-2" data-name="组 272" transform="translate(0 2.227)">
        <rect id="矩形_57-8" data-name="矩形 57" width="1.267" height="2.247" transform="translate(1.022 0.776)"/>
        <rect id="矩形_58-8" data-name="矩形 58" width="0.899" height="1.921" transform="translate(1.185 0.981)" fill="url(#linear-gradient-3)"/>
        <path id="路径_201-8" data-name="路径 201" d="M.368,3.841h1.1a.366.366,0,0,0,.368-.368V.368A.366.366,0,0,0,1.471,0H.368A.366.366,0,0,0,0,.368V3.473A.366.366,0,0,0,.368,3.841Z" transform="translate(0 0)" fill-rule="evenodd"/>
        <path id="路径_202-8" data-name="路径 202" d="M.2,3.514h1.1a.193.193,0,0,0,.2-.2V.2a.193.193,0,0,0-.2-.2H.2A.193.193,0,0,0,0,.2V3.31C.041,3.392.123,3.514.2,3.514Z" transform="translate(0.163 0.163)" fill-rule="evenodd" fill="url(#linear-gradient-4)"/>
        <path id="路径_203-8" data-name="路径 203" d="M1.144.9H.163A.176.176,0,0,1,0,.736V.163A.176.176,0,0,1,.163,0h.981a.176.176,0,0,1,.163.163V.736A.15.15,0,0,1,1.144.9Z" transform="translate(0.245 0.245)" fill="#666" fill-rule="evenodd"/>
        <path id="路径_204-8" data-name="路径 204" d="M1.144,1.716H.163A.176.176,0,0,1,0,1.553V.163A.176.176,0,0,1,.163,0h.981a.176.176,0,0,1,.163.163V1.553A.176.176,0,0,1,1.144,1.716Z" transform="translate(0.245 1.267)" fill="#898989" fill-rule="evenodd"/>
        <path id="路径_205-8" data-name="路径 205" d="M1.144.49H.163A.176.176,0,0,1,0,.327V.163A.176.176,0,0,1,.163,0h.981a.176.176,0,0,1,.163.163V.327A.176.176,0,0,1,1.144.49Z" transform="translate(0.245 3.106)" fill="#c5c5c5" fill-rule="evenodd"/>
      </g>
    </g>
    <g id="组_1607" data-name="组 1607" transform="translate(496.363 1856.485) rotate(180)">
      <g id="组_875" data-name="组 875" transform="translate(26.919 26.919) rotate(180)">
        <g id="组_874" data-name="组 874" transform="translate(0 0)">
          <g id="路径_3294" data-name="路径 3294" fill="#c6c6c6">
            <path d="M 13.45931816101074 26.66860198974609 C 9.930977821350098 26.66860198974609 6.613828182220459 25.29459381103516 4.118917942047119 22.79969215393066 C 1.624008178710938 20.30478286743164 0.2499981671571732 16.98763275146484 0.2499981671571732 13.45930290222168 C 0.2499981671571732 9.930973052978516 1.624008178710938 6.613822937011719 4.118917942047119 4.118912696838379 C 6.613828182220459 1.62401294708252 9.930977821350098 0.2500028908252716 13.45931816101074 0.2500028908252716 C 16.98765754699707 0.2500028908252716 20.30480766296387 1.62401294708252 22.79971885681152 4.118912696838379 C 25.29462814331055 6.613822937011719 26.66863822937012 9.930973052978516 26.66863822937012 13.45930290222168 C 26.66863822937012 16.98763275146484 25.29462814331055 20.30478286743164 22.79971885681152 22.79969215393066 C 20.30480766296387 25.29459381103516 16.98765754699707 26.66860198974609 13.45931816101074 26.66860198974609 Z" stroke="none"/>
            <path d="M 13.45931816101074 0.5000038146972656 C 9.997758865356445 0.5000038146972656 6.743387222290039 1.848003387451172 4.295698165893555 4.295692443847656 C 1.847997665405273 6.743383407592773 0.4999980926513672 9.997743606567383 0.4999980926513672 13.45930290222168 C 0.4999980926513672 16.92086410522461 1.847997665405273 20.17522239685059 4.295698165893555 22.6229133605957 C 6.743387222290039 25.07060241699219 9.997758865356445 26.41860198974609 13.45931816101074 26.41860198974609 C 16.92087936401367 26.41860198974609 20.17524719238281 25.07060241699219 22.62293815612793 22.6229133605957 C 25.07062911987305 20.17522239685059 26.41863822937012 16.92085266113281 26.41863822937012 13.45930290222168 C 26.41863822937012 9.997753143310547 25.07062911987305 6.743383407592773 22.62293815612793 4.295692443847656 C 20.17524719238281 1.848003387451172 16.92087936401367 0.5000038146972656 13.45931816101074 0.5000038146972656 M 13.45931816101074 3.814697265625e-06 C 20.8926887512207 3.814697265625e-06 26.91863822937012 6.025932312011719 26.91863822937012 13.45930290222168 C 26.91863822937012 20.89267349243164 20.8926887512207 26.91860198974609 13.45931816101074 26.91860198974609 C 6.025938034057617 26.91860198974609 -1.9073486328125e-06 20.89267349243164 -1.9073486328125e-06 13.45930290222168 C -1.9073486328125e-06 6.025932312011719 6.025938034057617 3.814697265625e-06 13.45931816101074 3.814697265625e-06 Z" stroke="none"/>
          </g>
          <ellipse id="椭圆_74" data-name="椭圆 74" cx="12.28" cy="12.28" rx="12.28" ry="12.28" transform="translate(1.18 1.18)" fill="url(#radial-gradient)"/>
          <ellipse id="椭圆_71" data-name="椭圆 71" cx="9.731" cy="6.256" rx="9.731" ry="6.256" transform="translate(3.728 0.948)" fill="url(#radial-gradient-2)"/>
          <ellipse id="椭圆_72" data-name="椭圆 72" cx="8.573" cy="4.402" rx="8.573" ry="4.402" transform="translate(4.887 16.703)" opacity="0.55" fill="url(#radial-gradient-3)"/>
        </g>
        <circle id="椭圆_73" data-name="椭圆 73" cx="12.259" cy="12.259" r="12.259" transform="translate(1.114 1.114)" opacity="0.23" fill="url(#radial-gradient-4)"/>
      </g>
    </g>
    <g id="组_1613" data-name="组 1613" transform="translate(471.554 1831.667)">
      <g id="组_206" data-name="组 206" transform="translate(0 0)">
        <path id="路径_1002" data-name="路径 1002" d="M232.216,280a11.3,11.3,0,1,1-11.119,11.62A11.359,11.359,0,0,1,232.216,280Z" transform="translate(-221.093 -279.993)" fill="#231815" fill-rule="evenodd"/>
        <path id="路径_1003" data-name="路径 1003" d="M232.316,280.2a11.2,11.2,0,1,1-11.019,11.52A11.254,11.254,0,0,1,232.316,280.2Z" transform="translate(-221.193 -280.093)" fill-rule="evenodd" fill="url(#linear-gradient-20)"/>
        <g id="组_205" data-name="组 205" transform="translate(0.955 0.955)">
          <g id="组_199" data-name="组 199" transform="translate(11.921)">
            <path id="路径_1004" data-name="路径 1004" d="M247.551,284.1l-.751-.9.4-1.1,1.152-.2.751.9-.4,1.1h-.05c-.351.05-.7.15-1.052.2Z" transform="translate(-246.8 -281.9)" fill="#231815" fill-rule="evenodd"/>
            <path id="路径_1005" data-name="路径 1005" d="M247.6,284.1l-.7-.8.351-1,1.052-.2.7.8-.351,1C248.3,283.953,248.052,284,247.6,284.1Z" transform="translate(-246.85 -282)" fill="#e5e5e6" fill-rule="evenodd"/>
            <path id="路径_1006" data-name="路径 1006" d="M248.6,282.2h.2l.3,1.8-.2.05Z" transform="translate(-247.698 -282.05)" fill="#717071" fill-rule="evenodd"/>
          </g>
          <g id="组_200" data-name="组 200" transform="translate(2.605 2.354)">
            <path id="路径_1007" data-name="路径 1007" d="M230.1,288.6l-1.152.2-.751-.9.4-1.1,1.152-.2.751.9v.05c-.15.351-.25.7-.4,1.052Z" transform="translate(-228.2 -286.6)" fill="#231815" fill-rule="evenodd"/>
            <path id="路径_1008" data-name="路径 1008" d="M230.153,288.7l-1.052.2-.7-.8.351-1,1.052-.2.7.8C230.353,288.052,230.3,288.3,230.153,288.7Z" transform="translate(-228.3 -286.75)" fill="#e5e5e6" fill-rule="evenodd"/>
            <path id="路径_1009" data-name="路径 1009" d="M228.7,288.15l.05-.15,1.753.651-.05.15Z" transform="translate(-228.45 -287.299)" fill="#717071" fill-rule="evenodd"/>
          </g>
          <g id="组_201" data-name="组 201" transform="translate(0 11.62)">
            <path id="路径_1010" data-name="路径 1010" d="M225.3,306l-.4,1.1-1.152.2-.751-.9.4-1.1,1.152-.2.05.05c.25.25.451.551.7.851Z" transform="translate(-223 -305.1)" fill="#231815" fill-rule="evenodd"/>
            <path id="路径_1011" data-name="路径 1011" d="M225.3,306.1l-.351,1-1.052.2-.7-.8.351-1,1.052-.2A10.03,10.03,0,0,1,225.3,306.1Z" transform="translate(-223.1 -305.2)" fill="#e5e5e6" fill-rule="evenodd"/>
            <path id="路径_1012" data-name="路径 1012" d="M223.9,307.3l-.1-.1,1.4-1.2.15.15Z" transform="translate(-223.399 -305.549)" fill="#717071" fill-rule="evenodd"/>
          </g>
          <g id="组_202" data-name="组 202" transform="translate(6.762 18.482)">
            <path id="路径_1013" data-name="路径 1013" d="M238.053,318.8l.751.9-.4,1.1-1.152.2-.751-.9.4-1.1h.05c.351-.05.7-.15,1.052-.2Z" transform="translate(-236.5 -318.8)" fill="#231815" fill-rule="evenodd"/>
            <path id="路径_1014" data-name="路径 1014" d="M238.1,319l.7.8-.351,1-1.052.2-.7-.8.351-1C237.451,319.1,237.7,319.1,238.1,319Z" transform="translate(-236.6 -318.9)" fill="#e5e5e6" fill-rule="evenodd"/>
            <path id="路径_1015" data-name="路径 1015" d="M238.751,321l-.15.05-.3-1.853h.15Z" transform="translate(-237.398 -319)" fill="#717071" fill-rule="evenodd"/>
          </g>
          <g id="组_203" data-name="组 203" transform="translate(16.028 16.078)">
            <path id="路径_1016" data-name="路径 1016" d="M255.4,314.2l1.152-.2.751.9-.4,1.1-1.152.2-.751-.9v-.05c.1-.351.25-.7.351-1Z" transform="translate(-255 -314)" fill="#231815" fill-rule="evenodd"/>
            <path id="路径_1017" data-name="路径 1017" d="M255.651,314.4l1.052-.2.7.8-.351,1-1.052.2-.7-.8C255.4,315.051,255.5,314.8,255.651,314.4Z" transform="translate(-255.15 -314.1)" fill="#e5e5e6" fill-rule="evenodd"/>
            <path id="路径_1018" data-name="路径 1018" d="M257.353,316.051l-.1.2L255.5,315.6l.1-.2Z" transform="translate(-255.25 -314.699)" fill="#717071" fill-rule="evenodd"/>
          </g>
          <g id="组_204" data-name="组 204" transform="translate(18.632 6.862)">
            <path id="路径_1019" data-name="路径 1019" d="M260.2,296.9l.4-1.1,1.152-.2.751.9-.4,1.1-1.152.2-.05-.05c-.2-.25-.451-.551-.7-.851Z" transform="translate(-260.2 -295.6)" fill="#231815" fill-rule="evenodd"/>
            <path id="路径_1020" data-name="路径 1020" d="M260.4,296.9l.351-1,1.052-.2.7.8-.351,1-1.052.2A5.726,5.726,0,0,1,260.4,296.9Z" transform="translate(-260.3 -295.65)" fill="#e5e5e6" fill-rule="evenodd"/>
            <path id="路径_1021" data-name="路径 1021" d="M262.4,296.4l.15.15-1.453,1.2-.1-.15Z" transform="translate(-260.599 -295.999)" fill="#717071" fill-rule="evenodd"/>
          </g>
        </g>
      </g>
    </g>
    <g id="组_240" data-name="组 240" transform="translate(475.289 1835.166)">
      <path id="路径_2246" data-name="路径 2246" d="M484.212,183.351c.906.659-1.647,4.035-2.553,3.211a30.672,30.672,0,0,0-10.293-8.4c-.906-.659,2.388-4.611,3.294-3.788C477.46,177.834,480.095,181.21,484.212,183.351Z" transform="translate(-462.153 -165.386)" fill="#3e3a39" fill-rule="evenodd"/>
      <path id="路径_2247" data-name="路径 2247" d="M481.962,186.367a31.649,31.649,0,0,0-10.375-8.481c-.494-.329,2.306-3.705,2.8-3.294,3.047,3.788,5.6,7,9.716,9.057C484.6,183.979,482.457,186.779,481.962,186.367Z" transform="translate(-462.209 -165.438)" fill-rule="evenodd" fill="url(#linear-gradient-21)"/>
      <path id="路径_2248" data-name="路径 2248" d="M468.6,163.5c10.622.576,9.8,16.468-.823,15.974C457.155,178.894,457.979,162.92,468.6,163.5Z" transform="translate(-460.21 -163.482)" fill="#595757" fill-rule="evenodd"/>
      <path id="路径_2249" data-name="路径 2249" d="M468.667,164a7.587,7.587,0,1,1-8.069,7.164A7.542,7.542,0,0,1,468.667,164Z" transform="translate(-460.276 -163.57)" fill="#898989" fill-rule="evenodd"/>
      <path id="路径_2250" data-name="路径 2250" d="M475.122,168.6a7.6,7.6,0,0,1-7.081,11.363,7.863,7.863,0,0,1-6.34-3.87C466.146,181.527,475.616,174.693,475.122,168.6Z" transform="translate(-460.473 -164.385)" fill="#c9caca" fill-rule="evenodd"/>
      <path id="路径_2251" data-name="路径 2251" d="M469.033,165.2a6.472,6.472,0,1,1-6.834,6.093A6.41,6.41,0,0,1,469.033,165.2Z" transform="translate(-460.56 -163.782)" fill-rule="evenodd" fill="url(#radial-gradient-5)"/>
      <path id="路径_2252" data-name="路径 2252" d="M473.747,167.55c2.223,1.729.823,3.541-1.4,1.811C470.041,167.632,471.441,165.821,473.747,167.55Z" transform="translate(-462.145 -164.076)" fill="#fff" fill-rule="evenodd"/>
      <path id="路径_2253" data-name="路径 2253" d="M465.9,173.823l2.717,2.47c1.317-.412,2.141-.659,3.376-1.07l.412-.494.659-3.458-2.717-2.47-3.376,1.07-.412.494Z" transform="translate(-461.215 -164.421)" fill="#727171" fill-rule="evenodd"/>
      <path id="路径_2254" data-name="路径 2254" d="M465.4,173.123l2.717,2.47c1.317-.412,2.141-.659,3.376-1.07l.412-.494.659-3.458-2.717-2.47-3.376,1.07-.412.494Z" transform="translate(-461.127 -164.297)" fill="#595757" fill-rule="evenodd"/>
      <path id="路径_2255" data-name="路径 2255" d="M468.253,175.434l-2.553-2.306.659-3.458,3.376-1.07,2.553,2.388-.659,3.376-1.482.494-.082-.165-.329.082-.165.247Z" transform="translate(-461.18 -164.385)" fill="#e6e6e6" fill-rule="evenodd"/>
      <path id="路径_2256" data-name="路径 2256" d="M468.3,169.194l.165-.247.576-.247-.165.329.988,3.047.741,2.8-.082-.165-.329.082-.165.247Z" transform="translate(-461.639 -164.403)" fill="#f7f8f8" fill-rule="evenodd"/>
      <path id="路径_2257" data-name="路径 2257" d="M468.5,168.947l.576-.247-.165.329,1.729,5.846-.082-.165-.329.082Z" transform="translate(-461.674 -164.403)" fill="#898989" fill-rule="evenodd"/>
      <path id="路径_2258" data-name="路径 2258" d="M484.447,181.571c3.705,4.94,7.164,9.552,12.845,12.351,1.07.823-2.553,5.434-3.705,4.446a39.339,39.339,0,0,0-13.916-11.528C478.683,186.017,483.376,180.5,484.447,181.571Z" transform="translate(-463.623 -166.652)" fill="#870000" fill-rule="evenodd"/>
      <path id="路径_2259" data-name="路径 2259" d="M494.083,198.208a38.165,38.165,0,0,0-14-11.528c-.659-.494,3.541-5.352,4.2-4.693,3.952,5.27,7.328,9.716,12.928,12.433C497.788,194.832,494.742,198.784,494.083,198.208Z" transform="translate(-463.708 -166.739)" fill-rule="evenodd" fill="url(#linear-gradient-22)"/>
    </g>
  </g>
</svg>
