<svg xmlns="http://www.w3.org/2000/svg" xmlns:xlink="http://www.w3.org/1999/xlink" width="72" height="72" viewBox="0 0 72 72">
  <defs>
    <linearGradient id="linear-gradient" x1="0.5" y1="0.93" x2="0.5" y2="-0.097" gradientUnits="objectBoundingBox">
      <stop offset="0" stop-color="#666"/>
      <stop offset="0.17" stop-color="#adadad"/>
      <stop offset="0.35" stop-color="#ebebeb"/>
      <stop offset="0.48" stop-color="#fbfbfb"/>
      <stop offset="0.58" stop-color="#fefefe"/>
      <stop offset="0.71" stop-color="#b9b9b9"/>
      <stop offset="0.82" stop-color="#747474"/>
      <stop offset="1" stop-color="#d8d8d8"/>
    </linearGradient>
    <linearGradient id="linear-gradient-2" x1="0.499" y1="0.93" x2="0.499" y2="-0.097" gradientUnits="objectBoundingBox">
      <stop offset="0" stop-color="#6a6a6a"/>
      <stop offset="0.17" stop-color="#ababab"/>
      <stop offset="0.35" stop-color="#ebebeb"/>
      <stop offset="0.48" stop-color="#fafafa"/>
      <stop offset="0.58" stop-color="#fefefe"/>
      <stop offset="0.71" stop-color="#b9b9b9"/>
      <stop offset="0.82" stop-color="#747474"/>
      <stop offset="1" stop-color="#d9d9d9"/>
    </linearGradient>
    <linearGradient id="linear-gradient-3" x1="0.501" y1="0.941" x2="0.501" y2="-0.134" gradientUnits="objectBoundingBox">
      <stop offset="0" stop-color="#6c6c6c"/>
      <stop offset="0.21" stop-color="#b1b1b1"/>
      <stop offset="0.3" stop-color="#ececec"/>
      <stop offset="0.36" stop-color="#f7f7f7"/>
      <stop offset="0.5" stop-color="#fefefe"/>
      <stop offset="0.71" stop-color="#bcbcbc"/>
      <stop offset="0.82" stop-color="#787878"/>
      <stop offset="1" stop-color="#d7d7d7"/>
    </linearGradient>
    <linearGradient id="linear-gradient-4" x1="0.494" y1="0.059" x2="0.494" y2="1.077" gradientUnits="objectBoundingBox">
      <stop offset="0" stop-color="#696969"/>
      <stop offset="0.17" stop-color="#afafaf"/>
      <stop offset="0.35" stop-color="#efefef"/>
      <stop offset="0.48" stop-color="#f8f8f8"/>
      <stop offset="0.58" stop-color="#fefefe"/>
      <stop offset="0.71" stop-color="#b7b7b7"/>
      <stop offset="0.82" stop-color="#737373"/>
      <stop offset="1" stop-color="#dcdcdc"/>
    </linearGradient>
    <linearGradient id="linear-gradient-5" x1="0.5" y1="0.071" x2="0.5" y2="1.091" gradientUnits="objectBoundingBox">
      <stop offset="0" stop-color="#6b6b6b"/>
      <stop offset="0.17" stop-color="#adadad"/>
      <stop offset="0.35" stop-color="#ededed"/>
      <stop offset="0.48" stop-color="#f7f7f7"/>
      <stop offset="0.58" stop-color="#fefefe"/>
      <stop offset="0.71" stop-color="#b9b9b9"/>
      <stop offset="0.82" stop-color="#707070"/>
      <stop offset="1" stop-color="#d0d0d0"/>
    </linearGradient>
    <linearGradient id="linear-gradient-21" x1="0.5" x2="0.5" y2="1" gradientUnits="objectBoundingBox">
      <stop offset="0" stop-color="#9f9f9f"/>
      <stop offset="0.201" stop-color="#757575"/>
      <stop offset="0.382" stop-color="#fbfbfb"/>
      <stop offset="0.583" stop-color="#e5e5e5"/>
      <stop offset="0.828" stop-color="#6a6a6a"/>
      <stop offset="1" stop-color="#737373"/>
    </linearGradient>
    <radialGradient id="radial-gradient" cx="0.22" cy="0.78" r="0.643" gradientTransform="translate(0.004) scale(0.992 1)" gradientUnits="objectBoundingBox">
      <stop offset="0" stop-color="#fff"/>
      <stop offset="1" stop-color="#9e9e9f"/>
    </radialGradient>
    <radialGradient id="radial-gradient-2" cx="0.221" cy="0.78" r="0.643" gradientTransform="translate(0.005) scale(0.99 1)" xlink:href="#radial-gradient"/>
    <radialGradient id="radial-gradient-3" cx="0.145" cy="0.343" r="0.633" gradientTransform="translate(0.006) scale(0.989 1)" xlink:href="#radial-gradient"/>
    <filter id="路径_872" x="36.333" y="44.951" width="6.723" height="6.723" filterUnits="userSpaceOnUse">
      <feOffset dy="1" input="SourceAlpha"/>
      <feGaussianBlur stdDeviation="0.5" result="blur"/>
      <feFlood flood-opacity="0.812"/>
      <feComposite operator="in" in2="blur"/>
      <feComposite in="SourceGraphic"/>
    </filter>
    <linearGradient id="linear-gradient-22" x1="-0.018" y1="0.605" x2="1.116" y2="0.369" gradientUnits="objectBoundingBox">
      <stop offset="0" stop-color="#40495f"/>
      <stop offset="0.17" stop-color="#748195"/>
      <stop offset="0.48" stop-color="#b8becf"/>
      <stop offset="0.82" stop-color="#415166"/>
      <stop offset="1" stop-color="#29282d"/>
    </linearGradient>
    <linearGradient id="linear-gradient-23" x1="-0.01" y1="0.606" x2="1.119" y2="0.368" gradientUnits="objectBoundingBox">
      <stop offset="0" stop-color="#5f5e6c"/>
      <stop offset="0.17" stop-color="#a1a7ac"/>
      <stop offset="0.48" stop-color="#fefefe"/>
      <stop offset="0.82" stop-color="#606872"/>
      <stop offset="1" stop-color="#3e3a39"/>
    </linearGradient>
    <linearGradient id="linear-gradient-24" x1="0.982" y1="0.783" x2="-0.094" y2="0.162" xlink:href="#linear-gradient-23"/>
    <radialGradient id="radial-gradient-4" cx="0.599" cy="0.542" r="0.501" gradientTransform="translate(-0.014) scale(1.027 1)" gradientUnits="objectBoundingBox">
      <stop offset="0" stop-color="#fff"/>
      <stop offset="0.27" stop-color="#f0f5f8"/>
      <stop offset="0.49" stop-color="#dae2ec"/>
      <stop offset="0.71" stop-color="#a1a7ac"/>
      <stop offset="1" stop-color="#59575d"/>
    </radialGradient>
    <filter id="路径_872-2" x="24.213" y="42.012" width="6.723" height="6.723" filterUnits="userSpaceOnUse">
      <feOffset dy="1" input="SourceAlpha"/>
      <feGaussianBlur stdDeviation="0.5" result="blur-2"/>
      <feFlood flood-opacity="0.812"/>
      <feComposite operator="in" in2="blur-2"/>
      <feComposite in="SourceGraphic"/>
    </filter>
    <filter id="路径_872-3" x="21.642" y="30.627" width="6.723" height="6.723" filterUnits="userSpaceOnUse">
      <feOffset dy="1" input="SourceAlpha"/>
      <feGaussianBlur stdDeviation="0.5" result="blur-3"/>
      <feFlood flood-opacity="0.812"/>
      <feComposite operator="in" in2="blur-3"/>
      <feComposite in="SourceGraphic"/>
    </filter>
    <filter id="路径_872-4" x="44.046" y="37.238" width="6.723" height="6.723" filterUnits="userSpaceOnUse">
      <feOffset dy="1" input="SourceAlpha"/>
      <feGaussianBlur stdDeviation="0.5" result="blur-4"/>
      <feFlood flood-opacity="0.812"/>
      <feComposite operator="in" in2="blur-4"/>
      <feComposite in="SourceGraphic"/>
    </filter>
    <filter id="路径_872-5" x="41.475" y="25.852" width="6.723" height="6.723" filterUnits="userSpaceOnUse">
      <feOffset dy="1" input="SourceAlpha"/>
      <feGaussianBlur stdDeviation="0.5" result="blur-5"/>
      <feFlood flood-opacity="0.812"/>
      <feComposite operator="in" in2="blur-5"/>
      <feComposite in="SourceGraphic"/>
    </filter>
    <filter id="路径_872-6" x="29.355" y="22.547" width="6.723" height="6.723" filterUnits="userSpaceOnUse">
      <feOffset dy="1" input="SourceAlpha"/>
      <feGaussianBlur stdDeviation="0.5" result="blur-6"/>
      <feFlood flood-opacity="0.812"/>
      <feComposite operator="in" in2="blur-6"/>
      <feComposite in="SourceGraphic"/>
    </filter>
    <radialGradient id="radial-gradient-10" cx="1.341" cy="0.54" r="1.455" gradientTransform="translate(0.004) scale(0.992 1)" gradientUnits="objectBoundingBox">
      <stop offset="0" stop-color="#fef0da"/>
      <stop offset="0.17" stop-color="#e5a17d"/>
      <stop offset="0.37" stop-color="#d4300a"/>
      <stop offset="0.71" stop-color="#870000"/>
      <stop offset="1" stop-color="#640000"/>
    </radialGradient>
    <radialGradient id="radial-gradient-11" cx="1.079" cy="0.263" r="1.247" gradientTransform="translate(-0.037) scale(1.075 1)" gradientUnits="objectBoundingBox">
      <stop offset="0" stop-color="#fef0da"/>
      <stop offset="0.17" stop-color="#edb694"/>
      <stop offset="0.37" stop-color="#de6834"/>
      <stop offset="0.71" stop-color="#a74221"/>
      <stop offset="1" stop-color="#8e3515"/>
    </radialGradient>
    <linearGradient id="linear-gradient-40" x1="0.064" y1="0.885" x2="0.934" y2="0.122" xlink:href="#linear-gradient-23"/>
    <radialGradient id="radial-gradient-12" cx="0.499" cy="0.5" r="0.508" gradientUnits="objectBoundingBox">
      <stop offset="0" stop-color="#b57737"/>
      <stop offset="0.84" stop-color="#640000"/>
      <stop offset="0.87" stop-color="#b60005"/>
      <stop offset="0.91" stop-color="#d47b3f"/>
      <stop offset="0.96" stop-color="#870000"/>
      <stop offset="1" stop-color="#640000"/>
    </radialGradient>
    <radialGradient id="radial-gradient-13" cx="0.501" cy="0.5" r="0.509" gradientTransform="translate(0)" xlink:href="#radial-gradient-12"/>
  </defs>
  <g id="_05" data-name="05" transform="translate(0)">
    <rect id="矩形_2606" data-name="矩形 2606" width="72" height="72" fill="none"/>
    <g id="组_1699" data-name="组 1699" transform="translate(-260 -1764)">
      <g id="组_1688" data-name="组 1688" transform="translate(260 1779)">
        <g id="组_1686" data-name="组 1686" transform="translate(0 0)">
          <g id="组_1679" data-name="组 1679" transform="translate(0)">
            <g id="组_1664" data-name="组 1664" transform="translate(0 1.854)">
              <path id="路径_3628" data-name="路径 3628" d="M519.2,513.084a97.686,97.686,0,0,0,0-31.384h17.648v31.384Z" transform="translate(-469.352 -477.828)" stroke="#000" stroke-width="0.5" fill-rule="evenodd" fill="url(#linear-gradient)"/>
              <path id="路径_3627" data-name="路径 3627" d="M315.052,513.084a130.4,130.4,0,0,1,0-31.384H297.2v31.384Z" transform="translate(-293.185 -477.828)" stroke="#000" stroke-width="0.5" fill-rule="evenodd" fill="url(#linear-gradient-2)"/>
              <g id="组_1624" data-name="组 1624" transform="translate(63.359 0)">
                <path id="路径_189" data-name="路径 189" d="M272.262,411.627a1.444,1.444,0,0,0-1.427-1.427h-3.709a1.444,1.444,0,0,0-1.427,1.427v36.316a1.444,1.444,0,0,0,1.427,1.427h3.709a1.444,1.444,0,0,0,1.427-1.427Z" transform="translate(-263.621 -410.2)" fill-rule="evenodd"/>
                <path id="路径_190" data-name="路径 190" d="M272.355,411.92v36.316a1.226,1.226,0,0,1-1.223,1.223h-3.709a1.226,1.226,0,0,1-1.223-1.223V411.92a1.226,1.226,0,0,1,1.223-1.223h3.709A1.177,1.177,0,0,1,272.355,411.92Z" transform="translate(-263.918 -410.493)" fill-rule="evenodd" fill="url(#linear-gradient-3)"/>
                <g id="组_39" data-name="组 39" transform="translate(0 33.198)">
                  <rect id="矩形_57" data-name="矩形 57" width="1.264" height="2.242" transform="translate(1.019 0.774)"/>
                  <rect id="矩形_58" data-name="矩形 58" width="0.897" height="1.916" transform="translate(1.182 0.978)" fill="url(#linear-gradient-4)"/>
                  <path id="路径_201" data-name="路径 201" d="M260.967,470.231h1.1a.365.365,0,0,0,.367-.367v-3.1a.365.365,0,0,0-.367-.367h-1.1a.365.365,0,0,0-.367.367v3.1A.365.365,0,0,0,260.967,470.231Z" transform="translate(-260.6 -466.4)" fill-rule="evenodd"/>
                  <path id="路径_202" data-name="路径 202" d="M261.2,470.305h1.1a.193.193,0,0,0,.2-.2V467a.193.193,0,0,0-.2-.2h-1.1a.193.193,0,0,0-.2.2v3.1C261.041,470.183,261.122,470.305,261.2,470.305Z" transform="translate(-260.837 -466.637)" fill-rule="evenodd" fill="url(#linear-gradient-5)"/>
                  <path id="路径_203" data-name="路径 203" d="M262.341,467.9h-.978a.175.175,0,0,1-.163-.163v-.571a.175.175,0,0,1,.163-.163h.978a.175.175,0,0,1,.163.163v.571A.149.149,0,0,1,262.341,467.9Z" transform="translate(-260.955 -466.755)" fill="#666" fill-rule="evenodd"/>
                  <path id="路径_204" data-name="路径 204" d="M262.341,471.212h-.978a.175.175,0,0,1-.163-.163v-1.386a.175.175,0,0,1,.163-.163h.978a.175.175,0,0,1,.163.163v1.386A.175.175,0,0,1,262.341,471.212Z" transform="translate(-260.955 -468.237)" fill="#898989" fill-rule="evenodd"/>
                  <path id="路径_205" data-name="路径 205" d="M262.341,474.489h-.978a.175.175,0,0,1-.163-.163v-.163a.175.175,0,0,1,.163-.163h.978a.175.175,0,0,1,.163.163v.163A.175.175,0,0,1,262.341,474.489Z" transform="translate(-260.955 -470.902)" fill="#c5c5c5" fill-rule="evenodd"/>
                </g>
                <g id="组_270" data-name="组 270" transform="translate(0 23.008)">
                  <rect id="矩形_57-2" data-name="矩形 57" width="1.264" height="2.242" transform="translate(1.019 0.774)"/>
                  <rect id="矩形_58-2" data-name="矩形 58" width="0.897" height="1.916" transform="translate(1.182 0.978)" fill="url(#linear-gradient-4)"/>
                  <path id="路径_201-2" data-name="路径 201" d="M260.967,470.231h1.1a.365.365,0,0,0,.367-.367v-3.1a.365.365,0,0,0-.367-.367h-1.1a.365.365,0,0,0-.367.367v3.1A.365.365,0,0,0,260.967,470.231Z" transform="translate(-260.6 -466.4)" fill-rule="evenodd"/>
                  <path id="路径_202-2" data-name="路径 202" d="M261.2,470.305h1.1a.193.193,0,0,0,.2-.2V467a.193.193,0,0,0-.2-.2h-1.1a.193.193,0,0,0-.2.2v3.1C261.041,470.183,261.122,470.305,261.2,470.305Z" transform="translate(-260.837 -466.637)" fill-rule="evenodd" fill="url(#linear-gradient-5)"/>
                  <path id="路径_203-2" data-name="路径 203" d="M262.341,467.9h-.978a.175.175,0,0,1-.163-.163v-.571a.175.175,0,0,1,.163-.163h.978a.175.175,0,0,1,.163.163v.571A.149.149,0,0,1,262.341,467.9Z" transform="translate(-260.955 -466.755)" fill="#666" fill-rule="evenodd"/>
                  <path id="路径_204-2" data-name="路径 204" d="M262.341,471.212h-.978a.175.175,0,0,1-.163-.163v-1.386a.175.175,0,0,1,.163-.163h.978a.175.175,0,0,1,.163.163v1.386A.175.175,0,0,1,262.341,471.212Z" transform="translate(-260.955 -468.237)" fill="#898989" fill-rule="evenodd"/>
                  <path id="路径_205-2" data-name="路径 205" d="M262.341,474.489h-.978a.175.175,0,0,1-.163-.163v-.163a.175.175,0,0,1,.163-.163h.978a.175.175,0,0,1,.163.163v.163A.175.175,0,0,1,262.341,474.489Z" transform="translate(-260.955 -470.902)" fill="#c5c5c5" fill-rule="evenodd"/>
                </g>
                <g id="组_271" data-name="组 271" transform="translate(0 12.411)">
                  <rect id="矩形_57-3" data-name="矩形 57" width="1.264" height="2.242" transform="translate(1.019 0.774)"/>
                  <rect id="矩形_58-3" data-name="矩形 58" width="0.897" height="1.916" transform="translate(1.182 0.978)" fill="url(#linear-gradient-4)"/>
                  <path id="路径_201-3" data-name="路径 201" d="M260.967,470.231h1.1a.365.365,0,0,0,.367-.367v-3.1a.365.365,0,0,0-.367-.367h-1.1a.365.365,0,0,0-.367.367v3.1A.365.365,0,0,0,260.967,470.231Z" transform="translate(-260.6 -466.4)" fill-rule="evenodd"/>
                  <path id="路径_202-3" data-name="路径 202" d="M261.2,470.305h1.1a.193.193,0,0,0,.2-.2V467a.193.193,0,0,0-.2-.2h-1.1a.193.193,0,0,0-.2.2v3.1C261.041,470.183,261.122,470.305,261.2,470.305Z" transform="translate(-260.837 -466.637)" fill-rule="evenodd" fill="url(#linear-gradient-5)"/>
                  <path id="路径_203-3" data-name="路径 203" d="M262.341,467.9h-.978a.175.175,0,0,1-.163-.163v-.571a.175.175,0,0,1,.163-.163h.978a.175.175,0,0,1,.163.163v.571A.149.149,0,0,1,262.341,467.9Z" transform="translate(-260.955 -466.755)" fill="#666" fill-rule="evenodd"/>
                  <path id="路径_204-3" data-name="路径 204" d="M262.341,471.212h-.978a.175.175,0,0,1-.163-.163v-1.386a.175.175,0,0,1,.163-.163h.978a.175.175,0,0,1,.163.163v1.386A.175.175,0,0,1,262.341,471.212Z" transform="translate(-260.955 -468.237)" fill="#898989" fill-rule="evenodd"/>
                  <path id="路径_205-3" data-name="路径 205" d="M262.341,474.489h-.978a.175.175,0,0,1-.163-.163v-.163a.175.175,0,0,1,.163-.163h.978a.175.175,0,0,1,.163.163v.163A.175.175,0,0,1,262.341,474.489Z" transform="translate(-260.955 -470.902)" fill="#c5c5c5" fill-rule="evenodd"/>
                </g>
                <g id="组_272" data-name="组 272" transform="translate(0 2.221)">
                  <rect id="矩形_57-4" data-name="矩形 57" width="1.264" height="2.242" transform="translate(1.019 0.774)"/>
                  <rect id="矩形_58-4" data-name="矩形 58" width="0.897" height="1.916" transform="translate(1.182 0.978)" fill="url(#linear-gradient-4)"/>
                  <path id="路径_201-4" data-name="路径 201" d="M260.967,470.231h1.1a.365.365,0,0,0,.367-.367v-3.1a.365.365,0,0,0-.367-.367h-1.1a.365.365,0,0,0-.367.367v3.1A.365.365,0,0,0,260.967,470.231Z" transform="translate(-260.6 -466.4)" fill-rule="evenodd"/>
                  <path id="路径_202-4" data-name="路径 202" d="M261.2,470.305h1.1a.193.193,0,0,0,.2-.2V467a.193.193,0,0,0-.2-.2h-1.1a.193.193,0,0,0-.2.2v3.1C261.041,470.183,261.122,470.305,261.2,470.305Z" transform="translate(-260.837 -466.637)" fill-rule="evenodd" fill="url(#linear-gradient-5)"/>
                  <path id="路径_203-4" data-name="路径 203" d="M262.341,467.9h-.978a.175.175,0,0,1-.163-.163v-.571a.175.175,0,0,1,.163-.163h.978a.175.175,0,0,1,.163.163v.571A.149.149,0,0,1,262.341,467.9Z" transform="translate(-260.955 -466.755)" fill="#666" fill-rule="evenodd"/>
                  <path id="路径_204-4" data-name="路径 204" d="M262.341,471.212h-.978a.175.175,0,0,1-.163-.163v-1.386a.175.175,0,0,1,.163-.163h.978a.175.175,0,0,1,.163.163v1.386A.175.175,0,0,1,262.341,471.212Z" transform="translate(-260.955 -468.237)" fill="#898989" fill-rule="evenodd"/>
                  <path id="路径_205-4" data-name="路径 205" d="M262.341,474.489h-.978a.175.175,0,0,1-.163-.163v-.163a.175.175,0,0,1,.163-.163h.978a.175.175,0,0,1,.163.163v.163A.175.175,0,0,1,262.341,474.489Z" transform="translate(-260.955 -470.902)" fill="#c5c5c5" fill-rule="evenodd"/>
                </g>
              </g>
              <g id="组_1625" data-name="组 1625" transform="translate(8.641 39.169) rotate(180)">
                <path id="路径_189-2" data-name="路径 189" d="M6.562,1.427A1.444,1.444,0,0,0,5.136,0H1.427A1.444,1.444,0,0,0,0,1.427V37.742a1.444,1.444,0,0,0,1.427,1.427H5.136a1.444,1.444,0,0,0,1.427-1.427Z" transform="translate(2.079)" fill-rule="evenodd"/>
                <path id="路径_190-2" data-name="路径 190" d="M6.155,1.225V37.541a1.226,1.226,0,0,1-1.223,1.223H1.223A1.226,1.226,0,0,1,0,37.541V1.225A1.226,1.226,0,0,1,1.223,0H4.932A1.177,1.177,0,0,1,6.155,1.225Z" transform="translate(2.282 0.202)" fill-rule="evenodd" fill="url(#linear-gradient-3)"/>
                <g id="组_39-2" data-name="组 39" transform="translate(0 33.198)">
                  <rect id="矩形_57-5" data-name="矩形 57" width="1.264" height="2.242" transform="translate(1.019 0.774)"/>
                  <rect id="矩形_58-5" data-name="矩形 58" width="0.897" height="1.916" transform="translate(1.182 0.978)" fill="url(#linear-gradient-4)"/>
                  <path id="路径_201-5" data-name="路径 201" d="M.367,3.831h1.1a.365.365,0,0,0,.367-.367V.367A.365.365,0,0,0,1.467,0H.367A.365.365,0,0,0,0,.367v3.1A.365.365,0,0,0,.367,3.831Z" transform="translate(0)" fill-rule="evenodd"/>
                  <path id="路径_202-5" data-name="路径 202" d="M.2,3.505H1.3a.193.193,0,0,0,.2-.2V.2A.193.193,0,0,0,1.3,0H.2A.193.193,0,0,0,0,.2V3.3C.041,3.383.122,3.505.2,3.505Z" transform="translate(0.163 0.163)" fill-rule="evenodd" fill="url(#linear-gradient-5)"/>
                  <path id="路径_203-5" data-name="路径 203" d="M1.141.9H.163A.175.175,0,0,1,0,.734V.163A.175.175,0,0,1,.163,0h.978A.175.175,0,0,1,1.3.163V.734A.149.149,0,0,1,1.141.9Z" transform="translate(0.245 0.245)" fill="#666" fill-rule="evenodd"/>
                  <path id="路径_204-5" data-name="路径 204" d="M1.141,1.712H.163A.175.175,0,0,1,0,1.549V.163A.175.175,0,0,1,.163,0h.978A.175.175,0,0,1,1.3.163V1.549A.175.175,0,0,1,1.141,1.712Z" transform="translate(0.245 1.264)" fill="#898989" fill-rule="evenodd"/>
                  <path id="路径_205-5" data-name="路径 205" d="M1.141.489H.163A.175.175,0,0,1,0,.326V.163A.175.175,0,0,1,.163,0h.978A.175.175,0,0,1,1.3.163V.326A.175.175,0,0,1,1.141.489Z" transform="translate(0.245 3.098)" fill="#c5c5c5" fill-rule="evenodd"/>
                </g>
                <g id="组_270-2" data-name="组 270" transform="translate(0 23.008)">
                  <rect id="矩形_57-6" data-name="矩形 57" width="1.264" height="2.242" transform="translate(1.019 0.774)"/>
                  <rect id="矩形_58-6" data-name="矩形 58" width="0.897" height="1.916" transform="translate(1.182 0.978)" fill="url(#linear-gradient-4)"/>
                  <path id="路径_201-6" data-name="路径 201" d="M.367,3.831h1.1a.365.365,0,0,0,.367-.367V.367A.365.365,0,0,0,1.467,0H.367A.365.365,0,0,0,0,.367v3.1A.365.365,0,0,0,.367,3.831Z" transform="translate(0)" fill-rule="evenodd"/>
                  <path id="路径_202-6" data-name="路径 202" d="M.2,3.505H1.3a.193.193,0,0,0,.2-.2V.2A.193.193,0,0,0,1.3,0H.2A.193.193,0,0,0,0,.2V3.3C.041,3.383.122,3.505.2,3.505Z" transform="translate(0.163 0.163)" fill-rule="evenodd" fill="url(#linear-gradient-5)"/>
                  <path id="路径_203-6" data-name="路径 203" d="M1.141.9H.163A.175.175,0,0,1,0,.734V.163A.175.175,0,0,1,.163,0h.978A.175.175,0,0,1,1.3.163V.734A.149.149,0,0,1,1.141.9Z" transform="translate(0.245 0.245)" fill="#666" fill-rule="evenodd"/>
                  <path id="路径_204-6" data-name="路径 204" d="M1.141,1.712H.163A.175.175,0,0,1,0,1.549V.163A.175.175,0,0,1,.163,0h.978A.175.175,0,0,1,1.3.163V1.549A.175.175,0,0,1,1.141,1.712Z" transform="translate(0.245 1.264)" fill="#898989" fill-rule="evenodd"/>
                  <path id="路径_205-6" data-name="路径 205" d="M1.141.489H.163A.175.175,0,0,1,0,.326V.163A.175.175,0,0,1,.163,0h.978A.175.175,0,0,1,1.3.163V.326A.175.175,0,0,1,1.141.489Z" transform="translate(0.245 3.098)" fill="#c5c5c5" fill-rule="evenodd"/>
                </g>
                <g id="组_271-2" data-name="组 271" transform="translate(0 12.411)">
                  <rect id="矩形_57-7" data-name="矩形 57" width="1.264" height="2.242" transform="translate(1.019 0.774)"/>
                  <rect id="矩形_58-7" data-name="矩形 58" width="0.897" height="1.916" transform="translate(1.182 0.978)" fill="url(#linear-gradient-4)"/>
                  <path id="路径_201-7" data-name="路径 201" d="M.367,3.831h1.1a.365.365,0,0,0,.367-.367V.367A.365.365,0,0,0,1.467,0H.367A.365.365,0,0,0,0,.367v3.1A.365.365,0,0,0,.367,3.831Z" transform="translate(0)" fill-rule="evenodd"/>
                  <path id="路径_202-7" data-name="路径 202" d="M.2,3.505H1.3a.193.193,0,0,0,.2-.2V.2A.193.193,0,0,0,1.3,0H.2A.193.193,0,0,0,0,.2V3.3C.041,3.383.122,3.505.2,3.505Z" transform="translate(0.163 0.163)" fill-rule="evenodd" fill="url(#linear-gradient-5)"/>
                  <path id="路径_203-7" data-name="路径 203" d="M1.141.9H.163A.175.175,0,0,1,0,.734V.163A.175.175,0,0,1,.163,0h.978A.175.175,0,0,1,1.3.163V.734A.149.149,0,0,1,1.141.9Z" transform="translate(0.245 0.245)" fill="#666" fill-rule="evenodd"/>
                  <path id="路径_204-7" data-name="路径 204" d="M1.141,1.712H.163A.175.175,0,0,1,0,1.549V.163A.175.175,0,0,1,.163,0h.978A.175.175,0,0,1,1.3.163V1.549A.175.175,0,0,1,1.141,1.712Z" transform="translate(0.245 1.264)" fill="#898989" fill-rule="evenodd"/>
                  <path id="路径_205-7" data-name="路径 205" d="M1.141.489H.163A.175.175,0,0,1,0,.326V.163A.175.175,0,0,1,.163,0h.978A.175.175,0,0,1,1.3.163V.326A.175.175,0,0,1,1.141.489Z" transform="translate(0.245 3.098)" fill="#c5c5c5" fill-rule="evenodd"/>
                </g>
                <g id="组_272-2" data-name="组 272" transform="translate(0 2.221)">
                  <rect id="矩形_57-8" data-name="矩形 57" width="1.264" height="2.242" transform="translate(1.019 0.774)"/>
                  <rect id="矩形_58-8" data-name="矩形 58" width="0.897" height="1.916" transform="translate(1.182 0.978)" fill="url(#linear-gradient-4)"/>
                  <path id="路径_201-8" data-name="路径 201" d="M.367,3.831h1.1a.365.365,0,0,0,.367-.367V.367A.365.365,0,0,0,1.467,0H.367A.365.365,0,0,0,0,.367v3.1A.365.365,0,0,0,.367,3.831Z" transform="translate(0)" fill-rule="evenodd"/>
                  <path id="路径_202-8" data-name="路径 202" d="M.2,3.505H1.3a.193.193,0,0,0,.2-.2V.2A.193.193,0,0,0,1.3,0H.2A.193.193,0,0,0,0,.2V3.3C.041,3.383.122,3.505.2,3.505Z" transform="translate(0.163 0.163)" fill-rule="evenodd" fill="url(#linear-gradient-5)"/>
                  <path id="路径_203-8" data-name="路径 203" d="M1.141.9H.163A.175.175,0,0,1,0,.734V.163A.175.175,0,0,1,.163,0h.978A.175.175,0,0,1,1.3.163V.734A.149.149,0,0,1,1.141.9Z" transform="translate(0.245 0.245)" fill="#666" fill-rule="evenodd"/>
                  <path id="路径_204-8" data-name="路径 204" d="M1.141,1.712H.163A.175.175,0,0,1,0,1.549V.163A.175.175,0,0,1,.163,0h.978A.175.175,0,0,1,1.3.163V1.549A.175.175,0,0,1,1.141,1.712Z" transform="translate(0.245 1.264)" fill="#898989" fill-rule="evenodd"/>
                  <path id="路径_205-8" data-name="路径 205" d="M1.141.489H.163A.175.175,0,0,1,0,.326V.163A.175.175,0,0,1,.163,0h.978A.175.175,0,0,1,1.3.163V.326A.175.175,0,0,1,1.141.489Z" transform="translate(0.245 3.098)" fill="#c5c5c5" fill-rule="evenodd"/>
                </g>
              </g>
            </g>
            <g id="减去_26" data-name="减去 26" transform="translate(20.379 0)" fill="url(#linear-gradient-21)">
              <path d="M 15.48826217651367 42.13893508911133 C 12.69303226470947 42.13893508911133 9.908882141113281 41.6407470703125 7.213142395019531 40.65820693969727 C 4.821677684783936 39.78662109375 2.479473829269409 38.52580642700195 0.2500021755695343 36.91019058227539 L 0.2500021755695343 5.478723049163818 C 2.479645729064941 3.862950801849365 4.821578502655029 2.602334499359131 7.213142395019531 1.730725646018982 C 9.908862113952637 0.7481856346130371 12.69301223754883 0.2500056326389313 15.48826217651367 0.2500056326389313 C 18.18098258972168 0.2500056326389313 20.86535263061523 0.7124856114387512 23.46679306030273 1.624585628509521 C 25.96414947509766 2.500287294387817 28.40605163574219 3.796726703643799 30.72652244567871 5.478677749633789 L 30.72652244567871 36.91025543212891 C 28.40541076660156 38.59269332885742 25.96349906921387 39.88913726806641 23.46681213378906 40.76433563232422 C 20.86534309387207 41.67645645141602 18.18097305297852 42.13893508911133 15.48826217651367 42.13893508911133 Z" stroke="none"/>
              <path d="M 15.48826217651367 41.88893508911133 C 18.15273284912109 41.88893508911133 20.80927276611328 41.43119430541992 23.38411140441895 40.52840423583984 C 25.82103157043457 39.67416381835938 28.20587348937988 38.41445159912109 30.47652244567871 36.78238677978516 L 30.47652244567871 5.606545448303223 C 28.20648574829102 3.974939584732056 25.8216609954834 2.715244054794312 23.38408279418945 1.8605055809021 C 20.80928230285645 0.9577456116676331 18.15274238586426 0.5000056624412537 15.48826217651367 0.5000056624412537 C 12.72230243682861 0.5000056624412537 9.966952323913574 0.9931056499481201 7.298742294311523 1.965605616569519 C 4.965942859649658 2.815808057785034 2.679751396179199 4.040279388427734 0.5000022053718567 5.606611251831055 L 0.5000022053718567 36.78230285644531 C 2.679705858230591 38.34862518310547 4.96589469909668 39.57309341430664 7.298752307891846 40.42331695556641 C 9.966972351074219 41.39582443237305 12.72232246398926 41.88893508911133 15.48826217651367 41.88893508911133 M 15.48826217651367 42.38893508911133 C 12.66374206542969 42.38893508911133 9.85078239440918 41.88565444946289 7.127532005310059 40.89308547973633 C 4.677242279052734 40.00006484985352 2.279192209243774 38.70284652709961 2.176513589802198e-06 37.03745651245117 L 2.176513589802198e-06 5.351455688476563 C 2.279482126235962 3.685875654220581 4.677482128143311 2.388765573501587 7.127532005310059 1.495835661888123 C 9.850791931152344 0.5032656192779541 12.66375255584717 5.637206868414069e-06 15.48826217651367 5.637206868414069e-06 C 18.2092113494873 5.637206868414069e-06 20.92141151428223 0.4672156274318695 23.54951286315918 1.388665676116943 C 26.10684204101563 2.285395622253418 28.60565185546875 3.618655681610107 30.97652244567871 5.351425647735596 L 30.97652244567871 37.03750610351563 C 28.60471153259277 38.77097702026367 26.1059513092041 40.1041145324707 23.54951286315918 41.0002555847168 C 20.92141151428223 41.92171478271484 18.2092113494873 42.38893508911133 15.48826217651367 42.38893508911133 Z" stroke="none"/>
            </g>
          </g>
        </g>
        <g id="组_1687" data-name="组 1687" transform="translate(19.025 4.496)">
          <g id="组_1667" data-name="组 1667" transform="translate(0 0)">
            <path id="路径_1022" data-name="路径 1022" d="M239.916,287.648a16.651,16.651,0,1,1-10.966,20.975A16.711,16.711,0,0,1,239.916,287.648Z" transform="translate(-228.136 -286.855)" fill="#231815" fill-rule="evenodd"/>
            <path id="路径_1023" data-name="路径 1023" d="M239.9,287.948A16.382,16.382,0,1,1,229.147,308.6,16.466,16.466,0,0,1,239.9,287.948Z" transform="translate(-228.121 -286.835)" fill-rule="evenodd" fill="url(#radial-gradient)"/>
            <path id="路径_1024" data-name="路径 1024" d="M240.327,289.543a14.632,14.632,0,1,1-9.689,18.419A14.729,14.729,0,0,1,240.327,289.543Z" transform="translate(-228.015 -286.726)" fill="#231815" fill-rule="evenodd"/>
            <path id="路径_1025" data-name="路径 1025" d="M240.418,289.743a14.362,14.362,0,1,1-9.476,18.1A14.44,14.44,0,0,1,240.418,289.743Z" transform="translate(-227.999 -286.713)" fill-rule="evenodd" fill="url(#radial-gradient-2)"/>
            <path id="路径_1026" data-name="路径 1026" d="M242.027,312.865,235,305.731l2.662-9.582,9.689-2.449,7.027,7.134-2.662,9.582h-.106c-3.088.745-6.282,1.6-9.369,2.342Z" transform="translate(-227.692 -286.412)" fill="#231815" fill-rule="evenodd"/>
            <path id="路径_1027" data-name="路径 1027" d="M242.014,312.526l-6.814-6.921,2.555-9.263L247.125,294l6.814,6.921-2.555,9.263C247.87,311.142,245.741,311.674,242.014,312.526Z" transform="translate(-227.679 -286.392)" fill-rule="evenodd" fill="url(#radial-gradient-3)"/>
          </g>
          <g id="组_1672" data-name="组 1672" transform="translate(18.808 25.955)">
            <g id="组_196" data-name="组 196">
              <g id="组_195" data-name="组 195">
                <g transform="matrix(1, 0, 0, 1, -37.83, -45.45)" filter="url(#路径_872)">
                  <path id="路径_872-7" data-name="路径 872" d="M358.723,314.972l-1.387,1.35-1.861-.511L355,313.95l1.387-1.35,1.861.511v.036c.146.584.328,1.168.474,1.825Z" transform="translate(-317.17 -267.15)" fill-rule="evenodd"/>
                </g>
                <path id="路径_873" data-name="路径 873" d="M358.931,315.226l-1.277,1.277-1.715-.474-.438-1.752L356.778,313l1.715.474v.036c.146.584.292,1.131.438,1.715Z" transform="translate(-355.318 -312.854)" fill-rule="evenodd" fill="url(#linear-gradient-22)"/>
                <path id="路径_874" data-name="路径 874" d="M358.921,315.353l-1.241,1.2L356,316.083l-.4-1.679,1.241-1.2,1.679.474C358.666,314.295,358.775,314.7,358.921,315.353Z" transform="translate(-355.381 -312.981)" fill-rule="evenodd" fill="url(#linear-gradient-23)"/>
                <path id="路径_875" data-name="路径 875" d="M356.756,314.137a1.454,1.454,0,1,1-.219,2.044A1.452,1.452,0,0,1,356.756,314.137Z" transform="translate(-355.77 -313.37)" fill-rule="evenodd" fill="url(#linear-gradient-24)"/>
              </g>
              <path id="路径_876" data-name="路径 876" d="M358.7,315.5a.8.8,0,1,0,.8.8A.81.81,0,0,0,358.7,315.5Z" transform="translate(-356.841 -314.442)" fill-rule="evenodd"/>
            </g>
            <path id="路径_877" data-name="路径 877" d="M358.957,315.8a.663.663,0,0,0-.657.693.675.675,0,1,0,1.35,0A.746.746,0,0,0,358.957,315.8Z" transform="translate(-357.096 -314.632)" fill-rule="evenodd" fill="url(#radial-gradient-4)"/>
            <path id="路径_878" data-name="路径 878" d="M358.992,316.369c-.219.146-.109.328.109.182C359.357,316.369,359.211,316.186,358.992,316.369Z" transform="translate(-357.459 -314.945)" fill="#fff" fill-rule="evenodd"/>
          </g>
          <g id="组_1674" data-name="组 1674" transform="translate(6.688 23.016)">
            <g id="组_196-2" data-name="组 196">
              <g id="组_195-2" data-name="组 195">
                <g transform="matrix(1, 0, 0, 1, -25.71, -42.51)" filter="url(#路径_872-2)">
                  <path id="路径_872-8" data-name="路径 872" d="M358.723,314.972l-1.387,1.35-1.861-.511L355,313.95l1.387-1.35,1.861.511v.036c.146.584.328,1.168.474,1.825Z" transform="translate(-329.29 -270.09)" fill-rule="evenodd"/>
                </g>
                <path id="路径_873-2" data-name="路径 873" d="M358.931,315.226l-1.277,1.277-1.715-.474-.438-1.752L356.778,313l1.715.474v.036c.146.584.292,1.131.438,1.715Z" transform="translate(-355.318 -312.854)" fill-rule="evenodd" fill="url(#linear-gradient-22)"/>
                <path id="路径_874-2" data-name="路径 874" d="M358.921,315.353l-1.241,1.2L356,316.083l-.4-1.679,1.241-1.2,1.679.474C358.666,314.295,358.775,314.7,358.921,315.353Z" transform="translate(-355.381 -312.981)" fill-rule="evenodd" fill="url(#linear-gradient-23)"/>
                <path id="路径_875-2" data-name="路径 875" d="M356.756,314.137a1.454,1.454,0,1,1-.219,2.044A1.452,1.452,0,0,1,356.756,314.137Z" transform="translate(-355.77 -313.37)" fill-rule="evenodd" fill="url(#linear-gradient-24)"/>
              </g>
              <path id="路径_876-2" data-name="路径 876" d="M358.7,315.5a.8.8,0,1,0,.8.8A.81.81,0,0,0,358.7,315.5Z" transform="translate(-356.841 -314.442)" fill-rule="evenodd"/>
            </g>
            <path id="路径_877-2" data-name="路径 877" d="M358.957,315.8a.663.663,0,0,0-.657.693.675.675,0,1,0,1.35,0A.746.746,0,0,0,358.957,315.8Z" transform="translate(-357.096 -314.632)" fill-rule="evenodd" fill="url(#radial-gradient-4)"/>
            <path id="路径_878-2" data-name="路径 878" d="M358.992,316.369c-.219.146-.109.328.109.182C359.357,316.369,359.211,316.186,358.992,316.369Z" transform="translate(-357.459 -314.945)" fill="#fff" fill-rule="evenodd"/>
          </g>
          <g id="组_1675" data-name="组 1675" transform="translate(4.117 11.631)">
            <g id="组_196-3" data-name="组 196">
              <g id="组_195-3" data-name="组 195">
                <g transform="matrix(1, 0, 0, 1, -23.14, -31.13)" filter="url(#路径_872-3)">
                  <path id="路径_872-9" data-name="路径 872" d="M358.723,314.972l-1.387,1.35-1.861-.511L355,313.95l1.387-1.35,1.861.511v.036c.146.584.328,1.168.474,1.825Z" transform="translate(-331.86 -281.47)" fill-rule="evenodd"/>
                </g>
                <path id="路径_873-3" data-name="路径 873" d="M358.931,315.226l-1.277,1.277-1.715-.474-.438-1.752L356.778,313l1.715.474v.036c.146.584.292,1.131.438,1.715Z" transform="translate(-355.318 -312.854)" fill-rule="evenodd" fill="url(#linear-gradient-22)"/>
                <path id="路径_874-3" data-name="路径 874" d="M358.921,315.353l-1.241,1.2L356,316.083l-.4-1.679,1.241-1.2,1.679.474C358.666,314.295,358.775,314.7,358.921,315.353Z" transform="translate(-355.381 -312.981)" fill-rule="evenodd" fill="url(#linear-gradient-23)"/>
                <path id="路径_875-3" data-name="路径 875" d="M356.756,314.137a1.454,1.454,0,1,1-.219,2.044A1.452,1.452,0,0,1,356.756,314.137Z" transform="translate(-355.77 -313.37)" fill-rule="evenodd" fill="url(#linear-gradient-24)"/>
              </g>
              <path id="路径_876-3" data-name="路径 876" d="M358.7,315.5a.8.8,0,1,0,.8.8A.81.81,0,0,0,358.7,315.5Z" transform="translate(-356.841 -314.442)" fill-rule="evenodd"/>
            </g>
            <path id="路径_877-3" data-name="路径 877" d="M358.957,315.8a.663.663,0,0,0-.657.693.675.675,0,1,0,1.35,0A.746.746,0,0,0,358.957,315.8Z" transform="translate(-357.096 -314.632)" fill-rule="evenodd" fill="url(#radial-gradient-4)"/>
            <path id="路径_878-3" data-name="路径 878" d="M358.992,316.369c-.219.146-.109.328.109.182C359.357,316.369,359.211,316.186,358.992,316.369Z" transform="translate(-357.459 -314.945)" fill="#fff" fill-rule="evenodd"/>
          </g>
          <g id="组_1678" data-name="组 1678" transform="translate(26.521 18.242)">
            <g id="组_196-4" data-name="组 196">
              <g id="组_195-4" data-name="组 195">
                <g transform="matrix(1, 0, 0, 1, -45.55, -37.74)" filter="url(#路径_872-4)">
                  <path id="路径_872-10" data-name="路径 872" d="M358.723,314.972l-1.387,1.35-1.861-.511L355,313.95l1.387-1.35,1.861.511v.036c.146.584.328,1.168.474,1.825Z" transform="translate(-309.45 -274.86)" fill-rule="evenodd"/>
                </g>
                <path id="路径_873-4" data-name="路径 873" d="M358.931,315.226l-1.277,1.277-1.715-.474-.438-1.752L356.778,313l1.715.474v.036c.146.584.292,1.131.438,1.715Z" transform="translate(-355.318 -312.854)" fill-rule="evenodd" fill="url(#linear-gradient-22)"/>
                <path id="路径_874-4" data-name="路径 874" d="M358.921,315.353l-1.241,1.2L356,316.083l-.4-1.679,1.241-1.2,1.679.474C358.666,314.295,358.775,314.7,358.921,315.353Z" transform="translate(-355.381 -312.981)" fill-rule="evenodd" fill="url(#linear-gradient-23)"/>
                <path id="路径_875-4" data-name="路径 875" d="M356.756,314.137a1.454,1.454,0,1,1-.219,2.044A1.452,1.452,0,0,1,356.756,314.137Z" transform="translate(-355.77 -313.37)" fill-rule="evenodd" fill="url(#linear-gradient-24)"/>
              </g>
              <path id="路径_876-4" data-name="路径 876" d="M358.7,315.5a.8.8,0,1,0,.8.8A.81.81,0,0,0,358.7,315.5Z" transform="translate(-356.841 -314.442)" fill-rule="evenodd"/>
            </g>
            <path id="路径_877-4" data-name="路径 877" d="M358.957,315.8a.663.663,0,0,0-.657.693.675.675,0,1,0,1.35,0A.746.746,0,0,0,358.957,315.8Z" transform="translate(-357.096 -314.632)" fill-rule="evenodd" fill="url(#radial-gradient-4)"/>
            <path id="路径_878-4" data-name="路径 878" d="M358.992,316.369c-.219.146-.109.328.109.182C359.357,316.369,359.211,316.186,358.992,316.369Z" transform="translate(-357.459 -314.945)" fill="#fff" fill-rule="evenodd"/>
          </g>
          <g id="组_1677" data-name="组 1677" transform="translate(23.95 6.856)">
            <g id="组_196-5" data-name="组 196">
              <g id="组_195-5" data-name="组 195">
                <g transform="matrix(1, 0, 0, 1, -42.98, -26.35)" filter="url(#路径_872-5)">
                  <path id="路径_872-11" data-name="路径 872" d="M358.723,314.972l-1.387,1.35-1.861-.511L355,313.95l1.387-1.35,1.861.511v.036c.146.584.328,1.168.474,1.825Z" transform="translate(-312.02 -286.25)" fill-rule="evenodd"/>
                </g>
                <path id="路径_873-5" data-name="路径 873" d="M358.931,315.226l-1.277,1.277-1.715-.474-.438-1.752L356.778,313l1.715.474v.036c.146.584.292,1.131.438,1.715Z" transform="translate(-355.318 -312.854)" fill-rule="evenodd" fill="url(#linear-gradient-22)"/>
                <path id="路径_874-5" data-name="路径 874" d="M358.921,315.353l-1.241,1.2L356,316.083l-.4-1.679,1.241-1.2,1.679.474C358.666,314.295,358.775,314.7,358.921,315.353Z" transform="translate(-355.381 -312.981)" fill-rule="evenodd" fill="url(#linear-gradient-23)"/>
                <path id="路径_875-5" data-name="路径 875" d="M356.756,314.137a1.454,1.454,0,1,1-.219,2.044A1.452,1.452,0,0,1,356.756,314.137Z" transform="translate(-355.77 -313.37)" fill-rule="evenodd" fill="url(#linear-gradient-24)"/>
              </g>
              <path id="路径_876-5" data-name="路径 876" d="M358.7,315.5a.8.8,0,1,0,.8.8A.81.81,0,0,0,358.7,315.5Z" transform="translate(-356.841 -314.442)" fill-rule="evenodd"/>
            </g>
            <path id="路径_877-5" data-name="路径 877" d="M358.957,315.8a.663.663,0,0,0-.657.693.675.675,0,1,0,1.35,0A.746.746,0,0,0,358.957,315.8Z" transform="translate(-357.096 -314.632)" fill-rule="evenodd" fill="url(#radial-gradient-4)"/>
            <path id="路径_878-5" data-name="路径 878" d="M358.992,316.369c-.219.146-.109.328.109.182C359.357,316.369,359.211,316.186,358.992,316.369Z" transform="translate(-357.459 -314.945)" fill="#fff" fill-rule="evenodd"/>
          </g>
          <g id="组_1676" data-name="组 1676" transform="translate(11.83 3.551)">
            <g id="组_196-6" data-name="组 196">
              <g id="组_195-6" data-name="组 195">
                <g transform="matrix(1, 0, 0, 1, -30.86, -23.05)" filter="url(#路径_872-6)">
                  <path id="路径_872-12" data-name="路径 872" d="M358.723,314.972l-1.387,1.35-1.861-.511L355,313.95l1.387-1.35,1.861.511v.036c.146.584.328,1.168.474,1.825Z" transform="translate(-324.14 -289.55)" fill-rule="evenodd"/>
                </g>
                <path id="路径_873-6" data-name="路径 873" d="M358.931,315.226l-1.277,1.277-1.715-.474-.438-1.752L356.778,313l1.715.474v.036c.146.584.292,1.131.438,1.715Z" transform="translate(-355.318 -312.854)" fill-rule="evenodd" fill="url(#linear-gradient-22)"/>
                <path id="路径_874-6" data-name="路径 874" d="M358.921,315.353l-1.241,1.2L356,316.083l-.4-1.679,1.241-1.2,1.679.474C358.666,314.295,358.775,314.7,358.921,315.353Z" transform="translate(-355.381 -312.981)" fill-rule="evenodd" fill="url(#linear-gradient-23)"/>
                <path id="路径_875-6" data-name="路径 875" d="M356.756,314.137a1.454,1.454,0,1,1-.219,2.044A1.452,1.452,0,0,1,356.756,314.137Z" transform="translate(-355.77 -313.37)" fill-rule="evenodd" fill="url(#linear-gradient-24)"/>
              </g>
              <path id="路径_876-6" data-name="路径 876" d="M358.7,315.5a.8.8,0,1,0,.8.8A.81.81,0,0,0,358.7,315.5Z" transform="translate(-356.841 -314.442)" fill-rule="evenodd"/>
            </g>
            <path id="路径_877-6" data-name="路径 877" d="M358.957,315.8a.663.663,0,0,0-.657.693.675.675,0,1,0,1.35,0A.746.746,0,0,0,358.957,315.8Z" transform="translate(-357.096 -314.632)" fill-rule="evenodd" fill="url(#radial-gradient-4)"/>
            <path id="路径_878-6" data-name="路径 878" d="M358.992,316.369c-.219.146-.109.328.109.182C359.357,316.369,359.211,316.186,358.992,316.369Z" transform="translate(-357.459 -314.945)" fill="#fff" fill-rule="evenodd"/>
          </g>
        </g>
        <g id="组_876" data-name="组 876" transform="translate(16.24 1.387)">
          <g id="组_194" data-name="组 194" transform="translate(0 0)">
            <path id="路径_847" data-name="路径 847" d="M356.746,307.973a5.273,5.273,0,0,1,3.1,1.628,9.348,9.348,0,0,1,4.185-2.713,10.8,10.8,0,0,1,6.433.465h.077v.077c.155.388.233.775.388,1.24.155.388.233.775.388,1.24l.078.31-.31-.078a11.725,11.725,0,0,0-6.278-.7,7.9,7.9,0,0,0-3.875,2.248,5.175,5.175,0,0,1-.465,3.875,9.352,9.352,0,0,1,3.565,2.945,10.236,10.236,0,0,1,1.473,6.278v.077l-.078.078c-.31.232-.7.465-1.008.7s-.7.465-1.008.7l-.232.155v-.31a11.939,11.939,0,0,0-1.318-6.2,7.115,7.115,0,0,0-2.945-2.713,4.712,4.712,0,0,1-1.4.7,4.906,4.906,0,0,1-2.79.077,9.242,9.242,0,0,1-1.628,4.03,10.624,10.624,0,0,1-5.5,3.333h-.078l-.078-.077c-.31-.233-.7-.543-1.008-.775s-.7-.543-1.008-.775l-.233-.155.31-.078a11.6,11.6,0,0,0,5.5-3.178,8.173,8.173,0,0,0,1.705-3.488,5.357,5.357,0,0,1-1.55-2.325,5.9,5.9,0,0,1-.232-1.628,9.14,9.14,0,0,1-4.573-.31,10.626,10.626,0,0,1-4.883-4.185l-.077-.077v-.078c.155-.388.233-.775.388-1.163a6.821,6.821,0,0,0,.388-1.163l.078-.31.155.233a12.482,12.482,0,0,0,4.728,4.263,7.581,7.581,0,0,0,4.34.465,5.211,5.211,0,0,1,2.945-2.48,9.261,9.261,0,0,1-1.318-4.883,11,11,0,0,1,2.48-5.968l.077-.078h2.868l-.155.233a11.912,11.912,0,0,0-2.558,5.813A7.182,7.182,0,0,0,356.746,307.973Z" transform="translate(-336.541 -293.548)" fill-rule="evenodd"/>
            <path id="路径_848" data-name="路径 848" d="M355.318,296A16.819,16.819,0,1,1,338.5,312.819,16.8,16.8,0,0,1,355.318,296Zm14.726,16.819a14.8,14.8,0,1,0-14.8,14.8A14.8,14.8,0,0,0,370.044,312.819Z" transform="translate(-335.889 -293.278)" fill-rule="evenodd"/>
            <path id="路径_849" data-name="路径 849" d="M358.958,297.5h2.48a12.879,12.879,0,0,0-2.635,5.89,9.683,9.683,0,0,0,1.783,5.89h-2.17a11.206,11.206,0,0,1-2.015-5.89A11.838,11.838,0,0,1,358.958,297.5Z" transform="translate(-339.915 -293.615)" fill="#870000" fill-rule="evenodd"/>
            <path id="路径_850" data-name="路径 850" d="M359.4,297.6h1.86a11.956,11.956,0,0,0-2.558,5.89,9.683,9.683,0,0,0,1.783,5.89h-1.55A10.451,10.451,0,0,1,357,303.49,11.005,11.005,0,0,1,359.4,297.6Z" transform="translate(-340.049 -293.638)" fill="#a73917" fill-rule="evenodd"/>
            <path id="路径_851" data-name="路径 851" d="M360.256,297.6h.465a11.957,11.957,0,0,0-2.558,5.89,9.787,9.787,0,0,0,1.86,5.89h-.388a10.452,10.452,0,0,1-1.938-5.89A11.294,11.294,0,0,1,360.256,297.6Z" transform="translate(-340.206 -293.638)" fill="#dea887" fill-rule="evenodd"/>
            <path id="路径_852" data-name="路径 852" d="M341.4,311.025a31124.105,31124.105,0,0,1,.775-2.325,12.2,12.2,0,0,0,4.728,4.263,9.634,9.634,0,0,0,6.123.155c-.077.31-.233.7-.31,1.008s-.233.7-.31,1.008a8.817,8.817,0,0,1-11.006-4.108Z" transform="translate(-336.541 -296.135)" fill="#870000" fill-rule="evenodd"/>
            <path id="路径_853" data-name="路径 853" d="M341.5,310.805a3.777,3.777,0,0,1,.31-.853c.078-.31.232-.543.31-.853a11.866,11.866,0,0,0,4.805,4.263,9.16,9.16,0,0,0,6.123.077l-.232.7-.233.7a10.584,10.584,0,0,1-6.2.078C344.523,314.293,342.973,312.743,341.5,310.805Z" transform="translate(-336.564 -296.224)" fill="#a73917" fill-rule="evenodd"/>
            <path id="路径_854" data-name="路径 854" d="M341.8,310.365c.077-.155.077-.31.155-.465a11.112,11.112,0,0,0,4.805,4.185,10.51,10.51,0,0,0,6.2.078c-.077.155-.077.232-.155.387a9.952,9.952,0,0,1-6.2,0A11.113,11.113,0,0,1,341.8,310.365Z" transform="translate(-336.631 -296.404)" fill="#dea887" fill-rule="evenodd"/>
            <path id="路径_855" data-name="路径 855" d="M348.615,330.441c-.31-.233-.7-.543-1.008-.775s-.7-.543-1.008-.775a12.6,12.6,0,0,0,5.58-3.178A9.393,9.393,0,0,0,354.2,319.9c.31.233.543.388.853.62a8.125,8.125,0,0,1,.853.62,10.691,10.691,0,0,1-1.86,5.968A10.334,10.334,0,0,1,348.615,330.441Z" transform="translate(-337.711 -298.654)" fill="#870000" fill-rule="evenodd"/>
            <path id="路径_856" data-name="路径 856" d="M348.4,330.253c-.233-.155-.465-.388-.7-.542s-.465-.388-.7-.543c2.325-.775,4.263-1.705,5.5-3.255a9.392,9.392,0,0,0,2.015-5.813c.233.155.388.31.62.465s.388.31.62.465a10.847,10.847,0,0,1-1.86,5.89A10.39,10.39,0,0,1,348.4,330.253Z" transform="translate(-337.801 -298.699)" fill="#a73917" fill-rule="evenodd"/>
            <path id="路径_857" data-name="路径 857" d="M348.088,329.956a1.362,1.362,0,0,1-.388-.31,10.8,10.8,0,0,0,5.5-3.255,10.285,10.285,0,0,0,1.938-5.89c.078.077.232.155.31.232a10.285,10.285,0,0,1-1.938,5.89A10.467,10.467,0,0,1,348.088,329.956Z" transform="translate(-337.958 -298.789)" fill="#dea887" fill-rule="evenodd"/>
            <path id="路径_858" data-name="路径 858" d="M370.016,329.943c-.31.232-.7.465-1.008.7s-.7.465-1.008.7a12.32,12.32,0,0,0-1.318-6.278,9.321,9.321,0,0,0-4.883-3.72,8.121,8.121,0,0,0,.853-.62c.31-.232.543-.388.853-.62a10.9,10.9,0,0,1,5.115,3.565A12.14,12.14,0,0,1,370.016,329.943Z" transform="translate(-341.13 -298.699)" fill="#870000" fill-rule="evenodd"/>
            <path id="路径_859" data-name="路径 859" d="M369.751,330.243a20839.7,20839.7,0,0,0-1.4,1.085,11.586,11.586,0,0,0-1.4-6.278,9.525,9.525,0,0,0-4.96-3.72c.233-.155.388-.31.62-.465s.388-.31.62-.465a10.406,10.406,0,0,1,5.038,3.643A10.994,10.994,0,0,1,369.751,330.243Z" transform="translate(-341.175 -298.766)" fill="#a73917" fill-rule="evenodd"/>
            <path id="路径_860" data-name="路径 860" d="M369.343,330.643c-.155.078-.233.155-.388.232a11.148,11.148,0,0,0-1.4-6.2,10.178,10.178,0,0,0-4.96-3.643c.077-.078.232-.155.31-.233a10.4,10.4,0,0,1,5.038,3.643A12.03,12.03,0,0,1,369.343,330.643Z" transform="translate(-341.31 -298.856)" fill="#dea887" fill-rule="evenodd"/>
            <path id="路径_861" data-name="路径 861" d="M375.538,310.363c.155.388.233.775.387,1.24.155.388.233.775.388,1.24a12.326,12.326,0,0,0-6.355-.7,9.519,9.519,0,0,0-5.038,3.488c-.078-.31-.232-.7-.31-1.008s-.233-.7-.31-1.008a10.667,10.667,0,0,1,4.96-3.72A9.439,9.439,0,0,1,375.538,310.363Z" transform="translate(-341.692 -296.325)" fill="#870000" fill-rule="evenodd"/>
            <path id="路径_862" data-name="路径 862" d="M375.693,310.769c.078.31.155.543.232.853s.155.543.233.853a11.486,11.486,0,0,0-6.355-.62,9.679,9.679,0,0,0-5.038,3.565l-.233-.7-.233-.7a10.484,10.484,0,0,1,5.038-3.72A10.184,10.184,0,0,1,375.693,310.769Z" transform="translate(-341.692 -296.421)" fill="#a73917" fill-rule="evenodd"/>
            <path id="路径_863" data-name="路径 863" d="M375.893,311.557c.078.155.078.31.155.465a11.544,11.544,0,0,0-6.355-.62,9.679,9.679,0,0,0-5.038,3.565c-.078-.155-.078-.232-.155-.388a10.308,10.308,0,0,1,5.038-3.643A11.544,11.544,0,0,1,375.893,311.557Z" transform="translate(-341.737 -296.588)" fill="#dea887" fill-rule="evenodd"/>
            <path id="路径_864" data-name="路径 864" d="M357.185,311.53a4.964,4.964,0,1,1-3.255,6.278A5.01,5.01,0,0,1,357.185,311.53Z" transform="translate(-339.305 -296.716)" fill-rule="evenodd" fill="url(#radial-gradient-10)"/>
            <path id="路径_865" data-name="路径 865" d="M362.433,312.7a5,5,0,0,1-1.705,8.6,4.9,4.9,0,0,1-4.728-.93C359.875,322.7,364.138,316.343,362.433,312.7Z" transform="translate(-339.825 -297.034)" fill-rule="evenodd" fill="url(#radial-gradient-11)"/>
            <path id="路径_866" data-name="路径 866" d="M357.734,320.3a4.229,4.229,0,1,0-2.79-5.348A4.289,4.289,0,0,0,357.734,320.3Z" transform="translate(-339.544 -296.888)" fill-rule="evenodd" fill="url(#linear-gradient-40)"/>
            <path id="路径_867" data-name="路径 867" d="M355.364,296.2A16.664,16.664,0,1,1,338.7,312.864,16.688,16.688,0,0,1,355.364,296.2Zm14.958,16.664A15.036,15.036,0,1,0,355.286,327.9,15.05,15.05,0,0,0,370.322,312.864Z" transform="translate(-335.934 -293.323)" fill="url(#radial-gradient-12)"/>
            <g id="组_193" data-name="组 193">
              <path id="路径_868" data-name="路径 868" d="M350.375,331.017a19.059,19.059,0,0,1-14.958-15.811,19.175,19.175,0,0,1,8.6-19.609c14.493-9.3,33.172,3.643,29.529,20.539a19.522,19.522,0,0,1-23.174,14.881Zm.775-3.488c13.718,2.945,24.337-12.246,16.741-24.027-7.6-11.858-25.887-8.526-28.832,5.193A15.785,15.785,0,0,0,351.15,327.529Z" transform="translate(-335.131 -292.487)" fill="#640000" fill-rule="evenodd"/>
              <path id="路径_869" data-name="路径 869" d="M350.375,331.063a19.062,19.062,0,0,1-14.958-15.733,19.4,19.4,0,0,1,1.163-10.7,19.67,19.67,0,0,1,7.44-8.836A19.391,19.391,0,0,1,365.1,328.351a19.719,19.719,0,0,1-14.726,2.713Zm.7-3.41a15.938,15.938,0,0,0,16.819-24.1c-7.6-11.858-25.887-8.6-28.909,5.193A15.961,15.961,0,0,0,351.073,327.653Z" transform="translate(-335.131 -292.533)" fill-rule="evenodd"/>
              <path id="路径_870" data-name="路径 870" d="M350.42,330.88a19.173,19.173,0,0,0,22.864-14.648c3.643-16.664-14.8-29.452-29.142-20.229a18.659,18.659,0,0,0-7.363,8.681,19.338,19.338,0,0,0,13.641,26.2Zm.7-3.023h0a16.155,16.155,0,0,1-12.323-19.144c3.023-13.951,21.624-17.284,29.3-5.27C375.842,315.456,365.069,330.88,351.118,327.857Z" transform="translate(-335.176 -292.583)" fill-rule="evenodd" fill="url(#radial-gradient-13)"/>
              <path id="路径_871" data-name="路径 871" d="M351.137,329.95a17.815,17.815,0,0,0,21.236-13.641c3.41-15.423-13.8-27.359-27.127-18.834-13.253,8.6-9.533,29.064,5.89,32.475Zm.077-.388h0a17.453,17.453,0,0,1-13.331-20.771c3.333-15.113,23.407-18.679,31.777-5.735C378.032,316.154,366.328,332.817,351.215,329.562Z" transform="translate(-335.583 -292.97)" fill="#dea887" fill-rule="evenodd"/>
            </g>
          </g>
          <g id="组_197" data-name="组 197" transform="translate(15.4 15.588)">
            <g id="组_196-7" data-name="组 196">
              <g id="组_195-7" data-name="组 195">
                <path id="路径_872-13" data-name="路径 872" d="M362.906,317.638l-2.945,2.868-3.953-1.085L355,315.468l2.945-2.868,3.953,1.085v.078c.31,1.24.7,2.48,1.008,3.875Z" transform="translate(-355 -312.6)" fill-rule="evenodd"/>
                <path id="路径_873-7" data-name="路径 873" d="M362.785,317.728l-2.713,2.713-3.643-1.008-.93-3.72L358.213,313l3.643,1.008v.078c.31,1.24.62,2.4.93,3.643Z" transform="translate(-355.112 -312.69)" fill-rule="evenodd" fill="url(#linear-gradient-22)"/>
                <path id="路径_874-7" data-name="路径 874" d="M362.653,317.773l-2.635,2.558-3.565-1.008-.853-3.565,2.635-2.558,3.565,1.008C362.11,315.525,362.343,316.378,362.653,317.773Z" transform="translate(-355.135 -312.735)" fill-rule="evenodd" fill="url(#linear-gradient-23)"/>
                <path id="路径_875-7" data-name="路径 875" d="M357.366,314.5a3.087,3.087,0,1,1-.465,4.34A3.084,3.084,0,0,1,357.366,314.5Z" transform="translate(-355.273 -312.873)" fill-rule="evenodd" fill="url(#linear-gradient-24)"/>
              </g>
              <path id="路径_876-7" data-name="路径 876" d="M359.605,315.5a1.705,1.705,0,1,0,1.705,1.705A1.72,1.72,0,0,0,359.605,315.5Z" transform="translate(-355.652 -313.252)" fill-rule="evenodd"/>
            </g>
            <path id="路径_877-7" data-name="路径 877" d="M359.7,315.8a1.408,1.408,0,0,0-1.4,1.473,1.434,1.434,0,1,0,2.868,0A1.583,1.583,0,0,0,359.7,315.8Z" transform="translate(-355.742 -313.32)" fill-rule="evenodd" fill="url(#radial-gradient-4)"/>
            <path id="路径_878-7" data-name="路径 878" d="M359.126,316.453c-.465.31-.232.7.233.388C359.9,316.453,359.591,316.066,359.126,316.453Z" transform="translate(-355.871 -313.431)" fill="#fff" fill-rule="evenodd"/>
          </g>
        </g>
      </g>
    </g>
  </g>
</svg>
