<svg id="_10" data-name="10" xmlns="http://www.w3.org/2000/svg" xmlns:xlink="http://www.w3.org/1999/xlink" width="72" height="72" viewBox="0 0 72 72">
  <defs>
    <linearGradient id="linear-gradient" x1="0.93" y1="0.5" x2="-0.097" y2="0.5" gradientUnits="objectBoundingBox">
      <stop offset="0" stop-color="#6a6a6a"/>
      <stop offset="0.17" stop-color="#adadad"/>
      <stop offset="0.35" stop-color="#ebebeb"/>
      <stop offset="0.48" stop-color="#f6f6f6"/>
      <stop offset="0.58" stop-color="#fefefe"/>
      <stop offset="0.71" stop-color="#b8b8b8"/>
      <stop offset="0.82" stop-color="#747474"/>
      <stop offset="1" stop-color="#d8d8d8"/>
    </linearGradient>
    <radialGradient id="radial-gradient" cx="0.99" cy="1" r="1.012" gradientTransform="translate(0)" gradientUnits="objectBoundingBox">
      <stop offset="0" stop-color="#6a6a6a"/>
      <stop offset="0.46" stop-color="#6f6f6f"/>
      <stop offset="0.58" stop-color="#aaa"/>
      <stop offset="0.67" stop-color="#ebebeb"/>
      <stop offset="0.72" stop-color="#f5f5f5"/>
      <stop offset="0.78" stop-color="#fff"/>
      <stop offset="0.87" stop-color="#b9b9b9"/>
      <stop offset="0.94" stop-color="#747474"/>
      <stop offset="1" stop-color="#c9c9c9"/>
    </radialGradient>
    <linearGradient id="linear-gradient-2" x1="0.93" y1="0.5" x2="-0.097" y2="0.5" gradientUnits="objectBoundingBox">
      <stop offset="0" stop-color="#717171"/>
      <stop offset="0.17" stop-color="#aaa"/>
      <stop offset="0.35" stop-color="#efefef"/>
      <stop offset="0.48" stop-color="#f7f7f7"/>
      <stop offset="0.58" stop-color="#fefefe"/>
      <stop offset="0.71" stop-color="#b6b6b6"/>
      <stop offset="0.82" stop-color="#717171"/>
      <stop offset="1" stop-color="#dfdfdf"/>
    </linearGradient>
    <linearGradient id="linear-gradient-4" x1="0.048" y1="0.5" x2="0.949" y2="0.5" gradientUnits="objectBoundingBox">
      <stop offset="0" stop-color="#231815"/>
      <stop offset="0.5" stop-color="#e8e9e9"/>
      <stop offset="0.78" stop-color="#9e9e9f"/>
      <stop offset="1" stop-color="#484545"/>
    </linearGradient>
    <linearGradient id="linear-gradient-5" x1="-0.072" y1="0.5" x2="1.615" y2="0.5" gradientUnits="objectBoundingBox">
      <stop offset="0" stop-color="#231815"/>
      <stop offset="0.38" stop-color="#9e9e9f"/>
      <stop offset="0.86" stop-color="#e8e9e9"/>
      <stop offset="1" stop-color="#484545"/>
    </linearGradient>
    <radialGradient id="radial-gradient-3" cx="0.162" cy="0.299" r="0.662" gradientTransform="translate(0.057) scale(0.887 1)" gradientUnits="objectBoundingBox">
      <stop offset="0" stop-color="#fff"/>
      <stop offset="1" stop-color="#9fa0a0"/>
    </radialGradient>
    <radialGradient id="radial-gradient-4" cx="0.159" cy="0.299" r="0.662" xlink:href="#radial-gradient-3"/>
    <linearGradient id="linear-gradient-8" x1="1.097" y1="0.525" x2="0.039" y2="0.525" gradientUnits="objectBoundingBox">
      <stop offset="0" stop-color="#191818"/>
      <stop offset="0.24" stop-color="#9d9d9e"/>
      <stop offset="0.51" stop-color="#f6f6f6"/>
      <stop offset="0.72" stop-color="#9d9d9e"/>
      <stop offset="1" stop-color="#4f4c4b"/>
    </linearGradient>
    <linearGradient id="linear-gradient-9" x1="1.059" y1="0.638" x2="0.006" y2="0.291" gradientUnits="objectBoundingBox">
      <stop offset="0"/>
      <stop offset="0.19" stop-color="#9fa0a0"/>
      <stop offset="0.4" stop-color="#e9eaea"/>
      <stop offset="0.68" stop-color="#9fa0a0"/>
      <stop offset="1" stop-color="#494645"/>
    </linearGradient>
    <linearGradient id="linear-gradient-10" x1="1.094" y1="0.492" x2="0.048" y2="0.492" xlink:href="#linear-gradient-8"/>
    <linearGradient id="linear-gradient-11" x1="0.723" y1="0.773" x2="0.122" y2="0.278" gradientUnits="objectBoundingBox">
      <stop offset="0" stop-color="#9fa0a0"/>
      <stop offset="1" stop-color="#fff"/>
    </linearGradient>
    <radialGradient id="radial-gradient-5" cx="0.161" cy="0.287" r="0.618" gradientTransform="translate(-0.064) scale(1.129 1)" xlink:href="#radial-gradient-3"/>
    <linearGradient id="linear-gradient-12" x1="0.276" y1="0.761" x2="0.879" y2="0.3" xlink:href="#linear-gradient-11"/>
    <radialGradient id="radial-gradient-6" cx="0.163" cy="0.289" r="0.623" gradientTransform="translate(-0.054) scale(1.107 1)" xlink:href="#radial-gradient-3"/>
    <radialGradient id="radial-gradient-7" cx="0.16" cy="0.289" r="0.612" gradientTransform="translate(-0.005) scale(1.01 1)" xlink:href="#radial-gradient-3"/>
    <linearGradient id="linear-gradient-15" x1="0.942" y1="0.5" x2="-0.133" y2="0.5" gradientUnits="objectBoundingBox">
      <stop offset="0" stop-color="#6d6d6d"/>
      <stop offset="0.21" stop-color="#b2b2b2"/>
      <stop offset="0.3" stop-color="#ebebeb"/>
      <stop offset="0.36" stop-color="#f9f9f9"/>
      <stop offset="0.5" stop-color="#fefefe"/>
      <stop offset="0.71" stop-color="#bbb"/>
      <stop offset="0.82" stop-color="#717171"/>
      <stop offset="1" stop-color="#d5d5d5"/>
    </linearGradient>
    <linearGradient id="linear-gradient-16" x1="0.501" y1="0.941" x2="0.501" y2="-0.134" gradientUnits="objectBoundingBox">
      <stop offset="0" stop-color="#6c6c6c"/>
      <stop offset="0.21" stop-color="#b1b1b1"/>
      <stop offset="0.3" stop-color="#ececec"/>
      <stop offset="0.36" stop-color="#f7f7f7"/>
      <stop offset="0.5" stop-color="#fefefe"/>
      <stop offset="0.71" stop-color="#bcbcbc"/>
      <stop offset="0.82" stop-color="#787878"/>
      <stop offset="1" stop-color="#d7d7d7"/>
    </linearGradient>
    <linearGradient id="linear-gradient-17" x1="0.494" y1="0.059" x2="0.494" y2="1.077" gradientUnits="objectBoundingBox">
      <stop offset="0" stop-color="#696969"/>
      <stop offset="0.17" stop-color="#afafaf"/>
      <stop offset="0.35" stop-color="#efefef"/>
      <stop offset="0.48" stop-color="#f8f8f8"/>
      <stop offset="0.58" stop-color="#fefefe"/>
      <stop offset="0.71" stop-color="#b7b7b7"/>
      <stop offset="0.82" stop-color="#737373"/>
      <stop offset="1" stop-color="#dcdcdc"/>
    </linearGradient>
    <linearGradient id="linear-gradient-18" x1="0.5" y1="0.071" x2="0.5" y2="1.091" gradientUnits="objectBoundingBox">
      <stop offset="0" stop-color="#6b6b6b"/>
      <stop offset="0.17" stop-color="#adadad"/>
      <stop offset="0.35" stop-color="#ededed"/>
      <stop offset="0.48" stop-color="#f7f7f7"/>
      <stop offset="0.58" stop-color="#fefefe"/>
      <stop offset="0.71" stop-color="#b9b9b9"/>
      <stop offset="0.82" stop-color="#707070"/>
      <stop offset="1" stop-color="#d0d0d0"/>
    </linearGradient>
    <linearGradient id="linear-gradient-34" x1="0.5" y1="0.93" x2="0.5" y2="-0.097" gradientUnits="objectBoundingBox">
      <stop offset="0" stop-color="#737373"/>
      <stop offset="0.17" stop-color="#b5b5b5"/>
      <stop offset="0.35" stop-color="#e7e7e7"/>
      <stop offset="0.48" stop-color="#f3f3f3"/>
      <stop offset="0.58" stop-color="#fefefe"/>
      <stop offset="0.71" stop-color="#bbb"/>
      <stop offset="0.82" stop-color="#777"/>
      <stop offset="1" stop-color="#dcdcdc"/>
    </linearGradient>
  </defs>
  <rect id="矩形_2608" data-name="矩形 2608" width="72" height="72" fill="none"/>
  <g id="组_1703" data-name="组 1703" transform="translate(-349 -1269.824)">
    <path id="路径_368" data-name="路径 368" d="M136.207,295.377H130.5V272.344h42.608v23.034h-36.9Z" transform="translate(222.797 1043.726)" fill-rule="evenodd"/>
    <g id="组_1702" data-name="组 1702" transform="translate(403.995 1269.824) rotate(45)">
      <g id="路径_370" data-name="路径 370" transform="translate(1.295 36.084)" fill-rule="evenodd" fill="url(#linear-gradient)">
        <path d="M 20.4550952911377 28.81142044067383 L 20.38009643554688 28.81142044067383 L 1.584716846991796e-05 28.81142044067383 L -0.07498415559530258 28.81142044067383 L -0.07498415559530258 28.73641967773438 L -0.07498415559530258 20.06731986999512 L -0.07498415559530258 7.7459397315979 L -0.07498415559530258 -1.61132817311227e-07 L -0.07498415559530258 -0.07500015944242477 L 1.584716846991796e-05 -0.07500015944242477 L 20.38009643554688 -0.07500015944242477 L 20.4550952911377 -0.07500015944242477 L 20.4550952911377 -1.61132817311227e-07 L 20.4550952911377 20.06731986999512 L 20.4550952911377 28.73641967773438 L 20.4550952911377 28.81142044067383 Z" stroke="none"/>
        <path d="M 20.38009643554688 28.73641967773438 L 20.38009643554688 20.06731986999512 L 20.38009643554688 -1.61132817311227e-07 L 1.584716846991796e-05 -1.61132817311227e-07 L 1.584716846991796e-05 7.7459397315979 L 1.584716846991796e-05 20.06731986999512 L 1.584716846991796e-05 28.73641967773438 L 20.38009643554688 28.73641967773438 M 20.53009605407715 28.88641929626465 L 20.38009643554688 28.88641929626465 L 1.584716846991796e-05 28.88641929626465 L -0.1499841511249542 28.88641929626465 L -0.1499841511249542 28.73641967773438 L -0.1499841511249542 20.06731986999512 L -0.1499841511249542 7.7459397315979 L -0.1499841511249542 -1.61132817311227e-07 L -0.1499841511249542 -0.1500001549720764 L 1.584716846991796e-05 -0.1500001549720764 L 20.38009643554688 -0.1500001549720764 L 20.53009605407715 -0.1500001549720764 L 20.53009605407715 -1.61132817311227e-07 L 20.53009605407715 20.06731986999512 L 20.53009605407715 28.73641967773438 L 20.53009605407715 28.88641929626465 Z" stroke="none"/>
      </g>
      <g id="组_1588" data-name="组 1588" transform="translate(0 0)">
        <path id="路径_181" data-name="路径 181" d="M3.629,2.081V0A3.641,3.641,0,0,0,0,3.629H2.081A1.558,1.558,0,0,1,3.629,2.081Z" transform="translate(17.236 15.214) rotate(90)" fill-rule="evenodd"/>
        <path id="路径_182" data-name="路径 182" d="M3.618,2.057V0A3.619,3.619,0,0,0,0,3.618H2.057A1.562,1.562,0,0,1,3.618,2.057Z" transform="translate(17.223 15.224) rotate(90)" fill-rule="evenodd" fill="url(#radial-gradient)"/>
        <g id="组_1564" data-name="组 1564" transform="translate(5.377 18.86)">
          <rect id="矩形_67" data-name="矩形 67" width="2.083" height="8.884" transform="translate(0 0)"/>
          <path id="路径_228" data-name="路径 228" d="M2.059,8.87H0V0H2.059Z" transform="translate(0.011 0.005)" fill-rule="evenodd" fill="url(#linear-gradient-2)"/>
        </g>
        <g id="组_1565" data-name="组 1565" transform="translate(17.236 27.744) rotate(180)">
          <rect id="矩形_67-2" data-name="矩形 67" width="2.087" height="8.901" transform="translate(0 0)"/>
          <path id="路径_228-2" data-name="路径 228" d="M2.063,8.888H0V0H2.063Z" transform="translate(0.011 0.005)" fill-rule="evenodd" fill="url(#linear-gradient-2)"/>
        </g>
        <path id="路径_181-2" data-name="路径 181" d="M3.629,2.082V0A3.641,3.641,0,0,0,0,3.629H2.081A1.558,1.558,0,0,1,3.629,2.082Z" transform="translate(5.377 15.228)" fill-rule="evenodd"/>
        <path id="路径_182-2" data-name="路径 182" d="M3.618,2.057V0A3.619,3.619,0,0,0,0,3.618H2.057A1.562,1.562,0,0,1,3.618,2.057Z" transform="translate(5.388 15.242)" fill-rule="evenodd" fill="url(#radial-gradient)"/>
        <g id="组_1560" data-name="组 1560" transform="translate(9.714 9.777)">
          <g id="组_1379" data-name="组 1379" transform="translate(0 0)">
            <path id="路径_3298" data-name="路径 3298" d="M3.057,11.258h0a.572.572,0,0,1,.06.169c.04.216-.03.416-.171.462v.97a.445.445,0,0,1,.141.216c0,.015.01.015.01.031a.432.432,0,0,1-.081.493c-.02.015-.05.031-.07.046v.986a.372.372,0,0,1,.121.154.362.362,0,0,1,.06.216c.02.2-.05.37-.181.4v.924a.41.41,0,0,1,.1.108l.02.031a.327.327,0,0,1,.06.169c0,.015.01.046.01.062a.786.786,0,0,1-.563.277H.613a.925.925,0,0,1-.292-.062v-.647c-.01,0-.03-.015-.04-.015-.382-.185-.382-.878.05-.816l.01-.862a.03.03,0,0,1-.03-.015c-.372-.123-.423-.878.04-.832l.01-.924c-.01,0-.03-.015-.04-.015-.392-.154-.362-.94.05-.847l.01-.909c-.01,0-.03-.015-.04-.015-.392-.154-.362-.955.05-.862,0-.308.01-.616.01-.939-.01,0-.03-.015-.04-.015A.6.6,0,0,1,.09,8.809a.544.544,0,0,1,.06-.4.165.165,0,0,1,.04-.046A.27.27,0,0,1,.422,8.3l.01-.97c-.02,0-.03-.015-.05-.015-.362-.169-.382-.97.05-.909l.01-1C.009,5.236,0,4.358.452,4.451l.01-1.016c-.01,0-.03-.015-.04-.015C.039,3.28.029,2.387.472,2.464L.482,1.4c-.01,0-.03-.015-.04-.015A.7.7,0,0,1,.251.477.256.256,0,0,1,.492.385V.015A.439.439,0,0,1,.633,0H2.6a.693.693,0,0,1,.443.169.4.4,0,0,1-.121.123v1.17c.211.2.272.785,0,.893V3.5c.231.216.241.77,0,.878V5.467c.221.2.272.724,0,.832V7.392a.57.57,0,0,1,.131.2l.03.092c.05.231-.01.462-.161.524V9.256a.57.57,0,0,1,.131.2.219.219,0,0,1,.03.108.42.42,0,0,1-.161.493v1.016A1.072,1.072,0,0,1,3.057,11.258Z" fill="#231815" fill-rule="evenodd"/>
            <path id="路径_3299" data-name="路径 3299" d="M2.525,8.594v.477c0,.647,0,1.294.01,1.925s0,1.248.01,1.879v1.833c0,.6,0,1.2.01,1.771v.4a.623.623,0,0,1-.332.092H.251A.724.724,0,0,1,0,16.926v-.447c.01-.585.01-1.186.02-1.771.01-.6.01-1.217.02-1.833S.05,11.628.06,11,.07,9.718.08,9.071V8.594c.01-.662.01-1.324.02-1.987.01-.678.01-1.355.02-2.048s.01-1.4.02-2.094c.01-.724.01-1.432.02-2.172V.015C.191.015.231,0,.262,0H2.233a.866.866,0,0,1,.282.062V.277c0,.724,0,1.448.01,2.171,0,.708,0,1.4.01,2.095s0,1.371.01,2.048C2.525,7.269,2.525,7.931,2.525,8.594Z" transform="translate(0.361 0.02)" fill-rule="evenodd" fill="url(#linear-gradient-4)"/>
            <path id="路径_3300" data-name="路径 3300" d="M2.7,1.448c.322,0,.463.986-.01.863C2.574,2.28,2.1,2.08,1.608,1.864L.381,1.325A.6.6,0,0,1,.21.539C.27.462.411.416.482.508c.02.031.563.246,1.107.478.533.2,1.076.431,1.117.462ZM2.142,0h.392a.689.689,0,0,1,.413.139.25.25,0,0,1-.262.108h-.03A4.744,4.744,0,0,0,2.192.015L2.142,0Zm.915,16.731a.861.861,0,0,1-.392.231c-.322-.108-.744-.231-1.167-.339A8.058,8.058,0,0,1,.25,16.191c-.332-.169-.352-.755.05-.693h.05c.02.031.553.2,1.117.385s1.137.37,1.257.4a.457.457,0,0,1,.332.447Zm-.362-7.5c.433.108.443.94-.01.77-.171-.062-.724-.262-1.247-.447A11.62,11.62,0,0,1,.321,9.12.511.511,0,0,1,.15,8.4c.08-.077.171-.046.262-.046a9.522,9.522,0,0,0,1.076.431c.533.2,1.107.4,1.207.447Zm.02,5.361c-.121-.046-.694-.231-1.247-.416a11.048,11.048,0,0,1-1.107-.4H.331c-.463-.077-.382.6-.06.709.4.139.815.277,1.217.416s.8.277,1.207.4c.443.2.473-.6.02-.709ZM2.685,3.466C2.574,3.42,2.021,3.2,1.5,2.989A11.216,11.216,0,0,1,.452,2.527H.411C0,2.419.019,3.22.351,3.343c.392.154.775.323,1.157.478s.765.308,1.147.478c.4.246.5-.709.03-.832Zm.02,7.58c-.382-.139-.775-.277-1.157-.416s-.775-.277-1.167-.416c-.412-.154-.443.585-.091.724.392.154.795.293,1.2.447.4.139.8.277,1.2.416.463.169.453-.647.02-.755Zm-.01-3.682c.412.092.443.94.01.8-.392-.154-.795-.308-1.187-.447-.4-.154-.795-.308-1.2-.462-.332-.154-.342-.847.05-.786h.04A8.942,8.942,0,0,0,1.478,6.9c.543.2,1.107.416,1.217.462ZM.391,5.33c-.392-.154-.412-.924,0-.816h.05a11.756,11.756,0,0,0,1.086.462c.543.216,1.107.431,1.237.478.332.139.372.878-.06.786h-.03a10.82,10.82,0,0,0-1.107-.447A8.818,8.818,0,0,1,.391,5.33Zm2.334,7.5c.191-.031.473.478.231.693-.081.077-.161.031-.251.031a10.673,10.673,0,0,0-1.117-.4c-.563-.185-1.167-.4-1.3-.447-.362-.139-.332-.863.091-.709l1.177.416C1.94,12.556,2.333,12.694,2.725,12.833Z" transform="translate(0.05 0.02)" fill-rule="evenodd" fill="url(#linear-gradient-5)"/>
            <path id="路径_3301" data-name="路径 3301" d="M.372,0C.563.078.754.157.946.251c.191.078.382.157.573.251.191.078.382.157.573.251l.573.235s.01,0,.02.016H2.7c.01,0,.01,0,.02.016h.02a.284.284,0,0,1,.141.157.518.518,0,0,1,.05.219.3.3,0,0,1-.01.094.6.6,0,0,0-.04-.125.349.349,0,0,0-.141-.157h-.05c-.01,0-.01,0-.02-.016L2.092.955,1.519.72C1.328.642,1.137.564.946.47.754.392.563.313.372.219H.332A.108.108,0,0,0,.181.251C.161.266.151.313.141.345a.352.352,0,0,1-.01-.11A.257.257,0,0,1,.181.063.108.108,0,0,1,.332.031h.02C.362,0,.362,0,.372,0ZM.3,8c.2.078.392.157.594.219.2.078.392.141.593.219s.4.141.594.219.4.141.594.219H2.7c.01,0,.01,0,.02.016h.02c.01,0,.01,0,.02.016a.292.292,0,0,1,.151.141.438.438,0,0,1,.05.188.173.173,0,0,1-.01.078.485.485,0,0,0-.04-.11.219.219,0,0,0-.151-.125c-.01,0-.01,0-.02-.016h-.02c-.01,0-.01,0-.02-.016h-.02c-.2-.078-.4-.141-.594-.219s-.4-.141-.594-.219S1.1,8.472.9,8.394.5,8.253.3,8.175H.262A.144.144,0,0,0,.1,8.19a.162.162,0,0,0-.04.078.3.3,0,0,1-.01-.094A.327.327,0,0,1,.1,8a.141.141,0,0,1,.161-.016h.02c.01,0,.01,0,.02.016Zm-.04,5.512c.2.063.4.141.614.2s.4.141.614.2.412.125.614.2c.2.063.412.125.614.2h.04c.01,0,.01,0,.02.016H2.8a.267.267,0,0,1,.151.125.376.376,0,0,1,.05.172.209.209,0,0,1-.01.078.376.376,0,0,0-.04-.094A.242.242,0,0,0,2.8,14.5h-.08c-.2-.078-.413-.141-.614-.2-.2-.078-.412-.141-.614-.2s-.412-.141-.614-.2-.4-.141-.614-.2H.221A.141.141,0,0,0,.06,13.7a.162.162,0,0,0-.04.078A.255.255,0,0,1,.01,13.7a.24.24,0,0,1,.05-.157.141.141,0,0,1,.161-.016h.02c.01-.031.01-.031.02-.016Zm-.02,1.738c.2.063.412.141.614.2s.412.125.614.2c.2.063.412.141.614.2s.412.125.614.2h.02c.01,0,.01,0,.02.016h.04a.312.312,0,0,1,.211.3.21.21,0,0,1-.01.078.376.376,0,0,0-.04-.094.241.241,0,0,0-.151-.125h-.08c-.2-.063-.412-.141-.614-.2s-.413-.141-.614-.2-.412-.125-.614-.2c-.2-.063-.412-.141-.614-.2H.211a.141.141,0,0,0-.161.016.163.163,0,0,0-.04.078A.256.256,0,0,1,0,15.441a.275.275,0,0,1,.05-.157.144.144,0,0,1,.161-.016h.02c0-.031,0-.031.01-.016ZM.352,2.083c.191.078.382.157.583.235s.382.157.583.235.382.157.583.235.392.157.583.235h.04s.01,0,.02.016h.02a.4.4,0,0,1,.151.141.506.506,0,0,1,.05.2.3.3,0,0,1-.01.094.486.486,0,0,0-.04-.11.241.241,0,0,0-.151-.141H2.686c-.191-.078-.392-.157-.583-.235s-.392-.157-.583-.235S1.137,2.6.936,2.521L.362,2.286H.322a.108.108,0,0,0-.151.031.16.16,0,0,0-.04.094.3.3,0,0,1-.01-.094.343.343,0,0,1,.05-.188c.03-.047.08-.047.151-.031h.02c0-.031,0-.031.01-.016ZM.292,9.866c.2.078.4.141.6.219s.4.141.6.219c.2.063.4.141.6.219s.4.141.6.219h.02c.01,0,.01,0,.02.016h.02c.01,0,.01,0,.02.016a.344.344,0,0,1,.151.125.437.437,0,0,1,.05.188.173.173,0,0,1-.01.078.48.48,0,0,0-.04-.11.219.219,0,0,0-.151-.125c-.01,0-.01,0-.02-.016h-.02c-.01,0-.01,0-.02-.016h-.02c-.2-.078-.4-.141-.6-.219-.2-.063-.4-.141-.6-.219-.2-.063-.4-.141-.6-.219s-.4-.141-.6-.219H.251c-.07-.016-.121-.016-.161.031a.163.163,0,0,0-.04.078.255.255,0,0,1-.01-.078A.241.241,0,0,1,.091,9.9a.174.174,0,0,1,.161-.031h.04Zm.03-3.79c.2.078.392.157.594.235s.392.157.594.219c.2.078.392.157.593.219.2.078.392.141.594.219h.02c.01,0,.01,0,.02.016h.04a.291.291,0,0,1,.151.141.449.449,0,0,1,.05.2.174.174,0,0,1-.01.078.482.482,0,0,0-.04-.11.291.291,0,0,0-.151-.141h-.04c-.01,0-.01,0-.02-.016H2.7c-.2-.078-.392-.157-.594-.219-.2-.078-.392-.157-.593-.219-.2-.078-.392-.157-.594-.219C.714,6.4.523,6.327.322,6.248H.282a.144.144,0,0,0-.161.016.228.228,0,0,0-.04.094.3.3,0,0,1-.01-.094.327.327,0,0,1,.05-.172.141.141,0,0,1,.161-.016h.04ZM.332,4.1c.191.078.392.157.583.235s.392.157.583.235.392.157.583.235.392.157.594.235H2.7c.01,0,.01,0,.02.016h.04a.335.335,0,0,1,.151.141.505.505,0,0,1,.05.2.172.172,0,0,1-.01.078.482.482,0,0,0-.04-.11.241.241,0,0,0-.151-.141h-.04c-.01,0-.01,0-.02-.016h-.02c-.2-.078-.392-.157-.583-.235s-.392-.157-.583-.235S1.117,4.588.925,4.51.533,4.354.342,4.275H.3a.125.125,0,0,0-.151.016.16.16,0,0,0-.04.094A.3.3,0,0,1,.1,4.291a.289.289,0,0,1,.05-.172A.125.125,0,0,1,.3,4.1h.03Zm-.06,7.6c.2.078.4.141.6.219s.4.141.6.2c.2.078.4.141.6.2s.4.141.6.2h.081a.344.344,0,0,1,.151.125.438.438,0,0,1,.05.188.21.21,0,0,1-.01.078,1.12,1.12,0,0,0-.04-.11.219.219,0,0,0-.151-.125c-.01,0-.01,0-.02-.016h-.06c-.2-.063-.4-.141-.6-.2s-.4-.141-.6-.2-.4-.141-.6-.2c-.2-.078-.4-.141-.6-.2H.231a.121.121,0,0,0-.161.031.163.163,0,0,0-.04.078.3.3,0,0,1-.01-.094.241.241,0,0,1,.05-.157.174.174,0,0,1,.161-.031h.02c.01.016.01.016.02.016Z" transform="translate(0.11 0.392)" fill="#f7f7f7" fill-rule="evenodd"/>
          </g>
        </g>
        <g id="组_1561" data-name="组 1561" transform="translate(10.561 0)">
          <g id="组_1379-2" data-name="组 1379">
            <path id="路径_3298-2" data-name="路径 3298" d="M1.407,5.182h0a.264.264,0,0,1,.028.078c.018.1-.014.191-.079.213v.447a.2.2,0,0,1,.065.1c0,.007,0,.007,0,.014a.2.2,0,0,1-.037.227c-.009.007-.023.014-.032.021v.454a.171.171,0,0,1,.056.071.167.167,0,0,1,.028.1c.009.092-.023.17-.083.184v.425a.191.191,0,0,1,.046.05l.009.014a.15.15,0,0,1,.028.078c0,.007,0,.021,0,.028a.362.362,0,0,1-.259.128h-.9a.426.426,0,0,1-.134-.028v-.3S.134,7.478.129,7.478c-.176-.085-.176-.4.023-.376l0-.4A.014.014,0,0,1,.143,6.7c-.171-.057-.194-.4.019-.383l0-.425S.152,5.883.148,5.883c-.181-.071-.167-.432.023-.39l0-.418S.162,5.068.157,5.068C-.024,5-.01,4.629.18,4.671c0-.142,0-.284,0-.432,0,0-.014-.007-.018-.007a.276.276,0,0,1-.125-.177A.25.25,0,0,1,.069,3.87a.077.077,0,0,1,.019-.021.124.124,0,0,1,.107-.028l0-.447c-.009,0-.014-.007-.023-.007C.009,3.289,0,2.92.2,2.949l0-.461c-.2-.078-.2-.482,0-.44l0-.468S.2,1.574.194,1.574C.018,1.51.013,1.1.217,1.134l0-.489S.208.638.2.638A.32.32,0,0,1,.115.22.118.118,0,0,1,.226.177V.007A.2.2,0,0,1,.291,0H1.2a.319.319,0,0,1,.2.078.185.185,0,0,1-.056.057V.673c.1.092.125.362,0,.411v.525c.107.1.111.354,0,.4v.5c.1.092.125.333,0,.383v.5a.262.262,0,0,1,.06.092l.014.043c.023.106,0,.213-.074.241V4.26a.262.262,0,0,1,.06.092.1.1,0,0,1,.014.05.193.193,0,0,1-.074.227V5.1A.5.5,0,0,1,1.407,5.182Z" fill="#231815" fill-rule="evenodd"/>
            <path id="路径_3299-2" data-name="路径 3299" d="M1.162,3.955v.22c0,.3,0,.6,0,.886s0,.574,0,.865V6.77c0,.276,0,.553,0,.815v.184a.287.287,0,0,1-.153.043H.116A.334.334,0,0,1,0,7.79V7.585c0-.269,0-.546.009-.815s0-.56.009-.844,0-.574.009-.865,0-.588.009-.886v-.22c0-.3,0-.61.009-.914s0-.624.009-.943,0-.645.009-.964,0-.659.009-1V.007C.088.007.106,0,.12,0h.908a.4.4,0,0,1,.13.028v.1c0,.333,0,.666,0,1s0,.645,0,.964,0,.631,0,.943S1.162,3.651,1.162,3.955Z" transform="translate(0.166 0.009)" fill-rule="evenodd" fill="url(#linear-gradient-4)"/>
            <path id="路径_3300-2" data-name="路径 3300" d="M1.245.667c.148,0,.213.454,0,.4C1.185,1.049.967.957.74.858L.175.61A.278.278,0,0,1,.1.248C.124.213.189.191.222.234c.009.014.259.113.509.22s.5.2.514.213ZM.986,0h.181a.317.317,0,0,1,.19.064.115.115,0,0,1-.12.05H1.222A2.166,2.166,0,0,0,1.009.007L.986,0Zm.421,7.7a.4.4,0,0,1-.181.106C1.078,7.757.884,7.7.689,7.651a3.709,3.709,0,0,1-.574-.2c-.153-.078-.162-.347.023-.319H.162c.009.014.255.092.514.177s.523.17.579.184a.21.21,0,0,1,.153.206ZM1.24,4.247c.2.05.2.433,0,.355C1.157,4.573.9,4.481.662,4.4a5.354,5.354,0,0,1-.514-.2.235.235,0,0,1-.079-.333c.037-.035.079-.021.12-.021a4.388,4.388,0,0,0,.5.2c.245.092.509.184.556.206ZM1.25,6.715C1.194,6.694.93,6.609.676,6.523a5.089,5.089,0,0,1-.509-.184H.152c-.213-.035-.176.276-.028.326l.56.191c.185.064.37.128.556.184.2.092.218-.277.009-.326ZM1.236,1.6c-.051-.021-.306-.121-.546-.22a5.144,5.144,0,0,1-.482-.213H.189c-.19-.05-.181.319-.028.376.181.071.357.149.532.22s.352.142.528.22c.185.113.232-.326.014-.383Zm.009,3.489L.713,4.893.175,4.7c-.19-.071-.2.269-.042.333.181.071.366.135.551.206s.37.128.551.191c.213.078.208-.3.009-.347Zm0-1.695c.19.043.2.432,0,.369C1.064,3.687.879,3.616.7,3.552L.148,3.34c-.153-.071-.157-.39.023-.362H.189a4.121,4.121,0,0,0,.491.2c.25.092.509.191.56.213ZM.18,2.453C0,2.383-.01,2.028.18,2.078H.2a5.4,5.4,0,0,0,.5.213c.25.1.509.2.57.22.153.064.171.4-.028.362H1.231a4.975,4.975,0,0,0-.509-.206A4.047,4.047,0,0,1,.18,2.453ZM1.254,5.907c.088-.014.218.22.106.319-.037.035-.074.014-.116.014a4.907,4.907,0,0,0-.514-.184C.472,5.97.194,5.871.134,5.85c-.167-.064-.153-.4.042-.326l.542.191C.893,5.779,1.074,5.843,1.254,5.907Z" transform="translate(0.023 0.009)" fill-rule="evenodd" fill="url(#linear-gradient-5)"/>
            <path id="路径_3301-2" data-name="路径 3301" d="M.171,0C.259.036.347.072.435.115S.611.187.7.231.875.3.963.346l.264.108s0,0,.009.007h0s0,0,.009.007h.009a.131.131,0,0,1,.065.072.239.239,0,0,1,.023.1.137.137,0,0,1,0,.043A.282.282,0,0,0,1.324.627.161.161,0,0,0,1.259.555H1.236s0,0-.009-.007L.963.44.7.332C.611.3.523.26.435.216S.259.144.171.1H.153A.05.05,0,0,0,.083.115C.074.123.069.144.065.159a.164.164,0,0,1,0-.05A.118.118,0,0,1,.083.029.05.05,0,0,1,.153.014H.162C.167,0,.167,0,.171,0ZM.139,3.683c.093.036.181.072.273.1s.181.065.273.1.185.065.273.1.185.065.273.1h.009s0,0,.009.007h.009s0,0,.009.007a.134.134,0,0,1,.069.065.2.2,0,0,1,.023.086.08.08,0,0,1,0,.036.221.221,0,0,0-.019-.05.1.1,0,0,0-.069-.058s0,0-.009-.007H1.25s0,0-.009-.007H1.232c-.093-.036-.185-.065-.273-.1S.773,4,.685,3.964.5,3.9.412,3.863.231,3.8.139,3.762H.12a.066.066,0,0,0-.074.007.075.075,0,0,0-.018.036.138.138,0,0,1,0-.043.151.151,0,0,1,.023-.079A.065.065,0,0,1,.12,3.676H.13s0,0,.009.007ZM.12,6.22c.093.029.185.065.282.094s.185.065.282.094.19.058.282.094.19.058.282.094h.018s0,0,.009.007h.009a.123.123,0,0,1,.069.058.173.173,0,0,1,.023.079.1.1,0,0,1,0,.036.173.173,0,0,0-.018-.043.111.111,0,0,0-.069-.058H1.25c-.093-.036-.19-.065-.282-.094s-.19-.065-.282-.094S.5,6.422.4,6.393.218,6.328.12,6.3H.1a.065.065,0,0,0-.074.007.074.074,0,0,0-.019.036.118.118,0,0,1,0-.036.111.111,0,0,1,.023-.072A.065.065,0,0,1,.1,6.228H.111c0-.014,0-.014.009-.007Zm-.009.8c.093.029.19.065.282.094s.19.058.282.094.19.065.282.094.19.058.282.094H1.25s0,0,.009.007h.018a.143.143,0,0,1,.1.137.1.1,0,0,1,0,.036.175.175,0,0,0-.019-.043.111.111,0,0,0-.069-.058H1.245c-.093-.029-.19-.065-.282-.094s-.19-.065-.282-.094S.491,7.229.4,7.193.208,7.128.116,7.1H.1a.065.065,0,0,0-.074.007A.074.074,0,0,0,0,7.143a.117.117,0,0,1,0-.036.127.127,0,0,1,.023-.072A.066.066,0,0,1,.1,7.028H.107c0-.014,0-.014,0-.007ZM.162.959c.088.036.176.072.269.108s.176.072.269.108.176.072.269.108l.268.108h.019s0,0,.009.007h.009a.182.182,0,0,1,.069.065.232.232,0,0,1,.023.094.137.137,0,0,1,0,.043.221.221,0,0,0-.019-.05.111.111,0,0,0-.069-.065H1.236L.968,1.377.7,1.269C.611,1.233.523,1.2.431,1.16L.167,1.052H.148a.05.05,0,0,0-.069.014A.074.074,0,0,0,.06,1.11a.137.137,0,0,1,0-.043A.158.158,0,0,1,.079.98C.093.959.116.959.148.966H.157c0-.014,0-.014,0-.007ZM.134,4.541c.093.036.185.065.278.1s.185.065.278.1.185.065.278.1.185.065.278.1h.009s0,0,.009.007h.009s0,0,.009.007a.159.159,0,0,1,.069.058.2.2,0,0,1,.023.086.079.079,0,0,1,0,.036.222.222,0,0,0-.018-.05.1.1,0,0,0-.069-.058s0,0-.009-.007H1.264s0,0-.009-.007H1.245c-.093-.036-.185-.065-.278-.1s-.185-.065-.278-.1S.5,4.75.412,4.714s-.185-.065-.278-.1H.116C.083,4.606.06,4.606.042,4.627a.075.075,0,0,0-.019.036.117.117,0,0,1,0-.036.111.111,0,0,1,.023-.072.08.08,0,0,1,.074-.014H.134ZM.148,2.8.421,2.9c.093.036.181.072.273.1s.181.072.273.1.181.065.273.1H1.25s0,0,.009.007h.018a.135.135,0,0,1,.069.065.207.207,0,0,1,.023.094.08.08,0,0,1,0,.036.223.223,0,0,0-.018-.05.135.135,0,0,0-.069-.065H1.259s0,0-.009-.007H1.241c-.093-.036-.181-.072-.273-.1s-.181-.072-.273-.1-.181-.072-.273-.1L.148,2.876H.13a.066.066,0,0,0-.074.007.1.1,0,0,0-.018.043.138.138,0,0,1,0-.043A.151.151,0,0,1,.056,2.8.065.065,0,0,1,.13,2.8H.148Zm0-.908L.421,2,.69,2.1l.269.108c.088.036.181.072.273.108h.009s0,0,.009.007h.018a.155.155,0,0,1,.069.065.232.232,0,0,1,.023.094.08.08,0,0,1,0,.036.22.22,0,0,0-.019-.05.111.111,0,0,0-.069-.065H1.25s0,0-.009-.007H1.232c-.093-.036-.181-.072-.269-.108L.695,2.184.426,2.076.157,1.968H.139a.058.058,0,0,0-.069.007.074.074,0,0,0-.018.043.137.137,0,0,1,0-.043A.133.133,0,0,1,.069,1.9a.058.058,0,0,1,.069-.007H.153Zm-.028,3.5c.093.036.185.065.278.1s.185.065.278.094.185.065.278.094.185.065.278.094h.037a.159.159,0,0,1,.069.058.2.2,0,0,1,.023.086.1.1,0,0,1,0,.036.5.5,0,0,0-.019-.05.1.1,0,0,0-.069-.058s0,0-.009-.007H1.236c-.093-.029-.185-.065-.278-.094S.773,5.673.681,5.644.5,5.579.4,5.55.218,5.485.125,5.456H.107a.056.056,0,0,0-.074.014.075.075,0,0,0-.019.036.138.138,0,0,1,0-.043.111.111,0,0,1,.023-.072.08.08,0,0,1,.074-.014H.116c0,.007,0,.007.009.007Z" transform="translate(0.05 0.181)" fill="#f7f7f7" fill-rule="evenodd"/>
          </g>
        </g>
        <path id="路径_3564" data-name="路径 3564" d="M2.273.966a1.056,1.056,0,0,1-1.1,1.018A1.107,1.107,0,0,1,0,1.018,1.056,1.056,0,0,1,1.1,0,1.107,1.107,0,0,1,2.273.966Z" transform="translate(14.023 6.731)" fill="#3e3a39" fill-rule="evenodd"/>
        <path id="路径_3565" data-name="路径 3565" d="M2.09.914a.972.972,0,0,1-1.018.94A1,1,0,0,1,0,.94.989.989,0,0,1,1.019,0,1.019,1.019,0,0,1,2.09.914Z" transform="translate(14.102 6.783)" fill-rule="evenodd" fill="url(#radial-gradient-3)"/>
        <path id="路径_3568" data-name="路径 3568" d="M.351.392A.249.249,0,0,1,.038.313C-.041.209.012.1.116.026A.249.249,0,0,1,.43.1.191.191,0,0,1,.351.392Z" transform="translate(15.475 7.358)" fill="#f7f8f8" fill-rule="evenodd"/>
        <path id="路径_3531" data-name="路径 3531" d="M2.273.966a1.056,1.056,0,0,1-1.1,1.018A1.107,1.107,0,0,1,0,1.018,1.056,1.056,0,0,1,1.1,0,1.074,1.074,0,0,1,2.273.966Z" transform="translate(6.189 6.731)" fill-rule="evenodd"/>
        <path id="路径_3535" data-name="路径 3535" d="M2.09.914a.972.972,0,0,1-1.018.94A1,1,0,0,1,0,.94.989.989,0,0,1,1.02,0,1.036,1.036,0,0,1,2.09.914Z" transform="translate(6.293 6.783)" fill-rule="evenodd" fill="url(#radial-gradient-4)"/>
        <path id="路径_3536" data-name="路径 3536" d="M.351.392A.242.242,0,0,1,.038.313C-.041.209.012.1.116.026A.249.249,0,0,1,.429.1.21.21,0,0,1,.351.392Z" transform="translate(7.667 7.358)" fill="#f7f8f8" fill-rule="evenodd"/>
        <path id="路径_3539" data-name="路径 3539" d="M.209,1.41H3.055L3.29,1.1,3.264.235,3.055,0H.209L0,.235v.94Z" transform="translate(9.663 9.551)" fill="#727171" fill-rule="evenodd"/>
        <path id="路径_3540" data-name="路径 3540" d="M.157,1.254h2.9l.157-.235V.183L3.055,0H.157L0,.183v.888Z" transform="translate(9.689 9.63)" fill="#b5b5b6" fill-rule="evenodd"/>
        <path id="路径_3541" data-name="路径 3541" d="M.783.914V.131A.123.123,0,0,0,.653,0H.131A.123.123,0,0,0,0,.131V.914a.123.123,0,0,0,.131.131H.653A.14.14,0,0,0,.783.914Z" transform="translate(9.846 9.734)" fill="#898989" fill-rule="evenodd"/>
        <path id="路径_3550" data-name="路径 3550" d="M1.489.914V.131A.123.123,0,0,0,1.358,0H.131A.123.123,0,0,0,0,.131V.914a.123.123,0,0,0,.131.131H1.358A.123.123,0,0,0,1.489.914Z" transform="translate(10.76 9.734)" fill="#595757" fill-rule="evenodd"/>
        <path id="路径_3554" data-name="路径 3554" d="M.392.914V.131A.123.123,0,0,0,.261,0H.131A.123.123,0,0,0,0,.131V.914a.123.123,0,0,0,.131.131h.13A.123.123,0,0,0,.392.914Z" transform="translate(12.379 9.734)" fill="#3e3a39" fill-rule="evenodd"/>
        <path id="路径_3542" data-name="路径 3542" d="M.187,0H1.963a.178.178,0,0,1,.183.183V.47a.179.179,0,0,1-.183.183H.187A.179.179,0,0,1,0,.47V.183C-.022.1.082,0,.187,0Z" transform="translate(10.234 8.873)" fill="#3e3a39" fill-rule="evenodd"/>
        <path id="路径_3543" data-name="路径 3543" d="M.162,0H1.938a.15.15,0,0,1,.157.157V.444A.168.168,0,0,1,1.938.6H.162A.168.168,0,0,1,.005.444V.157C-.021.078.057,0,.162,0Z" transform="translate(10.259 8.899)" fill-rule="evenodd" fill="url(#linear-gradient-8)"/>
        <path id="路径_3572" data-name="路径 3572" d="M0,.392V.81A3.893,3.893,0,0,0,2.794.522V.1c0-.052-.1-.078-.209-.1C2.507.34.313.548.209.235.1.287,0,.34,0,.392Z" transform="translate(9.846 25.821)" fill="#3f3a38" fill-rule="evenodd"/>
        <path id="路径_3573" data-name="路径 3573" d="M.1.235A3.489,3.489,0,0,0,2.559,0c.052.026.131.026.131.052V.444A3.74,3.74,0,0,1,0,.705V.313A.117.117,0,0,1,.1.235Z" transform="translate(9.898 25.899)" fill-rule="evenodd" fill="url(#linear-gradient-9)"/>
        <g id="组_1566" data-name="组 1566" transform="translate(9.219 17.725)">
          <path id="路径_3556" data-name="路径 3556" d="M.235,0H3.787l.261.366V1.436l-.261.313H.235L0,1.462V.287Z" fill-rule="evenodd"/>
          <path id="路径_3557" data-name="路径 3557" d="M.207,0H3.728l.207.287V1.306l-.207.235H.207L0,1.332V.209Z" transform="translate(0.061 0.104)" fill="#b5b5b6" fill-rule="evenodd"/>
          <path id="路径_3558" data-name="路径 3558" d="M1.019.183v.966a.179.179,0,0,1-.183.183H.183A.179.179,0,0,1,0,1.149V.183A.179.179,0,0,1,.183,0H.836A.179.179,0,0,1,1.019.183Z" transform="translate(0.157 0.209)" fill="#898989" fill-rule="evenodd"/>
          <path id="路径_3559" data-name="路径 3559" d="M1.88.183v.966a.179.179,0,0,1-.183.183H.183A.179.179,0,0,1,0,1.149V.183A.179.179,0,0,1,.183,0H1.7A.179.179,0,0,1,1.88.183Z" transform="translate(1.306 0.209)" fill="#595757" fill-rule="evenodd"/>
          <path id="路径_3560" data-name="路径 3560" d="M.548.183v.966a.179.179,0,0,1-.183.183H.183A.179.179,0,0,1,0,1.149V.183A.179.179,0,0,1,.183,0H.366A.179.179,0,0,1,.548.183Z" transform="translate(3.29 0.209)" fill="#3e3a39" fill-rule="evenodd"/>
        </g>
        <path id="路径_3545" data-name="路径 3545" d="M.679,0H7.051A.691.691,0,0,1,7.73.679V1.7a.691.691,0,0,1-.679.679H.679A.691.691,0,0,1,0,1.7V.679A.691.691,0,0,1,.679,0Z" transform="translate(7.365 11.458)" fill="#3e3a39" fill-rule="evenodd"/>
        <path id="路径_3546" data-name="路径 3546" d="M.6,0H6.973a.607.607,0,0,1,.6.6V1.619a.607.607,0,0,1-.6.6H.6a.607.607,0,0,1-.6-.6V.6A.625.625,0,0,1,.6,0Z" transform="translate(7.444 11.562)" fill-rule="evenodd" fill="url(#linear-gradient-10)"/>
        <path id="路径_3561" data-name="路径 3561" d="M5.553.288c.444-.026.5,1.645.026,1.619A12.27,12.27,0,0,0,.33,1.959C-.114,1.985-.114-.026.356,0A11.669,11.669,0,0,0,5.553.288Z" transform="translate(11.945 6.731)" fill="#3e3a39" fill-rule="evenodd"/>
        <path id="路径_3562" data-name="路径 3562" d="M5.448,1.645A11.96,11.96,0,0,0,.173,1.7C-.062,1.7-.062-.026.2,0A11.526,11.526,0,0,0,5.422.314C5.631.288,5.709,1.645,5.448,1.645Z" transform="translate(12.102 6.861)" fill-rule="evenodd" fill="url(#linear-gradient-11)"/>
        <path id="路径_3569" data-name="路径 3569" d="M2.4,1.333A1.26,1.26,0,0,1,1.228,2.717,1.321,1.321,0,0,1,0,1.385,1.26,1.26,0,0,1,1.176,0,1.253,1.253,0,0,1,2.4,1.333Z" transform="translate(17.131 6.443)" fill="#3e3a39" fill-rule="evenodd"/>
        <path id="路径_3570" data-name="路径 3570" d="M2.221,1.228A1.167,1.167,0,0,1,1.15,2.508,1.231,1.231,0,0,1,0,1.281,1.167,1.167,0,0,1,1.072,0,1.178,1.178,0,0,1,2.221,1.228Z" transform="translate(17.235 6.547)" fill-rule="evenodd" fill="url(#radial-gradient-5)"/>
        <path id="路径_3571" data-name="路径 3571" d="M.377.507A.241.241,0,0,1,.038.4.281.281,0,0,1,.116.037a.241.241,0,0,1,.34.1A.257.257,0,0,1,.377.507Z" transform="translate(17.643 6.799)" fill="#f7f8f8" fill-rule="evenodd"/>
        <path id="路径_3532" data-name="路径 3532" d="M.356.288C-.088.261-.14,1.933.33,1.907a12.27,12.27,0,0,1,5.249.052c.444.026.444-1.985-.026-1.959A11.669,11.669,0,0,1,.356.288Z" transform="translate(4.867 6.731)" fill="#3e3a39" fill-rule="evenodd"/>
        <path id="路径_3537" data-name="路径 3537" d="M.165,1.645A11.96,11.96,0,0,1,5.44,1.7c.235,0,.235-1.724-.026-1.7A11.526,11.526,0,0,1,.191.314C-.017.288-.1,1.645.165,1.645Z" transform="translate(5.006 6.861)" fill-rule="evenodd" fill="url(#linear-gradient-12)"/>
        <path id="路径_3533" data-name="路径 3533" d="M0,1.306A1.216,1.216,0,0,0,1.15,2.611a1.25,1.25,0,0,0,1.2-1.28A1.256,1.256,0,0,0,1.2,0,1.292,1.292,0,0,0,0,1.306Z" transform="translate(3.134 6.47)" fill="#3e3a39" fill-rule="evenodd"/>
        <path id="路径_3534" data-name="路径 3534" d="M0,1.175A1.163,1.163,0,0,0,1.046,2.4,1.178,1.178,0,0,0,2.169,1.227,1.145,1.145,0,0,0,1.124,0,1.178,1.178,0,0,0,0,1.175Z" transform="translate(3.212 6.601)" fill-rule="evenodd" fill="url(#radial-gradient-6)"/>
        <path id="路径_3538" data-name="路径 3538" d="M.116.482A.219.219,0,0,0,.43.4.281.281,0,0,0,.351.038.219.219,0,0,0,.038.116.281.281,0,0,0,.116.482Z" transform="translate(3.671 7.007)" fill="#f7f8f8" fill-rule="evenodd"/>
        <path id="路径_3547" data-name="路径 3547" d="M2.8,1.385A1.4,1.4,0,1,1,0,1.437,1.4,1.4,0,1,1,2.8,1.385Z" transform="translate(9.924 6.391)" fill="#3e3a39" fill-rule="evenodd"/>
        <path id="路径_3548" data-name="路径 3548" d="M2.586,1.281A1.288,1.288,0,0,1,1.333,2.612,1.345,1.345,0,0,1,0,1.333a1.293,1.293,0,1,1,2.585-.052Z" transform="translate(10.028 6.495)" fill-rule="evenodd" fill="url(#radial-gradient-7)"/>
        <path id="路径_3549" data-name="路径 3549" d="M.435.533a.3.3,0,0,1-.392-.1.273.273,0,0,1,.1-.392.3.3,0,0,1,.392.1A.3.3,0,0,1,.435.533Z" transform="translate(10.561 6.851)" fill="#f7f8f8" fill-rule="evenodd"/>
        <g id="组_47" data-name="组 47" transform="translate(9.13 23.297)">
          <rect id="矩形_67-3" data-name="矩形 67" width="4.634" height="3.712" transform="translate(0 0)"/>
          <path id="路径_228-3" data-name="路径 228" d="M4.4,3.581H0V0H4.4Z" transform="translate(0.104 0.052)" fill-rule="evenodd" fill="url(#linear-gradient-2)"/>
        </g>
        <g id="组_1579" data-name="组 1579" transform="translate(8.869 14.157)">
          <rect id="矩形_67-4" data-name="矩形 67" width="4.895" height="3.712" transform="translate(0 0)"/>
          <path id="路径_228-4" data-name="路径 228" d="M4.66,3.581H0V0H4.66Z" transform="translate(0.104 0.052)" fill-rule="evenodd" fill="url(#linear-gradient-2)"/>
        </g>
        <g id="组_1562" data-name="组 1562" transform="translate(20.196 29.775) rotate(180)">
          <path id="路径_273" data-name="路径 273" d="M8.894,4.063C3.99,4.063,0,2.332,0,.168V0H17.765V.168C17.789,2.308,13.822,4.063,8.894,4.063Z" transform="translate(0 0)" fill-rule="evenodd"/>
          <path id="路径_274" data-name="路径 274" d="M8.774,3.942C3.942,3.942,0,2.26,0,.168V0H17.524V.168C17.548,2.236,13.63,3.942,8.774,3.942Z" transform="translate(0.12 0)" fill-rule="evenodd" fill="url(#linear-gradient-15)"/>
        </g>
        <g id="组_1567" data-name="组 1567" transform="translate(23.102 28.132) rotate(90)">
          <path id="路径_189" data-name="路径 189" d="M3.87.841A.852.852,0,0,0,3.029,0H.841A.852.852,0,0,0,0,.841V22.26a.852.852,0,0,0,.841.841H3.029a.852.852,0,0,0,.841-.841Z" transform="translate(1.226 0)" fill-rule="evenodd"/>
          <path id="路径_190" data-name="路径 190" d="M3.63.722V22.141a.723.723,0,0,1-.721.721H.721A.723.723,0,0,1,0,22.141V.722A.723.723,0,0,1,.721,0H2.909A.694.694,0,0,1,3.63.722Z" transform="translate(1.346 0.119)" fill-rule="evenodd" fill="url(#linear-gradient-16)"/>
          <g id="组_39" data-name="组 39" transform="translate(0 19.58)">
            <rect id="矩形_57" data-name="矩形 57" width="0.745" height="1.322" transform="translate(0.601 0.457)"/>
            <rect id="矩形_58" data-name="矩形 58" width="0.529" height="1.13" transform="translate(0.697 0.577)" fill="url(#linear-gradient-17)"/>
            <path id="路径_201" data-name="路径 201" d="M.216,2.26H.865a.215.215,0,0,0,.216-.216V.216A.215.215,0,0,0,.865,0H.216A.215.215,0,0,0,0,.216V2.043A.215.215,0,0,0,.216,2.26Z" transform="translate(0)" fill-rule="evenodd"/>
            <path id="路径_202" data-name="路径 202" d="M.12,2.067H.769a.114.114,0,0,0,.12-.12V.12A.114.114,0,0,0,.769,0H.12A.114.114,0,0,0,0,.12V1.947C.024,2,.072,2.067.12,2.067Z" transform="translate(0.096 0.096)" fill-rule="evenodd" fill="url(#linear-gradient-18)"/>
            <path id="路径_203" data-name="路径 203" d="M.673.529H.1a.1.1,0,0,1-.1-.1V.1A.1.1,0,0,1,.1,0H.673a.1.1,0,0,1,.1.1V.433A.088.088,0,0,1,.673.529Z" transform="translate(0.144 0.144)" fill="#666" fill-rule="evenodd"/>
            <path id="路径_204" data-name="路径 204" d="M.673,1.01H.1a.1.1,0,0,1-.1-.1V.1A.1.1,0,0,1,.1,0H.673a.1.1,0,0,1,.1.1V.913A.1.1,0,0,1,.673,1.01Z" transform="translate(0.144 0.745)" fill="#898989" fill-rule="evenodd"/>
            <path id="路径_205" data-name="路径 205" d="M.673.288H.1a.1.1,0,0,1-.1-.1V.1A.1.1,0,0,1,.1,0H.673a.1.1,0,0,1,.1.1v.1A.1.1,0,0,1,.673.288Z" transform="translate(0.144 1.827)" fill="#c5c5c5" fill-rule="evenodd"/>
          </g>
          <g id="组_270" data-name="组 270" transform="translate(0 13.57)">
            <rect id="矩形_57-2" data-name="矩形 57" width="0.745" height="1.322" transform="translate(0.601 0.457)"/>
            <rect id="矩形_58-2" data-name="矩形 58" width="0.529" height="1.13" transform="translate(0.697 0.577)" fill="url(#linear-gradient-17)"/>
            <path id="路径_201-2" data-name="路径 201" d="M.216,2.26H.865a.215.215,0,0,0,.216-.216V.216A.215.215,0,0,0,.865,0H.216A.215.215,0,0,0,0,.216V2.043A.215.215,0,0,0,.216,2.26Z" transform="translate(0)" fill-rule="evenodd"/>
            <path id="路径_202-2" data-name="路径 202" d="M.12,2.067H.769a.114.114,0,0,0,.12-.12V.12A.114.114,0,0,0,.769,0H.12A.114.114,0,0,0,0,.12V1.947C.024,2,.072,2.067.12,2.067Z" transform="translate(0.096 0.096)" fill-rule="evenodd" fill="url(#linear-gradient-18)"/>
            <path id="路径_203-2" data-name="路径 203" d="M.673.529H.1a.1.1,0,0,1-.1-.1V.1A.1.1,0,0,1,.1,0H.673a.1.1,0,0,1,.1.1V.433A.088.088,0,0,1,.673.529Z" transform="translate(0.144 0.144)" fill="#666" fill-rule="evenodd"/>
            <path id="路径_204-2" data-name="路径 204" d="M.673,1.01H.1a.1.1,0,0,1-.1-.1V.1A.1.1,0,0,1,.1,0H.673a.1.1,0,0,1,.1.1V.913A.1.1,0,0,1,.673,1.01Z" transform="translate(0.144 0.745)" fill="#898989" fill-rule="evenodd"/>
            <path id="路径_205-2" data-name="路径 205" d="M.673.288H.1a.1.1,0,0,1-.1-.1V.1A.1.1,0,0,1,.1,0H.673a.1.1,0,0,1,.1.1v.1A.1.1,0,0,1,.673.288Z" transform="translate(0.144 1.827)" fill="#c5c5c5" fill-rule="evenodd"/>
          </g>
          <g id="组_271" data-name="组 271" transform="translate(0 7.32)">
            <rect id="矩形_57-3" data-name="矩形 57" width="0.745" height="1.322" transform="translate(0.601 0.457)"/>
            <rect id="矩形_58-3" data-name="矩形 58" width="0.529" height="1.13" transform="translate(0.697 0.577)" fill="url(#linear-gradient-17)"/>
            <path id="路径_201-3" data-name="路径 201" d="M.216,2.26H.865a.215.215,0,0,0,.216-.216V.216A.215.215,0,0,0,.865,0H.216A.215.215,0,0,0,0,.216V2.043A.215.215,0,0,0,.216,2.26Z" transform="translate(0)" fill-rule="evenodd"/>
            <path id="路径_202-3" data-name="路径 202" d="M.12,2.067H.769a.114.114,0,0,0,.12-.12V.12A.114.114,0,0,0,.769,0H.12A.114.114,0,0,0,0,.12V1.947C.024,2,.072,2.067.12,2.067Z" transform="translate(0.096 0.096)" fill-rule="evenodd" fill="url(#linear-gradient-18)"/>
            <path id="路径_203-3" data-name="路径 203" d="M.673.529H.1a.1.1,0,0,1-.1-.1V.1A.1.1,0,0,1,.1,0H.673a.1.1,0,0,1,.1.1V.433A.088.088,0,0,1,.673.529Z" transform="translate(0.144 0.144)" fill="#666" fill-rule="evenodd"/>
            <path id="路径_204-3" data-name="路径 204" d="M.673,1.01H.1a.1.1,0,0,1-.1-.1V.1A.1.1,0,0,1,.1,0H.673a.1.1,0,0,1,.1.1V.913A.1.1,0,0,1,.673,1.01Z" transform="translate(0.144 0.745)" fill="#898989" fill-rule="evenodd"/>
            <path id="路径_205-3" data-name="路径 205" d="M.673.288H.1a.1.1,0,0,1-.1-.1V.1A.1.1,0,0,1,.1,0H.673a.1.1,0,0,1,.1.1v.1A.1.1,0,0,1,.673.288Z" transform="translate(0.144 1.827)" fill="#c5c5c5" fill-rule="evenodd"/>
          </g>
          <g id="组_272" data-name="组 272" transform="translate(0 1.31)">
            <rect id="矩形_57-4" data-name="矩形 57" width="0.745" height="1.322" transform="translate(0.601 0.457)"/>
            <rect id="矩形_58-4" data-name="矩形 58" width="0.529" height="1.13" transform="translate(0.697 0.577)" fill="url(#linear-gradient-17)"/>
            <path id="路径_201-4" data-name="路径 201" d="M.216,2.26H.865a.215.215,0,0,0,.216-.216V.216A.215.215,0,0,0,.865,0H.216A.215.215,0,0,0,0,.216V2.043A.215.215,0,0,0,.216,2.26Z" transform="translate(0)" fill-rule="evenodd"/>
            <path id="路径_202-4" data-name="路径 202" d="M.12,2.067H.769a.114.114,0,0,0,.12-.12V.12A.114.114,0,0,0,.769,0H.12A.114.114,0,0,0,0,.12V1.947C.024,2,.072,2.067.12,2.067Z" transform="translate(0.096 0.096)" fill-rule="evenodd" fill="url(#linear-gradient-18)"/>
            <path id="路径_203-4" data-name="路径 203" d="M.673.529H.1a.1.1,0,0,1-.1-.1V.1A.1.1,0,0,1,.1,0H.673a.1.1,0,0,1,.1.1V.433A.088.088,0,0,1,.673.529Z" transform="translate(0.144 0.144)" fill="#666" fill-rule="evenodd"/>
            <path id="路径_204-4" data-name="路径 204" d="M.673,1.01H.1a.1.1,0,0,1-.1-.1V.1A.1.1,0,0,1,.1,0H.673a.1.1,0,0,1,.1.1V.913A.1.1,0,0,1,.673,1.01Z" transform="translate(0.144 0.745)" fill="#898989" fill-rule="evenodd"/>
            <path id="路径_205-4" data-name="路径 205" d="M.673.288H.1a.1.1,0,0,1-.1-.1V.1A.1.1,0,0,1,.1,0H.673a.1.1,0,0,1,.1.1v.1A.1.1,0,0,1,.673.288Z" transform="translate(0.144 1.827)" fill="#c5c5c5" fill-rule="evenodd"/>
          </g>
        </g>
        <g id="组_1581" data-name="组 1581" transform="translate(0 38.19) rotate(-90)">
          <path id="路径_189-2" data-name="路径 189" d="M3.87.841A.852.852,0,0,0,3.029,0H.841A.852.852,0,0,0,0,.841V22.26a.852.852,0,0,0,.841.841H3.029a.852.852,0,0,0,.841-.841Z" transform="translate(1.226 0)" fill-rule="evenodd"/>
          <path id="路径_190-2" data-name="路径 190" d="M3.63.722V22.141a.723.723,0,0,1-.721.721H.721A.723.723,0,0,1,0,22.141V.722A.723.723,0,0,1,.721,0H2.909A.694.694,0,0,1,3.63.722Z" transform="translate(1.346 0.119)" fill-rule="evenodd" fill="url(#linear-gradient-16)"/>
          <g id="组_39-2" data-name="组 39" transform="translate(0 19.58)">
            <rect id="矩形_57-5" data-name="矩形 57" width="0.745" height="1.322" transform="translate(0.601 0.457)"/>
            <rect id="矩形_58-5" data-name="矩形 58" width="0.529" height="1.13" transform="translate(0.697 0.577)" fill="url(#linear-gradient-17)"/>
            <path id="路径_201-5" data-name="路径 201" d="M.216,2.26H.865a.215.215,0,0,0,.216-.216V.216A.215.215,0,0,0,.865,0H.216A.215.215,0,0,0,0,.216V2.043A.215.215,0,0,0,.216,2.26Z" transform="translate(0)" fill-rule="evenodd"/>
            <path id="路径_202-5" data-name="路径 202" d="M.12,2.067H.769a.114.114,0,0,0,.12-.12V.12A.114.114,0,0,0,.769,0H.12A.114.114,0,0,0,0,.12V1.947C.024,2,.072,2.067.12,2.067Z" transform="translate(0.096 0.096)" fill-rule="evenodd" fill="url(#linear-gradient-18)"/>
            <path id="路径_203-5" data-name="路径 203" d="M.673.529H.1a.1.1,0,0,1-.1-.1V.1A.1.1,0,0,1,.1,0H.673a.1.1,0,0,1,.1.1V.433A.088.088,0,0,1,.673.529Z" transform="translate(0.144 0.144)" fill="#666" fill-rule="evenodd"/>
            <path id="路径_204-5" data-name="路径 204" d="M.673,1.01H.1a.1.1,0,0,1-.1-.1V.1A.1.1,0,0,1,.1,0H.673a.1.1,0,0,1,.1.1V.913A.1.1,0,0,1,.673,1.01Z" transform="translate(0.144 0.745)" fill="#898989" fill-rule="evenodd"/>
            <path id="路径_205-5" data-name="路径 205" d="M.673.288H.1a.1.1,0,0,1-.1-.1V.1A.1.1,0,0,1,.1,0H.673a.1.1,0,0,1,.1.1v.1A.1.1,0,0,1,.673.288Z" transform="translate(0.144 1.827)" fill="#c5c5c5" fill-rule="evenodd"/>
          </g>
          <g id="组_270-2" data-name="组 270" transform="translate(0 13.57)">
            <rect id="矩形_57-6" data-name="矩形 57" width="0.745" height="1.322" transform="translate(0.601 0.457)"/>
            <rect id="矩形_58-6" data-name="矩形 58" width="0.529" height="1.13" transform="translate(0.697 0.577)" fill="url(#linear-gradient-17)"/>
            <path id="路径_201-6" data-name="路径 201" d="M.216,2.26H.865a.215.215,0,0,0,.216-.216V.216A.215.215,0,0,0,.865,0H.216A.215.215,0,0,0,0,.216V2.043A.215.215,0,0,0,.216,2.26Z" transform="translate(0)" fill-rule="evenodd"/>
            <path id="路径_202-6" data-name="路径 202" d="M.12,2.067H.769a.114.114,0,0,0,.12-.12V.12A.114.114,0,0,0,.769,0H.12A.114.114,0,0,0,0,.12V1.947C.024,2,.072,2.067.12,2.067Z" transform="translate(0.096 0.096)" fill-rule="evenodd" fill="url(#linear-gradient-18)"/>
            <path id="路径_203-6" data-name="路径 203" d="M.673.529H.1a.1.1,0,0,1-.1-.1V.1A.1.1,0,0,1,.1,0H.673a.1.1,0,0,1,.1.1V.433A.088.088,0,0,1,.673.529Z" transform="translate(0.144 0.144)" fill="#666" fill-rule="evenodd"/>
            <path id="路径_204-6" data-name="路径 204" d="M.673,1.01H.1a.1.1,0,0,1-.1-.1V.1A.1.1,0,0,1,.1,0H.673a.1.1,0,0,1,.1.1V.913A.1.1,0,0,1,.673,1.01Z" transform="translate(0.144 0.745)" fill="#898989" fill-rule="evenodd"/>
            <path id="路径_205-6" data-name="路径 205" d="M.673.288H.1a.1.1,0,0,1-.1-.1V.1A.1.1,0,0,1,.1,0H.673a.1.1,0,0,1,.1.1v.1A.1.1,0,0,1,.673.288Z" transform="translate(0.144 1.827)" fill="#c5c5c5" fill-rule="evenodd"/>
          </g>
          <g id="组_271-2" data-name="组 271" transform="translate(0 7.32)">
            <rect id="矩形_57-7" data-name="矩形 57" width="0.745" height="1.322" transform="translate(0.601 0.457)"/>
            <rect id="矩形_58-7" data-name="矩形 58" width="0.529" height="1.13" transform="translate(0.697 0.577)" fill="url(#linear-gradient-17)"/>
            <path id="路径_201-7" data-name="路径 201" d="M.216,2.26H.865a.215.215,0,0,0,.216-.216V.216A.215.215,0,0,0,.865,0H.216A.215.215,0,0,0,0,.216V2.043A.215.215,0,0,0,.216,2.26Z" transform="translate(0)" fill-rule="evenodd"/>
            <path id="路径_202-7" data-name="路径 202" d="M.12,2.067H.769a.114.114,0,0,0,.12-.12V.12A.114.114,0,0,0,.769,0H.12A.114.114,0,0,0,0,.12V1.947C.024,2,.072,2.067.12,2.067Z" transform="translate(0.096 0.096)" fill-rule="evenodd" fill="url(#linear-gradient-18)"/>
            <path id="路径_203-7" data-name="路径 203" d="M.673.529H.1a.1.1,0,0,1-.1-.1V.1A.1.1,0,0,1,.1,0H.673a.1.1,0,0,1,.1.1V.433A.088.088,0,0,1,.673.529Z" transform="translate(0.144 0.144)" fill="#666" fill-rule="evenodd"/>
            <path id="路径_204-7" data-name="路径 204" d="M.673,1.01H.1a.1.1,0,0,1-.1-.1V.1A.1.1,0,0,1,.1,0H.673a.1.1,0,0,1,.1.1V.913A.1.1,0,0,1,.673,1.01Z" transform="translate(0.144 0.745)" fill="#898989" fill-rule="evenodd"/>
            <path id="路径_205-7" data-name="路径 205" d="M.673.288H.1a.1.1,0,0,1-.1-.1V.1A.1.1,0,0,1,.1,0H.673a.1.1,0,0,1,.1.1v.1A.1.1,0,0,1,.673.288Z" transform="translate(0.144 1.827)" fill="#c5c5c5" fill-rule="evenodd"/>
          </g>
          <g id="组_272-2" data-name="组 272" transform="translate(0 1.31)">
            <rect id="矩形_57-8" data-name="矩形 57" width="0.745" height="1.322" transform="translate(0.601 0.457)"/>
            <rect id="矩形_58-8" data-name="矩形 58" width="0.529" height="1.13" transform="translate(0.697 0.577)" fill="url(#linear-gradient-17)"/>
            <path id="路径_201-8" data-name="路径 201" d="M.216,2.26H.865a.215.215,0,0,0,.216-.216V.216A.215.215,0,0,0,.865,0H.216A.215.215,0,0,0,0,.216V2.043A.215.215,0,0,0,.216,2.26Z" transform="translate(0)" fill-rule="evenodd"/>
            <path id="路径_202-8" data-name="路径 202" d="M.12,2.067H.769a.114.114,0,0,0,.12-.12V.12A.114.114,0,0,0,.769,0H.12A.114.114,0,0,0,0,.12V1.947C.024,2,.072,2.067.12,2.067Z" transform="translate(0.096 0.096)" fill-rule="evenodd" fill="url(#linear-gradient-18)"/>
            <path id="路径_203-8" data-name="路径 203" d="M.673.529H.1a.1.1,0,0,1-.1-.1V.1A.1.1,0,0,1,.1,0H.673a.1.1,0,0,1,.1.1V.433A.088.088,0,0,1,.673.529Z" transform="translate(0.144 0.144)" fill="#666" fill-rule="evenodd"/>
            <path id="路径_204-8" data-name="路径 204" d="M.673,1.01H.1a.1.1,0,0,1-.1-.1V.1A.1.1,0,0,1,.1,0H.673a.1.1,0,0,1,.1.1V.913A.1.1,0,0,1,.673,1.01Z" transform="translate(0.144 0.745)" fill="#898989" fill-rule="evenodd"/>
            <path id="路径_205-8" data-name="路径 205" d="M.673.288H.1a.1.1,0,0,1-.1-.1V.1A.1.1,0,0,1,.1,0H.673a.1.1,0,0,1,.1.1v.1A.1.1,0,0,1,.673.288Z" transform="translate(0.144 1.827)" fill="#c5c5c5" fill-rule="evenodd"/>
          </g>
        </g>
      </g>
    </g>
    <path id="减去_27" data-name="减去 27" d="M42.312,22.768H0V0H6.042c2.895,2.866,8.4,4.646,14.366,4.646S31.88,2.865,34.774,0h7.538V22.766Z" transform="translate(353.415 1316.188)" fill="url(#linear-gradient-34)"/>
    <g id="组_283" data-name="组 283" transform="translate(398.847 1313.409) rotate(90)">
      <g id="组_280" data-name="组 280" transform="translate(28.415 42.578) rotate(90)">
        <path id="路径_189-3" data-name="路径 189" d="M4.761,1.035A1.048,1.048,0,0,0,3.726,0H1.035A1.048,1.048,0,0,0,0,1.035V27.38a1.048,1.048,0,0,0,1.035,1.035H3.726A1.048,1.048,0,0,0,4.761,27.38Z" transform="translate(1.508 0)" fill-rule="evenodd"/>
        <path id="路径_190-3" data-name="路径 190" d="M4.465.889V27.234a.89.89,0,0,1-.887.887H.887A.89.89,0,0,1,0,27.234V.889A.89.89,0,0,1,.887,0H3.578A.854.854,0,0,1,4.465.889Z" transform="translate(1.656 0.146)" fill-rule="evenodd" fill="url(#linear-gradient-16)"/>
        <g id="组_39-3" data-name="组 39" transform="translate(0 24.083)">
          <rect id="矩形_57-9" data-name="矩形 57" width="0.917" height="1.626" transform="translate(0.739 0.562)"/>
          <rect id="矩形_58-9" data-name="矩形 58" width="0.651" height="1.39" transform="translate(0.857 0.71)" fill="url(#linear-gradient-17)"/>
          <path id="路径_201-9" data-name="路径 201" d="M.266,2.779h.8a.265.265,0,0,0,.266-.266V.266A.265.265,0,0,0,1.064,0h-.8A.265.265,0,0,0,0,.266V2.513A.265.265,0,0,0,.266,2.779Z" transform="translate(0 0)" fill-rule="evenodd"/>
          <path id="路径_202-9" data-name="路径 202" d="M.148,2.543h.8A.14.14,0,0,0,1.094,2.4V.148A.14.14,0,0,0,.946,0h-.8A.14.14,0,0,0,0,.148V2.4C.03,2.454.089,2.543.148,2.543Z" transform="translate(0.118 0.118)" fill-rule="evenodd" fill="url(#linear-gradient-18)"/>
          <path id="路径_203-9" data-name="路径 203" d="M.828.65H.118A.127.127,0,0,1,0,.532V.118A.127.127,0,0,1,.118,0h.71A.127.127,0,0,1,.946.118V.532A.108.108,0,0,1,.828.65Z" transform="translate(0.177 0.177)" fill="#666" fill-rule="evenodd"/>
          <path id="路径_204-9" data-name="路径 204" d="M.828,1.242H.118A.127.127,0,0,1,0,1.124V.118A.127.127,0,0,1,.118,0h.71A.127.127,0,0,1,.946.118V1.124A.127.127,0,0,1,.828,1.242Z" transform="translate(0.177 0.917)" fill="#898989" fill-rule="evenodd"/>
          <path id="路径_205-9" data-name="路径 205" d="M.828.355H.118A.127.127,0,0,1,0,.237V.118A.127.127,0,0,1,.118,0h.71A.127.127,0,0,1,.946.118V.237A.127.127,0,0,1,.828.355Z" transform="translate(0.177 2.247)" fill="#c5c5c5" fill-rule="evenodd"/>
        </g>
        <g id="组_270-3" data-name="组 270" transform="translate(0 16.691)">
          <rect id="矩形_57-10" data-name="矩形 57" width="0.917" height="1.626" transform="translate(0.739 0.562)"/>
          <rect id="矩形_58-10" data-name="矩形 58" width="0.651" height="1.39" transform="translate(0.857 0.71)" fill="url(#linear-gradient-17)"/>
          <path id="路径_201-10" data-name="路径 201" d="M.266,2.779h.8a.265.265,0,0,0,.266-.266V.266A.265.265,0,0,0,1.064,0h-.8A.265.265,0,0,0,0,.266V2.513A.265.265,0,0,0,.266,2.779Z" transform="translate(0 0)" fill-rule="evenodd"/>
          <path id="路径_202-10" data-name="路径 202" d="M.148,2.543h.8A.14.14,0,0,0,1.094,2.4V.148A.14.14,0,0,0,.946,0h-.8A.14.14,0,0,0,0,.148V2.4C.03,2.454.089,2.543.148,2.543Z" transform="translate(0.118 0.118)" fill-rule="evenodd" fill="url(#linear-gradient-18)"/>
          <path id="路径_203-10" data-name="路径 203" d="M.828.65H.118A.127.127,0,0,1,0,.532V.118A.127.127,0,0,1,.118,0h.71A.127.127,0,0,1,.946.118V.532A.108.108,0,0,1,.828.65Z" transform="translate(0.177 0.177)" fill="#666" fill-rule="evenodd"/>
          <path id="路径_204-10" data-name="路径 204" d="M.828,1.242H.118A.127.127,0,0,1,0,1.124V.118A.127.127,0,0,1,.118,0h.71A.127.127,0,0,1,.946.118V1.124A.127.127,0,0,1,.828,1.242Z" transform="translate(0.177 0.917)" fill="#898989" fill-rule="evenodd"/>
          <path id="路径_205-10" data-name="路径 205" d="M.828.355H.118A.127.127,0,0,1,0,.237V.118A.127.127,0,0,1,.118,0h.71A.127.127,0,0,1,.946.118V.237A.127.127,0,0,1,.828.355Z" transform="translate(0.177 2.247)" fill="#c5c5c5" fill-rule="evenodd"/>
        </g>
        <g id="组_271-3" data-name="组 271" transform="translate(0 9.004)">
          <rect id="矩形_57-11" data-name="矩形 57" width="0.917" height="1.626" transform="translate(0.739 0.562)"/>
          <rect id="矩形_58-11" data-name="矩形 58" width="0.651" height="1.39" transform="translate(0.857 0.71)" fill="url(#linear-gradient-17)"/>
          <path id="路径_201-11" data-name="路径 201" d="M.266,2.779h.8a.265.265,0,0,0,.266-.266V.266A.265.265,0,0,0,1.064,0h-.8A.265.265,0,0,0,0,.266V2.513A.265.265,0,0,0,.266,2.779Z" transform="translate(0 0)" fill-rule="evenodd"/>
          <path id="路径_202-11" data-name="路径 202" d="M.148,2.543h.8A.14.14,0,0,0,1.094,2.4V.148A.14.14,0,0,0,.946,0h-.8A.14.14,0,0,0,0,.148V2.4C.03,2.454.089,2.543.148,2.543Z" transform="translate(0.118 0.118)" fill-rule="evenodd" fill="url(#linear-gradient-18)"/>
          <path id="路径_203-11" data-name="路径 203" d="M.828.65H.118A.127.127,0,0,1,0,.532V.118A.127.127,0,0,1,.118,0h.71A.127.127,0,0,1,.946.118V.532A.108.108,0,0,1,.828.65Z" transform="translate(0.177 0.177)" fill="#666" fill-rule="evenodd"/>
          <path id="路径_204-11" data-name="路径 204" d="M.828,1.242H.118A.127.127,0,0,1,0,1.124V.118A.127.127,0,0,1,.118,0h.71A.127.127,0,0,1,.946.118V1.124A.127.127,0,0,1,.828,1.242Z" transform="translate(0.177 0.917)" fill="#898989" fill-rule="evenodd"/>
          <path id="路径_205-11" data-name="路径 205" d="M.828.355H.118A.127.127,0,0,1,0,.237V.118A.127.127,0,0,1,.118,0h.71A.127.127,0,0,1,.946.118V.237A.127.127,0,0,1,.828.355Z" transform="translate(0.177 2.247)" fill="#c5c5c5" fill-rule="evenodd"/>
        </g>
        <g id="组_272-3" data-name="组 272" transform="translate(0 1.611)">
          <rect id="矩形_57-12" data-name="矩形 57" width="0.917" height="1.626" transform="translate(0.739 0.562)"/>
          <rect id="矩形_58-12" data-name="矩形 58" width="0.651" height="1.39" transform="translate(0.857 0.71)" fill="url(#linear-gradient-17)"/>
          <path id="路径_201-12" data-name="路径 201" d="M.266,2.779h.8a.265.265,0,0,0,.266-.266V.266A.265.265,0,0,0,1.064,0h-.8A.265.265,0,0,0,0,.266V2.513A.265.265,0,0,0,.266,2.779Z" transform="translate(0 0)" fill-rule="evenodd"/>
          <path id="路径_202-12" data-name="路径 202" d="M.148,2.543h.8A.14.14,0,0,0,1.094,2.4V.148A.14.14,0,0,0,.946,0h-.8A.14.14,0,0,0,0,.148V2.4C.03,2.454.089,2.543.148,2.543Z" transform="translate(0.118 0.118)" fill-rule="evenodd" fill="url(#linear-gradient-18)"/>
          <path id="路径_203-12" data-name="路径 203" d="M.828.65H.118A.127.127,0,0,1,0,.532V.118A.127.127,0,0,1,.118,0h.71A.127.127,0,0,1,.946.118V.532A.108.108,0,0,1,.828.65Z" transform="translate(0.177 0.177)" fill="#666" fill-rule="evenodd"/>
          <path id="路径_204-12" data-name="路径 204" d="M.828,1.242H.118A.127.127,0,0,1,0,1.124V.118A.127.127,0,0,1,.118,0h.71A.127.127,0,0,1,.946.118V1.124A.127.127,0,0,1,.828,1.242Z" transform="translate(0.177 0.917)" fill="#898989" fill-rule="evenodd"/>
          <path id="路径_205-12" data-name="路径 205" d="M.828.355H.118A.127.127,0,0,1,0,.237V.118A.127.127,0,0,1,.118,0h.71A.127.127,0,0,1,.946.118V.237A.127.127,0,0,1,.828.355Z" transform="translate(0.177 2.247)" fill="#c5c5c5" fill-rule="evenodd"/>
        </g>
      </g>
      <g id="组_281" data-name="组 281" transform="translate(0 6.268) rotate(-90)">
        <path id="路径_189-4" data-name="路径 189" d="M4.761,1.035A1.048,1.048,0,0,0,3.726,0H1.035A1.048,1.048,0,0,0,0,1.035V27.38a1.048,1.048,0,0,0,1.035,1.035H3.726A1.048,1.048,0,0,0,4.761,27.38Z" transform="translate(1.508 0)" fill-rule="evenodd"/>
        <path id="路径_190-4" data-name="路径 190" d="M4.465.889V27.234a.89.89,0,0,1-.887.887H.887A.89.89,0,0,1,0,27.234V.889A.89.89,0,0,1,.887,0H3.578A.854.854,0,0,1,4.465.889Z" transform="translate(1.656 0.146)" fill-rule="evenodd" fill="url(#linear-gradient-16)"/>
        <g id="组_39-4" data-name="组 39" transform="translate(0 24.083)">
          <rect id="矩形_57-13" data-name="矩形 57" width="0.917" height="1.626" transform="translate(0.739 0.562)"/>
          <rect id="矩形_58-13" data-name="矩形 58" width="0.651" height="1.39" transform="translate(0.857 0.71)" fill="url(#linear-gradient-17)"/>
          <path id="路径_201-13" data-name="路径 201" d="M.266,2.779h.8a.265.265,0,0,0,.266-.266V.266A.265.265,0,0,0,1.064,0h-.8A.265.265,0,0,0,0,.266V2.513A.265.265,0,0,0,.266,2.779Z" transform="translate(0 0)" fill-rule="evenodd"/>
          <path id="路径_202-13" data-name="路径 202" d="M.148,2.543h.8A.14.14,0,0,0,1.094,2.4V.148A.14.14,0,0,0,.946,0h-.8A.14.14,0,0,0,0,.148V2.4C.03,2.454.089,2.543.148,2.543Z" transform="translate(0.118 0.118)" fill-rule="evenodd" fill="url(#linear-gradient-18)"/>
          <path id="路径_203-13" data-name="路径 203" d="M.828.65H.118A.127.127,0,0,1,0,.532V.118A.127.127,0,0,1,.118,0h.71A.127.127,0,0,1,.946.118V.532A.108.108,0,0,1,.828.65Z" transform="translate(0.177 0.177)" fill="#666" fill-rule="evenodd"/>
          <path id="路径_204-13" data-name="路径 204" d="M.828,1.242H.118A.127.127,0,0,1,0,1.124V.118A.127.127,0,0,1,.118,0h.71A.127.127,0,0,1,.946.118V1.124A.127.127,0,0,1,.828,1.242Z" transform="translate(0.177 0.917)" fill="#898989" fill-rule="evenodd"/>
          <path id="路径_205-13" data-name="路径 205" d="M.828.355H.118A.127.127,0,0,1,0,.237V.118A.127.127,0,0,1,.118,0h.71A.127.127,0,0,1,.946.118V.237A.127.127,0,0,1,.828.355Z" transform="translate(0.177 2.247)" fill="#c5c5c5" fill-rule="evenodd"/>
        </g>
        <g id="组_270-4" data-name="组 270" transform="translate(0 16.691)">
          <rect id="矩形_57-14" data-name="矩形 57" width="0.917" height="1.626" transform="translate(0.739 0.562)"/>
          <rect id="矩形_58-14" data-name="矩形 58" width="0.651" height="1.39" transform="translate(0.857 0.71)" fill="url(#linear-gradient-17)"/>
          <path id="路径_201-14" data-name="路径 201" d="M.266,2.779h.8a.265.265,0,0,0,.266-.266V.266A.265.265,0,0,0,1.064,0h-.8A.265.265,0,0,0,0,.266V2.513A.265.265,0,0,0,.266,2.779Z" transform="translate(0 0)" fill-rule="evenodd"/>
          <path id="路径_202-14" data-name="路径 202" d="M.148,2.543h.8A.14.14,0,0,0,1.094,2.4V.148A.14.14,0,0,0,.946,0h-.8A.14.14,0,0,0,0,.148V2.4C.03,2.454.089,2.543.148,2.543Z" transform="translate(0.118 0.118)" fill-rule="evenodd" fill="url(#linear-gradient-18)"/>
          <path id="路径_203-14" data-name="路径 203" d="M.828.65H.118A.127.127,0,0,1,0,.532V.118A.127.127,0,0,1,.118,0h.71A.127.127,0,0,1,.946.118V.532A.108.108,0,0,1,.828.65Z" transform="translate(0.177 0.177)" fill="#666" fill-rule="evenodd"/>
          <path id="路径_204-14" data-name="路径 204" d="M.828,1.242H.118A.127.127,0,0,1,0,1.124V.118A.127.127,0,0,1,.118,0h.71A.127.127,0,0,1,.946.118V1.124A.127.127,0,0,1,.828,1.242Z" transform="translate(0.177 0.917)" fill="#898989" fill-rule="evenodd"/>
          <path id="路径_205-14" data-name="路径 205" d="M.828.355H.118A.127.127,0,0,1,0,.237V.118A.127.127,0,0,1,.118,0h.71A.127.127,0,0,1,.946.118V.237A.127.127,0,0,1,.828.355Z" transform="translate(0.177 2.247)" fill="#c5c5c5" fill-rule="evenodd"/>
        </g>
        <g id="组_271-4" data-name="组 271" transform="translate(0 9.004)">
          <rect id="矩形_57-15" data-name="矩形 57" width="0.917" height="1.626" transform="translate(0.739 0.562)"/>
          <rect id="矩形_58-15" data-name="矩形 58" width="0.651" height="1.39" transform="translate(0.857 0.71)" fill="url(#linear-gradient-17)"/>
          <path id="路径_201-15" data-name="路径 201" d="M.266,2.779h.8a.265.265,0,0,0,.266-.266V.266A.265.265,0,0,0,1.064,0h-.8A.265.265,0,0,0,0,.266V2.513A.265.265,0,0,0,.266,2.779Z" transform="translate(0 0)" fill-rule="evenodd"/>
          <path id="路径_202-15" data-name="路径 202" d="M.148,2.543h.8A.14.14,0,0,0,1.094,2.4V.148A.14.14,0,0,0,.946,0h-.8A.14.14,0,0,0,0,.148V2.4C.03,2.454.089,2.543.148,2.543Z" transform="translate(0.118 0.118)" fill-rule="evenodd" fill="url(#linear-gradient-18)"/>
          <path id="路径_203-15" data-name="路径 203" d="M.828.65H.118A.127.127,0,0,1,0,.532V.118A.127.127,0,0,1,.118,0h.71A.127.127,0,0,1,.946.118V.532A.108.108,0,0,1,.828.65Z" transform="translate(0.177 0.177)" fill="#666" fill-rule="evenodd"/>
          <path id="路径_204-15" data-name="路径 204" d="M.828,1.242H.118A.127.127,0,0,1,0,1.124V.118A.127.127,0,0,1,.118,0h.71A.127.127,0,0,1,.946.118V1.124A.127.127,0,0,1,.828,1.242Z" transform="translate(0.177 0.917)" fill="#898989" fill-rule="evenodd"/>
          <path id="路径_205-15" data-name="路径 205" d="M.828.355H.118A.127.127,0,0,1,0,.237V.118A.127.127,0,0,1,.118,0h.71A.127.127,0,0,1,.946.118V.237A.127.127,0,0,1,.828.355Z" transform="translate(0.177 2.247)" fill="#c5c5c5" fill-rule="evenodd"/>
        </g>
        <g id="组_272-4" data-name="组 272" transform="translate(0 1.611)">
          <rect id="矩形_57-16" data-name="矩形 57" width="0.917" height="1.626" transform="translate(0.739 0.562)"/>
          <rect id="矩形_58-16" data-name="矩形 58" width="0.651" height="1.39" transform="translate(0.857 0.71)" fill="url(#linear-gradient-17)"/>
          <path id="路径_201-16" data-name="路径 201" d="M.266,2.779h.8a.265.265,0,0,0,.266-.266V.266A.265.265,0,0,0,1.064,0h-.8A.265.265,0,0,0,0,.266V2.513A.265.265,0,0,0,.266,2.779Z" transform="translate(0 0)" fill-rule="evenodd"/>
          <path id="路径_202-16" data-name="路径 202" d="M.148,2.543h.8A.14.14,0,0,0,1.094,2.4V.148A.14.14,0,0,0,.946,0h-.8A.14.14,0,0,0,0,.148V2.4C.03,2.454.089,2.543.148,2.543Z" transform="translate(0.118 0.118)" fill-rule="evenodd" fill="url(#linear-gradient-18)"/>
          <path id="路径_203-16" data-name="路径 203" d="M.828.65H.118A.127.127,0,0,1,0,.532V.118A.127.127,0,0,1,.118,0h.71A.127.127,0,0,1,.946.118V.532A.108.108,0,0,1,.828.65Z" transform="translate(0.177 0.177)" fill="#666" fill-rule="evenodd"/>
          <path id="路径_204-16" data-name="路径 204" d="M.828,1.242H.118A.127.127,0,0,1,0,1.124V.118A.127.127,0,0,1,.118,0h.71A.127.127,0,0,1,.946.118V1.124A.127.127,0,0,1,.828,1.242Z" transform="translate(0.177 0.917)" fill="#898989" fill-rule="evenodd"/>
          <path id="路径_205-16" data-name="路径 205" d="M.828.355H.118A.127.127,0,0,1,0,.237V.118A.127.127,0,0,1,.118,0h.71A.127.127,0,0,1,.946.118V.237A.127.127,0,0,1,.828.355Z" transform="translate(0.177 2.247)" fill="#c5c5c5" fill-rule="evenodd"/>
        </g>
      </g>
    </g>
  </g>
</svg>
