<svg xmlns="http://www.w3.org/2000/svg" xmlns:xlink="http://www.w3.org/1999/xlink" width="72" height="72" viewBox="0 0 72 72">
  <defs>
    <linearGradient id="linear-gradient" x1="0.048" y1="0.5" x2="0.949" y2="0.5" gradientUnits="objectBoundingBox">
      <stop offset="0" stop-color="#231815"/>
      <stop offset="0.5" stop-color="#e8e9e9"/>
      <stop offset="0.78" stop-color="#9e9e9f"/>
      <stop offset="1" stop-color="#484545"/>
    </linearGradient>
    <linearGradient id="linear-gradient-2" x1="-0.072" y1="0.5" x2="1.615" y2="0.5" gradientUnits="objectBoundingBox">
      <stop offset="0" stop-color="#231815"/>
      <stop offset="0.38" stop-color="#9e9e9f"/>
      <stop offset="0.86" stop-color="#e8e9e9"/>
      <stop offset="1" stop-color="#484545"/>
    </linearGradient>
    <radialGradient id="radial-gradient" cx="0.162" cy="0.299" r="0.662" gradientTransform="translate(0.057) scale(0.887 1)" gradientUnits="objectBoundingBox">
      <stop offset="0" stop-color="#fff"/>
      <stop offset="1" stop-color="#9fa0a0"/>
    </radialGradient>
    <radialGradient id="radial-gradient-2" cx="0.159" cy="0.299" r="0.662" xlink:href="#radial-gradient"/>
    <linearGradient id="linear-gradient-5" x1="1.097" y1="0.525" x2="0.039" y2="0.525" gradientUnits="objectBoundingBox">
      <stop offset="0" stop-color="#191818"/>
      <stop offset="0.24" stop-color="#9d9d9e"/>
      <stop offset="0.51" stop-color="#f6f6f6"/>
      <stop offset="0.72" stop-color="#9d9d9e"/>
      <stop offset="1" stop-color="#4f4c4b"/>
    </linearGradient>
    <linearGradient id="linear-gradient-6" x1="0.462" y1="0.31" x2="0.545" y2="0.812" gradientUnits="objectBoundingBox">
      <stop offset="0" stop-color="#9fa0a0"/>
      <stop offset="1" stop-color="#fff"/>
    </linearGradient>
    <linearGradient id="linear-gradient-7" x1="0.479" y1="0.311" x2="0.548" y2="0.811" gradientUnits="objectBoundingBox">
      <stop offset="0" stop-color="#7b7a7b"/>
      <stop offset="1" stop-color="#c3c4c4"/>
    </linearGradient>
    <linearGradient id="linear-gradient-8" x1="0.467" y1="0.28" x2="0.533" y2="0.722" gradientUnits="objectBoundingBox">
      <stop offset="0" stop-color="#8d8d8e"/>
      <stop offset="1" stop-color="#e2e2e3"/>
    </linearGradient>
    <linearGradient id="linear-gradient-9" x1="0.528" y1="0.311" x2="0.472" y2="0.813" xlink:href="#linear-gradient-6"/>
    <linearGradient id="linear-gradient-10" x1="0.512" y1="0.312" x2="0.478" y2="0.812" xlink:href="#linear-gradient-7"/>
    <linearGradient id="linear-gradient-11" x1="0.521" y1="0.28" x2="0.489" y2="0.722" xlink:href="#linear-gradient-8"/>
    <linearGradient id="linear-gradient-12" x1="1.059" y1="0.638" x2="0.006" y2="0.291" gradientUnits="objectBoundingBox">
      <stop offset="0"/>
      <stop offset="0.19" stop-color="#9fa0a0"/>
      <stop offset="0.4" stop-color="#e9eaea"/>
      <stop offset="0.68" stop-color="#9fa0a0"/>
      <stop offset="1" stop-color="#494645"/>
    </linearGradient>
    <linearGradient id="linear-gradient-13" x1="1.094" y1="0.492" x2="0.048" y2="0.492" xlink:href="#linear-gradient-5"/>
    <linearGradient id="linear-gradient-14" x1="0.723" y1="0.773" x2="0.122" y2="0.278" xlink:href="#linear-gradient-6"/>
    <radialGradient id="radial-gradient-3" cx="0.161" cy="0.287" r="0.618" gradientTransform="translate(-0.064) scale(1.129 1)" xlink:href="#radial-gradient"/>
    <linearGradient id="linear-gradient-15" x1="0.276" y1="0.761" x2="0.879" y2="0.3" xlink:href="#linear-gradient-6"/>
    <radialGradient id="radial-gradient-4" cx="0.163" cy="0.289" r="0.623" gradientTransform="translate(-0.054) scale(1.107 1)" xlink:href="#radial-gradient"/>
    <radialGradient id="radial-gradient-5" cx="0.16" cy="0.289" r="0.612" gradientTransform="translate(-0.005) scale(1.01 1)" xlink:href="#radial-gradient"/>
    <linearGradient id="linear-gradient-16" x1="0.5" y1="0.93" x2="0.5" y2="-0.097" gradientUnits="objectBoundingBox">
      <stop offset="0" stop-color="#727272"/>
      <stop offset="0.17" stop-color="#b9b9b9"/>
      <stop offset="0.35" stop-color="#e9e9e9"/>
      <stop offset="0.48" stop-color="#f7f7f7"/>
      <stop offset="0.58" stop-color="#fefefe"/>
      <stop offset="0.71" stop-color="#bbb"/>
      <stop offset="0.82" stop-color="#6b6b6b"/>
      <stop offset="1" stop-color="#d9d9d9"/>
    </linearGradient>
    <linearGradient id="linear-gradient-17" x1="0.93" y1="0.5" x2="-0.097" y2="0.5" gradientUnits="objectBoundingBox">
      <stop offset="0" stop-color="#6a6a6a"/>
      <stop offset="0.17" stop-color="#adadad"/>
      <stop offset="0.35" stop-color="#ebebeb"/>
      <stop offset="0.48" stop-color="#f6f6f6"/>
      <stop offset="0.58" stop-color="#fefefe"/>
      <stop offset="0.71" stop-color="#b8b8b8"/>
      <stop offset="0.82" stop-color="#747474"/>
      <stop offset="1" stop-color="#d8d8d8"/>
    </linearGradient>
    <linearGradient id="linear-gradient-18" x1="0.501" y1="0.941" x2="0.501" y2="-0.134" gradientUnits="objectBoundingBox">
      <stop offset="0" stop-color="#6c6c6c"/>
      <stop offset="0.21" stop-color="#b1b1b1"/>
      <stop offset="0.3" stop-color="#ececec"/>
      <stop offset="0.36" stop-color="#f7f7f7"/>
      <stop offset="0.5" stop-color="#fefefe"/>
      <stop offset="0.71" stop-color="#bcbcbc"/>
      <stop offset="0.82" stop-color="#787878"/>
      <stop offset="1" stop-color="#d7d7d7"/>
    </linearGradient>
    <linearGradient id="linear-gradient-19" x1="0.494" y1="0.059" x2="0.494" y2="1.077" gradientUnits="objectBoundingBox">
      <stop offset="0" stop-color="#696969"/>
      <stop offset="0.17" stop-color="#afafaf"/>
      <stop offset="0.35" stop-color="#efefef"/>
      <stop offset="0.48" stop-color="#f8f8f8"/>
      <stop offset="0.58" stop-color="#fefefe"/>
      <stop offset="0.71" stop-color="#b7b7b7"/>
      <stop offset="0.82" stop-color="#737373"/>
      <stop offset="1" stop-color="#dcdcdc"/>
    </linearGradient>
    <linearGradient id="linear-gradient-20" x1="0.5" y1="0.071" x2="0.5" y2="1.091" gradientUnits="objectBoundingBox">
      <stop offset="0" stop-color="#6b6b6b"/>
      <stop offset="0.17" stop-color="#adadad"/>
      <stop offset="0.35" stop-color="#ededed"/>
      <stop offset="0.48" stop-color="#f7f7f7"/>
      <stop offset="0.58" stop-color="#fefefe"/>
      <stop offset="0.71" stop-color="#b9b9b9"/>
      <stop offset="0.82" stop-color="#707070"/>
      <stop offset="1" stop-color="#d0d0d0"/>
    </linearGradient>
    <linearGradient id="linear-gradient-27" x1="0.942" y1="0.5" x2="-0.133" y2="0.5" gradientUnits="objectBoundingBox">
      <stop offset="0" stop-color="#6d6d6d"/>
      <stop offset="0.21" stop-color="#b2b2b2"/>
      <stop offset="0.3" stop-color="#ebebeb"/>
      <stop offset="0.36" stop-color="#f9f9f9"/>
      <stop offset="0.5" stop-color="#fefefe"/>
      <stop offset="0.71" stop-color="#bbb"/>
      <stop offset="0.82" stop-color="#717171"/>
      <stop offset="1" stop-color="#d5d5d5"/>
    </linearGradient>
    <linearGradient id="linear-gradient-37" x1="0.5" y1="-0.07" x2="0.5" y2="0.855" gradientUnits="objectBoundingBox">
      <stop offset="0" stop-color="#818181"/>
      <stop offset="0.142" stop-color="#777"/>
      <stop offset="0.405" stop-color="#fdfdfd"/>
      <stop offset="0.68" stop-color="#d8d8d8"/>
      <stop offset="1" stop-color="#737373"/>
    </linearGradient>
  </defs>
  <g id="_09" data-name="09" transform="translate(0 0)">
    <g id="组_1692" data-name="组 1692" transform="translate(-2973.186 249.176)">
      <g id="组_1380" data-name="组 1380" transform="translate(3007.676 -239.256)">
        <g id="组_1379" data-name="组 1379" transform="translate(0 0)">
          <path id="路径_3298" data-name="路径 3298" d="M305.011,325.822h0a.58.58,0,0,1,.061.172c.041.219-.031.422-.174.469v.984a.452.452,0,0,1,.143.219c0,.016.01.016.01.031a.438.438,0,0,1-.082.5c-.02.016-.051.031-.071.047v1a.378.378,0,0,1,.122.156.368.368,0,0,1,.061.219c.02.2-.051.375-.184.406v.938a.414.414,0,0,1,.1.109l.02.031a.332.332,0,0,1,.061.172c0,.016.01.047.01.063a.8.8,0,0,1-.572.281h-1.99a.939.939,0,0,1-.3-.063V330.9c-.01,0-.031-.016-.041-.016-.388-.188-.388-.891.051-.828l.01-.875a.03.03,0,0,1-.031-.016c-.378-.125-.429-.891.041-.844l.01-.938c-.01,0-.031-.016-.041-.016-.4-.156-.367-.953.051-.859l.01-.922c-.01,0-.031-.016-.041-.016-.4-.156-.367-.969.051-.875,0-.313.01-.625.01-.953-.01,0-.031-.016-.041-.016a.609.609,0,0,1-.276-.391.552.552,0,0,1,.061-.406.169.169,0,0,1,.041-.047.274.274,0,0,1,.235-.062l.01-.984c-.02,0-.031-.016-.051-.016-.367-.172-.388-.984.051-.922l.01-1.016c-.439-.172-.449-1.063.01-.969l.01-1.031c-.01,0-.031-.016-.041-.016-.388-.141-.4-1.047.051-.969l.01-1.078c-.01,0-.031-.016-.041-.016a.706.706,0,0,1-.194-.922.259.259,0,0,1,.245-.094v-.375a.446.446,0,0,1,.143-.016h2a.7.7,0,0,1,.449.172.4.4,0,0,1-.122.125v1.188c.214.2.276.8,0,.906v1.156c.235.219.245.781,0,.891v1.109c.225.2.276.734,0,.844V321.9a.578.578,0,0,1,.133.2l.031.094c.051.234-.01.469-.163.531v1.063a.578.578,0,0,1,.133.2.222.222,0,0,1,.031.109.426.426,0,0,1-.163.5v1.031A1.093,1.093,0,0,1,305.011,325.822Z" transform="translate(-301.91 -314.4)" fill="#231815" fill-rule="evenodd"/>
          <path id="路径_3299" data-name="路径 3299" d="M308.062,323.319v.484c0,.656,0,1.313.01,1.953s0,1.266.01,1.906v1.859c0,.609,0,1.219.01,1.8v.406a.632.632,0,0,1-.337.094h-2a.736.736,0,0,1-.255-.047v-.453c.01-.594.01-1.2.02-1.8.01-.609.01-1.234.02-1.859s.01-1.266.02-1.906.01-1.3.02-1.953v-.484c.01-.672.01-1.344.02-2.016.01-.687.01-1.375.02-2.078s.01-1.422.02-2.125c.01-.734.01-1.453.02-2.2v-.281c.031,0,.071-.016.1-.016h2a.879.879,0,0,1,.286.063v.219c0,.734,0,1.469.01,2.2,0,.719,0,1.422.01,2.125s0,1.391.01,2.078C308.062,321.975,308.062,322.647,308.062,323.319Z" transform="translate(-305.134 -314.58)" fill-rule="evenodd" fill="url(#linear-gradient)"/>
          <path id="路径_3300" data-name="路径 3300" d="M305.156,316.069c.327,0,.469,1-.01.875-.122-.031-.6-.234-1.1-.453l-1.245-.547a.614.614,0,0,1-.174-.8c.061-.078.2-.125.276-.031.02.031.572.25,1.123.485.541.2,1.092.438,1.133.469Zm-.572-1.469h.4a.7.7,0,0,1,.418.141.253.253,0,0,1-.265.109H305.1a4.808,4.808,0,0,0-.469-.234l-.051-.016Zm.929,16.975a.873.873,0,0,1-.4.234c-.327-.109-.755-.234-1.184-.344a8.18,8.18,0,0,1-1.266-.438c-.337-.172-.357-.766.051-.7h.051c.02.031.561.2,1.133.391s1.153.375,1.276.406a.463.463,0,0,1,.337.453Zm-.367-7.612c.439.109.449.953-.01.782-.174-.062-.735-.266-1.266-.453a11.789,11.789,0,0,1-1.133-.438.519.519,0,0,1-.174-.735c.082-.078.174-.047.265-.047a9.648,9.648,0,0,0,1.092.438c.541.2,1.123.406,1.225.453Zm.02,5.439c-.122-.047-.7-.234-1.266-.422a11.212,11.212,0,0,1-1.123-.406h-.031c-.47-.078-.388.61-.061.719.408.141.827.281,1.235.422s.816.281,1.225.406c.449.2.48-.61.02-.719Zm-.031-11.285c-.112-.047-.674-.266-1.2-.485a11.354,11.354,0,0,1-1.061-.469h-.041c-.418-.109-.4.7-.061.828.4.156.786.328,1.174.484s.776.313,1.164.485c.408.25.51-.719.031-.844Zm.02,7.69c-.388-.141-.786-.281-1.174-.422s-.786-.281-1.184-.422c-.418-.156-.449.594-.092.735.4.156.806.3,1.215.453.408.141.816.281,1.215.422.469.172.459-.656.02-.766Zm-.01-3.736c.418.094.449.953.01.813-.4-.156-.806-.313-1.2-.453-.408-.156-.806-.313-1.215-.469-.337-.156-.347-.86.051-.8h.041a9.078,9.078,0,0,0,1.082.438c.551.2,1.123.422,1.235.469Zm-2.337-2.063c-.4-.156-.418-.938,0-.828h.051a11.934,11.934,0,0,0,1.1.469c.551.219,1.123.438,1.255.485.337.141.378.891-.061.8h-.031a10.97,10.97,0,0,0-1.123-.453,8.953,8.953,0,0,1-1.194-.469Zm2.368,7.612c.194-.031.48.485.235.7-.082.078-.163.031-.255.031a10.832,10.832,0,0,0-1.133-.406c-.572-.188-1.184-.406-1.317-.453-.367-.141-.337-.875.092-.719l1.194.422C304.38,327.339,304.778,327.479,305.176,327.62Z" transform="translate(-302.36 -314.58)" fill-rule="evenodd" fill="url(#linear-gradient-2)"/>
          <path id="路径_3301" data-name="路径 3301" d="M303.378,318.3c.194.079.388.159.582.254.194.079.388.159.582.254.194.079.388.159.582.254l.582.238s.01,0,.02.016h.01c.01,0,.01,0,.02.016h.02a.288.288,0,0,1,.143.159.526.526,0,0,1,.051.222.3.3,0,0,1-.01.1.616.616,0,0,0-.041-.127.354.354,0,0,0-.143-.159h-.051c-.01,0-.01,0-.02-.016l-.582-.238-.582-.238c-.194-.079-.388-.159-.582-.254-.194-.079-.388-.159-.582-.254h-.041a.11.11,0,0,0-.153.032c-.02.016-.031.064-.041.1a.357.357,0,0,1-.01-.111.261.261,0,0,1,.051-.175.11.11,0,0,1,.153-.032h.02c.01-.032.01-.032.02-.032Zm-.072,8.119c.2.079.4.159.6.222.2.079.4.143.6.222s.408.143.6.222.408.143.6.222h.02c.01,0,.01,0,.02.016h.02c.01,0,.01,0,.02.016a.3.3,0,0,1,.153.143.445.445,0,0,1,.051.191.175.175,0,0,1-.01.079.491.491,0,0,0-.041-.111.222.222,0,0,0-.153-.127c-.01,0-.01,0-.02-.016h-.02c-.01,0-.01,0-.02-.016h-.02c-.2-.079-.408-.143-.6-.222s-.408-.143-.6-.222-.4-.143-.6-.222-.4-.143-.6-.222h-.041a.146.146,0,0,0-.163.016.165.165,0,0,0-.041.079.3.3,0,0,1-.01-.1.333.333,0,0,1,.051-.175.143.143,0,0,1,.163-.016h.02c.01,0,.01,0,.02.016Zm-.041,5.593c.2.064.408.143.623.207s.408.143.623.207.418.127.623.207c.2.064.418.127.623.207h.041c.01,0,.01,0,.02.016h.02a.27.27,0,0,1,.153.127.381.381,0,0,1,.051.175.213.213,0,0,1-.01.079.383.383,0,0,0-.041-.1.245.245,0,0,0-.153-.127h-.082c-.2-.079-.418-.143-.623-.207-.2-.079-.418-.143-.623-.207s-.418-.143-.623-.207-.408-.143-.623-.207h-.041a.143.143,0,0,0-.163.016.165.165,0,0,0-.041.079.259.259,0,0,1-.01-.079.244.244,0,0,1,.051-.159.143.143,0,0,1,.163-.016h.02c.01-.032.01-.032.02-.016Zm-.02,1.764c.2.064.418.143.623.207s.418.127.623.207c.2.064.418.143.623.207s.418.127.623.207h.02c.01,0,.01,0,.02.016h.041a.316.316,0,0,1,.214.3.213.213,0,0,1-.01.079.383.383,0,0,0-.041-.1.245.245,0,0,0-.153-.127h-.082c-.2-.064-.418-.143-.623-.207s-.418-.143-.623-.207-.418-.127-.623-.207c-.2-.064-.418-.143-.623-.207h-.041a.143.143,0,0,0-.163.016.165.165,0,0,0-.041.079.259.259,0,0,1-.01-.079.279.279,0,0,1,.051-.159.146.146,0,0,1,.163-.016h.02c0-.032,0-.032.01-.016Zm.112-13.362c.194.079.388.159.592.238s.388.159.592.238.388.159.592.238.4.159.592.238h.041s.01,0,.02.016h.02a.4.4,0,0,1,.153.143.513.513,0,0,1,.051.207.305.305,0,0,1-.01.1.492.492,0,0,0-.041-.111.245.245,0,0,0-.153-.143h-.082c-.194-.079-.4-.159-.592-.238s-.4-.159-.592-.238-.388-.159-.592-.238l-.582-.238h-.041a.11.11,0,0,0-.153.032.162.162,0,0,0-.041.1.3.3,0,0,1-.01-.1.348.348,0,0,1,.051-.191c.031-.048.082-.048.153-.032h.02c0-.032,0-.032.01-.016Zm-.061,7.9c.2.079.408.143.612.222s.408.143.612.222c.2.064.408.143.612.222s.408.143.612.222h.02c.01,0,.01,0,.02.016h.02c.01,0,.01,0,.02.016a.349.349,0,0,1,.153.127.444.444,0,0,1,.051.191.176.176,0,0,1-.01.079.49.49,0,0,0-.041-.111.222.222,0,0,0-.153-.127c-.01,0-.01,0-.02-.016h-.02c-.01,0-.01,0-.02-.016h-.02c-.2-.079-.408-.143-.612-.222-.2-.064-.408-.143-.612-.222-.2-.064-.408-.143-.612-.222s-.408-.143-.612-.222h-.041c-.071-.016-.122-.016-.163.032a.165.165,0,0,0-.041.079.26.26,0,0,1-.01-.079.244.244,0,0,1,.051-.159.176.176,0,0,1,.163-.032h.041Zm.031-3.845c.2.079.4.159.6.238s.4.159.6.222c.2.079.4.159.6.222.2.079.4.143.6.222h.02c.01,0,.01,0,.02.016h.041a.3.3,0,0,1,.153.143.456.456,0,0,1,.051.207.175.175,0,0,1-.01.079.488.488,0,0,0-.041-.111.3.3,0,0,0-.153-.143h-.041c-.01,0-.01,0-.02-.016h-.02c-.2-.079-.4-.159-.6-.223-.2-.079-.4-.159-.6-.222-.2-.079-.4-.159-.6-.222-.2-.079-.4-.159-.6-.238h-.041a.146.146,0,0,0-.163.016.231.231,0,0,0-.041.1.3.3,0,0,1-.01-.1.332.332,0,0,1,.051-.175.143.143,0,0,1,.163-.016h.041Zm.01-2c.194.079.4.159.592.238s.4.159.592.238.4.159.592.238.4.159.6.238h.02c.01,0,.01,0,.02.016h.041a.34.34,0,0,1,.153.143.513.513,0,0,1,.051.207.175.175,0,0,1-.01.079.492.492,0,0,0-.041-.111.245.245,0,0,0-.153-.143h-.041c-.01,0-.01,0-.02-.016h-.02c-.2-.079-.4-.159-.592-.238s-.4-.159-.592-.238-.4-.159-.592-.238-.4-.159-.592-.238h-.041a.127.127,0,0,0-.153.016.163.163,0,0,0-.041.1.3.3,0,0,1-.01-.1.293.293,0,0,1,.051-.175.127.127,0,0,1,.153-.016h.031Zm-.061,7.706c.2.079.408.143.612.222s.408.143.612.207c.2.079.408.143.612.207s.408.143.612.207h.082a.35.35,0,0,1,.153.127.444.444,0,0,1,.051.191.213.213,0,0,1-.01.079,1.135,1.135,0,0,0-.041-.111.222.222,0,0,0-.153-.127c-.01,0-.01,0-.02-.016h-.061c-.2-.064-.408-.143-.612-.207s-.408-.143-.612-.207-.408-.143-.612-.207c-.2-.079-.408-.143-.612-.207h-.041a.123.123,0,0,0-.163.032.164.164,0,0,0-.041.079.3.3,0,0,1-.01-.1.244.244,0,0,1,.051-.159.176.176,0,0,1,.163-.032h.02c.01.016.01.016.02.016Z" transform="translate(-302.889 -317.902)" fill="#f7f7f7" fill-rule="evenodd"/>
        </g>
      </g>
      <g id="组_1381" data-name="组 1381" transform="translate(3008.535 -249.176)">
        <g id="组_1379-2" data-name="组 1379" transform="translate(0 0)">
          <path id="路径_3298-2" data-name="路径 3298" d="M303.337,319.657h0a.266.266,0,0,1,.028.079c.019.1-.014.194-.08.216v.453a.208.208,0,0,1,.066.1c0,.007,0,.007,0,.014a.2.2,0,0,1-.038.23c-.009.007-.023.014-.033.022v.46a.174.174,0,0,1,.056.072.169.169,0,0,1,.028.1c.009.094-.023.173-.085.187v.432a.191.191,0,0,1,.047.05l.009.014a.153.153,0,0,1,.028.079c0,.007,0,.022,0,.029a.367.367,0,0,1-.263.129H302.2a.433.433,0,0,1-.136-.029v-.3s-.014-.007-.019-.007c-.178-.086-.178-.41.023-.381l0-.4a.014.014,0,0,1-.014-.007c-.174-.058-.2-.41.019-.388l0-.431s-.014-.007-.019-.007c-.183-.072-.169-.439.023-.4l0-.424s-.014-.007-.019-.007c-.183-.072-.169-.446.023-.4,0-.144,0-.288,0-.439,0,0-.014-.007-.019-.007a.28.28,0,0,1-.127-.18.254.254,0,0,1,.028-.187.077.077,0,0,1,.019-.022.126.126,0,0,1,.108-.029l0-.453c-.009,0-.014-.007-.023-.007-.169-.079-.178-.453.023-.424l0-.467c-.2-.079-.207-.489,0-.446l0-.475s-.014-.007-.019-.007c-.179-.065-.183-.482.023-.446l0-.5s-.014-.007-.019-.007a.325.325,0,0,1-.089-.424.119.119,0,0,1,.113-.043v-.173a.205.205,0,0,1,.066-.007h.921a.323.323,0,0,1,.207.079.187.187,0,0,1-.056.058v.547c.1.094.127.367,0,.417v.532c.108.1.113.36,0,.41v.511c.1.093.127.338,0,.388v.511a.267.267,0,0,1,.061.093l.014.043c.023.108,0,.216-.075.245v.489a.267.267,0,0,1,.061.094.1.1,0,0,1,.014.05.2.2,0,0,1-.075.23v.475A.5.5,0,0,1,303.337,319.657Z" transform="translate(-301.91 -314.4)" fill="#231815" fill-rule="evenodd"/>
          <path id="路径_3299-2" data-name="路径 3299" d="M306.679,318.613v.223c0,.3,0,.6,0,.9s0,.583,0,.877v.856c0,.28,0,.561,0,.827v.187a.291.291,0,0,1-.155.043h-.921a.338.338,0,0,1-.117-.022V322.3c0-.273,0-.554.009-.827s0-.568.009-.856,0-.583.009-.877,0-.6.009-.9v-.223c0-.309,0-.618.009-.928s0-.633.009-.957,0-.654.009-.978,0-.669.009-1.014v-.129c.014,0,.033-.007.047-.007h.921a.4.4,0,0,1,.132.029v.1c0,.338,0,.676,0,1.014s0,.654,0,.978,0,.64,0,.957S306.679,318.3,306.679,318.613Z" transform="translate(-305.331 -314.591)" fill-rule="evenodd" fill="url(#linear-gradient)"/>
          <path id="路径_3300-2" data-name="路径 3300" d="M303.674,315.276c.15,0,.216.46,0,.4-.056-.014-.277-.108-.507-.209l-.573-.252a.282.282,0,0,1-.08-.367c.028-.036.094-.058.127-.014.009.014.263.115.517.223s.5.2.521.216Zm-.263-.676h.183a.322.322,0,0,1,.193.065.116.116,0,0,1-.122.05h-.014a2.185,2.185,0,0,0-.216-.108l-.023-.007Zm.427,7.813a.4.4,0,0,1-.183.108c-.15-.05-.348-.108-.545-.158a3.757,3.757,0,0,1-.583-.2c-.155-.079-.164-.352.023-.324h.023c.009.014.258.094.521.18s.531.173.587.187a.213.213,0,0,1,.155.209Zm-.169-3.5c.2.05.207.439,0,.36-.08-.029-.338-.122-.582-.209a5.428,5.428,0,0,1-.521-.2.239.239,0,0,1-.08-.338c.038-.036.08-.022.122-.022a4.438,4.438,0,0,0,.5.2c.249.094.517.187.564.209Zm.009,2.5c-.056-.022-.324-.108-.582-.194a5.149,5.149,0,0,1-.517-.187h-.014c-.216-.036-.179.281-.028.331l.568.194c.188.065.376.129.564.187.207.094.221-.281.009-.331Zm-.014-5.194c-.052-.022-.31-.122-.554-.223a5.218,5.218,0,0,1-.489-.216H302.6c-.193-.05-.183.324-.028.381.183.072.362.151.54.223s.357.144.535.223c.188.115.235-.331.014-.388Zm.009,3.539-.54-.194-.545-.194c-.193-.072-.207.273-.042.338.183.072.371.137.559.209s.376.13.559.194c.216.079.211-.3.009-.353Zm0-1.719c.193.043.207.439,0,.374-.183-.072-.371-.144-.554-.209l-.559-.216c-.155-.072-.16-.4.023-.367h.019a4.163,4.163,0,0,0,.5.2c.254.094.517.194.568.216Zm-1.076-.95c-.183-.072-.193-.432,0-.381h.023a5.484,5.484,0,0,0,.507.216c.254.1.517.2.578.223.155.065.174.41-.028.367h-.014a5.062,5.062,0,0,0-.517-.209,4.111,4.111,0,0,1-.55-.216Zm1.09,3.5c.089-.014.221.223.108.324-.038.036-.075.014-.117.014a4.98,4.98,0,0,0-.521-.187c-.263-.086-.545-.187-.606-.209-.169-.065-.155-.4.042-.331l.55.194C303.317,320.463,303.5,320.528,303.684,320.593Z" transform="translate(-302.388 -314.591)" fill-rule="evenodd" fill="url(#linear-gradient-2)"/>
          <path id="路径_3301-2" data-name="路径 3301" d="M303.174,318.3c.089.037.178.073.268.117s.179.073.268.117.179.073.268.117l.268.11s0,0,.009.007h0s0,0,.009.007h.009a.133.133,0,0,1,.066.073.242.242,0,0,1,.023.1.14.14,0,0,1,0,.044.281.281,0,0,0-.019-.058.163.163,0,0,0-.066-.073h-.023s0,0-.009-.007l-.268-.11-.268-.11c-.089-.037-.178-.073-.268-.117s-.178-.073-.268-.117h-.019a.051.051,0,0,0-.07.015c-.009.007-.014.029-.019.044a.163.163,0,0,1,0-.051.12.12,0,0,1,.024-.08.051.051,0,0,1,.07-.015h.009c0-.015,0-.015.009-.015Zm-.033,3.737c.094.037.183.073.277.1s.183.066.277.1.188.066.277.1.188.066.277.1h.009s0,0,.009.007h.009s0,0,.009.007a.136.136,0,0,1,.07.066.2.2,0,0,1,.023.088.081.081,0,0,1,0,.037.228.228,0,0,0-.019-.051.1.1,0,0,0-.07-.059s0,0-.009-.007h-.009s0,0-.009-.007h-.009c-.094-.037-.188-.066-.277-.1s-.188-.066-.277-.1-.183-.066-.277-.1-.183-.066-.277-.1h-.019a.067.067,0,0,0-.075.007.076.076,0,0,0-.019.037.14.14,0,0,1,0-.044.153.153,0,0,1,.024-.08.066.066,0,0,1,.075-.007h.009s0,0,.009.007Zm-.019,2.574c.094.029.188.066.287.1s.188.066.287.1.193.059.287.1.193.059.287.1h.019s0,0,.009.007h.009a.125.125,0,0,1,.07.059.175.175,0,0,1,.023.08.1.1,0,0,1,0,.037.179.179,0,0,0-.019-.044.113.113,0,0,0-.07-.059h-.038c-.094-.037-.193-.066-.287-.1s-.193-.066-.287-.1-.193-.066-.287-.1-.188-.066-.287-.1H303.1a.066.066,0,0,0-.075.007.076.076,0,0,0-.019.037.119.119,0,0,1,0-.037.113.113,0,0,1,.023-.073.066.066,0,0,1,.075-.007h.009c0-.015,0-.015.009-.007Zm-.009.812c.094.029.193.066.287.1s.193.059.287.1.193.066.287.1.193.058.287.1h.009s0,0,.009.007h.019a.146.146,0,0,1,.1.139.1.1,0,0,1,0,.037.175.175,0,0,0-.019-.044.112.112,0,0,0-.07-.059h-.038c-.094-.029-.193-.066-.287-.1s-.193-.066-.287-.1-.193-.058-.287-.1-.193-.066-.287-.1H303.1a.066.066,0,0,0-.075.007.076.076,0,0,0-.019.037.12.12,0,0,1,0-.037.128.128,0,0,1,.023-.073.067.067,0,0,1,.075-.007h.009c0-.015,0-.015,0-.007Zm.052-6.15c.089.037.179.073.272.11s.179.073.272.11.179.073.272.11l.272.11h.019s0,0,.009.007h.009a.185.185,0,0,1,.07.066.236.236,0,0,1,.023.1.141.141,0,0,1,0,.044.228.228,0,0,0-.019-.051.113.113,0,0,0-.07-.066h-.038l-.272-.11-.272-.11c-.089-.037-.178-.073-.272-.11l-.268-.11h-.019a.051.051,0,0,0-.07.015.075.075,0,0,0-.019.044.14.14,0,0,1,0-.044.161.161,0,0,1,.023-.088c.014-.022.038-.022.07-.015h.009c0-.015,0-.015,0-.007Zm-.028,3.635c.094.037.188.066.282.1s.188.066.282.1.188.066.282.1.188.066.282.1h.009s0,0,.009.007h.009s0,0,.009.007a.16.16,0,0,1,.07.059.2.2,0,0,1,.024.088.08.08,0,0,1,0,.037.224.224,0,0,0-.019-.051.1.1,0,0,0-.07-.059s0,0-.009-.007h-.009s0,0-.009-.007h-.009c-.094-.037-.188-.066-.282-.1s-.188-.066-.282-.1-.188-.066-.282-.1-.188-.066-.282-.1h-.019c-.033-.007-.056-.007-.075.015a.076.076,0,0,0-.019.037.12.12,0,0,1,0-.037.112.112,0,0,1,.023-.073.081.081,0,0,1,.075-.015h.019Zm.014-1.77.277.11c.094.037.183.073.277.1s.183.073.277.1.183.066.277.1h.009s0,0,.009.007h.019a.136.136,0,0,1,.07.066.21.21,0,0,1,.023.1.081.081,0,0,1,0,.037.223.223,0,0,0-.019-.051.136.136,0,0,0-.07-.066h-.019s0,0-.009-.007h-.009c-.094-.037-.183-.073-.277-.1s-.183-.073-.277-.1-.183-.073-.277-.1l-.277-.11h-.019a.067.067,0,0,0-.075.007.106.106,0,0,0-.019.044.14.14,0,0,1,0-.044.153.153,0,0,1,.023-.08.066.066,0,0,1,.075-.007h.019Zm0-.921.272.11.272.11.272.11c.089.037.183.073.277.11h.009s0,0,.009.007h.019a.157.157,0,0,1,.07.066.237.237,0,0,1,.023.1.081.081,0,0,1,0,.037.228.228,0,0,0-.019-.051.113.113,0,0,0-.07-.066h-.019s0,0-.009-.007h-.009c-.094-.037-.183-.073-.272-.11l-.272-.11-.272-.11-.272-.11h-.019a.059.059,0,0,0-.07.007.075.075,0,0,0-.019.044.141.141,0,0,1,0-.044.135.135,0,0,1,.023-.08.058.058,0,0,1,.07-.007h.014Zm-.028,3.547c.094.037.188.066.282.1s.188.066.282.1.188.066.282.1.188.066.282.1h.038a.161.161,0,0,1,.07.059.2.2,0,0,1,.023.088.1.1,0,0,1,0,.037.524.524,0,0,0-.019-.051.1.1,0,0,0-.07-.058s0,0-.009-.007h-.028c-.094-.029-.188-.066-.282-.1s-.188-.066-.282-.1-.188-.066-.282-.1-.188-.066-.282-.1h-.019a.056.056,0,0,0-.075.015.076.076,0,0,0-.019.037.139.139,0,0,1,0-.044.113.113,0,0,1,.023-.073.081.081,0,0,1,.075-.015h.009c0,.007,0,.007.009.007Z" transform="translate(-302.949 -318.117)" fill="#f7f7f7" fill-rule="evenodd"/>
        </g>
      </g>
      <path id="路径_2716" data-name="路径 2716" d="M530.9,310.58a1.071,1.071,0,0,1-1.113,1.033,1.123,1.123,0,0,1-1.192-.98,1.071,1.071,0,0,1,1.113-1.033A1.123,1.123,0,0,1,530.9,310.58Z" transform="translate(2483.452 -551.946)" fill="#3e3a39" fill-rule="evenodd"/>
      <path id="路径_2717" data-name="路径 2717" d="M531.017,310.727a.987.987,0,0,1-1.033.954,1.015,1.015,0,0,1-1.086-.927,1,1,0,0,1,1.033-.954A1.034,1.034,0,0,1,531.017,310.727Z" transform="translate(2483.231 -552.093)" fill-rule="evenodd" fill="url(#radial-gradient)"/>
      <path id="路径_2718" data-name="路径 2718" d="M534.512,312.4a.253.253,0,0,1-.318-.079c-.079-.106-.026-.212.079-.291a.253.253,0,0,1,.318.079A.194.194,0,0,1,534.512,312.4Z" transform="translate(2479.365 -553.71)" fill="#f7f8f8" fill-rule="evenodd"/>
      <path id="路径_2719" data-name="路径 2719" d="M500.9,310.58a1.071,1.071,0,0,1-1.113,1.033,1.123,1.123,0,0,1-1.192-.98,1.071,1.071,0,0,1,1.113-1.033A1.089,1.089,0,0,1,500.9,310.58Z" transform="translate(2505.503 -551.946)" fill-rule="evenodd"/>
      <path id="路径_2720" data-name="路径 2720" d="M501.117,310.727a.987.987,0,0,1-1.033.954,1.015,1.015,0,0,1-1.086-.927,1,1,0,0,1,1.033-.954A1.052,1.052,0,0,1,501.117,310.727Z" transform="translate(2505.209 -552.093)" fill-rule="evenodd" fill="url(#radial-gradient-2)"/>
      <path id="路径_2721" data-name="路径 2721" d="M504.612,312.4a.245.245,0,0,1-.318-.079c-.079-.106-.026-.212.079-.291a.253.253,0,0,1,.318.079A.213.213,0,0,1,504.612,312.4Z" transform="translate(2501.344 -553.71)" fill="#f7f8f8" fill-rule="evenodd"/>
      <path id="路径_2756" data-name="路径 2756" d="M512.112,321.831H515l.238-.318-.027-.874L515,320.4h-2.888l-.212.238v.954Z" transform="translate(2495.724 -559.885)" fill="#727171" fill-rule="evenodd"/>
      <path id="路径_2757" data-name="路径 2757" d="M512.159,321.972H515.1l.159-.238v-.848l-.159-.185h-2.941l-.159.185v.9Z" transform="translate(2495.651 -560.105)" fill="#b5b5b6" fill-rule="evenodd"/>
      <path id="路径_2758" data-name="路径 2758" d="M513.395,322.027v-.795a.125.125,0,0,0-.133-.132h-.53a.125.125,0,0,0-.132.132v.795a.125.125,0,0,0,.132.132h.53A.142.142,0,0,0,513.395,322.027Z" transform="translate(2495.21 -560.399)" fill="#898989" fill-rule="evenodd"/>
      <path id="路径_2759" data-name="路径 2759" d="M517.61,322.027v-.795a.125.125,0,0,0-.133-.132h-1.245a.125.125,0,0,0-.133.132v.795a.125.125,0,0,0,.133.132h1.245A.125.125,0,0,0,517.61,322.027Z" transform="translate(2492.637 -560.399)" fill="#595757" fill-rule="evenodd"/>
      <path id="路径_2760" data-name="路径 2760" d="M522.7,322.027v-.795a.125.125,0,0,0-.132-.132h-.132a.125.125,0,0,0-.133.132v.795a.125.125,0,0,0,.133.132h.132A.125.125,0,0,0,522.7,322.027Z" transform="translate(2488.08 -560.399)" fill="#3e3a39" fill-rule="evenodd"/>
      <path id="路径_2761" data-name="路径 2761" d="M514.274,317.8h1.8a.181.181,0,0,1,.185.185v.291a.181.181,0,0,1-.185.185h-1.8a.181.181,0,0,1-.185-.185v-.291C514.062,317.906,514.168,317.8,514.274,317.8Z" transform="translate(2494.118 -557.974)" fill="#3e3a39" fill-rule="evenodd"/>
      <path id="路径_2762" data-name="路径 2762" d="M514.345,317.9h1.8a.153.153,0,0,1,.159.159v.291a.171.171,0,0,1-.159.159h-1.8a.171.171,0,0,1-.159-.159v-.291C514.159,317.98,514.239,317.9,514.345,317.9Z" transform="translate(2494.048 -558.047)" fill-rule="evenodd" fill="url(#linear-gradient-5)"/>
      <path id="路径_2764" data-name="路径 2764" d="M494.652,330.961c-1.219-.053-1.537-.291-1.563-1.59V329a1.972,1.972,0,0,0-.318.768c-.53,2.57-1.007,5.167-1.537,7.737-.556,2.729-1.192,5.432-1.855,8.134l-.079.344.265-.212a16.42,16.42,0,0,1,4.531-1.749l.238-.053-.159-.159c-.795-.795-.768-5.961-.715-7.074a13.629,13.629,0,0,1,1.3-5.617l.106-.185Z" transform="translate(2512.336 -566.206)" fill="#3e3a39" fill-rule="evenodd"/>
      <path id="路径_2765" data-name="路径 2765" d="M493.4,330.3c-1.457,7.1-1.722,9.247-3.5,16.295a15.636,15.636,0,0,1,4.584-1.749c-.848-.848-1.457-9.485.583-12.824C494.033,331.969,493.424,331.89,493.4,330.3Z" transform="translate(2511.895 -567.162)" fill-rule="evenodd" fill="url(#linear-gradient-6)"/>
      <path id="路径_2766" data-name="路径 2766" d="M496.638,338.112a16.089,16.089,0,0,0-1.007,5.14,25.115,25.115,0,0,0,.477,6.783c-.821.238-1.908.609-2.809.98.556-2.279,1.086-4.557,1.537-6.836.424-2.093.821-4.186,1.245-6.279A4.775,4.775,0,0,0,496.638,338.112Z" transform="translate(2509.396 -572.748)" fill-rule="evenodd" fill="url(#linear-gradient-7)"/>
      <path id="路径_2767" data-name="路径 2767" d="M493.6,350.7c.53-2.2,1.033-4.4,1.484-6.624.424-2.093.821-4.186,1.245-6.279a1.149,1.149,0,0,0,.318.132,15.871,15.871,0,0,0-.98,5.087,25.116,25.116,0,0,0,.477,6.783C495.375,350.041,494.421,350.359,493.6,350.7Z" transform="translate(2509.176 -572.675)" fill-rule="evenodd" fill="url(#linear-gradient-8)"/>
      <path id="路径_2768" data-name="路径 2768" d="M525.812,330.961c1.219-.053,1.537-.291,1.563-1.59V329a1.971,1.971,0,0,1,.318.768c.53,2.57,1.007,5.167,1.537,7.737.556,2.729,1.192,5.432,1.855,8.134l.08.344-.265-.212a16.42,16.42,0,0,0-4.531-1.749l-.238-.053.159-.159c.795-.795.768-5.961.715-7.074a13.628,13.628,0,0,0-1.3-5.617l-.106-.185Z" transform="translate(2485.654 -566.206)" fill="#3e3a39" fill-rule="evenodd"/>
      <path id="路径_2769" data-name="路径 2769" d="M528.069,330.3c1.457,7.1,1.722,9.247,3.5,16.295a15.634,15.634,0,0,0-4.584-1.749c.848-.848,1.457-9.485-.583-12.824C527.46,331.969,528.069,331.89,528.069,330.3Z" transform="translate(2485.066 -567.162)" fill-rule="evenodd" fill="url(#linear-gradient-9)"/>
      <path id="路径_2770" data-name="路径 2770" d="M529.9,338.112a16.09,16.09,0,0,1,1.007,5.14,25.115,25.115,0,0,1-.477,6.783c.821.238,1.908.609,2.809.98-.556-2.279-1.086-4.557-1.537-6.836-.424-2.093-.821-4.186-1.245-6.279A2.711,2.711,0,0,1,529.9,338.112Z" transform="translate(2482.494 -572.748)" fill-rule="evenodd" fill="url(#linear-gradient-10)"/>
      <path id="路径_2771" data-name="路径 2771" d="M533.747,350.7c-.53-2.2-1.033-4.4-1.484-6.624-.424-2.093-.821-4.186-1.245-6.279a1.149,1.149,0,0,1-.318.132,15.87,15.87,0,0,1,.98,5.087,25.114,25.114,0,0,1-.477,6.783C531.972,350.041,532.926,350.359,533.747,350.7Z" transform="translate(2481.906 -572.675)" fill-rule="evenodd" fill="url(#linear-gradient-11)"/>
      <path id="路径_2772" data-name="路径 2772" d="M512.6,383.1v.424a3.95,3.95,0,0,0,2.835-.291v-.424c0-.053-.106-.079-.212-.106-.08.344-2.305.556-2.411.238C512.706,382.991,512.6,383.044,512.6,383.1Z" transform="translate(2495.21 -605.678)" fill="#3f3a38" fill-rule="evenodd"/>
      <path id="路径_2773" data-name="路径 2773" d="M512.906,383.238A3.539,3.539,0,0,0,515.4,383c.053.026.133.026.133.053v.4a3.794,3.794,0,0,1-2.729.265v-.4A.118.118,0,0,1,512.906,383.238Z" transform="translate(2495.063 -605.899)" fill-rule="evenodd" fill="url(#linear-gradient-12)"/>
      <path id="路径_2808" data-name="路径 2808" d="M510.438,347.7h3.6l.265.371v1.086l-.265.318h-3.6l-.238-.291v-1.192Z" transform="translate(2496.974 -579.952)" fill-rule="evenodd"/>
      <path id="路径_2809" data-name="路径 2809" d="M510.51,348.1h3.572l.21.291v1.033l-.21.238H510.51l-.21-.212v-1.139Z" transform="translate(2496.935 -580.246)" fill="#b5b5b6" fill-rule="evenodd"/>
      <path id="路径_2810" data-name="路径 2810" d="M511.833,348.685v.98a.181.181,0,0,1-.185.185h-.662a.181.181,0,0,1-.185-.185v-.98a.181.181,0,0,1,.185-.185h.662A.181.181,0,0,1,511.833,348.685Z" transform="translate(2496.533 -580.539)" fill="#898989" fill-rule="evenodd"/>
      <path id="路径_2811" data-name="路径 2811" d="M517.108,348.685v.98a.181.181,0,0,1-.185.185h-1.537a.181.181,0,0,1-.185-.185v-.98a.181.181,0,0,1,.185-.185h1.537A.181.181,0,0,1,517.108,348.685Z" transform="translate(2493.299 -580.539)" fill="#595757" fill-rule="evenodd"/>
      <path id="路径_2812" data-name="路径 2812" d="M523.356,348.685v.98a.181.181,0,0,1-.185.185h-.185a.181.181,0,0,1-.185-.185v-.98a.181.181,0,0,1,.185-.185h.185A.181.181,0,0,1,523.356,348.685Z" transform="translate(2487.712 -580.539)" fill="#3e3a39" fill-rule="evenodd"/>
      <path id="路径_2816" data-name="路径 2816" d="M503.789,327.7h6.465a.7.7,0,0,1,.689.689v1.033a.7.7,0,0,1-.689.689h-6.465a.7.7,0,0,1-.689-.689v-1.033A.7.7,0,0,1,503.789,327.7Z" transform="translate(2502.193 -565.251)" fill="#3e3a39" fill-rule="evenodd"/>
      <path id="路径_2817" data-name="路径 2817" d="M504.009,328.1h6.465a.616.616,0,0,1,.609.609v1.033a.616.616,0,0,1-.609.609H504.01a.616.616,0,0,1-.609-.609v-1.033A.634.634,0,0,1,504.009,328.1Z" transform="translate(2501.972 -565.545)" fill-rule="evenodd" fill="url(#linear-gradient-13)"/>
      <path id="路径_2820" data-name="路径 2820" d="M526.271,309.891c.45-.027.5,1.669.026,1.643a12.449,12.449,0,0,0-5.326.053c-.45.026-.45-2.014.026-1.987A11.839,11.839,0,0,0,526.271,309.891Z" transform="translate(2489.302 -551.946)" fill="#3e3a39" fill-rule="evenodd"/>
      <path id="路径_2821" data-name="路径 2821" d="M526.765,311.768a12.134,12.134,0,0,0-5.352.053c-.238,0-.238-1.749.026-1.722a11.694,11.694,0,0,0,5.3.318C526.95,310.391,527.03,311.768,526.765,311.768Z" transform="translate(2488.861 -552.313)" fill-rule="evenodd" fill="url(#linear-gradient-14)"/>
      <path id="路径_2822" data-name="路径 2822" d="M542.935,309.849a1.279,1.279,0,0,1-1.192,1.4A1.34,1.34,0,0,1,540.5,309.9a1.228,1.228,0,1,1,2.438-.053Z" transform="translate(2474.705 -551.135)" fill="#3e3a39" fill-rule="evenodd"/>
      <path id="路径_2823" data-name="路径 2823" d="M543.149,310.143a1.184,1.184,0,0,1-1.086,1.3A1.249,1.249,0,0,1,540.9,310.2a1.135,1.135,0,1,1,2.252-.053Z" transform="translate(2474.411 -551.429)" fill-rule="evenodd" fill="url(#radial-gradient-3)"/>
      <path id="路径_2824" data-name="路径 2824" d="M542.838,310.373a.244.244,0,0,1-.344-.106.285.285,0,0,1,.079-.371.244.244,0,0,1,.344.106A.261.261,0,0,1,542.838,310.373Z" transform="translate(2473.264 -552.137)" fill="#f7f8f8" fill-rule="evenodd"/>
      <path id="路径_2831" data-name="路径 2831" d="M493.9,309.891c-.45-.027-.5,1.669-.026,1.643a12.45,12.45,0,0,1,5.326.053c.45.026.45-2.014-.026-1.987A11.839,11.839,0,0,1,493.9,309.891Z" transform="translate(2509.223 -551.946)" fill="#3e3a39" fill-rule="evenodd"/>
      <path id="路径_2832" data-name="路径 2832" d="M494.235,311.768a12.134,12.134,0,0,1,5.352.053c.238,0,.238-1.749-.026-1.722a11.694,11.694,0,0,1-5.3.318C494.049,310.391,493.97,311.768,494.235,311.768Z" transform="translate(2508.833 -552.313)" fill-rule="evenodd" fill="url(#linear-gradient-15)"/>
      <path id="路径_2833" data-name="路径 2833" d="M486.9,309.925a1.233,1.233,0,0,0,1.166,1.325,1.332,1.332,0,0,0,.053-2.65A1.311,1.311,0,0,0,486.9,309.925Z" transform="translate(2514.103 -551.211)" fill="#3e3a39" fill-rule="evenodd"/>
      <path id="路径_2834" data-name="路径 2834" d="M487.2,310.292a1.18,1.18,0,0,0,1.06,1.245,1.2,1.2,0,0,0,1.139-1.192,1.162,1.162,0,0,0-1.06-1.245A1.2,1.2,0,0,0,487.2,310.292Z" transform="translate(2513.883 -551.579)" fill-rule="evenodd" fill="url(#radial-gradient-4)"/>
      <path id="路径_2835" data-name="路径 2835" d="M489.073,311.144a.222.222,0,0,0,.318-.079.285.285,0,0,0-.079-.371.222.222,0,0,0-.318.079A.285.285,0,0,0,489.073,311.144Z" transform="translate(2512.589 -552.722)" fill="#f7f8f8" fill-rule="evenodd"/>
      <path id="路径_2836" data-name="路径 2836" d="M515.733,309.7a1.418,1.418,0,1,1-1.457-1.4A1.42,1.42,0,0,1,515.733,309.7Z" transform="translate(2494.991 -550.989)" fill="#3e3a39" fill-rule="evenodd"/>
      <path id="路径_2837" data-name="路径 2837" d="M515.921,310a1.307,1.307,0,0,1-1.272,1.351,1.365,1.365,0,0,1-1.351-1.3,1.312,1.312,0,1,1,2.623-.053Z" transform="translate(2494.698 -551.282)" fill-rule="evenodd" fill="url(#radial-gradient-5)"/>
      <path id="路径_2838" data-name="路径 2838" d="M515.777,310.6a.3.3,0,0,1-.4-.106.277.277,0,0,1,.106-.4.291.291,0,1,1,.291.5Z" transform="translate(2493.199 -552.284)" fill="#f7f8f8" fill-rule="evenodd"/>
      <path id="路径_368" data-name="路径 368" d="M135.175,289.986H130.5V271.117h4.675a3.349,3.349,0,0,0,3.343-3.343V263.1h18.868v4.675a3.349,3.349,0,0,0,3.343,3.343H165.4v18.868H135.175Z" transform="translate(2861.55 -470.468)" fill-rule="evenodd"/>
      <path id="路径_369" data-name="路径 369" d="M135.478,290.168H130.9v-18.65h4.578a3.453,3.453,0,0,0,3.439-3.439V263.5h18.65v4.578a3.453,3.453,0,0,0,3.439,3.439h4.578v18.65H135.478Z" transform="translate(2861.247 -470.771)" fill-rule="evenodd" fill="url(#linear-gradient-16)"/>
      <path id="路径_370" data-name="路径 370" d="M164,284.586V263.5h18.875v21.085h0v9.109H164Z" transform="translate(2836.05 -476.034)" fill-rule="evenodd" fill="url(#linear-gradient-17)"/>
      <g id="组_282" data-name="组 282" transform="translate(2997.718 -215.198)">
        <g id="组_281" data-name="组 281" transform="translate(0 5.135) rotate(-90)">
          <path id="路径_189" data-name="路径 189" d="M3.9.848A.858.858,0,0,0,3.052,0H.848A.858.858,0,0,0,0,.848V22.429a.858.858,0,0,0,.848.848h2.2a.858.858,0,0,0,.848-.848Z" transform="translate(1.235 0)" fill-rule="evenodd"/>
          <path id="路径_190" data-name="路径 190" d="M3.657.728V22.309a.729.729,0,0,1-.727.727H.727A.729.729,0,0,1,0,22.309V.728A.729.729,0,0,1,.727,0h2.2A.7.7,0,0,1,3.657.728Z" transform="translate(1.356 0.12)" fill-rule="evenodd" fill="url(#linear-gradient-18)"/>
          <g id="组_39" data-name="组 39" transform="translate(0 19.728)">
            <rect id="矩形_57" data-name="矩形 57" width="0.751" height="1.332" transform="translate(0.606 0.46)"/>
            <rect id="矩形_58" data-name="矩形 58" width="0.533" height="1.138" transform="translate(0.702 0.581)" fill="url(#linear-gradient-19)"/>
            <path id="路径_201" data-name="路径 201" d="M.218,2.277H.872a.217.217,0,0,0,.218-.218V.218A.217.217,0,0,0,.872,0H.218A.217.217,0,0,0,0,.218V2.059A.217.217,0,0,0,.218,2.277Z" transform="translate(0 0)" fill-rule="evenodd"/>
            <path id="路径_202" data-name="路径 202" d="M.121,2.083H.775A.114.114,0,0,0,.9,1.962V.121A.114.114,0,0,0,.775,0H.121A.114.114,0,0,0,0,.121V1.962C.024,2.01.073,2.083.121,2.083Z" transform="translate(0.097 0.097)" fill-rule="evenodd" fill="url(#linear-gradient-20)"/>
            <path id="路径_203" data-name="路径 203" d="M.678.533H.1a.1.1,0,0,1-.1-.1V.1A.1.1,0,0,1,.1,0H.678a.1.1,0,0,1,.1.1V.436A.089.089,0,0,1,.678.533Z" transform="translate(0.145 0.145)" fill="#666" fill-rule="evenodd"/>
            <path id="路径_204" data-name="路径 204" d="M.678,1.017H.1A.1.1,0,0,1,0,.92V.1A.1.1,0,0,1,.1,0H.678a.1.1,0,0,1,.1.1V.92A.1.1,0,0,1,.678,1.017Z" transform="translate(0.145 0.751)" fill="#898989" fill-rule="evenodd"/>
            <path id="路径_205" data-name="路径 205" d="M.678.291H.1a.1.1,0,0,1-.1-.1V.1A.1.1,0,0,1,.1,0H.678a.1.1,0,0,1,.1.1v.1A.1.1,0,0,1,.678.291Z" transform="translate(0.145 1.841)" fill="#c5c5c5" fill-rule="evenodd"/>
          </g>
          <g id="组_270" data-name="组 270" transform="translate(0 13.673)">
            <rect id="矩形_57-2" data-name="矩形 57" width="0.751" height="1.332" transform="translate(0.606 0.46)"/>
            <rect id="矩形_58-2" data-name="矩形 58" width="0.533" height="1.138" transform="translate(0.702 0.581)" fill="url(#linear-gradient-19)"/>
            <path id="路径_201-2" data-name="路径 201" d="M.218,2.277H.872a.217.217,0,0,0,.218-.218V.218A.217.217,0,0,0,.872,0H.218A.217.217,0,0,0,0,.218V2.059A.217.217,0,0,0,.218,2.277Z" transform="translate(0 0)" fill-rule="evenodd"/>
            <path id="路径_202-2" data-name="路径 202" d="M.121,2.083H.775A.114.114,0,0,0,.9,1.962V.121A.114.114,0,0,0,.775,0H.121A.114.114,0,0,0,0,.121V1.962C.024,2.01.073,2.083.121,2.083Z" transform="translate(0.097 0.097)" fill-rule="evenodd" fill="url(#linear-gradient-20)"/>
            <path id="路径_203-2" data-name="路径 203" d="M.678.533H.1a.1.1,0,0,1-.1-.1V.1A.1.1,0,0,1,.1,0H.678a.1.1,0,0,1,.1.1V.436A.089.089,0,0,1,.678.533Z" transform="translate(0.145 0.145)" fill="#666" fill-rule="evenodd"/>
            <path id="路径_204-2" data-name="路径 204" d="M.678,1.017H.1A.1.1,0,0,1,0,.92V.1A.1.1,0,0,1,.1,0H.678a.1.1,0,0,1,.1.1V.92A.1.1,0,0,1,.678,1.017Z" transform="translate(0.145 0.751)" fill="#898989" fill-rule="evenodd"/>
            <path id="路径_205-2" data-name="路径 205" d="M.678.291H.1a.1.1,0,0,1-.1-.1V.1A.1.1,0,0,1,.1,0H.678a.1.1,0,0,1,.1.1v.1A.1.1,0,0,1,.678.291Z" transform="translate(0.145 1.841)" fill="#c5c5c5" fill-rule="evenodd"/>
          </g>
          <g id="组_271" data-name="组 271" transform="translate(0 7.375)">
            <rect id="矩形_57-3" data-name="矩形 57" width="0.751" height="1.332" transform="translate(0.606 0.46)"/>
            <rect id="矩形_58-3" data-name="矩形 58" width="0.533" height="1.138" transform="translate(0.702 0.581)" fill="url(#linear-gradient-19)"/>
            <path id="路径_201-3" data-name="路径 201" d="M.218,2.277H.872a.217.217,0,0,0,.218-.218V.218A.217.217,0,0,0,.872,0H.218A.217.217,0,0,0,0,.218V2.059A.217.217,0,0,0,.218,2.277Z" transform="translate(0 0)" fill-rule="evenodd"/>
            <path id="路径_202-3" data-name="路径 202" d="M.121,2.083H.775A.114.114,0,0,0,.9,1.962V.121A.114.114,0,0,0,.775,0H.121A.114.114,0,0,0,0,.121V1.962C.024,2.01.073,2.083.121,2.083Z" transform="translate(0.097 0.097)" fill-rule="evenodd" fill="url(#linear-gradient-20)"/>
            <path id="路径_203-3" data-name="路径 203" d="M.678.533H.1a.1.1,0,0,1-.1-.1V.1A.1.1,0,0,1,.1,0H.678a.1.1,0,0,1,.1.1V.436A.089.089,0,0,1,.678.533Z" transform="translate(0.145 0.145)" fill="#666" fill-rule="evenodd"/>
            <path id="路径_204-3" data-name="路径 204" d="M.678,1.017H.1A.1.1,0,0,1,0,.92V.1A.1.1,0,0,1,.1,0H.678a.1.1,0,0,1,.1.1V.92A.1.1,0,0,1,.678,1.017Z" transform="translate(0.145 0.751)" fill="#898989" fill-rule="evenodd"/>
            <path id="路径_205-3" data-name="路径 205" d="M.678.291H.1a.1.1,0,0,1-.1-.1V.1A.1.1,0,0,1,.1,0H.678a.1.1,0,0,1,.1.1v.1A.1.1,0,0,1,.678.291Z" transform="translate(0.145 1.841)" fill="#c5c5c5" fill-rule="evenodd"/>
          </g>
          <g id="组_272" data-name="组 272" transform="translate(0 1.32)">
            <rect id="矩形_57-4" data-name="矩形 57" width="0.751" height="1.332" transform="translate(0.606 0.46)"/>
            <rect id="矩形_58-4" data-name="矩形 58" width="0.533" height="1.138" transform="translate(0.702 0.581)" fill="url(#linear-gradient-19)"/>
            <path id="路径_201-4" data-name="路径 201" d="M.218,2.277H.872a.217.217,0,0,0,.218-.218V.218A.217.217,0,0,0,.872,0H.218A.217.217,0,0,0,0,.218V2.059A.217.217,0,0,0,.218,2.277Z" transform="translate(0 0)" fill-rule="evenodd"/>
            <path id="路径_202-4" data-name="路径 202" d="M.121,2.083H.775A.114.114,0,0,0,.9,1.962V.121A.114.114,0,0,0,.775,0H.121A.114.114,0,0,0,0,.121V1.962C.024,2.01.073,2.083.121,2.083Z" transform="translate(0.097 0.097)" fill-rule="evenodd" fill="url(#linear-gradient-20)"/>
            <path id="路径_203-4" data-name="路径 203" d="M.678.533H.1a.1.1,0,0,1-.1-.1V.1A.1.1,0,0,1,.1,0H.678a.1.1,0,0,1,.1.1V.436A.089.089,0,0,1,.678.533Z" transform="translate(0.145 0.145)" fill="#666" fill-rule="evenodd"/>
            <path id="路径_204-4" data-name="路径 204" d="M.678,1.017H.1A.1.1,0,0,1,0,.92V.1A.1.1,0,0,1,.1,0H.678a.1.1,0,0,1,.1.1V.92A.1.1,0,0,1,.678,1.017Z" transform="translate(0.145 0.751)" fill="#898989" fill-rule="evenodd"/>
            <path id="路径_205-4" data-name="路径 205" d="M.678.291H.1a.1.1,0,0,1-.1-.1V.1A.1.1,0,0,1,.1,0H.678a.1.1,0,0,1,.1.1v.1A.1.1,0,0,1,.678.291Z" transform="translate(0.145 1.841)" fill="#c5c5c5" fill-rule="evenodd"/>
          </g>
        </g>
      </g>
      <g id="组_893" data-name="组 893" transform="translate(3018.311 -218.966) rotate(180)">
        <path id="路径_273" data-name="路径 273" d="M9.024,4.122C4.049,4.122,0,2.366,0,.171V0H18.024V.171C18.048,2.341,14.024,4.122,9.024,4.122Z" transform="translate(0 0)" fill-rule="evenodd"/>
        <path id="路径_274" data-name="路径 274" d="M8.9,4C4,4,0,2.293,0,.171V0H17.78V.171C17.8,2.268,13.829,4,8.9,4Z" transform="translate(0.122 0)" fill-rule="evenodd" fill="url(#linear-gradient-27)"/>
      </g>
      <g id="组_894" data-name="组 894" transform="translate(3020.994 -220.368) rotate(90)">
        <path id="路径_189-2" data-name="路径 189" d="M3.927.854A.864.864,0,0,0,3.073,0H.854A.864.864,0,0,0,0,.854V22.585a.864.864,0,0,0,.854.854H3.073a.864.864,0,0,0,.854-.854Z" transform="translate(1.244 0)" fill-rule="evenodd"/>
        <path id="路径_190-2" data-name="路径 190" d="M3.683.733V22.464a.734.734,0,0,1-.732.732H.732A.734.734,0,0,1,0,22.464V.733A.734.734,0,0,1,.732,0H2.951A.7.7,0,0,1,3.683.733Z" transform="translate(1.366 0.121)" fill-rule="evenodd" fill="url(#linear-gradient-18)"/>
        <g id="组_39-2" data-name="组 39" transform="translate(0 19.866)">
          <rect id="矩形_57-5" data-name="矩形 57" width="0.756" height="1.341" transform="translate(0.61 0.463)"/>
          <rect id="矩形_58-5" data-name="矩形 58" width="0.537" height="1.146" transform="translate(0.707 0.585)" fill="url(#linear-gradient-19)"/>
          <path id="路径_201-5" data-name="路径 201" d="M.22,2.293H.878a.219.219,0,0,0,.22-.22V.22A.219.219,0,0,0,.878,0H.22A.219.219,0,0,0,0,.22V2.073A.219.219,0,0,0,.22,2.293Z" transform="translate(0)" fill-rule="evenodd"/>
          <path id="路径_202-5" data-name="路径 202" d="M.122,2.1H.78A.115.115,0,0,0,.9,1.976V.122A.115.115,0,0,0,.78,0H.122A.115.115,0,0,0,0,.122V1.976C.024,2.024.073,2.1.122,2.1Z" transform="translate(0.098 0.098)" fill-rule="evenodd" fill="url(#linear-gradient-20)"/>
          <path id="路径_203-5" data-name="路径 203" d="M.683.537H.1a.1.1,0,0,1-.1-.1V.1A.1.1,0,0,1,.1,0H.683a.1.1,0,0,1,.1.1V.439A.089.089,0,0,1,.683.537Z" transform="translate(0.146 0.146)" fill="#666" fill-rule="evenodd"/>
          <path id="路径_204-5" data-name="路径 204" d="M.683,1.024H.1a.1.1,0,0,1-.1-.1V.1A.1.1,0,0,1,.1,0H.683a.1.1,0,0,1,.1.1V.927A.1.1,0,0,1,.683,1.024Z" transform="translate(0.146 0.756)" fill="#898989" fill-rule="evenodd"/>
          <path id="路径_205-5" data-name="路径 205" d="M.683.293H.1A.1.1,0,0,1,0,.2V.1A.1.1,0,0,1,.1,0H.683a.1.1,0,0,1,.1.1V.2A.1.1,0,0,1,.683.293Z" transform="translate(0.146 1.854)" fill="#c5c5c5" fill-rule="evenodd"/>
        </g>
        <g id="组_270-2" data-name="组 270" transform="translate(0 13.768)">
          <rect id="矩形_57-6" data-name="矩形 57" width="0.756" height="1.341" transform="translate(0.61 0.463)"/>
          <rect id="矩形_58-6" data-name="矩形 58" width="0.537" height="1.146" transform="translate(0.707 0.585)" fill="url(#linear-gradient-19)"/>
          <path id="路径_201-6" data-name="路径 201" d="M.22,2.293H.878a.219.219,0,0,0,.22-.22V.22A.219.219,0,0,0,.878,0H.22A.219.219,0,0,0,0,.22V2.073A.219.219,0,0,0,.22,2.293Z" transform="translate(0)" fill-rule="evenodd"/>
          <path id="路径_202-6" data-name="路径 202" d="M.122,2.1H.78A.115.115,0,0,0,.9,1.976V.122A.115.115,0,0,0,.78,0H.122A.115.115,0,0,0,0,.122V1.976C.024,2.024.073,2.1.122,2.1Z" transform="translate(0.098 0.098)" fill-rule="evenodd" fill="url(#linear-gradient-20)"/>
          <path id="路径_203-6" data-name="路径 203" d="M.683.537H.1a.1.1,0,0,1-.1-.1V.1A.1.1,0,0,1,.1,0H.683a.1.1,0,0,1,.1.1V.439A.089.089,0,0,1,.683.537Z" transform="translate(0.146 0.146)" fill="#666" fill-rule="evenodd"/>
          <path id="路径_204-6" data-name="路径 204" d="M.683,1.024H.1a.1.1,0,0,1-.1-.1V.1A.1.1,0,0,1,.1,0H.683a.1.1,0,0,1,.1.1V.927A.1.1,0,0,1,.683,1.024Z" transform="translate(0.146 0.756)" fill="#898989" fill-rule="evenodd"/>
          <path id="路径_205-6" data-name="路径 205" d="M.683.293H.1A.1.1,0,0,1,0,.2V.1A.1.1,0,0,1,.1,0H.683a.1.1,0,0,1,.1.1V.2A.1.1,0,0,1,.683.293Z" transform="translate(0.146 1.854)" fill="#c5c5c5" fill-rule="evenodd"/>
        </g>
        <g id="组_271-2" data-name="组 271" transform="translate(0 7.427)">
          <rect id="矩形_57-7" data-name="矩形 57" width="0.756" height="1.341" transform="translate(0.61 0.463)"/>
          <rect id="矩形_58-7" data-name="矩形 58" width="0.537" height="1.146" transform="translate(0.707 0.585)" fill="url(#linear-gradient-19)"/>
          <path id="路径_201-7" data-name="路径 201" d="M.22,2.293H.878a.219.219,0,0,0,.22-.22V.22A.219.219,0,0,0,.878,0H.22A.219.219,0,0,0,0,.22V2.073A.219.219,0,0,0,.22,2.293Z" transform="translate(0)" fill-rule="evenodd"/>
          <path id="路径_202-7" data-name="路径 202" d="M.122,2.1H.78A.115.115,0,0,0,.9,1.976V.122A.115.115,0,0,0,.78,0H.122A.115.115,0,0,0,0,.122V1.976C.024,2.024.073,2.1.122,2.1Z" transform="translate(0.098 0.098)" fill-rule="evenodd" fill="url(#linear-gradient-20)"/>
          <path id="路径_203-7" data-name="路径 203" d="M.683.537H.1a.1.1,0,0,1-.1-.1V.1A.1.1,0,0,1,.1,0H.683a.1.1,0,0,1,.1.1V.439A.089.089,0,0,1,.683.537Z" transform="translate(0.146 0.146)" fill="#666" fill-rule="evenodd"/>
          <path id="路径_204-7" data-name="路径 204" d="M.683,1.024H.1a.1.1,0,0,1-.1-.1V.1A.1.1,0,0,1,.1,0H.683a.1.1,0,0,1,.1.1V.927A.1.1,0,0,1,.683,1.024Z" transform="translate(0.146 0.756)" fill="#898989" fill-rule="evenodd"/>
          <path id="路径_205-7" data-name="路径 205" d="M.683.293H.1A.1.1,0,0,1,0,.2V.1A.1.1,0,0,1,.1,0H.683a.1.1,0,0,1,.1.1V.2A.1.1,0,0,1,.683.293Z" transform="translate(0.146 1.854)" fill="#c5c5c5" fill-rule="evenodd"/>
        </g>
        <g id="组_272-2" data-name="组 272" transform="translate(0 1.329)">
          <rect id="矩形_57-8" data-name="矩形 57" width="0.756" height="1.341" transform="translate(0.61 0.463)"/>
          <rect id="矩形_58-8" data-name="矩形 58" width="0.537" height="1.146" transform="translate(0.707 0.585)" fill="url(#linear-gradient-19)"/>
          <path id="路径_201-8" data-name="路径 201" d="M.22,2.293H.878a.219.219,0,0,0,.22-.22V.22A.219.219,0,0,0,.878,0H.22A.219.219,0,0,0,0,.22V2.073A.219.219,0,0,0,.22,2.293Z" transform="translate(0)" fill-rule="evenodd"/>
          <path id="路径_202-8" data-name="路径 202" d="M.122,2.1H.78A.115.115,0,0,0,.9,1.976V.122A.115.115,0,0,0,.78,0H.122A.115.115,0,0,0,0,.122V1.976C.024,2.024.073,2.1.122,2.1Z" transform="translate(0.098 0.098)" fill-rule="evenodd" fill="url(#linear-gradient-20)"/>
          <path id="路径_203-8" data-name="路径 203" d="M.683.537H.1a.1.1,0,0,1-.1-.1V.1A.1.1,0,0,1,.1,0H.683a.1.1,0,0,1,.1.1V.439A.089.089,0,0,1,.683.537Z" transform="translate(0.146 0.146)" fill="#666" fill-rule="evenodd"/>
          <path id="路径_204-8" data-name="路径 204" d="M.683,1.024H.1a.1.1,0,0,1-.1-.1V.1A.1.1,0,0,1,.1,0H.683a.1.1,0,0,1,.1.1V.927A.1.1,0,0,1,.683,1.024Z" transform="translate(0.146 0.756)" fill="#898989" fill-rule="evenodd"/>
          <path id="路径_205-8" data-name="路径 205" d="M.683.293H.1A.1.1,0,0,1,0,.2V.1A.1.1,0,0,1,.1,0H.683a.1.1,0,0,1,.1.1V.2A.1.1,0,0,1,.683.293Z" transform="translate(0.146 1.854)" fill="#c5c5c5" fill-rule="evenodd"/>
        </g>
      </g>
      <path id="路径_3295" data-name="路径 3295" d="M274.2,283.236V263.8h7.244a43.618,43.618,0,0,0,16.661,0h7.074v19.436c-9.588,3.459-18.238,3.788-29.445.124C275.351,283.236,274.584,283.4,274.2,283.236Z" transform="translate(2719.685 -463.147)" fill-rule="evenodd" fill="url(#linear-gradient-37)"/>
      <g id="组_283" data-name="组 283" transform="translate(3028.527 -201.529) rotate(90)">
        <g id="组_280" data-name="组 280" transform="translate(22.304 33.421) rotate(90)">
          <path id="路径_189-3" data-name="路径 189" d="M3.737.812A.822.822,0,0,0,2.924,0H.812A.822.822,0,0,0,0,.812v20.68a.822.822,0,0,0,.812.812H2.924a.822.822,0,0,0,.812-.812Z" transform="translate(1.184 0)" fill-rule="evenodd"/>
          <path id="路径_190-3" data-name="路径 190" d="M3.5.7v20.68a.7.7,0,0,1-.7.7H.7a.7.7,0,0,1-.7-.7V.7A.7.7,0,0,1,.7,0H2.808A.67.67,0,0,1,3.5.7Z" transform="translate(1.3 0.115)" fill-rule="evenodd" fill="url(#linear-gradient-18)"/>
          <g id="组_39-3" data-name="组 39" transform="translate(0 18.904)">
            <rect id="矩形_57-9" data-name="矩形 57" width="0.719" height="1.277" transform="translate(0.58 0.441)"/>
            <rect id="矩形_58-9" data-name="矩形 58" width="0.511" height="1.091" transform="translate(0.673 0.557)" fill="url(#linear-gradient-19)"/>
            <path id="路径_201-9" data-name="路径 201" d="M.209,2.182H.836a.208.208,0,0,0,.209-.209V.209A.208.208,0,0,0,.836,0H.209A.208.208,0,0,0,0,.209V1.973A.208.208,0,0,0,.209,2.182Z" transform="translate(0 0)" fill-rule="evenodd"/>
            <path id="路径_202-9" data-name="路径 202" d="M.116,2H.743A.11.11,0,0,0,.859,1.88V.116A.11.11,0,0,0,.743,0H.116A.11.11,0,0,0,0,.116V1.88C.023,1.926.07,2,.116,2Z" transform="translate(0.093 0.093)" fill-rule="evenodd" fill="url(#linear-gradient-20)"/>
            <path id="路径_203-9" data-name="路径 203" d="M.65.511H.093A.1.1,0,0,1,0,.418V.093A.1.1,0,0,1,.093,0H.65A.1.1,0,0,1,.743.093V.418A.085.085,0,0,1,.65.511Z" transform="translate(0.139 0.139)" fill="#666" fill-rule="evenodd"/>
            <path id="路径_204-9" data-name="路径 204" d="M.65.975H.093A.1.1,0,0,1,0,.882V.093A.1.1,0,0,1,.093,0H.65A.1.1,0,0,1,.743.093V.882A.1.1,0,0,1,.65.975Z" transform="translate(0.139 0.719)" fill="#898989" fill-rule="evenodd"/>
            <path id="路径_205-9" data-name="路径 205" d="M.65.279H.093A.1.1,0,0,1,0,.186V.093A.1.1,0,0,1,.093,0H.65A.1.1,0,0,1,.743.093V.186A.1.1,0,0,1,.65.279Z" transform="translate(0.139 1.764)" fill="#c5c5c5" fill-rule="evenodd"/>
          </g>
          <g id="组_270-3" data-name="组 270" transform="translate(0 13.102)">
            <rect id="矩形_57-10" data-name="矩形 57" width="0.719" height="1.277" transform="translate(0.58 0.441)"/>
            <rect id="矩形_58-10" data-name="矩形 58" width="0.511" height="1.091" transform="translate(0.673 0.557)" fill="url(#linear-gradient-19)"/>
            <path id="路径_201-10" data-name="路径 201" d="M.209,2.182H.836a.208.208,0,0,0,.209-.209V.209A.208.208,0,0,0,.836,0H.209A.208.208,0,0,0,0,.209V1.973A.208.208,0,0,0,.209,2.182Z" transform="translate(0 0)" fill-rule="evenodd"/>
            <path id="路径_202-10" data-name="路径 202" d="M.116,2H.743A.11.11,0,0,0,.859,1.88V.116A.11.11,0,0,0,.743,0H.116A.11.11,0,0,0,0,.116V1.88C.023,1.926.07,2,.116,2Z" transform="translate(0.093 0.093)" fill-rule="evenodd" fill="url(#linear-gradient-20)"/>
            <path id="路径_203-10" data-name="路径 203" d="M.65.511H.093A.1.1,0,0,1,0,.418V.093A.1.1,0,0,1,.093,0H.65A.1.1,0,0,1,.743.093V.418A.085.085,0,0,1,.65.511Z" transform="translate(0.139 0.139)" fill="#666" fill-rule="evenodd"/>
            <path id="路径_204-10" data-name="路径 204" d="M.65.975H.093A.1.1,0,0,1,0,.882V.093A.1.1,0,0,1,.093,0H.65A.1.1,0,0,1,.743.093V.882A.1.1,0,0,1,.65.975Z" transform="translate(0.139 0.719)" fill="#898989" fill-rule="evenodd"/>
            <path id="路径_205-10" data-name="路径 205" d="M.65.279H.093A.1.1,0,0,1,0,.186V.093A.1.1,0,0,1,.093,0H.65A.1.1,0,0,1,.743.093V.186A.1.1,0,0,1,.65.279Z" transform="translate(0.139 1.764)" fill="#c5c5c5" fill-rule="evenodd"/>
          </g>
          <g id="组_271-3" data-name="组 271" transform="translate(0 7.067)">
            <rect id="矩形_57-11" data-name="矩形 57" width="0.719" height="1.277" transform="translate(0.58 0.441)"/>
            <rect id="矩形_58-11" data-name="矩形 58" width="0.511" height="1.091" transform="translate(0.673 0.557)" fill="url(#linear-gradient-19)"/>
            <path id="路径_201-11" data-name="路径 201" d="M.209,2.182H.836a.208.208,0,0,0,.209-.209V.209A.208.208,0,0,0,.836,0H.209A.208.208,0,0,0,0,.209V1.973A.208.208,0,0,0,.209,2.182Z" transform="translate(0 0)" fill-rule="evenodd"/>
            <path id="路径_202-11" data-name="路径 202" d="M.116,2H.743A.11.11,0,0,0,.859,1.88V.116A.11.11,0,0,0,.743,0H.116A.11.11,0,0,0,0,.116V1.88C.023,1.926.07,2,.116,2Z" transform="translate(0.093 0.093)" fill-rule="evenodd" fill="url(#linear-gradient-20)"/>
            <path id="路径_203-11" data-name="路径 203" d="M.65.511H.093A.1.1,0,0,1,0,.418V.093A.1.1,0,0,1,.093,0H.65A.1.1,0,0,1,.743.093V.418A.085.085,0,0,1,.65.511Z" transform="translate(0.139 0.139)" fill="#666" fill-rule="evenodd"/>
            <path id="路径_204-11" data-name="路径 204" d="M.65.975H.093A.1.1,0,0,1,0,.882V.093A.1.1,0,0,1,.093,0H.65A.1.1,0,0,1,.743.093V.882A.1.1,0,0,1,.65.975Z" transform="translate(0.139 0.719)" fill="#898989" fill-rule="evenodd"/>
            <path id="路径_205-11" data-name="路径 205" d="M.65.279H.093A.1.1,0,0,1,0,.186V.093A.1.1,0,0,1,.093,0H.65A.1.1,0,0,1,.743.093V.186A.1.1,0,0,1,.65.279Z" transform="translate(0.139 1.764)" fill="#c5c5c5" fill-rule="evenodd"/>
          </g>
          <g id="组_272-3" data-name="组 272" transform="translate(0 1.265)">
            <rect id="矩形_57-12" data-name="矩形 57" width="0.719" height="1.277" transform="translate(0.58 0.441)"/>
            <rect id="矩形_58-12" data-name="矩形 58" width="0.511" height="1.091" transform="translate(0.673 0.557)" fill="url(#linear-gradient-19)"/>
            <path id="路径_201-12" data-name="路径 201" d="M.209,2.182H.836a.208.208,0,0,0,.209-.209V.209A.208.208,0,0,0,.836,0H.209A.208.208,0,0,0,0,.209V1.973A.208.208,0,0,0,.209,2.182Z" transform="translate(0 0)" fill-rule="evenodd"/>
            <path id="路径_202-12" data-name="路径 202" d="M.116,2H.743A.11.11,0,0,0,.859,1.88V.116A.11.11,0,0,0,.743,0H.116A.11.11,0,0,0,0,.116V1.88C.023,1.926.07,2,.116,2Z" transform="translate(0.093 0.093)" fill-rule="evenodd" fill="url(#linear-gradient-20)"/>
            <path id="路径_203-12" data-name="路径 203" d="M.65.511H.093A.1.1,0,0,1,0,.418V.093A.1.1,0,0,1,.093,0H.65A.1.1,0,0,1,.743.093V.418A.085.085,0,0,1,.65.511Z" transform="translate(0.139 0.139)" fill="#666" fill-rule="evenodd"/>
            <path id="路径_204-12" data-name="路径 204" d="M.65.975H.093A.1.1,0,0,1,0,.882V.093A.1.1,0,0,1,.093,0H.65A.1.1,0,0,1,.743.093V.882A.1.1,0,0,1,.65.975Z" transform="translate(0.139 0.719)" fill="#898989" fill-rule="evenodd"/>
            <path id="路径_205-12" data-name="路径 205" d="M.65.279H.093A.1.1,0,0,1,0,.186V.093A.1.1,0,0,1,.093,0H.65A.1.1,0,0,1,.743.093V.186A.1.1,0,0,1,.65.279Z" transform="translate(0.139 1.764)" fill="#c5c5c5" fill-rule="evenodd"/>
          </g>
        </g>
        <g id="组_281-2" data-name="组 281" transform="translate(0 4.92) rotate(-90)">
          <path id="路径_189-4" data-name="路径 189" d="M3.737.812A.822.822,0,0,0,2.924,0H.812A.822.822,0,0,0,0,.812v20.68a.822.822,0,0,0,.812.812H2.924a.822.822,0,0,0,.812-.812Z" transform="translate(1.184 0)" fill-rule="evenodd"/>
          <path id="路径_190-4" data-name="路径 190" d="M3.5.7v20.68a.7.7,0,0,1-.7.7H.7a.7.7,0,0,1-.7-.7V.7A.7.7,0,0,1,.7,0H2.808A.67.67,0,0,1,3.5.7Z" transform="translate(1.3 0.115)" fill-rule="evenodd" fill="url(#linear-gradient-18)"/>
          <g id="组_39-4" data-name="组 39" transform="translate(0 18.904)">
            <rect id="矩形_57-13" data-name="矩形 57" width="0.719" height="1.277" transform="translate(0.58 0.441)"/>
            <rect id="矩形_58-13" data-name="矩形 58" width="0.511" height="1.091" transform="translate(0.673 0.557)" fill="url(#linear-gradient-19)"/>
            <path id="路径_201-13" data-name="路径 201" d="M.209,2.182H.836a.208.208,0,0,0,.209-.209V.209A.208.208,0,0,0,.836,0H.209A.208.208,0,0,0,0,.209V1.973A.208.208,0,0,0,.209,2.182Z" transform="translate(0 0)" fill-rule="evenodd"/>
            <path id="路径_202-13" data-name="路径 202" d="M.116,2H.743A.11.11,0,0,0,.859,1.88V.116A.11.11,0,0,0,.743,0H.116A.11.11,0,0,0,0,.116V1.88C.023,1.926.07,2,.116,2Z" transform="translate(0.093 0.093)" fill-rule="evenodd" fill="url(#linear-gradient-20)"/>
            <path id="路径_203-13" data-name="路径 203" d="M.65.511H.093A.1.1,0,0,1,0,.418V.093A.1.1,0,0,1,.093,0H.65A.1.1,0,0,1,.743.093V.418A.085.085,0,0,1,.65.511Z" transform="translate(0.139 0.139)" fill="#666" fill-rule="evenodd"/>
            <path id="路径_204-13" data-name="路径 204" d="M.65.975H.093A.1.1,0,0,1,0,.882V.093A.1.1,0,0,1,.093,0H.65A.1.1,0,0,1,.743.093V.882A.1.1,0,0,1,.65.975Z" transform="translate(0.139 0.719)" fill="#898989" fill-rule="evenodd"/>
            <path id="路径_205-13" data-name="路径 205" d="M.65.279H.093A.1.1,0,0,1,0,.186V.093A.1.1,0,0,1,.093,0H.65A.1.1,0,0,1,.743.093V.186A.1.1,0,0,1,.65.279Z" transform="translate(0.139 1.764)" fill="#c5c5c5" fill-rule="evenodd"/>
          </g>
          <g id="组_270-4" data-name="组 270" transform="translate(0 13.102)">
            <rect id="矩形_57-14" data-name="矩形 57" width="0.719" height="1.277" transform="translate(0.58 0.441)"/>
            <rect id="矩形_58-14" data-name="矩形 58" width="0.511" height="1.091" transform="translate(0.673 0.557)" fill="url(#linear-gradient-19)"/>
            <path id="路径_201-14" data-name="路径 201" d="M.209,2.182H.836a.208.208,0,0,0,.209-.209V.209A.208.208,0,0,0,.836,0H.209A.208.208,0,0,0,0,.209V1.973A.208.208,0,0,0,.209,2.182Z" transform="translate(0 0)" fill-rule="evenodd"/>
            <path id="路径_202-14" data-name="路径 202" d="M.116,2H.743A.11.11,0,0,0,.859,1.88V.116A.11.11,0,0,0,.743,0H.116A.11.11,0,0,0,0,.116V1.88C.023,1.926.07,2,.116,2Z" transform="translate(0.093 0.093)" fill-rule="evenodd" fill="url(#linear-gradient-20)"/>
            <path id="路径_203-14" data-name="路径 203" d="M.65.511H.093A.1.1,0,0,1,0,.418V.093A.1.1,0,0,1,.093,0H.65A.1.1,0,0,1,.743.093V.418A.085.085,0,0,1,.65.511Z" transform="translate(0.139 0.139)" fill="#666" fill-rule="evenodd"/>
            <path id="路径_204-14" data-name="路径 204" d="M.65.975H.093A.1.1,0,0,1,0,.882V.093A.1.1,0,0,1,.093,0H.65A.1.1,0,0,1,.743.093V.882A.1.1,0,0,1,.65.975Z" transform="translate(0.139 0.719)" fill="#898989" fill-rule="evenodd"/>
            <path id="路径_205-14" data-name="路径 205" d="M.65.279H.093A.1.1,0,0,1,0,.186V.093A.1.1,0,0,1,.093,0H.65A.1.1,0,0,1,.743.093V.186A.1.1,0,0,1,.65.279Z" transform="translate(0.139 1.764)" fill="#c5c5c5" fill-rule="evenodd"/>
          </g>
          <g id="组_271-4" data-name="组 271" transform="translate(0 7.067)">
            <rect id="矩形_57-15" data-name="矩形 57" width="0.719" height="1.277" transform="translate(0.58 0.441)"/>
            <rect id="矩形_58-15" data-name="矩形 58" width="0.511" height="1.091" transform="translate(0.673 0.557)" fill="url(#linear-gradient-19)"/>
            <path id="路径_201-15" data-name="路径 201" d="M.209,2.182H.836a.208.208,0,0,0,.209-.209V.209A.208.208,0,0,0,.836,0H.209A.208.208,0,0,0,0,.209V1.973A.208.208,0,0,0,.209,2.182Z" transform="translate(0 0)" fill-rule="evenodd"/>
            <path id="路径_202-15" data-name="路径 202" d="M.116,2H.743A.11.11,0,0,0,.859,1.88V.116A.11.11,0,0,0,.743,0H.116A.11.11,0,0,0,0,.116V1.88C.023,1.926.07,2,.116,2Z" transform="translate(0.093 0.093)" fill-rule="evenodd" fill="url(#linear-gradient-20)"/>
            <path id="路径_203-15" data-name="路径 203" d="M.65.511H.093A.1.1,0,0,1,0,.418V.093A.1.1,0,0,1,.093,0H.65A.1.1,0,0,1,.743.093V.418A.085.085,0,0,1,.65.511Z" transform="translate(0.139 0.139)" fill="#666" fill-rule="evenodd"/>
            <path id="路径_204-15" data-name="路径 204" d="M.65.975H.093A.1.1,0,0,1,0,.882V.093A.1.1,0,0,1,.093,0H.65A.1.1,0,0,1,.743.093V.882A.1.1,0,0,1,.65.975Z" transform="translate(0.139 0.719)" fill="#898989" fill-rule="evenodd"/>
            <path id="路径_205-15" data-name="路径 205" d="M.65.279H.093A.1.1,0,0,1,0,.186V.093A.1.1,0,0,1,.093,0H.65A.1.1,0,0,1,.743.093V.186A.1.1,0,0,1,.65.279Z" transform="translate(0.139 1.764)" fill="#c5c5c5" fill-rule="evenodd"/>
          </g>
          <g id="组_272-4" data-name="组 272" transform="translate(0 1.265)">
            <rect id="矩形_57-16" data-name="矩形 57" width="0.719" height="1.277" transform="translate(0.58 0.441)"/>
            <rect id="矩形_58-16" data-name="矩形 58" width="0.511" height="1.091" transform="translate(0.673 0.557)" fill="url(#linear-gradient-19)"/>
            <path id="路径_201-16" data-name="路径 201" d="M.209,2.182H.836a.208.208,0,0,0,.209-.209V.209A.208.208,0,0,0,.836,0H.209A.208.208,0,0,0,0,.209V1.973A.208.208,0,0,0,.209,2.182Z" transform="translate(0 0)" fill-rule="evenodd"/>
            <path id="路径_202-16" data-name="路径 202" d="M.116,2H.743A.11.11,0,0,0,.859,1.88V.116A.11.11,0,0,0,.743,0H.116A.11.11,0,0,0,0,.116V1.88C.023,1.926.07,2,.116,2Z" transform="translate(0.093 0.093)" fill-rule="evenodd" fill="url(#linear-gradient-20)"/>
            <path id="路径_203-16" data-name="路径 203" d="M.65.511H.093A.1.1,0,0,1,0,.418V.093A.1.1,0,0,1,.093,0H.65A.1.1,0,0,1,.743.093V.418A.085.085,0,0,1,.65.511Z" transform="translate(0.139 0.139)" fill="#666" fill-rule="evenodd"/>
            <path id="路径_204-16" data-name="路径 204" d="M.65.975H.093A.1.1,0,0,1,0,.882V.093A.1.1,0,0,1,.093,0H.65A.1.1,0,0,1,.743.093V.882A.1.1,0,0,1,.65.975Z" transform="translate(0.139 0.719)" fill="#898989" fill-rule="evenodd"/>
            <path id="路径_205-16" data-name="路径 205" d="M.65.279H.093A.1.1,0,0,1,0,.186V.093A.1.1,0,0,1,.093,0H.65A.1.1,0,0,1,.743.093V.186A.1.1,0,0,1,.65.279Z" transform="translate(0.139 1.764)" fill="#c5c5c5" fill-rule="evenodd"/>
          </g>
        </g>
      </g>
    </g>
    <rect id="矩形_2602" data-name="矩形 2602" width="72" height="72" fill="none"/>
  </g>
</svg>
