<svg xmlns="http://www.w3.org/2000/svg" xmlns:xlink="http://www.w3.org/1999/xlink" width="72" height="72.176" viewBox="0 0 72 72.176">
  <defs>
    <linearGradient id="linear-gradient" x1="0.5" y1="0.93" x2="0.5" y2="-0.097" gradientUnits="objectBoundingBox">
      <stop offset="0" stop-color="#727272"/>
      <stop offset="0.17" stop-color="#b9b9b9"/>
      <stop offset="0.35" stop-color="#e9e9e9"/>
      <stop offset="0.48" stop-color="#f7f7f7"/>
      <stop offset="0.58" stop-color="#fefefe"/>
      <stop offset="0.71" stop-color="#bbb"/>
      <stop offset="0.82" stop-color="#6b6b6b"/>
      <stop offset="1" stop-color="#d9d9d9"/>
    </linearGradient>
    <linearGradient id="linear-gradient-2" x1="0.93" y1="0.5" x2="-0.097" y2="0.5" gradientUnits="objectBoundingBox">
      <stop offset="0" stop-color="#6a6a6a"/>
      <stop offset="0.17" stop-color="#adadad"/>
      <stop offset="0.35" stop-color="#ebebeb"/>
      <stop offset="0.48" stop-color="#f6f6f6"/>
      <stop offset="0.58" stop-color="#fefefe"/>
      <stop offset="0.71" stop-color="#b8b8b8"/>
      <stop offset="0.82" stop-color="#747474"/>
      <stop offset="1" stop-color="#d8d8d8"/>
    </linearGradient>
    <linearGradient id="linear-gradient-3" x1="0.5" y1="0.93" x2="0.5" y2="-0.097" gradientUnits="objectBoundingBox">
      <stop offset="0" stop-color="#737373"/>
      <stop offset="0.17" stop-color="#b5b5b5"/>
      <stop offset="0.35" stop-color="#e7e7e7"/>
      <stop offset="0.48" stop-color="#f3f3f3"/>
      <stop offset="0.58" stop-color="#fefefe"/>
      <stop offset="0.71" stop-color="#bbb"/>
      <stop offset="0.82" stop-color="#777"/>
      <stop offset="1" stop-color="#dcdcdc"/>
    </linearGradient>
    <linearGradient id="linear-gradient-4" x1="0.501" y1="0.941" x2="0.501" y2="-0.134" gradientUnits="objectBoundingBox">
      <stop offset="0" stop-color="#6c6c6c"/>
      <stop offset="0.21" stop-color="#b1b1b1"/>
      <stop offset="0.3" stop-color="#ececec"/>
      <stop offset="0.36" stop-color="#f7f7f7"/>
      <stop offset="0.5" stop-color="#fefefe"/>
      <stop offset="0.71" stop-color="#bcbcbc"/>
      <stop offset="0.82" stop-color="#787878"/>
      <stop offset="1" stop-color="#d7d7d7"/>
    </linearGradient>
    <linearGradient id="linear-gradient-5" x1="0.494" y1="0.059" x2="0.494" y2="1.077" gradientUnits="objectBoundingBox">
      <stop offset="0" stop-color="#696969"/>
      <stop offset="0.17" stop-color="#afafaf"/>
      <stop offset="0.35" stop-color="#efefef"/>
      <stop offset="0.48" stop-color="#f8f8f8"/>
      <stop offset="0.58" stop-color="#fefefe"/>
      <stop offset="0.71" stop-color="#b7b7b7"/>
      <stop offset="0.82" stop-color="#737373"/>
      <stop offset="1" stop-color="#dcdcdc"/>
    </linearGradient>
    <linearGradient id="linear-gradient-6" x1="0.5" y1="0.071" x2="0.5" y2="1.091" gradientUnits="objectBoundingBox">
      <stop offset="0" stop-color="#6b6b6b"/>
      <stop offset="0.17" stop-color="#adadad"/>
      <stop offset="0.35" stop-color="#ededed"/>
      <stop offset="0.48" stop-color="#f7f7f7"/>
      <stop offset="0.58" stop-color="#fefefe"/>
      <stop offset="0.71" stop-color="#b9b9b9"/>
      <stop offset="0.82" stop-color="#707070"/>
      <stop offset="1" stop-color="#d0d0d0"/>
    </linearGradient>
    <radialGradient id="radial-gradient" cx="0.99" cy="1" r="1.012" gradientTransform="translate(0)" gradientUnits="objectBoundingBox">
      <stop offset="0" stop-color="#6a6a6a"/>
      <stop offset="0.46" stop-color="#6f6f6f"/>
      <stop offset="0.58" stop-color="#aaa"/>
      <stop offset="0.67" stop-color="#ebebeb"/>
      <stop offset="0.72" stop-color="#f5f5f5"/>
      <stop offset="0.78" stop-color="#fff"/>
      <stop offset="0.87" stop-color="#b9b9b9"/>
      <stop offset="0.94" stop-color="#747474"/>
      <stop offset="1" stop-color="#c9c9c9"/>
    </radialGradient>
    <linearGradient id="linear-gradient-22" x1="0.93" y1="0.5" x2="-0.097" y2="0.5" gradientUnits="objectBoundingBox">
      <stop offset="0" stop-color="#717171"/>
      <stop offset="0.17" stop-color="#aaa"/>
      <stop offset="0.35" stop-color="#efefef"/>
      <stop offset="0.48" stop-color="#f7f7f7"/>
      <stop offset="0.58" stop-color="#fefefe"/>
      <stop offset="0.71" stop-color="#b6b6b6"/>
      <stop offset="0.82" stop-color="#717171"/>
      <stop offset="1" stop-color="#dfdfdf"/>
    </linearGradient>
    <linearGradient id="linear-gradient-24" x1="0.048" y1="0.5" x2="0.949" y2="0.5" gradientUnits="objectBoundingBox">
      <stop offset="0" stop-color="#231815"/>
      <stop offset="0.5" stop-color="#e8e9e9"/>
      <stop offset="0.78" stop-color="#9e9e9f"/>
      <stop offset="1" stop-color="#484545"/>
    </linearGradient>
    <linearGradient id="linear-gradient-25" x1="-0.072" y1="0.5" x2="1.615" y2="0.5" gradientUnits="objectBoundingBox">
      <stop offset="0" stop-color="#231815"/>
      <stop offset="0.38" stop-color="#9e9e9f"/>
      <stop offset="0.86" stop-color="#e8e9e9"/>
      <stop offset="1" stop-color="#484545"/>
    </linearGradient>
    <radialGradient id="radial-gradient-3" cx="0.162" cy="0.299" r="0.662" gradientTransform="translate(0.057) scale(0.887 1)" gradientUnits="objectBoundingBox">
      <stop offset="0" stop-color="#fff"/>
      <stop offset="1" stop-color="#9fa0a0"/>
    </radialGradient>
    <radialGradient id="radial-gradient-4" cx="0.159" cy="0.299" r="0.662" xlink:href="#radial-gradient-3"/>
    <linearGradient id="linear-gradient-28" x1="1.097" y1="0.525" x2="0.039" y2="0.525" gradientUnits="objectBoundingBox">
      <stop offset="0" stop-color="#191818"/>
      <stop offset="0.24" stop-color="#9d9d9e"/>
      <stop offset="0.51" stop-color="#f6f6f6"/>
      <stop offset="0.72" stop-color="#9d9d9e"/>
      <stop offset="1" stop-color="#4f4c4b"/>
    </linearGradient>
    <linearGradient id="linear-gradient-29" x1="1.059" y1="0.638" x2="0.006" y2="0.291" gradientUnits="objectBoundingBox">
      <stop offset="0"/>
      <stop offset="0.19" stop-color="#9fa0a0"/>
      <stop offset="0.4" stop-color="#e9eaea"/>
      <stop offset="0.68" stop-color="#9fa0a0"/>
      <stop offset="1" stop-color="#494645"/>
    </linearGradient>
    <linearGradient id="linear-gradient-30" x1="1.094" y1="0.492" x2="0.048" y2="0.492" xlink:href="#linear-gradient-28"/>
    <linearGradient id="linear-gradient-31" x1="0.723" y1="0.773" x2="0.122" y2="0.278" gradientUnits="objectBoundingBox">
      <stop offset="0" stop-color="#9fa0a0"/>
      <stop offset="1" stop-color="#fff"/>
    </linearGradient>
    <radialGradient id="radial-gradient-5" cx="0.161" cy="0.287" r="0.618" gradientTransform="translate(-0.064) scale(1.129 1)" xlink:href="#radial-gradient-3"/>
    <linearGradient id="linear-gradient-32" x1="0.276" y1="0.761" x2="0.879" y2="0.3" xlink:href="#linear-gradient-31"/>
    <radialGradient id="radial-gradient-6" cx="0.163" cy="0.289" r="0.623" gradientTransform="translate(-0.054) scale(1.107 1)" xlink:href="#radial-gradient-3"/>
    <radialGradient id="radial-gradient-7" cx="0.16" cy="0.289" r="0.612" gradientTransform="translate(-0.005) scale(1.01 1)" xlink:href="#radial-gradient-3"/>
    <linearGradient id="linear-gradient-35" x1="0.942" y1="0.5" x2="-0.133" y2="0.5" gradientUnits="objectBoundingBox">
      <stop offset="0" stop-color="#6d6d6d"/>
      <stop offset="0.21" stop-color="#b2b2b2"/>
      <stop offset="0.3" stop-color="#ebebeb"/>
      <stop offset="0.36" stop-color="#f9f9f9"/>
      <stop offset="0.5" stop-color="#fefefe"/>
      <stop offset="0.71" stop-color="#bbb"/>
      <stop offset="0.82" stop-color="#717171"/>
      <stop offset="1" stop-color="#d5d5d5"/>
    </linearGradient>
  </defs>
  <g id="_08" data-name="08" transform="translate(0 0.176)">
    <g id="组_1589" data-name="组 1589" transform="translate(-2849.45 -96)">
      <path id="路径_368" data-name="路径 368" d="M135.89,294.1H130.5V272.344h5.39a3.862,3.862,0,0,0,3.854-3.854V263.1H161.5v5.39a3.862,3.862,0,0,0,3.854,3.854h5.39V294.1H135.89Z" transform="translate(2735.064 -128.843)" fill-rule="evenodd"/>
      <path id="路径_369" data-name="路径 369" d="M136.178,294.246H130.9v-21.5h5.278a3.981,3.981,0,0,0,3.965-3.965V263.5h21.5v5.278a3.981,3.981,0,0,0,3.965,3.965h5.278v21.5H136.178Z" transform="translate(2734.775 -129.131)" fill-rule="evenodd" fill="url(#linear-gradient)"/>
      <path id="路径_370" data-name="路径 370" d="M164,278.569V263.5h21.5v15.069h0v6.51H164Z" transform="translate(2710.891 -129.089)" fill-rule="evenodd" fill="url(#linear-gradient-2)"/>
      <path id="路径_371" data-name="路径 371" d="M136.29,318.1H130.9V296.6h9.327a64.626,64.626,0,0,0,21.5,0h9.132v21.5H136.29Z" transform="translate(2734.775 -152.987)" fill-rule="evenodd" fill="url(#linear-gradient-3)"/>
      <g id="组_283" data-name="组 283" transform="translate(2908.583 140.988) rotate(90)">
        <g id="组_280" data-name="组 280" transform="translate(26.837 40.213) rotate(90)">
          <path id="路径_189" data-name="路径 189" d="M4.5.977A.989.989,0,0,0,3.519,0H.977A.989.989,0,0,0,0,.977V25.859a.989.989,0,0,0,.977.977H3.519a.989.989,0,0,0,.977-.977Z" transform="translate(1.424 0)" fill-rule="evenodd"/>
          <path id="路径_190" data-name="路径 190" d="M4.217.839V25.721a.84.84,0,0,1-.838.838H.838A.84.84,0,0,1,0,25.721V.839A.84.84,0,0,1,.838,0H3.379A.807.807,0,0,1,4.217.839Z" transform="translate(1.564 0.138)" fill-rule="evenodd" fill="url(#linear-gradient-4)"/>
          <g id="组_39" data-name="组 39" transform="translate(0 22.746)">
            <rect id="矩形_57" data-name="矩形 57" width="0.866" height="1.536" transform="translate(0.698 0.531)"/>
            <rect id="矩形_58" data-name="矩形 58" width="0.614" height="1.313" transform="translate(0.81 0.67)" fill="url(#linear-gradient-5)"/>
            <path id="路径_201" data-name="路径 201" d="M.251,2.625h.754a.25.25,0,0,0,.251-.251V.251A.25.25,0,0,0,1.005,0H.251A.25.25,0,0,0,0,.251V2.374A.25.25,0,0,0,.251,2.625Z" transform="translate(0 0)" fill-rule="evenodd"/>
            <path id="路径_202" data-name="路径 202" d="M.14,2.4H.894a.132.132,0,0,0,.14-.14V.14A.132.132,0,0,0,.894,0H.14A.132.132,0,0,0,0,.14V2.262C.028,2.318.084,2.4.14,2.4Z" transform="translate(0.112 0.112)" fill-rule="evenodd" fill="url(#linear-gradient-6)"/>
            <path id="路径_203" data-name="路径 203" d="M.782.614H.112A.12.12,0,0,1,0,.5V.112A.12.12,0,0,1,.112,0h.67A.12.12,0,0,1,.894.112V.5A.1.1,0,0,1,.782.614Z" transform="translate(0.168 0.168)" fill="#666" fill-rule="evenodd"/>
            <path id="路径_204" data-name="路径 204" d="M.782,1.173H.112A.12.12,0,0,1,0,1.061V.112A.12.12,0,0,1,.112,0h.67A.12.12,0,0,1,.894.112v.949A.12.12,0,0,1,.782,1.173Z" transform="translate(0.168 0.866)" fill="#898989" fill-rule="evenodd"/>
            <path id="路径_205" data-name="路径 205" d="M.782.335H.112A.12.12,0,0,1,0,.223V.112A.12.12,0,0,1,.112,0h.67A.12.12,0,0,1,.894.112V.223A.12.12,0,0,1,.782.335Z" transform="translate(0.168 2.122)" fill="#c5c5c5" fill-rule="evenodd"/>
          </g>
          <g id="组_270" data-name="组 270" transform="translate(0 15.764)">
            <rect id="矩形_57-2" data-name="矩形 57" width="0.866" height="1.536" transform="translate(0.698 0.531)"/>
            <rect id="矩形_58-2" data-name="矩形 58" width="0.614" height="1.313" transform="translate(0.81 0.67)" fill="url(#linear-gradient-5)"/>
            <path id="路径_201-2" data-name="路径 201" d="M.251,2.625h.754a.25.25,0,0,0,.251-.251V.251A.25.25,0,0,0,1.005,0H.251A.25.25,0,0,0,0,.251V2.374A.25.25,0,0,0,.251,2.625Z" transform="translate(0 0)" fill-rule="evenodd"/>
            <path id="路径_202-2" data-name="路径 202" d="M.14,2.4H.894a.132.132,0,0,0,.14-.14V.14A.132.132,0,0,0,.894,0H.14A.132.132,0,0,0,0,.14V2.262C.028,2.318.084,2.4.14,2.4Z" transform="translate(0.112 0.112)" fill-rule="evenodd" fill="url(#linear-gradient-6)"/>
            <path id="路径_203-2" data-name="路径 203" d="M.782.614H.112A.12.12,0,0,1,0,.5V.112A.12.12,0,0,1,.112,0h.67A.12.12,0,0,1,.894.112V.5A.1.1,0,0,1,.782.614Z" transform="translate(0.168 0.168)" fill="#666" fill-rule="evenodd"/>
            <path id="路径_204-2" data-name="路径 204" d="M.782,1.173H.112A.12.12,0,0,1,0,1.061V.112A.12.12,0,0,1,.112,0h.67A.12.12,0,0,1,.894.112v.949A.12.12,0,0,1,.782,1.173Z" transform="translate(0.168 0.866)" fill="#898989" fill-rule="evenodd"/>
            <path id="路径_205-2" data-name="路径 205" d="M.782.335H.112A.12.12,0,0,1,0,.223V.112A.12.12,0,0,1,.112,0h.67A.12.12,0,0,1,.894.112V.223A.12.12,0,0,1,.782.335Z" transform="translate(0.168 2.122)" fill="#c5c5c5" fill-rule="evenodd"/>
          </g>
          <g id="组_271" data-name="组 271" transform="translate(0 8.503)">
            <rect id="矩形_57-3" data-name="矩形 57" width="0.866" height="1.536" transform="translate(0.698 0.531)"/>
            <rect id="矩形_58-3" data-name="矩形 58" width="0.614" height="1.313" transform="translate(0.81 0.67)" fill="url(#linear-gradient-5)"/>
            <path id="路径_201-3" data-name="路径 201" d="M.251,2.625h.754a.25.25,0,0,0,.251-.251V.251A.25.25,0,0,0,1.005,0H.251A.25.25,0,0,0,0,.251V2.374A.25.25,0,0,0,.251,2.625Z" transform="translate(0 0)" fill-rule="evenodd"/>
            <path id="路径_202-3" data-name="路径 202" d="M.14,2.4H.894a.132.132,0,0,0,.14-.14V.14A.132.132,0,0,0,.894,0H.14A.132.132,0,0,0,0,.14V2.262C.028,2.318.084,2.4.14,2.4Z" transform="translate(0.112 0.112)" fill-rule="evenodd" fill="url(#linear-gradient-6)"/>
            <path id="路径_203-3" data-name="路径 203" d="M.782.614H.112A.12.12,0,0,1,0,.5V.112A.12.12,0,0,1,.112,0h.67A.12.12,0,0,1,.894.112V.5A.1.1,0,0,1,.782.614Z" transform="translate(0.168 0.168)" fill="#666" fill-rule="evenodd"/>
            <path id="路径_204-3" data-name="路径 204" d="M.782,1.173H.112A.12.12,0,0,1,0,1.061V.112A.12.12,0,0,1,.112,0h.67A.12.12,0,0,1,.894.112v.949A.12.12,0,0,1,.782,1.173Z" transform="translate(0.168 0.866)" fill="#898989" fill-rule="evenodd"/>
            <path id="路径_205-3" data-name="路径 205" d="M.782.335H.112A.12.12,0,0,1,0,.223V.112A.12.12,0,0,1,.112,0h.67A.12.12,0,0,1,.894.112V.223A.12.12,0,0,1,.782.335Z" transform="translate(0.168 2.122)" fill="#c5c5c5" fill-rule="evenodd"/>
          </g>
          <g id="组_272" data-name="组 272" transform="translate(0 1.522)">
            <rect id="矩形_57-4" data-name="矩形 57" width="0.866" height="1.536" transform="translate(0.698 0.531)"/>
            <rect id="矩形_58-4" data-name="矩形 58" width="0.614" height="1.313" transform="translate(0.81 0.67)" fill="url(#linear-gradient-5)"/>
            <path id="路径_201-4" data-name="路径 201" d="M.251,2.625h.754a.25.25,0,0,0,.251-.251V.251A.25.25,0,0,0,1.005,0H.251A.25.25,0,0,0,0,.251V2.374A.25.25,0,0,0,.251,2.625Z" transform="translate(0 0)" fill-rule="evenodd"/>
            <path id="路径_202-4" data-name="路径 202" d="M.14,2.4H.894a.132.132,0,0,0,.14-.14V.14A.132.132,0,0,0,.894,0H.14A.132.132,0,0,0,0,.14V2.262C.028,2.318.084,2.4.14,2.4Z" transform="translate(0.112 0.112)" fill-rule="evenodd" fill="url(#linear-gradient-6)"/>
            <path id="路径_203-4" data-name="路径 203" d="M.782.614H.112A.12.12,0,0,1,0,.5V.112A.12.12,0,0,1,.112,0h.67A.12.12,0,0,1,.894.112V.5A.1.1,0,0,1,.782.614Z" transform="translate(0.168 0.168)" fill="#666" fill-rule="evenodd"/>
            <path id="路径_204-4" data-name="路径 204" d="M.782,1.173H.112A.12.12,0,0,1,0,1.061V.112A.12.12,0,0,1,.112,0h.67A.12.12,0,0,1,.894.112v.949A.12.12,0,0,1,.782,1.173Z" transform="translate(0.168 0.866)" fill="#898989" fill-rule="evenodd"/>
            <path id="路径_205-4" data-name="路径 205" d="M.782.335H.112A.12.12,0,0,1,0,.223V.112A.12.12,0,0,1,.112,0h.67A.12.12,0,0,1,.894.112V.223A.12.12,0,0,1,.782.335Z" transform="translate(0.168 2.122)" fill="#c5c5c5" fill-rule="evenodd"/>
          </g>
        </g>
        <g id="组_281" data-name="组 281" transform="translate(0 5.92) rotate(-90)">
          <path id="路径_189-2" data-name="路径 189" d="M4.5.977A.989.989,0,0,0,3.519,0H.977A.989.989,0,0,0,0,.977V25.859a.989.989,0,0,0,.977.977H3.519a.989.989,0,0,0,.977-.977Z" transform="translate(1.424 0)" fill-rule="evenodd"/>
          <path id="路径_190-2" data-name="路径 190" d="M4.217.839V25.721a.84.84,0,0,1-.838.838H.838A.84.84,0,0,1,0,25.721V.839A.84.84,0,0,1,.838,0H3.379A.807.807,0,0,1,4.217.839Z" transform="translate(1.564 0.138)" fill-rule="evenodd" fill="url(#linear-gradient-4)"/>
          <g id="组_39-2" data-name="组 39" transform="translate(0 22.746)">
            <rect id="矩形_57-5" data-name="矩形 57" width="0.866" height="1.536" transform="translate(0.698 0.531)"/>
            <rect id="矩形_58-5" data-name="矩形 58" width="0.614" height="1.313" transform="translate(0.81 0.67)" fill="url(#linear-gradient-5)"/>
            <path id="路径_201-5" data-name="路径 201" d="M.251,2.625h.754a.25.25,0,0,0,.251-.251V.251A.25.25,0,0,0,1.005,0H.251A.25.25,0,0,0,0,.251V2.374A.25.25,0,0,0,.251,2.625Z" transform="translate(0 0)" fill-rule="evenodd"/>
            <path id="路径_202-5" data-name="路径 202" d="M.14,2.4H.894a.132.132,0,0,0,.14-.14V.14A.132.132,0,0,0,.894,0H.14A.132.132,0,0,0,0,.14V2.262C.028,2.318.084,2.4.14,2.4Z" transform="translate(0.112 0.112)" fill-rule="evenodd" fill="url(#linear-gradient-6)"/>
            <path id="路径_203-5" data-name="路径 203" d="M.782.614H.112A.12.12,0,0,1,0,.5V.112A.12.12,0,0,1,.112,0h.67A.12.12,0,0,1,.894.112V.5A.1.1,0,0,1,.782.614Z" transform="translate(0.168 0.168)" fill="#666" fill-rule="evenodd"/>
            <path id="路径_204-5" data-name="路径 204" d="M.782,1.173H.112A.12.12,0,0,1,0,1.061V.112A.12.12,0,0,1,.112,0h.67A.12.12,0,0,1,.894.112v.949A.12.12,0,0,1,.782,1.173Z" transform="translate(0.168 0.866)" fill="#898989" fill-rule="evenodd"/>
            <path id="路径_205-5" data-name="路径 205" d="M.782.335H.112A.12.12,0,0,1,0,.223V.112A.12.12,0,0,1,.112,0h.67A.12.12,0,0,1,.894.112V.223A.12.12,0,0,1,.782.335Z" transform="translate(0.168 2.122)" fill="#c5c5c5" fill-rule="evenodd"/>
          </g>
          <g id="组_270-2" data-name="组 270" transform="translate(0 15.764)">
            <rect id="矩形_57-6" data-name="矩形 57" width="0.866" height="1.536" transform="translate(0.698 0.531)"/>
            <rect id="矩形_58-6" data-name="矩形 58" width="0.614" height="1.313" transform="translate(0.81 0.67)" fill="url(#linear-gradient-5)"/>
            <path id="路径_201-6" data-name="路径 201" d="M.251,2.625h.754a.25.25,0,0,0,.251-.251V.251A.25.25,0,0,0,1.005,0H.251A.25.25,0,0,0,0,.251V2.374A.25.25,0,0,0,.251,2.625Z" transform="translate(0 0)" fill-rule="evenodd"/>
            <path id="路径_202-6" data-name="路径 202" d="M.14,2.4H.894a.132.132,0,0,0,.14-.14V.14A.132.132,0,0,0,.894,0H.14A.132.132,0,0,0,0,.14V2.262C.028,2.318.084,2.4.14,2.4Z" transform="translate(0.112 0.112)" fill-rule="evenodd" fill="url(#linear-gradient-6)"/>
            <path id="路径_203-6" data-name="路径 203" d="M.782.614H.112A.12.12,0,0,1,0,.5V.112A.12.12,0,0,1,.112,0h.67A.12.12,0,0,1,.894.112V.5A.1.1,0,0,1,.782.614Z" transform="translate(0.168 0.168)" fill="#666" fill-rule="evenodd"/>
            <path id="路径_204-6" data-name="路径 204" d="M.782,1.173H.112A.12.12,0,0,1,0,1.061V.112A.12.12,0,0,1,.112,0h.67A.12.12,0,0,1,.894.112v.949A.12.12,0,0,1,.782,1.173Z" transform="translate(0.168 0.866)" fill="#898989" fill-rule="evenodd"/>
            <path id="路径_205-6" data-name="路径 205" d="M.782.335H.112A.12.12,0,0,1,0,.223V.112A.12.12,0,0,1,.112,0h.67A.12.12,0,0,1,.894.112V.223A.12.12,0,0,1,.782.335Z" transform="translate(0.168 2.122)" fill="#c5c5c5" fill-rule="evenodd"/>
          </g>
          <g id="组_271-2" data-name="组 271" transform="translate(0 8.503)">
            <rect id="矩形_57-7" data-name="矩形 57" width="0.866" height="1.536" transform="translate(0.698 0.531)"/>
            <rect id="矩形_58-7" data-name="矩形 58" width="0.614" height="1.313" transform="translate(0.81 0.67)" fill="url(#linear-gradient-5)"/>
            <path id="路径_201-7" data-name="路径 201" d="M.251,2.625h.754a.25.25,0,0,0,.251-.251V.251A.25.25,0,0,0,1.005,0H.251A.25.25,0,0,0,0,.251V2.374A.25.25,0,0,0,.251,2.625Z" transform="translate(0 0)" fill-rule="evenodd"/>
            <path id="路径_202-7" data-name="路径 202" d="M.14,2.4H.894a.132.132,0,0,0,.14-.14V.14A.132.132,0,0,0,.894,0H.14A.132.132,0,0,0,0,.14V2.262C.028,2.318.084,2.4.14,2.4Z" transform="translate(0.112 0.112)" fill-rule="evenodd" fill="url(#linear-gradient-6)"/>
            <path id="路径_203-7" data-name="路径 203" d="M.782.614H.112A.12.12,0,0,1,0,.5V.112A.12.12,0,0,1,.112,0h.67A.12.12,0,0,1,.894.112V.5A.1.1,0,0,1,.782.614Z" transform="translate(0.168 0.168)" fill="#666" fill-rule="evenodd"/>
            <path id="路径_204-7" data-name="路径 204" d="M.782,1.173H.112A.12.12,0,0,1,0,1.061V.112A.12.12,0,0,1,.112,0h.67A.12.12,0,0,1,.894.112v.949A.12.12,0,0,1,.782,1.173Z" transform="translate(0.168 0.866)" fill="#898989" fill-rule="evenodd"/>
            <path id="路径_205-7" data-name="路径 205" d="M.782.335H.112A.12.12,0,0,1,0,.223V.112A.12.12,0,0,1,.112,0h.67A.12.12,0,0,1,.894.112V.223A.12.12,0,0,1,.782.335Z" transform="translate(0.168 2.122)" fill="#c5c5c5" fill-rule="evenodd"/>
          </g>
          <g id="组_272-2" data-name="组 272" transform="translate(0 1.522)">
            <rect id="矩形_57-8" data-name="矩形 57" width="0.866" height="1.536" transform="translate(0.698 0.531)"/>
            <rect id="矩形_58-8" data-name="矩形 58" width="0.614" height="1.313" transform="translate(0.81 0.67)" fill="url(#linear-gradient-5)"/>
            <path id="路径_201-8" data-name="路径 201" d="M.251,2.625h.754a.25.25,0,0,0,.251-.251V.251A.25.25,0,0,0,1.005,0H.251A.25.25,0,0,0,0,.251V2.374A.25.25,0,0,0,.251,2.625Z" transform="translate(0 0)" fill-rule="evenodd"/>
            <path id="路径_202-8" data-name="路径 202" d="M.14,2.4H.894a.132.132,0,0,0,.14-.14V.14A.132.132,0,0,0,.894,0H.14A.132.132,0,0,0,0,.14V2.262C.028,2.318.084,2.4.14,2.4Z" transform="translate(0.112 0.112)" fill-rule="evenodd" fill="url(#linear-gradient-6)"/>
            <path id="路径_203-8" data-name="路径 203" d="M.782.614H.112A.12.12,0,0,1,0,.5V.112A.12.12,0,0,1,.112,0h.67A.12.12,0,0,1,.894.112V.5A.1.1,0,0,1,.782.614Z" transform="translate(0.168 0.168)" fill="#666" fill-rule="evenodd"/>
            <path id="路径_204-8" data-name="路径 204" d="M.782,1.173H.112A.12.12,0,0,1,0,1.061V.112A.12.12,0,0,1,.112,0h.67A.12.12,0,0,1,.894.112v.949A.12.12,0,0,1,.782,1.173Z" transform="translate(0.168 0.866)" fill="#898989" fill-rule="evenodd"/>
            <path id="路径_205-8" data-name="路径 205" d="M.782.335H.112A.12.12,0,0,1,0,.223V.112A.12.12,0,0,1,.112,0h.67A.12.12,0,0,1,.894.112V.223A.12.12,0,0,1,.782.335Z" transform="translate(0.168 2.122)" fill="#c5c5c5" fill-rule="evenodd"/>
          </g>
        </g>
      </g>
      <g id="组_1588" data-name="组 1588" transform="translate(2873.215 95.824)">
        <path id="路径_181" data-name="路径 181" d="M3.881,2.226V0A3.894,3.894,0,0,0,0,3.881H2.226A1.666,1.666,0,0,1,3.881,2.226Z" transform="translate(18.432 16.269) rotate(90)" fill-rule="evenodd"/>
        <path id="路径_182" data-name="路径 182" d="M3.869,2.2V0A3.87,3.87,0,0,0,0,3.869H2.2A1.67,1.67,0,0,1,3.869,2.2Z" transform="translate(18.418 16.28) rotate(90)" fill-rule="evenodd" fill="url(#radial-gradient)"/>
        <g id="组_1564" data-name="组 1564" transform="translate(5.75 20.168)">
          <rect id="矩形_67" data-name="矩形 67" width="2.228" height="9.5" transform="translate(0 0)"/>
          <path id="路径_228" data-name="路径 228" d="M24.6,36.186H22.4V26.7h2.2Z" transform="translate(-22.389 -26.694)" fill-rule="evenodd" fill="url(#linear-gradient-22)"/>
        </g>
        <g id="组_1565" data-name="组 1565" transform="translate(18.432 29.668) rotate(180)">
          <rect id="矩形_67-2" data-name="矩形 67" width="2.232" height="9.519" transform="translate(0 0)"/>
          <path id="路径_228-2" data-name="路径 228" d="M2.206,9.5H0V0H2.206Z" transform="translate(0.011 0.006)" fill-rule="evenodd" fill="url(#linear-gradient-22)"/>
        </g>
        <path id="路径_181-2" data-name="路径 181" d="M136.081,422.026V419.8a3.894,3.894,0,0,0-3.881,3.881h2.226A1.666,1.666,0,0,1,136.081,422.026Z" transform="translate(-126.45 -403.515)" fill-rule="evenodd"/>
        <path id="路径_182-2" data-name="路径 182" d="M136.469,422.5v-2.2a3.87,3.87,0,0,0-3.869,3.869h2.2A1.67,1.67,0,0,1,136.469,422.5Z" transform="translate(-126.839 -404.001)" fill-rule="evenodd" fill="url(#radial-gradient)"/>
        <g id="组_1560" data-name="组 1560" transform="translate(10.388 10.456)">
          <g id="组_1379" data-name="组 1379" transform="translate(0 0)">
            <path id="路径_3298" data-name="路径 3298" d="M305.179,326.439h0a.612.612,0,0,1,.065.181c.043.231-.032.445-.183.494v1.038a.476.476,0,0,1,.151.231c0,.016.011.016.011.033a.462.462,0,0,1-.086.527c-.022.016-.054.033-.075.049v1.054a.4.4,0,0,1,.129.165.388.388,0,0,1,.065.231c.022.214-.054.4-.194.428v.988a.438.438,0,0,1,.108.115l.022.033a.35.35,0,0,1,.065.181c0,.016.011.049.011.066a.841.841,0,0,1-.6.3h-2.1a.99.99,0,0,1-.312-.066v-.692c-.011,0-.032-.016-.043-.016-.409-.2-.409-.939.054-.873l.011-.922a.032.032,0,0,1-.032-.016c-.4-.132-.452-.939.043-.889l.011-.988c-.011,0-.032-.016-.043-.016-.42-.165-.387-1,.054-.906l.011-.972c-.011,0-.032-.016-.043-.016-.42-.165-.387-1.021.054-.922,0-.329.011-.659.011-1-.011,0-.032-.016-.043-.016a.642.642,0,0,1-.29-.412.582.582,0,0,1,.065-.428.177.177,0,0,1,.043-.049.289.289,0,0,1,.247-.066l.011-1.038c-.022,0-.032-.016-.054-.016-.387-.181-.409-1.038.054-.972l.011-1.071c-.463-.181-.473-1.12.011-1.021l.011-1.087c-.011,0-.032-.016-.043-.016-.409-.148-.42-1.1.054-1.021l.011-1.136c-.011,0-.032-.016-.043-.016a.744.744,0,0,1-.2-.972.273.273,0,0,1,.258-.1v-.4a.47.47,0,0,1,.151-.016h2.108a.74.74,0,0,1,.473.181.427.427,0,0,1-.129.132v1.252c.226.214.29.84,0,.955v1.219c.247.231.258.823,0,.939v1.169c.237.214.29.774,0,.889v1.169a.609.609,0,0,1,.14.214l.032.1c.054.247-.011.494-.172.56v1.12a.61.61,0,0,1,.14.214.235.235,0,0,1,.032.115.449.449,0,0,1-.172.527v1.087A1.15,1.15,0,0,1,305.179,326.439Z" transform="translate(-301.91 -314.4)" fill="#231815" fill-rule="evenodd"/>
            <path id="路径_3299" data-name="路径 3299" d="M308.2,323.79v.511c0,.692,0,1.383.011,2.059s0,1.334.011,2.009v1.96c0,.642,0,1.285.011,1.894v.428a.667.667,0,0,1-.355.1h-2.108a.775.775,0,0,1-.269-.049v-.478c.011-.626.011-1.268.021-1.894.011-.642.011-1.3.022-1.96s.011-1.334.021-2.009.011-1.367.022-2.059v-.511c.011-.708.011-1.416.022-2.125.011-.725.011-1.449.022-2.19s.011-1.5.022-2.24c.011-.774.011-1.532.022-2.322v-.3c.032,0,.075-.016.108-.016h2.108a.926.926,0,0,1,.3.066v.231c0,.774,0,1.548.011,2.322,0,.758,0,1.5.011,2.24s0,1.466.011,2.19C308.2,322.373,308.2,323.082,308.2,323.79Z" transform="translate(-305.114 -314.578)" fill-rule="evenodd" fill="url(#linear-gradient-24)"/>
            <path id="路径_3300" data-name="路径 3300" d="M305.3,316.149c.344,0,.495,1.054-.011.923-.129-.033-.635-.247-1.162-.478l-1.312-.577a.647.647,0,0,1-.183-.84c.065-.082.215-.132.29-.033.021.033.6.264,1.183.511.57.214,1.151.461,1.194.494Zm-.6-1.549h.42a.736.736,0,0,1,.441.148.267.267,0,0,1-.28.115h-.032a5.069,5.069,0,0,0-.495-.247l-.054-.016Zm.979,17.891a.921.921,0,0,1-.419.247c-.344-.115-.8-.247-1.248-.362a8.621,8.621,0,0,1-1.334-.461c-.355-.181-.377-.807.054-.741h.054c.021.033.592.214,1.194.412s1.216.4,1.345.428a.488.488,0,0,1,.355.478Zm-.387-8.023c.463.115.473,1-.011.824-.183-.066-.775-.28-1.334-.478a12.41,12.41,0,0,1-1.194-.461.547.547,0,0,1-.183-.774c.086-.082.183-.049.28-.049a10.187,10.187,0,0,0,1.151.461c.57.214,1.183.428,1.291.478Zm.022,5.733c-.129-.049-.742-.247-1.334-.445a11.822,11.822,0,0,1-1.183-.428h-.032c-.495-.082-.409.643-.065.758.43.148.871.3,1.3.445s.861.3,1.291.428c.473.214.506-.643.022-.758Zm-.032-11.894c-.118-.049-.71-.28-1.269-.511a11.994,11.994,0,0,1-1.119-.494h-.043c-.441-.115-.42.741-.065.873.419.165.828.346,1.237.511s.818.329,1.226.511c.43.264.538-.758.032-.89Zm.022,8.105c-.409-.148-.828-.3-1.237-.445s-.828-.3-1.248-.445c-.441-.165-.473.626-.1.774.42.165.85.313,1.28.478.43.148.861.3,1.28.445.495.181.484-.692.022-.807Zm-.011-3.937c.441.1.473,1,.011.857-.42-.165-.85-.329-1.269-.478-.43-.165-.85-.329-1.28-.494-.355-.165-.366-.906.054-.84h.043a9.564,9.564,0,0,0,1.14.461c.581.214,1.183.445,1.3.494ZM302.83,320.3c-.42-.165-.441-.988,0-.873h.054a12.567,12.567,0,0,0,1.162.494c.581.231,1.183.461,1.323.511.355.148.4.939-.065.84h-.032a11.57,11.57,0,0,0-1.183-.478,9.435,9.435,0,0,1-1.259-.494Zm2.5,8.023c.2-.033.506.511.247.741-.086.082-.172.033-.269.033a11.411,11.411,0,0,0-1.194-.428c-.6-.2-1.248-.428-1.388-.478-.387-.148-.355-.923.1-.758l1.259.445C304.486,328.027,304.906,328.175,305.325,328.323Z" transform="translate(-302.357 -314.578)" fill-rule="evenodd" fill="url(#linear-gradient-25)"/>
            <path id="路径_3301" data-name="路径 3301" d="M303.4,318.3c.2.084.409.168.613.268.2.084.409.168.613.268.2.084.409.167.613.268l.613.251s.011,0,.022.017h.011c.011,0,.011,0,.022.017h.021a.3.3,0,0,1,.151.167.554.554,0,0,1,.054.234.321.321,0,0,1-.011.1.647.647,0,0,0-.043-.134.373.373,0,0,0-.151-.167h-.054c-.011,0-.011,0-.022-.017l-.613-.251-.613-.251c-.2-.084-.409-.167-.613-.268-.2-.084-.409-.167-.613-.268h-.043a.116.116,0,0,0-.161.033c-.022.017-.032.067-.043.1a.376.376,0,0,1-.011-.117.275.275,0,0,1,.054-.184.116.116,0,0,1,.161-.033h.022c.011-.034.011-.034.022-.034Zm-.075,8.557c.215.084.42.167.635.234.215.084.419.151.635.234s.43.151.635.234.43.151.635.234h.022c.011,0,.011,0,.022.017h.021c.011,0,.011,0,.022.017a.312.312,0,0,1,.161.151.468.468,0,0,1,.054.2.185.185,0,0,1-.011.084.518.518,0,0,0-.043-.117.234.234,0,0,0-.161-.134c-.011,0-.011,0-.022-.017H305.9c-.011,0-.011,0-.022-.017h-.022c-.215-.084-.43-.151-.635-.234s-.43-.151-.635-.234-.42-.151-.635-.234-.42-.151-.635-.234h-.043a.154.154,0,0,0-.172.017.174.174,0,0,0-.043.084.32.32,0,0,1-.011-.1.351.351,0,0,1,.054-.184.151.151,0,0,1,.172-.017h.021c.011,0,.011,0,.022.017Zm-.043,5.895c.215.067.43.151.656.218s.43.151.656.218.441.134.656.218c.215.067.441.134.656.218h.043c.011,0,.011,0,.022.017h.021a.285.285,0,0,1,.161.134.4.4,0,0,1,.054.184.224.224,0,0,1-.011.084.4.4,0,0,0-.043-.1.258.258,0,0,0-.161-.134H305.9c-.215-.084-.441-.151-.656-.218-.215-.084-.441-.151-.656-.218s-.441-.151-.656-.218-.43-.151-.656-.218h-.043a.151.151,0,0,0-.172.017.174.174,0,0,0-.043.084.273.273,0,0,1-.011-.084.257.257,0,0,1,.054-.167.151.151,0,0,1,.172-.017h.022c.011-.034.011-.034.022-.017Zm-.022,1.859c.215.067.441.151.656.218s.441.134.656.218c.215.067.441.151.656.218s.441.134.656.218h.022c.011,0,.011,0,.021.017h.043a.333.333,0,0,1,.226.318.225.225,0,0,1-.011.084.4.4,0,0,0-.043-.1.258.258,0,0,0-.161-.134h-.086c-.215-.067-.441-.151-.656-.218s-.441-.151-.656-.218-.441-.134-.656-.218c-.215-.067-.441-.151-.656-.218h-.043a.151.151,0,0,0-.172.017.174.174,0,0,0-.043.084.273.273,0,0,1-.011-.084.294.294,0,0,1,.054-.167.154.154,0,0,1,.172-.017h.021c0-.034,0-.034.011-.017Zm.118-14.084c.2.084.409.167.624.251s.409.167.624.251.409.167.624.251.42.167.624.251h.043s.011,0,.022.017h.022a.422.422,0,0,1,.161.151.541.541,0,0,1,.054.218.32.32,0,0,1-.011.1.52.52,0,0,0-.043-.117.258.258,0,0,0-.161-.151h-.086c-.2-.084-.419-.167-.624-.251s-.42-.167-.624-.251-.409-.167-.624-.251l-.613-.251h-.043a.116.116,0,0,0-.161.034.171.171,0,0,0-.043.1.321.321,0,0,1-.011-.1.367.367,0,0,1,.054-.2c.032-.05.086-.05.161-.033h.022c0-.034,0-.034.011-.017Zm-.065,8.323c.215.084.43.151.645.234s.43.151.645.234c.215.067.43.151.645.234s.43.151.645.234h.022c.011,0,.011,0,.022.017h.022c.011,0,.011,0,.021.017a.368.368,0,0,1,.161.134.468.468,0,0,1,.054.2.185.185,0,0,1-.011.084.516.516,0,0,0-.043-.117.234.234,0,0,0-.161-.134c-.011,0-.011,0-.021-.017h-.022c-.011,0-.011,0-.022-.017h-.022c-.215-.084-.43-.151-.645-.234-.215-.067-.43-.151-.645-.234-.215-.067-.43-.151-.645-.234s-.43-.151-.645-.234h-.043c-.075-.017-.129-.017-.172.034a.174.174,0,0,0-.043.084.273.273,0,0,1-.011-.084.257.257,0,0,1,.054-.167.186.186,0,0,1,.172-.034h.043Zm.032-4.053c.215.084.42.167.635.251s.42.167.635.234c.215.084.42.167.635.234.215.084.42.151.635.234h.022c.011,0,.011,0,.021.017h.043a.311.311,0,0,1,.161.151.48.48,0,0,1,.054.218.185.185,0,0,1-.011.084.515.515,0,0,0-.043-.117.312.312,0,0,0-.161-.151h-.043c-.011,0-.011,0-.021-.017h-.022c-.215-.084-.42-.167-.635-.234-.215-.084-.42-.167-.635-.234-.215-.084-.42-.167-.635-.234-.215-.084-.42-.168-.635-.251H303.3a.154.154,0,0,0-.172.017.243.243,0,0,0-.043.1.321.321,0,0,1-.011-.1.35.35,0,0,1,.054-.184.151.151,0,0,1,.172-.017h.043Zm.011-2.11c.2.084.42.167.624.251s.42.167.624.251.42.167.624.251.42.167.635.251h.022c.011,0,.011,0,.022.017h.043a.358.358,0,0,1,.161.151.54.54,0,0,1,.054.218.184.184,0,0,1-.011.084.516.516,0,0,0-.043-.117.258.258,0,0,0-.161-.151H305.9c-.011,0-.011,0-.022-.017h-.022c-.215-.084-.42-.167-.624-.251s-.42-.167-.624-.251-.42-.167-.624-.251-.42-.167-.624-.251h-.043a.134.134,0,0,0-.161.017.171.171,0,0,0-.043.1.32.32,0,0,1-.011-.1.31.31,0,0,1,.054-.184.134.134,0,0,1,.161-.017h.032Zm-.065,8.122c.215.084.43.151.645.234s.43.151.645.218c.215.084.43.151.645.218s.43.151.645.218h.086a.369.369,0,0,1,.161.134.468.468,0,0,1,.054.2.224.224,0,0,1-.011.084,1.192,1.192,0,0,0-.043-.117.234.234,0,0,0-.161-.134c-.011,0-.011,0-.022-.017h-.065c-.215-.067-.43-.151-.645-.218s-.43-.151-.645-.218-.43-.151-.645-.218c-.215-.084-.43-.151-.645-.218h-.043a.129.129,0,0,0-.172.033.174.174,0,0,0-.043.084.321.321,0,0,1-.011-.1.257.257,0,0,1,.054-.167.186.186,0,0,1,.172-.034h.022c.011.017.011.017.021.017Z" transform="translate(-302.883 -317.88)" fill="#f7f7f7" fill-rule="evenodd"/>
          </g>
        </g>
        <g id="组_1561" data-name="组 1561" transform="translate(11.293 0)">
          <g id="组_1379-2" data-name="组 1379">
            <path id="路径_3298-2" data-name="路径 3298" d="M303.414,319.941h0a.282.282,0,0,1,.03.083c.02.106-.015.2-.084.227v.478a.219.219,0,0,1,.069.106c0,.008,0,.008,0,.015a.213.213,0,0,1-.04.243c-.01.008-.025.015-.035.023v.485a.183.183,0,0,1,.059.076.178.178,0,0,1,.03.106c.01.1-.025.182-.089.2v.455a.2.2,0,0,1,.049.053l.01.015a.161.161,0,0,1,.03.083c0,.008,0,.023,0,.03a.387.387,0,0,1-.277.136h-.965a.456.456,0,0,1-.144-.03V322.4s-.015-.008-.02-.008c-.188-.091-.188-.432.025-.4l0-.424a.015.015,0,0,1-.015-.008c-.183-.061-.208-.432.02-.409l0-.455s-.015-.008-.02-.008c-.193-.076-.178-.462.025-.417l0-.447s-.015-.008-.02-.008c-.193-.076-.178-.47.025-.424,0-.152,0-.3,0-.462,0,0-.015-.008-.02-.008a.3.3,0,0,1-.134-.19.268.268,0,0,1,.03-.2.082.082,0,0,1,.02-.023.133.133,0,0,1,.114-.03l0-.478c-.01,0-.015-.008-.025-.008-.178-.083-.188-.478.025-.447l0-.493c-.213-.083-.218-.516,0-.47l0-.5s-.015-.008-.02-.008c-.188-.068-.193-.508.025-.47l0-.523s-.015-.008-.02-.008a.342.342,0,0,1-.094-.447.126.126,0,0,1,.119-.046v-.182a.217.217,0,0,1,.069-.008h.97a.341.341,0,0,1,.218.083.2.2,0,0,1-.059.061v.576c.1.1.134.387,0,.44v.561c.114.106.119.379,0,.432v.538c.109.1.134.356,0,.409v.538a.281.281,0,0,1,.064.1l.015.046c.025.114,0,.227-.079.258v.516a.28.28,0,0,1,.064.1.108.108,0,0,1,.015.053.207.207,0,0,1-.079.243v.5A.531.531,0,0,1,303.414,319.941Z" transform="translate(-301.91 -314.4)" fill="#231815" fill-rule="evenodd"/>
            <path id="路径_3299-2" data-name="路径 3299" d="M306.743,318.83v.235c0,.318,0,.637,0,.948s0,.614,0,.925v.9c0,.3,0,.591,0,.872v.2a.307.307,0,0,1-.163.046h-.97a.357.357,0,0,1-.124-.023v-.22c0-.288,0-.584.01-.872s0-.6.01-.9,0-.614.01-.925,0-.629.01-.948v-.235c0-.326,0-.652.01-.978s0-.667.01-1.008,0-.69.01-1.031c0-.356,0-.7.01-1.069v-.136c.015,0,.035-.008.05-.008h.97a.427.427,0,0,1,.139.03v.106c0,.356,0,.713,0,1.069s0,.69,0,1.031,0,.675,0,1.008S306.743,318.5,306.743,318.83Z" transform="translate(-305.322 -314.59)" fill-rule="evenodd" fill="url(#linear-gradient-24)"/>
            <path id="路径_3300-2" data-name="路径 3300" d="M303.743,315.313c.158,0,.228.485,0,.425-.059-.015-.292-.114-.535-.22l-.6-.265a.3.3,0,0,1-.084-.387c.03-.038.1-.061.134-.015.01.015.277.121.545.235.262.1.53.212.55.227Zm-.277-.713h.193a.339.339,0,0,1,.2.068.123.123,0,0,1-.129.053h-.015a2.318,2.318,0,0,0-.228-.114l-.025-.008Zm.451,8.235a.424.424,0,0,1-.193.114c-.158-.053-.366-.114-.574-.167a3.965,3.965,0,0,1-.614-.212c-.163-.083-.173-.372.025-.341h.025c.01.015.272.1.55.19s.559.182.619.2a.225.225,0,0,1,.163.22Zm-.178-3.693c.213.053.218.463,0,.379-.084-.03-.357-.129-.614-.22a5.714,5.714,0,0,1-.55-.212.252.252,0,0,1-.084-.356c.04-.038.084-.023.129-.023a4.687,4.687,0,0,0,.53.212c.262.1.545.2.594.22Zm.01,2.639c-.059-.023-.342-.114-.614-.2a5.445,5.445,0,0,1-.545-.2h-.015c-.228-.038-.188.3-.03.349l.6.2c.2.068.4.136.594.2.218.1.233-.3.01-.349Zm-.015-5.475c-.054-.023-.327-.129-.584-.235a5.507,5.507,0,0,1-.515-.228h-.02c-.2-.053-.193.341-.03.4.193.076.381.159.569.235s.376.152.564.235c.2.121.248-.349.015-.409Zm.01,3.731-.569-.2-.574-.2c-.2-.076-.218.288-.045.356.193.076.391.144.589.22s.4.137.589.2c.228.083.223-.318.01-.372Zm0-1.812c.2.046.218.462,0,.394-.193-.076-.391-.152-.584-.22l-.589-.228c-.163-.076-.168-.417.025-.387h.02a4.406,4.406,0,0,0,.525.212c.267.1.545.2.6.228Zm-1.134-1c-.193-.076-.2-.455,0-.4h.025a5.776,5.776,0,0,0,.535.227c.267.106.545.212.609.235.163.068.183.432-.03.387h-.015a5.324,5.324,0,0,0-.545-.22,4.333,4.333,0,0,1-.579-.227Zm1.149,3.693c.094-.015.233.235.114.341-.04.038-.079.015-.124.015a5.248,5.248,0,0,0-.55-.2c-.277-.091-.574-.2-.639-.22-.178-.068-.163-.425.045-.349l.579.2C303.366,320.78,303.559,320.848,303.753,320.916Z" transform="translate(-302.387 -314.59)" fill-rule="evenodd" fill="url(#linear-gradient-25)"/>
            <path id="路径_3301-2" data-name="路径 3301" d="M303.183,318.3c.094.039.188.077.282.123s.188.077.282.123.188.077.282.123l.282.116s0,0,.01.008h0s0,0,.01.008h.01a.14.14,0,0,1,.069.077.256.256,0,0,1,.025.108.147.147,0,0,1,0,.046.3.3,0,0,0-.02-.062.172.172,0,0,0-.069-.077h-.025s0,0-.01-.008l-.282-.116-.282-.116c-.094-.039-.188-.077-.282-.123s-.188-.077-.282-.123h-.02a.053.053,0,0,0-.074.015c-.01.008-.015.031-.02.046a.174.174,0,0,1,0-.054.127.127,0,0,1,.025-.085.053.053,0,0,1,.074-.015h.01c0-.015,0-.015.01-.015Zm-.035,3.939c.1.039.193.077.292.108s.193.069.292.108.2.069.292.108.2.069.292.108h.01s0,0,.01.008h.01s0,0,.01.008a.143.143,0,0,1,.074.069.215.215,0,0,1,.025.092.085.085,0,0,1,0,.039.235.235,0,0,0-.02-.054.108.108,0,0,0-.074-.062s0,0-.01-.008h-.01s0,0-.01-.008h-.01c-.1-.039-.2-.069-.292-.108s-.2-.069-.292-.108-.193-.069-.292-.108-.193-.069-.292-.108h-.02a.071.071,0,0,0-.079.008.08.08,0,0,0-.02.039.148.148,0,0,1,0-.046.162.162,0,0,1,.025-.085.07.07,0,0,1,.079-.008h.01s0,0,.01.008Zm-.02,2.713c.1.031.2.069.3.1s.2.069.3.1.2.062.3.1.2.062.3.1h.02s0,0,.01.008h.01a.131.131,0,0,1,.074.062.185.185,0,0,1,.025.085.1.1,0,0,1,0,.039.185.185,0,0,0-.02-.046.119.119,0,0,0-.074-.062h-.04c-.1-.039-.2-.069-.3-.1s-.2-.069-.3-.1-.2-.069-.3-.1-.2-.069-.3-.1h-.02a.069.069,0,0,0-.079.008.08.08,0,0,0-.02.039.126.126,0,0,1,0-.039.118.118,0,0,1,.025-.077.07.07,0,0,1,.079-.008h.01c0-.015,0-.015.01-.008Zm-.01.856c.1.031.2.069.3.1s.2.062.3.1.2.069.3.1.2.062.3.1h.01s0,0,.01.008h.02a.153.153,0,0,1,.1.146.1.1,0,0,1,0,.039.186.186,0,0,0-.02-.046.119.119,0,0,0-.074-.062h-.04c-.1-.031-.2-.069-.3-.1s-.2-.069-.3-.1-.2-.062-.3-.1-.2-.069-.3-.1h-.02a.07.07,0,0,0-.079.008.079.079,0,0,0-.02.039.125.125,0,0,1,0-.039.135.135,0,0,1,.025-.077.071.071,0,0,1,.079-.008h.01c0-.015,0-.015,0-.008Zm.054-6.482c.094.039.188.077.287.116s.188.077.287.116.188.077.287.116l.287.116h.02s0,0,.01.008h.01a.194.194,0,0,1,.074.069.249.249,0,0,1,.025.1.147.147,0,0,1,0,.046.236.236,0,0,0-.02-.054.119.119,0,0,0-.074-.069h-.04l-.287-.116-.287-.116c-.094-.039-.188-.077-.287-.116l-.282-.116h-.02a.053.053,0,0,0-.074.015.079.079,0,0,0-.02.046.147.147,0,0,1,0-.046.169.169,0,0,1,.025-.093c.015-.023.04-.023.074-.015h.01c0-.015,0-.015,0-.008Zm-.03,3.831c.1.039.2.069.3.108s.2.069.3.108.2.069.3.108.2.069.3.108h.01s0,0,.01.008h.01s0,0,.01.008a.17.17,0,0,1,.074.062.215.215,0,0,1,.025.092.085.085,0,0,1,0,.039.236.236,0,0,0-.02-.054.108.108,0,0,0-.074-.062s0,0-.01-.008h-.01s0,0-.01-.008h-.01c-.1-.039-.2-.069-.3-.108s-.2-.069-.3-.108-.2-.069-.3-.108-.2-.069-.3-.108h-.02c-.035-.008-.059-.008-.079.015a.08.08,0,0,0-.02.039.125.125,0,0,1,0-.039.118.118,0,0,1,.025-.077.086.086,0,0,1,.079-.015h.02Zm.015-1.865.292.116c.1.039.193.077.292.108s.193.077.292.108.193.069.292.108h.01s0,0,.01.008h.02a.144.144,0,0,1,.074.069.221.221,0,0,1,.025.1.086.086,0,0,1,0,.039.239.239,0,0,0-.02-.054.144.144,0,0,0-.074-.069h-.02s0,0-.01-.008h-.01c-.1-.039-.193-.077-.292-.108s-.193-.077-.292-.108-.193-.077-.292-.108l-.292-.116h-.02a.071.071,0,0,0-.079.008.112.112,0,0,0-.02.046.148.148,0,0,1,0-.046.161.161,0,0,1,.025-.085.07.07,0,0,1,.079-.008h.02Zm0-.971.287.116.287.116.287.116c.094.039.193.077.292.116h.01s0,0,.01.008h.02a.165.165,0,0,1,.074.069.248.248,0,0,1,.025.1.085.085,0,0,1,0,.039.235.235,0,0,0-.02-.054.119.119,0,0,0-.074-.069h-.02s0,0-.01-.008h-.01c-.1-.039-.193-.077-.287-.116l-.287-.116-.287-.116-.287-.116h-.02a.062.062,0,0,0-.074.008.079.079,0,0,0-.02.046.147.147,0,0,1,0-.046.142.142,0,0,1,.025-.085.062.062,0,0,1,.074-.008h.015Zm-.03,3.738c.1.039.2.069.3.108s.2.069.3.1.2.069.3.1.2.069.3.1h.04a.17.17,0,0,1,.074.062.216.216,0,0,1,.025.092.1.1,0,0,1,0,.039.541.541,0,0,0-.02-.054.108.108,0,0,0-.074-.062s0,0-.01-.008h-.03c-.1-.031-.2-.069-.3-.1s-.2-.069-.3-.1-.2-.069-.3-.1-.2-.069-.3-.1h-.02a.06.06,0,0,0-.079.015.08.08,0,0,0-.02.039.147.147,0,0,1,0-.046.118.118,0,0,1,.025-.077.086.086,0,0,1,.079-.015h.01c0,.008,0,.008.01.008Z" transform="translate(-302.946 -318.107)" fill="#f7f7f7" fill-rule="evenodd"/>
          </g>
        </g>
        <path id="路径_3564" data-name="路径 3564" d="M531.027,310.633a1.129,1.129,0,0,1-1.173,1.089,1.184,1.184,0,0,1-1.257-1.033,1.129,1.129,0,0,1,1.173-1.089A1.184,1.184,0,0,1,531.027,310.633Z" transform="translate(-513.6 -302.402)" fill="#3e3a39" fill-rule="evenodd"/>
        <path id="路径_3565" data-name="路径 3565" d="M531.131,310.777a1.04,1.04,0,0,1-1.089,1.005,1.07,1.07,0,0,1-1.145-.977,1.058,1.058,0,0,1,1.089-1.005A1.089,1.089,0,0,1,531.131,310.777Z" transform="translate(-513.816 -302.546)" fill-rule="evenodd" fill="url(#radial-gradient-3)"/>
        <path id="路径_3568" data-name="路径 3568" d="M534.531,312.419a.266.266,0,0,1-.335-.084c-.084-.112-.028-.223.084-.307a.266.266,0,0,1,.335.084A.2.2,0,0,1,534.531,312.419Z" transform="translate(-517.607 -304.132)" fill="#f7f8f8" fill-rule="evenodd"/>
        <path id="路径_3531" data-name="路径 3531" d="M501.027,310.633a1.129,1.129,0,0,1-1.173,1.089,1.184,1.184,0,0,1-1.257-1.033,1.129,1.129,0,0,1,1.173-1.089A1.148,1.148,0,0,1,501.027,310.633Z" transform="translate(-491.978 -302.402)" fill-rule="evenodd"/>
        <path id="路径_3535" data-name="路径 3535" d="M501.231,310.777a1.04,1.04,0,0,1-1.089,1.005,1.07,1.07,0,0,1-1.145-.977,1.058,1.058,0,0,1,1.089-1.005A1.108,1.108,0,0,1,501.231,310.777Z" transform="translate(-492.266 -302.546)" fill-rule="evenodd" fill="url(#radial-gradient-4)"/>
        <path id="路径_3536" data-name="路径 3536" d="M504.631,312.419a.259.259,0,0,1-.335-.084c-.084-.112-.028-.223.084-.307a.267.267,0,0,1,.335.084A.225.225,0,0,1,504.631,312.419Z" transform="translate(-496.057 -304.132)" fill="#f7f8f8" fill-rule="evenodd"/>
        <path id="路径_3539" data-name="路径 3539" d="M512.123,321.908h3.044l.251-.335-.028-.922-.223-.251h-3.044l-.223.251v1.005Z" transform="translate(-501.566 -310.186)" fill="#727171" fill-rule="evenodd"/>
        <path id="路径_3540" data-name="路径 3540" d="M512.168,322.04h3.1l.168-.251V320.9l-.168-.2h-3.1l-.168.2v.949Z" transform="translate(-501.638 -310.402)" fill="#b5b5b6" fill-rule="evenodd"/>
        <path id="路径_3541" data-name="路径 3541" d="M513.438,322.077v-.838a.132.132,0,0,0-.14-.14h-.559a.132.132,0,0,0-.14.14v.838a.132.132,0,0,0,.14.14h.559A.15.15,0,0,0,513.438,322.077Z" transform="translate(-502.071 -310.69)" fill="#898989" fill-rule="evenodd"/>
        <path id="路径_3550" data-name="路径 3550" d="M517.692,322.077v-.838a.132.132,0,0,0-.14-.14H516.24a.132.132,0,0,0-.14.14v.838a.132.132,0,0,0,.14.14h1.313A.132.132,0,0,0,517.692,322.077Z" transform="translate(-504.594 -310.69)" fill="#595757" fill-rule="evenodd"/>
        <path id="路径_3554" data-name="路径 3554" d="M522.719,322.077v-.838a.132.132,0,0,0-.14-.14h-.14a.132.132,0,0,0-.14.14v.838a.132.132,0,0,0,.14.14h.14A.132.132,0,0,0,522.719,322.077Z" transform="translate(-509.062 -310.69)" fill="#3e3a39" fill-rule="evenodd"/>
        <path id="路径_3542" data-name="路径 3542" d="M514.284,317.8h1.9a.191.191,0,0,1,.2.2v.307a.191.191,0,0,1-.2.2h-1.9a.191.191,0,0,1-.2-.2V318C514.061,317.912,514.173,317.8,514.284,317.8Z" transform="translate(-503.141 -308.312)" fill="#3e3a39" fill-rule="evenodd"/>
        <path id="路径_3543" data-name="路径 3543" d="M514.354,317.9h1.9a.161.161,0,0,1,.168.168v.307a.18.18,0,0,1-.168.168h-1.9a.18.18,0,0,1-.168-.168v-.307C514.158,317.984,514.242,317.9,514.354,317.9Z" transform="translate(-503.21 -308.384)" fill-rule="evenodd" fill="url(#linear-gradient-28)"/>
        <path id="路径_3572" data-name="路径 3572" d="M512.6,383.119v.447a4.163,4.163,0,0,0,2.988-.307v-.447c0-.056-.112-.084-.223-.112-.084.363-2.43.586-2.541.251C512.712,383.007,512.6,383.063,512.6,383.119Z" transform="translate(-502.071 -355.088)" fill="#3f3a38" fill-rule="evenodd"/>
        <path id="路径_3573" data-name="路径 3573" d="M512.912,383.251a3.731,3.731,0,0,0,2.625-.251c.056.028.14.028.14.056v.419a4,4,0,0,1-2.876.279v-.419A.125.125,0,0,1,512.912,383.251Z" transform="translate(-502.215 -355.304)" fill-rule="evenodd" fill="url(#linear-gradient-29)"/>
        <g id="组_1566" data-name="组 1566" transform="translate(9.859 18.955)">
          <path id="路径_3556" data-name="路径 3556" d="M510.451,347.7h3.8l.279.391v1.145l-.279.335h-3.8l-.251-.307v-1.257Z" transform="translate(-510.2 -347.7)" fill-rule="evenodd"/>
          <path id="路径_3557" data-name="路径 3557" d="M510.521,348.1h3.765l.221.307V349.5l-.221.251h-3.765l-.221-.223v-1.2Z" transform="translate(-510.235 -347.988)" fill="#b5b5b6" fill-rule="evenodd"/>
          <path id="路径_3558" data-name="路径 3558" d="M511.889,348.7v1.033a.191.191,0,0,1-.2.2H511a.191.191,0,0,1-.2-.2V348.7a.191.191,0,0,1,.2-.2h.7A.191.191,0,0,1,511.889,348.7Z" transform="translate(-510.632 -348.277)" fill="#898989" fill-rule="evenodd"/>
          <path id="路径_3559" data-name="路径 3559" d="M517.211,348.7v1.033a.191.191,0,0,1-.2.2H515.4a.191.191,0,0,1-.2-.2V348.7a.191.191,0,0,1,.2-.2h1.62A.191.191,0,0,1,517.211,348.7Z" transform="translate(-513.804 -348.277)" fill="#595757" fill-rule="evenodd"/>
          <path id="路径_3560" data-name="路径 3560" d="M523.386,348.7v1.033a.191.191,0,0,1-.2.2H523a.191.191,0,0,1-.2-.2V348.7a.191.191,0,0,1,.2-.2h.2A.191.191,0,0,1,523.386,348.7Z" transform="translate(-519.281 -348.277)" fill="#3e3a39" fill-rule="evenodd"/>
        </g>
        <path id="路径_3545" data-name="路径 3545" d="M503.826,327.7h6.814a.739.739,0,0,1,.726.726v1.089a.739.739,0,0,1-.726.726h-6.814a.739.739,0,0,1-.726-.726v-1.089A.739.739,0,0,1,503.826,327.7Z" transform="translate(-495.224 -315.447)" fill="#3e3a39" fill-rule="evenodd"/>
        <path id="路径_3546" data-name="路径 3546" d="M504.042,328.1h6.814a.65.65,0,0,1,.642.642v1.089a.65.65,0,0,1-.642.642h-6.814a.65.65,0,0,1-.642-.642v-1.089A.669.669,0,0,1,504.042,328.1Z" transform="translate(-495.44 -315.736)" fill-rule="evenodd" fill="url(#linear-gradient-30)"/>
        <path id="路径_3561" data-name="路径 3561" d="M526.575,309.907c.475-.028.531,1.759.028,1.731a13.121,13.121,0,0,0-5.613.056c-.475.028-.475-2.122.028-2.094A12.479,12.479,0,0,0,526.575,309.907Z" transform="translate(-507.864 -302.401)" fill="#3e3a39" fill-rule="evenodd"/>
        <path id="路径_3562" data-name="路径 3562" d="M527.063,311.859a12.789,12.789,0,0,0-5.641.056c-.251,0-.251-1.843.028-1.815a12.325,12.325,0,0,0,5.585.335C527.259,310.406,527.342,311.859,527.063,311.859Z" transform="translate(-508.296 -302.761)" fill-rule="evenodd" fill="url(#linear-gradient-31)"/>
        <path id="路径_3569" data-name="路径 3569" d="M543.067,309.922a1.348,1.348,0,0,1-1.257,1.48,1.412,1.412,0,0,1-1.312-1.424,1.295,1.295,0,1,1,2.569-.056Z" transform="translate(-522.177 -301.607)" fill="#3e3a39" fill-rule="evenodd"/>
        <path id="路径_3570" data-name="路径 3570" d="M543.271,310.21a1.248,1.248,0,0,1-1.145,1.368,1.316,1.316,0,0,1-1.229-1.313,1.2,1.2,0,1,1,2.374-.056Z" transform="translate(-522.465 -301.895)" fill-rule="evenodd" fill="url(#radial-gradient-5)"/>
        <path id="路径_3571" data-name="路径 3571" d="M542.859,310.4a.258.258,0,0,1-.363-.112.3.3,0,0,1,.084-.391.258.258,0,0,1,.363.112A.275.275,0,0,1,542.859,310.4Z" transform="translate(-523.589 -302.589)" fill="#f7f8f8" fill-rule="evenodd"/>
        <path id="路径_3532" data-name="路径 3532" d="M493.916,309.907c-.475-.028-.531,1.759-.028,1.731a13.122,13.122,0,0,1,5.613.056c.475.028.475-2.122-.028-2.094A12.478,12.478,0,0,1,493.916,309.907Z" transform="translate(-488.33 -302.401)" fill="#3e3a39" fill-rule="evenodd"/>
        <path id="路径_3537" data-name="路径 3537" d="M494.244,311.859a12.789,12.789,0,0,1,5.641.056c.251,0,.251-1.843-.028-1.815a12.325,12.325,0,0,1-5.585.335C494.048,310.406,493.964,311.859,494.244,311.859Z" transform="translate(-488.713 -302.761)" fill-rule="evenodd" fill="url(#linear-gradient-32)"/>
        <path id="路径_3533" data-name="路径 3533" d="M486.9,310a1.3,1.3,0,0,0,1.229,1.4,1.4,1.4,0,0,0,.056-2.793A1.381,1.381,0,0,0,486.9,310Z" transform="translate(-483.545 -301.681)" fill="#3e3a39" fill-rule="evenodd"/>
        <path id="路径_3534" data-name="路径 3534" d="M487.2,310.357a1.244,1.244,0,0,0,1.117,1.313,1.26,1.26,0,0,0,1.2-1.257A1.224,1.224,0,0,0,488.4,309.1,1.26,1.26,0,0,0,487.2,310.357Z" transform="translate(-483.761 -302.042)" fill-rule="evenodd" fill="url(#radial-gradient-6)"/>
        <path id="路径_3538" data-name="路径 3538" d="M489.08,311.171a.234.234,0,0,0,.335-.084.3.3,0,0,0-.084-.391.234.234,0,0,0-.335.084A.3.3,0,0,0,489.08,311.171Z" transform="translate(-485.029 -303.163)" fill="#f7f8f8" fill-rule="evenodd"/>
        <path id="路径_3547" data-name="路径 3547" d="M515.886,309.778a1.494,1.494,0,1,1-1.536-1.48A1.5,1.5,0,0,1,515.886,309.778Z" transform="translate(-502.285 -301.463)" fill="#3e3a39" fill-rule="evenodd"/>
        <path id="路径_3548" data-name="路径 3548" d="M516.062,310.066a1.378,1.378,0,0,1-1.34,1.424,1.438,1.438,0,0,1-1.424-1.368,1.383,1.383,0,1,1,2.765-.056Z" transform="translate(-502.573 -301.751)" fill-rule="evenodd" fill="url(#radial-gradient-7)"/>
        <path id="路径_3549" data-name="路径 3549" d="M515.8,310.629a.315.315,0,0,1-.419-.112.292.292,0,0,1,.112-.419.307.307,0,1,1,.307.531Z" transform="translate(-504.043 -302.733)" fill="#f7f8f8" fill-rule="evenodd"/>
        <g id="组_47" data-name="组 47" transform="translate(9.764 24.913)">
          <rect id="矩形_67-3" data-name="矩形 67" width="4.955" height="3.969" transform="translate(0 0)"/>
          <path id="路径_228-3" data-name="路径 228" d="M27.1,30.53H22.4V26.7h4.7Z" transform="translate(-22.288 -26.644)" fill-rule="evenodd" fill="url(#linear-gradient-22)"/>
        </g>
        <g id="组_1579" data-name="组 1579" transform="translate(9.484 15.139)">
          <rect id="矩形_67-4" data-name="矩形 67" width="5.235" height="3.969" transform="translate(0 0)"/>
          <path id="路径_228-4" data-name="路径 228" d="M27.383,30.53H22.4V26.7h4.983Z" transform="translate(-22.288 -26.644)" fill-rule="evenodd" fill="url(#linear-gradient-22)"/>
        </g>
        <g id="组_1562" data-name="组 1562" transform="translate(21.597 31.841) rotate(180)">
          <path id="路径_273" data-name="路径 273" d="M9.511,4.344C4.267,4.344,0,2.494,0,.18V0H19V.18C19.023,2.468,14.781,4.344,9.511,4.344Z" transform="translate(0 0)" fill-rule="evenodd"/>
          <path id="路径_274" data-name="路径 274" d="M9.383,4.216C4.216,4.216,0,2.416,0,.18V0H18.74V.18C18.766,2.391,14.576,4.216,9.383,4.216Z" transform="translate(0.129 0)" fill-rule="evenodd" fill="url(#linear-gradient-35)"/>
        </g>
        <g id="组_1567" data-name="组 1567" transform="translate(24.704 30.083) rotate(90)">
          <path id="路径_189-3" data-name="路径 189" d="M4.139.9a.911.911,0,0,0-.9-.9H.9A.911.911,0,0,0,0,.9V23.8a.911.911,0,0,0,.9.9H3.239a.911.911,0,0,0,.9-.9Z" transform="translate(1.311 0)" fill-rule="evenodd"/>
          <path id="路径_190-3" data-name="路径 190" d="M3.882.772v22.9a.773.773,0,0,1-.771.771H.771A.773.773,0,0,1,0,23.677V.772A.773.773,0,0,1,.771,0H3.11A.742.742,0,0,1,3.882.772Z" transform="translate(1.44 0.127)" fill-rule="evenodd" fill="url(#linear-gradient-4)"/>
          <g id="组_39-3" data-name="组 39" transform="translate(0 20.938)">
            <rect id="矩形_57-9" data-name="矩形 57" width="0.797" height="1.414" transform="translate(0.643 0.488)"/>
            <rect id="矩形_58-9" data-name="矩形 58" width="0.566" height="1.208" transform="translate(0.745 0.617)" fill="url(#linear-gradient-5)"/>
            <path id="路径_201-9" data-name="路径 201" d="M.231,2.416H.925a.23.23,0,0,0,.231-.231V.231A.23.23,0,0,0,.925,0H.231A.23.23,0,0,0,0,.231V2.185A.23.23,0,0,0,.231,2.416Z" transform="translate(0)" fill-rule="evenodd"/>
            <path id="路径_202-9" data-name="路径 202" d="M.129,2.211H.823a.121.121,0,0,0,.129-.129V.129A.121.121,0,0,0,.823,0H.129A.121.121,0,0,0,0,.129V2.082C.026,2.134.077,2.211.129,2.211Z" transform="translate(0.103 0.103)" fill-rule="evenodd" fill="url(#linear-gradient-6)"/>
            <path id="路径_203-9" data-name="路径 203" d="M.72.566H.1a.111.111,0,0,1-.1-.1V.1A.111.111,0,0,1,.1,0H.72a.111.111,0,0,1,.1.1v.36A.094.094,0,0,1,.72.566Z" transform="translate(0.154 0.154)" fill="#666" fill-rule="evenodd"/>
            <path id="路径_204-9" data-name="路径 204" d="M.72,1.08H.1a.111.111,0,0,1-.1-.1V.1A.111.111,0,0,1,.1,0H.72a.111.111,0,0,1,.1.1V.977A.111.111,0,0,1,.72,1.08Z" transform="translate(0.154 0.797)" fill="#898989" fill-rule="evenodd"/>
            <path id="路径_205-9" data-name="路径 205" d="M.72.308H.1a.111.111,0,0,1-.1-.1V.1A.111.111,0,0,1,.1,0H.72a.111.111,0,0,1,.1.1v.1A.111.111,0,0,1,.72.308Z" transform="translate(0.154 1.954)" fill="#c5c5c5" fill-rule="evenodd"/>
          </g>
          <g id="组_270-3" data-name="组 270" transform="translate(0 14.511)">
            <rect id="矩形_57-10" data-name="矩形 57" width="0.797" height="1.414" transform="translate(0.643 0.488)"/>
            <rect id="矩形_58-10" data-name="矩形 58" width="0.566" height="1.208" transform="translate(0.745 0.617)" fill="url(#linear-gradient-5)"/>
            <path id="路径_201-10" data-name="路径 201" d="M.231,2.416H.925a.23.23,0,0,0,.231-.231V.231A.23.23,0,0,0,.925,0H.231A.23.23,0,0,0,0,.231V2.185A.23.23,0,0,0,.231,2.416Z" transform="translate(0)" fill-rule="evenodd"/>
            <path id="路径_202-10" data-name="路径 202" d="M.129,2.211H.823a.121.121,0,0,0,.129-.129V.129A.121.121,0,0,0,.823,0H.129A.121.121,0,0,0,0,.129V2.082C.026,2.134.077,2.211.129,2.211Z" transform="translate(0.103 0.103)" fill-rule="evenodd" fill="url(#linear-gradient-6)"/>
            <path id="路径_203-10" data-name="路径 203" d="M.72.566H.1a.111.111,0,0,1-.1-.1V.1A.111.111,0,0,1,.1,0H.72a.111.111,0,0,1,.1.1v.36A.094.094,0,0,1,.72.566Z" transform="translate(0.154 0.154)" fill="#666" fill-rule="evenodd"/>
            <path id="路径_204-10" data-name="路径 204" d="M.72,1.08H.1a.111.111,0,0,1-.1-.1V.1A.111.111,0,0,1,.1,0H.72a.111.111,0,0,1,.1.1V.977A.111.111,0,0,1,.72,1.08Z" transform="translate(0.154 0.797)" fill="#898989" fill-rule="evenodd"/>
            <path id="路径_205-10" data-name="路径 205" d="M.72.308H.1a.111.111,0,0,1-.1-.1V.1A.111.111,0,0,1,.1,0H.72a.111.111,0,0,1,.1.1v.1A.111.111,0,0,1,.72.308Z" transform="translate(0.154 1.954)" fill="#c5c5c5" fill-rule="evenodd"/>
          </g>
          <g id="组_271-3" data-name="组 271" transform="translate(0 7.828)">
            <rect id="矩形_57-11" data-name="矩形 57" width="0.797" height="1.414" transform="translate(0.643 0.488)"/>
            <rect id="矩形_58-11" data-name="矩形 58" width="0.566" height="1.208" transform="translate(0.745 0.617)" fill="url(#linear-gradient-5)"/>
            <path id="路径_201-11" data-name="路径 201" d="M.231,2.416H.925a.23.23,0,0,0,.231-.231V.231A.23.23,0,0,0,.925,0H.231A.23.23,0,0,0,0,.231V2.185A.23.23,0,0,0,.231,2.416Z" transform="translate(0)" fill-rule="evenodd"/>
            <path id="路径_202-11" data-name="路径 202" d="M.129,2.211H.823a.121.121,0,0,0,.129-.129V.129A.121.121,0,0,0,.823,0H.129A.121.121,0,0,0,0,.129V2.082C.026,2.134.077,2.211.129,2.211Z" transform="translate(0.103 0.103)" fill-rule="evenodd" fill="url(#linear-gradient-6)"/>
            <path id="路径_203-11" data-name="路径 203" d="M.72.566H.1a.111.111,0,0,1-.1-.1V.1A.111.111,0,0,1,.1,0H.72a.111.111,0,0,1,.1.1v.36A.094.094,0,0,1,.72.566Z" transform="translate(0.154 0.154)" fill="#666" fill-rule="evenodd"/>
            <path id="路径_204-11" data-name="路径 204" d="M.72,1.08H.1a.111.111,0,0,1-.1-.1V.1A.111.111,0,0,1,.1,0H.72a.111.111,0,0,1,.1.1V.977A.111.111,0,0,1,.72,1.08Z" transform="translate(0.154 0.797)" fill="#898989" fill-rule="evenodd"/>
            <path id="路径_205-11" data-name="路径 205" d="M.72.308H.1a.111.111,0,0,1-.1-.1V.1A.111.111,0,0,1,.1,0H.72a.111.111,0,0,1,.1.1v.1A.111.111,0,0,1,.72.308Z" transform="translate(0.154 1.954)" fill="#c5c5c5" fill-rule="evenodd"/>
          </g>
          <g id="组_272-3" data-name="组 272" transform="translate(0 1.401)">
            <rect id="矩形_57-12" data-name="矩形 57" width="0.797" height="1.414" transform="translate(0.643 0.488)"/>
            <rect id="矩形_58-12" data-name="矩形 58" width="0.566" height="1.208" transform="translate(0.745 0.617)" fill="url(#linear-gradient-5)"/>
            <path id="路径_201-12" data-name="路径 201" d="M.231,2.416H.925a.23.23,0,0,0,.231-.231V.231A.23.23,0,0,0,.925,0H.231A.23.23,0,0,0,0,.231V2.185A.23.23,0,0,0,.231,2.416Z" transform="translate(0)" fill-rule="evenodd"/>
            <path id="路径_202-12" data-name="路径 202" d="M.129,2.211H.823a.121.121,0,0,0,.129-.129V.129A.121.121,0,0,0,.823,0H.129A.121.121,0,0,0,0,.129V2.082C.026,2.134.077,2.211.129,2.211Z" transform="translate(0.103 0.103)" fill-rule="evenodd" fill="url(#linear-gradient-6)"/>
            <path id="路径_203-12" data-name="路径 203" d="M.72.566H.1a.111.111,0,0,1-.1-.1V.1A.111.111,0,0,1,.1,0H.72a.111.111,0,0,1,.1.1v.36A.094.094,0,0,1,.72.566Z" transform="translate(0.154 0.154)" fill="#666" fill-rule="evenodd"/>
            <path id="路径_204-12" data-name="路径 204" d="M.72,1.08H.1a.111.111,0,0,1-.1-.1V.1A.111.111,0,0,1,.1,0H.72a.111.111,0,0,1,.1.1V.977A.111.111,0,0,1,.72,1.08Z" transform="translate(0.154 0.797)" fill="#898989" fill-rule="evenodd"/>
            <path id="路径_205-12" data-name="路径 205" d="M.72.308H.1a.111.111,0,0,1-.1-.1V.1A.111.111,0,0,1,.1,0H.72a.111.111,0,0,1,.1.1v.1A.111.111,0,0,1,.72.308Z" transform="translate(0.154 1.954)" fill="#c5c5c5" fill-rule="evenodd"/>
          </g>
        </g>
        <g id="组_1581" data-name="组 1581" transform="translate(0 40.839) rotate(-90)">
          <path id="路径_189-4" data-name="路径 189" d="M4.139.9a.911.911,0,0,0-.9-.9H.9A.911.911,0,0,0,0,.9V23.8a.911.911,0,0,0,.9.9H3.239a.911.911,0,0,0,.9-.9Z" transform="translate(1.311 0)" fill-rule="evenodd"/>
          <path id="路径_190-4" data-name="路径 190" d="M3.882.772v22.9a.773.773,0,0,1-.771.771H.771A.773.773,0,0,1,0,23.677V.772A.773.773,0,0,1,.771,0H3.11A.742.742,0,0,1,3.882.772Z" transform="translate(1.44 0.127)" fill-rule="evenodd" fill="url(#linear-gradient-4)"/>
          <g id="组_39-4" data-name="组 39" transform="translate(0 20.938)">
            <rect id="矩形_57-13" data-name="矩形 57" width="0.797" height="1.414" transform="translate(0.643 0.488)"/>
            <rect id="矩形_58-13" data-name="矩形 58" width="0.566" height="1.208" transform="translate(0.745 0.617)" fill="url(#linear-gradient-5)"/>
            <path id="路径_201-13" data-name="路径 201" d="M.231,2.416H.925a.23.23,0,0,0,.231-.231V.231A.23.23,0,0,0,.925,0H.231A.23.23,0,0,0,0,.231V2.185A.23.23,0,0,0,.231,2.416Z" transform="translate(0)" fill-rule="evenodd"/>
            <path id="路径_202-13" data-name="路径 202" d="M.129,2.211H.823a.121.121,0,0,0,.129-.129V.129A.121.121,0,0,0,.823,0H.129A.121.121,0,0,0,0,.129V2.082C.026,2.134.077,2.211.129,2.211Z" transform="translate(0.103 0.103)" fill-rule="evenodd" fill="url(#linear-gradient-6)"/>
            <path id="路径_203-13" data-name="路径 203" d="M.72.566H.1a.111.111,0,0,1-.1-.1V.1A.111.111,0,0,1,.1,0H.72a.111.111,0,0,1,.1.1v.36A.094.094,0,0,1,.72.566Z" transform="translate(0.154 0.154)" fill="#666" fill-rule="evenodd"/>
            <path id="路径_204-13" data-name="路径 204" d="M.72,1.08H.1a.111.111,0,0,1-.1-.1V.1A.111.111,0,0,1,.1,0H.72a.111.111,0,0,1,.1.1V.977A.111.111,0,0,1,.72,1.08Z" transform="translate(0.154 0.797)" fill="#898989" fill-rule="evenodd"/>
            <path id="路径_205-13" data-name="路径 205" d="M.72.308H.1a.111.111,0,0,1-.1-.1V.1A.111.111,0,0,1,.1,0H.72a.111.111,0,0,1,.1.1v.1A.111.111,0,0,1,.72.308Z" transform="translate(0.154 1.954)" fill="#c5c5c5" fill-rule="evenodd"/>
          </g>
          <g id="组_270-4" data-name="组 270" transform="translate(0 14.511)">
            <rect id="矩形_57-14" data-name="矩形 57" width="0.797" height="1.414" transform="translate(0.643 0.488)"/>
            <rect id="矩形_58-14" data-name="矩形 58" width="0.566" height="1.208" transform="translate(0.745 0.617)" fill="url(#linear-gradient-5)"/>
            <path id="路径_201-14" data-name="路径 201" d="M.231,2.416H.925a.23.23,0,0,0,.231-.231V.231A.23.23,0,0,0,.925,0H.231A.23.23,0,0,0,0,.231V2.185A.23.23,0,0,0,.231,2.416Z" transform="translate(0)" fill-rule="evenodd"/>
            <path id="路径_202-14" data-name="路径 202" d="M.129,2.211H.823a.121.121,0,0,0,.129-.129V.129A.121.121,0,0,0,.823,0H.129A.121.121,0,0,0,0,.129V2.082C.026,2.134.077,2.211.129,2.211Z" transform="translate(0.103 0.103)" fill-rule="evenodd" fill="url(#linear-gradient-6)"/>
            <path id="路径_203-14" data-name="路径 203" d="M.72.566H.1a.111.111,0,0,1-.1-.1V.1A.111.111,0,0,1,.1,0H.72a.111.111,0,0,1,.1.1v.36A.094.094,0,0,1,.72.566Z" transform="translate(0.154 0.154)" fill="#666" fill-rule="evenodd"/>
            <path id="路径_204-14" data-name="路径 204" d="M.72,1.08H.1a.111.111,0,0,1-.1-.1V.1A.111.111,0,0,1,.1,0H.72a.111.111,0,0,1,.1.1V.977A.111.111,0,0,1,.72,1.08Z" transform="translate(0.154 0.797)" fill="#898989" fill-rule="evenodd"/>
            <path id="路径_205-14" data-name="路径 205" d="M.72.308H.1a.111.111,0,0,1-.1-.1V.1A.111.111,0,0,1,.1,0H.72a.111.111,0,0,1,.1.1v.1A.111.111,0,0,1,.72.308Z" transform="translate(0.154 1.954)" fill="#c5c5c5" fill-rule="evenodd"/>
          </g>
          <g id="组_271-4" data-name="组 271" transform="translate(0 7.828)">
            <rect id="矩形_57-15" data-name="矩形 57" width="0.797" height="1.414" transform="translate(0.643 0.488)"/>
            <rect id="矩形_58-15" data-name="矩形 58" width="0.566" height="1.208" transform="translate(0.745 0.617)" fill="url(#linear-gradient-5)"/>
            <path id="路径_201-15" data-name="路径 201" d="M.231,2.416H.925a.23.23,0,0,0,.231-.231V.231A.23.23,0,0,0,.925,0H.231A.23.23,0,0,0,0,.231V2.185A.23.23,0,0,0,.231,2.416Z" transform="translate(0)" fill-rule="evenodd"/>
            <path id="路径_202-15" data-name="路径 202" d="M.129,2.211H.823a.121.121,0,0,0,.129-.129V.129A.121.121,0,0,0,.823,0H.129A.121.121,0,0,0,0,.129V2.082C.026,2.134.077,2.211.129,2.211Z" transform="translate(0.103 0.103)" fill-rule="evenodd" fill="url(#linear-gradient-6)"/>
            <path id="路径_203-15" data-name="路径 203" d="M.72.566H.1a.111.111,0,0,1-.1-.1V.1A.111.111,0,0,1,.1,0H.72a.111.111,0,0,1,.1.1v.36A.094.094,0,0,1,.72.566Z" transform="translate(0.154 0.154)" fill="#666" fill-rule="evenodd"/>
            <path id="路径_204-15" data-name="路径 204" d="M.72,1.08H.1a.111.111,0,0,1-.1-.1V.1A.111.111,0,0,1,.1,0H.72a.111.111,0,0,1,.1.1V.977A.111.111,0,0,1,.72,1.08Z" transform="translate(0.154 0.797)" fill="#898989" fill-rule="evenodd"/>
            <path id="路径_205-15" data-name="路径 205" d="M.72.308H.1a.111.111,0,0,1-.1-.1V.1A.111.111,0,0,1,.1,0H.72a.111.111,0,0,1,.1.1v.1A.111.111,0,0,1,.72.308Z" transform="translate(0.154 1.954)" fill="#c5c5c5" fill-rule="evenodd"/>
          </g>
          <g id="组_272-4" data-name="组 272" transform="translate(0 1.401)">
            <rect id="矩形_57-16" data-name="矩形 57" width="0.797" height="1.414" transform="translate(0.643 0.488)"/>
            <rect id="矩形_58-16" data-name="矩形 58" width="0.566" height="1.208" transform="translate(0.745 0.617)" fill="url(#linear-gradient-5)"/>
            <path id="路径_201-16" data-name="路径 201" d="M.231,2.416H.925a.23.23,0,0,0,.231-.231V.231A.23.23,0,0,0,.925,0H.231A.23.23,0,0,0,0,.231V2.185A.23.23,0,0,0,.231,2.416Z" transform="translate(0)" fill-rule="evenodd"/>
            <path id="路径_202-16" data-name="路径 202" d="M.129,2.211H.823a.121.121,0,0,0,.129-.129V.129A.121.121,0,0,0,.823,0H.129A.121.121,0,0,0,0,.129V2.082C.026,2.134.077,2.211.129,2.211Z" transform="translate(0.103 0.103)" fill-rule="evenodd" fill="url(#linear-gradient-6)"/>
            <path id="路径_203-16" data-name="路径 203" d="M.72.566H.1a.111.111,0,0,1-.1-.1V.1A.111.111,0,0,1,.1,0H.72a.111.111,0,0,1,.1.1v.36A.094.094,0,0,1,.72.566Z" transform="translate(0.154 0.154)" fill="#666" fill-rule="evenodd"/>
            <path id="路径_204-16" data-name="路径 204" d="M.72,1.08H.1a.111.111,0,0,1-.1-.1V.1A.111.111,0,0,1,.1,0H.72a.111.111,0,0,1,.1.1V.977A.111.111,0,0,1,.72,1.08Z" transform="translate(0.154 0.797)" fill="#898989" fill-rule="evenodd"/>
            <path id="路径_205-16" data-name="路径 205" d="M.72.308H.1a.111.111,0,0,1-.1-.1V.1A.111.111,0,0,1,.1,0H.72a.111.111,0,0,1,.1.1v.1A.111.111,0,0,1,.72.308Z" transform="translate(0.154 1.954)" fill="#c5c5c5" fill-rule="evenodd"/>
          </g>
        </g>
      </g>
    </g>
    <rect id="矩形_2601" data-name="矩形 2601" width="72" height="72" fill="none"/>
  </g>
</svg>
