<svg id="_37" data-name="37" xmlns="http://www.w3.org/2000/svg" xmlns:xlink="http://www.w3.org/1999/xlink" width="72" height="75.418" viewBox="0 0 72 75.418">
  <defs>
    <filter id="矩形_2538" x="1.082" y="5.082" width="70.336" height="70.336" filterUnits="userSpaceOnUse">
      <feOffset dy="4" input="SourceAlpha"/>
      <feGaussianBlur stdDeviation="1.5" result="blur"/>
      <feFlood flood-opacity="0.302"/>
      <feComposite operator="in" in2="blur"/>
      <feComposite in="SourceGraphic"/>
    </filter>
    <linearGradient id="linear-gradient" x1="0.5" x2="0.5" y2="1" gradientUnits="objectBoundingBox">
      <stop offset="0" stop-color="#ededed"/>
      <stop offset="1" stop-color="#707070"/>
    </linearGradient>
    <filter id="变色层" x="4.04" y="8.035" width="64.531" height="64.437" filterUnits="userSpaceOnUse">
      <feOffset dy="4" input="SourceAlpha"/>
      <feGaussianBlur stdDeviation="3" result="blur-2"/>
      <feFlood flood-opacity="0.702"/>
      <feComposite operator="in" in2="blur-2"/>
      <feComposite in="SourceGraphic"/>
    </filter>
    <radialGradient id="radial-gradient" cx="0.159" cy="0.161" r="0.481" gradientTransform="translate(0.16 -0.066) rotate(44.854)" gradientUnits="objectBoundingBox">
      <stop offset="0" stop-color="#fff"/>
      <stop offset="0.931" stop-color="#fff" stop-opacity="0"/>
      <stop offset="1" stop-color="#fff" stop-opacity="0"/>
    </radialGradient>
    <radialGradient id="radial-gradient-2" cx="0.5" cy="0.5" r="0.5" gradientUnits="objectBoundingBox">
      <stop offset="0" stop-opacity="0"/>
      <stop offset="0.851" stop-color="#fff" stop-opacity="0.078"/>
      <stop offset="0.962" stop-opacity="0.122"/>
      <stop offset="1" stop-color="#fff" stop-opacity="0.129"/>
    </radialGradient>
    <radialGradient id="radial-gradient-3" cx="0.277" cy="0.212" r="0.502" gradientTransform="translate(0.55 0.577) rotate(-159.369)" gradientUnits="objectBoundingBox">
      <stop offset="0" stop-color="#fff"/>
      <stop offset="1" stop-color="#fff" stop-opacity="0"/>
    </radialGradient>
    <radialGradient id="radial-gradient-4" cx="0.5" cy="0.5" r="0.5" gradientTransform="matrix(1, 0, 0, 1, 0, 0)" xlink:href="#radial-gradient-3"/>
    <filter id="矩形_2556" x="7.965" y="10.961" width="56.579" height="56.579" filterUnits="userSpaceOnUse">
      <feOffset dy="3" input="SourceAlpha"/>
      <feGaussianBlur stdDeviation="3" result="blur-3"/>
      <feFlood flood-opacity="0.161"/>
      <feComposite operator="in" in2="blur-3"/>
      <feComposite in="SourceGraphic"/>
    </filter>
    <linearGradient id="linear-gradient-2" x1="0.5" x2="0.5" y2="1" gradientUnits="objectBoundingBox">
      <stop offset="0" stop-color="#707070"/>
      <stop offset="1" stop-color="#1b1b1b"/>
    </linearGradient>
  </defs>
  <g id="组_1427" data-name="组 1427" transform="translate(-2.201 -2.201)">
    <g transform="matrix(1, 0, 0, 1, 2.2, 2.2)" filter="url(#矩形_2538)">
      <rect id="矩形_2538-2" data-name="矩形 2538" width="61.336" height="61.336" rx="30.668" transform="translate(5.58 5.58)" fill="#474747"/>
    </g>
    <path id="路径_2452" data-name="路径 2452" d="M36.08,55.5h0A22.43,22.43,0,0,1,28,53.99a21.9,21.9,0,0,0,9.157,2.047A21.4,21.4,0,0,0,58.165,38.8,23.138,23.138,0,0,1,36.08,55.5Z" transform="translate(2.328 4.775)" fill="#fff"/>
  </g>
  <g transform="matrix(1, 0, 0, 1, 0, 0)" filter="url(#变色层)">
    <path id="变色层-2" data-name="变色层" d="M35.218,10.5h0A23.27,23.27,0,0,1,58.531,33.718h0A23.188,23.188,0,0,1,35.313,56.936h0A23.069,23.069,0,0,1,12,33.813h0A23.209,23.209,0,0,1,35.218,10.5Z" transform="translate(1.04 2.54)" fill="url(#linear-gradient)"/>
  </g>
  <rect id="矩形_2540" data-name="矩形 2540" width="34.287" height="34.287" rx="17.144" transform="translate(19.106 19.106)" fill="url(#radial-gradient)"/>
  <path id="路径_2451" data-name="路径 2451" d="M35.594,15.1h0A19.053,19.053,0,0,1,54.681,34.089h0A18.971,18.971,0,0,1,35.69,53.077h0A18.971,18.971,0,0,1,16.7,34.089h0A18.89,18.89,0,0,1,35.594,15.1Z" transform="translate(0.661 2.165)" fill="url(#radial-gradient-2)"/>
  <path id="路径_2453" data-name="路径 2453" d="M15.376,34.2h0A20.227,20.227,0,0,1,35.6,13.976h0a18.609,18.609,0,0,1,3.953.368,20.783,20.783,0,0,0-4.873-.644h0A19.541,19.541,0,0,0,15.1,33.283h0a21.451,21.451,0,0,0,.644,4.873A30.121,30.121,0,0,1,15.376,34.2Z" transform="translate(0.79 2.277)" opacity="0.48" fill="url(#radial-gradient-3)"/>
  <path id="路径_2455" data-name="路径 2455" d="M.262,19.439h0A19.178,19.178,0,0,1,19.439.262h0A17.644,17.644,0,0,1,23.187.61,19.7,19.7,0,0,0,18.567,0h0A18.527,18.527,0,0,0,0,18.567H0a20.338,20.338,0,0,0,.61,4.62A28.559,28.559,0,0,1,.262,19.439Z" transform="translate(55.341 55.429) rotate(180)" fill="url(#radial-gradient-4)"/>
  <g transform="matrix(1, 0, 0, 1, 0, 0)" filter="url(#矩形_2556)">
    <rect id="矩形_2556-2" data-name="矩形 2556" width="38.579" height="38.579" rx="19.289" transform="translate(55.54 55.54) rotate(180)" opacity="0.33" fill="url(#radial-gradient)"/>
  </g>
  <rect id="矩形_2597" data-name="矩形 2597" width="9" height="8" rx="0.5" transform="translate(32 6)" fill="#ededed"/>
  <path id="交叉_15" data-name="交叉 15" d="M-2364-1318a1,1,0,0,1-1-1v-10h3v10a1,1,0,0,1-1,1Z" transform="translate(2400 1335)" fill="url(#linear-gradient-2)"/>
  <rect id="矩形_2600" data-name="矩形 2600" width="3" height="1" rx="0.5" transform="translate(32 6)" fill="#fff"/>
  <rect id="矩形_2601" data-name="矩形 2601" width="3" height="1" rx="0.5" transform="translate(38 6)" fill="#fff"/>
  <rect id="矩形_2702" data-name="矩形 2702" width="72" height="72" fill="none"/>
</svg>
