<svg id="_15" data-name="15" xmlns="http://www.w3.org/2000/svg" xmlns:xlink="http://www.w3.org/1999/xlink" width="72" height="72" viewBox="0 0 72 72">
  <defs>
    <linearGradient id="linear-gradient" x1="0.5" x2="0.5" y2="1" gradientUnits="objectBoundingBox">
      <stop offset="0" stop-color="#e6e6e6"/>
      <stop offset="1" stop-color="#fdfdfd"/>
    </linearGradient>
    <filter id="椭圆_35" x="4.239" y="7.239" width="61.522" height="61.522" filterUnits="userSpaceOnUse">
      <feOffset dy="2" input="SourceAlpha"/>
      <feGaussianBlur stdDeviation="1" result="blur"/>
      <feFlood flood-opacity="0.161"/>
      <feComposite operator="in" in2="blur"/>
      <feComposite in="SourceGraphic"/>
    </filter>
    <linearGradient id="linear-gradient-2" x1="1.195" y1="1" x2="0.095" y2="1" gradientUnits="objectBoundingBox">
      <stop offset="0" stop-color="#ccc"/>
      <stop offset="0.117" stop-color="#e0e0e0"/>
      <stop offset="0.485" stop-color="#cdcdcd"/>
      <stop offset="0.809" stop-color="#e1e1e1"/>
      <stop offset="1" stop-color="#ccc"/>
    </linearGradient>
    <filter id="减去_2" x="6.489" y="7.489" width="57.022" height="57.022" filterUnits="userSpaceOnUse">
      <feOffset input="SourceAlpha"/>
      <feGaussianBlur stdDeviation="0.25" result="blur-2"/>
      <feFlood flood-opacity="0.502"/>
      <feComposite operator="in" in2="blur-2"/>
      <feComposite in="SourceGraphic"/>
    </filter>
    <linearGradient id="linear-gradient-3" x1="0.5" x2="0.5" y2="1" gradientUnits="objectBoundingBox">
      <stop offset="0" stop-color="#e6e6e6"/>
      <stop offset="1" stop-color="#f9f9f9"/>
    </linearGradient>
    <filter id="椭圆_36" x="8.045" y="9.045" width="54" height="54" filterUnits="userSpaceOnUse">
      <feOffset input="SourceAlpha"/>
      <feGaussianBlur stdDeviation="0.25" result="blur-3"/>
      <feFlood flood-opacity="0.502"/>
      <feComposite operator="in" in2="blur-3"/>
      <feComposite in="SourceGraphic"/>
    </filter>
    <linearGradient id="linear-gradient-4" x1="0.5" x2="0.5" y2="1" gradientUnits="objectBoundingBox">
      <stop offset="0" stop-color="#d8d6d6"/>
      <stop offset="0.907" stop-color="#e8e7e7"/>
      <stop offset="1" stop-color="#f7f7f7"/>
    </linearGradient>
    <filter id="路径_448" x="6.798" y="43.747" width="56.493" height="24.298" filterUnits="userSpaceOnUse">
      <feOffset dy="2" input="SourceAlpha"/>
      <feGaussianBlur stdDeviation="1.25" result="blur-4"/>
      <feFlood flood-opacity="0.702"/>
      <feComposite operator="in" in2="blur-4"/>
      <feComposite in="SourceGraphic"/>
    </filter>
    <filter id="路径_449" x="9.798" y="45.247" width="50.493" height="18.298" filterUnits="userSpaceOnUse">
      <feOffset dy="0.5" input="SourceAlpha"/>
      <feGaussianBlur stdDeviation="0.25" result="blur-5"/>
      <feFlood flood-opacity="0.302"/>
      <feComposite operator="in" in2="blur-5"/>
      <feComposite in="SourceGraphic"/>
    </filter>
  </defs>
  <g id="组_761" data-name="组 761" transform="translate(-4556 824)">
    <g id="椭圆_34" data-name="椭圆 34" transform="translate(4561 -818)" stroke="#fff" stroke-width="0.5" fill="url(#linear-gradient)">
      <circle cx="30" cy="30" r="30" stroke="none"/>
      <circle cx="30" cy="30" r="29.75" fill="none"/>
    </g>
    <g transform="matrix(1, 0, 0, 1, 4556, -824)" filter="url(#椭圆_35)">
      <circle id="椭圆_35-2" data-name="椭圆 35" cx="27.761" cy="27.761" r="27.761" transform="translate(7.24 8.24)" fill="#8f8f8f"/>
    </g>
    <g id="减去_1" data-name="减去 1" transform="translate(4567.183 -778.81)" fill="url(#linear-gradient-2)">
      <path d="M 23.81761932373047 15.83220291137695 C 18.66485977172852 15.83220291137695 13.7165699005127 14.27849292755127 9.507699966430664 11.33904361724854 C 7.479719638824463 9.922713279724121 5.675179958343506 8.2183837890625 4.144209861755371 6.273373126983643 C 3.164592981338501 5.028850555419922 2.308454513549805 3.700085401535034 1.584759950637817 2.302847623825073 C 7.6072678565979 7.866745948791504 15.56594562530518 11.01149368286133 23.81761932373047 11.01149368286133 C 32.06928634643555 11.01149368286133 40.0279541015625 7.866746425628662 46.05046081542969 2.302848339080811 C 45.32676315307617 3.700085878372192 44.47062683105469 5.028850555419922 43.49100875854492 6.273373126983643 C 41.96004104614258 8.2183837890625 40.15549850463867 9.922723770141602 38.12752914428711 11.3390531539917 C 33.91865921020508 14.27849292755127 28.97037887573242 15.83220291137695 23.81761932373047 15.83220291137695 Z" stroke="none"/>
      <path d="M 23.81761932373047 15.33220291137695 C 28.86746025085449 15.33220291137695 33.71675109863281 13.80964374542236 37.84123992919922 10.92912292480469 C 39.82888793945313 9.540953636169434 41.59756088256836 7.870493412017822 43.09812927246094 5.964123249053955 C 43.44617080688477 5.521960735321045 43.77830505371094 5.068962097167969 44.09410095214844 4.605876445770264 C 38.32169723510742 9.042543411254883 31.18456840515137 11.51149368286133 23.81761932373047 11.51149368286133 C 16.45066452026367 11.51149368286133 9.313534736633301 9.042543411254883 3.541122436523438 4.605876922607422 C 3.85692024230957 5.068963050842285 4.189054489135742 5.521960735321045 4.537099838256836 5.964123249053955 C 6.037649631500244 7.8704833984375 7.806329727172852 9.540953636169434 9.793990135192871 10.92912292480469 C 13.91847991943359 13.80964374542236 18.76776885986328 15.33220291137695 23.81761932373047 15.33220291137695 M 23.81761932373047 16.33220291137695 C 18.56193923950195 16.33220291137695 13.5146598815918 14.74735355377197 9.221409797668457 11.74897289276123 C 7.153139591217041 10.30450344085693 5.312729835510254 8.566303253173828 3.751319885253906 6.582633495330811 C 2.175879716873169 4.581153392791748 0.9137498140335083 2.366433382034302 -2.130126972588187e-07 3.363037194503704e-06 C 6.097599983215332 6.680033206939697 14.77851009368896 10.51149368286133 23.81761932373047 10.51149368286133 C 32.85628890991211 10.51149368286133 41.53746795654297 6.680203437805176 47.63521957397461 3.363037194503704e-06 C 46.72111129760742 2.367373466491699 45.4587287902832 4.581933498382568 43.8838996887207 6.582633495330811 C 42.3224983215332 8.566293716430664 40.48208999633789 10.30450344085693 38.413818359375 11.74897289276123 C 34.12057113647461 14.74735355377197 29.07328033447266 16.33220291137695 23.81761932373047 16.33220291137695 Z" stroke="none" fill="#ededed"/>
    </g>
    <g transform="matrix(1, 0, 0, 1, 4556, -824)" filter="url(#减去_2)">
      <path id="减去_2-2" data-name="减去 2" d="M27.761,55.522A27.769,27.769,0,0,1,16.955,2.182,27.768,27.768,0,0,1,38.567,53.341,27.587,27.587,0,0,1,27.761,55.522Zm0-55.082A27.321,27.321,0,1,0,55.082,27.761,27.352,27.352,0,0,0,27.761.441Z" transform="translate(7.24 8.24)" fill="#3e3e3e"/>
    </g>
    <path id="排除_1" data-name="排除 1" d="M30,60A30.008,30.008,0,0,1,18.323,2.358,30.008,30.008,0,0,1,41.677,57.642,29.812,29.812,0,0,1,30,60ZM30,2.239A27.761,27.761,0,1,0,57.761,30,27.792,27.792,0,0,0,30,2.239Z" transform="translate(4561 -818)" fill="url(#linear-gradient-3)"/>
    <g transform="matrix(1, 0, 0, 1, 4556, -824)" filter="url(#椭圆_36)">
      <g id="椭圆_36-2" data-name="椭圆 36" transform="translate(8.79 9.79)" fill="#fafafa" stroke="#fff" stroke-width="1">
        <ellipse cx="26.25" cy="26.25" rx="26.25" ry="26.25" stroke="none"/>
        <ellipse cx="26.25" cy="26.25" rx="25.75" ry="25.75" fill="none"/>
      </g>
    </g>
    <path id="交叉_1" data-name="交叉 1" d="M0,25.789a25.79,25.79,0,0,1,51.579,0Z" transform="translate(4565.256 -813.745)" fill="url(#linear-gradient-4)"/>
    <text id="OFF" transform="translate(4590.979 -799.995)" fill="red" font-size="6" font-family="PingFang SC Medium, PingFang SC"><tspan x="-5.763" y="0">OFF</tspan></text>
    <text id="ON" transform="translate(4591.361 -773.284)" font-size="6" font-family="PingFang SC Medium, PingFang SC"><tspan x="-4.458" y="0">ON</tspan></text>
    <g transform="matrix(1, 0, 0, 1, 4556, -824)" filter="url(#路径_448)">
      <path id="路径_448-2" data-name="路径 448" d="M43.3,137.322a26.089,26.089,0,0,1-15.012-4.714,26.334,26.334,0,0,1-9.484-12.084,33.159,33.159,0,0,0,48.993,0,26.26,26.26,0,0,1-24.5,16.8Z" transform="translate(-8.26 -75.03)" fill="url(#linear-gradient-2)"/>
    </g>
    <g transform="matrix(1, 0, 0, 1, 4556, -824)" filter="url(#路径_449)">
      <g id="路径_449-2" data-name="路径 449" transform="translate(-8.26 -75.03)" fill="none">
        <path d="M43.3,137.322a26.089,26.089,0,0,1-15.012-4.714,26.334,26.334,0,0,1-9.484-12.084,33.159,33.159,0,0,0,48.993,0,26.26,26.26,0,0,1-24.5,16.8Z" stroke="none"/>
        <path d="M 43.30401992797852 137.1221923828125 C 48.66835784912109 137.1221923828125 53.81995010375977 135.5046081542969 58.20185852050781 132.4443054199219 C 60.31295013427734 130.9699554443359 62.19147872924805 129.1957397460938 63.78525924682617 127.1709594726563 C 65.17089080810547 125.4106063842773 66.31900787353516 123.4887771606445 67.20680236816406 121.4454956054688 C 60.9458122253418 127.8708343505859 52.29570388793945 131.5355377197266 43.30401992797852 131.5355377197266 C 34.31233978271484 131.5355377197266 25.66222763061523 127.8708419799805 19.40122032165527 121.4454956054688 C 20.28902626037598 123.4888153076172 21.43714714050293 125.4106369018555 22.82276916503906 127.1709594726563 C 24.41650772094727 129.1956939697266 26.2950382232666 130.9699249267578 28.40617942810059 132.4443054199219 C 32.78807830810547 135.5046081542969 37.93967819213867 137.1221923828125 43.30401992797852 137.1221923828125 M 43.30401992797852 137.3221893310547 C 37.89849853515625 137.3221893310547 32.70730972290039 135.692138671875 28.29165840148926 132.6082763671875 C 26.16441917419434 131.1226348876953 24.27153778076172 129.3348846435547 22.66560935974121 127.2946624755859 C 21.04524803161621 125.2361221313477 19.74713897705078 122.958251953125 18.80733871459961 120.5243453979492 C 25.07877922058105 127.3948211669922 34.00719833374023 131.3355407714844 43.30401992797852 131.3355407714844 C 52.60038757324219 131.3355407714844 61.52908706665039 127.3950119018555 67.80068206787109 120.5243606567383 C 66.86051177978516 122.9592208862305 65.56214141845703 125.2369079589844 63.94241714477539 127.2946624755859 C 62.33648681640625 129.3348693847656 60.44361877441406 131.1226348876953 58.31636810302734 132.6082763671875 C 53.90071868896484 135.692138671875 48.70952987670898 137.3221893310547 43.30401992797852 137.3221893310547 Z" stroke="none" fill="#ededed"/>
      </g>
    </g>
    <path id="排除_2" data-name="排除 2" d="M30,60A30.008,30.008,0,0,1,18.323,2.358,30.008,30.008,0,0,1,41.677,57.642,29.812,29.812,0,0,1,30,60ZM30,2.239A27.761,27.761,0,1,0,57.761,30,27.792,27.792,0,0,0,30,2.239Z" transform="translate(4561 -818)" fill="url(#linear-gradient-3)"/>
    <g id="椭圆_58" data-name="椭圆 58" transform="translate(4561 -818)" fill="none" stroke="#fff" stroke-width="0.2">
      <circle cx="30" cy="30" r="30" stroke="none"/>
      <circle cx="30" cy="30" r="29.9" fill="none"/>
    </g>
  </g>
  <rect id="矩形_2676" data-name="矩形 2676" width="72" height="72" fill="none"/>
</svg>
