<svg id="_28" data-name="28" xmlns="http://www.w3.org/2000/svg" xmlns:xlink="http://www.w3.org/1999/xlink" width="72" height="72" viewBox="0 0 72 72">
  <defs>
    <linearGradient id="linear-gradient" x1="0.752" y1="1.393" x2="0.248" y2="-0.392" gradientUnits="objectBoundingBox">
      <stop offset="0" stop-color="#f2f2f2"/>
      <stop offset="0.02" stop-color="#d4d4d4"/>
      <stop offset="0.05" stop-color="#a5a5a5"/>
      <stop offset="0.07" stop-color="#7e7e7e"/>
      <stop offset="0.1" stop-color="#5f5f5f"/>
      <stop offset="0.13" stop-color="#4a4a4a"/>
      <stop offset="0.16" stop-color="#3c3c3c"/>
      <stop offset="0.18" stop-color="#383838"/>
      <stop offset="0.19" stop-color="#3c3c3c"/>
      <stop offset="0.21" stop-color="#494949"/>
      <stop offset="0.23" stop-color="#505050"/>
      <stop offset="0.29" stop-color="#525252"/>
      <stop offset="0.31" stop-color="#575757"/>
      <stop offset="0.34" stop-color="#666"/>
      <stop offset="0.37" stop-color="#7e7e7e"/>
      <stop offset="0.4" stop-color="#a0a0a0"/>
      <stop offset="0.41" stop-color="#adadad"/>
      <stop offset="0.49" stop-color="#fcfcfc"/>
      <stop offset="0.51" stop-color="#f8f8f8"/>
      <stop offset="0.53" stop-color="#ebebeb"/>
      <stop offset="0.56" stop-color="#d7d7d7"/>
      <stop offset="0.58" stop-color="#bababa"/>
      <stop offset="0.6" stop-color="#a1a1a1"/>
      <stop offset="0.62" stop-color="#b6b6b6"/>
      <stop offset="0.65" stop-color="#c8c8c8"/>
      <stop offset="0.67" stop-color="#d3d3d3"/>
      <stop offset="0.7" stop-color="#d6d6d6"/>
      <stop offset="0.73" stop-color="#ccc"/>
      <stop offset="0.83" stop-color="#a1a1a1"/>
      <stop offset="0.84" stop-color="#acacac"/>
      <stop offset="0.86" stop-color="#c2c2c2"/>
      <stop offset="0.89" stop-color="#d2d2d2"/>
      <stop offset="0.92" stop-color="#dbdbdb"/>
      <stop offset="0.96" stop-color="#dedede"/>
      <stop offset="1" stop-color="#878787"/>
    </linearGradient>
    <linearGradient id="linear-gradient-2" x1="0.5" y1="1" x2="0.5" gradientUnits="objectBoundingBox">
      <stop offset="0" stop-color="#fff"/>
      <stop offset="0.23" stop-color="#e3e3e3"/>
      <stop offset="0.35" stop-color="#b9b9b9"/>
      <stop offset="0.5" stop-color="#8c8c8c"/>
      <stop offset="0.64" stop-color="#696969"/>
      <stop offset="0.78" stop-color="#505050"/>
      <stop offset="0.9" stop-color="#404040"/>
      <stop offset="1" stop-color="#3b3b3b"/>
    </linearGradient>
    <radialGradient id="radial-gradient" cx="0.5" cy="0.5" r="0.5" gradientUnits="objectBoundingBox">
      <stop offset="0" stop-color="#ededed"/>
      <stop offset="1" stop-color="#989898"/>
    </radialGradient>
    <filter id="_01" x="2.01" y="24.99" width="27" height="27" filterUnits="userSpaceOnUse">
      <feOffset dy="2" input="SourceAlpha"/>
      <feGaussianBlur stdDeviation="1.5" result="blur"/>
      <feFlood flood-opacity="0.502"/>
      <feComposite operator="in" in2="blur"/>
      <feComposite in="SourceGraphic"/>
    </filter>
    <radialGradient id="radial-gradient-2" cx="0.5" cy="0.5" fy="0.13261142373085022" r="0.5" gradientUnits="objectBoundingBox">
      <stop offset="0" stop-color="#fff" stop-opacity="0.702"/>
      <stop offset="0.85" stop-color="#fff" stop-opacity="0"/>
      <stop offset="1" stop-opacity="0.502"/>
    </radialGradient>
    <radialGradient id="radial-gradient-3" cx="0.498" cy="0.399" r="1.301" gradientTransform="translate(10.971 6.361) scale(0.384 0.38)" gradientUnits="objectBoundingBox">
      <stop offset="0" stop-color="#fff"/>
      <stop offset="1" stop-color="#fff" stop-opacity="0"/>
    </radialGradient>
  </defs>
  <rect id="矩形_1825" data-name="矩形 1825" width="60" height="20" rx="10" transform="translate(5.51 26.49)" fill="#a6a6a6"/>
  <rect id="矩形_1826" data-name="矩形 1826" width="59.98" height="19.98" rx="9.99" transform="translate(5.52 26.5)" fill="#a7a7a7"/>
  <rect id="矩形_1827" data-name="矩形 1827" width="59.97" height="19.97" rx="9.98" transform="translate(5.53 26.51)" fill="#a8a8a8"/>
  <rect id="矩形_1828" data-name="矩形 1828" width="59.95" height="19.95" rx="9.97" transform="translate(5.53 26.51)" fill="#a9a9a9"/>
  <rect id="矩形_1829" data-name="矩形 1829" width="59.93" height="19.93" rx="9.965" transform="translate(5.54 26.52)" fill="#aaa"/>
  <rect id="矩形_1830" data-name="矩形 1830" width="59.92" height="19.92" rx="9.96" transform="translate(5.55 26.53)" fill="#aaa"/>
  <rect id="矩形_1831" data-name="矩形 1831" width="59.9" height="19.9" rx="9.95" transform="translate(5.56 26.54)" fill="#ababab"/>
  <rect id="矩形_1832" data-name="矩形 1832" width="59.88" height="19.88" rx="9.94" transform="translate(5.57 26.55)" fill="#acacac"/>
  <rect id="矩形_1833" data-name="矩形 1833" width="59.87" height="19.87" rx="9.93" transform="translate(5.58 26.56)" fill="#adadad"/>
  <rect id="矩形_1834" data-name="矩形 1834" width="59.85" height="19.85" rx="9.92" transform="translate(5.59 26.56)" fill="#aeaeae"/>
  <rect id="矩形_1835" data-name="矩形 1835" width="59.83" height="19.83" rx="9.915" transform="translate(5.59 26.57)" fill="#afafaf"/>
  <rect id="矩形_1836" data-name="矩形 1836" width="59.81" height="19.81" rx="9.905" transform="translate(5.6 26.58)" fill="#b0b0b0"/>
  <rect id="矩形_1837" data-name="矩形 1837" width="59.8" height="19.8" rx="9.9" transform="translate(5.61 26.59)" fill="#b1b1b1"/>
  <rect id="矩形_1838" data-name="矩形 1838" width="59.78" height="19.78" rx="9.89" transform="translate(5.62 26.6)" fill="#b1b1b1"/>
  <rect id="矩形_1839" data-name="矩形 1839" width="59.76" height="19.76" rx="9.88" transform="translate(5.63 26.61)" fill="#b2b2b2"/>
  <rect id="矩形_1840" data-name="矩形 1840" width="59.75" height="19.75" rx="9.87" transform="translate(5.64 26.61)" fill="#b3b3b3"/>
  <rect id="矩形_1841" data-name="矩形 1841" width="59.73" height="19.73" rx="9.865" transform="translate(5.64 26.62)" fill="#b4b4b4"/>
  <rect id="矩形_1842" data-name="矩形 1842" width="59.71" height="19.71" rx="9.855" transform="translate(5.65 26.63)" fill="#b5b5b5"/>
  <rect id="矩形_1843" data-name="矩形 1843" width="59.7" height="19.7" rx="9.85" transform="translate(5.66 26.64)" fill="#b6b6b6"/>
  <rect id="矩形_1844" data-name="矩形 1844" width="59.68" height="19.68" rx="9.84" transform="translate(5.67 26.65)" fill="#b7b7b7"/>
  <rect id="矩形_1845" data-name="矩形 1845" width="59.66" height="19.66" rx="9.83" transform="translate(5.68 26.66)" fill="#b8b8b8"/>
  <rect id="矩形_1846" data-name="矩形 1846" width="59.65" height="19.65" rx="9.82" transform="translate(5.69 26.66)" fill="#b9b9b9"/>
  <rect id="矩形_1847" data-name="矩形 1847" width="59.63" height="19.63" rx="9.81" transform="translate(5.69 26.67)" fill="#b9b9b9"/>
  <rect id="矩形_1848" data-name="矩形 1848" width="59.61" height="19.61" rx="9.805" transform="translate(5.7 26.68)" fill="#bababa"/>
  <rect id="矩形_1849" data-name="矩形 1849" width="59.6" height="19.6" rx="9.8" transform="translate(5.71 26.69)" fill="#bbb"/>
  <rect id="矩形_1850" data-name="矩形 1850" width="59.58" height="19.58" rx="9.79" transform="translate(5.72 26.7)" fill="#bcbcbc"/>
  <rect id="矩形_1851" data-name="矩形 1851" width="59.56" height="19.56" rx="9.78" transform="translate(5.73 26.71)" fill="#bdbdbd"/>
  <rect id="矩形_1852" data-name="矩形 1852" width="59.55" height="19.55" rx="9.77" transform="translate(5.74 26.72)" fill="#bebebe"/>
  <rect id="矩形_1853" data-name="矩形 1853" width="59.53" height="19.53" rx="9.76" transform="translate(5.75 26.72)" fill="#bfbfbf"/>
  <rect id="矩形_1854" data-name="矩形 1854" width="59.51" height="19.51" rx="9.755" transform="translate(5.75 26.73)" fill="silver"/>
  <rect id="矩形_1855" data-name="矩形 1855" width="59.5" height="19.5" rx="9.75" transform="translate(5.76 26.74)" fill="silver"/>
  <rect id="矩形_1856" data-name="矩形 1856" width="59.48" height="19.48" rx="9.74" transform="translate(5.77 26.75)" fill="#c1c1c1"/>
  <rect id="矩形_1857" data-name="矩形 1857" width="59.46" height="19.46" rx="9.73" transform="translate(5.78 26.76)" fill="#c2c2c2"/>
  <rect id="矩形_1858" data-name="矩形 1858" width="59.44" height="19.44" rx="9.72" transform="translate(5.79 26.77)" fill="#c3c3c3"/>
  <rect id="矩形_1859" data-name="矩形 1859" width="59.43" height="19.43" rx="9.71" transform="translate(5.8 26.77)" fill="#c4c4c4"/>
  <rect id="矩形_1860" data-name="矩形 1860" width="59.41" height="19.41" rx="9.705" transform="translate(5.8 26.78)" fill="#c5c5c5"/>
  <rect id="矩形_1861" data-name="矩形 1861" width="59.39" height="19.39" rx="9.695" transform="translate(5.81 26.79)" fill="#c6c6c6"/>
  <rect id="矩形_1862" data-name="矩形 1862" width="59.38" height="19.38" rx="9.69" transform="translate(5.82 26.8)" fill="#c7c7c7"/>
  <rect id="矩形_1863" data-name="矩形 1863" width="59.36" height="19.36" rx="9.68" transform="translate(5.83 26.81)" fill="#c7c7c7"/>
  <rect id="矩形_1864" data-name="矩形 1864" width="59.34" height="19.34" rx="9.67" transform="translate(5.84 26.82)" fill="#c8c8c8"/>
  <rect id="矩形_1865" data-name="矩形 1865" width="59.33" height="19.33" rx="9.66" transform="translate(5.85 26.82)" fill="#c9c9c9"/>
  <rect id="矩形_1866" data-name="矩形 1866" width="59.31" height="19.31" rx="9.655" transform="translate(5.85 26.83)" fill="#cacaca"/>
  <rect id="矩形_1867" data-name="矩形 1867" width="59.29" height="19.29" rx="9.645" transform="translate(5.86 26.84)" fill="#cbcbcb"/>
  <rect id="矩形_1868" data-name="矩形 1868" width="59.28" height="19.28" rx="9.64" transform="translate(5.87 26.85)" fill="#ccc"/>
  <rect id="矩形_1869" data-name="矩形 1869" width="59.26" height="19.26" rx="9.63" transform="translate(5.88 26.86)" fill="#cdcdcd"/>
  <rect id="矩形_1870" data-name="矩形 1870" width="59.24" height="19.24" rx="9.62" transform="translate(5.89 26.87)" fill="#cecece"/>
  <rect id="矩形_1871" data-name="矩形 1871" width="59.23" height="19.23" rx="9.61" transform="translate(5.9 26.88)" fill="#cfcfcf"/>
  <rect id="矩形_1872" data-name="矩形 1872" width="59.21" height="19.21" rx="9.6" transform="translate(5.91 26.88)" fill="#cfcfcf"/>
  <rect id="矩形_1873" data-name="矩形 1873" width="59.19" height="19.19" rx="9.595" transform="translate(5.91 26.89)" fill="#d0d0d0"/>
  <rect id="矩形_1874" data-name="矩形 1874" width="59.18" height="19.18" rx="9.59" transform="translate(5.92 26.9)" fill="#d1d1d1"/>
  <rect id="矩形_1875" data-name="矩形 1875" width="59.16" height="19.16" rx="9.58" transform="translate(5.93 26.91)" fill="#d2d2d2"/>
  <rect id="矩形_1876" data-name="矩形 1876" width="59.14" height="19.14" rx="9.57" transform="translate(5.94 26.92)" fill="#d3d3d3"/>
  <rect id="矩形_1877" data-name="矩形 1877" width="59.13" height="19.13" rx="9.56" transform="translate(5.95 26.93)" fill="#d4d4d4"/>
  <rect id="矩形_1878" data-name="矩形 1878" width="59.11" height="19.11" rx="9.55" transform="translate(5.96 26.93)" fill="#d5d5d5"/>
  <rect id="矩形_1879" data-name="矩形 1879" width="59.09" height="19.09" rx="9.545" transform="translate(5.96 26.94)" fill="#d6d6d6"/>
  <rect id="矩形_1880" data-name="矩形 1880" width="59.07" height="19.07" rx="9.535" transform="translate(5.97 26.95)" fill="#d6d6d6"/>
  <rect id="矩形_1881" data-name="矩形 1881" width="59.06" height="19.06" rx="9.53" transform="translate(5.98 26.96)" fill="#d7d7d7"/>
  <rect id="矩形_1882" data-name="矩形 1882" width="59.04" height="19.04" rx="9.52" transform="translate(5.99 26.97)" fill="#d8d8d8"/>
  <rect id="矩形_1883" data-name="矩形 1883" width="59.02" height="19.02" rx="9.51" transform="translate(6 26.98)" fill="#d9d9d9"/>
  <rect id="矩形_1884" data-name="矩形 1884" width="59.01" height="19.01" rx="9.5" transform="translate(6.01 26.98)" fill="#dadada"/>
  <rect id="矩形_1885" data-name="矩形 1885" width="58.99" height="18.99" rx="9.495" transform="translate(6.01 26.99)" fill="#dbdbdb"/>
  <rect id="矩形_1886" data-name="矩形 1886" width="58.97" height="18.97" rx="9.485" transform="translate(6.02 27)" fill="#dcdcdc"/>
  <rect id="矩形_1887" data-name="矩形 1887" width="58.96" height="18.96" rx="9.48" transform="translate(6.03 27.01)" fill="#ddd"/>
  <rect id="矩形_1888" data-name="矩形 1888" width="58.94" height="18.94" rx="9.47" transform="translate(6.04 27.02)" fill="#dedede"/>
  <rect id="矩形_1889" data-name="矩形 1889" width="58.92" height="18.92" rx="9.46" transform="translate(6.05 27.03)" fill="#dedede"/>
  <rect id="矩形_1890" data-name="矩形 1890" width="58.91" height="18.91" rx="9.45" transform="translate(6.06 27.04)" fill="#dfdfdf"/>
  <rect id="矩形_1891" data-name="矩形 1891" width="58.89" height="18.89" rx="9.44" transform="translate(6.06 27.04)" fill="#e0e0e0"/>
  <rect id="矩形_1892" data-name="矩形 1892" width="58.87" height="18.87" rx="9.435" transform="translate(6.07 27.05)" fill="#e1e1e1"/>
  <rect id="矩形_1893" data-name="矩形 1893" width="58.86" height="18.86" rx="9.43" transform="translate(6.08 27.06)" fill="#e2e2e2"/>
  <rect id="矩形_1894" data-name="矩形 1894" width="58.84" height="18.84" rx="9.42" transform="translate(6.09 27.07)" fill="#e3e3e3"/>
  <rect id="矩形_1895" data-name="矩形 1895" width="58.82" height="18.82" rx="9.41" transform="translate(6.1 27.08)" fill="#e4e4e4"/>
  <rect id="矩形_1896" data-name="矩形 1896" width="58.81" height="18.81" rx="9.4" transform="translate(6.11 27.09)" fill="#e5e5e5"/>
  <rect id="矩形_1897" data-name="矩形 1897" width="58.79" height="18.79" rx="9.39" transform="translate(6.12 27.09)" fill="#e5e5e5"/>
  <rect id="矩形_1898" data-name="矩形 1898" width="58.77" height="18.77" rx="9.385" transform="translate(6.12 27.1)" fill="#e6e6e6"/>
  <rect id="矩形_1899" data-name="矩形 1899" width="58.76" height="18.76" rx="9.38" transform="translate(6.13 27.11)" fill="#e7e7e7"/>
  <rect id="矩形_1900" data-name="矩形 1900" width="58.74" height="18.74" rx="9.37" transform="translate(6.14 27.12)" fill="#e8e8e8"/>
  <rect id="矩形_1901" data-name="矩形 1901" width="58.72" height="18.72" rx="9.36" transform="translate(6.15 27.13)" fill="#e9e9e9"/>
  <rect id="矩形_1902" data-name="矩形 1902" width="58.7" height="18.7" rx="9.35" transform="translate(6.16 27.14)" fill="#eaeaea"/>
  <rect id="矩形_1903" data-name="矩形 1903" width="58.69" height="18.69" rx="9.34" transform="translate(6.17 27.14)" fill="#ebebeb"/>
  <rect id="矩形_1904" data-name="矩形 1904" width="58.67" height="18.67" rx="9.335" transform="translate(6.17 27.15)" fill="#ececec"/>
  <rect id="矩形_1905" data-name="矩形 1905" width="58.65" height="18.65" rx="9.325" transform="translate(6.18 27.16)" fill="#ececec"/>
  <rect id="矩形_1906" data-name="矩形 1906" width="58.64" height="18.64" rx="9.32" transform="translate(6.19 27.17)" fill="#ededed"/>
  <rect id="矩形_1907" data-name="矩形 1907" width="58.62" height="18.62" rx="9.31" transform="translate(6.2 27.18)" fill="#eee"/>
  <rect id="矩形_1908" data-name="矩形 1908" width="58.6" height="18.6" rx="9.3" transform="translate(6.21 27.19)" fill="#efefef"/>
  <rect id="矩形_1909" data-name="矩形 1909" width="58.59" height="18.59" rx="9.29" transform="translate(6.22 27.2)" fill="#f0f0f0"/>
  <rect id="矩形_1910" data-name="矩形 1910" width="58.57" height="18.57" rx="9.28" transform="translate(6.22 27.2)" fill="#f1f1f1"/>
  <rect id="矩形_1911" data-name="矩形 1911" width="58.55" height="18.55" rx="9.275" transform="translate(6.23 27.21)" fill="#f2f2f2"/>
  <rect id="矩形_1912" data-name="矩形 1912" width="58.54" height="18.54" rx="9.27" transform="translate(6.24 27.22)" fill="#f3f3f3"/>
  <rect id="矩形_1913" data-name="矩形 1913" width="58.52" height="18.52" rx="9.26" transform="translate(6.25 27.23)" fill="#f4f4f4"/>
  <rect id="矩形_1914" data-name="矩形 1914" width="58.5" height="18.5" rx="9.25" transform="translate(6.26 27.24)" fill="#f4f4f4"/>
  <rect id="矩形_1915" data-name="矩形 1915" width="58.49" height="18.49" rx="9.24" transform="translate(6.27 27.25)" fill="#f5f5f5"/>
  <rect id="矩形_1916" data-name="矩形 1916" width="58.47" height="18.47" rx="9.23" transform="translate(6.28 27.25)" fill="#f6f6f6"/>
  <rect id="矩形_1917" data-name="矩形 1917" width="58.45" height="18.45" rx="9.225" transform="translate(6.28 27.26)" fill="#f7f7f7"/>
  <rect id="矩形_1918" data-name="矩形 1918" width="58.44" height="18.44" rx="9.22" transform="translate(6.29 27.27)" fill="#f8f8f8"/>
  <rect id="矩形_1919" data-name="矩形 1919" width="58.42" height="18.42" rx="9.21" transform="translate(6.3 27.28)" fill="#f9f9f9"/>
  <rect id="矩形_1920" data-name="矩形 1920" width="58.4" height="18.4" rx="9.2" transform="translate(6.31 27.29)" fill="#fafafa"/>
  <rect id="矩形_1921" data-name="矩形 1921" width="58.38" height="18.38" rx="9.19" transform="translate(6.32 27.3)" fill="#fbfbfb"/>
  <rect id="矩形_1922" data-name="矩形 1922" width="58.37" height="18.37" rx="9.18" transform="translate(6.33 27.3)" fill="#fbfbfb"/>
  <rect id="矩形_1923" data-name="矩形 1923" width="58.35" height="18.35" rx="9.175" transform="translate(6.33 27.31)" fill="#fcfcfc"/>
  <rect id="矩形_1924" data-name="矩形 1924" width="58.33" height="18.33" rx="9.165" transform="translate(6.34 27.32)" fill="#fdfdfd"/>
  <rect id="矩形_1925" data-name="矩形 1925" width="58.32" height="18.32" rx="9.16" transform="translate(6.35 27.33)" fill="#fefefe"/>
  <rect id="矩形_1926" data-name="矩形 1926" width="58.3" height="18.3" rx="9.15" transform="translate(6.36 27.34)" fill="#fff"/>
  <rect id="矩形_1927" data-name="矩形 1927" width="59.23" height="19.23" rx="9.615" transform="translate(5.89 26.87)" fill="url(#linear-gradient)"/>
  <rect id="矩形_1928" data-name="矩形 1928" width="58.5" height="18.5" rx="9.25" transform="translate(6.26 27.24)" fill="url(#linear-gradient-2)"/>
  <rect id="矩形_1929" data-name="矩形 1929" width="58" height="18" rx="9" transform="translate(6.51 27.49)" opacity="0.6"/>
  <path id="路径_998" data-name="路径 998" d="M220,154a4,4,0,0,1,0-8h40a4,4,0,0,1,0,8Z" transform="translate(-204.49 -113.5)" opacity="0.6"/>
  <circle id="椭圆_199" data-name="椭圆 199" cx="9" cy="9" r="9" transform="translate(6.76 27.79)" opacity="0.7"/>
  <g transform="matrix(1, 0, 0, 1, 0, 0)" filter="url(#_01)">
    <circle id="_01-2" data-name="01" cx="9" cy="9" r="9" transform="translate(6.51 27.49)" fill="url(#radial-gradient)"/>
  </g>
  <circle id="椭圆_201" data-name="椭圆 201" cx="9" cy="9" r="9" transform="translate(6.51 27.49)" fill="url(#radial-gradient-2)"/>
  <g id="组_1032" data-name="组 1032" transform="translate(-185 -103.52)">
    <ellipse id="椭圆_202" data-name="椭圆 202" cx="2.81" cy="1.08" rx="2.81" ry="1.08" transform="matrix(0.883, -0.47, 0.47, 0.883, 193.652, 134.329)" fill="url(#radial-gradient-3)"/>
  </g>
  <rect id="矩形_2558" data-name="矩形 2558" width="10" height="3" rx="1.5" transform="translate(46 35)" fill="#08c408"/>
  <rect id="矩形_2668" data-name="矩形 2668" width="72" height="72" fill="none"/>
</svg>
