<svg id="_35-1" data-name="35-1" xmlns="http://www.w3.org/2000/svg" xmlns:xlink="http://www.w3.org/1999/xlink" width="72" height="72" viewBox="0 0 72 72">
  <defs>
    <linearGradient id="linear-gradient" x1="0.5" y1="1" x2="0.5" gradientUnits="objectBoundingBox">
      <stop offset="0" stop-opacity="0.502"/>
      <stop offset="0.99" stop-opacity="0"/>
    </linearGradient>
    <filter id="路径_1645" x="20.486" y="21.059" width="31.046" height="34.814" filterUnits="userSpaceOnUse">
      <feOffset dy="1" input="SourceAlpha"/>
      <feGaussianBlur stdDeviation="1" result="blur"/>
      <feFlood/>
      <feComposite operator="in" in2="blur"/>
      <feComposite in="SourceGraphic"/>
    </filter>
    <linearGradient id="linear-gradient-2" y1="0.499" x2="1" y2="0.499" gradientUnits="objectBoundingBox">
      <stop offset="0.01" stop-color="#fff" stop-opacity="0.6"/>
      <stop offset="1" stop-color="#fff" stop-opacity="0.349"/>
    </linearGradient>
    <linearGradient id="linear-gradient-3" x1="0.885" y1="0.843" x2="0.108" y2="0.157" gradientUnits="objectBoundingBox">
      <stop offset="0" stop-color="#fff" stop-opacity="0.149"/>
      <stop offset="0.99" stop-color="#fff" stop-opacity="0.4"/>
    </linearGradient>
    <clipPath id="clip-path">
      <path id="路径_1649" data-name="路径 1649" d="M84.9,519.692a1.649,1.649,0,0,1,.825.231l10.725,6.2a1.65,1.65,0,0,1,.825,1.419v12.408a1.65,1.65,0,0,1-.825,1.419l-10.741,6.2a1.65,1.65,0,0,1-1.65,0l-10.708-6.2a1.65,1.65,0,0,1-.825-1.419V527.546a1.65,1.65,0,0,1,.825-1.419l10.741-6.2a1.65,1.65,0,0,1,.825-.231m0-.132a1.65,1.65,0,0,0-.891.248l-10.675,6.2a1.765,1.765,0,0,0-.891,1.534v12.408a1.782,1.782,0,0,0,.891,1.534l10.741,6.2a1.831,1.831,0,0,0,1.782,0l10.741-6.2a1.782,1.782,0,0,0,.891-1.534V527.546a1.766,1.766,0,0,0-.891-1.535l-10.741-6.2a1.65,1.65,0,0,0-.891-.248Z" transform="translate(-72.46 -519.56)" fill="none"/>
    </clipPath>
    <linearGradient id="linear-gradient-4" x1="0.5" y1="1" x2="0.5" gradientUnits="objectBoundingBox">
      <stop offset="0.01" stop-opacity="0"/>
      <stop offset="1" stop-opacity="0.502"/>
    </linearGradient>
    <linearGradient id="linear-gradient-5" x1="0.5" y1="1" x2="0.5" y2="0" xlink:href="#linear-gradient-3"/>
    <linearGradient id="linear-gradient-6" x1="0.853" y1="0.854" x2="0.147" y2="0.148" gradientUnits="objectBoundingBox">
      <stop offset="0" stop-opacity="0.4"/>
      <stop offset="1" stop-color="#231815" stop-opacity="0.749"/>
    </linearGradient>
    <linearGradient id="linear-gradient-7" x1="0.5" x2="0.5" y2="1" gradientUnits="objectBoundingBox">
      <stop offset="0" stop-color="#b9b9b4"/>
      <stop offset="1" stop-color="#3d3c33"/>
    </linearGradient>
    <radialGradient id="radial-gradient" cx="0.5" cy="0.5" r="0.435" gradientTransform="translate(0 -0.074) scale(1 1.148)" gradientUnits="objectBoundingBox">
      <stop offset="0" stop-color="#fff" stop-opacity="0.91"/>
      <stop offset="0.491" stop-color="#fff" stop-opacity="0.69"/>
      <stop offset="1" stop-color="#fff" stop-opacity="0.09"/>
    </radialGradient>
    <radialGradient id="radial-gradient-2" cx="0.5" cy="0.5" r="0.393" gradientTransform="translate(0 -0.147) scale(1 1.294)" gradientUnits="objectBoundingBox">
      <stop offset="0" stop-color="#fff" stop-opacity="0.89"/>
      <stop offset="0.402" stop-color="#fff" stop-opacity="0.718"/>
      <stop offset="1" stop-color="#fff" stop-opacity="0.11"/>
    </radialGradient>
    <radialGradient id="radial-gradient-3" cx="0.5" cy="0.5" r="0.5" gradientUnits="objectBoundingBox">
      <stop offset="0" stop-color="#dadada" stop-opacity="0"/>
      <stop offset="0.736" stop-color="#c3c3c3" stop-opacity="0.078"/>
      <stop offset="1" stop-opacity="0.749"/>
    </radialGradient>
    <radialGradient id="radial-gradient-4" cx="0.443" cy="0.439" r="0.5" gradientUnits="objectBoundingBox">
      <stop offset="0" stop-color="#fff" stop-opacity="0.302"/>
      <stop offset="0.09" stop-color="#dadada" stop-opacity="0.302"/>
      <stop offset="0.25" stop-color="#787878" stop-opacity="0.302"/>
      <stop offset="0.41" stop-opacity="0.302"/>
      <stop offset="1" stop-opacity="0.8"/>
    </radialGradient>
    <radialGradient id="radial-gradient-5" cx="1.178" cy="1.16" r="0.924" gradientTransform="translate(-589.658 120.558) rotate(-90) scale(1 0.992)" gradientUnits="objectBoundingBox">
      <stop offset="0" stop-color="#beb7b7"/>
      <stop offset="0.13" stop-color="#b7b1b1"/>
      <stop offset="0.31" stop-color="#a39f9f"/>
      <stop offset="0.53" stop-color="#838282"/>
      <stop offset="0.78" stop-color="#57595b"/>
      <stop offset="1" stop-color="#282f31"/>
    </radialGradient>
    <radialGradient id="radial-gradient-6" cx="2.162" cy="0.968" r="0.482" gradientTransform="translate(-972.411 142.162) rotate(-90) scale(1 1.1)" gradientUnits="objectBoundingBox">
      <stop offset="0" stop-color="#beb7b7"/>
      <stop offset="0.16" stop-color="#bab3b3"/>
      <stop offset="0.33" stop-color="#aea8a9"/>
      <stop offset="0.49" stop-color="#9a9696"/>
      <stop offset="0.66" stop-color="#7d7c7d"/>
      <stop offset="0.82" stop-color="#595b5d"/>
      <stop offset="0.98" stop-color="#2d3335"/>
      <stop offset="1" stop-color="#282f31"/>
    </radialGradient>
    <radialGradient id="radial-gradient-7" cx="1.178" cy="1.16" r="0.924" gradientTransform="translate(-589.658 120.558) rotate(-90) scale(1 0.992)" gradientUnits="objectBoundingBox">
      <stop offset="0" stop-color="#beb7b7"/>
      <stop offset="0.11" stop-color="#b7b0b0"/>
      <stop offset="0.26" stop-color="#a39d9d"/>
      <stop offset="0.45" stop-color="#837e7e"/>
      <stop offset="0.66" stop-color="#565353"/>
      <stop offset="0.89" stop-color="#1e1d1d"/>
      <stop offset="1"/>
    </radialGradient>
    <radialGradient id="radial-gradient-8" cx="2.162" cy="0.968" r="0.482" gradientTransform="translate(-972.411 142.162) rotate(-90) scale(1 1.1)" gradientUnits="objectBoundingBox">
      <stop offset="0" stop-color="#beb7b7"/>
      <stop offset="0.14" stop-color="#bab3b3"/>
      <stop offset="0.29" stop-color="#aea7a7"/>
      <stop offset="0.44" stop-color="#9a9494"/>
      <stop offset="0.58" stop-color="#7d7979"/>
      <stop offset="0.73" stop-color="#595555"/>
      <stop offset="0.87" stop-color="#2d2b2b"/>
      <stop offset="1"/>
    </radialGradient>
    <linearGradient id="linear-gradient-8" x1="0.5" y1="0.999" x2="0.5" gradientUnits="objectBoundingBox">
      <stop offset="0"/>
      <stop offset="0.21" stop-color="#231815" stop-opacity="0.749"/>
      <stop offset="1" stop-opacity="0.251"/>
    </linearGradient>
    <linearGradient id="linear-gradient-9" x1="0.5" y1="0.999" x2="0.5" gradientUnits="objectBoundingBox">
      <stop offset="0"/>
      <stop offset="0.21" stop-opacity="0.749"/>
      <stop offset="1" stop-opacity="0.251"/>
    </linearGradient>
    <radialGradient id="radial-gradient-9" cx="0.428" cy="-0.276" r="0.959" gradientTransform="translate(2.883) scale(0.897 1)" gradientUnits="objectBoundingBox">
      <stop offset="0" stop-opacity="0.8"/>
      <stop offset="0.75" stop-opacity="0"/>
    </radialGradient>
    <linearGradient id="linear-gradient-10" x1="0.502" y1="0.994" x2="0.502" y2="-0.005" xlink:href="#linear-gradient-8"/>
    <filter id="矩形_2560" x="25.5" y="22.5" width="21" height="17" filterUnits="userSpaceOnUse">
      <feOffset dy="3" input="SourceAlpha"/>
      <feGaussianBlur stdDeviation="1.5" result="blur-2"/>
      <feFlood flood-opacity="0.702"/>
      <feComposite operator="in" in2="blur-2"/>
      <feComposite in="SourceGraphic"/>
    </filter>
    <linearGradient id="linear-gradient-11" x1="0.5" x2="0.5" y2="1" gradientUnits="objectBoundingBox">
      <stop offset="0" stop-color="#bfbfbf"/>
      <stop offset="1" stop-color="#747474"/>
    </linearGradient>
    <radialGradient id="radial-gradient-10" cx="0.5" cy="0.5" r="0.5" gradientUnits="objectBoundingBox">
      <stop offset="0" stop-opacity="0"/>
      <stop offset="0.89" stop-opacity="0.341"/>
      <stop offset="0.948" stop-opacity="0.6"/>
      <stop offset="1" stop-opacity="0.31"/>
    </radialGradient>
    <radialGradient id="radial-gradient-11" cx="0.5" cy="0.5" r="0.5" gradientUnits="objectBoundingBox">
      <stop offset="0" stop-color="#fff"/>
      <stop offset="0.731" stop-color="#fff" stop-opacity="0.361"/>
      <stop offset="1" stop-color="#fff" stop-opacity="0"/>
    </radialGradient>
  </defs>
  <g id="组_1388" data-name="组 1388" transform="translate(-2097.445 -493.445)">
    <g id="组_1381" data-name="组 1381" transform="translate(2111 508)">
      <g id="矩形_2526" data-name="矩形 2526" transform="translate(0.445 0.445)" fill="#707070" stroke="#707070" stroke-width="1">
        <rect width="44" height="44" stroke="none"/>
        <rect x="0.5" y="0.5" width="43" height="43" fill="none"/>
      </g>
      <path id="减去_24" data-name="减去 24" d="M44.889,44.889H0V0H44.889V44.889ZM1.829,1.829V43.06H43.06V1.829Z" transform="translate(44.889 44.889) rotate(180)" fill="#1d1d1d"/>
      <path id="交叉_14" data-name="交叉 14" d="M0,44.721l1.663-1.663h41.4V1.663L44.721,0V44.721Z" transform="translate(44.804 44.804) rotate(180)" fill="#fff" opacity="0.5"/>
    </g>
  </g>
  <g id="组_1402" data-name="组 1402" transform="translate(5 1)">
    <g id="组_1400" data-name="组 1400" transform="translate(18.486 22.059)">
      <path id="路径_1644" data-name="路径 1644" d="M97.456,540.865V526.791a.347.347,0,0,0-.165-.281L85.1,519.465a.38.38,0,0,0-.33,0L72.575,526.51a.346.346,0,0,0-.165.28v14.074a.346.346,0,0,0,.165.3l12.193,7.029a.3.3,0,0,0,.33,0l12.193-7.029a.347.347,0,0,0,.165-.3Z" transform="translate(-72.41 -519.427)" fill="#d0ccbf"/>
      <g transform="matrix(1, 0, 0, 1, -23.49, -23.06)" filter="url(#路径_1645)">
        <path id="路径_1645-2" data-name="路径 1645" d="M97.456,540.865V526.791a.347.347,0,0,0-.165-.281L85.1,519.465a.38.38,0,0,0-.33,0L72.575,526.51a.346.346,0,0,0-.165.28v14.074a.346.346,0,0,0,.165.3l12.193,7.029a.3.3,0,0,0,.33,0l12.193-7.029a.347.347,0,0,0,.165-.3Z" transform="translate(-48.92 -496.37)" fill="url(#linear-gradient)"/>
      </g>
      <path id="路径_1646" data-name="路径 1646" d="M84.758,520.383a34.185,34.185,0,0,1,5.989,2.409,33.652,33.652,0,0,1,5.131,4.026,22.753,22.753,0,0,1,0,12.837,31.344,31.344,0,0,1-5.065,3.993,34.648,34.648,0,0,1-6.055,2.524A32.8,32.8,0,0,1,78.7,543.73a28.992,28.992,0,0,1-5.065-3.993,22.753,22.753,0,0,1,0-12.837,25.788,25.788,0,0,1,5.1-4.009,27.51,27.51,0,0,1,6.022-2.508m0,0a26.584,26.584,0,0,0-6.039,2.426,26.294,26.294,0,0,0-5.115,4.026,22.868,22.868,0,0,0,0,12.87,30.011,30.011,0,0,0,5.082,4.009,32.256,32.256,0,0,0,6.072,2.459,33.653,33.653,0,0,0,6.072-2.442,32.868,32.868,0,0,0,5.082-4.009,22.869,22.869,0,0,0,0-12.87,34.237,34.237,0,0,0-5.148-4.042,35.131,35.131,0,0,0-6.006-2.459Z" transform="translate(-72.235 -518.827)" fill="url(#linear-gradient-2)"/>
      <path id="路径_1647" data-name="路径 1647" d="M96.533,526.017l-10.741-6.2a1.65,1.65,0,0,0-1.782,0l-10.659,6.2a1.765,1.765,0,0,0-.891,1.534v12.408a1.782,1.782,0,0,0,.891,1.534l10.741,6.2a1.8,1.8,0,0,0,1.782,0l10.741-6.2a1.782,1.782,0,0,0,.891-1.534V527.551A1.766,1.766,0,0,0,96.533,526.017Zm-.478,14.173a32.163,32.163,0,0,1-5.082,3.993,32.372,32.372,0,0,1-6.072,2.508,31.663,31.663,0,0,1-6.072-2.425,30.938,30.938,0,0,1-5.082-4.009,22.868,22.868,0,0,1,0-12.87,26.307,26.307,0,0,1,5.115-4.026,26.582,26.582,0,0,1,6.039-2.492,35.132,35.132,0,0,1,6.006,2.409,34.227,34.227,0,0,1,5.148,4.042A22.868,22.868,0,0,1,96.054,540.19Z" transform="translate(-72.378 -519.346)" fill="url(#linear-gradient-3)"/>
      <g id="组_1110" data-name="组 1110" transform="translate(0.082 0.219)" opacity="0.3">
        <g id="组_1109" data-name="组 1109" transform="translate(0 0)" clip-path="url(#clip-path)">
          <path id="路径_1648" data-name="路径 1648" d="M72.41,536.75Z" transform="translate(-72.492 -508.387)" fill="#231815"/>
          <rect id="矩形_2244" data-name="矩形 2244" width="25.046" height="28.165" transform="translate(-0.082 0.215)" fill="#231815"/>
          <rect id="矩形_2245" data-name="矩形 2245" width="25.046" height="0.198" transform="translate(-0.082 0)" fill="#231815"/>
          <rect id="矩形_2246" data-name="矩形 2246" width="24.782" height="28.033" transform="translate(0.05 0.215)" fill="#231815"/>
          <rect id="矩形_2247" data-name="矩形 2247" width="24.782" height="0.066" transform="translate(0.05 0.132)" fill="#231815"/>
        </g>
      </g>
      <circle id="椭圆_334" data-name="椭圆 334" cx="10.411" cy="10.411" r="10.411" transform="translate(2.112 3.998)" fill="#d0ccbf"/>
      <circle id="椭圆_335" data-name="椭圆 335" cx="10.411" cy="10.411" r="10.411" transform="translate(2.112 3.998)" fill="url(#linear-gradient-4)"/>
      <path id="路径_1650" data-name="路径 1650" d="M84.348,521.47a11.038,11.038,0,1,0,11.038,11.038A11.038,11.038,0,0,0,84.348,521.47Zm0,21.449a10.395,10.395,0,1,1,7.367-3.044A10.411,10.411,0,0,1,84.348,542.92Z" transform="translate(-71.825 -518.099)" fill="url(#linear-gradient-5)"/>
      <path id="路径_1651" data-name="路径 1651" d="M84.316,543.422a10.956,10.956,0,1,1,10.956-10.939,10.955,10.955,0,0,1-10.956,10.939Zm0-21.449a10.51,10.51,0,1,0,10.494,10.51A10.51,10.51,0,0,0,84.316,521.972Z" transform="translate(-71.793 -518.073)" fill="url(#linear-gradient-6)"/>
    </g>
    <g id="组_1401" data-name="组 1401" transform="translate(20.307 26.07)">
      <g id="组_1368" data-name="组 1368" transform="translate(0 0)">
        <g id="组_875" data-name="组 875" transform="translate(0 0)">
          <g id="组_874" data-name="组 874">
            <ellipse id="椭圆_70" data-name="椭圆 70" cx="10.603" cy="10.414" rx="10.603" ry="10.414" transform="translate(0 0)" fill="url(#linear-gradient-7)"/>
            <ellipse id="椭圆_71" data-name="椭圆 71" cx="8.331" cy="5.302" rx="8.331" ry="5.302" transform="translate(2.272)" fill="url(#radial-gradient)"/>
            <ellipse id="椭圆_72" data-name="椭圆 72" cx="7.195" cy="3.787" rx="7.195" ry="3.787" transform="translate(3.408 13.254)" opacity="0.55" fill="url(#radial-gradient-2)"/>
          </g>
          <ellipse id="椭圆_73" data-name="椭圆 73" cx="10.603" cy="10.414" rx="10.603" ry="10.414" transform="translate(0 0)" opacity="0.23" fill="url(#radial-gradient-3)"/>
        </g>
      </g>
    </g>
  </g>
  <path id="联合_4" data-name="联合 4" d="M4.237,8.732a5.409,5.409,0,1,1,8.539,0A40.388,40.388,0,0,0,14.1,13.491a8.247,8.247,0,0,0-5.591-2.227,8.381,8.381,0,0,0-5.657,2.26A36.045,36.045,0,0,0,4.237,8.732Z" transform="translate(44.43 43.038) rotate(180)" fill="#c9c9c9"/>
  <g id="组_1365" data-name="组 1365" transform="translate(41.581 43.038) rotate(180)">
    <g id="组_1357" data-name="组 1357" transform="translate(11.248 13.524) rotate(180)">
      <circle id="椭圆_328" data-name="椭圆 328" cx="5.41" cy="5.41" r="5.41" transform="translate(0.181 2.705)"/>
      <circle id="椭圆_329" data-name="椭圆 329" cx="4.733" cy="4.733" r="4.733" transform="translate(0.857 3.381)" fill="#e8e7e9"/>
      <circle id="椭圆_330" data-name="椭圆 330" cx="4.733" cy="4.733" r="4.733" transform="translate(0.857 3.381)" fill="url(#radial-gradient-4)"/>
      <g id="组_1101" data-name="组 1101" transform="translate(1.288 5.014)" opacity="0.5">
        <g id="组_1099" data-name="组 1099" transform="translate(0 0)">
          <path id="路径_1594" data-name="路径 1594" d="M6.315,4.139a3.084,3.084,0,0,1-2.309.874h0A3.034,3.034,0,0,1,1.3,3.1,5.673,5.673,0,0,1,1.3,0,4.189,4.189,0,0,0,4.188,7.224a4.469,4.469,0,0,0,3.051-1.27C7.486,5.69,6.645,4.486,6.315,4.139Z" fill="url(#radial-gradient-5)"/>
        </g>
        <path id="路径_1595" data-name="路径 1595" d="M.248,0A4.256,4.256,0,0,0,.066,2.177a3.513,3.513,0,0,0,3.3,2.672,1.452,1.452,0,0,0,.66-.083c.412-.165.561-1.055.132-1.3a.693.693,0,0,0-.363,0A3.678,3.678,0,0,1,.247,0Z" transform="translate(0.411 2.061)" fill="url(#radial-gradient-6)"/>
        <g id="组_1100" data-name="组 1100" transform="translate(0 0)">
          <path id="路径_1596" data-name="路径 1596" d="M6.315,4.139a3.084,3.084,0,0,1-2.309.874h0A3.034,3.034,0,0,1,1.3,3.1,5.673,5.673,0,0,1,1.3,0,4.189,4.189,0,0,0,4.188,7.224a4.469,4.469,0,0,0,3.051-1.27C7.486,5.69,6.645,4.486,6.315,4.139Z" fill="url(#radial-gradient-7)"/>
        </g>
        <path id="路径_1597" data-name="路径 1597" d="M.248,0A4.256,4.256,0,0,0,.066,2.177a3.513,3.513,0,0,0,3.3,2.672,1.452,1.452,0,0,0,.66-.083c.412-.165.561-1.055.132-1.3a.693.693,0,0,0-.363,0A3.678,3.678,0,0,1,.247,0Z" transform="translate(0.411 2.061)" fill="url(#radial-gradient-8)"/>
      </g>
      <path id="路径_1631" data-name="路径 1631" d="M11.248,0A8.379,8.379,0,0,1,5.591,2.259,8.246,8.246,0,0,1,0,.033,40.351,40.351,0,0,1,1.765,7.257h0a3.859,3.859,0,0,0,7.653,0h0A36.034,36.034,0,0,1,11.248,0Z" transform="translate(0 0)" fill="#c9c9c9"/>
      <path id="路径_1632" data-name="路径 1632" d="M11.248,0A8.379,8.379,0,0,1,5.591,2.259,8.246,8.246,0,0,1,0,.033,40.351,40.351,0,0,1,1.765,7.257h0a3.859,3.859,0,0,0,7.653,0h0A36.034,36.034,0,0,1,11.248,0Z" transform="translate(0 0)" fill="url(#linear-gradient-8)"/>
      <path id="路径_1633" data-name="路径 1633" d="M11.248,0A8.379,8.379,0,0,1,5.591,2.259,8.246,8.246,0,0,1,0,.033,40.351,40.351,0,0,1,1.765,7.257h0a3.859,3.859,0,0,0,7.653,0h0A36.034,36.034,0,0,1,11.248,0Z" transform="translate(0 0)" opacity="0.4" fill="url(#linear-gradient-9)"/>
      <path id="路径_1635" data-name="路径 1635" d="M3.3.66A8.508,8.508,0,0,1,0,0,29.565,29.565,0,0,1,.792,3.6h0a2.424,2.424,0,0,0,4.816,0h0A26.67,26.67,0,0,1,6.4,0,8.246,8.246,0,0,1,3.3.66Z" transform="translate(2.276 1.6)" fill="url(#radial-gradient-9)"/>
      <path id="路径_1637" data-name="路径 1637" d="M3.744,2.243A4.3,4.3,0,0,1,0,0,3.81,3.81,0,0,0,3.744,3.1,3.81,3.81,0,0,0,7.488,0,4.3,4.3,0,0,1,3.744,2.243Z" transform="translate(1.831 7.521)" fill="url(#linear-gradient-10)"/>
    </g>
  </g>
  <g id="组_1406" data-name="组 1406" transform="translate(0 -18)">
    <g transform="matrix(1, 0, 0, 1, 0, 18)" filter="url(#矩形_2560)">
      <rect id="矩形_2560-2" data-name="矩形 2560" width="12" height="8" rx="2" transform="translate(30 24)" fill="#c9c9c9"/>
    </g>
    <rect id="矩形_2561" data-name="矩形 2561" width="12" height="7" rx="2" transform="translate(30 43)" fill="#4a4a4a"/>
    <rect id="矩形_2562" data-name="矩形 2562" width="12" height="6" rx="2" transform="translate(30 43)" fill="url(#linear-gradient-11)"/>
    <g id="组_1403" data-name="组 1403" transform="translate(13.902 23.902)">
      <rect id="变色层" width="3.997" height="3.997" rx="1.998" transform="translate(20 20)" fill="lime"/>
      <rect id="矩形_2551" data-name="矩形 2551" width="3.997" height="3.997" rx="1.998" transform="translate(20 20)" fill="url(#radial-gradient-10)"/>
      <rect id="矩形_2552" data-name="矩形 2552" width="1.632" height="1.159" rx="0.579" transform="matrix(0.883, -0.469, 0.469, 0.883, 20.533, 21.042)" fill="url(#radial-gradient-11)"/>
      <rect id="矩形_2553" data-name="矩形 2553" width="0.686" height="0.331" rx="0.166" transform="translate(20.656 20.893) rotate(-11)" fill="url(#radial-gradient-11)"/>
      <rect id="矩形_2554" data-name="矩形 2554" width="0.449" height="0.213" rx="0.106" transform="translate(22.936 21.278) rotate(5)" fill="url(#radial-gradient-11)"/>
    </g>
  </g>
  <rect id="矩形_2699" data-name="矩形 2699" width="72" height="72" fill="none"/>
</svg>
