
<svg id="_06" data-name="06" xmlns="http://www.w3.org/2000/svg" xmlns:xlink="http://www.w3.org/1999/xlink" width="72" height="72" viewBox="0 0 72 72">
  <defs>
    <linearGradient id="linear-gradient" x1="0.5" x2="0.5" y2="1" gradientUnits="objectBoundingBox">
      <stop offset="0" stop-color="#f3f3f3"/>
      <stop offset="1" stop-color="#e6e6e6"/>
    </linearGradient>
    <linearGradient id="linear-gradient-2" y1="0.5" x2="1" y2="0.5" gradientUnits="objectBoundingBox">
      <stop offset="0" stop-color="#575757"/>
      <stop offset="1" stop-color="#707070"/>
    </linearGradient>
    <linearGradient id="linear-gradient-3" x1="0.499" y1="0.001" x2="0.499" y2="1.001" gradientUnits="objectBoundingBox">
      <stop offset="0" stop-color="#ccc"/>
      <stop offset="1" stop-color="#929292"/>
    </linearGradient>
    <linearGradient id="linear-gradient-4" x1="0.518" y1="0.173" x2="0.516" y2="1.234" gradientUnits="objectBoundingBox">
      <stop offset="0" stop-color="#707070"/>
      <stop offset="1" stop-color="#404040"/>
    </linearGradient>
  </defs>
  <path id="路径_362" data-name="路径 362" d="M60.821,64.6H13.179A5.128,5.128,0,0,1,8,59.421V11.779A5.128,5.128,0,0,1,13.179,6.6H60.821A5.128,5.128,0,0,1,66,11.779V59.421A5.194,5.194,0,0,1,60.821,64.6Z" transform="translate(-1 0.4)" fill="url(#linear-gradient)"/>
  <path id="路径_363" data-name="路径 363" d="M59.11,62.9H14.89A5.14,5.14,0,0,1,9.7,57.71V13.49A5.14,5.14,0,0,1,14.89,8.3H59.11a5.14,5.14,0,0,1,5.19,5.19V57.71A5.14,5.14,0,0,1,59.11,62.9Z" transform="translate(-1 0.4)" fill="url(#linear-gradient-2)"/>
  <path id="路径_364" data-name="路径 364" d="M58.6,62.4H15.393A5.143,5.143,0,0,1,10.2,57.207V13.893A5.143,5.143,0,0,1,15.393,8.7H58.707A5.143,5.143,0,0,1,63.9,13.893V57.207A5.3,5.3,0,0,1,58.6,62.4Z" transform="translate(-1 0.4)" fill="url(#linear-gradient-3)"/>
  <path id="路径_365" data-name="路径 365" d="M57.2,61H16.805A5.155,5.155,0,0,1,11.6,55.8V15.4a5.155,5.155,0,0,1,5.205-5.2H57.095A5.155,5.155,0,0,1,62.3,15.4V55.8A5.132,5.132,0,0,1,57.2,61Z" transform="translate(-1 0.4)" fill="url(#linear-gradient-4)"/>
  <path class="shapeChangeFill" d="M56.485,60.3H17.511A5.16,5.16,0,0,1,12.3,55.089V16.111A5.16,5.16,0,0,1,17.511,10.9H56.589A5.16,5.16,0,0,1,61.8,16.111V55.193A5.3,5.3,0,0,1,56.485,60.3Z" transform="translate(-1 0.4)" fill="#2d8cf0"/>
  <g id="组_710" data-name="组 710" transform="translate(11.3 11.3)" opacity="0.5">
    <path id="路径_367" data-name="路径 367" d="M56.7,10.9H17.3a4.9,4.9,0,0,0-5,4.8v1a4.906,4.906,0,0,1,5-4.8H56.7a4.9,4.9,0,0,1,5,4.8v-1A4.842,4.842,0,0,0,56.7,10.9Z" transform="translate(-12.3 -10.9)" fill="#fff"/>
  </g>
  <path id="路径_368" data-name="路径 368" d="M17.3,58.3H56.7a4.9,4.9,0,0,0,5-4.8v-1a4.906,4.906,0,0,1-5,4.8H17.3a4.9,4.9,0,0,1-5-4.8v1A4.842,4.842,0,0,0,17.3,58.3Z" transform="translate(-1 2.4)" opacity="0.5"/>
  <rect id="矩形_2656" data-name="矩形 2656" width="72" height="72" fill="none"/>
</svg>
