<svg id="_19" data-name="19" xmlns="http://www.w3.org/2000/svg" xmlns:xlink="http://www.w3.org/1999/xlink" width="72" height="72.561" viewBox="0 0 72 72.561">
  <defs>
    <linearGradient id="linear-gradient" x1="1" y1="1" x2="0.021" y2="1" gradientUnits="objectBoundingBox">
      <stop offset="0" stop-color="#fff"/>
      <stop offset="0.095" stop-color="#eee"/>
      <stop offset="0.293" stop-color="#fff"/>
      <stop offset="0.817" stop-color="#fff"/>
      <stop offset="0.96" stop-color="#eee"/>
      <stop offset="1" stop-color="#fff"/>
    </linearGradient>
    <linearGradient id="linear-gradient-2" x1="0.5" x2="0.5" y2="1" gradientUnits="objectBoundingBox">
      <stop offset="0" stop-color="#a4a4a4"/>
      <stop offset="0.901" stop-color="#f4f4f4"/>
      <stop offset="0.96" stop-color="#fff"/>
      <stop offset="1" stop-color="#fafafa"/>
    </linearGradient>
    <filter id="路径_455" x="21.25" y="13.061" width="31.169" height="59.5" filterUnits="userSpaceOnUse">
      <feOffset dy="2" input="SourceAlpha"/>
      <feGaussianBlur stdDeviation="1" result="blur"/>
      <feFlood flood-opacity="0.302"/>
      <feComposite operator="in" in2="blur"/>
      <feComposite in="SourceGraphic"/>
    </filter>
  </defs>
  <g id="组_995" data-name="组 995">
    <rect id="矩形_844" data-name="矩形 844" width="28" height="67" rx="5" transform="translate(23 2)" fill="#474747"/>
    <rect id="矩形_845" data-name="矩形 845" width="26" height="65" rx="4" transform="translate(24 3)" fill="url(#linear-gradient)"/>
    <g transform="matrix(1, 0, 0, 1, 0, 0)" filter="url(#路径_455)">
      <path id="路径_455-2" data-name="路径 455" d="M3.4,0H21.266a3.692,3.692,0,0,1,3.4,3.926V49.074A3.692,3.692,0,0,1,21.266,53H3.4A3.692,3.692,0,0,1,0,49.074V3.926A3.692,3.692,0,0,1,3.4,0Z" transform="translate(24.5 14.31)" stroke="#fafafa" stroke-width="0.5" fill="url(#linear-gradient-2)"/>
    </g>
    <g id="椭圆_59" data-name="椭圆 59" transform="translate(33 55)" fill="none" stroke="#515b6f" stroke-width="1.5">
      <circle cx="4" cy="4" r="4" stroke="none"/>
      <circle cx="4" cy="4" r="3.25" fill="none"/>
    </g>
    <rect id="矩形_847" data-name="矩形 847" width="10" height="2" rx="1" transform="translate(32 20)" fill="#515b6f"/>
  </g>
  <rect id="矩形_2684" data-name="矩形 2684" width="72" height="72" fill="none"/>
</svg>
