<svg id="_16-1" data-name="16-1" xmlns="http://www.w3.org/2000/svg" xmlns:xlink="http://www.w3.org/1999/xlink" width="72" height="72" viewBox="0 0 72 72">
  <defs>
    <linearGradient id="linear-gradient" x1="1" y1="1" x2="0.021" y2="1" gradientUnits="objectBoundingBox">
      <stop offset="0" stop-color="#fff"/>
      <stop offset="0.05" stop-color="#eee"/>
      <stop offset="0.153" stop-color="#fff"/>
      <stop offset="0.84" stop-color="#fff"/>
      <stop offset="0.979" stop-color="#eee"/>
      <stop offset="1" stop-color="#f5f5f5"/>
    </linearGradient>
    <filter id="路径_454" x="4.25" y="6.75" width="63.5" height="63.5" filterUnits="userSpaceOnUse">
      <feOffset dy="2.5" input="SourceAlpha"/>
      <feGaussianBlur stdDeviation="1.25" result="blur"/>
      <feFlood flood-opacity="0.302"/>
      <feComposite operator="in" in2="blur"/>
      <feComposite in="SourceGraphic"/>
    </filter>
    <linearGradient id="linear-gradient-2" x1="0.5" y1="1" x2="0.5" gradientUnits="objectBoundingBox">
      <stop offset="0" stop-color="#ccc"/>
      <stop offset="0.921" stop-color="#fff"/>
      <stop offset="0.99" stop-color="#f3f3f3"/>
      <stop offset="1" stop-color="#fafafa"/>
    </linearGradient>
  </defs>
  <g id="组_764" data-name="组 764" transform="translate(-2840 481)">
    <rect id="矩形_844" data-name="矩形 844" width="58" height="58" rx="10" transform="translate(2847 -474)" fill="#474747"/>
    <g transform="matrix(1, 0, 0, 1, 2840, -481)" filter="url(#路径_454)">
      <path id="路径_454-2" data-name="路径 454" d="M9,0H47a9,9,0,0,1,9,9V47a9,9,0,0,1-9,9H9a9,9,0,0,1-9-9V9A9,9,0,0,1,9,0Z" transform="translate(8 8)" fill="url(#linear-gradient)"/>
    </g>
    <rect id="矩形_846" data-name="矩形 846" width="54" height="43" rx="8" transform="translate(2849 -472)" stroke="#fff" stroke-width="0.5" fill="url(#linear-gradient-2)"/>
    <rect id="矩形_847" data-name="矩形 847" width="15" height="3" rx="1.5" transform="translate(2869 -425)" fill="#04cb2d"/>
  </g>
  <rect id="矩形_2679" data-name="矩形 2679" width="72" height="72" fill="none"/>
</svg>
