<svg id="_15-1" data-name="15-1" xmlns="http://www.w3.org/2000/svg" xmlns:xlink="http://www.w3.org/1999/xlink" width="72" height="72" viewBox="0 0 72 72">
  <defs>
    <linearGradient id="linear-gradient" x1="0.5" x2="0.5" y2="1" gradientUnits="objectBoundingBox">
      <stop offset="0" stop-color="#e6e6e6"/>
      <stop offset="1" stop-color="#fdfdfd"/>
    </linearGradient>
    <filter id="椭圆_46" x="6.239" y="7.239" width="61.522" height="61.522" filterUnits="userSpaceOnUse">
      <feOffset dy="2" input="SourceAlpha"/>
      <feGaussianBlur stdDeviation="1" result="blur"/>
      <feFlood flood-opacity="0.161"/>
      <feComposite operator="in" in2="blur"/>
      <feComposite in="SourceGraphic"/>
    </filter>
    <linearGradient id="linear-gradient-2" x1="1.195" y1="1" x2="0.095" y2="1" gradientUnits="objectBoundingBox">
      <stop offset="0" stop-color="#ccc"/>
      <stop offset="0.117" stop-color="#e0e0e0"/>
      <stop offset="0.485" stop-color="#cdcdcd"/>
      <stop offset="0.809" stop-color="#e1e1e1"/>
      <stop offset="1" stop-color="#ccc"/>
    </linearGradient>
    <filter id="减去_3" x="8.489" y="7.489" width="57.022" height="57.022" filterUnits="userSpaceOnUse">
      <feOffset input="SourceAlpha"/>
      <feGaussianBlur stdDeviation="0.25" result="blur-2"/>
      <feFlood flood-opacity="0.502"/>
      <feComposite operator="in" in2="blur-2"/>
      <feComposite in="SourceGraphic"/>
    </filter>
    <filter id="椭圆_53" x="10.045" y="9.25" width="54" height="54" filterUnits="userSpaceOnUse">
      <feOffset input="SourceAlpha"/>
      <feGaussianBlur stdDeviation="0.25" result="blur-3"/>
      <feFlood flood-opacity="0.502"/>
      <feComposite operator="in" in2="blur-3"/>
      <feComposite in="SourceGraphic"/>
    </filter>
    <linearGradient id="linear-gradient-3" x1="0.5" y1="0.224" x2="0.5" y2="1" gradientUnits="objectBoundingBox">
      <stop offset="0" stop-color="#dcdbdb"/>
      <stop offset="0.915" stop-color="#efefef"/>
      <stop offset="1" stop-color="#fdfdfd"/>
    </linearGradient>
    <linearGradient id="linear-gradient-5" x1="1.195" y1="1" x2="0.095" y2="1" gradientUnits="objectBoundingBox">
      <stop offset="0" stop-color="#e4e4e4"/>
      <stop offset="0.622" stop-color="#fff"/>
      <stop offset="1" stop-color="#eaeaea"/>
    </linearGradient>
  </defs>
  <g id="组_762" data-name="组 762" transform="translate(-4641 824)">
    <g id="椭圆_45" data-name="椭圆 45" transform="translate(4648 -818)" stroke="#fff" stroke-width="0.2" fill="url(#linear-gradient)">
      <circle cx="30" cy="30" r="30" stroke="none"/>
      <circle cx="30" cy="30" r="29.9" fill="none"/>
    </g>
    <g transform="matrix(1, 0, 0, 1, 4641, -824)" filter="url(#椭圆_46)">
      <circle id="椭圆_46-2" data-name="椭圆 46" cx="27.761" cy="27.761" r="27.761" transform="translate(9.24 8.24)" fill="#8f8f8f"/>
    </g>
    <g id="减去_4" data-name="减去 4" transform="translate(4654.183 -778.81)" fill="url(#linear-gradient-2)">
      <path d="M 23.81761932373047 15.83220291137695 C 18.66485977172852 15.83220291137695 13.7165699005127 14.27849292755127 9.507699966430664 11.33904361724854 C 7.479719638824463 9.922713279724121 5.675179958343506 8.2183837890625 4.144209861755371 6.273373126983643 C 3.164592981338501 5.028850555419922 2.308454513549805 3.700085401535034 1.584759950637817 2.302847623825073 C 7.6072678565979 7.866745948791504 15.56594562530518 11.01149368286133 23.81761932373047 11.01149368286133 C 32.06928634643555 11.01149368286133 40.0279541015625 7.866746425628662 46.05046081542969 2.302848339080811 C 45.32676315307617 3.700085878372192 44.47062683105469 5.028850555419922 43.49100875854492 6.273373126983643 C 41.96004104614258 8.2183837890625 40.15549850463867 9.922723770141602 38.12752914428711 11.3390531539917 C 33.91865921020508 14.27849292755127 28.97037887573242 15.83220291137695 23.81761932373047 15.83220291137695 Z" stroke="none"/>
      <path d="M 23.81761932373047 15.33220291137695 C 28.86746025085449 15.33220291137695 33.71675109863281 13.80964374542236 37.84123992919922 10.92912292480469 C 39.82888793945313 9.540953636169434 41.59756088256836 7.870493412017822 43.09812927246094 5.964123249053955 C 43.44617080688477 5.521960735321045 43.77830505371094 5.068962097167969 44.09410095214844 4.605876445770264 C 38.32169723510742 9.042543411254883 31.18456840515137 11.51149368286133 23.81761932373047 11.51149368286133 C 16.45066452026367 11.51149368286133 9.313534736633301 9.042543411254883 3.541122436523438 4.605876922607422 C 3.85692024230957 5.068963050842285 4.189054489135742 5.521960735321045 4.537099838256836 5.964123249053955 C 6.037649631500244 7.8704833984375 7.806329727172852 9.540953636169434 9.793990135192871 10.92912292480469 C 13.91847991943359 13.80964374542236 18.76776885986328 15.33220291137695 23.81761932373047 15.33220291137695 M 23.81761932373047 16.33220291137695 C 18.56193923950195 16.33220291137695 13.5146598815918 14.74735355377197 9.221409797668457 11.74897289276123 C 7.153139591217041 10.30450344085693 5.312729835510254 8.566303253173828 3.751319885253906 6.582633495330811 C 2.175879716873169 4.581153392791748 0.9137498140335083 2.366433382034302 -2.130126972588187e-07 3.363037194503704e-06 C 6.097599983215332 6.680033206939697 14.77851009368896 10.51149368286133 23.81761932373047 10.51149368286133 C 32.85628890991211 10.51149368286133 41.53746795654297 6.680203437805176 47.63521957397461 3.363037194503704e-06 C 46.72111129760742 2.367373466491699 45.4587287902832 4.581933498382568 43.8838996887207 6.582633495330811 C 42.3224983215332 8.566293716430664 40.48208999633789 10.30450344085693 38.413818359375 11.74897289276123 C 34.12057113647461 14.74735355377197 29.07328033447266 16.33220291137695 23.81761932373047 16.33220291137695 Z" stroke="none" fill="#ededed"/>
    </g>
    <g transform="matrix(1, 0, 0, 1, 4641, -824)" filter="url(#减去_3)">
      <path id="减去_3-2" data-name="减去 3" d="M27.761,55.522A27.769,27.769,0,0,1,16.955,2.182,27.768,27.768,0,0,1,38.567,53.341,27.587,27.587,0,0,1,27.761,55.522Zm0-55.082A27.321,27.321,0,1,0,55.082,27.761,27.352,27.352,0,0,0,27.761.441Z" transform="translate(9.24 8.24)" fill="#3e3e3e"/>
    </g>
    <g transform="matrix(1, 0, 0, 1, 4641, -824)" filter="url(#椭圆_53)">
      <g id="椭圆_53-2" data-name="椭圆 53" transform="translate(63.29 62.5) rotate(180)" fill="#fff" stroke="#f0f0f0" stroke-width="0.5">
        <ellipse cx="26.25" cy="26.25" rx="26.25" ry="26.25" stroke="none"/>
        <ellipse cx="26.25" cy="26.25" rx="26" ry="26" fill="none"/>
      </g>
    </g>
    <path id="交叉_3" data-name="交叉 3" d="M0,25.789a25.79,25.79,0,0,1,51.579,0Z" transform="translate(4652.255 -814)" fill="url(#linear-gradient-3)"/>
    <text id="OFF" transform="translate(4678.111 -799.626)" font-size="6" font-family="PingFang SC Medium, PingFang SC"><tspan x="-5.763" y="0">OFF</tspan></text>
    <text id="ON" transform="translate(4678.493 -772.916)" fill="#04cb2d" font-size="6" font-family="PingFang SC Medium, PingFang SC"><tspan x="-4.458" y="0">ON</tspan></text>
    <path id="路径_450" data-name="路径 450" d="M43.3,137.322a26.089,26.089,0,0,1-15.012-4.714,26.334,26.334,0,0,1-9.484-12.084,33.159,33.159,0,0,0,48.993,0,26.26,26.26,0,0,1-24.5,16.8Z" transform="translate(4721.349 -676.883) rotate(180)" fill="url(#linear-gradient-2)"/>
    <g id="路径_451" data-name="路径 451" transform="translate(4721.349 -676.883) rotate(180)" fill="none">
      <path d="M43.3,137.322a26.089,26.089,0,0,1-15.012-4.714,26.334,26.334,0,0,1-9.484-12.084,33.159,33.159,0,0,0,48.993,0,26.26,26.26,0,0,1-24.5,16.8Z" stroke="none"/>
      <path d="M 43.30401992797852 137.1221923828125 C 48.66835784912109 137.1221923828125 53.81995010375977 135.5046081542969 58.20185852050781 132.4443054199219 C 60.31295013427734 130.9699554443359 62.19147872924805 129.1957397460938 63.78525924682617 127.1709594726563 C 65.17089080810547 125.4106063842773 66.31900787353516 123.4887771606445 67.20680236816406 121.4454956054688 C 60.9458122253418 127.8708343505859 52.29570388793945 131.5355377197266 43.30401992797852 131.5355377197266 C 34.31233978271484 131.5355377197266 25.66222763061523 127.8708419799805 19.40122032165527 121.4454956054688 C 20.28902626037598 123.4888153076172 21.43714714050293 125.4106369018555 22.82276916503906 127.1709594726563 C 24.41650772094727 129.1956939697266 26.2950382232666 130.9699249267578 28.40617942810059 132.4443054199219 C 32.78807830810547 135.5046081542969 37.93967819213867 137.1221923828125 43.30401992797852 137.1221923828125 M 43.30401992797852 137.3221893310547 C 37.89849853515625 137.3221893310547 32.70730972290039 135.692138671875 28.29165840148926 132.6082763671875 C 26.16441917419434 131.1226348876953 24.27153778076172 129.3348846435547 22.66560935974121 127.2946624755859 C 21.04524803161621 125.2361221313477 19.74713897705078 122.958251953125 18.80733871459961 120.5243453979492 C 25.07877922058105 127.3948211669922 34.00719833374023 131.3355407714844 43.30401992797852 131.3355407714844 C 52.60038757324219 131.3355407714844 61.52908706665039 127.3950119018555 67.80068206787109 120.5243606567383 C 66.86051177978516 122.9592208862305 65.56214141845703 125.2369079589844 63.94241714477539 127.2946624755859 C 62.33648681640625 129.3348693847656 60.44361877441406 131.1226348876953 58.31636810302734 132.6082763671875 C 53.90071868896484 135.692138671875 48.70952987670898 137.3221893310547 43.30401992797852 137.3221893310547 Z" stroke="none" fill="#ededed"/>
    </g>
    <path id="路径_452" data-name="路径 452" d="M43.3,137.322a26.089,26.089,0,0,1-15.012-4.714,26.334,26.334,0,0,1-9.484-12.084,33.159,33.159,0,0,0,48.993,0,26.26,26.26,0,0,1-24.5,16.8Z" transform="translate(4721.349 -676.883) rotate(180)" fill="url(#linear-gradient-5)"/>
    <g id="路径_453" data-name="路径 453" transform="translate(4721.349 -676.883) rotate(180)" fill="none">
      <path d="M43.3,137.322a26.089,26.089,0,0,1-15.012-4.714,26.334,26.334,0,0,1-9.484-12.084,33.159,33.159,0,0,0,48.993,0,26.26,26.26,0,0,1-24.5,16.8Z" stroke="none"/>
      <path d="M 43.30401992797852 137.0221862792969 C 48.64776992797852 137.0221862792969 53.77956008911133 135.4108276367188 58.14459991455078 132.3623199462891 C 60.24761962890625 130.8936004638672 62.11897659301758 129.1261596679688 63.70668792724609 127.1091079711914 C 64.97329711914063 125.4999618530273 66.04072570800781 123.7552795410156 66.89131927490234 121.9060516357422 C 60.64470672607422 128.1083831787109 52.13887023925781 131.6355438232422 43.30401992797852 131.6355438232422 C 34.46916961669922 131.6355438232422 25.96332550048828 128.1083831787109 19.71670150756836 121.9060440063477 C 20.56730270385742 123.7552871704102 21.63473892211914 125.4999923706055 22.90133857727051 127.1091079711914 C 24.48899841308594 129.1261138916016 26.36035919189453 130.8935546875 28.46342849731445 132.3623199462891 C 32.82846832275391 135.4108276367188 37.96025848388672 137.0221862792969 43.30401992797852 137.0221862792969 M 43.30401992797852 137.3221893310547 C 37.89849853515625 137.3221893310547 32.70730972290039 135.692138671875 28.29165840148926 132.6082763671875 C 26.16441917419434 131.1226348876953 24.27153778076172 129.3348846435547 22.66560935974121 127.2946624755859 C 21.04524803161621 125.2361221313477 19.74713897705078 122.958251953125 18.80733871459961 120.5243453979492 C 25.07877922058105 127.3948211669922 34.00719833374023 131.3355407714844 43.30401992797852 131.3355407714844 C 52.60038757324219 131.3355407714844 61.52908706665039 127.3950119018555 67.80068206787109 120.5243606567383 C 66.86051177978516 122.9592208862305 65.56214141845703 125.2369079589844 63.94241714477539 127.2946624755859 C 62.33648681640625 129.3348693847656 60.44361877441406 131.1226348876953 58.31636810302734 132.6082763671875 C 53.90071868896484 135.692138671875 48.70952987670898 137.3221893310547 43.30401992797852 137.3221893310547 Z" stroke="none" fill="#ededed"/>
    </g>
  </g>
  <rect id="矩形_2677" data-name="矩形 2677" width="72" height="72" fill="none"/>
</svg>
