<svg id="_00" data-name="00" xmlns="http://www.w3.org/2000/svg" width="72" height="72" viewBox="0 0 72 72">
  <path class="shapeChangeFill" d="M30,0A30,30,0,1,1,0,30,30,30,0,0,1,30,0Z" transform="translate(6 6)" fill="#dfdfdf"/>
  <rect id="矩形_2646" data-name="矩形 2646" width="72" height="72" fill="none"/>
  <path id="减去_36" data-name="减去 36" d="M-2972-499a29.814,29.814,0,0,1-11.678-2.358,29.9,29.9,0,0,1-9.536-6.429,29.9,29.9,0,0,1-6.429-9.536A29.817,29.817,0,0,1-3002-529a29.815,29.815,0,0,1,2.357-11.677,29.9,29.9,0,0,1,6.429-9.536,29.9,29.9,0,0,1,9.536-6.429A29.814,29.814,0,0,1-2972-559a29.81,29.81,0,0,1,11.677,2.358,29.9,29.9,0,0,1,9.536,6.429,29.9,29.9,0,0,1,6.429,9.536A29.815,29.815,0,0,1-2942-529a29.817,29.817,0,0,1-2.357,11.678,29.9,29.9,0,0,1-6.429,9.536,29.9,29.9,0,0,1-9.536,6.429A29.811,29.811,0,0,1-2972-499Zm0-55a25.029,25.029,0,0,0-25,25,25.029,25.029,0,0,0,25,25,25.028,25.028,0,0,0,25-25A25.028,25.028,0,0,0-2972-554Z" transform="translate(3008 565)" fill="#f3f3f3"/>
  <rect id="矩形_2712" data-name="矩形 2712" width="72" height="72" fill="none"/>
</svg>