<svg id="_33" data-name="33" xmlns="http://www.w3.org/2000/svg" xmlns:xlink="http://www.w3.org/1999/xlink" width="72" height="72" viewBox="0 0 72 72">
  <defs>
    <linearGradient id="linear-gradient" x1="0.5" y1="1" x2="0.5" gradientUnits="objectBoundingBox">
      <stop offset="0" stop-opacity="0.8"/>
      <stop offset="1" stop-opacity="0.102"/>
    </linearGradient>
    <linearGradient id="linear-gradient-2" x1="0.501" y1="0.822" x2="0.501" y2="0.179" gradientUnits="objectBoundingBox">
      <stop offset="0" stop-opacity="0.4"/>
      <stop offset="0.12" stop-opacity="0.31"/>
      <stop offset="1" stop-opacity="0.102"/>
    </linearGradient>
    <linearGradient id="linear-gradient-3" x1="0.483" y1="1" x2="0.483" gradientUnits="objectBoundingBox">
      <stop offset="0" stop-opacity="0.502"/>
      <stop offset="0.99" stop-opacity="0"/>
    </linearGradient>
    <linearGradient id="linear-gradient-4" x1="0.52" y1="0.986" x2="0.52" y2="0" xlink:href="#linear-gradient-3"/>
    <linearGradient id="linear-gradient-5" x1="0.53" y1="0.986" x2="0.53" y2="0" xlink:href="#linear-gradient-3"/>
    <linearGradient id="linear-gradient-6" x1="0.501" y1="0.821" x2="0.501" y2="0.179" xlink:href="#linear-gradient-2"/>
    <linearGradient id="linear-gradient-7" x1="0.496" x2="0.496" y2="1" gradientUnits="objectBoundingBox">
      <stop offset="0.01" stop-opacity="0"/>
      <stop offset="1" stop-opacity="0.502"/>
    </linearGradient>
    <linearGradient id="linear-gradient-8" x1="0.513" y1="0" x2="0.513" y2="1" xlink:href="#linear-gradient-7"/>
    <linearGradient id="linear-gradient-9" x1="-0.108" y1="0.165" x2="1.108" y2="0.835" gradientUnits="objectBoundingBox">
      <stop offset="0" stop-opacity="0.251"/>
      <stop offset="0.04" stop-color="#231815" stop-opacity="0"/>
      <stop offset="1" stop-opacity="0.6"/>
    </linearGradient>
    <linearGradient id="linear-gradient-10" x1="0.5" y1="1" x2="0.5" y2="0" xlink:href="#linear-gradient-3"/>
    <filter id="路径_1645" x="20.486" y="20.059" width="31.046" height="34.814" filterUnits="userSpaceOnUse">
      <feOffset dy="1" input="SourceAlpha"/>
      <feGaussianBlur stdDeviation="1" result="blur"/>
      <feFlood/>
      <feComposite operator="in" in2="blur"/>
      <feComposite in="SourceGraphic"/>
    </filter>
    <linearGradient id="linear-gradient-11" y1="0.499" x2="1" y2="0.499" gradientUnits="objectBoundingBox">
      <stop offset="0.01" stop-color="#fff" stop-opacity="0.6"/>
      <stop offset="1" stop-color="#fff" stop-opacity="0.349"/>
    </linearGradient>
    <linearGradient id="linear-gradient-12" x1="0.885" y1="0.843" x2="0.108" y2="0.157" gradientUnits="objectBoundingBox">
      <stop offset="0" stop-color="#fff" stop-opacity="0.149"/>
      <stop offset="0.99" stop-color="#fff" stop-opacity="0.4"/>
    </linearGradient>
    <clipPath id="clip-path">
      <path id="路径_1649" data-name="路径 1649" d="M84.9,519.692a1.649,1.649,0,0,1,.825.231l10.725,6.2a1.65,1.65,0,0,1,.825,1.419v12.408a1.65,1.65,0,0,1-.825,1.419l-10.741,6.2a1.65,1.65,0,0,1-1.65,0l-10.708-6.2a1.65,1.65,0,0,1-.825-1.419V527.546a1.65,1.65,0,0,1,.825-1.419l10.741-6.2a1.65,1.65,0,0,1,.825-.231m0-.132a1.65,1.65,0,0,0-.891.248l-10.675,6.2a1.765,1.765,0,0,0-.891,1.534v12.408a1.782,1.782,0,0,0,.891,1.534l10.741,6.2a1.831,1.831,0,0,0,1.782,0l10.741-6.2a1.782,1.782,0,0,0,.891-1.534V527.546a1.766,1.766,0,0,0-.891-1.535l-10.741-6.2a1.65,1.65,0,0,0-.891-.248Z" transform="translate(-72.46 -519.56)" fill="none"/>
    </clipPath>
    <linearGradient id="linear-gradient-13" x1="0.5" y1="1" x2="0.5" y2="0" xlink:href="#linear-gradient-7"/>
    <linearGradient id="linear-gradient-14" x1="0.5" y1="1" x2="0.5" y2="0" xlink:href="#linear-gradient-12"/>
    <linearGradient id="linear-gradient-15" x1="0.853" y1="0.854" x2="0.147" y2="0.148" gradientUnits="objectBoundingBox">
      <stop offset="0" stop-opacity="0.4"/>
      <stop offset="1" stop-color="#231815" stop-opacity="0.749"/>
    </linearGradient>
    <radialGradient id="radial-gradient" cx="0.5" cy="0.5" r="0.5" gradientTransform="translate(0)" gradientUnits="objectBoundingBox">
      <stop offset="0" stop-opacity="0"/>
      <stop offset="0.85" stop-opacity="0"/>
      <stop offset="1" stop-opacity="0.451"/>
    </radialGradient>
    <filter id="联合_2" x="23.078" y="29.579" width="25.863" height="37.108" filterUnits="userSpaceOnUse">
      <feOffset dy="3" input="SourceAlpha"/>
      <feGaussianBlur stdDeviation="1.5" result="blur-2"/>
      <feFlood flood-opacity="0.702"/>
      <feComposite operator="in" in2="blur-2"/>
      <feComposite in="SourceGraphic"/>
    </filter>
    <radialGradient id="radial-gradient-2" cx="0.443" cy="0.439" r="0.5" gradientUnits="objectBoundingBox">
      <stop offset="0" stop-color="#fff" stop-opacity="0.302"/>
      <stop offset="0.09" stop-color="#dadada" stop-opacity="0.302"/>
      <stop offset="0.25" stop-color="#787878" stop-opacity="0.302"/>
      <stop offset="0.41" stop-opacity="0.302"/>
      <stop offset="1" stop-opacity="0.8"/>
    </radialGradient>
    <radialGradient id="radial-gradient-3" cx="1.178" cy="1.16" r="0.924" gradientTransform="translate(-589.658 120.558) rotate(-90) scale(1 0.992)" gradientUnits="objectBoundingBox">
      <stop offset="0" stop-color="#beb7b7"/>
      <stop offset="0.13" stop-color="#b7b1b1"/>
      <stop offset="0.31" stop-color="#a39f9f"/>
      <stop offset="0.53" stop-color="#838282"/>
      <stop offset="0.78" stop-color="#57595b"/>
      <stop offset="1" stop-color="#282f31"/>
    </radialGradient>
    <radialGradient id="radial-gradient-4" cx="2.162" cy="0.968" r="0.482" gradientTransform="translate(-972.411 142.162) rotate(-90) scale(1 1.1)" gradientUnits="objectBoundingBox">
      <stop offset="0" stop-color="#beb7b7"/>
      <stop offset="0.16" stop-color="#bab3b3"/>
      <stop offset="0.33" stop-color="#aea8a9"/>
      <stop offset="0.49" stop-color="#9a9696"/>
      <stop offset="0.66" stop-color="#7d7c7d"/>
      <stop offset="0.82" stop-color="#595b5d"/>
      <stop offset="0.98" stop-color="#2d3335"/>
      <stop offset="1" stop-color="#282f31"/>
    </radialGradient>
    <radialGradient id="radial-gradient-5" cx="1.178" cy="1.16" r="0.924" gradientTransform="translate(-589.658 120.558) rotate(-90) scale(1 0.992)" gradientUnits="objectBoundingBox">
      <stop offset="0" stop-color="#beb7b7"/>
      <stop offset="0.11" stop-color="#b7b0b0"/>
      <stop offset="0.26" stop-color="#a39d9d"/>
      <stop offset="0.45" stop-color="#837e7e"/>
      <stop offset="0.66" stop-color="#565353"/>
      <stop offset="0.89" stop-color="#1e1d1d"/>
      <stop offset="1"/>
    </radialGradient>
    <radialGradient id="radial-gradient-6" cx="2.162" cy="0.968" r="0.482" gradientTransform="translate(-972.411 142.162) rotate(-90) scale(1 1.1)" gradientUnits="objectBoundingBox">
      <stop offset="0" stop-color="#beb7b7"/>
      <stop offset="0.14" stop-color="#bab3b3"/>
      <stop offset="0.29" stop-color="#aea7a7"/>
      <stop offset="0.44" stop-color="#9a9494"/>
      <stop offset="0.58" stop-color="#7d7979"/>
      <stop offset="0.73" stop-color="#595555"/>
      <stop offset="0.87" stop-color="#2d2b2b"/>
      <stop offset="1"/>
    </radialGradient>
    <linearGradient id="linear-gradient-16" x1="0.5" y1="0.999" x2="0.5" gradientUnits="objectBoundingBox">
      <stop offset="0"/>
      <stop offset="0.21" stop-color="#231815" stop-opacity="0.749"/>
      <stop offset="1" stop-opacity="0.251"/>
    </linearGradient>
    <linearGradient id="linear-gradient-17" x1="0.5" y1="0.999" x2="0.5" gradientUnits="objectBoundingBox">
      <stop offset="0" stop-color="#656565"/>
      <stop offset="1" stop-color="#fff"/>
    </linearGradient>
    <radialGradient id="radial-gradient-7" cx="0.428" cy="-0.276" r="0.959" gradientTransform="translate(2.883) scale(0.897 1)" gradientUnits="objectBoundingBox">
      <stop offset="0" stop-color="#fff" stop-opacity="0.8"/>
      <stop offset="0.75" stop-color="#fff" stop-opacity="0"/>
      <stop offset="1" stop-opacity="0"/>
    </radialGradient>
    <linearGradient id="linear-gradient-18" x1="0.5" x2="0.5" y2="1" gradientUnits="objectBoundingBox">
      <stop offset="0" stop-color="#ededed"/>
      <stop offset="1" stop-color="#707070"/>
    </linearGradient>
    <radialGradient id="radial-gradient-8" cx="0.5" cy="0.5" r="0.435" gradientTransform="translate(0 -0.074) scale(1 1.148)" gradientUnits="objectBoundingBox">
      <stop offset="0" stop-color="#fff" stop-opacity="0.91"/>
      <stop offset="0.491" stop-color="#fff" stop-opacity="0.69"/>
      <stop offset="1" stop-color="#fff" stop-opacity="0.09"/>
    </radialGradient>
    <radialGradient id="radial-gradient-9" cx="0.5" cy="0.5" r="0.393" gradientTransform="translate(0 -0.147) scale(1 1.294)" gradientUnits="objectBoundingBox">
      <stop offset="0" stop-color="#fff" stop-opacity="0.89"/>
      <stop offset="0.402" stop-color="#fff" stop-opacity="0.718"/>
      <stop offset="1" stop-color="#fff" stop-opacity="0.11"/>
    </radialGradient>
    <radialGradient id="radial-gradient-10" cx="0.5" cy="0.5" r="0.5" gradientUnits="objectBoundingBox">
      <stop offset="0" stop-color="#dadada" stop-opacity="0"/>
      <stop offset="0.736" stop-color="#c3c3c3" stop-opacity="0.078"/>
      <stop offset="1" stop-opacity="0.749"/>
    </radialGradient>
  </defs>
  <g id="组_1371" data-name="组 1371" transform="translate(-1860 -1055)">
    <g id="组_1367" data-name="组 1367" transform="translate(1879.51 1061.51)">
      <path id="路径_1582" data-name="路径 1582" d="M412.985,539.944a20.252,20.252,0,0,0-5.311-13.887V511.791a1.781,1.781,0,0,0-1.781-1.781h-18.8a1.781,1.781,0,0,0-1.781,1.781v14.266a20.814,20.814,0,0,0,0,27.773V568.1a1.781,1.781,0,0,0,1.781,1.781h18.8a1.781,1.781,0,0,0,1.781-1.781V553.83A20.3,20.3,0,0,0,412.985,539.944Z" transform="translate(-380 -510.01)" fill="#fff"/>
      <path id="路径_1583" data-name="路径 1583" d="M412.985,539.944a20.252,20.252,0,0,0-5.311-13.887V511.791a1.781,1.781,0,0,0-1.781-1.781h-18.8a1.781,1.781,0,0,0-1.781,1.781v14.266a20.814,20.814,0,0,0,0,27.773V568.1a1.781,1.781,0,0,0,1.781,1.781h18.8a1.781,1.781,0,0,0,1.781-1.781V553.83A20.3,20.3,0,0,0,412.985,539.944Z" transform="translate(-380 -510.01)" fill="url(#linear-gradient)"/>
      <path id="路径_1584" data-name="路径 1584" d="M407.064,525.882V511.616a1.336,1.336,0,0,0-1.336-1.336h-18.8a1.336,1.336,0,0,0-1.336,1.336l-.115,14.579a19.658,19.658,0,0,0-5.2,13.573,20.6,20.6,0,0,0,5.311,13.887v14.266a1.352,1.352,0,0,0,1.336,1.336h18.8a1.336,1.336,0,0,0,1.336-1.336l.132-14.579a19.791,19.791,0,0,0,5.179-13.573,20.6,20.6,0,0,0-5.311-13.887Zm0,27.345-.165,14.695a1.171,1.171,0,0,1-1.171,1.154h-18.8a1.154,1.154,0,0,1-1.154-1.155V553.655a20.715,20.715,0,0,1-5.327-13.887,19.494,19.494,0,0,1,5.162-13.458l.165-14.695a1.155,1.155,0,0,1,1.155-1.155h18.8a1.154,1.154,0,0,1,1.171,1.155v14.266a20.764,20.764,0,0,1,5.311,13.887A19.61,19.61,0,0,1,407.064,553.226Z" transform="translate(-379.82 -509.835)"/>
      <rect id="矩形_2227" data-name="矩形 2227" width="19.692" height="12.782" rx="0.15" transform="translate(6.662 45.75)" fill="#d71516"/>
      <rect id="矩形_2228" data-name="矩形 2228" width="12.419" height="19.346" rx="0.13" transform="translate(26.19 45.915) rotate(90)" fill="url(#linear-gradient-2)"/>
      <path id="路径_1598" data-name="路径 1598" d="M386,542.766c0-1.864.99-2.936,2.441-2.936s2.441,1.089,2.441,2.936-1.006,2.969-2.441,2.969S386,544.613,386,542.766Zm3.76,0c0-1.22-.511-1.963-1.319-1.963s-1.336.742-1.336,1.963.511,2,1.336,2,1.237-.792,1.237-2Z" transform="translate(-376.105 -490.649)" fill="#fff"/>
      <path id="路径_1599" data-name="路径 1599" d="M389.516,539.9h3.3v.94h-2.276v1.484h1.946v1.039h-1.946v2.309H389.45Z" transform="translate(-373.865 -490.604)" fill="#fff"/>
      <path id="路径_1600" data-name="路径 1600" d="M392,539.9h3.3v.94h-2.144v1.484H395.1v1.039h-1.946v2.309H392Z" transform="translate(-372.21 -490.604)" fill="#fff"/>
      <path id="路径_1601" data-name="路径 1601" d="M386,542.766c0-1.864.99-2.936,2.441-2.936s2.441,1.089,2.441,2.936-1.006,2.969-2.441,2.969S386,544.613,386,542.766Zm3.76,0c0-1.22-.511-1.963-1.319-1.963s-1.336.742-1.336,1.963.511,2,1.336,2,1.237-.792,1.237-2Z" transform="translate(-376.105 -490.649)" fill="url(#linear-gradient-3)"/>
      <path id="路径_1602" data-name="路径 1602" d="M389.516,539.9h3.3v.94h-2.276v1.484h1.946v1.039h-1.946v2.309H389.45Z" transform="translate(-373.865 -490.604)" fill="url(#linear-gradient-4)"/>
      <path id="路径_1603" data-name="路径 1603" d="M392,539.9h3.3v.94h-2.144v1.484H395.1v1.039h-1.946v2.309H392Z" transform="translate(-372.21 -490.604)" fill="url(#linear-gradient-5)"/>
      <g id="组_1102" data-name="组 1102" transform="translate(9.812 49.18)" opacity="0.5">
        <path id="路径_1604" data-name="路径 1604" d="M387.949,543.686c.808,0,1.319-.775,1.319-2h0c0,1.171-.528,1.93-1.319,1.93s-1.3-.759-1.319-1.93h0C386.614,542.91,387.141,543.686,387.949,543.686Z" transform="translate(-385.509 -538.622)"/>
        <path id="路径_1605" data-name="路径 1605" d="M388.391,539.83c-1.451,0-2.441,1.072-2.441,2.936h0c0-1.814,1.006-2.87,2.441-2.87s2.408,1.072,2.424,2.87h0C390.832,540.918,389.826,539.83,388.391,539.83Z" transform="translate(-385.95 -539.83)"/>
      </g>
      <g id="组_1103" data-name="组 1103" transform="translate(9.565 48.933)" opacity="0.5">
        <path id="路径_1606" data-name="路径 1606" d="M388,543.913c.891,0,1.451-.858,1.451-2.194h0c0,1.286-.577,2.111-1.451,2.111s-1.435-.825-1.451-2.111h0C386.534,543.056,387.111,543.913,388,543.913Z" transform="translate(-385.313 -538.355)" fill="#fff"/>
        <path id="路径_1607" data-name="路径 1607" d="M388.488,539.68c-1.649,0-2.688,1.187-2.688,3.3h0c0-2,1.105-3.15,2.672-3.15s2.639,1.171,2.672,3.15h0C391.16,540.867,390.072,539.68,388.488,539.68Z" transform="translate(-385.8 -539.68)" fill="#fff"/>
      </g>
      <path id="路径_1608" data-name="路径 1608" d="M388.4,539.83c1.435,0,2.441,1.088,2.441,2.936s-1.006,2.969-2.441,2.969-2.441-1.122-2.441-2.969.99-2.936,2.441-2.936m0,4.948c.808,0,1.319-.792,1.319-2s-.511-1.963-1.319-1.963-1.336.742-1.336,1.963.511,2,1.336,2m0-4.948c-1.5,0-2.457,1.154-2.457,2.952s.957,2.985,2.457,2.985,2.457-1.171,2.457-2.985S389.882,539.83,388.4,539.83Zm0,4.948c-.808,0-1.319-.775-1.319-1.979s.511-1.946,1.319-1.946,1.3.742,1.3,1.946S389.189,544.778,388.4,544.778Z" transform="translate(-376.144 -490.65)"/>
      <path id="路径_1609" data-name="路径 1609" d="M392.854,539.9v.94h-2.276v1.484h1.946v1.039h-1.946v2.309H389.49V539.9h3.3m0,0h-3.3v5.69h1.121v-2.227h1.946v-.957h-1.946v-1.451h2.276v-.94Z" transform="translate(-373.839 -490.604)"/>
      <path id="路径_1610" data-name="路径 1610" d="M395.43,539.9v.94h-2.276v1.484H395.1v1.039h-1.946v2.309H392V539.9h3.3m0,0H392v5.69h1.121v-2.227h1.946v-.957h-1.946v-1.451H395.4v-.94Z" transform="translate(-372.21 -490.604)"/>
      <rect id="矩形_2229" data-name="矩形 2229" width="19.692" height="12.782" rx="0.15" transform="translate(6.662 1.336)" fill="#1690fc"/>
      <rect id="矩形_2230" data-name="矩形 2230" width="12.419" height="19.346" rx="0.13" transform="translate(26.173 1.501) rotate(90)" fill="url(#linear-gradient-6)"/>
      <path id="路径_1611" data-name="路径 1611" d="M391.6,515.015l-.66-1.435h0v.214h0l.66,1.418,1.913,3.513h1.352v-.2h-1.352Z" transform="translate(-372.898 -507.692)" opacity="0.5"/>
      <path id="路径_1612" data-name="路径 1612" d="M389.486,518.1c-1.649,0-2.886-1.22-2.886-3.3v-.1a2.9,2.9,0,1,0,5.756,0v.1a2.936,2.936,0,0,1-2.87,3.3Z" transform="translate(-375.732 -506.965)" opacity="0.5"/>
      <path id="路径_1613" data-name="路径 1613" d="M388.95,513.25c.973,0,1.649.874,1.649,2.259v.1c0-1.319-.627-2.161-1.649-2.161s-1.517.841-1.55,2.161v-.1C387.384,514.124,387.994,513.25,388.95,513.25Z" transform="translate(-375.196 -507.906)" opacity="0.5"/>
      <rect id="矩形_2231" data-name="矩形 2231" width="1.253" height="0.214" transform="translate(17.316 10.835)" opacity="0.5"/>
      <path id="路径_1614" data-name="路径 1614" d="M386.76,515.868c0-1.9,1.072-3.018,2.606-3.018a2.655,2.655,0,0,1,2.622,3.018c0,1.9-1.072,3.068-2.622,3.068S386.76,517.765,386.76,515.868Zm4.041,0c0-1.253-.561-2.012-1.435-2.012s-1.418.759-1.418,2.012.561,2.045,1.418,2.045,1.435-.792,1.435-2.045Z" transform="translate(-375.612 -508.166)" fill="#fff"/>
      <path id="路径_1615" data-name="路径 1615" d="M390.556,512.92h1.2l1.649,3.117.577,1.27h0a20.146,20.146,0,0,1-.165-2.045V512.92h1.121v5.855h-1.187l-1.649-3.134-.594-1.253h0c0,.627.132,1.369.132,2.029v2.358H390.54Z" transform="translate(-373.158 -508.121)" fill="#fff"/>
      <path id="路径_1616" data-name="路径 1616" d="M386.76,515.868c0-1.9,1.072-3.018,2.606-3.018a2.655,2.655,0,0,1,2.622,3.018c0,1.9-1.072,3.068-2.622,3.068S386.76,517.765,386.76,515.868Zm4.041,0c0-1.253-.561-2.012-1.435-2.012s-1.418.759-1.418,2.012.561,2.045,1.418,2.045,1.435-.792,1.435-2.045Z" transform="translate(-375.612 -508.166)" fill="url(#linear-gradient-7)"/>
      <path id="路径_1617" data-name="路径 1617" d="M390.556,512.92h1.2l1.649,3.117.577,1.27h0a20.146,20.146,0,0,1-.165-2.045V512.92h1.121v5.855h-1.187l-1.649-3.134-.594-1.253h0c0,.627.132,1.369.132,2.029v2.358H390.54Z" transform="translate(-373.158 -508.121)" fill="url(#linear-gradient-8)"/>
      <g id="组_1104" data-name="组 1104" transform="translate(17.448 4.799)" opacity="0.5">
        <path id="路径_1618" data-name="路径 1618" d="M391.14,513.946c0,.627.132,1.369.132,2.045v-.264a9.84,9.84,0,0,0-.115-1.847Z" transform="translate(-390.216 -512.297)"/>
        <path id="路径_1619" data-name="路径 1619" d="M393.433,516.218l.577,1.27h0a.745.745,0,0,1,0-.181h0l-.577-1.27-1.649-3.117h-1.2v.132h1.2Z" transform="translate(-390.58 -512.92)"/>
        <rect id="矩形_2232" data-name="矩形 2232" width="1.105" height="0.181" transform="translate(3.315 0)"/>
      </g>
      <path id="路径_1620" data-name="路径 1620" d="M391.16,513.87c0,.709.148,1.55.148,2.309v-.214C391.308,515.272,391.226,514.53,391.16,513.87Z" transform="translate(-372.755 -507.504)" fill="#fff"/>
      <g id="组_1105" data-name="组 1105" transform="translate(17.316 4.502)" opacity="0.5">
        <path id="路径_1621" data-name="路径 1621" d="M393.766,516.467l.66,1.435h0v-.214h0l-.66-1.418-1.93-3.529H390.5v.214h1.336Z" transform="translate(-390.5 -512.74)" fill="#fff"/>
        <rect id="矩形_2233" data-name="矩形 2233" width="1.253" height="0.214" transform="translate(3.397 0)" fill="#fff"/>
      </g>
      <g id="组_1106" data-name="组 1106" transform="translate(11.148 4.684)" opacity="0.5">
        <path id="路径_1622" data-name="路径 1622" d="M389.366,512.85c-1.534,0-2.606,1.121-2.606,3.018v.1c0-1.847,1.072-2.919,2.589-2.919a2.606,2.606,0,0,1,2.606,2.919v-.1a2.655,2.655,0,0,0-2.589-3.018Z" transform="translate(-386.76 -512.85)"/>
        <path id="路径_1623" data-name="路径 1623" d="M388.886,516.8c.874,0,1.435-.792,1.435-2.045h0c0,1.187-.561,1.946-1.418,1.946s-1.369-.759-1.4-1.946h0C387.467,516.063,388.028,516.8,388.886,516.8Z" transform="translate(-386.28 -511.61)"/>
      </g>
      <g id="组_1107" data-name="组 1107" transform="translate(10.868 4.42)" opacity="0.5">
        <path id="路径_1624" data-name="路径 1624" d="M389.476,512.69c-1.649,0-2.886,1.22-2.886,3.3v.1c0-2.045,1.2-3.3,2.87-3.3a2.9,2.9,0,0,1,2.886,3.3v-.1a2.936,2.936,0,0,0-2.87-3.3Z" transform="translate(-386.59 -512.69)" fill="#fff"/>
        <path id="路径_1625" data-name="路径 1625" d="M388.95,517.128c.973,0,1.649-.891,1.649-2.259v-.1c0,1.3-.627,2.161-1.649,2.161s-1.517-.858-1.55-2.161v.1C387.384,516.238,387.994,517.128,388.95,517.128Z" transform="translate(-386.064 -511.339)" fill="#fff"/>
      </g>
      <path id="路径_1626" data-name="路径 1626" d="M389.382,512.857A2.655,2.655,0,0,1,392,515.875c0,1.9-1.072,3.068-2.622,3.068s-2.606-1.171-2.606-3.068,1.072-3.018,2.606-3.018m0,5.063c.874,0,1.435-.792,1.435-2.045s-.561-2.012-1.435-2.012-1.418.759-1.418,2.012.561,2.045,1.418,2.045m0-5.08a2.672,2.672,0,0,0-2.622,3.035c0,1.864,1.023,3.084,2.622,3.084s2.639-1.22,2.639-3.084a2.688,2.688,0,0,0-2.639-3.035Zm0,5.063c-.841,0-1.4-.792-1.4-2.029s.544-2,1.4-2,1.418.775,1.418,2S390.24,517.9,389.382,517.9Z" transform="translate(-375.628 -508.173)"/>
      <path id="路径_1627" data-name="路径 1627" d="M395.03,512.952v5.855h-1.187l-1.649-3.134-.594-1.253h0c0,.627.132,1.369.132,2.029v2.358h-1.105v-5.855h1.2l1.649,3.117.577,1.27h0a20.15,20.15,0,0,1-.165-2.045v-2.342h1.121m0,0h-1.138v2.342a17.678,17.678,0,0,0,.148,1.9v.132h0l-.577-1.253-1.649-3.117H390.56v5.855H391.7v-2.424a9.414,9.414,0,0,0-.1-1.649v-.379h0l.577,1.237,1.649,3.134h1.22V512.87Z" transform="translate(-373.145 -508.153)"/>
      <path id="路径_1628" data-name="路径 1628" d="M389.382,512.857A2.655,2.655,0,0,1,392,515.875c0,1.9-1.072,3.068-2.622,3.068s-2.606-1.171-2.606-3.068,1.072-3.018,2.606-3.018m0,5.063c.874,0,1.435-.792,1.435-2.045s-.561-2.012-1.435-2.012-1.418.759-1.418,2.012.561,2.045,1.418,2.045m0-5.08a2.672,2.672,0,0,0-2.622,3.035c0,1.864,1.023,3.084,2.622,3.084s2.639-1.22,2.639-3.084a2.688,2.688,0,0,0-2.639-3.035Zm0,5.063c-.841,0-1.4-.792-1.4-2.029s.544-2,1.4-2,1.418.775,1.418,2S390.24,517.9,389.382,517.9Z" transform="translate(-375.628 -508.173)"/>
      <path id="路径_1629" data-name="路径 1629" d="M395.03,512.952v5.855h-1.187l-1.649-3.134-.594-1.253h0c0,.627.132,1.369.132,2.029v2.358h-1.105v-5.855h1.2l1.649,3.117.577,1.27h0a20.15,20.15,0,0,1-.165-2.045v-2.342h1.121m0,0h-1.138v2.342a17.678,17.678,0,0,0,.148,1.9v.132h0l-.577-1.253-1.649-3.117H390.56v5.855H391.7v-2.424a9.414,9.414,0,0,0-.1-1.649v-.379h0l.577,1.237,1.649,3.134h1.22V512.87Z" transform="translate(-373.145 -508.153)"/>
      <path id="路径_1630" data-name="路径 1630" d="M407.684,526.057V511.791a1.781,1.781,0,0,0-1.781-1.781H387.1a1.781,1.781,0,0,0-1.781,1.781v14.266a20.813,20.813,0,0,0,0,27.773V568.1a1.781,1.781,0,0,0,1.781,1.781h18.8a1.781,1.781,0,0,0,1.781-1.781V553.83a20.814,20.814,0,0,0,0-27.773Zm-.33,27.46-.115,14.579a1.336,1.336,0,0,1-1.336,1.336H387.1a1.352,1.352,0,0,1-1.336-1.336V553.83a20.6,20.6,0,0,1-5.311-13.887,19.692,19.692,0,0,1,5.2-13.573l.116-14.579a1.336,1.336,0,0,1,1.336-1.336h18.8a1.336,1.336,0,0,1,1.336,1.336v14.266a20.6,20.6,0,0,1,5.311,13.887,19.79,19.79,0,0,1-5.2,13.573Z" transform="translate(-379.994 -510.01)" fill="url(#linear-gradient-9)"/>
      <rect id="矩形_2234" data-name="矩形 2234" width="1.946" height="0.165" transform="translate(16.739 51.72)" opacity="0.5"/>
      <rect id="矩形_2235" data-name="矩形 2235" width="3.414" height="0.165" transform="translate(15.585 49.296)" opacity="0.5"/>
      <rect id="矩形_2236" data-name="矩形 2236" width="1.946" height="0.165" transform="translate(16.739 51.456)" fill="#fff" opacity="0.5"/>
      <g id="组_1108" data-name="组 1108" transform="translate(9.581 49.923)" opacity="0.5">
        <path id="路径_1638" data-name="路径 1638" d="M388.008,540.28c-.891,0-1.468.841-1.468,2.177h0c0-1.286.577-2.127,1.451-2.127s1.418.841,1.451,2.127h0C389.459,541.121,388.948,540.28,388.008,540.28Z" transform="translate(-385.336 -540.28)"/>
        <path id="路径_1639" data-name="路径 1639" d="M388.482,544.906c1.649,0,2.672-1.187,2.672-3.216h0c0,1.979-1.105,3.134-2.672,3.134s-2.639-1.171-2.672-3.134h0C385.794,543.718,386.882,544.906,388.482,544.906Z" transform="translate(-385.81 -539.365)"/>
      </g>
      <rect id="矩形_2237" data-name="矩形 2237" width="1.154" height="0.165" transform="translate(15.585 55.134)" opacity="0.5"/>
      <rect id="矩形_2238" data-name="矩形 2238" width="1.154" height="0.165" transform="translate(19.823 55.134)" opacity="0.5"/>
      <rect id="矩形_2239" data-name="矩形 2239" width="3.414" height="0.165" transform="translate(15.585 49.015)" fill="#fff" opacity="0.5"/>
      <rect id="矩形_2240" data-name="矩形 2240" width="1.946" height="0.165" transform="translate(20.978 51.456)" fill="#fff" opacity="0.5"/>
      <rect id="矩形_2241" data-name="矩形 2241" width="3.414" height="0.165" transform="translate(19.823 49.015)" fill="#fff" opacity="0.5"/>
      <rect id="矩形_2242" data-name="矩形 2242" width="1.946" height="0.165" transform="translate(20.945 51.72)" opacity="0.5"/>
      <rect id="矩形_2243" data-name="矩形 2243" width="3.364" height="0.165" transform="translate(19.856 49.296)" opacity="0.5"/>
    </g>
    <g id="组_1361" data-name="组 1361" transform="translate(1883.486 1077.059)">
      <path id="路径_1644" data-name="路径 1644" d="M97.456,540.865V526.791a.347.347,0,0,0-.165-.281L85.1,519.465a.38.38,0,0,0-.33,0L72.575,526.51a.346.346,0,0,0-.165.28v14.074a.346.346,0,0,0,.165.3l12.193,7.029a.3.3,0,0,0,.33,0l12.193-7.029a.347.347,0,0,0,.165-.3Z" transform="translate(-72.41 -519.427)" fill="#d0ccbf"/>
      <g transform="matrix(1, 0, 0, 1, -23.49, -22.06)" filter="url(#路径_1645)">
        <path id="路径_1645-2" data-name="路径 1645" d="M97.456,540.865V526.791a.347.347,0,0,0-.165-.281L85.1,519.465a.38.38,0,0,0-.33,0L72.575,526.51a.346.346,0,0,0-.165.28v14.074a.346.346,0,0,0,.165.3l12.193,7.029a.3.3,0,0,0,.33,0l12.193-7.029a.347.347,0,0,0,.165-.3Z" transform="translate(-48.92 -497.37)" fill="url(#linear-gradient-10)"/>
      </g>
      <path id="路径_1646" data-name="路径 1646" d="M84.758,520.383a34.185,34.185,0,0,1,5.989,2.409,33.652,33.652,0,0,1,5.131,4.026,22.753,22.753,0,0,1,0,12.837,31.344,31.344,0,0,1-5.065,3.993,34.648,34.648,0,0,1-6.055,2.524A32.8,32.8,0,0,1,78.7,543.73a28.992,28.992,0,0,1-5.065-3.993,22.753,22.753,0,0,1,0-12.837,25.788,25.788,0,0,1,5.1-4.009,27.51,27.51,0,0,1,6.022-2.508m0,0a26.584,26.584,0,0,0-6.039,2.426,26.294,26.294,0,0,0-5.115,4.026,22.868,22.868,0,0,0,0,12.87,30.011,30.011,0,0,0,5.082,4.009,32.256,32.256,0,0,0,6.072,2.459,33.653,33.653,0,0,0,6.072-2.442,32.868,32.868,0,0,0,5.082-4.009,22.869,22.869,0,0,0,0-12.87,34.237,34.237,0,0,0-5.148-4.042,35.131,35.131,0,0,0-6.006-2.459Z" transform="translate(-72.235 -518.827)" fill="url(#linear-gradient-11)"/>
      <path id="路径_1647" data-name="路径 1647" d="M96.533,526.017l-10.741-6.2a1.65,1.65,0,0,0-1.782,0l-10.659,6.2a1.765,1.765,0,0,0-.891,1.534v12.408a1.782,1.782,0,0,0,.891,1.534l10.741,6.2a1.8,1.8,0,0,0,1.782,0l10.741-6.2a1.782,1.782,0,0,0,.891-1.534V527.551A1.766,1.766,0,0,0,96.533,526.017Zm-.478,14.173a32.163,32.163,0,0,1-5.082,3.993,32.372,32.372,0,0,1-6.072,2.508,31.663,31.663,0,0,1-6.072-2.425,30.938,30.938,0,0,1-5.082-4.009,22.868,22.868,0,0,1,0-12.87,26.307,26.307,0,0,1,5.115-4.026,26.582,26.582,0,0,1,6.039-2.492,35.132,35.132,0,0,1,6.006,2.409,34.227,34.227,0,0,1,5.148,4.042A22.868,22.868,0,0,1,96.054,540.19Z" transform="translate(-72.378 -519.346)" fill="url(#linear-gradient-12)"/>
      <g id="组_1110" data-name="组 1110" transform="translate(0.082 0.219)" opacity="0.3">
        <g id="组_1109" data-name="组 1109" transform="translate(0 0)" clip-path="url(#clip-path)">
          <path id="路径_1648" data-name="路径 1648" d="M72.41,536.75Z" transform="translate(-72.492 -508.387)" fill="#231815"/>
          <rect id="矩形_2244" data-name="矩形 2244" width="25.046" height="28.165" transform="translate(-0.082 0.215)" fill="#231815"/>
          <rect id="矩形_2245" data-name="矩形 2245" width="25.046" height="0.198" transform="translate(-0.082 0)" fill="#231815"/>
          <rect id="矩形_2246" data-name="矩形 2246" width="24.782" height="28.033" transform="translate(0.05 0.215)" fill="#231815"/>
          <rect id="矩形_2247" data-name="矩形 2247" width="24.782" height="0.066" transform="translate(0.05 0.132)" fill="#231815"/>
        </g>
      </g>
      <circle id="椭圆_334" data-name="椭圆 334" cx="10.411" cy="10.411" r="10.411" transform="translate(2.112 3.998)" fill="#d0ccbf"/>
      <circle id="椭圆_335" data-name="椭圆 335" cx="10.411" cy="10.411" r="10.411" transform="translate(2.112 3.998)" fill="url(#linear-gradient-13)"/>
      <path id="路径_1650" data-name="路径 1650" d="M84.348,521.47a11.038,11.038,0,1,0,11.038,11.038A11.038,11.038,0,0,0,84.348,521.47Zm0,21.449a10.395,10.395,0,1,1,7.367-3.044A10.411,10.411,0,0,1,84.348,542.92Z" transform="translate(-71.825 -518.099)" fill="url(#linear-gradient-14)"/>
      <path id="路径_1651" data-name="路径 1651" d="M84.316,543.422a10.956,10.956,0,1,1,10.956-10.939,10.955,10.955,0,0,1-10.956,10.939Zm0-21.449a10.51,10.51,0,1,0,10.494,10.51A10.51,10.51,0,0,0,84.316,521.972Z" transform="translate(-71.793 -518.073)" fill="url(#linear-gradient-15)"/>
    </g>
    <circle id="椭圆_340" data-name="椭圆 340" cx="8.431" cy="8.431" r="8.431" transform="translate(1887.578 1097.325)" fill="url(#radial-gradient)"/>
    <g transform="matrix(1, 0, 0, 1, 1860, 1055)" filter="url(#联合_2)">
      <path id="联合_2-2" data-name="联合 2" d="M0,19.677a8.412,8.412,0,0,1,2.938-6.4,36.038,36.038,0,0,0,1.3-4.549,5.41,5.41,0,1,1,8.54,0,40.37,40.37,0,0,0,1.292,4.677A8.431,8.431,0,1,1,0,19.677Z" transform="translate(27.58 31.08)" fill="#c9c9c9"/>
    </g>
    <g id="组_1363" data-name="组 1363" transform="translate(1890.428 1086.079)">
      <g id="组_1357" data-name="组 1357" transform="translate(11.248 13.524) rotate(180)">
        <circle id="椭圆_328" data-name="椭圆 328" cx="5.41" cy="5.41" r="5.41" transform="translate(0.181 2.705)"/>
        <circle id="椭圆_329" data-name="椭圆 329" cx="4.733" cy="4.733" r="4.733" transform="translate(0.857 3.381)" fill="#e8e7e9"/>
        <circle id="椭圆_330" data-name="椭圆 330" cx="4.733" cy="4.733" r="4.733" transform="translate(0.857 3.381)" fill="url(#radial-gradient-2)"/>
        <g id="组_1101" data-name="组 1101" transform="translate(1.288 5.014)" opacity="0.5">
          <g id="组_1099" data-name="组 1099" transform="translate(0 0)">
            <path id="路径_1594" data-name="路径 1594" d="M6.315,4.139a3.084,3.084,0,0,1-2.309.874h0A3.034,3.034,0,0,1,1.3,3.1,5.673,5.673,0,0,1,1.3,0,4.189,4.189,0,0,0,4.188,7.224a4.469,4.469,0,0,0,3.051-1.27C7.486,5.69,6.645,4.486,6.315,4.139Z" fill="url(#radial-gradient-3)"/>
          </g>
          <path id="路径_1595" data-name="路径 1595" d="M.248,0A4.256,4.256,0,0,0,.066,2.177a3.513,3.513,0,0,0,3.3,2.672,1.452,1.452,0,0,0,.66-.083c.412-.165.561-1.055.132-1.3a.693.693,0,0,0-.363,0A3.678,3.678,0,0,1,.247,0Z" transform="translate(0.411 2.061)" fill="url(#radial-gradient-4)"/>
          <g id="组_1100" data-name="组 1100" transform="translate(0 0)">
            <path id="路径_1596" data-name="路径 1596" d="M6.315,4.139a3.084,3.084,0,0,1-2.309.874h0A3.034,3.034,0,0,1,1.3,3.1,5.673,5.673,0,0,1,1.3,0,4.189,4.189,0,0,0,4.188,7.224a4.469,4.469,0,0,0,3.051-1.27C7.486,5.69,6.645,4.486,6.315,4.139Z" fill="url(#radial-gradient-5)"/>
          </g>
          <path id="路径_1597" data-name="路径 1597" d="M.248,0A4.256,4.256,0,0,0,.066,2.177a3.513,3.513,0,0,0,3.3,2.672,1.452,1.452,0,0,0,.66-.083c.412-.165.561-1.055.132-1.3a.693.693,0,0,0-.363,0A3.678,3.678,0,0,1,.247,0Z" transform="translate(0.411 2.061)" fill="url(#radial-gradient-6)"/>
        </g>
        <path id="路径_1631" data-name="路径 1631" d="M11.248,0A8.379,8.379,0,0,1,5.591,2.259,8.246,8.246,0,0,1,0,.033,40.351,40.351,0,0,1,1.765,7.257h0a3.859,3.859,0,0,0,7.652,0h0A36.034,36.034,0,0,1,11.248,0Z" transform="translate(0 0)" fill="#c9c9c9"/>
        <path id="路径_1632" data-name="路径 1632" d="M11.248,0A8.379,8.379,0,0,1,5.591,2.259,8.246,8.246,0,0,1,0,.033,40.351,40.351,0,0,1,1.765,7.257h0a3.859,3.859,0,0,0,7.652,0h0A36.034,36.034,0,0,1,11.248,0Z" transform="translate(0 0)" fill="url(#linear-gradient-16)"/>
        <path id="路径_1633" data-name="路径 1633" d="M11.248,0A8.379,8.379,0,0,1,5.591,2.259,8.246,8.246,0,0,1,0,.033,40.351,40.351,0,0,1,1.765,7.257h0a3.859,3.859,0,0,0,7.652,0h0A36.034,36.034,0,0,1,11.248,0Z" transform="translate(0 0)" opacity="0.4" fill="url(#linear-gradient-17)"/>
        <path id="路径_1635" data-name="路径 1635" d="M3.3.66A8.508,8.508,0,0,1,0,0,29.565,29.565,0,0,1,.792,3.6h0a2.424,2.424,0,0,0,4.816,0h0A26.67,26.67,0,0,1,6.4,0,8.246,8.246,0,0,1,3.3.66Z" transform="translate(2.276 1.6)" fill="url(#radial-gradient-7)"/>
      </g>
    </g>
    <g id="组_1369" data-name="组 1369" transform="translate(1887.272 1097.325)">
      <g id="组_1368" data-name="组 1368" transform="translate(0 0)">
        <g id="组_875" data-name="组 875">
          <g id="组_874" data-name="组 874" transform="translate(0 0)">
            <ellipse id="椭圆_70" data-name="椭圆 70" cx="8.639" cy="8.485" rx="8.639" ry="8.485" transform="translate(0 0)" fill="url(#linear-gradient-18)"/>
            <ellipse id="椭圆_71" data-name="椭圆 71" cx="6.788" cy="4.32" rx="6.788" ry="4.32" transform="translate(1.851)" fill="url(#radial-gradient-8)"/>
            <ellipse id="椭圆_72" data-name="椭圆 72" cx="5.862" cy="3.085" rx="5.862" ry="3.085" transform="translate(2.777 10.799)" opacity="0.55" fill="url(#radial-gradient-9)"/>
          </g>
          <ellipse id="椭圆_73" data-name="椭圆 73" cx="8.639" cy="8.485" rx="8.639" ry="8.485" transform="translate(0 0)" opacity="0.23" fill="url(#radial-gradient-10)"/>
        </g>
      </g>
    </g>
  </g>
  <rect id="矩形_2694" data-name="矩形 2694" width="72" height="72" fill="none"/>
</svg>
