<svg id="_000" data-name="000" xmlns="http://www.w3.org/2000/svg" xmlns:xlink="http://www.w3.org/1999/xlink" width="72" height="73.3" viewBox="0 0 72 73.3">
  <defs>
    <linearGradient id="linear-gradient" x1="0.5" x2="0.5" y2="1" gradientUnits="objectBoundingBox">
      <stop offset="0" stop-color="#fff"/>
      <stop offset="1" stop-color="#d5d5d5"/>
    </linearGradient>
    <filter id="颜色层" x="2.5" y="6.3" width="67" height="67" filterUnits="userSpaceOnUse">
      <feOffset dy="4" input="SourceAlpha"/>
      <feGaussianBlur stdDeviation="1.5" result="blur"/>
      <feFlood flood-opacity="0.502"/>
      <feComposite operator="in" in2="blur"/>
      <feComposite in="SourceGraphic"/>
    </filter>
    <linearGradient id="linear-gradient-2" x1="0.5" y1="1" x2="0.5" y2="-0.005" gradientUnits="objectBoundingBox">
      <stop offset="0"/>
      <stop offset="1" stop-color="#fff"/>
    </linearGradient>
    <linearGradient id="linear-gradient-3" x1="0.5" y1="-0.002" x2="0.5" y2="0.998" gradientUnits="objectBoundingBox">
      <stop offset="0" stop-color="#ddd" stop-opacity="0.059"/>
      <stop offset="1" stop-opacity="0.702"/>
    </linearGradient>
    <linearGradient id="linear-gradient-4" x1="0.5" x2="0.5" y2="1" gradientUnits="objectBoundingBox">
      <stop offset="0" stop-color="#fff" stop-opacity="0.459"/>
      <stop offset="1" stop-opacity="0.388"/>
    </linearGradient>
  </defs>
  <g id="组_989" data-name="组 989" transform="translate(-1400 240)">
    <rect id="矩形_906" data-name="矩形 906" width="72" height="72" transform="translate(1400 -240)" fill="#fafd00"/>
    <path id="交叉_4" data-name="交叉 4" d="M0,7.258,7.258,0h8.485L0,15.743Z" transform="translate(1400 -240)" fill="#474747"/>
    <path id="交叉_5" data-name="交叉 5" d="M0,23.257,23.257,0h8.485L0,31.742Z" transform="translate(1400 -240)" fill="#474747"/>
    <path id="交叉_6" data-name="交叉 6" d="M0,39.257,39.257,0h8.485L0,47.742Z" transform="translate(1400 -240)" fill="#474747"/>
    <path id="交叉_7" data-name="交叉 7" d="M0,55.257,55.257,0h8.485L0,63.742Z" transform="translate(1400 -240)" fill="#474747"/>
    <path id="交叉_8" data-name="交叉 8" d="M0,72v-.743L71.257,0H72V7.743L7.743,72Z" transform="translate(1400 -240)" fill="#474747"/>
    <path id="交叉_9" data-name="交叉 9" d="M0,56.742,56.742,0V8.485L8.485,56.742Z" transform="translate(1415.258 -224.743)" fill="#474747"/>
    <path id="交叉_10" data-name="交叉 10" d="M0,40.742,40.743,0V8.485L8.485,40.742Z" transform="translate(1431.257 -208.743)" fill="#474747"/>
    <path id="交叉_11" data-name="交叉 11" d="M0,24.743,24.743,0V8.485L8.485,24.743Z" transform="translate(1447.257 -192.743)" fill="#474747"/>
    <path id="交叉_12" data-name="交叉 12" d="M0,8.743,8.743,0V8.485l-.257.257Z" transform="translate(1463.257 -176.743)" fill="#474747"/>
  </g>
  <g id="椭圆_118" data-name="椭圆 118" transform="translate(4 4)" stroke="#474747" stroke-width="1" fill="url(#linear-gradient)">
    <circle cx="32" cy="32" r="32" stroke="none"/>
    <circle cx="32" cy="32" r="31.5" fill="none"/>
  </g>
  <g id="组_983" data-name="组 983" transform="translate(-1573 101)">
    <g transform="matrix(1, 0, 0, 1, 1573, -101)" filter="url(#颜色层)">
      <ellipse id="颜色层-2" data-name="颜色层" cx="29" cy="29" rx="29" ry="29" transform="translate(7 6.8)" fill="red"/>
    </g>
    <ellipse id="椭圆_95" data-name="椭圆 95" cx="26.39" cy="26.39" rx="26.39" ry="26.39" transform="translate(1582.61 -91.59)" opacity="0.15" fill="url(#linear-gradient-2)"/>
    <path id="路径_621" data-name="路径 621" d="M48.7,30.3a29,29,0,1,0,29,29A29.085,29.085,0,0,0,48.7,30.3Zm0,55.39A26.39,26.39,0,1,1,75.09,59.3,26.486,26.486,0,0,1,48.7,85.69Z" transform="translate(1560.3 -124.5)" opacity="0.6" fill="url(#linear-gradient-3)"/>
    <path id="路径_622" data-name="路径 622" d="M46.99,31.39A26.39,26.39,0,1,1,20.6,57.78,26.486,26.486,0,0,1,46.99,31.39m0-.29A26.39,26.39,0,1,0,73.38,57.49,26.486,26.486,0,0,0,46.99,31.1Z" transform="translate(1562.01 -122.98)" fill="url(#linear-gradient-4)"/>
    <g id="组_982" data-name="组 982" transform="translate(1587.147 -87.142)" opacity="0.33">
      <g id="组_932" data-name="组 932" transform="translate(5.033)">
        <g id="路径_623" data-name="路径 623" transform="translate(-23.9 -32.734)" fill="#474747">
          <path d="M 26.47870635986328 42.64666366577148 L 24.31521034240723 40.72356414794922 C 28.39698028564453 35.8326530456543 34.3704948425293 33.03374862670898 40.75067520141602 33.03374862670898 C 43.14381408691406 33.03374862670898 45.49689483642578 33.43062973022461 47.74453353881836 34.21335983276367 C 50.06924438476563 35.02292633056641 52.22612762451172 36.22769546508789 54.15570831298828 37.79454803466797 L 56.34564590454102 39.74114990234375 L 46.92251586914063 42.28794097900391 L 49.37962341308594 38.60227966308594 L 49.56246566772461 38.32801055908203 L 49.27223587036133 38.17173004150391 C 46.69284439086914 36.78281784057617 43.75768280029297 36.04869079589844 40.78408432006836 36.04869079589844 C 35.25838088989258 36.04869079589844 30.06244850158691 38.44955062866211 26.47870635986328 42.64666366577148 Z" stroke="none"/>
          <path d="M 26.45108222961426 42.22071838378906 C 30.08376693725586 38.09990692138672 35.27250671386719 35.74868774414063 40.78408432006836 35.74868774414063 C 43.80716323852539 35.74868774414063 46.7914924621582 36.49522018432617 49.41446304321289 37.90758895874023 L 49.99493408203125 38.22014999389648 L 49.62923431396484 38.7686882019043 L 47.61502075195313 41.79000854492188 L 55.73126602172852 39.59643173217773 L 53.96139907836914 38.02322387695313 C 52.06023788452148 36.48042297363281 49.93554306030273 35.29403686523438 47.6458740234375 34.49666976928711 C 45.43002319335938 33.72500991821289 43.11014556884766 33.33374786376953 40.75067520141602 33.33374786376953 C 34.55694198608398 33.33374786376953 28.75216102600098 36.00863647460938 24.73334121704102 40.69384002685547 L 26.45108222961426 42.22071838378906 M 26.50999450683594 43.07585906982422 L 23.89999389648438 40.7558708190918 C 28.18727111816406 35.47922897338867 34.44472503662109 32.7337532043457 40.75067520141602 32.7337532043457 C 45.53496551513672 32.7337532043457 50.34664916992188 34.31314849853516 54.35001373291016 37.56587982177734 L 56.96001434326172 39.88586807250977 L 46.23000335693359 42.78586959838867 L 49.1300048828125 38.43586730957031 C 46.50821685791016 37.02413558959961 43.64072036743164 36.34869003295898 40.78408050537109 36.34869003295898 C 35.42531204223633 36.34869003295898 30.10407829284668 38.72513961791992 26.50999450683594 43.07585906982422 Z" stroke="none"/>
        </g>
      </g>
      <g id="组_933" data-name="组 933" transform="translate(0 15.272)">
        <g id="路径_624" data-name="路径 624" transform="translate(-22.164 -38)" fill="#474747">
          <path d="M 40.29445648193359 66.05451965332031 C 36.36869430541992 65.11157989501953 33.18675231933594 63.63507080078125 30.57507514953613 61.54571533203125 C 29.13862419128418 60.39655685424805 27.71456909179688 58.97274017333984 26.56484222412109 57.53620910644531 C 24.84088516235352 55.2365608215332 23.63967132568359 52.68953704833984 22.99459457397461 49.96584701538086 C 22.33690452575684 47.18893432617188 22.28887557983398 44.35367584228516 22.85184478759766 41.53883361816406 L 22.8527946472168 41.53408432006836 L 22.85359573364258 41.52931594848633 L 23.33557891845703 38.63742446899414 L 30.22119903564453 45.77806091308594 L 25.76432609558105 45.53045654296875 L 25.42008590698242 45.51133346557617 L 25.4487247467041 45.85490417480469 C 25.75565528869629 49.53805541992188 26.9774055480957 52.99846649169922 28.98190498352051 55.86203384399414 C 31.95419502258301 60.02326202392578 36.02426147460938 62.55406951904297 40.77047729492188 63.19837951660156 L 40.29445648193359 66.05451965332031 Z" stroke="none"/>
          <path d="M 40.05171203613281 65.68614959716797 L 40.42416381835938 63.451416015625 C 35.72531890869141 62.73023223876953 31.69548988342285 60.17721176147461 28.73943519592285 56.03873443603516 L 28.7377758026123 56.03641510009766 L 28.73613548278809 56.03407669067383 C 26.70123481750488 53.1270751953125 25.46108436584473 49.61579513549805 25.14975547790527 45.87982559204102 L 25.09249496459961 45.19267654418945 L 25.78096580505371 45.23091506958008 L 29.47471046447754 45.43612289428711 L 23.53347969055176 39.27485656738281 L 23.14951515197754 41.57863616943359 L 23.14792442321777 41.58817672729492 L 23.14602470397949 41.59766387939453 C 22.59157562255859 44.3698844909668 22.63884544372559 47.16209411621094 23.28651428222656 49.89670562744141 C 23.92169570922852 52.57857513427734 25.10443687438965 55.08695983886719 26.80202674865723 57.35245513916016 C 27.93782043457031 58.77098083496094 29.34401321411133 60.17668914794922 30.76248550415039 61.31145477294922 C 33.26944732666016 63.31703567504883 36.31314849853516 64.751220703125 40.05171203613281 65.68614959716797 M 40.53768539428711 66.41999816894531 C 36.76766586303711 65.54998779296875 33.28766632080078 64.09998321533203 30.38766479492188 61.77997589111328 C 28.93766593933105 60.6199836730957 27.48767471313477 59.16997528076172 26.32766532897949 57.71997451782227 C 22.84766578674316 53.07998657226563 21.39766502380371 47.27999496459961 22.55767440795898 41.47999572753906 L 23.13767433166504 38.00000381469727 L 30.96767425537109 46.1199951171875 L 25.74768447875977 45.82999420166016 C 26.03768539428711 49.30999374389648 27.19767570495605 52.78999710083008 29.22767448425293 55.68999481201172 C 32.1276741027832 59.74999618530273 36.18767547607422 62.3599739074707 41.11768341064453 62.93997573852539 L 40.53768539428711 66.41999816894531 Z" stroke="none"/>
        </g>
      </g>
      <g id="组_934" data-name="组 934" transform="translate(26.493 14.112)">
        <g id="路径_625" data-name="路径 625" transform="translate(-31.3 -37.6)" fill="#474747">
          <path d="M 31.75087356567383 66.64550018310547 L 34.2875862121582 57.00597763061523 L 36.25167083740234 60.93414688110352 L 36.40365219116211 61.23810958862305 L 36.68640899658203 61.04960632324219 C 43.82880783081055 56.28801727294922 46.87089538574219 47.2330207824707 44.14774322509766 38.94185638427734 L 46.78387451171875 37.9832649230957 C 48.73476791381836 43.26590347290039 48.53546905517578 48.99567031860352 46.21517181396484 54.15187835693359 C 45.07567977905273 56.68406677246094 43.48616027832031 58.94580841064453 41.49074172973633 60.874267578125 C 39.43667984008789 62.8593864440918 37.04423141479492 64.39920806884766 34.37984848022461 65.450927734375 L 34.37277984619141 65.45372009277344 L 34.36585998535156 65.45687103271484 L 31.75087356567383 66.64550018310547 Z" stroke="none"/>
          <path d="M 32.20173645019531 66.11102294921875 L 34.24172210693359 65.18376159667969 L 34.25556182861328 65.17746734619141 L 34.26969909667969 65.17189025878906 C 36.89728164672852 64.13468933105469 39.25664901733398 62.61617660522461 41.28224945068359 60.65854644775391 C 43.25017166137695 58.75666809082031 44.81779861450195 56.52608871459961 45.94158935546875 54.02876663208008 C 48.18829727172852 49.03608703613281 48.41816711425781 43.49811553955078 46.60390853881836 38.3679313659668 L 44.52151107788086 39.12516403198242 C 47.12917709350586 47.46788787841797 44.02771759033203 56.51596069335938 36.85282135009766 61.29921722412109 L 36.28730010986328 61.67622756958008 L 35.98334121704102 61.06831741333008 L 34.37516784667969 57.85197067260742 L 32.20173645019531 66.11102294921875 M 31.30001068115234 67.17997741699219 L 34.20000076293945 56.15998840332031 L 36.52000045776367 60.79998779296875 C 43.48001098632813 56.15998840332031 46.67000198364258 47.16998672485352 43.77000045776367 38.7599983215332 L 46.95999908447266 37.59999847412109 C 51.30998992919922 48.90999984741211 45.51000213623047 61.37998962402344 34.4900016784668 65.72998046875 L 31.30001068115234 67.17997741699219 Z" stroke="none"/>
        </g>
      </g>
    </g>
  </g>
</svg>
