<svg id="_09" data-name="09" xmlns="http://www.w3.org/2000/svg" xmlns:xlink="http://www.w3.org/1999/xlink" width="72" height="72" viewBox="0 0 72 72">
  <defs>
    <linearGradient id="linear-gradient" x1="0.5" x2="0.5" y2="1" gradientUnits="objectBoundingBox">
      <stop offset="0" stop-color="#a8a8a8"/>
      <stop offset="0.01" stop-color="#bababa"/>
      <stop offset="0.03" stop-color="#d3d3d3"/>
      <stop offset="0.05" stop-color="#e7e7e7"/>
      <stop offset="0.07" stop-color="#f4f4f4"/>
      <stop offset="0.1" stop-color="#fdfdfd"/>
      <stop offset="0.15" stop-color="#fff"/>
      <stop offset="0.24" stop-color="#c7c7c7"/>
      <stop offset="0.33" stop-color="#8c8c8c"/>
      <stop offset="0.4" stop-color="#a5a5a5"/>
      <stop offset="0.5" stop-color="#ccc"/>
      <stop offset="0.61" stop-color="#6b6b6b"/>
      <stop offset="0.74"/>
      <stop offset="0.78" stop-color="#1a1a1a" stop-opacity="0.941"/>
      <stop offset="0.86" stop-color="#616161" stop-opacity="0.769"/>
      <stop offset="0.96" stop-color="#d4d4d4" stop-opacity="0.502"/>
      <stop offset="1" stop-color="#fff" stop-opacity="0.4"/>
    </linearGradient>
    <linearGradient id="linear-gradient-2" x1="0.5" y1="1" x2="0.5" gradientUnits="objectBoundingBox">
      <stop offset="0" stop-color="#fff"/>
      <stop offset="0.23" stop-color="#e3e3e3"/>
      <stop offset="0.35" stop-color="#b9b9b9"/>
      <stop offset="0.5" stop-color="#8c8c8c"/>
      <stop offset="0.64" stop-color="#696969"/>
      <stop offset="0.78" stop-color="#505050"/>
      <stop offset="0.9" stop-color="#404040"/>
      <stop offset="1" stop-color="#3b3b3b"/>
    </linearGradient>
    <linearGradient id="linear-gradient-3" x1="0.5" y1="0.997" x2="0.5" y2="-0.002" gradientUnits="objectBoundingBox">
      <stop offset="0" stop-color="#bababa"/>
      <stop offset="0.03" stop-color="#d2d2d2"/>
      <stop offset="0.08" stop-color="#e6e6e6"/>
      <stop offset="0.12" stop-color="#f4f4f4"/>
      <stop offset="0.18" stop-color="#fcfcfc"/>
      <stop offset="0.27" stop-color="#fff"/>
      <stop offset="0.49" stop-color="#d4d4d4"/>
      <stop offset="0.5" stop-color="#d1d1d1"/>
      <stop offset="0.6" stop-color="#e9e9e9"/>
      <stop offset="0.69" stop-color="#f9f9f9"/>
      <stop offset="0.76" stop-color="#fff"/>
      <stop offset="0.81" stop-color="#f9f9f9"/>
      <stop offset="0.87" stop-color="#e7e7e7"/>
      <stop offset="0.94" stop-color="#c9c9c9"/>
      <stop offset="1" stop-color="#a8a8a8"/>
    </linearGradient>
    <linearGradient id="linear-gradient-4" x1="0.5" y1="1" x2="0.5" gradientUnits="objectBoundingBox">
      <stop offset="0" stop-opacity="0.502"/>
      <stop offset="1" stop-opacity="0.2"/>
    </linearGradient>
    <linearGradient id="linear-gradient-5" x1="0.5" x2="0.5" y2="1" gradientUnits="objectBoundingBox">
      <stop offset="0" stop-opacity="0.702"/>
      <stop offset="1" stop-opacity="0.502"/>
    </linearGradient>
    <linearGradient id="linear-gradient-6" x1="18.05" y1="31.817" x2="18.05" y2="30.816" gradientUnits="objectBoundingBox">
      <stop offset="0" stop-opacity="0"/>
      <stop offset="1" stop-color="#231815" stop-opacity="0.271"/>
    </linearGradient>
    <linearGradient id="linear-gradient-7" x1="0.5" x2="0.5" y2="1" gradientUnits="objectBoundingBox">
      <stop offset="0" stop-opacity="0.2"/>
      <stop offset="1"/>
    </linearGradient>
    <linearGradient id="linear-gradient-8" x1="0.5" y1="0" x2="0.5" y2="1" xlink:href="#linear-gradient"/>
  </defs>
  <g id="组_1378" data-name="组 1378">
    <circle id="椭圆_143" data-name="椭圆 143" cx="29.992" cy="29.992" r="29.992" transform="translate(6.516 5.718)" fill="#fff"/>
    <path id="路径_798" data-name="路径 798" d="M72.857,40.588a29.992,29.992,0,1,0-3.449,42.258A29.992,29.992,0,0,0,72.857,40.588ZM67.008,80a26.243,26.243,0,1,1,3-37.01A26.243,26.243,0,0,1,67.008,80Z" transform="translate(-13.495 -24.284)" fill="url(#linear-gradient)"/>
    <circle id="椭圆_144" data-name="椭圆 144" cx="27.742" cy="27.742" r="27.742" transform="translate(8.766 7.967)" fill="url(#linear-gradient-2)"/>
    <path id="路径_799" data-name="路径 799" d="M67.842,40.437a26.183,26.183,0,0,0-18-9.237H47.657a26.513,26.513,0,1,0,20.214,9.327ZM64.663,77.6a26.243,26.243,0,1,1,3-36.98A26.243,26.243,0,0,1,64.663,77.6Z" transform="translate(-11.149 -21.883)" fill="url(#linear-gradient-3)"/>
    <path id="路径_800" data-name="路径 800" d="M72.857,40.588a29.992,29.992,0,1,0-3.449,42.258A29.992,29.992,0,0,0,72.857,40.588Zm-3.6,41.989A29.752,29.752,0,0,1,50,89.715H47.543a29.752,29.752,0,1,1,21.684-6.988Z" transform="translate(-13.495 -24.284)" fill="url(#linear-gradient-4)"/>
    <g id="组_1377" data-name="组 1377" transform="translate(-1866.215 -305)">
      <path id="颜色层" d="M0,127.243q0-1.01.075-2-.075-.991-.075-2a26.243,26.243,0,0,1,52.485,0q0,1.01-.075,2,.075.991.075,2a26.243,26.243,0,1,1-52.485,0Z" transform="translate(1876.48 213.467)" fill="#09f"/>
      <path id="减去_23" data-name="减去 23" d="M26.243,153.486A26.221,26.221,0,0,1,0,127.243c0-.666.025-1.339.075-2a26.244,26.244,0,0,0,52.335,0c.051.67.075,1.343.075,2a26.22,26.22,0,0,1-26.242,26.243Z" transform="translate(1876.48 213.467)" fill="url(#linear-gradient-5)"/>
      <g id="组_1376" data-name="组 1376">
        <circle id="椭圆_146" data-name="椭圆 146" cx="23.754" cy="23.754" r="23.754" transform="translate(1878.97 312.956)" opacity="0.3" fill="url(#linear-gradient-6)"/>
        <path id="路径_801" data-name="路径 801" d="M47.493,31.25A26.243,26.243,0,1,0,73.736,57.493,26.243,26.243,0,0,0,47.493,31.25Zm0,50.236A23.993,23.993,0,1,1,71.486,57.493,23.993,23.993,0,0,1,47.493,81.486Z" transform="translate(1855.23 279.217)" opacity="0.6" fill="url(#linear-gradient-7)"/>
        <g id="组_998" data-name="组 998" transform="translate(1878.73 312.716)" opacity="0.5">
          <path id="路径_802" data-name="路径 802" d="M45.993,32.24A23.784,23.784,0,1,1,22.21,55.993,23.783,23.783,0,0,1,45.993,32.24m0-.24A23.993,23.993,0,1,0,69.987,55.993,23.993,23.993,0,0,0,45.993,32Z" transform="translate(-22 -32)" fill="url(#linear-gradient-8)"/>
        </g>
      </g>
    </g>
  </g>
  <rect id="矩形_2644" data-name="矩形 2644" width="72" height="72" fill="none"/>
</svg>
