<svg id="_28-1" data-name="28-1" xmlns="http://www.w3.org/2000/svg" xmlns:xlink="http://www.w3.org/1999/xlink" width="72" height="72" viewBox="0 0 72 72">
  <defs>
    <linearGradient id="linear-gradient" x1="0.752" y1="1.393" x2="0.248" y2="-0.392" gradientUnits="objectBoundingBox">
      <stop offset="0" stop-color="#f2f2f2"/>
      <stop offset="0.02" stop-color="#d4d4d4"/>
      <stop offset="0.05" stop-color="#a5a5a5"/>
      <stop offset="0.07" stop-color="#7e7e7e"/>
      <stop offset="0.1" stop-color="#5f5f5f"/>
      <stop offset="0.13" stop-color="#4a4a4a"/>
      <stop offset="0.16" stop-color="#3c3c3c"/>
      <stop offset="0.18" stop-color="#383838"/>
      <stop offset="0.19" stop-color="#3c3c3c"/>
      <stop offset="0.21" stop-color="#494949"/>
      <stop offset="0.23" stop-color="#505050"/>
      <stop offset="0.29" stop-color="#525252"/>
      <stop offset="0.31" stop-color="#575757"/>
      <stop offset="0.34" stop-color="#666"/>
      <stop offset="0.37" stop-color="#7e7e7e"/>
      <stop offset="0.4" stop-color="#a0a0a0"/>
      <stop offset="0.41" stop-color="#adadad"/>
      <stop offset="0.49" stop-color="#fcfcfc"/>
      <stop offset="0.51" stop-color="#f8f8f8"/>
      <stop offset="0.53" stop-color="#ebebeb"/>
      <stop offset="0.56" stop-color="#d7d7d7"/>
      <stop offset="0.58" stop-color="#bababa"/>
      <stop offset="0.6" stop-color="#a1a1a1"/>
      <stop offset="0.62" stop-color="#b6b6b6"/>
      <stop offset="0.65" stop-color="#c8c8c8"/>
      <stop offset="0.67" stop-color="#d3d3d3"/>
      <stop offset="0.7" stop-color="#d6d6d6"/>
      <stop offset="0.73" stop-color="#ccc"/>
      <stop offset="0.83" stop-color="#a1a1a1"/>
      <stop offset="0.84" stop-color="#acacac"/>
      <stop offset="0.86" stop-color="#c2c2c2"/>
      <stop offset="0.89" stop-color="#d2d2d2"/>
      <stop offset="0.92" stop-color="#dbdbdb"/>
      <stop offset="0.96" stop-color="#dedede"/>
      <stop offset="1" stop-color="#878787"/>
    </linearGradient>
    <linearGradient id="linear-gradient-2" x1="0.5" y1="1" x2="0.5" gradientUnits="objectBoundingBox">
      <stop offset="0" stop-color="#fff"/>
      <stop offset="0.23" stop-color="#e3e3e3"/>
      <stop offset="0.35" stop-color="#b9b9b9"/>
      <stop offset="0.5" stop-color="#8c8c8c"/>
      <stop offset="0.64" stop-color="#696969"/>
      <stop offset="0.78" stop-color="#505050"/>
      <stop offset="0.9" stop-color="#404040"/>
      <stop offset="1" stop-color="#3b3b3b"/>
    </linearGradient>
    <radialGradient id="radial-gradient" cx="0.5" cy="0.5" r="0.5" gradientUnits="objectBoundingBox">
      <stop offset="0" stop-color="#ededed"/>
      <stop offset="1" stop-color="#989898"/>
    </radialGradient>
    <filter id="_01" x="43.75" y="24.99" width="27" height="27" filterUnits="userSpaceOnUse">
      <feOffset dy="2" input="SourceAlpha"/>
      <feGaussianBlur stdDeviation="1.5" result="blur"/>
      <feFlood flood-opacity="0.502"/>
      <feComposite operator="in" in2="blur"/>
      <feComposite in="SourceGraphic"/>
    </filter>
    <radialGradient id="radial-gradient-2" cx="0.5" cy="0.5" fy="0.13261142373085022" r="0.5" gradientUnits="objectBoundingBox">
      <stop offset="0" stop-color="#fff" stop-opacity="0.702"/>
      <stop offset="0.85" stop-color="#fff" stop-opacity="0"/>
      <stop offset="1" stop-opacity="0.502"/>
    </radialGradient>
    <radialGradient id="radial-gradient-3" cx="0.5" cy="0.244" r="1.301" gradientTransform="translate(6.481 76.108) scale(0.384 0.38)" gradientUnits="objectBoundingBox">
      <stop offset="0" stop-color="#fff"/>
      <stop offset="1" stop-color="#fff" stop-opacity="0"/>
    </radialGradient>
  </defs>
  <rect id="矩形_1930" data-name="矩形 1930" width="60" height="20" rx="10" transform="translate(7.5 26.49)" fill="#a6a6a6"/>
  <rect id="矩形_1931" data-name="矩形 1931" width="59.98" height="19.98" rx="9.99" transform="translate(7.51 26.5)" fill="#a7a7a7"/>
  <rect id="矩形_1932" data-name="矩形 1932" width="59.97" height="19.97" rx="9.98" transform="translate(7.51 26.51)" fill="#a8a8a8"/>
  <rect id="矩形_1933" data-name="矩形 1933" width="59.95" height="19.95" rx="9.97" transform="translate(7.52 26.51)" fill="#a9a9a9"/>
  <rect id="矩形_1934" data-name="矩形 1934" width="59.93" height="19.93" rx="9.965" transform="translate(7.53 26.52)" fill="#aaa"/>
  <rect id="矩形_1935" data-name="矩形 1935" width="59.92" height="19.92" rx="9.96" transform="translate(7.54 26.53)" fill="#aaa"/>
  <rect id="矩形_1936" data-name="矩形 1936" width="59.9" height="19.9" rx="9.95" transform="translate(7.55 26.54)" fill="#ababab"/>
  <rect id="矩形_1937" data-name="矩形 1937" width="59.88" height="19.88" rx="9.94" transform="translate(7.56 26.55)" fill="#acacac"/>
  <rect id="矩形_1938" data-name="矩形 1938" width="59.87" height="19.87" rx="9.93" transform="translate(7.57 26.56)" fill="#adadad"/>
  <rect id="矩形_1939" data-name="矩形 1939" width="59.85" height="19.85" rx="9.92" transform="translate(7.57 26.56)" fill="#aeaeae"/>
  <rect id="矩形_1940" data-name="矩形 1940" width="59.83" height="19.83" rx="9.915" transform="translate(7.58 26.57)" fill="#afafaf"/>
  <rect id="矩形_1941" data-name="矩形 1941" width="59.81" height="19.81" rx="9.905" transform="translate(7.59 26.58)" fill="#b0b0b0"/>
  <rect id="矩形_1942" data-name="矩形 1942" width="59.8" height="19.8" rx="9.9" transform="translate(7.6 26.59)" fill="#b1b1b1"/>
  <rect id="矩形_1943" data-name="矩形 1943" width="59.78" height="19.78" rx="9.89" transform="translate(7.61 26.6)" fill="#b1b1b1"/>
  <rect id="矩形_1944" data-name="矩形 1944" width="59.76" height="19.76" rx="9.88" transform="translate(7.62 26.61)" fill="#b2b2b2"/>
  <rect id="矩形_1945" data-name="矩形 1945" width="59.75" height="19.75" rx="9.87" transform="translate(7.62 26.61)" fill="#b3b3b3"/>
  <rect id="矩形_1946" data-name="矩形 1946" width="59.73" height="19.73" rx="9.865" transform="translate(7.63 26.62)" fill="#b4b4b4"/>
  <rect id="矩形_1947" data-name="矩形 1947" width="59.71" height="19.71" rx="9.855" transform="translate(7.64 26.63)" fill="#b5b5b5"/>
  <rect id="矩形_1948" data-name="矩形 1948" width="59.7" height="19.7" rx="9.85" transform="translate(7.65 26.64)" fill="#b6b6b6"/>
  <rect id="矩形_1949" data-name="矩形 1949" width="59.68" height="19.68" rx="9.84" transform="translate(7.66 26.65)" fill="#b7b7b7"/>
  <rect id="矩形_1950" data-name="矩形 1950" width="59.66" height="19.66" rx="9.83" transform="translate(7.67 26.66)" fill="#b8b8b8"/>
  <rect id="矩形_1951" data-name="矩形 1951" width="59.65" height="19.65" rx="9.82" transform="translate(7.67 26.66)" fill="#b9b9b9"/>
  <rect id="矩形_1952" data-name="矩形 1952" width="59.63" height="19.63" rx="9.81" transform="translate(7.68 26.67)" fill="#b9b9b9"/>
  <rect id="矩形_1953" data-name="矩形 1953" width="59.61" height="19.61" rx="9.805" transform="translate(7.69 26.68)" fill="#bababa"/>
  <rect id="矩形_1954" data-name="矩形 1954" width="59.6" height="19.6" rx="9.8" transform="translate(7.7 26.69)" fill="#bbb"/>
  <rect id="矩形_1955" data-name="矩形 1955" width="59.58" height="19.58" rx="9.79" transform="translate(7.71 26.7)" fill="#bcbcbc"/>
  <rect id="矩形_1956" data-name="矩形 1956" width="59.56" height="19.56" rx="9.78" transform="translate(7.72 26.71)" fill="#bdbdbd"/>
  <rect id="矩形_1957" data-name="矩形 1957" width="59.55" height="19.55" rx="9.77" transform="translate(7.73 26.72)" fill="#bebebe"/>
  <rect id="矩形_1958" data-name="矩形 1958" width="59.53" height="19.53" rx="9.76" transform="translate(7.73 26.72)" fill="#bfbfbf"/>
  <rect id="矩形_1959" data-name="矩形 1959" width="59.51" height="19.51" rx="9.755" transform="translate(7.74 26.73)" fill="silver"/>
  <rect id="矩形_1960" data-name="矩形 1960" width="59.5" height="19.5" rx="9.75" transform="translate(7.75 26.74)" fill="silver"/>
  <rect id="矩形_1961" data-name="矩形 1961" width="59.48" height="19.48" rx="9.74" transform="translate(7.76 26.75)" fill="#c1c1c1"/>
  <rect id="矩形_1962" data-name="矩形 1962" width="59.46" height="19.46" rx="9.73" transform="translate(7.77 26.76)" fill="#c2c2c2"/>
  <rect id="矩形_1963" data-name="矩形 1963" width="59.44" height="19.44" rx="9.72" transform="translate(7.78 26.77)" fill="#c3c3c3"/>
  <rect id="矩形_1964" data-name="矩形 1964" width="59.43" height="19.43" rx="9.71" transform="translate(7.78 26.77)" fill="#c4c4c4"/>
  <rect id="矩形_1965" data-name="矩形 1965" width="59.41" height="19.41" rx="9.705" transform="translate(7.79 26.78)" fill="#c5c5c5"/>
  <rect id="矩形_1966" data-name="矩形 1966" width="59.39" height="19.39" rx="9.695" transform="translate(7.8 26.79)" fill="#c6c6c6"/>
  <rect id="矩形_1967" data-name="矩形 1967" width="59.38" height="19.38" rx="9.69" transform="translate(7.81 26.8)" fill="#c7c7c7"/>
  <rect id="矩形_1968" data-name="矩形 1968" width="59.36" height="19.36" rx="9.68" transform="translate(7.82 26.81)" fill="#c7c7c7"/>
  <rect id="矩形_1969" data-name="矩形 1969" width="59.34" height="19.34" rx="9.67" transform="translate(7.83 26.82)" fill="#c8c8c8"/>
  <rect id="矩形_1970" data-name="矩形 1970" width="59.33" height="19.33" rx="9.66" transform="translate(7.83 26.82)" fill="#c9c9c9"/>
  <rect id="矩形_1971" data-name="矩形 1971" width="59.31" height="19.31" rx="9.655" transform="translate(7.84 26.83)" fill="#cacaca"/>
  <rect id="矩形_1972" data-name="矩形 1972" width="59.29" height="19.29" rx="9.645" transform="translate(7.85 26.84)" fill="#cbcbcb"/>
  <rect id="矩形_1973" data-name="矩形 1973" width="59.28" height="19.28" rx="9.64" transform="translate(7.86 26.85)" fill="#ccc"/>
  <rect id="矩形_1974" data-name="矩形 1974" width="59.26" height="19.26" rx="9.63" transform="translate(7.87 26.86)" fill="#cdcdcd"/>
  <rect id="矩形_1975" data-name="矩形 1975" width="59.24" height="19.24" rx="9.62" transform="translate(7.88 26.87)" fill="#cecece"/>
  <rect id="矩形_1976" data-name="矩形 1976" width="59.23" height="19.23" rx="9.61" transform="translate(7.88 26.88)" fill="#cfcfcf"/>
  <rect id="矩形_1977" data-name="矩形 1977" width="59.21" height="19.21" rx="9.6" transform="translate(7.89 26.88)" fill="#cfcfcf"/>
  <rect id="矩形_1978" data-name="矩形 1978" width="59.19" height="19.19" rx="9.595" transform="translate(7.9 26.89)" fill="#d0d0d0"/>
  <rect id="矩形_1979" data-name="矩形 1979" width="59.18" height="19.18" rx="9.59" transform="translate(7.91 26.9)" fill="#d1d1d1"/>
  <rect id="矩形_1980" data-name="矩形 1980" width="59.16" height="19.16" rx="9.58" transform="translate(7.92 26.91)" fill="#d2d2d2"/>
  <rect id="矩形_1981" data-name="矩形 1981" width="59.14" height="19.14" rx="9.57" transform="translate(7.93 26.92)" fill="#d3d3d3"/>
  <rect id="矩形_1982" data-name="矩形 1982" width="59.13" height="19.13" rx="9.56" transform="translate(7.94 26.93)" fill="#d4d4d4"/>
  <rect id="矩形_1983" data-name="矩形 1983" width="59.11" height="19.11" rx="9.55" transform="translate(7.94 26.93)" fill="#d5d5d5"/>
  <rect id="矩形_1984" data-name="矩形 1984" width="59.09" height="19.09" rx="9.545" transform="translate(7.95 26.94)" fill="#d6d6d6"/>
  <rect id="矩形_1985" data-name="矩形 1985" width="59.07" height="19.07" rx="9.535" transform="translate(7.96 26.95)" fill="#d6d6d6"/>
  <rect id="矩形_1986" data-name="矩形 1986" width="59.06" height="19.06" rx="9.53" transform="translate(7.97 26.96)" fill="#d7d7d7"/>
  <rect id="矩形_1987" data-name="矩形 1987" width="59.04" height="19.04" rx="9.52" transform="translate(7.98 26.97)" fill="#d8d8d8"/>
  <rect id="矩形_1988" data-name="矩形 1988" width="59.02" height="19.02" rx="9.51" transform="translate(7.99 26.98)" fill="#d9d9d9"/>
  <rect id="矩形_1989" data-name="矩形 1989" width="59.01" height="19.01" rx="9.5" transform="translate(7.99 26.98)" fill="#dadada"/>
  <rect id="矩形_1990" data-name="矩形 1990" width="58.99" height="18.99" rx="9.495" transform="translate(8 26.99)" fill="#dbdbdb"/>
  <rect id="矩形_1991" data-name="矩形 1991" width="58.97" height="18.97" rx="9.485" transform="translate(8.01 27)" fill="#dcdcdc"/>
  <rect id="矩形_1992" data-name="矩形 1992" width="58.96" height="18.96" rx="9.48" transform="translate(8.02 27.01)" fill="#ddd"/>
  <rect id="矩形_1993" data-name="矩形 1993" width="58.94" height="18.94" rx="9.47" transform="translate(8.03 27.02)" fill="#dedede"/>
  <rect id="矩形_1994" data-name="矩形 1994" width="58.92" height="18.92" rx="9.46" transform="translate(8.04 27.03)" fill="#dedede"/>
  <rect id="矩形_1995" data-name="矩形 1995" width="58.91" height="18.91" rx="9.45" transform="translate(8.04 27.04)" fill="#dfdfdf"/>
  <rect id="矩形_1996" data-name="矩形 1996" width="58.89" height="18.89" rx="9.44" transform="translate(8.05 27.04)" fill="#e0e0e0"/>
  <rect id="矩形_1997" data-name="矩形 1997" width="58.87" height="18.87" rx="9.435" transform="translate(8.06 27.05)" fill="#e1e1e1"/>
  <rect id="矩形_1998" data-name="矩形 1998" width="58.86" height="18.86" rx="9.43" transform="translate(8.07 27.06)" fill="#e2e2e2"/>
  <rect id="矩形_1999" data-name="矩形 1999" width="58.84" height="18.84" rx="9.42" transform="translate(8.08 27.07)" fill="#e3e3e3"/>
  <rect id="矩形_2000" data-name="矩形 2000" width="58.82" height="18.82" rx="9.41" transform="translate(8.09 27.08)" fill="#e4e4e4"/>
  <rect id="矩形_2001" data-name="矩形 2001" width="58.81" height="18.81" rx="9.4" transform="translate(8.1 27.09)" fill="#e5e5e5"/>
  <rect id="矩形_2002" data-name="矩形 2002" width="58.79" height="18.79" rx="9.39" transform="translate(8.1 27.09)" fill="#e5e5e5"/>
  <rect id="矩形_2003" data-name="矩形 2003" width="58.77" height="18.77" rx="9.385" transform="translate(8.11 27.1)" fill="#e6e6e6"/>
  <rect id="矩形_2004" data-name="矩形 2004" width="58.76" height="18.76" rx="9.38" transform="translate(8.12 27.11)" fill="#e7e7e7"/>
  <rect id="矩形_2005" data-name="矩形 2005" width="58.74" height="18.74" rx="9.37" transform="translate(8.13 27.12)" fill="#e8e8e8"/>
  <rect id="矩形_2006" data-name="矩形 2006" width="58.72" height="18.72" rx="9.36" transform="translate(8.14 27.13)" fill="#e9e9e9"/>
  <rect id="矩形_2007" data-name="矩形 2007" width="58.7" height="18.7" rx="9.35" transform="translate(8.15 27.14)" fill="#eaeaea"/>
  <rect id="矩形_2008" data-name="矩形 2008" width="58.69" height="18.69" rx="9.34" transform="translate(8.15 27.14)" fill="#ebebeb"/>
  <rect id="矩形_2009" data-name="矩形 2009" width="58.67" height="18.67" rx="9.335" transform="translate(8.16 27.15)" fill="#ececec"/>
  <rect id="矩形_2010" data-name="矩形 2010" width="58.65" height="18.65" rx="9.325" transform="translate(8.17 27.16)" fill="#ececec"/>
  <rect id="矩形_2011" data-name="矩形 2011" width="58.64" height="18.64" rx="9.32" transform="translate(8.18 27.17)" fill="#ededed"/>
  <rect id="矩形_2012" data-name="矩形 2012" width="58.62" height="18.62" rx="9.31" transform="translate(8.19 27.18)" fill="#eee"/>
  <rect id="矩形_2013" data-name="矩形 2013" width="58.6" height="18.6" rx="9.3" transform="translate(8.2 27.19)" fill="#efefef"/>
  <rect id="矩形_2014" data-name="矩形 2014" width="58.59" height="18.59" rx="9.29" transform="translate(8.2 27.2)" fill="#f0f0f0"/>
  <rect id="矩形_2015" data-name="矩形 2015" width="58.57" height="18.57" rx="9.28" transform="translate(8.21 27.2)" fill="#f1f1f1"/>
  <rect id="矩形_2016" data-name="矩形 2016" width="58.55" height="18.55" rx="9.275" transform="translate(8.22 27.21)" fill="#f2f2f2"/>
  <rect id="矩形_2017" data-name="矩形 2017" width="58.54" height="18.54" rx="9.27" transform="translate(8.23 27.22)" fill="#f3f3f3"/>
  <rect id="矩形_2018" data-name="矩形 2018" width="58.52" height="18.52" rx="9.26" transform="translate(8.24 27.23)" fill="#f4f4f4"/>
  <rect id="矩形_2019" data-name="矩形 2019" width="58.5" height="18.5" rx="9.25" transform="translate(8.25 27.24)" fill="#f4f4f4"/>
  <rect id="矩形_2020" data-name="矩形 2020" width="58.49" height="18.49" rx="9.24" transform="translate(8.26 27.25)" fill="#f5f5f5"/>
  <rect id="矩形_2021" data-name="矩形 2021" width="58.47" height="18.47" rx="9.23" transform="translate(8.26 27.25)" fill="#f6f6f6"/>
  <rect id="矩形_2022" data-name="矩形 2022" width="58.45" height="18.45" rx="9.225" transform="translate(8.27 27.26)" fill="#f7f7f7"/>
  <rect id="矩形_2023" data-name="矩形 2023" width="58.44" height="18.44" rx="9.22" transform="translate(8.28 27.27)" fill="#f8f8f8"/>
  <rect id="矩形_2024" data-name="矩形 2024" width="58.42" height="18.42" rx="9.21" transform="translate(8.29 27.28)" fill="#f9f9f9"/>
  <rect id="矩形_2025" data-name="矩形 2025" width="58.4" height="18.4" rx="9.2" transform="translate(8.3 27.29)" fill="#fafafa"/>
  <rect id="矩形_2026" data-name="矩形 2026" width="58.38" height="18.38" rx="9.19" transform="translate(8.31 27.3)" fill="#fbfbfb"/>
  <rect id="矩形_2027" data-name="矩形 2027" width="58.37" height="18.37" rx="9.18" transform="translate(8.31 27.3)" fill="#fbfbfb"/>
  <rect id="矩形_2028" data-name="矩形 2028" width="58.35" height="18.35" rx="9.175" transform="translate(8.32 27.31)" fill="#fcfcfc"/>
  <rect id="矩形_2029" data-name="矩形 2029" width="58.33" height="18.33" rx="9.165" transform="translate(8.33 27.32)" fill="#fdfdfd"/>
  <rect id="矩形_2030" data-name="矩形 2030" width="58.32" height="18.32" rx="9.16" transform="translate(8.34 27.33)" fill="#fefefe"/>
  <rect id="矩形_2031" data-name="矩形 2031" width="58.3" height="18.3" rx="9.15" transform="translate(8.35 27.34)" fill="#fff"/>
  <rect id="矩形_2032" data-name="矩形 2032" width="59.23" height="19.23" rx="9.615" transform="translate(7.88 26.87)" fill="url(#linear-gradient)"/>
  <rect id="矩形_2033" data-name="矩形 2033" width="58.5" height="18.5" rx="9.25" transform="translate(8.25 27.24)" fill="url(#linear-gradient-2)"/>
  <rect id="矩形_2034" data-name="矩形 2034" width="58" height="18" rx="9" transform="translate(8.5 27.49)" opacity="0.6"/>
  <path id="路径_999" data-name="路径 999" d="M530,154a4,4,0,0,1,0-8h40a4,4,0,0,1,0,8Z" transform="translate(-512.49 -113.5)" opacity="0.6"/>
  <circle id="椭圆_203" data-name="椭圆 203" cx="9" cy="9" r="9" transform="translate(48.5 27.79)" opacity="0.7"/>
  <g transform="matrix(1, 0, 0, 1, 0, 0)" filter="url(#_01)">
    <circle id="_01-2" data-name="01" cx="9" cy="9" r="9" transform="translate(48.25 27.49)" fill="url(#radial-gradient)"/>
  </g>
  <circle id="椭圆_205" data-name="椭圆 205" cx="9" cy="9" r="9" transform="translate(48.25 27.49)" fill="url(#radial-gradient-2)"/>
  <g id="组_1033" data-name="组 1033" transform="translate(-493 -103.52)">
    <ellipse id="椭圆_206" data-name="椭圆 206" cx="2.81" cy="1.08" rx="2.81" ry="1.08" transform="matrix(0.883, -0.47, 0.47, 0.883, 543.386, 134.318)" fill="url(#radial-gradient-3)"/>
  </g>
  <rect id="矩形_2559" data-name="矩形 2559" width="10" height="3" rx="1.5" transform="translate(18 35)" fill="#c40808"/>
  <rect id="矩形_2669" data-name="矩形 2669" width="72" height="72" fill="none"/>
</svg>
