<svg id="_38" data-name="38" xmlns="http://www.w3.org/2000/svg" xmlns:xlink="http://www.w3.org/1999/xlink" width="72" height="75.418" viewBox="0 0 72 75.418" style="transform:rotate(90deg);">
  <defs>
    <filter id="矩形_2538" x="1.082" y="5.082" width="70.336" height="70.336" filterUnits="userSpaceOnUse">
      <feOffset dy="4" input="SourceAlpha"/>
      <feGaussianBlur stdDeviation="1.5" result="blur"/>
      <feFlood flood-opacity="0.302"/>
      <feComposite operator="in" in2="blur"/>
      <feComposite in="SourceGraphic"/>
    </filter>
    <linearGradient id="linear-gradient" x1="0.5" x2="0.5" y2="1" gradientUnits="objectBoundingBox">
      <stop offset="0" stop-color="#333"/>
      <stop offset="1" stop-color="#1e1e1e"/>
    </linearGradient>
    <filter id="矩形_2606" x="4.082" y="8.082" width="64.336" height="64.336" filterUnits="userSpaceOnUse">
      <feOffset dy="4" input="SourceAlpha"/>
      <feGaussianBlur stdDeviation="1.5" result="blur-2"/>
      <feFlood flood-opacity="0.302"/>
      <feComposite operator="in" in2="blur-2"/>
      <feComposite in="SourceGraphic"/>
    </filter>
    <linearGradient id="linear-gradient-2" x1="0.5" x2="0.5" y2="1" gradientUnits="objectBoundingBox">
      <stop offset="0" stop-color="#535353"/>
      <stop offset="1" stop-color="#262626"/>
    </linearGradient>
    <filter id="变色层" x="4.04" y="8.035" width="64.531" height="64.437" filterUnits="userSpaceOnUse">
      <feOffset dy="4" input="SourceAlpha"/>
      <feGaussianBlur stdDeviation="3" result="blur-3"/>
      <feFlood flood-opacity="0.702"/>
      <feComposite operator="in" in2="blur-3"/>
      <feComposite in="SourceGraphic"/>
    </filter>
    <radialGradient id="radial-gradient" cx="0.159" cy="0.161" r="0.481" gradientTransform="translate(0.16 -0.066) rotate(44.854)" gradientUnits="objectBoundingBox">
      <stop offset="0" stop-color="#fff"/>
      <stop offset="0.931" stop-color="#fff" stop-opacity="0"/>
      <stop offset="1" stop-color="#fff" stop-opacity="0"/>
    </radialGradient>
    <radialGradient id="radial-gradient-2" cx="0.5" cy="0.5" r="0.5" gradientUnits="objectBoundingBox">
      <stop offset="0" stop-opacity="0"/>
      <stop offset="0.851" stop-color="#fff" stop-opacity="0.078"/>
      <stop offset="0.962" stop-opacity="0.122"/>
      <stop offset="1" stop-color="#fff" stop-opacity="0.129"/>
    </radialGradient>
    <radialGradient id="radial-gradient-3" cx="0.277" cy="0.212" r="0.502" gradientTransform="translate(0.55 0.577) rotate(-159.369)" gradientUnits="objectBoundingBox">
      <stop offset="0" stop-color="#fff"/>
      <stop offset="1" stop-color="#fff" stop-opacity="0"/>
    </radialGradient>
    <radialGradient id="radial-gradient-4" cx="0.5" cy="0.5" r="0.5" gradientTransform="matrix(1, 0, 0, 1, 0, 0)" xlink:href="#radial-gradient-3"/>
    <filter id="路径_2470" x="7.965" y="10.961" width="56.579" height="56.579" filterUnits="userSpaceOnUse">
      <feOffset dy="3" input="SourceAlpha"/>
      <feGaussianBlur stdDeviation="3" result="blur-4"/>
      <feFlood flood-opacity="0.161"/>
      <feComposite operator="in" in2="blur-4"/>
      <feComposite in="SourceGraphic"/>
    </filter>
    <linearGradient id="linear-gradient-3" x1="0.5" x2="0.5" y2="1" gradientUnits="objectBoundingBox">
      <stop offset="0" stop-color="#fff"/>
      <stop offset="1" stop-color="#989898"/>
    </linearGradient>
  </defs>
  <g id="组_1427" data-name="组 1427" transform="translate(-2.201 -2.201)">
    <g transform="matrix(1, 0, 0, 1, 2.2, 2.2)" filter="url(#矩形_2538)">
      <rect id="矩形_2538-2" data-name="矩形 2538" width="61.336" height="61.336" rx="30.668" transform="translate(5.58 5.58)" fill="#474747"/>
    </g>
    <path id="路径_2452" data-name="路径 2452" d="M36.08,55.5h0A22.43,22.43,0,0,1,28,53.99a21.9,21.9,0,0,0,9.157,2.047A21.4,21.4,0,0,0,58.165,38.8,23.138,23.138,0,0,1,36.08,55.5Z" transform="translate(2.328 4.775)" fill="#fff"/>
    <g transform="matrix(1, 0, 0, 1, 2.2, 2.2)" filter="url(#矩形_2606)">
      <rect id="矩形_2606-2" data-name="矩形 2606" width="55.336" height="55.336" rx="27.668" transform="translate(8.58 8.58)" fill="url(#linear-gradient)"/>
    </g>
  </g>
  <g transform="matrix(1, 0, 0, 1, 0, 0)" filter="url(#变色层)">
    <path id="变色层-2" data-name="变色层" d="M35.218,10.5h0A23.27,23.27,0,0,1,58.531,33.718h0A23.188,23.188,0,0,1,35.313,56.936h0A23.069,23.069,0,0,1,12,33.813h0A23.209,23.209,0,0,1,35.218,10.5Z" transform="translate(1.04 2.54)" fill="url(#linear-gradient-2)"/>
  </g>
  <rect id="矩形_2540" data-name="矩形 2540" width="34.287" height="34.287" rx="17.144" transform="translate(19.106 19.106)" opacity="0.31" fill="url(#radial-gradient)"/>
  <path id="路径_2451" data-name="路径 2451" d="M35.594,15.1h0A19.053,19.053,0,0,1,54.681,34.089h0A18.971,18.971,0,0,1,35.69,53.077h0A18.971,18.971,0,0,1,16.7,34.089h0A18.89,18.89,0,0,1,35.594,15.1Z" transform="translate(0.661 2.165)" fill="url(#radial-gradient-2)"/>
  <path id="路径_2453" data-name="路径 2453" d="M15.376,34.2h0A20.227,20.227,0,0,1,35.6,13.976h0a18.609,18.609,0,0,1,3.953.368,20.783,20.783,0,0,0-4.873-.644h0A19.541,19.541,0,0,0,15.1,33.283h0a21.451,21.451,0,0,0,.644,4.873A30.121,30.121,0,0,1,15.376,34.2Z" transform="translate(0.79 2.277)" opacity="0.48" fill="url(#radial-gradient-3)"/>
  <path id="路径_2455" data-name="路径 2455" d="M.262,19.439h0A19.178,19.178,0,0,1,19.439.262h0A17.644,17.644,0,0,1,23.187.61,19.7,19.7,0,0,0,18.567,0h0A18.527,18.527,0,0,0,0,18.567H0a20.338,20.338,0,0,0,.61,4.62A28.559,28.559,0,0,1,.262,19.439Z" transform="translate(55.341 55.429) rotate(180)" fill="url(#radial-gradient-4)"/>
  <g transform="matrix(1, 0, 0, 1, 0, 0)" filter="url(#路径_2470)">
    <path id="路径_2470-2" data-name="路径 2470" d="M19.289,0h0a19.289,19.289,0,0,1,0,38.579h0A19.289,19.289,0,0,1,19.289,0Z" transform="translate(55.54 55.54) rotate(180)" opacity="0" fill="url(#radial-gradient)"/>
  </g>
  <rect id="矩形_2597" data-name="矩形 2597" width="9" height="8" rx="0.5" transform="translate(32 6)" fill="#505050"/>
  <path id="交叉_15" data-name="交叉 15" d="M-2364-1318a1,1,0,0,1-1-1v-10h3v10a1,1,0,0,1-1,1Z" transform="translate(2400 1335)" fill="url(#linear-gradient-3)"/>
  <rect id="矩形_2600" data-name="矩形 2600" width="3" height="1" rx="0.5" transform="translate(32 6)" fill="#fff" opacity="0.15"/>
  <rect id="矩形_2601" data-name="矩形 2601" width="3" height="1" rx="0.5" transform="translate(38 6)" fill="#fff" opacity="0.15"/>
  <g id="组_1442" data-name="组 1442" opacity="0.19">
    <g id="组_1430" data-name="组 1430">
      <path id="交叉_16" data-name="交叉 16" d="M-1826.582-466.5v-.893q.622-.025,1.25-.025.881,0,1.751.049v.869a1.5,1.5,0,0,1-1.5,1.5A1.5,1.5,0,0,1-1826.582-466.5Z" transform="translate(1861.582 473)" fill="#fff"/>
      <path id="交叉_17" data-name="交叉 17" d="M-1826.582-466.5v-.893q.622-.025,1.25-.025.881,0,1.751.049v.869a1.5,1.5,0,0,1-1.5,1.5A1.5,1.5,0,0,1-1826.582-466.5Z" transform="translate(-1788.582 -400.418) rotate(180)" fill="#fff"/>
    </g>
    <g id="组_1431" data-name="组 1431" transform="translate(72.791 -0.209) rotate(90)">
      <path id="交叉_16-2" data-name="交叉 16" d="M-1826.582-466.5v-.893q.622-.025,1.25-.025.881,0,1.751.049v.869a1.5,1.5,0,0,1-1.5,1.5A1.5,1.5,0,0,1-1826.582-466.5Z" transform="translate(1861.582 473)" fill="#fff"/>
      <path id="交叉_17-2" data-name="交叉 17" d="M-1826.582-466.5v-.893q.622-.025,1.25-.025.881,0,1.751.049v.869a1.5,1.5,0,0,1-1.5,1.5A1.5,1.5,0,0,1-1826.582-466.5Z" transform="translate(-1788.582 -400.418) rotate(180)" fill="#fff"/>
    </g>
    <g id="组_1432" data-name="组 1432" transform="matrix(0.966, 0.259, -0.259, 0.966, 10.636, -8.21)">
      <path id="交叉_16-3" data-name="交叉 16" d="M-1826.582-466.5v-.893q.622-.025,1.25-.025.881,0,1.751.049v.869a1.5,1.5,0,0,1-1.5,1.5A1.5,1.5,0,0,1-1826.582-466.5Z" transform="translate(1861.582 473)" fill="#fff"/>
      <path id="交叉_17-3" data-name="交叉 17" d="M-1826.582-466.5v-.893q.622-.025,1.25-.025.881,0,1.751.049v.869a1.5,1.5,0,0,1-1.5,1.5A1.5,1.5,0,0,1-1826.582-466.5Z" transform="translate(-1788.582 -400.418) rotate(180)" fill="#fff"/>
    </g>
    <g id="组_1433" data-name="组 1433" transform="matrix(-0.259, 0.966, -0.966, -0.259, 81.001, 10.427)">
      <path id="交叉_16-4" data-name="交叉 16" d="M-1826.582-466.5v-.893q.622-.025,1.25-.025.881,0,1.751.049v.869a1.5,1.5,0,0,1-1.5,1.5A1.5,1.5,0,0,1-1826.582-466.5Z" transform="translate(1861.582 473)" fill="#fff"/>
      <path id="交叉_17-4" data-name="交叉 17" d="M-1826.582-466.5v-.893q.622-.025,1.25-.025.881,0,1.751.049v.869a1.5,1.5,0,0,1-1.5,1.5A1.5,1.5,0,0,1-1826.582-466.5Z" transform="translate(-1788.582 -400.418) rotate(180)" fill="#fff"/>
    </g>
    <g id="组_1434" data-name="组 1434" transform="translate(23.036 -13.388) rotate(30)">
      <path id="交叉_16-5" data-name="交叉 16" d="M-1826.582-466.5v-.893q.622-.025,1.25-.025.881,0,1.751.049v.869a1.5,1.5,0,0,1-1.5,1.5A1.5,1.5,0,0,1-1826.582-466.5Z" transform="translate(1861.582 473)" fill="#fff"/>
      <path id="交叉_17-5" data-name="交叉 17" d="M-1826.582-466.5v-.893q.622-.025,1.25-.025.881,0,1.751.049v.869a1.5,1.5,0,0,1-1.5,1.5A1.5,1.5,0,0,1-1826.582-466.5Z" transform="translate(-1788.582 -400.418) rotate(180)" fill="#fff"/>
    </g>
    <g id="组_1435" data-name="组 1435" transform="translate(86.179 22.826) rotate(120)">
      <path id="交叉_16-6" data-name="交叉 16" d="M-1826.582-466.5v-.893q.622-.025,1.25-.025.881,0,1.751.049v.869a1.5,1.5,0,0,1-1.5,1.5A1.5,1.5,0,0,1-1826.582-466.5Z" transform="translate(1861.582 473)" fill="#fff"/>
      <path id="交叉_17-6" data-name="交叉 17" d="M-1826.582-466.5v-.893q.622-.025,1.25-.025.881,0,1.751.049v.869a1.5,1.5,0,0,1-1.5,1.5A1.5,1.5,0,0,1-1826.582-466.5Z" transform="translate(-1788.582 -400.418) rotate(180)" fill="#fff"/>
    </g>
    <g id="组_1436" data-name="组 1436" transform="translate(36.352 -15.18) rotate(45)">
      <path id="交叉_16-7" data-name="交叉 16" d="M-1826.582-466.5v-.893q.622-.025,1.25-.025.881,0,1.751.049v.869a1.5,1.5,0,0,1-1.5,1.5A1.5,1.5,0,0,1-1826.582-466.5Z" transform="translate(1861.582 473)" fill="#fff"/>
      <path id="交叉_17-7" data-name="交叉 17" d="M-1826.582-466.5v-.893q.622-.025,1.25-.025.881,0,1.751.049v.869a1.5,1.5,0,0,1-1.5,1.5A1.5,1.5,0,0,1-1826.582-466.5Z" transform="translate(-1788.582 -400.418) rotate(180)" fill="#fff"/>
    </g>
    <g id="组_1437" data-name="组 1437" transform="translate(87.971 36.143) rotate(135)">
      <path id="交叉_16-8" data-name="交叉 16" d="M-1826.582-466.5v-.893q.622-.025,1.25-.025.881,0,1.751.049v.869a1.5,1.5,0,0,1-1.5,1.5A1.5,1.5,0,0,1-1826.582-466.5Z" transform="translate(1861.582 473)" fill="#fff"/>
      <path id="交叉_17-8" data-name="交叉 17" d="M-1826.582-466.5v-.893q.622-.025,1.25-.025.881,0,1.751.049v.869a1.5,1.5,0,0,1-1.5,1.5A1.5,1.5,0,0,1-1826.582-466.5Z" transform="translate(-1788.582 -400.418) rotate(180)" fill="#fff"/>
    </g>
    <g id="组_1438" data-name="组 1438" transform="translate(49.679 -13.465) rotate(60)">
      <path id="交叉_16-9" data-name="交叉 16" d="M-1826.582-466.5v-.893q.622-.025,1.25-.025.881,0,1.751.049v.869a1.5,1.5,0,0,1-1.5,1.5A1.5,1.5,0,0,1-1826.582-466.5Z" transform="translate(1861.582 473)" fill="#fff"/>
      <path id="交叉_17-9" data-name="交叉 17" d="M-1826.582-466.5v-.893q.622-.025,1.25-.025.881,0,1.751.049v.869a1.5,1.5,0,0,1-1.5,1.5A1.5,1.5,0,0,1-1826.582-466.5Z" transform="translate(-1788.582 -400.418) rotate(180)" fill="#fff"/>
    </g>
    <g id="组_1439" data-name="组 1439" transform="translate(86.256 49.47) rotate(150)">
      <path id="交叉_16-10" data-name="交叉 16" d="M-1826.582-466.5v-.893q.622-.025,1.25-.025.881,0,1.751.049v.869a1.5,1.5,0,0,1-1.5,1.5A1.5,1.5,0,0,1-1826.582-466.5Z" transform="translate(1861.582 473)" fill="#fff"/>
      <path id="交叉_17-10" data-name="交叉 17" d="M-1826.582-466.5v-.893q.622-.025,1.25-.025.881,0,1.751.049v.869a1.5,1.5,0,0,1-1.5,1.5A1.5,1.5,0,0,1-1826.582-466.5Z" transform="translate(-1788.582 -400.418) rotate(180)" fill="#fff"/>
    </g>
    <g id="组_1440" data-name="组 1440" transform="matrix(0.259, 0.966, -0.966, 0.259, 62.108, -8.358)">
      <path id="交叉_16-11" data-name="交叉 16" d="M-1826.582-466.5v-.893q.622-.025,1.25-.025.881,0,1.751.049v.869a1.5,1.5,0,0,1-1.5,1.5A1.5,1.5,0,0,1-1826.582-466.5Z" transform="translate(1861.582 473)" fill="#fff"/>
      <path id="交叉_17-11" data-name="交叉 17" d="M-1826.582-466.5v-.893q.622-.025,1.25-.025.881,0,1.751.049v.869a1.5,1.5,0,0,1-1.5,1.5A1.5,1.5,0,0,1-1826.582-466.5Z" transform="translate(-1788.582 -400.418) rotate(180)" fill="#fff"/>
    </g>
    <g id="组_1441" data-name="组 1441" transform="matrix(-0.966, 0.259, -0.259, -0.966, 81.149, 61.898)">
      <path id="交叉_16-12" data-name="交叉 16" d="M-1826.582-466.5v-.893q.622-.025,1.25-.025.881,0,1.751.049v.869a1.5,1.5,0,0,1-1.5,1.5A1.5,1.5,0,0,1-1826.582-466.5Z" transform="translate(1861.582 473)" fill="#fff"/>
      <path id="交叉_17-12" data-name="交叉 17" d="M-1826.582-466.5v-.893q.622-.025,1.25-.025.881,0,1.751.049v.869a1.5,1.5,0,0,1-1.5,1.5A1.5,1.5,0,0,1-1826.582-466.5Z" transform="translate(-1788.582 -400.418) rotate(180)" fill="#fff"/>
    </g>
  </g>
  <rect id="矩形_2703" data-name="矩形 2703" width="72" height="72" fill="none"/>
</svg>
