
<svg id="_05" data-name="05" xmlns="http://www.w3.org/2000/svg" width="72" height="72" viewBox="0 0 72 72">
  <path class="shapeChangeFill" d="M5,0H53a5,5,0,0,1,5,5V53a5,5,0,0,1-5,5H5a5,5,0,0,1-5-5V5A5,5,0,0,1,5,0Z" transform="translate(7 7)" fill="#dfdfdf"/>
  <path id="减去_35" data-name="减去 35" d="M-2847-500h-48a5.005,5.005,0,0,1-5-5v-48a5.005,5.005,0,0,1,5-5h48a5.006,5.006,0,0,1,5,5v48A5.005,5.005,0,0,1-2847-500Zm-44-54a5.006,5.006,0,0,0-5,5v40a5.006,5.006,0,0,0,5,5h40a5.006,5.006,0,0,0,5-5v-40a5.006,5.006,0,0,0-5-5Z" transform="translate(2907 565)" fill="#fff" opacity="0.35"/>
  <rect id="矩形_2710" data-name="矩形 2710" width="72" height="72" fill="none"/>
</svg>
