<svg id="_001-1" data-name="001-1" xmlns="http://www.w3.org/2000/svg" xmlns:xlink="http://www.w3.org/1999/xlink" width="72" height="72" viewBox="0 0 72 72">
  <defs>
    <linearGradient id="linear-gradient" x1="0.5" y1="1" x2="0.5" y2="-0.005" gradientUnits="objectBoundingBox">
      <stop offset="0"/>
      <stop offset="1" stop-color="#fff"/>
    </linearGradient>
    <linearGradient id="linear-gradient-2" x1="0.5" y1="-0.002" x2="0.5" y2="0.998" gradientUnits="objectBoundingBox">
      <stop offset="0" stop-color="#ddd" stop-opacity="0.059"/>
      <stop offset="1" stop-opacity="0.702"/>
    </linearGradient>
    <linearGradient id="linear-gradient-3" x1="0.5" x2="0.5" y2="1" gradientUnits="objectBoundingBox">
      <stop offset="0" stop-color="#fff" stop-opacity="0.459"/>
      <stop offset="1" stop-opacity="0.388"/>
    </linearGradient>
  </defs>
  <g id="椭圆_117" data-name="椭圆 117" fill="#fafd00" stroke="#707070" stroke-width="0.1">
    <circle cx="36" cy="36" r="36" stroke="none"/>
    <circle cx="36" cy="36" r="35.95" fill="none"/>
  </g>
  <g id="组_983" data-name="组 983" transform="translate(-1573 101)">
    <ellipse id="颜色层" cx="29" cy="29" rx="29" ry="29" transform="translate(1580 -94.2)" fill="red"/>
    <ellipse id="椭圆_95" data-name="椭圆 95" cx="26.39" cy="26.39" rx="26.39" ry="26.39" transform="translate(1582.61 -91.59)" opacity="0.15" fill="url(#linear-gradient)"/>
    <path id="路径_621" data-name="路径 621" d="M48.7,30.3a29,29,0,1,0,29,29A29.085,29.085,0,0,0,48.7,30.3Zm0,55.39A26.39,26.39,0,1,1,75.09,59.3,26.486,26.486,0,0,1,48.7,85.69Z" transform="translate(1560.3 -124.5)" opacity="0.6" fill="url(#linear-gradient-2)"/>
    <path id="路径_622" data-name="路径 622" d="M46.99,31.39A26.39,26.39,0,1,1,20.6,57.78,26.486,26.486,0,0,1,46.99,31.39m0-.29A26.39,26.39,0,1,0,73.38,57.49,26.486,26.486,0,0,0,46.99,31.1Z" transform="translate(1562.01 -122.98)" fill="url(#linear-gradient-3)"/>
    <g id="组_982" data-name="组 982" transform="translate(1587.147 -87.142)" opacity="0.8">
      <g id="组_932" data-name="组 932" transform="translate(5.033)">
        <path id="路径_623" data-name="路径 623" d="M26.51,43.076l-2.61-2.32a21.649,21.649,0,0,1,30.45-3.19l2.61,2.32-10.73,2.9,2.9-4.35A18.324,18.324,0,0,0,26.51,43.076Z" transform="translate(-23.9 -32.734)" fill="#fff"/>
      </g>
      <g id="组_933" data-name="组 933" transform="translate(0 15.272)">
        <path id="路径_624" data-name="路径 624" d="M30.388,61.78a26.871,26.871,0,0,1-4.06-4.06,20.271,20.271,0,0,1-3.77-16.24l.58-3.48,7.83,8.12-5.22-.29a20.216,20.216,0,0,0,3.48,9.86,16.8,16.8,0,0,0,11.89,7.25l-.58,3.48A25.017,25.017,0,0,1,30.388,61.78Z" transform="translate(-22.164 -38)" fill="#fff"/>
      </g>
      <g id="组_934" data-name="组 934" transform="translate(26.493 14.112)">
        <path id="路径_625" data-name="路径 625" d="M31.3,67.18l2.9-11.02,2.32,4.64a18.991,18.991,0,0,0,7.25-22.04l3.19-1.16A21.869,21.869,0,0,1,34.49,65.73Z" transform="translate(-31.3 -37.6)" fill="#fff"/>
      </g>
    </g>
  </g>
</svg>
