<svg id="_18-1" data-name="18-1" xmlns="http://www.w3.org/2000/svg" xmlns:xlink="http://www.w3.org/1999/xlink" width="72" height="72" viewBox="0 0 72 72">
  <defs>
    <linearGradient id="linear-gradient" x1="-0.006" y1="0.496" x2="1" y2="0.496" gradientUnits="objectBoundingBox">
      <stop offset="0" stop-color="#4a4a4a"/>
      <stop offset="0.084" stop-color="#d6d6d6"/>
      <stop offset="0.522" stop-color="#e8e8e8"/>
      <stop offset="0.94" stop-color="#a8a8a8"/>
      <stop offset="1" stop-color="#fff"/>
    </linearGradient>
    <linearGradient id="linear-gradient-2" x1="0.5" y1="1.001" x2="0.5" y2="-0.004" gradientUnits="objectBoundingBox">
      <stop offset="0" stop-opacity="0.2"/>
      <stop offset="0.154" stop-color="#231815" stop-opacity="0.027"/>
      <stop offset="1" stop-opacity="0"/>
    </linearGradient>
    <linearGradient id="linear-gradient-3" x1="0.5" y1="0.999" x2="0.5" y2="-0.001" gradientUnits="objectBoundingBox">
      <stop offset="0" stop-color="#fff"/>
      <stop offset="0.07" stop-color="#d6d6d6"/>
      <stop offset="1" stop-color="#e6e6e6"/>
    </linearGradient>
    <filter id="路径_2460" x="18" y="7" width="35" height="37.5" filterUnits="userSpaceOnUse">
      <feOffset dx="-1.5" dy="4" input="SourceAlpha"/>
      <feGaussianBlur stdDeviation="1.5" result="blur"/>
      <feFlood flood-opacity="0.161"/>
      <feComposite operator="in" in2="blur"/>
      <feComposite in="SourceGraphic"/>
    </filter>
    <linearGradient id="linear-gradient-4" x1="0.5" y1="0.999" x2="0.5" y2="-0.001" gradientUnits="objectBoundingBox">
      <stop offset="0" stop-color="#d9d9d9"/>
      <stop offset="0.934" stop-color="#fff"/>
      <stop offset="1" stop-color="#f4f4f4"/>
    </linearGradient>
    <linearGradient id="linear-gradient-5" x1="0.5" y1="1.019" x2="0.5" gradientUnits="objectBoundingBox">
      <stop offset="0" stop-color="#dfdfdf"/>
      <stop offset="0.267" stop-color="#fff"/>
      <stop offset="1" stop-color="#5e5e5e"/>
    </linearGradient>
  </defs>
  <g id="未标题-4-01" transform="translate(69 72.4) rotate(180)">
    <path id="路径_2456" data-name="路径 2456" d="M43.029,70.4H20.971c-.809,0-1.471-.9-1.471-2V4.4c0-1.1.662-2,1.471-2H43.029c.809,0,1.471.9,1.471,2v64C44.5,69.5,43.838,70.4,43.029,70.4Z" fill="#474747"/>
    <path id="路径_2457" data-name="路径 2457" d="M19.5,63.9l.368,3.7c0,1.3.662,2.3,1.471,2.3H42.662c.809,0,1.471-1,1.471-2.3l.368-3.7h-25Z" fill="url(#linear-gradient)"/>
    <path id="路径_2458" data-name="路径 2458" d="M19.5,63.9l.368,3.7c0,1.3.662,2.3,1.471,2.3H42.662c.809,0,1.471-1,1.471-2.3l.368-3.7h-25Z" fill="url(#linear-gradient-2)"/>
    <path id="路径_2459" data-name="路径 2459" d="M19.743,36.6,19,63.1c0,1.1.669,2,1.486,2H43.514c.817,0,1.486-.9,1.486-2l-.743-26.5Z" fill="#dbdbdb"/>
    <g transform="matrix(-1, 0, 0, -1, 69, 72.4)" filter="url(#路径_2460)">
      <path id="路径_2460-2" data-name="路径 2460" d="M19.743,36.4,19,62.9c0,1.1.669,2,1.486,2H43.514c.817,0,1.486-.9,1.486-2l-.743-26.5Z" transform="translate(69 72.4) rotate(180)" fill="url(#linear-gradient-3)"/>
    </g>
    <path id="路径_2461" data-name="路径 2461" d="M44,36.4V4.9c0-1.1-.655-2-1.455-2H21.455c-.8,0-1.455.9-1.455,2V36.4Z" fill="url(#linear-gradient-4)"/>
    <rect id="矩形_2557" data-name="矩形 2557" width="24" height="0.9" transform="translate(20 36)" opacity="0.8" fill="url(#linear-gradient-5)"/>
  </g>
  <text id="ON" transform="translate(37 22)" fill="#08c408" font-size="8" font-family="PingFang SC Heavy, PingFang SC"><tspan x="-6.028" y="0">ON</tspan></text>
  <text id="OFF" transform="translate(37 55)" fill="#515b6f" font-size="8" font-family="PingFang SC Heavy, PingFang SC"><tspan x="-7.756" y="0">OFF</tspan></text>
  <rect id="矩形_2683" data-name="矩形 2683" width="72" height="72" fill="none"/>
</svg>
