<svg xmlns="http://www.w3.org/2000/svg" width="238" height="116" viewBox="0 0 238 116">
  <g id="组_1547" data-name="组 1547" transform="translate(21153 20510)">
    <g id="组_1345" data-name="组 1345" transform="translate(-21163 -20525)">
      <g id="矩形_1125" data-name="矩形 1125" transform="translate(10 15)" fill="#fff" stroke="#ccc" stroke-width="1">
        <rect width="80" height="24" stroke="none"/>
        <rect x="0.5" y="0.5" width="79" height="23" fill="none"/>
      </g>
      <g id="矩形_1125-2" data-name="矩形 1125" transform="translate(10 38)" fill="#fff" stroke="#ccc" stroke-width="1">
        <rect width="80" height="24" stroke="none"/>
        <rect x="0.5" y="0.5" width="79" height="23" fill="none"/>
      </g>
      <g id="矩形_1125-3" data-name="矩形 1125" transform="translate(10 61)" fill="#fff" stroke="#ccc" stroke-width="1">
        <rect width="80" height="24" stroke="none"/>
        <rect x="0.5" y="0.5" width="79" height="23" fill="none"/>
      </g>
      <g id="矩形_1125-4" data-name="矩形 1125" transform="translate(10 84)" fill="#fff" stroke="#ccc" stroke-width="1">
        <rect width="80" height="24" stroke="none"/>
        <rect x="0.5" y="0.5" width="79" height="23" fill="none"/>
      </g>
      <g id="矩形_1125-5" data-name="矩形 1125" transform="translate(10 107)" fill="#fff" stroke="#ccc" stroke-width="1">
        <rect width="80" height="24" stroke="none"/>
        <rect x="0.5" y="0.5" width="79" height="23" fill="none"/>
      </g>
    </g>
    <g id="组_1346" data-name="组 1346" transform="translate(-21084 -20525)">
      <g id="矩形_1125-6" data-name="矩形 1125" transform="translate(10 15)" fill="#fff" stroke="#ccc" stroke-width="1">
        <rect width="80" height="24" stroke="none"/>
        <rect x="0.5" y="0.5" width="79" height="23" fill="none"/>
      </g>
      <g id="矩形_1125-7" data-name="矩形 1125" transform="translate(10 38)" fill="#fff" stroke="#ccc" stroke-width="1">
        <rect width="80" height="24" stroke="none"/>
        <rect x="0.5" y="0.5" width="79" height="23" fill="none"/>
      </g>
      <g id="矩形_1125-8" data-name="矩形 1125" transform="translate(10 61)" fill="#fff" stroke="#ccc" stroke-width="1">
        <rect width="80" height="24" stroke="none"/>
        <rect x="0.5" y="0.5" width="79" height="23" fill="none"/>
      </g>
      <g id="矩形_1125-9" data-name="矩形 1125" transform="translate(10 84)" fill="#fff" stroke="#ccc" stroke-width="1">
        <rect width="80" height="24" stroke="none"/>
        <rect x="0.5" y="0.5" width="79" height="23" fill="none"/>
      </g>
      <g id="矩形_1125-10" data-name="矩形 1125" transform="translate(10 107)" fill="#fff" stroke="#ccc" stroke-width="1">
        <rect width="80" height="24" stroke="none"/>
        <rect x="0.5" y="0.5" width="79" height="23" fill="none"/>
      </g>
    </g>
    <g id="组_1347" data-name="组 1347" transform="translate(-21005 -20525)">
      <g id="矩形_1125-11" data-name="矩形 1125" transform="translate(10 15)" fill="#fff" stroke="#ccc" stroke-width="1">
        <rect width="80" height="24" stroke="none"/>
        <rect x="0.5" y="0.5" width="79" height="23" fill="none"/>
      </g>
      <g id="矩形_1125-12" data-name="矩形 1125" transform="translate(10 38)" fill="#fff" stroke="#ccc" stroke-width="1">
        <rect width="80" height="24" stroke="none"/>
        <rect x="0.5" y="0.5" width="79" height="23" fill="none"/>
      </g>
      <g id="矩形_1125-13" data-name="矩形 1125" transform="translate(10 61)" fill="#fff" stroke="#ccc" stroke-width="1">
        <rect width="80" height="24" stroke="none"/>
        <rect x="0.5" y="0.5" width="79" height="23" fill="none"/>
      </g>
      <g id="矩形_1125-14" data-name="矩形 1125" transform="translate(10 84)" fill="#fff" stroke="#ccc" stroke-width="1">
        <rect width="80" height="24" stroke="none"/>
        <rect x="0.5" y="0.5" width="79" height="23" fill="none"/>
      </g>
      <g id="矩形_1125-15" data-name="矩形 1125" transform="translate(10 107)" fill="#fff" stroke="#ccc" stroke-width="1">
        <rect width="80" height="24" stroke="none"/>
        <rect x="0.5" y="0.5" width="79" height="23" fill="none"/>
      </g>
    </g>
  </g>
</svg>
