<svg xmlns="http://www.w3.org/2000/svg" width="289.999" height="149" viewBox="0 0 289.999 149">
  <g id="组_1569" data-name="组 1569" transform="translate(-11 -13)">
    <g id="组_1316" data-name="组 1316" transform="translate(0 4)">
      <path id="路径_854" data-name="路径 854" d="M-15017-21026.623h-263.5" transform="translate(15315.743 21054.123)" fill="none" stroke="#f3f3f3" stroke-linecap="round" stroke-width="1"/>
      <path id="路径_855" data-name="路径 855" d="M-15017-21026.623h-263.5" transform="translate(15315.743 21079.123)" fill="none" stroke="#f3f3f3" stroke-linecap="round" stroke-width="1"/>
      <path id="路径_856" data-name="路径 856" d="M-15017-21026.623h-263.5" transform="translate(15315.743 21104.123)" fill="none" stroke="#f3f3f3" stroke-linecap="round" stroke-width="1"/>
      <path id="路径_857" data-name="路径 857" d="M-15017-21026.623h-263.5" transform="translate(15315.743 21129.123)" fill="none" stroke="#f3f3f3" stroke-linecap="round" stroke-width="1"/>
      <path id="路径_858" data-name="路径 858" d="M-15017-21026.623h-263.5" transform="translate(15315.743 21154.123)" fill="none" stroke="#f3f3f3" stroke-linecap="round" stroke-width="1"/>
    </g>
    <path id="路径_853" data-name="路径 853" d="M-15280.463-21026.623h2.947" transform="translate(15312.759 21058.123)" fill="none" stroke="#707070" stroke-linecap="round" stroke-width="1"/>
    <path id="路径_853-2" data-name="路径 853" d="M-15280.463-21026.623h2.947" transform="translate(15312.759 21083.123)" fill="none" stroke="#707070" stroke-linecap="round" stroke-width="1"/>
    <path id="路径_853-3" data-name="路径 853" d="M-15280.463-21026.623h2.947" transform="translate(15312.759 21108.123)" fill="none" stroke="#707070" stroke-linecap="round" stroke-width="1"/>
    <path id="路径_853-4" data-name="路径 853" d="M-15280.463-21026.623h2.947" transform="translate(15312.759 21133.123)" fill="none" stroke="#707070" stroke-linecap="round" stroke-width="1"/>
    <path id="路径_853-5" data-name="路径 853" d="M-15280.463-21026.623h2.947" transform="translate(15312.759 21158.123)" fill="none" stroke="#707070" stroke-linecap="round" stroke-width="1"/>
    <path id="路径_853-6" data-name="路径 853" d="M-15280.463-21026.623h2.947" transform="translate(15312.759 21182.123)" fill="none" stroke="#707070" stroke-linecap="round" stroke-width="1"/>
    <text id="_100" data-name="100" transform="translate(29 35)" fill="#515b6f" font-size="10" font-family="PingFang SC Medium, PingFang SC"><tspan x="-18" y="0">100</tspan></text>
    <text id="_80" data-name="80" transform="translate(29 59.999)" fill="#515b6f" font-size="10" font-family="PingFang SC Medium, PingFang SC"><tspan x="-12" y="0">80</tspan></text>
    <text id="_60" data-name="60" transform="translate(29 85)" fill="#515b6f" font-size="10" font-family="PingFang SC Medium, PingFang SC"><tspan x="-12" y="0">60</tspan></text>
    <text id="_40" data-name="40" transform="translate(29 109)" fill="#515b6f" font-size="10" font-family="PingFang SC Medium, PingFang SC"><tspan x="-12" y="0">40</tspan></text>
    <text id="_20" data-name="20" transform="translate(29 134.001)" fill="#515b6f" font-size="10" font-family="PingFang SC Medium, PingFang SC"><tspan x="-12" y="0">20</tspan></text>
    <text id="_0" data-name="0" transform="translate(29 159)" fill="#515b6f" font-size="10" font-family="PingFang SC Medium, PingFang SC"><tspan x="-6" y="0">0</tspan></text>
    <g id="组_1313" data-name="组 1313" transform="translate(201.781 12)">
      <text id="通道1" transform="translate(8.219 8)" fill="#515b6f" font-size="7" font-family="PingFang SC Medium, PingFang SC"><tspan x="0" y="0">通道1</tspan></text>
      <circle id="椭圆_181" data-name="椭圆 181" cx="2.5" cy="2.5" r="2.5" transform="translate(0.219 3)" fill="#515b6f"/>
    </g>
    <g id="组_1314" data-name="组 1314" transform="translate(238.223 12)">
      <text id="通道2" transform="translate(7.776 8)" fill="#515b6f" font-size="7" font-family="PingFang SC Medium, PingFang SC"><tspan x="0" y="0">通道2</tspan></text>
      <circle id="椭圆_181-2" data-name="椭圆 181" cx="2.5" cy="2.5" r="2.5" transform="translate(-0.224 3)" fill="#478de9"/>
    </g>
    <g id="组_1315" data-name="组 1315" transform="translate(273.664 12)">
      <text id="通道3" transform="translate(8.335 8)" fill="#515b6f" font-size="7" font-family="PingFang SC Medium, PingFang SC"><tspan x="0" y="0">通道3</tspan></text>
      <circle id="椭圆_181-3" data-name="椭圆 181" cx="2.5" cy="2.5" r="2.5" transform="translate(0.335 3)" fill="#50c6fa"/>
    </g>
    <g id="组_1444" data-name="组 1444" transform="translate(18357 -6522)">
      <g id="组_1443" data-name="组 1443" transform="translate(4)">
        <rect id="矩形_1146" data-name="矩形 1146" width="10" height="87" transform="translate(-18310 6591)" fill="#515b6f"/>
        <rect id="矩形_1147" data-name="矩形 1147" width="10" height="43" transform="translate(-18298 6635)" fill="#478de9"/>
        <rect id="矩形_1148" data-name="矩形 1148" width="10" height="56" transform="translate(-18286 6622)" fill="#50c6fa"/>
      </g>
    </g>
    <g id="组_1445" data-name="组 1445" transform="translate(18424 -6522)">
      <g id="组_1443-2" data-name="组 1443" transform="translate(4)">
        <rect id="矩形_1146-2" data-name="矩形 1146" width="10" height="87" transform="translate(-18310 6591)" fill="#515b6f"/>
        <rect id="矩形_1147-2" data-name="矩形 1147" width="10" height="43" transform="translate(-18298 6635)" fill="#478de9"/>
        <rect id="矩形_1148-2" data-name="矩形 1148" width="10" height="56" transform="translate(-18286 6622)" fill="#50c6fa"/>
      </g>
    </g>
    <g id="组_1446" data-name="组 1446" transform="translate(18490 -6522)">
      <g id="组_1443-3" data-name="组 1443" transform="translate(4)">
        <rect id="矩形_1146-3" data-name="矩形 1146" width="10" height="87" transform="translate(-18310 6591)" fill="#515b6f"/>
        <rect id="矩形_1147-3" data-name="矩形 1147" width="10" height="43" transform="translate(-18298 6635)" fill="#478de9"/>
        <rect id="矩形_1148-3" data-name="矩形 1148" width="10" height="56" transform="translate(-18286 6622)" fill="#50c6fa"/>
      </g>
    </g>
    <g id="组_1447" data-name="组 1447" transform="translate(18557 -6522)">
      <g id="组_1443-4" data-name="组 1443" transform="translate(4)">
        <rect id="矩形_1146-4" data-name="矩形 1146" width="10" height="87" transform="translate(-18310 6591)" fill="#515b6f"/>
        <rect id="矩形_1147-4" data-name="矩形 1147" width="10" height="43" transform="translate(-18298 6635)" fill="#478de9"/>
        <rect id="矩形_1148-4" data-name="矩形 1148" width="10" height="56" transform="translate(-18286 6622)" fill="#50c6fa"/>
      </g>
    </g>
    <path id="路径_849" data-name="路径 849" d="M-15278.26-21026.625v124.123h263.045" transform="translate(15314.002 21058.002)" fill="none" stroke="#707070" stroke-linecap="round" stroke-width="1"/>
  </g>
</svg>
