<svg xmlns="http://www.w3.org/2000/svg" width="72" height="72" viewBox="0 0 72 72">
  <g id="组_1558" data-name="组 1558" transform="translate(19142 -6647)">
    <g id="矩形_1219" data-name="矩形 1219" transform="translate(-19142 6647)" fill="none" stroke="#478de9" stroke-width="1">
      <rect width="72" height="72" stroke="none"/>
      <rect x="0.5" y="0.5" width="71" height="71" fill="none"/>
    </g>
    <ellipse id="椭圆_182" data-name="椭圆 182" cx="19" cy="19" rx="19" ry="19" transform="translate(-19125 6664)" fill="#478de9"/>
    <path id="路径_862" data-name="路径 862" d="M20.983,21.017V2A19.267,19.267,0,0,0,2.7,15.787Z" transform="translate(-19126.982 6662)" fill="#8cc2ff"/>
    <path id="路径_863" data-name="路径 863" d="M2.817,13.6A19.056,19.056,0,0,0,2.1,18.83a18.085,18.085,0,0,0,3.346,10.7L21.1,18.83Z" transform="translate(-19127.1 6664.188)" fill="#b9d9fe"/>
    <path id="路径_864" data-name="路径 864" d="M13.145,35.471C16.133,28.459,20.554,18,20.554,18L4.9,28.7A19.1,19.1,0,0,0,13.145,35.471Z" transform="translate(-19126.555 6665.017)" fill="#d1e6ff"/>
    <path id="交叉_10" data-name="交叉 10" d="M0,19V0H0A19,19,0,0,1,19,19Z" transform="translate(-19106 6664)" fill="#71a5ea"/>
  </g>
</svg>
