<svg xmlns="http://www.w3.org/2000/svg" width="289.999" height="149" viewBox="0 0 289.999 149">
  <g id="组_1535" data-name="组 1535" transform="translate(-11 -13)">
    <g id="组_1534" data-name="组 1534">
      <g id="组_1459" data-name="组 1459">
        <g id="组_1316" data-name="组 1316" transform="translate(0 4)">
          <path id="路径_854" data-name="路径 854" d="M-15017-21026.623h-263.5" transform="translate(15315.743 21054.123)" fill="none" stroke="#f3f3f3" stroke-linecap="round" stroke-width="1"/>
          <path id="路径_855" data-name="路径 855" d="M-15017-21026.623h-263.5" transform="translate(15315.743 21079.123)" fill="none" stroke="#f3f3f3" stroke-linecap="round" stroke-width="1"/>
          <path id="路径_856" data-name="路径 856" d="M-15017-21026.623h-263.5" transform="translate(15315.743 21104.123)" fill="none" stroke="#f3f3f3" stroke-linecap="round" stroke-width="1"/>
          <path id="路径_857" data-name="路径 857" d="M-15017-21026.623h-263.5" transform="translate(15315.743 21129.123)" fill="none" stroke="#f3f3f3" stroke-linecap="round" stroke-width="1"/>
          <path id="路径_858" data-name="路径 858" d="M-15017-21026.623h-263.5" transform="translate(15315.743 21154.123)" fill="none" stroke="#f3f3f3" stroke-linecap="round" stroke-width="1"/>
        </g>
        <path id="路径_850" data-name="路径 850" d="M-15278.259-20995.648l28.428,3.035,30.083-4.367,29.153,15.168,27.663,29.73,30.525-7.953,29.019-28.8,28.938-12.3,30.827-1.131,27.982,26.5" transform="translate(15314.001 21070.898)" fill="none" stroke="#5ad8a6" stroke-linecap="round" stroke-linejoin="round" stroke-width="1"/>
        <path id="路径_851" data-name="路径 851" d="M-15278.259-20950.656l28.225-15.094,30.106,15.094,29.479-7.906,29.073,34.473,28.854-65.516,28.849,27.461,29.223-15.316,31.212-38.84,27.157,1.5" transform="translate(15314.001 21056.094)" fill="none" stroke="#478de9" stroke-linecap="round" stroke-linejoin="round" stroke-width="1"/>
        <path id="路径_852" data-name="路径 852" d="M-15016.075-20997.535l-28.223,10.668-30.1-10.668-29.477,5.59-29.081-24.355-28.854,46.293-28.847-19.406-29.128,13.449-31.318,24.809-27.149-1.062" transform="translate(15313.996 21071.738)" fill="none" stroke="#e94747" stroke-linecap="round" stroke-linejoin="round" stroke-width="1"/>
        <path id="路径_853" data-name="路径 853" d="M-15280.463-21026.623h2.947" transform="translate(15312.759 21058.125)" fill="none" stroke="#707070" stroke-linecap="round" stroke-width="1"/>
        <path id="路径_853-2" data-name="路径 853" d="M-15280.463-21026.623h2.947" transform="translate(15312.759 21083.125)" fill="none" stroke="#707070" stroke-linecap="round" stroke-width="1"/>
        <path id="路径_853-3" data-name="路径 853" d="M-15280.463-21026.623h2.947" transform="translate(15312.759 21108.125)" fill="none" stroke="#707070" stroke-linecap="round" stroke-width="1"/>
        <path id="路径_853-4" data-name="路径 853" d="M-15280.463-21026.623h2.947" transform="translate(15312.759 21133.125)" fill="none" stroke="#707070" stroke-linecap="round" stroke-width="1"/>
        <path id="路径_853-5" data-name="路径 853" d="M-15280.463-21026.623h2.947" transform="translate(15312.759 21158.125)" fill="none" stroke="#707070" stroke-linecap="round" stroke-width="1"/>
        <path id="路径_853-6" data-name="路径 853" d="M-15280.463-21026.623h2.947" transform="translate(15312.759 21182.125)" fill="none" stroke="#707070" stroke-linecap="round" stroke-width="1"/>
        <text id="_100" data-name="100" transform="translate(29 35)" fill="#515b6f" font-size="10" font-family="PingFang SC Medium, PingFang SC"><tspan x="-18" y="0">100</tspan></text>
        <text id="_80" data-name="80" transform="translate(29 59.999)" fill="#515b6f" font-size="10" font-family="PingFang SC Medium, PingFang SC"><tspan x="-12" y="0">80</tspan></text>
        <text id="_60" data-name="60" transform="translate(29 85)" fill="#515b6f" font-size="10" font-family="PingFang SC Medium, PingFang SC"><tspan x="-12" y="0">60</tspan></text>
        <text id="_40" data-name="40" transform="translate(29 109)" fill="#515b6f" font-size="10" font-family="PingFang SC Medium, PingFang SC"><tspan x="-12" y="0">40</tspan></text>
        <text id="_20" data-name="20" transform="translate(29 134.001)" fill="#515b6f" font-size="10" font-family="PingFang SC Medium, PingFang SC"><tspan x="-12" y="0">20</tspan></text>
        <text id="_0" data-name="0" transform="translate(29 159)" fill="#515b6f" font-size="10" font-family="PingFang SC Medium, PingFang SC"><tspan x="-6" y="0">0</tspan></text>
        <path id="路径_849" data-name="路径 849" d="M-15278.26-21026.625v124.123h263.045" transform="translate(15314.002 21058)" fill="none" stroke="#707070" stroke-linecap="round" stroke-width="1"/>
        <g id="组_1313" data-name="组 1313" transform="translate(201.781 12)">
          <text id="通道1" transform="translate(8.219 8)" fill="#515b6f" font-size="7" font-family="PingFang SC Medium, PingFang SC"><tspan x="0" y="0">通道1</tspan></text>
          <circle id="椭圆_181" data-name="椭圆 181" cx="2.5" cy="2.5" r="2.5" transform="translate(0.219 3)" fill="#478de9"/>
        </g>
        <g id="组_1314" data-name="组 1314" transform="translate(238.223 12)">
          <text id="通道2" transform="translate(7.776 8)" fill="#515b6f" font-size="7" font-family="PingFang SC Medium, PingFang SC"><tspan x="0" y="0">通道2</tspan></text>
          <circle id="椭圆_181-2" data-name="椭圆 181" cx="2.5" cy="2.5" r="2.5" transform="translate(-0.224 3)" fill="#5ad8a6"/>
        </g>
        <g id="组_1315" data-name="组 1315" transform="translate(273.664 12)">
          <text id="通道3" transform="translate(8.335 8)" fill="#515b6f" font-size="7" font-family="PingFang SC Medium, PingFang SC"><tspan x="0" y="0">通道3</tspan></text>
          <circle id="椭圆_181-3" data-name="椭圆 181" cx="2.5" cy="2.5" r="2.5" transform="translate(0.335 3)" fill="#e94747"/>
        </g>
        <g id="椭圆_203" data-name="椭圆 203" transform="translate(62 76)" fill="#fff" stroke="#5ad8a6" stroke-width="1">
          <circle cx="2" cy="2" r="2" stroke="none"/>
          <circle cx="2" cy="2" r="1.5" fill="none"/>
        </g>
        <g id="椭圆_208" data-name="椭圆 208" transform="translate(92 72)" fill="#fff" stroke="#5ad8a6" stroke-width="1">
          <circle cx="2" cy="2" r="2" stroke="none"/>
          <circle cx="2" cy="2" r="1.5" fill="none"/>
        </g>
        <g id="椭圆_210" data-name="椭圆 210" transform="translate(122 87)" fill="#fff" stroke="#5ad8a6" stroke-width="1">
          <circle cx="2" cy="2" r="2" stroke="none"/>
          <circle cx="2" cy="2" r="1.5" fill="none"/>
        </g>
        <g id="椭圆_214" data-name="椭圆 214" transform="translate(150 117)" fill="#fff" stroke="#5ad8a6" stroke-width="1">
          <circle cx="2" cy="2" r="2" stroke="none"/>
          <circle cx="2" cy="2" r="1.5" fill="none"/>
        </g>
        <g id="椭圆_220" data-name="椭圆 220" transform="translate(179 109)" fill="#fff" stroke="#5ad8a6" stroke-width="1">
          <circle cx="2" cy="2" r="2" stroke="none"/>
          <circle cx="2" cy="2" r="1.5" fill="none"/>
        </g>
        <g id="椭圆_224" data-name="椭圆 224" transform="translate(209 81)" fill="#fff" stroke="#5ad8a6" stroke-width="1">
          <circle cx="2" cy="2" r="2" stroke="none"/>
          <circle cx="2" cy="2" r="1.5" fill="none"/>
        </g>
        <g id="椭圆_226" data-name="椭圆 226" transform="translate(237 68)" fill="#fff" stroke="#5ad8a6" stroke-width="1">
          <circle cx="2" cy="2" r="2" stroke="none"/>
          <circle cx="2" cy="2" r="1.5" fill="none"/>
        </g>
        <g id="椭圆_230" data-name="椭圆 230" transform="translate(268 67)" fill="#fff" stroke="#5ad8a6" stroke-width="1">
          <circle cx="2" cy="2" r="2" stroke="none"/>
          <circle cx="2" cy="2" r="1.5" fill="none"/>
        </g>
        <g id="椭圆_204" data-name="椭圆 204" transform="translate(62 89)" fill="#fff" stroke="#478de9" stroke-width="1">
          <circle cx="2" cy="2" r="2" stroke="none"/>
          <circle cx="2" cy="2" r="1.5" fill="none"/>
        </g>
        <g id="椭圆_209" data-name="椭圆 209" transform="translate(92 103)" fill="#fff" stroke="#478de9" stroke-width="1">
          <circle cx="2" cy="2" r="2" stroke="none"/>
          <circle cx="2" cy="2" r="1.5" fill="none"/>
        </g>
        <g id="椭圆_212" data-name="椭圆 212" transform="translate(122 96)" fill="#fff" stroke="#478de9" stroke-width="1">
          <circle cx="2" cy="2" r="2" stroke="none"/>
          <circle cx="2" cy="2" r="1.5" fill="none"/>
        </g>
        <g id="椭圆_215" data-name="椭圆 215" transform="translate(150 130)" fill="#fff" stroke="#478de9" stroke-width="1">
          <circle cx="2" cy="2" r="2" stroke="none"/>
          <circle cx="2" cy="2" r="1.5" fill="none"/>
        </g>
        <g id="椭圆_221" data-name="椭圆 221" transform="translate(179 65)" fill="#fff" stroke="#478de9" stroke-width="1">
          <circle cx="2" cy="2" r="2" stroke="none"/>
          <circle cx="2" cy="2" r="1.5" fill="none"/>
        </g>
        <g id="椭圆_222" data-name="椭圆 222" transform="translate(209 92)" fill="#fff" stroke="#478de9" stroke-width="1">
          <circle cx="2" cy="2" r="2" stroke="none"/>
          <circle cx="2" cy="2" r="1.5" fill="none"/>
        </g>
        <g id="椭圆_227" data-name="椭圆 227" transform="translate(237 77)" fill="#fff" stroke="#478de9" stroke-width="1">
          <circle cx="2" cy="2" r="2" stroke="none"/>
          <circle cx="2" cy="2" r="1.5" fill="none"/>
        </g>
        <g id="椭圆_228" data-name="椭圆 228" transform="translate(268 38)" fill="#fff" stroke="#478de9" stroke-width="1">
          <circle cx="2" cy="2" r="2" stroke="none"/>
          <circle cx="2" cy="2" r="1.5" fill="none"/>
        </g>
        <g id="椭圆_205" data-name="椭圆 205" transform="translate(62 118)" fill="#fff" stroke="#e94747" stroke-width="1">
          <circle cx="2" cy="2" r="2" stroke="none"/>
          <circle cx="2" cy="2" r="1.5" fill="none"/>
        </g>
        <g id="椭圆_206" data-name="椭圆 206" transform="translate(92 94)" fill="#fff" stroke="#e94747" stroke-width="1">
          <circle cx="2" cy="2" r="2" stroke="none"/>
          <circle cx="2" cy="2" r="1.5" fill="none"/>
        </g>
        <g id="椭圆_211" data-name="椭圆 211" transform="translate(122 81)" fill="#fff" stroke="#e94747" stroke-width="1">
          <circle cx="2" cy="2" r="2" stroke="none"/>
          <circle cx="2" cy="2" r="1.5" fill="none"/>
        </g>
        <g id="椭圆_213" data-name="椭圆 213" transform="translate(150 99)" fill="#fff" stroke="#e94747" stroke-width="1">
          <circle cx="2" cy="2" r="2" stroke="none"/>
          <circle cx="2" cy="2" r="1.5" fill="none"/>
        </g>
        <g id="椭圆_219" data-name="椭圆 219" transform="translate(179 55)" fill="#fff" stroke="#e94747" stroke-width="1">
          <circle cx="2" cy="2" r="2" stroke="none"/>
          <circle cx="2" cy="2" r="1.5" fill="none"/>
        </g>
        <g id="椭圆_223" data-name="椭圆 223" transform="translate(209 77)" fill="#fff" stroke="#e94747" stroke-width="1">
          <circle cx="2" cy="2" r="2" stroke="none"/>
          <circle cx="2" cy="2" r="1.5" fill="none"/>
        </g>
        <g id="椭圆_225" data-name="椭圆 225" transform="translate(237 72)" fill="#fff" stroke="#e94747" stroke-width="1">
          <circle cx="2" cy="2" r="2" stroke="none"/>
          <circle cx="2" cy="2" r="1.5" fill="none"/>
        </g>
        <g id="椭圆_229" data-name="椭圆 229" transform="translate(268 83)" fill="#fff" stroke="#e94747" stroke-width="1">
          <circle cx="2" cy="2" r="2" stroke="none"/>
          <circle cx="2" cy="2" r="1.5" fill="none"/>
        </g>
      </g>
    </g>
  </g>
</svg>
