<svg xmlns="http://www.w3.org/2000/svg" width="278" height="150" viewBox="0 0 278 150">
  <g id="组_1545" data-name="组 1545" transform="translate(22031 19852)">
    <rect id="矩形_1214" data-name="矩形 1214" width="278" height="150" transform="translate(-22031 -19852)" fill="#fff"/>
    <path id="网址" d="M4.826,11.112A5.234,5.234,0,0,1,2.565,9.961a6.3,6.3,0,0,1,1.55-.687,6.665,6.665,0,0,0,.711,1.839Zm2.347,0a6.614,6.614,0,0,0,.711-1.84,6.37,6.37,0,0,1,1.552.685,5.229,5.229,0,0,1-2.263,1.155ZM6,11.249c-.276,0-.8-.74-1.155-2.149a6.726,6.726,0,0,1,2.309,0C6.8,10.51,6.275,11.249,6,11.249ZM2.022,9.416A5.217,5.217,0,0,1,.769,6.374H3.758a14.475,14.475,0,0,0,.206,2.162,7.084,7.084,0,0,0-1.942.879Zm2.67-1.05a13.74,13.74,0,0,1-.185-1.991H7.491a13.372,13.372,0,0,1-.186,1.99,7.455,7.455,0,0,0-2.613,0ZM9.976,9.418a7.092,7.092,0,0,0-1.939-.881,14.6,14.6,0,0,0,.205-2.161h2.987A5.222,5.222,0,0,1,9.976,9.418ZM4.506,5.625a13.541,13.541,0,0,1,.186-1.992,7.469,7.469,0,0,0,2.614,0,13.73,13.73,0,0,1,.186,1.99H4.506Zm-3.738,0A5.227,5.227,0,0,1,2.021,2.583a7.052,7.052,0,0,0,1.942.879,14.472,14.472,0,0,0-.208,2.163H.769Zm7.474,0a14.5,14.5,0,0,0-.206-2.161,7.09,7.09,0,0,0,1.938-.882,5.222,5.222,0,0,1,1.255,3.043H8.242Zm-4.128-2.9a6.4,6.4,0,0,1-1.55-.686A5.234,5.234,0,0,1,4.826.888a6.607,6.607,0,0,0-.711,1.838Zm3.769,0A6.647,6.647,0,0,0,7.173.886,5.242,5.242,0,0,1,9.434,2.04a6.3,6.3,0,0,1-1.552.686ZM6,3a6.607,6.607,0,0,1-1.155-.1C5.2,1.49,5.724.75,6,.75s.8.74,1.155,2.149A6.79,6.79,0,0,1,6,3ZM6,0a6,6,0,1,0,6,6A6,6,0,0,0,6,0Z" transform="translate(-21898 -19783)" fill="#707070"/>
  </g>
</svg>
