<svg xmlns="http://www.w3.org/2000/svg" width="161" height="18" viewBox="0 0 161 18">
  <g id="组_1488" data-name="组 1488" transform="translate(-6957 22879)">
    <g id="组_1483" data-name="组 1483" transform="translate(5959 -23536)">
      <rect id="矩形_1053" data-name="矩形 1053" width="161" height="18" rx="9" transform="translate(998 657)" fill="#f3f3f3"/>
      <rect id="矩形_1054" data-name="矩形 1054" width="153" height="4" rx="2" transform="translate(999 664)" fill="#ccc"/>
      <rect id="矩形_1056" data-name="矩形 1056" width="41" height="4" rx="2" transform="translate(1006 664)" fill="#478de9"/>
      <g id="椭圆_167" data-name="椭圆 167" transform="translate(999 658)" fill="#fff" stroke="#ccc" stroke-width="1">
        <circle cx="8" cy="8" r="8" stroke="none"/>
        <circle cx="8" cy="8" r="7.5" fill="none"/>
      </g>
      <g id="椭圆_168" data-name="椭圆 168" transform="translate(1038 657)" fill="#fff" stroke="#478de9" stroke-width="2">
        <circle cx="9" cy="9" r="9" stroke="none"/>
        <circle cx="9" cy="9" r="8" fill="none"/>
      </g>
      <path id="多边形_10" data-name="多边形 10" d="M3.09.585a.5.5,0,0,1,.819,0l2.54,3.628A.5.5,0,0,1,6.04,5H.96a.5.5,0,0,1-.41-.787Z" transform="translate(1003.5 669.5) rotate(-90)" fill="#707070"/>
      <path id="多边形_11" data-name="多边形 11" d="M2.7.585a.5.5,0,0,1,.819,0L5.672,3.658a.5.5,0,0,1-.41.787H.96a.5.5,0,0,1-.41-.787Z" transform="translate(1003.889 669.111) rotate(-90)" fill="#707070"/>
      <g id="组_1477" data-name="组 1477" transform="translate(4 -11)">
        <g id="椭圆_166" data-name="椭圆 166" transform="translate(1138 669)" fill="#fff" stroke="#ccc" stroke-width="1">
          <circle cx="8" cy="8" r="8" stroke="none"/>
          <circle cx="8" cy="8" r="7.5" fill="none"/>
        </g>
        <path id="多边形_12" data-name="多边形 12" d="M2.7.585a.5.5,0,0,1,.819,0L5.672,3.658a.5.5,0,0,1-.41.787H.96a.5.5,0,0,1-.41-.787Z" transform="translate(1149.111 673.889) rotate(90)" fill="#707070"/>
      </g>
    </g>
  </g>
</svg>
