<?xml version="1.0" standalone="no"?><!DOCTYPE svg PUBLIC "-//W3C//DTD SVG 1.1//EN" "http://www.w3.org/Graphics/SVG/1.1/DTD/svg11.dtd"><svg t="1533103611498" class="icon" style="" viewBox="0 0 1024 1024" version="1.1" xmlns="http://www.w3.org/2000/svg" p-id="2837" xmlns:xlink="http://www.w3.org/1999/xlink" width="48" height="48"><defs><style type="text/css"></style></defs><path d="M695.68 1024h-232.32a174.4 174.4 0 0 1-154.56-93.44 90.56 90.56 0 0 1-10.56-16.96l-111.68-198.72a96 96 0 0 1 165.44-96V416a96 96 0 0 1 192 0v160h149.12A171.2 171.2 0 0 1 864 746.88v108.8A168.32 168.32 0 0 1 695.68 1024zM272 640a32 32 0 0 0-28.8 46.08l111.68 199.04a37.12 37.12 0 0 0 5.44 8.32 32 32 0 0 1 4.16 6.08A110.72 110.72 0 0 0 463.36 960h232.32A104.32 104.32 0 0 0 800 855.68v-108.8A107.2 107.2 0 0 0 693.12 640H512a32 32 0 0 1-32-32v-192a32 32 0 0 0-64 0v288a46.72 46.72 0 0 1-23.36 39.68A32 32 0 0 1 352 732.8l-48.32-71.04-2.56-4.48A32 32 0 0 0 272 640z" p-id="2838" data-spm-anchor-id="a313x.7781069.0.i1" class="" fill="#5a5a5a"></path><path d="M960 128v256a128 128 0 0 1-128 128h-224v-96a160 160 0 0 0-320 0v96h-16a72 72 0 0 0-11.84 0H192a128 128 0 0 1-128-128V128a128 128 0 0 1 128-128h640a128 128 0 0 1 128 128z" p-id="2839" data-spm-anchor-id="a313x.7781069.0.i0" class="" fill="#5a5a5a"></path></svg>