
<svg id="组_1457" data-name="组 1457" xmlns="http://www.w3.org/2000/svg" xmlns:xlink="http://www.w3.org/1999/xlink" width="72" height="72" viewBox="0 0 72 72">
  <defs>
    <radialGradient id="radial-gradient" cx="0.054" cy="0.043" r="0.903" gradientTransform="translate(0)" gradientUnits="objectBoundingBox">
      <stop offset="0" stop-color="#fff"/>
      <stop offset="0.98" stop-color="#fff" stop-opacity="0"/>
    </radialGradient>
    <linearGradient id="linear-gradient" x1="0.153" y1="0.121" x2="0.852" y2="0.867" gradientUnits="objectBoundingBox">
      <stop offset="0" stop-opacity="0.651"/>
      <stop offset="1" stop-opacity="0"/>
    </linearGradient>
    <radialGradient id="radial-gradient-2" cx="0.5" cy="0.5" r="0.5" gradientUnits="objectBoundingBox">
      <stop offset="0" stop-opacity="0.678"/>
      <stop offset="0.675" stop-opacity="0.412"/>
      <stop offset="1" stop-opacity="0"/>
    </radialGradient>
    <radialGradient id="radial-gradient-3" cx="0.5" cy="0.5" r="0.5" gradientUnits="objectBoundingBox">
      <stop offset="0" stop-color="#fff"/>
      <stop offset="1" stop-color="#fff" stop-opacity="0"/>
    </radialGradient>
    <linearGradient id="linear-gradient-3" x1="0.153" y1="0.121" x2="0.852" y2="0.867" gradientUnits="objectBoundingBox">
      <stop offset="0" stop-color="#fff" stop-opacity="0.651"/>
      <stop offset="1" stop-color="#fff" stop-opacity="0"/>
    </linearGradient>
    <radialGradient id="radial-gradient-4" cx="0.5" cy="0.5" r="0.5" gradientUnits="objectBoundingBox">
      <stop offset="0" stop-opacity="0"/>
      <stop offset="0.89" stop-opacity="0.341"/>
      <stop offset="0.948" stop-opacity="0.6"/>
      <stop offset="1" stop-opacity="0.31"/>
    </radialGradient>
    <radialGradient id="radial-gradient-5" cx="0.5" cy="0.5" r="0.5" gradientUnits="objectBoundingBox">
      <stop offset="0" stop-color="#fff"/>
      <stop offset="0.731" stop-color="#fff" stop-opacity="0.361"/>
      <stop offset="1" stop-color="#fff" stop-opacity="0"/>
    </radialGradient>
  </defs>
  <g id="组_1416" data-name="组 1416" transform="translate(-1)">
    <g id="组_1395" data-name="组 1395" transform="translate(-1648.783 -333.783)">
      <rect id="矩形_2538" data-name="矩形 2538" width="56.934" height="56.934" rx="28" transform="translate(1656.783 341.783)" fill="#515b6f"/>
      <g id="矩形_2539" data-name="矩形 2539" transform="translate(1657.27 342.27)" fill="#c6c6c6" stroke="#eee" stroke-width="0.1">
        <rect width="55.961" height="55.961" rx="27.98" stroke="none"/>
        <rect x="0.05" y="0.05" width="55.861" height="55.861" rx="27.93" fill="none"/>
      </g>
      <rect id="矩形_2540" data-name="矩形 2540" width="55.961" height="55.961" rx="27.98" transform="translate(1657.27 342.27)" fill="url(#radial-gradient)"/>
      <rect id="矩形_2541" data-name="矩形 2541" width="51.8" height="51.8" rx="25.9" transform="translate(1659.3 344.3)" stroke="#fff" stroke-width="0.4" fill="url(#linear-gradient)"/>
      <ellipse id="椭圆_523" data-name="椭圆 523" cx="8" cy="16" rx="8" ry="16" transform="translate(1659 353.783)" fill="url(#radial-gradient-2)"/>
      <ellipse id="椭圆_526" data-name="椭圆 526" cx="5.5" cy="16" rx="5.5" ry="16" transform="translate(1705.99 363.427) rotate(30)" fill="url(#radial-gradient-3)"/>
    </g>
    <path id="交叉_15" data-name="交叉 15" d="M-2793.688-216.638a25.931,25.931,0,0,1,6.588-.845,25.96,25.96,0,0,1,6.213.75L-2787.3-192Z" transform="translate(2823.3 228)" opacity="0.31" fill="url(#linear-gradient)"/>
    <path id="交叉_16" data-name="交叉 16" d="M-2793.688-216.638a25.931,25.931,0,0,1,6.588-.845,25.96,25.96,0,0,1,6.213.75L-2787.3-192Z" transform="matrix(0.974, 0.225, -0.225, 0.974, 2708.805, 849.756)" opacity="0.31" fill="url(#linear-gradient-3)"/>
    <rect id="矩形_2547" data-name="矩形 2547" width="35.8" height="35.8" rx="17.9" transform="translate(19 19)" fill="#292929" stroke="#6d6d6d" stroke-width="0.4"/>
    <rect class="shapeChangeFill" width="33.8" height="33.8" rx="16.9" transform="translate(20 20)" fill="lime"/>
    <rect id="矩形_2551" data-name="矩形 2551" width="33.8" height="33.8" rx="16.9" transform="translate(20 20)" opacity="0.75" fill="url(#radial-gradient-4)"/>
    <rect id="矩形_2552" data-name="矩形 2552" width="13.8" height="9.8" rx="4.9" transform="matrix(0.883, -0.469, 0.469, 0.883, 24.507, 28.813)" fill="url(#radial-gradient-5)"/>
    <rect id="矩形_2553" data-name="矩形 2553" width="5.8" height="2.8" rx="1.4" transform="translate(25.548 27.55) rotate(-11)" fill="url(#radial-gradient-5)"/>
    <rect id="矩形_2554" data-name="矩形 2554" width="3.8" height="1.8" rx="0.9" transform="translate(44.83 30.81) rotate(5)" fill="url(#radial-gradient-5)"/>
  </g>
  <rect id="矩形_2559" data-name="矩形 2559" width="72" height="72" fill="none"/>
</svg>
