<svg xmlns="http://www.w3.org/2000/svg" xmlns:xlink="http://www.w3.org/1999/xlink" viewBox="0 0 72 72" width="72" height="72"><defs><style>.a{fill:none;}.b{fill:#005daa;}.c{fill:url(#a);}.d{fill:url(#b);}.e{fill:url(#c);}.f{opacity:0.75;}.g{fill:#fff;}.h{fill:url(#d);}.i{fill:#7f7f7f;}.j{opacity:0.8;}.k{fill:url(#e);}.l{opacity:0.6;fill:url(#f);}</style><radialGradient id="a" cx="36" cy="36.14" r="26.25" gradientUnits="userSpaceOnUse"><stop offset="0" stop-opacity="0"/><stop offset="0.6" stop-color="#030202" stop-opacity="0.05"/><stop offset="0.81" stop-color="#0c0807" stop-opacity="0.25"/><stop offset="0.96" stop-color="#1d1411" stop-opacity="0.58"/><stop offset="1" stop-color="#231815" stop-opacity="0.7"/></radialGradient><linearGradient id="b" x1="15.6" y1="15.77" x2="56.4" y2="15.77" gradientUnits="userSpaceOnUse"><stop offset="0" stop-color="#fff" stop-opacity="0"/><stop offset="0.5" stop-color="#fff"/><stop offset="1" stop-color="#fff" stop-opacity="0"/></linearGradient><linearGradient id="c" x1="15.6" y1="-1862.31" x2="56.4" y2="-1862.31" gradientTransform="matrix(1, 0, 0, -1, 0, -1805.79)" xlink:href="#b"/><linearGradient id="d" x1="36" y1="66.14" x2="36" y2="6.14" gradientUnits="userSpaceOnUse"><stop offset="0" stop-opacity="0.05"/><stop offset="0.48" stop-color="#231815"/><stop offset="0.5" stop-color="#231815" stop-opacity="0.45"/><stop offset="1" stop-opacity="0.05"/></linearGradient><linearGradient id="e" x1="-734.87" y1="-11.82" x2="-734.87" y2="-24.07" gradientTransform="translate(548.99 -488.88) rotate(-45.65)" gradientUnits="userSpaceOnUse"><stop offset="0" stop-color="#fff" stop-opacity="0.1"/><stop offset="1" stop-color="#fff"/></linearGradient><radialGradient id="f" cx="-47.47" cy="2427.29" r="77.59" gradientTransform="translate(46.75 -507.74) scale(0.24 0.22)" gradientUnits="userSpaceOnUse"><stop offset="0" stop-color="#fff"/><stop offset="1" stop-color="#fff" stop-opacity="0"/></radialGradient></defs><title>新增指示灯</title><rect class="a" y="0.14" width="72" height="72"/><circle class="b" cx="36" cy="36.14" r="26.25"/><circle class="c" cx="36" cy="36.14" r="26.25"/><path class="d" d="M36,11.54a26.9,26.9,0,0,1,20.4,9.35,25.43,25.43,0,0,0-40.8,0A26.9,26.9,0,0,1,36,11.54Z"/><path class="e" d="M36,60.74a26.9,26.9,0,0,0,20.4-9.35,25.43,25.43,0,0,1-40.8,0A26.9,26.9,0,0,0,36,60.74Z"/><path class="f" d="M36,9.89A26.25,26.25,0,1,0,62.25,36.14,26.25,26.25,0,0,0,36,9.89Zm0,51.75a25.5,25.5,0,1,1,25.5-25.5A25.5,25.5,0,0,1,36,61.64Z"/><path class="g" d="M36,6.14a30,30,0,1,0,30,30A30,30,0,0,0,36,6.14Zm0,56.25A26.25,26.25,0,1,1,62.25,36.14,26.25,26.25,0,0,1,36,62.39Z"/><path class="h" d="M36,6.14a30,30,0,1,0,30,30A30,30,0,0,0,36,6.14Zm0,56.25A26.25,26.25,0,1,1,62.25,36.14,26.25,26.25,0,0,1,36,62.39Z"/><path class="i" d="M36,66.34a30.2,30.2,0,1,1,30.2-30.2A30.24,30.24,0,0,1,36,66.34Zm0-60a29.8,29.8,0,1,0,29.8,29.8A29.84,29.84,0,0,0,36,6.34Zm0,56.25A26.45,26.45,0,1,1,62.45,36.14,26.48,26.48,0,0,1,36,62.59Zm0-52.5A26.05,26.05,0,1,0,62.05,36.14,26.08,26.08,0,0,0,36,10.09Z"/><g class="j"><path class="k" d="M16.61,34.8l-4.19-4.1a21.5,21.5,0,0,1,1.93-5.78L18.54,29A20.93,20.93,0,0,0,16.61,34.8Zm.23.23,1.75,1.7A20.71,20.71,0,0,1,20.52,31l-1.74-1.7A21,21,0,0,0,16.84,35ZM33.06,18l-4.19-4.09A20.92,20.92,0,0,0,14.51,24.62l4.19,4.09A21,21,0,0,1,33.06,18Zm-14.12,11,1.74,1.71A20.9,20.9,0,0,1,35,19.91L33.29,18.2A20.94,20.94,0,0,0,18.94,28.94Z"/></g><circle class="l" cx="35.54" cy="36.23" r="18.31"/></svg>