<svg xmlns="http://www.w3.org/2000/svg" xmlns:xlink="http://www.w3.org/1999/xlink" viewBox="0 0 72 72" width="72" height="72"><defs><style>.a{isolation:isolate;}.b,.s{opacity:0.8;}.c{fill:url(#a);}.d{fill:url(#b);}.e{fill:url(#c);}.f{fill:url(#d);}.g{fill:url(#e);}.h{fill:url(#f);}.i{fill:url(#g);}.j{fill:url(#h);}.k{fill:url(#i);}.l{fill:url(#j);}.m{fill:#c40000;}.n{fill:url(#k);}.o{fill:#ababab;opacity:0.1;mix-blend-mode:screen;}.p{opacity:0.4;fill:url(#l);}.q,.r{opacity:0.6;}.q{fill:url(#m);}.r{fill:url(#n);}.s{fill:url(#o);}.t{fill:none;}</style><linearGradient id="a" x1="38.91" y1="16.91" x2="46.55" y2="31.65" gradientUnits="userSpaceOnUse"><stop offset="0" stop-color="#fff"/><stop offset="1" stop-color="#fff" stop-opacity="0"/></linearGradient><linearGradient id="b" x1="20.91" y1="26.25" x2="28.55" y2="40.98" xlink:href="#a"/><linearGradient id="c" x1="25.27" y1="23.99" x2="32.91" y2="38.72" xlink:href="#a"/><linearGradient id="d" x1="29.34" y1="21.88" x2="36.98" y2="36.61" xlink:href="#a"/><linearGradient id="e" x1="32.98" y1="19.99" x2="40.62" y2="34.73" xlink:href="#a"/><radialGradient id="f" cx="36.28" cy="35.89" r="29" gradientUnits="userSpaceOnUse"><stop offset="0.92" stop-color="#f5f5f5"/><stop offset="1" stop-color="#595959"/></radialGradient><linearGradient id="g" x1="56.49" y1="56.11" x2="16.06" y2="15.68" gradientUnits="userSpaceOnUse"><stop offset="0" stop-color="#f2f2f2"/><stop offset="0.02" stop-color="silver"/><stop offset="0.05" stop-color="#919191"/><stop offset="0.08" stop-color="#6a6a6a"/><stop offset="0.11" stop-color="#4b4b4b"/><stop offset="0.13" stop-color="#363636"/><stop offset="0.16" stop-color="#282828"/><stop offset="0.18" stop-color="#242424"/><stop offset="0.19" stop-color="#2a2a2a"/><stop offset="0.2" stop-color="#3c3c3c"/><stop offset="0.22" stop-color="#494949"/><stop offset="0.24" stop-color="#505050"/><stop offset="0.29" stop-color="#525252"/><stop offset="0.31" stop-color="#575757"/><stop offset="0.34" stop-color="#666"/><stop offset="0.37" stop-color="#7e7e7e"/><stop offset="0.4" stop-color="#a0a0a0"/><stop offset="0.41" stop-color="#adadad"/><stop offset="0.49" stop-color="#fcfcfc"/><stop offset="0.51" stop-color="#f8f8f8"/><stop offset="0.53" stop-color="#ebebeb"/><stop offset="0.56" stop-color="#d7d7d7"/><stop offset="0.58" stop-color="#bababa"/><stop offset="0.6" stop-color="#a1a1a1"/><stop offset="0.62" stop-color="#b6b6b6"/><stop offset="0.65" stop-color="#c8c8c8"/><stop offset="0.67" stop-color="#d3d3d3"/><stop offset="0.7" stop-color="#d6d6d6"/><stop offset="0.73" stop-color="#ccc"/><stop offset="0.83" stop-color="#a1a1a1"/><stop offset="0.84" stop-color="#acacac"/><stop offset="0.86" stop-color="#c2c2c2"/><stop offset="0.89" stop-color="#d2d2d2"/><stop offset="0.92" stop-color="#dbdbdb"/><stop offset="0.96" stop-color="#dedede"/><stop offset="1" stop-color="#878787"/></linearGradient><linearGradient id="h" x1="39.94" y1="49.05" x2="39.94" y2="5.21" gradientTransform="translate(-3.49 1.8) rotate(0.44)" xlink:href="#a"/><linearGradient id="i" x1="36.28" y1="16.47" x2="36.28" y2="54.69" gradientUnits="userSpaceOnUse"><stop offset="0" stop-color="#fff"/><stop offset="0.23" stop-color="#e3e3e3"/><stop offset="0.35" stop-color="#b9b9b9"/><stop offset="0.5" stop-color="#8c8c8c"/><stop offset="0.64" stop-color="#696969"/><stop offset="0.78" stop-color="#505050"/><stop offset="0.9" stop-color="#404040"/><stop offset="1" stop-color="#3b3b3b"/></linearGradient><linearGradient id="j" x1="36.28" y1="54.33" x2="36.28" y2="16.84" gradientUnits="userSpaceOnUse"><stop offset="0" stop-color="#fff"/><stop offset="0.23" stop-color="#e3e3e3"/><stop offset="0.29" stop-color="#c7c7c7"/><stop offset="0.43" stop-color="#919191"/><stop offset="0.56" stop-color="#636363"/><stop offset="0.69" stop-color="#404040"/><stop offset="0.81" stop-color="#272727"/><stop offset="0.91" stop-color="#171717"/><stop offset="1" stop-color="#121212"/></linearGradient><radialGradient id="k" cx="36.32" cy="33.69" r="16.89" gradientUnits="userSpaceOnUse"><stop offset="0" stop-color="#fff" stop-opacity="0.5"/><stop offset="0.42" stop-color="#ccc" stop-opacity="0.1"/><stop offset="0.95" stop-color="#141414" stop-opacity="0.55"/><stop offset="1" stop-opacity="0.6"/></radialGradient><linearGradient id="l" x1="36.28" y1="19.27" x2="36.28" y2="37.93" xlink:href="#a"/><linearGradient id="m" x1="21.11" y1="33.02" x2="24.23" y2="33.02" xlink:href="#a"/><linearGradient id="n" x1="21.09" y1="41.61" x2="25.47" y2="41.61" xlink:href="#a"/><radialGradient id="o" cx="1279.75" cy="1611.57" r="40.12" gradientTransform="translate(-265.93 -333.44) scale(0.24 0.22)" xlink:href="#a"/></defs><title>新增指示灯</title><g class="a"><g class="b"><path class="c" d="M44.88,31a.64.64,0,0,1-.86-.2A9.65,9.65,0,0,0,41,28a8.62,8.62,0,0,0-.8-.41.64.64,0,0,1-.32-.81l1.61-4.16a.64.64,0,0,1,.84-.36,15.3,15.3,0,0,1,6.55,5.49.64.64,0,0,1-.21.9Z"/><path class="d" d="M26.33,36.17H21.65a.53.53,0,0,1-.53-.55,14.92,14.92,0,0,1,.61-3.75c0-.14.08-.26.11-.38l.08-.22a14.84,14.84,0,0,1,1.32-2.86.53.53,0,0,1,.74-.17l3.93,2.54a.52.52,0,0,1,.16.71,9.8,9.8,0,0,0-.73,1.62l-.12.4a9,9,0,0,0-.37,2.15A.53.53,0,0,1,26.33,36.17Z"/><path class="e" d="M28.15,30.31l-3.67-2.66a.59.59,0,0,1-.13-.85,14.89,14.89,0,0,1,2.25-2.31.6.6,0,0,1,.86.1l2.75,3.61a.61.61,0,0,1-.1.82A10.5,10.5,0,0,0,29,30.19.6.6,0,0,1,28.15,30.31Z"/><path class="f" d="M30.55,28l-2.61-3.74a.59.59,0,0,1,.15-.83,15.09,15.09,0,0,1,3.29-1.58.59.59,0,0,1,.75.39l1.3,4.38a.58.58,0,0,1-.38.71,9.85,9.85,0,0,0-1.7.82A.59.59,0,0,1,30.55,28Z"/><path class="g" d="M33.81,26.47l-1.13-4.42a.59.59,0,0,1,.44-.72A14.7,14.7,0,0,1,35.67,21a.6.6,0,0,1,.61.59v4.56a.58.58,0,0,1-.57.58,12.12,12.12,0,0,0-1.21.15A.58.58,0,0,1,33.81,26.47Z"/></g><path class="h" d="M65.28,35.89a29,29,0,1,1-29-29A29,29,0,0,1,65.28,35.89Z"/><path class="i" d="M64.87,35.89A28.59,28.59,0,1,1,36.28,7.31,28.59,28.59,0,0,1,64.87,35.89Z"/><path class="j" d="M64.77,34.34A28.59,28.59,0,0,0,7.64,35.68c0,.26,0,.52,0,.78a33.83,33.83,0,0,0,57.12-2.12Z"/><path class="k" d="M55.39,35.58A19.11,19.11,0,1,1,36.28,16.47,19.11,19.11,0,0,1,55.39,35.58Z"/><path class="l" d="M55,35.58A18.75,18.75,0,1,1,36.28,16.84,18.75,18.75,0,0,1,55,35.58Z"/><path d="M53.61,35.58A17.34,17.34,0,1,1,36.28,18.25,17.33,17.33,0,0,1,53.61,35.58Z"/><circle class="m" cx="36.28" cy="35.58" r="16.89"/><path class="n" d="M53.17,35.58A16.89,16.89,0,1,1,36.28,18.69,16.89,16.89,0,0,1,53.17,35.58Z"/><path class="o" d="M36.28,18.86A16.72,16.72,0,0,0,19.56,35.58c0,.28,0,.55,0,.82,4,3.54,10.05,5.79,16.81,5.79A25.7,25.7,0,0,0,53,36.59c0-.33,0-.67,0-1A16.73,16.73,0,0,0,36.28,18.86Z"/><path class="p" d="M48.89,28.6c0,5.15-5.65,9.33-12.61,9.33S23.67,33.75,23.67,28.6s5.65-9.33,12.61-9.33S48.89,23.44,48.89,28.6Z"/><path class="q" d="M23.22,35.92a16.77,16.77,0,0,1,1-3.88A5.54,5.54,0,0,1,22,30.12a17.18,17.18,0,0,0-.84,4.15A23.53,23.53,0,0,0,23.22,35.92Z"/><path class="r" d="M23.08,37.82a23,23,0,0,1-2-1.4,16.64,16.64,0,0,0,4.38,10.37,16.65,16.65,0,0,1-2.4-8.63C23.07,38.05,23.08,37.93,23.08,37.82Z"/><circle class="s" cx="36.28" cy="27.72" r="9.47"/><rect class="t" x="0.28" y="-0.11" width="72" height="72"/></g></svg>