<svg xmlns="http://www.w3.org/2000/svg" xmlns:xlink="http://www.w3.org/1999/xlink" viewBox="0 0 72 72" width="72" height="72"><defs><style>.a,.c{mask:url(#a);}.a{filter:url(#r);}.b,.d{mix-blend-mode:multiply;}.b{fill:url(#c);}.d{fill:url(#f);}.e{isolation:isolate;}.f{opacity:0.8;}.g{fill:url(#g);}.h{fill:url(#h);}.i{fill:url(#i);}.j{fill:url(#j);}.k{fill:url(#k);}.l,.s{fill:#fff;}.m{fill:url(#l);}.n{fill:url(#m);}.o{fill:url(#n);}.p{fill:url(#o);}.q{fill:#005b00;}.r{opacity:0.5;fill:url(#p);}.s{opacity:0.2;}.t{mask:url(#q);}.u{mix-blend-mode:screen;fill:url(#u);}.v{fill:url(#v);}.w{opacity:0.9;fill:url(#w);}.x{fill:none;}.y{filter:url(#b);}</style><filter id="b" x="23.62" y="-7377" width="10.12" height="32766" filterUnits="userSpaceOnUse" color-interpolation-filters="sRGB"><feFlood flood-color="#fff" result="bg"/><feBlend in="SourceGraphic" in2="bg"/></filter><mask id="a" x="23.62" y="-7377" width="10.12" height="32766" maskUnits="userSpaceOnUse"><g class="y"/></mask><radialGradient id="c" cx="61.6" cy="16.95" r="16.91" gradientTransform="matrix(1, 0.04, -0.04, 1, -32.61, 2.68)" gradientUnits="userSpaceOnUse"><stop offset="0" stop-color="#fff"/><stop offset="0.13" stop-color="#fbfbfb"/><stop offset="0.27" stop-color="#efefef"/><stop offset="0.4" stop-color="#dbdbdb"/><stop offset="0.53" stop-color="silver"/><stop offset="0.66" stop-color="#9c9c9c"/><stop offset="0.79" stop-color="#707070"/><stop offset="0.92" stop-color="#3d3d3d"/><stop offset="1" stop-color="#1a1a1a"/></radialGradient><radialGradient id="f" cx="61.6" cy="16.95" r="16.91" gradientTransform="matrix(1, 0.04, -0.04, 1, -32.61, 2.68)" gradientUnits="userSpaceOnUse"><stop offset="0" stop-color="#fff"/><stop offset="0.25" stop-color="#c3c3c3"/><stop offset="0.83" stop-color="#2d2d2d"/><stop offset="1"/></radialGradient><linearGradient id="g" x1="35.89" y1="10.6" x2="46.28" y2="30.65" gradientUnits="userSpaceOnUse"><stop offset="0" stop-color="#fff"/><stop offset="1" stop-color="#fff" stop-opacity="0"/></linearGradient><linearGradient id="h" x1="11.39" y1="23.3" x2="21.79" y2="43.35" xlink:href="#g"/><linearGradient id="i" x1="17.32" y1="20.22" x2="27.72" y2="40.27" xlink:href="#g"/><linearGradient id="j" x1="22.87" y1="17.35" x2="33.26" y2="37.4" xlink:href="#g"/><linearGradient id="k" x1="27.81" y1="14.79" x2="38.2" y2="34.83" xlink:href="#g"/><linearGradient id="l" x1="36" y1="7" x2="36" y2="65" gradientUnits="userSpaceOnUse"><stop offset="0" stop-color="#a8a8a8"/><stop offset="0.01" stop-color="#bababa"/><stop offset="0.03" stop-color="#d3d3d3"/><stop offset="0.05" stop-color="#e7e7e7"/><stop offset="0.07" stop-color="#f4f4f4"/><stop offset="0.1" stop-color="#fdfdfd"/><stop offset="0.15" stop-color="#fff"/><stop offset="0.24" stop-color="#c7c7c7"/><stop offset="0.33" stop-color="#8c8c8c"/><stop offset="0.4" stop-color="#a5a5a5"/><stop offset="0.5" stop-color="#ccc"/><stop offset="0.61" stop-color="#6b6b6b"/><stop offset="0.74"/><stop offset="0.78" stop-color="#1a1a1a" stop-opacity="0.94"/><stop offset="0.86" stop-color="#616161" stop-opacity="0.77"/><stop offset="0.96" stop-color="#d4d4d4" stop-opacity="0.5"/><stop offset="1" stop-color="#fff" stop-opacity="0.4"/></linearGradient><linearGradient id="m" x1="36" y1="9.18" x2="36" y2="62.83" gradientUnits="userSpaceOnUse"><stop offset="0.33" stop-color="#fff"/><stop offset="1" stop-color="#363636"/></linearGradient><linearGradient id="n" y1="62.29" y2="9.71" xlink:href="#m"/><linearGradient id="o" x1="36" y1="65" x2="36" y2="7" gradientUnits="userSpaceOnUse"><stop offset="0" stop-opacity="0.5"/><stop offset="1" stop-opacity="0.2"/></linearGradient><radialGradient id="p" cx="36" cy="36" r="18.74" gradientUnits="userSpaceOnUse"><stop offset="0" stop-color="#fff" stop-opacity="0.1"/><stop offset="0.25" stop-color="#fff" stop-opacity="0.11"/><stop offset="0.34" stop-color="#fff" stop-opacity="0.13"/><stop offset="0.41" stop-color="#fff" stop-opacity="0.18"/><stop offset="0.43" stop-color="#fff" stop-opacity="0.2"/><stop offset="0.68" stop-color="#fff" stop-opacity="0.5"/><stop offset="0.98"/></radialGradient><filter id="r" x="23.62" y="20.66" width="10.12" height="8.05" filterUnits="userSpaceOnUse" color-interpolation-filters="sRGB"><feFlood flood-color="#fff" result="bg"/><feBlend in="SourceGraphic" in2="bg"/></filter><mask id="q" x="23.62" y="20.66" width="10.12" height="8.05" maskUnits="userSpaceOnUse"><g class="a"><path class="b" d="M30.77,22.92c.39,1.78-2.51,3.68-3.5,4.4-.58.43-2.32,2-3.24,1.13-2.11-2,4.55-7.3,6.32-6.12A.91.91,0,0,1,30.77,22.92Zm.84-.83a1.74,1.74,0,0,0,.18.22c.78.87,2.82-.81,1.55-1.54a1.42,1.42,0,0,0-1.45.3C31.48,21.39,31.39,21.73,31.61,22.09Z"/></g></mask><radialGradient id="u" cx="61.6" cy="16.95" r="16.91" gradientTransform="matrix(1, 0.04, -0.04, 1, -32.61, 2.68)" gradientUnits="userSpaceOnUse"><stop offset="0" stop-color="#fff"/><stop offset="0.31" stop-color="#c3c5c5"/><stop offset="1" stop-color="#2f3738"/></radialGradient><radialGradient id="v" cx="36" cy="245.86" fy="238.0207531440487" r="14.36" gradientTransform="translate(0 -172.24) scale(1 0.82)" gradientUnits="userSpaceOnUse"><stop offset="0" stop-color="#fff"/><stop offset="0.2" stop-color="#fff" stop-opacity="0.73"/><stop offset="0.42" stop-color="#fff" stop-opacity="0.48"/><stop offset="0.61" stop-color="#fff" stop-opacity="0.27"/><stop offset="0.78" stop-color="#fff" stop-opacity="0.12"/><stop offset="0.91" stop-color="#fff" stop-opacity="0.03"/><stop offset="1" stop-color="#fff" stop-opacity="0"/></radialGradient><radialGradient id="w" cx="23.77" cy="7.29" r="18.14" gradientTransform="translate(11.45 28.47) scale(1.03)" gradientUnits="userSpaceOnUse"><stop offset="0" stop-opacity="0"/><stop offset="0.73" stop-opacity="0"/><stop offset="0.85" stop-opacity="0"/><stop offset="1" stop-opacity="0.8"/></radialGradient></defs><title>新增指示灯</title><g class="e"><g class="f"><path class="g" d="M44,29.71a.88.88,0,0,1-1.17-.27,12.91,12.91,0,0,0-4.09-3.76c-.35-.2-.72-.39-1.09-.56A.86.86,0,0,1,37.23,24l2.19-5.66a.87.87,0,0,1,1.14-.5,23.18,23.18,0,0,1,2.11,1.07,20.87,20.87,0,0,1,6.81,6.41.86.86,0,0,1-.28,1.21Z"/><path class="h" d="M18.76,36.79H12.4a.72.72,0,0,1-.73-.73A20.44,20.44,0,0,1,12.5,31l.16-.52.1-.3a20.49,20.49,0,0,1,1.8-3.89.73.73,0,0,1,1-.23l5.35,3.45a.74.74,0,0,1,.22,1,12.81,12.81,0,0,0-1,2.2l-.17.54a13.41,13.41,0,0,0-.5,2.92A.71.71,0,0,1,18.76,36.79Z"/><path class="i" d="M21.24,28.82l-5-3.61a.81.81,0,0,1-.17-1.16,20.26,20.26,0,0,1,3.06-3.15.82.82,0,0,1,1.17.15L24,26a.81.81,0,0,1-.13,1.12,13.69,13.69,0,0,0-1.55,1.59A.82.82,0,0,1,21.24,28.82Z"/><path class="j" d="M24.51,25.63,21,20.54a.81.81,0,0,1,.22-1.13,20.71,20.71,0,0,1,4.47-2.16.8.8,0,0,1,1,.54l1.77,5.95a.81.81,0,0,1-.51,1,12.71,12.71,0,0,0-2.32,1.12A.8.8,0,0,1,24.51,25.63Z"/><path class="k" d="M28.94,23.6l-1.53-6a.8.8,0,0,1,.6-1,20.2,20.2,0,0,1,3.47-.43.79.79,0,0,1,.82.8v6.21a.79.79,0,0,1-.77.79,13.06,13.06,0,0,0-1.65.21A.8.8,0,0,1,28.94,23.6Z"/></g><circle class="l" cx="36" cy="36" r="29"/><path class="m" d="M58.1,17.22A29,29,0,1,0,54.78,58.1,29,29,0,0,0,58.1,17.22ZM52.43,55.34a25.38,25.38,0,1,1,2.91-35.77A25.38,25.38,0,0,1,52.43,55.34Z"/><circle class="n" cx="36" cy="36" r="26.82"/><circle class="o" cx="36" cy="36" r="26.29"/><path class="p" d="M58.1,17.22A29,29,0,1,0,54.78,58.1,29,29,0,0,0,58.1,17.22ZM54.61,57.9A28.7,28.7,0,0,1,36,64.75c-.79,0-1.58,0-2.38-.1a28.76,28.76,0,1,1,21-6.75Z"/><circle class="q" cx="36" cy="36" r="18.74"/><circle class="r" cx="36" cy="36" r="18.74"/><path class="s" d="M50.36,29.43C50.36,36,43.93,41.36,36,41.36S21.64,36,21.64,29.43,28.07,17.51,36,17.51,50.36,22.85,50.36,29.43Z"/><g class="t"><g class="f"><g class="t"><path class="u" d="M30.77,22.92c.39,1.78-2.51,3.68-3.5,4.4-.58.43-2.32,2-3.24,1.13-2.11-2,4.55-7.3,6.32-6.12A.91.91,0,0,1,30.77,22.92Zm.84-.83a1.74,1.74,0,0,0,.18.22c.78.87,2.82-.81,1.55-1.54a1.42,1.42,0,0,0-1.45.3C31.48,21.39,31.39,21.73,31.61,22.09Z"/></g></g></g><ellipse class="v" cx="36" cy="29.43" rx="14.36" ry="11.78"/><circle class="w" cx="36" cy="36" r="18.74"/><rect class="x" width="72" height="72"/></g></svg>