<svg xmlns="http://www.w3.org/2000/svg" xmlns:xlink="http://www.w3.org/1999/xlink" viewBox="0 0 72 72" width="72" height="72"><defs><style>.a{isolation:isolate;}.b,.l{opacity:0.8;}.b{fill:url(#a);}.c{fill:url(#b);}.d,.g{opacity:0.6;}.d{fill:url(#c);}.e{opacity:0.1;fill:url(#d);}.f{fill:#c10000;}.g,.h{mix-blend-mode:overlay;}.h{opacity:0.3;}.i{fill:url(#e);}.j{opacity:0.5;fill:url(#f);}.j,.l{mix-blend-mode:screen;}.k{fill:#700000;}.l{fill:url(#g);}.m{fill:none;}</style><radialGradient id="a" cx="35.34" cy="10.28" r="14.63" gradientUnits="userSpaceOnUse"><stop offset="0" stop-color="#fff"/><stop offset="1" stop-color="#fff" stop-opacity="0"/></radialGradient><radialGradient id="b" cx="35.61" cy="228.73" r="15.8" gradientTransform="translate(0 -176.7) scale(1 0.8)" xlink:href="#a"/><radialGradient id="c" cx="40.32" cy="964.01" r="18.97" gradientTransform="translate(-10.16 -431.16) scale(1.13 0.5)" xlink:href="#a"/><radialGradient id="d" cx="40.32" cy="967.54" r="18.97" gradientTransform="translate(-10.16 -430) scale(1.13 0.5)" xlink:href="#a"/><linearGradient id="e" x1="11.78" y1="60.24" x2="59.71" y2="60.24" gradientUnits="userSpaceOnUse"><stop offset="0" stop-color="#595959"/><stop offset="0" stop-color="#a1a1a1"/><stop offset="0.1" stop-color="#4d4d4d"/><stop offset="0.29" stop-color="#1a1a1a"/><stop offset="0.4" stop-color="#464646"/><stop offset="0.6" stop-color="#232323"/><stop offset="1"/></linearGradient><linearGradient id="f" x1="11.78" y1="60.86" x2="59.71" y2="60.86" gradientUnits="userSpaceOnUse"><stop offset="0" stop-color="#1f1a1c"/><stop offset="0.03" stop-color="#292426" stop-opacity="0.99"/><stop offset="0.07" stop-color="#433f41" stop-opacity="0.95"/><stop offset="0.12" stop-color="#6f6c6d" stop-opacity="0.89"/><stop offset="0.18" stop-color="#acaaab" stop-opacity="0.81"/><stop offset="0.24" stop-color="#fafafa" stop-opacity="0.71"/><stop offset="0.24" stop-color="#fff" stop-opacity="0.7"/><stop offset="0.26" stop-color="#d1d1d1" stop-opacity="0.75"/><stop offset="0.31" stop-color="#878787" stop-opacity="0.84"/><stop offset="0.35" stop-color="#4d4d4d" stop-opacity="0.91"/><stop offset="0.38" stop-color="#232323" stop-opacity="0.96"/><stop offset="0.41" stop-color="#090909" stop-opacity="0.99"/><stop offset="0.43"/><stop offset="0.54"/><stop offset="0.67" stop-color="#fff" stop-opacity="0.3"/><stop offset="0.74" stop-color="#fff" stop-opacity="0.3"/><stop offset="0.75" stop-color="#fff" stop-opacity="0.3"/><stop offset="0.79" stop-color="#fff" stop-opacity="0.31"/><stop offset="0.82" stop-color="#fff" stop-opacity="0.34"/><stop offset="0.84" stop-color="#fff" stop-opacity="0.4"/><stop offset="0.86" stop-color="#fff" stop-opacity="0.48"/><stop offset="0.88" stop-color="#fff" stop-opacity="0.58"/><stop offset="0.89" stop-color="#fff" stop-opacity="0.71"/><stop offset="0.91" stop-color="#fff" stop-opacity="0.86"/><stop offset="0.92" stop-color="#fff"/><stop offset="0.95" stop-color="#fff"/><stop offset="1"/></linearGradient><linearGradient id="g" x1="15.45" y1="31.21" x2="56.04" y2="31.21" xlink:href="#f"/></defs><title>新增指示灯</title><g class="a"><path class="b" d="M15.45,14a2.74,2.74,0,0,1,2.32-2.71l7.07-1.1a71.21,71.21,0,0,1,21.81,0l7.08,1.1a2.74,2.74,0,0,1,1.7,1c-1.87-4-10.06-6.93-19.89-6.93-11.21,0-20.3,3.87-20.3,8.65a3.89,3.89,0,0,0,.21,1.17Z"/><path class="c" d="M21,10.84s5.26-1.91,14.18-2a60.77,60.77,0,0,1,16,2,157.52,157.52,0,0,0-16-1A88.68,88.68,0,0,0,21,10.84Z"/><rect class="d" x="14.41" y="51.08" width="42.84" height="0.24"/><rect class="e" x="14.41" y="54.01" width="42.84" height="0.24"/><path class="f" d="M16.7,9.47l-.09,0a4.3,4.3,0,0,0-2.2,3.78V53H57.09V13.3a4.31,4.31,0,0,0-2.21-3.78l-.09,0A39.43,39.43,0,0,0,16.7,9.47Z"/><path class="g" d="M35.75,4.57h0a39.41,39.41,0,0,0-19,4.9l-.09,0a4.3,4.3,0,0,0-2.2,3.78V53h11V9.75C29,6.05,35.75,4.57,35.75,4.57Z"/><path class="h" d="M35.75,4.57h0a39.38,39.38,0,0,1,19,4.9l.09,0a4.31,4.31,0,0,1,2.21,3.78V53h-11V9.75C42.54,6.05,35.75,4.57,35.75,4.57Z"/><polygon class="i" points="59.71 67.44 11.78 67.44 11.78 54.29 13.96 53.04 57.44 53.04 59.71 54.29 59.71 67.44"/><rect class="j" x="11.78" y="54.29" width="47.93" height="13.15"/><rect class="k" x="14.02" y="51.32" width="43.51" height="1.72"/><path class="l" d="M56,53H15.45V14a2.74,2.74,0,0,1,2.32-2.71l7.07-1.1a71.21,71.21,0,0,1,21.81,0l7.08,1.1A2.74,2.74,0,0,1,56,14Z"/><rect class="m" width="72" height="72"/></g></svg>