
<svg id="组_1443" data-name="组 1443" xmlns="http://www.w3.org/2000/svg" xmlns:xlink="http://www.w3.org/1999/xlink" width="72" height="72" viewBox="0 0 72 72">
  <defs>
    <linearGradient id="linear-gradient" x1="0.5" x2="0.5" y2="1" gradientUnits="objectBoundingBox">
      <stop offset="0" stop-color="#f5f5f5"/>
      <stop offset="1" stop-color="#8f8f8f"/>
    </linearGradient>
    <linearGradient id="linear-gradient-2" x1="0.5" y1="1" x2="0.5" gradientUnits="objectBoundingBox">
      <stop offset="0" stop-color="#fff"/>
      <stop offset="1" stop-color="#231815"/>
    </linearGradient>
    <radialGradient id="radial-gradient" cx="0.5" cy="0.5" r="0.5" gradientUnits="objectBoundingBox">
      <stop offset="0" stop-opacity="0"/>
      <stop offset="0.62" stop-color="#030202" stop-opacity="0.051"/>
      <stop offset="0.84" stop-color="#0e0a09" stop-opacity="0.251"/>
      <stop offset="0.99" stop-color="#221714" stop-opacity="0.58"/>
      <stop offset="1" stop-color="#231815" stop-opacity="0.6"/>
    </radialGradient>
    <linearGradient id="linear-gradient-3" y1="0" y2="1" xlink:href="#linear-gradient-2"/>
    <linearGradient id="linear-gradient-4" x1="-73.113" y1="-1.259" x2="-73.113" y2="-0.259" gradientUnits="objectBoundingBox">
      <stop offset="0" stop-color="#fff" stop-opacity="0.102"/>
      <stop offset="0.086" stop-color="#fff" stop-opacity="0.22"/>
      <stop offset="0.27" stop-color="#fff" stop-opacity="0.459"/>
      <stop offset="0.45" stop-color="#fff" stop-opacity="0.651"/>
      <stop offset="0.61" stop-color="#fff" stop-opacity="0.8"/>
      <stop offset="0.77" stop-color="#fff" stop-opacity="0.91"/>
      <stop offset="0.9" stop-color="#fff" stop-opacity="0.98"/>
      <stop offset="1" stop-color="#fff"/>
    </linearGradient>
    <linearGradient id="linear-gradient-5" x1="-73.113" y1="-1.259" x2="-73.113" y2="-0.259" gradientUnits="objectBoundingBox">
      <stop offset="0" stop-color="#fff" stop-opacity="0.102"/>
      <stop offset="0.09" stop-color="#fff" stop-opacity="0.22"/>
      <stop offset="0.27" stop-color="#fff" stop-opacity="0.459"/>
      <stop offset="0.45" stop-color="#fff" stop-opacity="0.651"/>
      <stop offset="0.61" stop-color="#fff" stop-opacity="0.8"/>
      <stop offset="0.77" stop-color="#fff" stop-opacity="0.91"/>
      <stop offset="0.9" stop-color="#fff" stop-opacity="0.98"/>
      <stop offset="1" stop-color="#fff"/>
    </linearGradient>
  </defs>
  <g id="组_1400" data-name="组 1400" transform="translate(0.164 -0.171)">
    <path class="shapeChangeFill" d="M352.507,563.314a20.807,20.807,0,1,1,20.807-20.807A20.807,20.807,0,0,1,352.507,563.314Z" transform="translate(-316.171 -505.836)" fill="#08c408"/>
    <path id="路径_724" data-name="路径 724" d="M355,520a25,25,0,1,0,25,25A25,25,0,0,0,355,520Zm0,46.25A21.25,21.25,0,1,1,376.25,545,21.25,21.25,0,0,1,355,566.25Z" transform="translate(-318.664 -508.329)" fill="url(#linear-gradient)"/>
    <path id="路径_725" data-name="路径 725" d="M352.8,521.5a21.3,21.3,0,1,0,21.3,21.3,21.3,21.3,0,0,0-21.3-21.3Zm0,42.1a20.8,20.8,0,1,1,20.8-20.8A20.8,20.8,0,0,1,352.8,563.6Z" transform="translate(-316.465 -506.129)" fill="url(#linear-gradient-2)"/>
    <path id="路径_726" data-name="路径 726" d="M351.774,561.348a19.574,19.574,0,1,1,19.574-19.574,19.574,19.574,0,0,1-19.574,19.574Z" transform="translate(-315.438 -505.103)" opacity="0.68" fill="url(#radial-gradient)"/>
    <path id="路径_727" data-name="路径 727" d="M352.507,521.7a20.807,20.807,0,1,0,20.807,20.807A20.807,20.807,0,0,0,352.507,521.7Zm0,40.361a19.554,19.554,0,1,1,19.554-19.554,19.554,19.554,0,0,1-19.554,19.554Z" transform="translate(-316.171 -505.836)" opacity="0.8" fill="url(#linear-gradient-3)"/>
    <path id="路径_728" data-name="路径 728" d="M362.617,531.86c0,4.711-6.316.469-14.1.469s-14.1,4.242-14.1-.469,6.316-9.2,14.1-9.2,14.1,4.464,14.1,9.2" transform="translate(-312.183 -504.428)" opacity="0.74" fill="url(#linear-gradient-4)"/>
    <path id="路径_2397" data-name="路径 2397" d="M20.787,6.948c0,3.558-4.657.354-10.394.354S0,10.505,0,6.948,4.657,0,10.394,0,20.787,3.371,20.787,6.948" transform="translate(46.729 55.245) rotate(180)" opacity="0.17" fill="url(#linear-gradient-5)"/>
  </g>
  <rect id="矩形_2559" data-name="矩形 2559" width="72" height="72" fill="none"/>
</svg>
