
<svg id="组_1433" data-name="组 1433" xmlns="http://www.w3.org/2000/svg" xmlns:xlink="http://www.w3.org/1999/xlink" width="72" height="72" viewBox="0 0 72 72">
  <defs>
    <linearGradient id="linear-gradient" x1="0.5" x2="0.5" y2="1" gradientUnits="objectBoundingBox">
      <stop offset="0" stop-color="#fff"/>
      <stop offset="0.368" stop-color="#fff" stop-opacity="0"/>
      <stop offset="1" stop-color="#fff"/>
    </linearGradient>
    <linearGradient id="linear-gradient-2" x1="0.5" x2="0.5" y2="1" gradientUnits="objectBoundingBox">
      <stop offset="0" stop-color="#696969"/>
      <stop offset="1" stop-color="#0e0e0e"/>
    </linearGradient>
  </defs>
  <g id="组_1407" data-name="组 1407" transform="translate(-455.619 -1754.44)">
    <path id="路径_2402" data-name="路径 2402" d="M474.51,1806.259l3.706-39.6a41.084,41.084,0,0,1,18.452-4.336,43.732,43.732,0,0,1,17.573,4.336l3.572,39.6Z" transform="translate(-4.713 0)" opacity="0.65" fill="url(#linear-gradient)"/>
    <g id="路径_2398" data-name="路径 2398" transform="translate(-4.713 0)" fill="rgba(250,253,0,0.28)">
      <path d="M 516.7179565429688 1805.25927734375 L 475.6079406738281 1805.25927734375 L 479.1597900390625 1767.305297851563 C 479.9225158691406 1766.93212890625 481.5731506347656 1766.1728515625 483.7981262207031 1765.421508789063 C 486.6433410644531 1764.460815429688 491.0402526855469 1763.3154296875 495.8292846679688 1763.3154296875 C 496.099853515625 1763.3154296875 496.3727111816406 1763.319091796875 496.6403503417969 1763.326293945313 C 501.6286010742188 1763.460571289063 506.0149841308594 1764.597900390625 508.8163146972656 1765.5283203125 C 510.9753723144531 1766.245361328125 512.5516967773438 1766.953491210938 513.2946166992188 1767.309204101563 L 516.7179565429688 1805.25927734375 Z" stroke="none"/>
      <path d="M 515.6237182617188 1804.25927734375 L 512.3504028320313 1767.97265625 C 511.5188598632813 1767.595581054688 510.1761169433594 1767.031616210938 508.4552612304688 1766.462158203125 C 505.7279663085938 1765.559692382813 501.4596252441406 1764.456420898438 496.6134338378906 1764.325927734375 C 496.3546447753906 1764.318969726563 496.0908203125 1764.3154296875 495.8292846679688 1764.3154296875 C 491.1935424804688 1764.3154296875 486.9252319335938 1765.42431640625 484.160888671875 1766.354614257813 C 482.3719177246094 1766.95654296875 480.9618835449219 1767.564453125 480.1025390625 1767.963745117188 L 476.7059020996094 1804.25927734375 L 515.6237182617188 1804.25927734375 M 517.812255859375 1806.25927734375 L 474.5099792480469 1806.25927734375 L 478.215576171875 1766.66259765625 C 478.215576171875 1766.66259765625 486.2605590820313 1762.3154296875 495.8292846679688 1762.3154296875 C 496.1075744628906 1762.3154296875 496.3865966796875 1762.319091796875 496.6672973632813 1762.32666015625 C 506.5998840332031 1762.594116210938 514.2403564453125 1766.66259765625 514.2403564453125 1766.66259765625 L 517.812255859375 1806.25927734375 Z" stroke="none" fill="#fde400"/>
    </g>
    <path id="路径_2399" data-name="路径 2399" d="M485.079,1808.453l3.775-31.936H512.5l3.4,31.936Z" transform="translate(-8.782 -4.197)" fill="#fafd00" opacity="0.52"/>
    <rect id="矩形_2557" data-name="矩形 2557" width="8" height="27" rx="4" transform="translate(487.619 1779.44)" fill="#fdec00"/>
    <path id="路径_2400" data-name="路径 2400" d="M463.658,1852.193l3.927-12.252h48.14l3.633,12.252Z" transform="translate(0 -33.713)" stroke="#707070" stroke-width="1" fill="url(#linear-gradient-2)"/>
    <path id="减去_4" data-name="减去 4" d="M0,6.836H0V5.5A5.506,5.506,0,0,1,5.5,0H18.259a5.506,5.506,0,0,1,5.5,5.5v.573l-.012-.118H.1Z" transform="translate(479.974 1766.38)" fill="#fafd00" opacity="0.53"/>
    <ellipse id="椭圆_528" data-name="椭圆 528" cx="18" cy="4" rx="18" ry="4" transform="translate(473.619 1763.44)" fill="rgba(250,253,0,0.36)" opacity="0.76"/>
    <rect id="矩形_2556" data-name="矩形 2556" width="14" height="5" transform="translate(484.619 1801.44)" fill="#404100"/>
  </g>
  <rect id="矩形_2559" data-name="矩形 2559" width="72" height="72" fill="none"/>
</svg>
