<svg xmlns="http://www.w3.org/2000/svg" xmlns:xlink="http://www.w3.org/1999/xlink" viewBox="0 0 72 72" width="72" height="72"><defs><style>.a{fill:url(#a);}.b,.t{fill:none;}.c{fill:url(#b);}.d{fill:#3d3d3d;}.e{fill:#e80000;}.f{fill:url(#c);}.g{fill:url(#d);}.h,.n,.t{opacity:0.3;}.i{fill:url(#e);}.j{fill:url(#f);}.k,.s{opacity:0.5;}.k{fill:url(#g);}.l{fill:#fff;}.m{fill:url(#h);}.n{fill:url(#i);}.o{fill:url(#j);}.p{mask:url(#k);}.q{opacity:0.7;fill:url(#l);}.r{fill:url(#m);}.s{fill:url(#n);}.t{stroke-miterlimit:10;stroke-width:0.2px;stroke:url(#o);}</style><radialGradient id="a" cx="445.22" cy="-351.59" r="13.94" gradientTransform="matrix(0, 1, -0.57, 0, -153.2, -427.59)" gradientUnits="userSpaceOnUse"><stop offset="0" stop-color="#fff"/><stop offset="1" stop-color="#fff" stop-opacity="0"/></radialGradient><linearGradient id="b" x1="36.16" y1="6" x2="36.16" y2="66" gradientUnits="userSpaceOnUse"><stop offset="0" stop-opacity="0.5"/><stop offset="0.1" stop-color="#060404" stop-opacity="0.55"/><stop offset="0.22" stop-color="#17100e" stop-opacity="0.7"/><stop offset="0.28" stop-color="#231815" stop-opacity="0.8"/><stop offset="0.45" stop-color="#150e0c" stop-opacity="0.68"/><stop offset="0.73" stop-color="#050403" stop-opacity="0.54"/><stop offset="1" stop-opacity="0.5"/></linearGradient><linearGradient id="c" x1="36.16" y1="61.95" x2="36.16" y2="10.05" gradientUnits="userSpaceOnUse"><stop offset="0" stop-color="#231815" stop-opacity="0.3"/><stop offset="1" stop-opacity="0"/></linearGradient><radialGradient id="d" cx="36.16" cy="36" r="25.95" gradientUnits="userSpaceOnUse"><stop offset="0.84" stop-opacity="0"/><stop offset="1" stop-color="#231815" stop-opacity="0.45"/></radialGradient><linearGradient id="e" x1="36.16" y1="9" x2="36.16" y2="63" gradientUnits="userSpaceOnUse"><stop offset="0.01" stop-color="#231815" stop-opacity="0.15"/><stop offset="1" stop-opacity="0.05"/></linearGradient><linearGradient id="f" x1="36.16" y1="6.75" x2="36.16" y2="65.25" gradientUnits="userSpaceOnUse"><stop offset="0" stop-opacity="0.05"/><stop offset="0.99" stop-color="#231815" stop-opacity="0.6"/></linearGradient><linearGradient id="g" x1="15.48" y1="15.32" x2="56.84" y2="56.68" gradientUnits="userSpaceOnUse"><stop offset="0.38" stop-color="#fff" stop-opacity="0.05"/><stop offset="0.48" stop-color="#fff" stop-opacity="0.8"/><stop offset="0.58" stop-color="#fff" stop-opacity="0"/></linearGradient><linearGradient id="h" x1="40.19" y1="8.85" x2="40.19" y2="55.08" xlink:href="#e"/><linearGradient id="i" x1="-808.68" y1="64.22" x2="-840.45" y2="102.08" gradientTransform="translate(560.49 -605.82) rotate(-45)" gradientUnits="userSpaceOnUse"><stop offset="0" stop-color="#fff" stop-opacity="0"/><stop offset="1" stop-color="#fff"/></linearGradient><radialGradient id="j" cx="36.73" cy="22.18" fy="2.0187759703919603" r="21.11" gradientTransform="matrix(1, 0, 0, 1, 0, 0)" xlink:href="#a"/><mask id="k" x="34.94" y="7.78" width="25.44" height="19.69" maskUnits="userSpaceOnUse"><ellipse class="a" cx="47.66" cy="17.63" rx="8.03" ry="13.93" transform="translate(8.57 50.09) rotate(-60)"/></mask><radialGradient id="l" cx="445.22" cy="-351.59" r="13.94" xlink:href="#a"/><radialGradient id="m" cx="579.94" cy="-1457.12" fx="564.718316947713" fy="-1476.0358895368722" r="24.28" gradientTransform="translate(-1421.48 -543.92) rotate(90)" gradientUnits="userSpaceOnUse"><stop offset="0.94" stop-color="#fff" stop-opacity="0"/><stop offset="1" stop-color="#fff" stop-opacity="0.8"/></radialGradient><radialGradient id="n" cx="579.19" cy="-1458.13" fx="559.8319191005397" fy="-1482.1711239684" r="30.86" gradientTransform="translate(-1421.48 -543.92) rotate(90)" gradientUnits="userSpaceOnUse"><stop offset="0.96" stop-color="#fff" stop-opacity="0"/><stop offset="1" stop-color="#fff" stop-opacity="0.8"/></radialGradient><linearGradient id="o" x1="25.39" y1="54.66" x2="46.94" y2="17.34" gradientUnits="userSpaceOnUse"><stop offset="0" stop-color="#fff"/><stop offset="1" stop-color="#231815"/></linearGradient></defs><title>新增指示灯</title><rect class="b" x="0.16" width="72" height="72"/><circle cx="36.16" cy="36" r="30"/><circle class="c" cx="36.16" cy="36" r="30"/><circle class="d" cx="36.16" cy="36" r="29.25"/><circle class="e" cx="36.16" cy="36" r="26.37"/><circle class="f" cx="36.16" cy="36" r="25.95"/><circle class="g" cx="36.16" cy="36" r="25.95"/><path class="h" d="M36.23,9.33A26.7,26.7,0,1,0,62.93,36,26.69,26.69,0,0,0,36.23,9.33Zm0,52.65A25.95,25.95,0,1,1,62.18,36,25.95,25.95,0,0,1,36.23,62Z"/><path class="i" d="M36.16,9a27,27,0,1,0,27,27A27,27,0,0,0,36.16,9Zm0,53.7A26.7,26.7,0,1,1,62.86,36,26.7,26.7,0,0,1,36.16,62.7Z"/><path class="j" d="M36.16,6.75A29.25,29.25,0,1,0,65.41,36,29.26,29.26,0,0,0,36.16,6.75Zm0,56.25a27,27,0,1,1,27-27A27,27,0,0,1,36.16,63Z"/><path class="k" d="M36.16,6.75A29.25,29.25,0,1,0,65.41,36,29.26,29.26,0,0,0,36.16,6.75Zm0,56.25a27,27,0,1,1,27-27A27,27,0,0,1,36.16,63Z"/><g class="h"><path class="l" d="M9.31,35.85a26.88,26.88,0,0,1,7.77-18.93A27,27,0,1,0,55.25,55.08,27,27,0,0,1,9.31,35.85Z"/><path class="m" d="M63.31,35.85A27,27,0,0,0,17.08,16.92,27,27,0,0,1,55.25,55.08,26.9,26.9,0,0,0,63.31,35.85Z"/></g><circle class="n" cx="36.23" cy="36.03" r="24.71"/><path class="o" d="M53.67,18.53A24.73,24.73,0,0,0,11.44,36.45a24.73,24.73,0,0,1,49.46,0A24.66,24.66,0,0,0,53.67,18.53Z"/><path class="h" d="M18.66,52.64a24.68,24.68,0,0,1-7.23-17.08,24.73,24.73,0,1,0,49.46,0A24.73,24.73,0,0,1,18.66,52.64Z"/><g class="p"><ellipse class="q" cx="47.66" cy="17.63" rx="8.03" ry="13.93" transform="translate(8.57 50.09) rotate(-60)"/></g><circle class="r" cx="35.26" cy="36.6" r="23.01"/><circle class="s" cx="36.16" cy="36" r="29.25"/><path class="t" d="M36.16,57.45A21.45,21.45,0,1,1,57.61,36,21.45,21.45,0,0,1,36.16,57.45ZM56.11,36a20,20,0,1,0-20,20A19.95,19.95,0,0,0,56.11,36Zm-1.5,0A18.45,18.45,0,1,0,36.16,54.43,18.44,18.44,0,0,0,54.61,36Zm-1.5,0a17,17,0,1,0-17,16.9A16.92,16.92,0,0,0,53.11,36Zm-1.5,0A15.45,15.45,0,1,0,36.16,51.38,15.41,15.41,0,0,0,51.61,36Zm-1.5,0a14,14,0,1,0-14,13.86A13.9,13.9,0,0,0,50.11,36Zm-1.5,0A12.45,12.45,0,1,0,36.16,48.45,12.44,12.44,0,0,0,48.61,36Zm-1.5,0a11,11,0,1,0-11,11A10.95,10.95,0,0,0,47.11,36Zm-1.5,0a9.45,9.45,0,1,0-9.45,9.45A9.45,9.45,0,0,0,45.61,36Zm-1.5,0a8,8,0,1,0-8,8A8,8,0,0,0,44.11,36Zm-1.5,0a6.45,6.45,0,1,0-6.45,6.45A6.45,6.45,0,0,0,42.61,36Zm-1.5,0a5,5,0,1,0-5,5A4.95,4.95,0,0,0,41.11,36Zm-1.5,0a3.45,3.45,0,1,0-3.45,3.45A3.44,3.44,0,0,0,39.61,36Zm-1.5,0a2,2,0,1,0-2,2A1.95,1.95,0,0,0,38.11,36Zm-1.5,0a.45.45,0,1,0-.45.45A.45.45,0,0,0,36.61,36Z"/></svg>