<svg xmlns="http://www.w3.org/2000/svg" xmlns:xlink="http://www.w3.org/1999/xlink" viewBox="0 0 72 72" width="72" height="72"><defs><style>.a,.c{mask:url(#a);}.a{filter:url(#q);}.b,.d{mix-blend-mode:multiply;}.b{fill:url(#c);}.d{fill:url(#f);}.e{isolation:isolate;}.f{opacity:0.8;}.g{fill:url(#g);}.h{fill:url(#h);}.i{fill:url(#i);}.j{fill:url(#j);}.k{fill:url(#k);}.l,.r{fill:#fff;}.m{fill:url(#l);}.n{fill:url(#m);}.o{fill:url(#n);}.p{fill:#c800ce;}.q{opacity:0.5;fill:url(#o);}.r{opacity:0.2;}.s{mask:url(#p);}.t{mix-blend-mode:screen;fill:url(#t);}.u{fill:url(#u);}.v{opacity:0.9;fill:url(#v);}.w{fill:none;}.x{filter:url(#b);}</style><filter id="b" x="19.25" y="-7791.42" width="13.7" height="32766" filterUnits="userSpaceOnUse" color-interpolation-filters="sRGB"><feFlood flood-color="#fff" result="bg"/><feBlend in="SourceGraphic" in2="bg"/></filter><mask id="a" x="19.25" y="-7791.42" width="13.7" height="32766" maskUnits="userSpaceOnUse"><g class="x"/></mask><radialGradient id="c" cx="42.97" cy="8.99" r="22.89" gradientTransform="matrix(1, 0.04, -0.04, 1, -17.01, 6.76)" gradientUnits="userSpaceOnUse"><stop offset="0" stop-color="#fff"/><stop offset="0.13" stop-color="#fbfbfb"/><stop offset="0.27" stop-color="#efefef"/><stop offset="0.4" stop-color="#dbdbdb"/><stop offset="0.53" stop-color="silver"/><stop offset="0.66" stop-color="#9c9c9c"/><stop offset="0.79" stop-color="#707070"/><stop offset="0.92" stop-color="#3d3d3d"/><stop offset="1" stop-color="#1a1a1a"/></radialGradient><radialGradient id="f" cx="42.97" cy="8.99" r="22.89" gradientTransform="matrix(1, 0.04, -0.04, 1, -17.01, 6.76)" gradientUnits="userSpaceOnUse"><stop offset="0" stop-color="#fff"/><stop offset="0.25" stop-color="#c3c3c3"/><stop offset="0.83" stop-color="#2d2d2d"/><stop offset="1"/></radialGradient><linearGradient id="g" x1="38.15" y1="11.2" x2="48.54" y2="31.25" gradientUnits="userSpaceOnUse"><stop offset="0" stop-color="#fff"/><stop offset="1" stop-color="#fff" stop-opacity="0"/></linearGradient><linearGradient id="h" x1="13.65" y1="23.9" x2="24.05" y2="43.95" xlink:href="#g"/><linearGradient id="i" x1="19.58" y1="20.83" x2="29.98" y2="40.87" xlink:href="#g"/><linearGradient id="j" x1="25.13" y1="17.95" x2="35.52" y2="38" xlink:href="#g"/><linearGradient id="k" x1="30.07" y1="15.39" x2="40.46" y2="35.44" xlink:href="#g"/><linearGradient id="l" x1="36" y1="7.4" x2="36" y2="65.4" gradientUnits="userSpaceOnUse"><stop offset="0" stop-color="#a8a8a8"/><stop offset="0.01" stop-color="#bababa"/><stop offset="0.03" stop-color="#d3d3d3"/><stop offset="0.05" stop-color="#e7e7e7"/><stop offset="0.07" stop-color="#f4f4f4"/><stop offset="0.1" stop-color="#fdfdfd"/><stop offset="0.15" stop-color="#fff"/><stop offset="0.24" stop-color="#c7c7c7"/><stop offset="0.33" stop-color="#8c8c8c"/><stop offset="0.4" stop-color="#a5a5a5"/><stop offset="0.5" stop-color="#ccc"/><stop offset="0.61" stop-color="#6b6b6b"/><stop offset="0.74"/><stop offset="0.78" stop-color="#1a1a1a" stop-opacity="0.94"/><stop offset="0.86" stop-color="#616161" stop-opacity="0.77"/><stop offset="0.96" stop-color="#d4d4d4" stop-opacity="0.5"/><stop offset="1" stop-color="#fff" stop-opacity="0.4"/></linearGradient><linearGradient id="m" x1="36" y1="63.22" x2="36" y2="9.57" gradientUnits="userSpaceOnUse"><stop offset="0" stop-color="#fff"/><stop offset="0.23" stop-color="#e3e3e3"/><stop offset="0.35" stop-color="#b9b9b9"/><stop offset="0.5" stop-color="#8c8c8c"/><stop offset="0.64" stop-color="#696969"/><stop offset="0.78" stop-color="#505050"/><stop offset="0.9" stop-color="#404040"/><stop offset="1" stop-color="#3b3b3b"/></linearGradient><linearGradient id="n" x1="36" y1="65.4" x2="36" y2="7.4" gradientUnits="userSpaceOnUse"><stop offset="0" stop-opacity="0.5"/><stop offset="1" stop-opacity="0.2"/></linearGradient><radialGradient id="o" cx="36" cy="36.4" r="25.38" gradientUnits="userSpaceOnUse"><stop offset="0" stop-color="#fff" stop-opacity="0.1"/><stop offset="0.25" stop-color="#fff" stop-opacity="0.11"/><stop offset="0.34" stop-color="#fff" stop-opacity="0.13"/><stop offset="0.41" stop-color="#fff" stop-opacity="0.18"/><stop offset="0.43" stop-color="#fff" stop-opacity="0.2"/><stop offset="0.68" stop-color="#fff" stop-opacity="0.5"/><stop offset="0.98"/></radialGradient><filter id="q" x="19.25" y="15.63" width="13.7" height="10.9" filterUnits="userSpaceOnUse" color-interpolation-filters="sRGB"><feFlood flood-color="#fff" result="bg"/><feBlend in="SourceGraphic" in2="bg"/></filter><mask id="p" x="19.25" y="15.63" width="13.7" height="10.9" maskUnits="userSpaceOnUse"><g class="a"><path class="b" d="M28.93,18.69c.52,2.41-3.41,5-4.74,6-.79.58-3.14,2.71-4.39,1.52-2.86-2.73,6.15-9.88,8.55-8.28A1.26,1.26,0,0,1,28.93,18.69Zm1.14-1.13a1.9,1.9,0,0,0,.23.31c1.06,1.16,3.82-1.1,2.1-2.1a1.93,1.93,0,0,0-2,.41C29.88,16.62,29.77,17.07,30.07,17.56Z"/></g></mask><radialGradient id="t" cx="42.97" cy="8.99" r="22.89" gradientTransform="matrix(1, 0.04, -0.04, 1, -17.01, 6.76)" gradientUnits="userSpaceOnUse"><stop offset="0" stop-color="#fff"/><stop offset="0.31" stop-color="#c3c5c5"/><stop offset="1" stop-color="#2f3738"/></radialGradient><radialGradient id="u" cx="36" cy="152.7" fx="27.57976230482889" fy="142.08310833141073" r="19.45" gradientTransform="translate(0 -97.75) scale(1 0.82)" gradientUnits="userSpaceOnUse"><stop offset="0" stop-color="#fff"/><stop offset="0.2" stop-color="#fff" stop-opacity="0.73"/><stop offset="0.42" stop-color="#fff" stop-opacity="0.48"/><stop offset="0.61" stop-color="#fff" stop-opacity="0.27"/><stop offset="0.78" stop-color="#fff" stop-opacity="0.12"/><stop offset="0.91" stop-color="#fff" stop-opacity="0.03"/><stop offset="1" stop-color="#fff" stop-opacity="0"/></radialGradient><radialGradient id="v" cx="20.59" cy="20.86" r="24.57" gradientTransform="translate(14.73 14.85) scale(1.03)" gradientUnits="userSpaceOnUse"><stop offset="0" stop-opacity="0"/><stop offset="0.73" stop-opacity="0"/><stop offset="0.85" stop-opacity="0"/><stop offset="1" stop-opacity="0.8"/></radialGradient></defs><title>新增指示灯</title><g class="e"><g class="f"><path class="g" d="M46.27,30.31A.87.87,0,0,1,45.1,30,12.91,12.91,0,0,0,41,26.28c-.35-.2-.72-.39-1.09-.56a.86.86,0,0,1-.43-1.09L41.68,19a.85.85,0,0,1,1.14-.49A20.37,20.37,0,0,1,51.74,26a.87.87,0,0,1-.28,1.22Z"/><path class="h" d="M21,37.4H14.66a.73.73,0,0,1-.73-.74,20.51,20.51,0,0,1,.83-5.11l.16-.52.1-.3a20.78,20.78,0,0,1,1.8-3.89.73.73,0,0,1,1-.22l5.35,3.45a.73.73,0,0,1,.22,1,12.81,12.81,0,0,0-1,2.2l-.17.54a13.51,13.51,0,0,0-.5,2.92A.72.72,0,0,1,21,37.4Z"/><path class="i" d="M23.5,29.43l-5-3.62a.81.81,0,0,1-.17-1.16,20.26,20.26,0,0,1,3.06-3.15.82.82,0,0,1,1.17.15l3.74,4.9a.81.81,0,0,1-.13,1.12,13.69,13.69,0,0,0-1.55,1.59A.83.83,0,0,1,23.5,29.43Z"/><path class="j" d="M26.77,26.23l-3.56-5.09A.81.81,0,0,1,23.43,20a20.22,20.22,0,0,1,4.47-2.15.79.79,0,0,1,1,.53l1.77,6a.8.8,0,0,1-.51,1,12.71,12.71,0,0,0-2.32,1.12A.8.8,0,0,1,26.77,26.23Z"/><path class="k" d="M31.2,24.2l-1.53-6a.81.81,0,0,1,.6-1,21.23,21.23,0,0,1,3.47-.43.8.8,0,0,1,.82.81v6.2a.79.79,0,0,1-.77.79,14.87,14.87,0,0,0-1.65.21A.8.8,0,0,1,31.2,24.2Z"/></g><circle class="l" cx="36" cy="36.4" r="29"/><path class="m" d="M58.1,17.62A29,29,0,1,0,54.78,58.5,29,29,0,0,0,58.1,17.62ZM52.43,55.73A25.37,25.37,0,1,1,55.34,20,25.36,25.36,0,0,1,52.43,55.73Z"/><circle class="n" cx="36" cy="36.4" r="26.83"/><path class="o" d="M58.1,17.62A29,29,0,1,0,54.78,58.5,29,29,0,0,0,58.1,17.62ZM54.61,58.3a28.72,28.72,0,0,1-18.56,6.84c-.79,0-1.59,0-2.38-.09A28.77,28.77,0,1,1,54.61,58.3Z"/><circle class="p" cx="36" cy="36.4" r="25.38"/><circle class="q" cx="36" cy="36.4" r="25.38"/><path class="r" d="M55.45,27.5c0,8.92-8.71,16.15-19.45,16.15S16.56,36.42,16.56,27.5,25.27,11.35,36,11.35,55.45,18.59,55.45,27.5Z"/><g class="s"><g class="f"><g class="s"><path class="t" d="M28.93,18.69c.52,2.41-3.41,5-4.74,6-.79.58-3.14,2.71-4.39,1.52-2.86-2.73,6.15-9.88,8.55-8.28A1.26,1.26,0,0,1,28.93,18.69Zm1.14-1.13a1.9,1.9,0,0,0,.23.31c1.06,1.16,3.82-1.1,2.1-2.1a1.93,1.93,0,0,0-2,.41C29.88,16.62,29.77,17.07,30.07,17.56Z"/></g></g></g><ellipse class="u" cx="36" cy="27.5" rx="19.45" ry="15.95"/><circle class="v" cx="36" cy="36.4" r="25.38"/><rect class="w" x="-0.16" y="0.23" width="72.33" height="72.33"/></g></svg>