<svg xmlns="http://www.w3.org/2000/svg" xmlns:xlink="http://www.w3.org/1999/xlink" viewBox="0 0 72 72" width="72" height="72"><defs><style>.a{fill:none;}.b{fill:#d0ccbf;}.c{fill:url(#a);}.d{fill:url(#b);}.e{fill:url(#c);}.f{opacity:0.3;}.g{clip-path:url(#d);}.h{fill:#231815;}.i{fill:url(#e);}.j{fill:url(#f);}.k{fill:url(#g);}.l{fill:url(#h);}.m{fill:url(#i);}.n,.r{opacity:0.55;}.n,.o,.r{isolation:isolate;}.n{fill:url(#j);}.o{opacity:0.3;}.p{fill:#008c00;}.q{fill:url(#k);}.r{fill:url(#l);}.s{fill:#0058b7;}</style><linearGradient id="a" x1="-787" y1="-639" x2="-787" y2="-637.19" gradientTransform="matrix(25.05, 0, 0, -28.82, 19747.27, -18350.26)" gradientUnits="userSpaceOnUse"><stop offset="0" stop-opacity="0.5"/><stop offset="0.99" stop-opacity="0"/></linearGradient><linearGradient id="b" x1="-786.7" y1="-641.35" x2="-784.89" y2="-641.35" gradientTransform="matrix(24.16, 0, 0, -25.82, 19017.71, -16524.4)" gradientUnits="userSpaceOnUse"><stop offset="0.01" stop-color="#fff" stop-opacity="0.6"/><stop offset="1" stop-color="#fff" stop-opacity="0.35"/></linearGradient><linearGradient id="c" x1="-786.3" y1="-639.15" x2="-787.71" y2="-637.91" gradientTransform="matrix(25.05, 0, 0, -28.37, 19747.3, -18080.75)" gradientUnits="userSpaceOnUse"><stop offset="0" stop-color="#fff" stop-opacity="0.15"/><stop offset="0.99" stop-color="#fff" stop-opacity="0.4"/></linearGradient><clipPath id="d"><path class="a" d="M36,11a3,3,0,0,1,1.5.42L56.92,22.64a3,3,0,0,1,1.5,2.57v22.5a3,3,0,0,1-1.5,2.58L37.44,61.53a3,3,0,0,1-3,0L15,50.29a3,3,0,0,1-1.5-2.58V25.22A3,3,0,0,1,15,22.65L34.51,11.4A3,3,0,0,1,36,11m0-.24a3,3,0,0,0-1.61.45L15,22.44a3.2,3.2,0,0,0-1.62,2.78v22.5A3.22,3.22,0,0,0,15,50.5L34.51,61.75a3.32,3.32,0,0,0,3.23,0L57.22,50.5a3.24,3.24,0,0,0,1.62-2.78V25.22a3.23,3.23,0,0,0-1.62-2.79L37.74,11.19a3,3,0,0,0-1.62-.45Z"/></clipPath><linearGradient id="e" x1="-780.36" y1="-649.78" x2="-780.36" y2="-647.97" gradientTransform="matrix(20.82, 0, 0, -20.82, 16284.59, -13474.45)" gradientUnits="userSpaceOnUse"><stop offset="0.01" stop-opacity="0"/><stop offset="1" stop-opacity="0.5"/></linearGradient><linearGradient id="f" x1="-782.6" y1="-647.58" x2="-782.6" y2="-645.76" gradientTransform="matrix(22.08, 0, 0, -22.08, 17312.56, -14239.42)" xlink:href="#c"/><linearGradient id="g" x1="-781.68" y1="-647.58" x2="-782.96" y2="-646.3" gradientTransform="matrix(21.91, 0, 0, -21.91, 17178.13, -14139.36)" gradientUnits="userSpaceOnUse"><stop offset="0" stop-opacity="0.4"/><stop offset="1" stop-color="#231815" stop-opacity="0.75"/></linearGradient><linearGradient id="h" x1="-777.69" y1="-651.37" x2="-777.69" y2="-653.18" gradientTransform="matrix(19.5, 0, 0, -19.15, 15199.14, -12454.42)" gradientUnits="userSpaceOnUse"><stop offset="0" stop-color="#ededed"/><stop offset="1" stop-color="#707070"/></linearGradient><radialGradient id="i" cx="-766.22" cy="-681.99" r="0.79" gradientTransform="matrix(15.32, 0, 0, -11.19, 11774.23, -7605.35)" gradientUnits="userSpaceOnUse"><stop offset="0" stop-color="#fff" stop-opacity="0.91"/><stop offset="0.49" stop-color="#fff" stop-opacity="0.69"/><stop offset="1" stop-color="#fff" stop-opacity="0.09"/></radialGradient><radialGradient id="j" cx="-757.77" cy="-700.39" r="0.71" gradientTransform="matrix(13.23, 0, 0, -9.01, 10062.59, -6263.8)" gradientUnits="userSpaceOnUse"><stop offset="0" stop-color="#fff" stop-opacity="0.89"/><stop offset="0.4" stop-color="#fff" stop-opacity="0.72"/><stop offset="1" stop-color="#fff" stop-opacity="0.11"/></radialGradient><radialGradient id="k" cx="-716.24" cy="-749.33" r="0.79" gradientTransform="matrix(7.92, 0, 0, -5.79, 5711.45, -4309.59)" xlink:href="#i"/><radialGradient id="l" cx="-702.28" cy="-786.59" r="0.71" gradientTransform="matrix(6.98, 0, 0, -4.6, 4939.24, -3574.1)" xlink:href="#j"/></defs><title>新增指示灯</title><path class="b" d="M58.69,49.22V23.69a.63.63,0,0,0-.3-.51L36.28,10.41a.7.7,0,0,0-.6,0L13.56,23.18a.65.65,0,0,0-.3.51V49.22a.63.63,0,0,0,.3.54L35.68,62.51a.53.53,0,0,0,.59,0L58.39,49.76a.63.63,0,0,0,.3-.54Z"/><path class="c" d="M58.69,49.21V23.69a.63.63,0,0,0-.3-.51L36.28,10.4a.7.7,0,0,0-.6,0L13.56,23.18a.65.65,0,0,0-.3.51V49.21a.62.62,0,0,0,.3.54L35.68,62.5a.53.53,0,0,0,.59,0L58.39,49.75a.62.62,0,0,0,.3-.54Z"/><path class="d" d="M36,13.16a61.79,61.79,0,0,1,10.86,4.37,61.28,61.28,0,0,1,9.3,7.3,41.16,41.16,0,0,1,0,23.28A56.8,56.8,0,0,1,47,55.35a62.73,62.73,0,0,1-11,4.58A59.45,59.45,0,0,1,25,55.5a52.61,52.61,0,0,1-9.19-7.24A41.34,41.34,0,0,1,15.8,25a47.07,47.07,0,0,1,9.25-7.27A49.93,49.93,0,0,1,36,13.16m0,0A48.26,48.26,0,0,0,25,17.56a47.43,47.43,0,0,0-9.27,7.3,41.37,41.37,0,0,0,0,23.34A54.27,54.27,0,0,0,25,55.47a58.38,58.38,0,0,0,11,4.46A60.72,60.72,0,0,0,47,55.5a59.27,59.27,0,0,0,9.21-7.27,41.37,41.37,0,0,0,0-23.34,62.35,62.35,0,0,0-9.33-7.33A64.14,64.14,0,0,0,36,13.1Z"/><path class="e" d="M57.07,22.44,37.59,11.19a3,3,0,0,0-3.23,0L15,22.44a3.2,3.2,0,0,0-1.62,2.78v22.5A3.22,3.22,0,0,0,15,50.5L34.51,61.75a3.26,3.26,0,0,0,3.23,0L57.22,50.5a3.24,3.24,0,0,0,1.62-2.78V25.22A3.2,3.2,0,0,0,57.07,22.44Zm-.87,25.7A58,58,0,0,1,47,55.38a58.72,58.72,0,0,1-11,4.55,57.34,57.34,0,0,1-11-4.4,56.12,56.12,0,0,1-9.21-7.27,41.37,41.37,0,0,1,0-23.34A47.43,47.43,0,0,1,25,17.62,48.14,48.14,0,0,1,36,13.1a64,64,0,0,1,10.89,4.37A61.71,61.71,0,0,1,56.2,24.8a41.37,41.37,0,0,1,0,23.34Z"/><g class="f"><g class="g"><rect class="h" x="13.26" y="11.13" width="45.42" height="51.08"/><rect class="h" x="13.26" y="10.74" width="45.42" height="0.36"/><rect class="h" x="13.5" y="11.13" width="44.94" height="50.84"/><rect class="h" x="13.5" y="10.97" width="44.94" height="0.12"/></g></g><circle class="b" cx="35.98" cy="36.47" r="18.88"/><circle class="i" cx="35.98" cy="36.47" r="18.88"/><path class="j" d="M36,16.45a20,20,0,1,0,20,20,20,20,0,0,0-20-20Zm0,38.9a18.85,18.85,0,1,1,13.36-5.52A18.86,18.86,0,0,1,36,55.35Z"/><path class="k" d="M36,56.31A19.87,19.87,0,1,1,55.85,36.44v0A19.88,19.88,0,0,1,36,56.31Zm0-38.9A19.06,19.06,0,1,0,55,36.5v0A19.07,19.07,0,0,0,36,17.41Z"/><ellipse class="l" cx="35.8" cy="36.66" rx="17.68" ry="17.37"/><ellipse class="m" cx="35.8" cy="28.14" rx="13.89" ry="8.84"/><ellipse class="n" cx="35.8" cy="47.72" rx="12" ry="6.31"/><ellipse class="o" cx="35.96" cy="35.7" rx="9.8" ry="9.7"/><ellipse class="p" cx="35.96" cy="35.7" rx="9.07" ry="8.98"/><ellipse class="q" cx="35.96" cy="31.13" rx="7.19" ry="4.58"/><ellipse class="r" cx="35.96" cy="41.3" rx="6.33" ry="3.22"/><rect class="a" width="72" height="72"/><path class="b" d="M58.69,49.22V23.69a.63.63,0,0,0-.3-.51L36.28,10.41a.7.7,0,0,0-.6,0L13.56,23.18a.65.65,0,0,0-.3.51V49.22a.63.63,0,0,0,.3.54L35.68,62.51a.53.53,0,0,0,.59,0L58.39,49.76a.63.63,0,0,0,.3-.54Z"/><path class="c" d="M58.69,49.21V23.69a.63.63,0,0,0-.3-.51L36.28,10.4a.7.7,0,0,0-.6,0L13.56,23.18a.65.65,0,0,0-.3.51V49.21a.62.62,0,0,0,.3.54L35.68,62.5a.53.53,0,0,0,.59,0L58.39,49.75a.62.62,0,0,0,.3-.54Z"/><path class="d" d="M36,13.16a61.79,61.79,0,0,1,10.86,4.37,61.28,61.28,0,0,1,9.3,7.3,41.16,41.16,0,0,1,0,23.28A56.8,56.8,0,0,1,47,55.35a62.73,62.73,0,0,1-11,4.58A59.45,59.45,0,0,1,25,55.5a52.61,52.61,0,0,1-9.19-7.24A41.34,41.34,0,0,1,15.8,25a47.07,47.07,0,0,1,9.25-7.27A49.93,49.93,0,0,1,36,13.16m0,0A48.26,48.26,0,0,0,25,17.56a47.43,47.43,0,0,0-9.27,7.3,41.37,41.37,0,0,0,0,23.34A54.27,54.27,0,0,0,25,55.47a58.38,58.38,0,0,0,11,4.46A60.72,60.72,0,0,0,47,55.5a59.27,59.27,0,0,0,9.21-7.27,41.37,41.37,0,0,0,0-23.34,62.35,62.35,0,0,0-9.33-7.33A64.14,64.14,0,0,0,36,13.1Z"/><path class="e" d="M57.07,22.44,37.59,11.19a3,3,0,0,0-3.23,0L15,22.44a3.2,3.2,0,0,0-1.62,2.78v22.5A3.22,3.22,0,0,0,15,50.5L34.51,61.75a3.26,3.26,0,0,0,3.23,0L57.22,50.5a3.24,3.24,0,0,0,1.62-2.78V25.22A3.2,3.2,0,0,0,57.07,22.44Zm-.87,25.7A58,58,0,0,1,47,55.38a58.72,58.72,0,0,1-11,4.55,57.34,57.34,0,0,1-11-4.4,56.12,56.12,0,0,1-9.21-7.27,41.37,41.37,0,0,1,0-23.34A47.43,47.43,0,0,1,25,17.62,48.14,48.14,0,0,1,36,13.1a64,64,0,0,1,10.89,4.37A61.71,61.71,0,0,1,56.2,24.8a41.37,41.37,0,0,1,0,23.34Z"/><g class="f"><g class="g"><rect class="h" x="13.26" y="11.13" width="45.42" height="51.08"/><rect class="h" x="13.26" y="10.74" width="45.42" height="0.36"/><rect class="h" x="13.5" y="11.13" width="44.94" height="50.84"/><rect class="h" x="13.5" y="10.97" width="44.94" height="0.12"/></g></g><circle class="b" cx="35.98" cy="36.47" r="18.88"/><circle class="i" cx="35.98" cy="36.47" r="18.88"/><path class="j" d="M36,16.45a20,20,0,1,0,20,20,20,20,0,0,0-20-20Zm0,38.9a18.85,18.85,0,1,1,13.36-5.52A18.86,18.86,0,0,1,36,55.35Z"/><path class="k" d="M36,56.31A19.87,19.87,0,1,1,55.85,36.44v0A19.88,19.88,0,0,1,36,56.31Zm0-38.9A19.06,19.06,0,1,0,55,36.5v0A19.07,19.07,0,0,0,36,17.41Z"/><ellipse class="l" cx="35.8" cy="36.66" rx="17.68" ry="17.37"/><ellipse class="m" cx="35.8" cy="28.14" rx="13.89" ry="8.84"/><ellipse class="n" cx="35.8" cy="47.72" rx="12" ry="6.31"/><ellipse class="o" cx="35.96" cy="35.7" rx="9.8" ry="9.7"/><ellipse class="s" cx="35.96" cy="35.7" rx="9.07" ry="8.98"/><ellipse class="q" cx="35.96" cy="31.13" rx="7.19" ry="4.58"/><ellipse class="r" cx="35.96" cy="41.3" rx="6.33" ry="3.22"/><rect class="a" width="72" height="72"/></svg>