<svg xmlns="http://www.w3.org/2000/svg" xmlns:xlink="http://www.w3.org/1999/xlink" viewBox="0 0 72 72" width="72" height="72"><defs><style>.a{fill:url(#a);}.b,.c,.g,.h{opacity:0.4;}.b{fill:url(#b);}.c{fill:url(#c);}.d{fill:#00c605;}.e{opacity:0.6;fill:url(#f);}.f{opacity:0.8;fill:url(#g);}.g{fill:url(#h);}.h{fill:url(#i);}.i{opacity:0.3;}.j{fill:#fff;}.k{opacity:0.15;}.l{fill:none;}</style><radialGradient id="a" cx="36" cy="36" r="30" gradientUnits="userSpaceOnUse"><stop offset="0" stop-color="#fff"/><stop offset="0.4" stop-color="#999"/><stop offset="0.82" stop-color="#363636"/><stop offset="0.85"/><stop offset="0.88" stop-color="#222930"/><stop offset="0.95" stop-color="#2f3942"/><stop offset="1"/></radialGradient><linearGradient id="b" x1="9.55" y1="21.76" x2="51.22" y2="21.76" gradientUnits="userSpaceOnUse"><stop offset="0" stop-color="#fff"/><stop offset="1" stop-color="#fff" stop-opacity="0"/></linearGradient><linearGradient id="c" x1="-145.62" y1="-355.87" x2="-103.95" y2="-355.87" gradientTransform="translate(-83.23 -306.72) rotate(180)" xlink:href="#b"/><radialGradient id="f" cx="36" cy="36" r="24.99" gradientUnits="userSpaceOnUse"><stop offset="0" stop-color="#fff" stop-opacity="0.2"/><stop offset="0.71" stop-color="#fff" stop-opacity="0.5"/><stop offset="1"/></radialGradient><radialGradient id="g" cx="938.8" cy="1127.12" r="74.14" gradientTransform="translate(-185.69 -216.6) scale(0.24 0.22)" xlink:href="#b"/><linearGradient id="h" x1="13.62" y1="23.87" x2="48.87" y2="23.87" xlink:href="#b"/><linearGradient id="i" x1="-141.55" y1="-354.78" x2="-106.3" y2="-354.78" gradientTransform="translate(-83.23 -306.72) rotate(180)" xlink:href="#b"/></defs><title>新增指示灯</title><circle class="a" cx="36" cy="36" r="30"/><path class="b" d="M35.84,9.06a26.16,26.16,0,0,1,15.38,5A25.84,25.84,0,0,0,9.55,34.45c0,.15,0,.3,0,.45A26.29,26.29,0,0,1,35.84,9.06Z"/><path class="c" d="M36.11,61.85a26.17,26.17,0,0,1-15.39-5A25.83,25.83,0,0,0,62.39,36.46c0-.15,0-.3,0-.45A26.28,26.28,0,0,1,36.11,61.85Z"/><path class="b" d="M35.84,9.06a26.16,26.16,0,0,1,15.38,5A25.84,25.84,0,0,0,9.55,34.45c0,.15,0,.3,0,.45A26.29,26.29,0,0,1,35.84,9.06Z"/><path class="c" d="M36.11,61.85a26.17,26.17,0,0,1-15.39-5A25.83,25.83,0,0,0,62.39,36.46c0-.15,0-.3,0-.45A26.28,26.28,0,0,1,36.11,61.85Z"/><circle class="d" cx="36" cy="36" r="23.25"/><circle class="e" cx="36" cy="36" r="24.99"/><circle class="f" cx="36" cy="36" r="17.5"/><path class="g" d="M35.86,13.13a22.1,22.1,0,0,1,13,4.21A21.85,21.85,0,0,0,13.62,34.61c0,.13,0,.25,0,.38A22.23,22.23,0,0,1,35.86,13.13Z"/><path class="h" d="M36.09,58.8a22.13,22.13,0,0,1-13-4.21A21.85,21.85,0,0,0,58.32,37.32c0-.13,0-.25,0-.38A22.23,22.23,0,0,1,36.09,58.8Z"/><g class="i"><path class="j" d="M21.61,19.87A21.88,21.88,0,0,0,14.7,33.39h6.8a22.13,22.13,0,0,1,5-7.95Z"/><path class="j" d="M28,24A21.53,21.53,0,0,1,34,20.49L32.4,14.43a21.76,21.76,0,0,0-9.25,4.15Z"/></g><g class="k"><path class="j" d="M49.79,52.26A21.88,21.88,0,0,0,56.7,38.74H49.9a22.13,22.13,0,0,1-5,7.95Z"/><path class="j" d="M43.36,48.09a21.78,21.78,0,0,1-5.92,3.55L39,57.7a21.81,21.81,0,0,0,9.25-4.15Z"/></g><rect class="l" width="72" height="72"/></svg>