<svg xmlns="http://www.w3.org/2000/svg" xmlns:xlink="http://www.w3.org/1999/xlink" viewBox="0 0 72 72" width="72" height="72"><defs><style>.a{isolation:isolate;}.b,.s{opacity:0.8;}.c{fill:url(#a);}.d{fill:url(#b);}.e{fill:url(#c);}.f{fill:url(#d);}.g{fill:url(#e);}.h{fill:url(#f);}.i{fill:url(#g);}.j{fill:url(#h);}.k{fill:url(#i);}.l{fill:url(#j);}.m{fill:#7a0000;}.n{fill:url(#k);}.o{fill:#ababab;opacity:0.1;mix-blend-mode:screen;}.p{opacity:0.4;fill:url(#l);}.q,.r{opacity:0.6;}.q{fill:url(#m);}.r{fill:url(#n);}.s{fill:url(#o);}.t{fill:none;}</style><linearGradient id="a" x1="39.58" y1="10.88" x2="49.98" y2="30.93" gradientUnits="userSpaceOnUse"><stop offset="0" stop-color="#fff"/><stop offset="1" stop-color="#fff" stop-opacity="0"/></linearGradient><linearGradient id="b" x1="15.09" y1="23.58" x2="25.48" y2="43.63" xlink:href="#a"/><linearGradient id="c" x1="21.02" y1="20.5" x2="31.41" y2="40.55" xlink:href="#a"/><linearGradient id="d" x1="26.56" y1="17.63" x2="36.96" y2="37.68" xlink:href="#a"/><linearGradient id="e" x1="31.51" y1="15.07" x2="41.9" y2="35.12" xlink:href="#a"/><radialGradient id="f" cx="36" cy="36.28" r="29" gradientUnits="userSpaceOnUse"><stop offset="0.92" stop-color="#f5f5f5"/><stop offset="1" stop-color="#595959"/></radialGradient><linearGradient id="g" x1="54.76" y1="57.86" x2="17.24" y2="14.71" gradientUnits="userSpaceOnUse"><stop offset="0" stop-color="#f2f2f2"/><stop offset="0.02" stop-color="silver"/><stop offset="0.05" stop-color="#919191"/><stop offset="0.08" stop-color="#6a6a6a"/><stop offset="0.11" stop-color="#4b4b4b"/><stop offset="0.13" stop-color="#363636"/><stop offset="0.16" stop-color="#282828"/><stop offset="0.18" stop-color="#242424"/><stop offset="0.19" stop-color="#2a2a2a"/><stop offset="0.2" stop-color="#3c3c3c"/><stop offset="0.22" stop-color="#494949"/><stop offset="0.24" stop-color="#505050"/><stop offset="0.29" stop-color="#525252"/><stop offset="0.31" stop-color="#575757"/><stop offset="0.34" stop-color="#666"/><stop offset="0.37" stop-color="#7e7e7e"/><stop offset="0.4" stop-color="#a0a0a0"/><stop offset="0.41" stop-color="#adadad"/><stop offset="0.49" stop-color="#fcfcfc"/><stop offset="0.51" stop-color="#f8f8f8"/><stop offset="0.53" stop-color="#ebebeb"/><stop offset="0.56" stop-color="#d7d7d7"/><stop offset="0.58" stop-color="#bababa"/><stop offset="0.6" stop-color="#a1a1a1"/><stop offset="0.62" stop-color="#b6b6b6"/><stop offset="0.65" stop-color="#c8c8c8"/><stop offset="0.67" stop-color="#d3d3d3"/><stop offset="0.7" stop-color="#d6d6d6"/><stop offset="0.73" stop-color="#ccc"/><stop offset="0.83" stop-color="#a1a1a1"/><stop offset="0.84" stop-color="#acacac"/><stop offset="0.86" stop-color="#c2c2c2"/><stop offset="0.89" stop-color="#d2d2d2"/><stop offset="0.92" stop-color="#dbdbdb"/><stop offset="0.96" stop-color="#dedede"/><stop offset="1" stop-color="#878787"/></linearGradient><linearGradient id="h" x1="35.97" y1="51.54" x2="35.97" y2="7.69" xlink:href="#a"/><linearGradient id="i" x1="36" y1="10.28" x2="36" y2="62.28" gradientUnits="userSpaceOnUse"><stop offset="0" stop-color="#fff"/><stop offset="0.23" stop-color="#e3e3e3"/><stop offset="0.35" stop-color="#b9b9b9"/><stop offset="0.5" stop-color="#8c8c8c"/><stop offset="0.64" stop-color="#696969"/><stop offset="0.78" stop-color="#505050"/><stop offset="0.9" stop-color="#404040"/><stop offset="1" stop-color="#3b3b3b"/></linearGradient><linearGradient id="j" x1="36" y1="61.79" x2="36" y2="10.77" gradientUnits="userSpaceOnUse"><stop offset="0" stop-color="#fff"/><stop offset="0.23" stop-color="#e3e3e3"/><stop offset="0.29" stop-color="#c7c7c7"/><stop offset="0.43" stop-color="#919191"/><stop offset="0.56" stop-color="#636363"/><stop offset="0.69" stop-color="#404040"/><stop offset="0.81" stop-color="#272727"/><stop offset="0.91" stop-color="#171717"/><stop offset="1" stop-color="#121212"/></linearGradient><radialGradient id="k" cx="36.06" cy="33.7" r="22.98" gradientUnits="userSpaceOnUse"><stop offset="0" stop-color="#fff" stop-opacity="0.5"/><stop offset="0.42" stop-color="#ccc" stop-opacity="0.1"/><stop offset="0.95" stop-color="#141414" stop-opacity="0.55"/><stop offset="1" stop-opacity="0.6"/></radialGradient><linearGradient id="l" x1="36" y1="14.08" x2="36" y2="39.48" xlink:href="#a"/><linearGradient id="m" x1="15.36" y1="32.79" x2="19.61" y2="32.79" xlink:href="#a"/><linearGradient id="n" x1="15.34" y1="44.48" x2="21.29" y2="44.48" xlink:href="#a"/><radialGradient id="o" cx="-45.51" cy="2102.03" r="54.59" gradientTransform="translate(46.75 -450.26) scale(0.24 0.22)" xlink:href="#a"/></defs><title>新增指示灯</title><g class="a"><g class="b"><path class="c" d="M47.71,30a.88.88,0,0,1-1.18-.27A13,13,0,0,0,42.45,26c-.35-.2-.72-.39-1.09-.56a.85.85,0,0,1-.43-1.09l2.19-5.66a.86.86,0,0,1,1.14-.5,23.18,23.18,0,0,1,2.11,1.07,20.87,20.87,0,0,1,6.81,6.41.88.88,0,0,1-.28,1.22Z"/><path class="d" d="M22.46,37.08H16.1a.73.73,0,0,1-.73-.74,20.51,20.51,0,0,1,.83-5.11l.16-.52.1-.3a19.9,19.9,0,0,1,1.8-3.89.73.73,0,0,1,1-.22l5.34,3.44a.73.73,0,0,1,.23,1,12.09,12.09,0,0,0-1,2.2l-.17.54a12.84,12.84,0,0,0-.5,2.92A.72.72,0,0,1,22.46,37.08Z"/><path class="e" d="M24.94,29.1l-5-3.61a.82.82,0,0,1-.18-1.16,20.79,20.79,0,0,1,3.07-3.15.81.81,0,0,1,1.16.15l3.75,4.9a.82.82,0,0,1-.13,1.12,13.69,13.69,0,0,0-1.55,1.59A.82.82,0,0,1,24.94,29.1Z"/><path class="f" d="M28.21,25.91l-3.56-5.09a.82.82,0,0,1,.21-1.13,20.79,20.79,0,0,1,4.48-2.16.8.8,0,0,1,1,.54l1.77,6a.8.8,0,0,1-.51,1,12.71,12.71,0,0,0-2.32,1.12A.8.8,0,0,1,28.21,25.91Z"/><path class="g" d="M32.64,23.88l-1.53-6a.8.8,0,0,1,.6-1,21.23,21.23,0,0,1,3.47-.43.8.8,0,0,1,.82.81v6.2a.79.79,0,0,1-.77.79,12.83,12.83,0,0,0-1.65.21A.8.8,0,0,1,32.64,23.88Z"/></g><path class="h" d="M65,36.28a29,29,0,1,1-29-29A29,29,0,0,1,65,36.28Z"/><path class="i" d="M64.59,36.28A28.59,28.59,0,1,1,36,7.69,28.59,28.59,0,0,1,64.59,36.28Z"/><path class="j" d="M64.53,34.51A28.59,28.59,0,0,0,7.41,36.28c0,.26,0,.52,0,.79a33.82,33.82,0,0,0,57.1-2.56Z"/><path class="k" d="M62,36.28a26,26,0,1,1-26-26A26,26,0,0,1,62,36.28Z"/><path class="l" d="M61.51,36.28A25.51,25.51,0,1,1,36,10.77,25.51,25.51,0,0,1,61.51,36.28Z"/><path d="M59.59,36.28A23.59,23.59,0,1,1,36,12.69,23.59,23.59,0,0,1,59.59,36.28Z"/><circle class="m" cx="36" cy="36.28" r="22.98"/><path class="n" d="M59,36.28a23,23,0,1,1-23-23A23,23,0,0,1,59,36.28Z"/><path class="o" d="M36,13.53A22.75,22.75,0,0,0,13.24,36.28q0,.55,0,1.11c5.47,4.82,13.69,7.89,22.88,7.89,9,0,17.09-3,22.56-7.63,0-.45,0-.91,0-1.37A22.75,22.75,0,0,0,36,13.53Z"/><path class="p" d="M53.15,26.78c0,7-7.68,12.7-17.15,12.7s-17.15-5.69-17.15-12.7S26.53,14.08,36,14.08,53.15,19.76,53.15,26.78Z"/><path class="q" d="M18.23,36.75a22.74,22.74,0,0,1,1.38-5.29,7.41,7.41,0,0,1-3.1-2.62,23,23,0,0,0-1.15,5.65A34.31,34.31,0,0,0,18.23,36.75Z"/><path class="r" d="M18,39.32a27.92,27.92,0,0,1-2.7-1.9,22.64,22.64,0,0,0,5.95,14.12A22.66,22.66,0,0,1,18,39.79C18,39.63,18,39.48,18,39.32Z"/><circle class="s" cx="36" cy="20.82" r="12.89"/><rect class="t" y="0.28" width="72" height="72"/></g></svg>