<svg xmlns="http://www.w3.org/2000/svg" xmlns:xlink="http://www.w3.org/1999/xlink" viewBox="0 0 72 72" width="72" height="72"><defs><style>.a{fill:#3d3d3d;}.b{fill:url(#a);}.c{opacity:0.8;}.d{fill:url(#b);}.e{fill:url(#c);}.f{fill:url(#d);}.g{fill:url(#e);}.h{fill:url(#f);}.i{fill:#fff;}.j{fill:url(#g);}.k{fill:#ffb600;}.l{opacity:0.5;fill:url(#h);}.m{fill:url(#i);}.n{opacity:0.9;fill:url(#j);}.o{opacity:0.6;fill:url(#k);}.p{opacity:0.2;fill:url(#l);}.q{opacity:0.05;}.r{fill:none;}</style><radialGradient id="a" cx="-604.98" cy="-2750.05" r="63.19" gradientTransform="translate(-569.33 -2682.56) rotate(180)" gradientUnits="userSpaceOnUse"><stop offset="0.46" stop-color="#f5f5f5"/><stop offset="0.5" stop-color="#d7d7d7"/><stop offset="0.63" stop-color="#747474"/><stop offset="0.69" stop-color="#4d4d4d"/><stop offset="0.7" stop-color="#515151"/><stop offset="0.85" stop-color="#b8b8b8"/><stop offset="1" stop-color="#656565"/></radialGradient><linearGradient id="b" x1="35.89" y1="10.65" x2="46.28" y2="30.7" gradientUnits="userSpaceOnUse"><stop offset="0" stop-color="#fff"/><stop offset="1" stop-color="#fff" stop-opacity="0"/></linearGradient><linearGradient id="c" x1="11.39" y1="23.35" x2="21.79" y2="43.4" xlink:href="#b"/><linearGradient id="d" x1="17.32" y1="20.28" x2="27.72" y2="40.32" xlink:href="#b"/><linearGradient id="e" x1="22.87" y1="17.4" x2="33.26" y2="37.45" xlink:href="#b"/><linearGradient id="f" x1="27.81" y1="14.84" x2="38.2" y2="34.89" xlink:href="#b"/><radialGradient id="g" cx="36.25" cy="7.22" r="60" gradientUnits="userSpaceOnUse"><stop offset="0.32" stop-color="#fff"/><stop offset="0.46" stop-color="#c7c7c7"/><stop offset="0.59" stop-color="#8c8c8c"/><stop offset="0.68" stop-color="#a5a5a5"/><stop offset="0.81" stop-color="#ccc"/><stop offset="0.84" stop-color="#c8c8c8" stop-opacity="0.99"/><stop offset="0.86" stop-color="#bababa" stop-opacity="0.97"/><stop offset="0.89" stop-color="#a4a4a4" stop-opacity="0.92"/><stop offset="0.92" stop-color="#858585" stop-opacity="0.86"/><stop offset="0.95" stop-color="#5e5e5e" stop-opacity="0.78"/><stop offset="0.98" stop-color="#2e2e2e" stop-opacity="0.69"/><stop offset="1" stop-opacity="0.6"/></radialGradient><radialGradient id="h" cx="36" cy="36.05" r="18.74" gradientUnits="userSpaceOnUse"><stop offset="0" stop-color="#fff" stop-opacity="0.1"/><stop offset="0.37" stop-color="#fff" stop-opacity="0.1"/><stop offset="0.43" stop-color="#fff" stop-opacity="0.1"/><stop offset="0.68" stop-color="#fff" stop-opacity="0.3"/><stop offset="1"/></radialGradient><radialGradient id="i" cx="36" cy="354.94" fy="347.0967039905972" r="14.36" gradientTransform="translate(0 -261.66) scale(1 0.82)" gradientUnits="userSpaceOnUse"><stop offset="0" stop-color="#fff"/><stop offset="0.2" stop-color="#fff" stop-opacity="0.73"/><stop offset="0.42" stop-color="#fff" stop-opacity="0.48"/><stop offset="0.61" stop-color="#fff" stop-opacity="0.27"/><stop offset="0.78" stop-color="#fff" stop-opacity="0.12"/><stop offset="0.91" stop-color="#fff" stop-opacity="0.03"/><stop offset="1" stop-color="#fff" stop-opacity="0"/></radialGradient><radialGradient id="j" cx="6.01" cy="-8.49" r="18.14" gradientTransform="translate(29.79 44.83) scale(1.03)" gradientUnits="userSpaceOnUse"><stop offset="0" stop-opacity="0"/><stop offset="0.78" stop-opacity="0"/><stop offset="0.91" stop-opacity="0"/><stop offset="1" stop-opacity="0.8"/></radialGradient><linearGradient id="k" x1="-605.33" y1="-2702.36" x2="-605.33" y2="-2710.29" gradientTransform="translate(-569.33 -2682.73) rotate(180)" xlink:href="#b"/><linearGradient id="l" x1="36" y1="77.04" x2="36" y2="69.12" gradientTransform="translate(0 -24.74)" gradientUnits="userSpaceOnUse"><stop offset="0"/><stop offset="1" stop-opacity="0"/></linearGradient></defs><title>新增指示灯</title><circle class="a" cx="36" cy="36.05" r="31.27"/><circle class="b" cx="36" cy="36.05" r="31"/><g class="c"><path class="d" d="M44,29.76a.87.87,0,0,1-1.17-.27,12.91,12.91,0,0,0-4.09-3.76c-.35-.2-.72-.39-1.09-.56a.86.86,0,0,1-.43-1.09l2.19-5.66a.85.85,0,0,1,1.14-.49,20.37,20.37,0,0,1,8.92,7.47.87.87,0,0,1-.28,1.22Z"/><path class="e" d="M18.76,36.85H12.4a.73.73,0,0,1-.73-.74A20.51,20.51,0,0,1,12.5,31l.16-.52.1-.3a20.78,20.78,0,0,1,1.8-3.89.73.73,0,0,1,1-.22l5.35,3.45a.73.73,0,0,1,.22,1,12.81,12.81,0,0,0-1,2.2l-.17.54a13.51,13.51,0,0,0-.5,2.92A.72.72,0,0,1,18.76,36.85Z"/><path class="f" d="M21.24,28.88l-5-3.62a.81.81,0,0,1-.17-1.16A20.26,20.26,0,0,1,19.13,21a.82.82,0,0,1,1.17.15L24,26a.81.81,0,0,1-.13,1.12,13.69,13.69,0,0,0-1.55,1.59A.83.83,0,0,1,21.24,28.88Z"/><path class="g" d="M24.51,25.68,21,20.59a.81.81,0,0,1,.22-1.13,20.22,20.22,0,0,1,4.47-2.15.79.79,0,0,1,1,.53l1.77,6a.8.8,0,0,1-.51,1,12.71,12.71,0,0,0-2.32,1.12A.8.8,0,0,1,24.51,25.68Z"/><path class="h" d="M28.94,23.65l-1.53-6a.81.81,0,0,1,.6-1,21.23,21.23,0,0,1,3.47-.43.8.8,0,0,1,.82.81v6.2a.79.79,0,0,1-.77.79,14.87,14.87,0,0,0-1.65.21A.8.8,0,0,1,28.94,23.65Z"/></g><circle class="i" cx="36" cy="36.05" r="29"/><circle class="a" cx="36" cy="36.05" r="29.75"/><circle class="j" cx="36" cy="36.05" r="29.5"/><circle class="k" cx="36" cy="36.05" r="18.74"/><circle class="l" cx="36" cy="36.05" r="18.74"/><ellipse class="m" cx="36" cy="29.48" rx="14.36" ry="11.78"/><circle class="n" cx="36" cy="36.05" r="18.74"/><path class="o" d="M36,21.8a19.68,19.68,0,0,1,13.94,5.76,16.22,16.22,0,0,0-27.88,0A19.68,19.68,0,0,1,36,21.8Z"/><path class="p" d="M36,50.14a19.72,19.72,0,0,1-13.94-5.76,16.23,16.23,0,0,0,27.88,0A19.72,19.72,0,0,1,36,50.14Z"/><g class="q"><circle cx="33.39" cy="33.45" r="1.43"/><circle cx="33.39" cy="38.66" r="1.43"/><circle cx="33.39" cy="28.24" r="1.43"/><circle cx="28.18" cy="49.08" r="1.43"/><circle cx="28.18" cy="43.87" r="1.43"/><path d="M33.39,19.25a1.43,1.43,0,0,0,1.43-1.39,18.07,18.07,0,0,0-2.78.39A1.42,1.42,0,0,0,33.39,19.25Z"/><circle cx="33.39" cy="23.03" r="1.43"/><circle cx="28.18" cy="38.66" r="1.43"/><path d="M19.19,33.45a1.43,1.43,0,0,0-1-1.36,18.2,18.2,0,0,0-.4,2.79A1.44,1.44,0,0,0,19.19,33.45Z"/><path d="M33.39,52.86a1.42,1.42,0,0,0-1.35,1,18.07,18.07,0,0,0,2.78.4A1.43,1.43,0,0,0,33.39,52.86Z"/><circle cx="33.39" cy="43.87" r="1.43"/><circle cx="22.97" cy="33.45" r="1.43"/><circle cx="22.97" cy="28.24" r="1.43"/><path d="M19.19,38.66a1.43,1.43,0,0,0-1.39-1.43A18.38,18.38,0,0,0,18.2,40,1.44,1.44,0,0,0,19.19,38.66Z"/><circle cx="22.97" cy="38.66" r="1.43"/><path d="M24.41,23a1.4,1.4,0,0,0-.27-.83,18.69,18.69,0,0,0-2,2,1.37,1.37,0,0,0,.82.27A1.44,1.44,0,0,0,24.41,23Z"/><circle cx="28.18" cy="33.45" r="1.43"/><circle cx="22.97" cy="43.87" r="1.43"/><circle cx="28.18" cy="23.03" r="1.43"/><circle cx="28.18" cy="28.24" r="1.43"/><path d="M23,47.65a1.43,1.43,0,0,0-.82.26,17.81,17.81,0,0,0,2,2,1.37,1.37,0,0,0,.27-.82A1.44,1.44,0,0,0,23,47.65Z"/><circle cx="33.39" cy="49.08" r="1.43"/><circle cx="49.03" cy="38.66" r="1.43"/><circle cx="49.03" cy="43.87" r="1.43"/><path d="M52.8,38.66a1.43,1.43,0,0,0,1,1.36,18.38,18.38,0,0,0,.4-2.79A1.43,1.43,0,0,0,52.8,38.66Z"/><circle cx="49.03" cy="28.24" r="1.43"/><circle cx="43.82" cy="49.08" r="1.43"/><circle cx="49.03" cy="33.45" r="1.43"/><path d="M38.61,52.86a1.43,1.43,0,0,0-1.43,1.39,18.07,18.07,0,0,0,2.78-.4A1.42,1.42,0,0,0,38.61,52.86Z"/><circle cx="38.61" cy="49.08" r="1.43"/><path d="M49,24.46a1.39,1.39,0,0,0,.82-.27,18.69,18.69,0,0,0-2-2,1.4,1.4,0,0,0-.27.83A1.44,1.44,0,0,0,49,24.46Z"/><path d="M52.8,33.45a1.44,1.44,0,0,0,1.4,1.43,18.2,18.2,0,0,0-.4-2.79A1.42,1.42,0,0,0,52.8,33.45Z"/><path d="M38.61,19.25a1.42,1.42,0,0,0,1.35-1,18.07,18.07,0,0,0-2.78-.39A1.43,1.43,0,0,0,38.61,19.25Z"/><circle cx="38.61" cy="43.87" r="1.43"/><circle cx="38.61" cy="33.45" r="1.43"/><circle cx="38.61" cy="38.66" r="1.43"/><path d="M47.59,49.08a1.37,1.37,0,0,0,.27.82,17.81,17.81,0,0,0,2-2,1.44,1.44,0,0,0-2.26,1.17Z"/><circle cx="38.61" cy="28.24" r="1.43"/><circle cx="43.82" cy="43.87" r="1.43"/><circle cx="38.61" cy="23.03" r="1.43"/><circle cx="43.82" cy="38.66" r="1.43"/><circle cx="43.82" cy="33.45" r="1.43"/><circle cx="43.82" cy="23.03" r="1.43"/><circle cx="43.82" cy="28.24" r="1.43"/></g><rect class="r" y="0.05" width="72" height="72"/></svg>