<svg xmlns="http://www.w3.org/2000/svg" xmlns:xlink="http://www.w3.org/1999/xlink" viewBox="0 0 72 72" width="72" height="72"><defs><style>.a{fill:none;}.b{fill:#d0ccbf;}.c{fill:url(#a);}.d{fill:url(#b);}.e{fill:url(#c);}.f{opacity:0.3;}.g{clip-path:url(#d);}.h{fill:#231815;}.i{fill:url(#e);}.j{fill:url(#f);}.k{fill:url(#g);}.l{fill:url(#h);}.m{fill:url(#i);}.n,.r{opacity:0.55;}.n,.o,.r{isolation:isolate;}.n{fill:url(#j);}.o{opacity:0.3;}.p{fill:#008c00;}.q{fill:url(#k);}.r{fill:url(#l);}</style><linearGradient id="a" x1="-592.1" y1="-639" x2="-592.1" y2="-637.19" gradientTransform="matrix(25.05, 0, 0, -28.82, 14865.92, -18350.26)" gradientUnits="userSpaceOnUse"><stop offset="0" stop-opacity="0.5"/><stop offset="0.99" stop-opacity="0"/></linearGradient><linearGradient id="b" x1="-592.1" y1="-641.35" x2="-590.29" y2="-641.35" gradientTransform="matrix(24.16, 0, 0, -25.82, 14317.02, -16524.4)" gradientUnits="userSpaceOnUse"><stop offset="0.01" stop-color="#fff" stop-opacity="0.6"/><stop offset="1" stop-color="#fff" stop-opacity="0.35"/></linearGradient><linearGradient id="c" x1="-591.4" y1="-639.15" x2="-592.81" y2="-637.91" gradientTransform="matrix(25.05, 0, 0, -28.37, 14865.96, -18080.75)" gradientUnits="userSpaceOnUse"><stop offset="0" stop-color="#fff" stop-opacity="0.15"/><stop offset="0.99" stop-color="#fff" stop-opacity="0.4"/></linearGradient><clipPath id="d"><path class="a" d="M36.14,11a3,3,0,0,1,1.49.42L57.08,22.64a3,3,0,0,1,1.5,2.57v22.5a3,3,0,0,1-1.5,2.58L37.6,61.53a3,3,0,0,1-3,0L15.19,50.29a3,3,0,0,1-1.5-2.58V25.22a3,3,0,0,1,1.5-2.57L34.67,11.4a3,3,0,0,1,1.5-.42m0-.24a3.07,3.07,0,0,0-1.62.45L15.19,22.44a3.2,3.2,0,0,0-1.62,2.78v22.5a3.24,3.24,0,0,0,1.62,2.78L34.67,61.75a3.32,3.32,0,0,0,3.23,0L57.38,50.5A3.22,3.22,0,0,0,59,47.72V25.22a3.23,3.23,0,0,0-1.62-2.79L37.9,11.19a3,3,0,0,0-1.61-.45Z"/></clipPath><linearGradient id="e" x1="-587.1" y1="-649.78" x2="-587.1" y2="-647.97" gradientTransform="matrix(20.82, 0, 0, -20.82, 12260.73, -13474.45)" gradientUnits="userSpaceOnUse"><stop offset="0.01" stop-opacity="0"/><stop offset="1" stop-opacity="0.5"/></linearGradient><linearGradient id="f" x1="-588.78" y1="-647.58" x2="-588.78" y2="-645.76" gradientTransform="matrix(22.08, 0, 0, -22.08, 13034.13, -14239.42)" xlink:href="#c"/><linearGradient id="g" x1="-587.93" y1="-647.58" x2="-589.21" y2="-646.3" gradientTransform="matrix(21.91, 0, 0, -21.91, 12932.99, -14139.36)" gradientUnits="userSpaceOnUse"><stop offset="0" stop-opacity="0.4"/><stop offset="1" stop-color="#231815" stop-opacity="0.75"/></linearGradient><linearGradient id="h" x1="-585.09" y1="-651.37" x2="-585.09" y2="-653.18" gradientTransform="matrix(19.5, 0, 0, -19.15, 11444.05, -12454.42)" gradientUnits="userSpaceOnUse"><stop offset="0" stop-color="#ededed"/><stop offset="1" stop-color="#707070"/></linearGradient><radialGradient id="i" cx="-576.46" cy="-681.99" r="0.79" gradientTransform="matrix(15.32, 0, 0, -11.19, 8867.27, -7605.35)" gradientUnits="userSpaceOnUse"><stop offset="0" stop-color="#fff" stop-opacity="0.91"/><stop offset="0.49" stop-color="#fff" stop-opacity="0.69"/><stop offset="1" stop-color="#fff" stop-opacity="0.09"/></radialGradient><radialGradient id="j" cx="-570.1" cy="-700.39" r="0.71" gradientTransform="matrix(13.23, 0, 0, -9.01, 7579.5, -6263.8)" gradientUnits="userSpaceOnUse"><stop offset="0" stop-color="#fff" stop-opacity="0.89"/><stop offset="0.4" stop-color="#fff" stop-opacity="0.72"/><stop offset="1" stop-color="#fff" stop-opacity="0.11"/></radialGradient><radialGradient id="k" cx="-538.84" cy="-749.33" r="0.79" gradientTransform="matrix(7.92, 0, 0, -5.79, 4305.88, -4309.59)" xlink:href="#i"/><radialGradient id="l" cx="-528.33" cy="-786.59" r="0.71" gradientTransform="matrix(6.98, 0, 0, -4.6, 3724.9, -3574.1)" xlink:href="#j"/></defs><title>新增指示灯</title><path class="b" d="M58.85,49.22V23.69a.63.63,0,0,0-.3-.51L36.44,10.41a.7.7,0,0,0-.6,0L13.72,23.18a.62.62,0,0,0-.29.51V49.22a.62.62,0,0,0,.29.54L35.84,62.51a.54.54,0,0,0,.6,0L58.55,49.76a.63.63,0,0,0,.3-.54Z"/><path class="c" d="M58.85,49.21V23.69a.63.63,0,0,0-.3-.51L36.44,10.4a.7.7,0,0,0-.6,0L13.72,23.18a.62.62,0,0,0-.29.51V49.21a.61.61,0,0,0,.29.54L35.84,62.5a.54.54,0,0,0,.6,0L58.55,49.75a.62.62,0,0,0,.3-.54Z"/><path class="d" d="M36.14,13.16A61.79,61.79,0,0,1,47,17.53a60.79,60.79,0,0,1,9.3,7.3,41.16,41.16,0,0,1,0,23.28,56.8,56.8,0,0,1-9.18,7.24,62.73,62.73,0,0,1-11,4.58,59.73,59.73,0,0,1-11-4.43A52.61,52.61,0,0,1,16,48.26,41.34,41.34,0,0,1,16,25a47.07,47.07,0,0,1,9.25-7.27,49.8,49.8,0,0,1,10.93-4.55m0,0a48.15,48.15,0,0,0-11,4.4,47.43,47.43,0,0,0-9.27,7.3,41.37,41.37,0,0,0,0,23.34,54.27,54.27,0,0,0,9.21,7.27,58.2,58.2,0,0,0,11,4.46,60.92,60.92,0,0,0,11-4.43,59.27,59.27,0,0,0,9.21-7.27,41.37,41.37,0,0,0,0-23.34A62.35,62.35,0,0,0,47,17.56,64,64,0,0,0,36.14,13.1Z"/><path class="e" d="M57.23,22.44,37.75,11.19a3,3,0,0,0-3.23,0L15.19,22.44a3.2,3.2,0,0,0-1.62,2.78v22.5a3.24,3.24,0,0,0,1.62,2.78L34.67,61.75a3.26,3.26,0,0,0,3.23,0L57.38,50.5A3.22,3.22,0,0,0,59,47.72V25.22A3.2,3.2,0,0,0,57.23,22.44Zm-.86,25.7a58.57,58.57,0,0,1-9.22,7.24,58.72,58.72,0,0,1-11,4.55,57.34,57.34,0,0,1-11-4.4,56.12,56.12,0,0,1-9.21-7.27,41.37,41.37,0,0,1,0-23.34,47.72,47.72,0,0,1,9.27-7.3,48.33,48.33,0,0,1,11-4.52A64,64,0,0,1,47,17.47a62.3,62.3,0,0,1,9.34,7.33,41.46,41.46,0,0,1,0,23.34Z"/><g class="f"><g class="g"><rect class="h" x="13.43" y="11.13" width="45.42" height="51.08"/><rect class="h" x="13.43" y="10.74" width="45.42" height="0.36"/><rect class="h" x="13.66" y="11.13" width="44.94" height="50.84"/><rect class="h" x="13.66" y="10.97" width="44.94" height="0.12"/></g></g><circle class="b" cx="36.14" cy="36.47" r="18.88"/><circle class="i" cx="36.14" cy="36.47" r="18.88"/><path class="j" d="M36.14,16.45a20,20,0,1,0,20,20,20,20,0,0,0-20-20Zm0,38.9A18.85,18.85,0,1,1,49.5,49.83a18.85,18.85,0,0,1-13.36,5.52Z"/><path class="k" d="M36.14,56.31A19.87,19.87,0,1,1,56,36.44v0A19.88,19.88,0,0,1,36.14,56.31Zm0-38.9a19.06,19.06,0,1,0,19,19.09v0a19.07,19.07,0,0,0-19-19.06Z"/><ellipse class="l" cx="35.96" cy="36.66" rx="17.68" ry="17.37"/><ellipse class="m" cx="35.96" cy="28.14" rx="13.89" ry="8.84"/><ellipse class="n" cx="35.96" cy="47.72" rx="12" ry="6.31"/><ellipse class="o" cx="36.12" cy="35.7" rx="9.8" ry="9.7"/><ellipse class="p" cx="36.12" cy="35.7" rx="9.07" ry="8.98"/><ellipse class="q" cx="36.12" cy="31.13" rx="7.19" ry="4.58"/><ellipse class="r" cx="36.12" cy="41.3" rx="6.33" ry="3.22"/><rect class="a" x="0.16" width="72" height="72"/></svg>