
<svg id="组_1451" data-name="组 1451" xmlns="http://www.w3.org/2000/svg" xmlns:xlink="http://www.w3.org/1999/xlink" width="72" height="72" viewBox="0 0 72 72">
  <defs>
    <linearGradient id="linear-gradient" x1="0.5" y1="-0.001" x2="0.5" y2="1" gradientUnits="objectBoundingBox">
      <stop offset="0" stop-color="#f3f3f3"/>
      <stop offset="1" stop-color="#ccc"/>
    </linearGradient>
    <radialGradient id="radial-gradient" cx="0.5" cy="0.5" r="0.5" gradientUnits="objectBoundingBox">
      <stop offset="0" stop-color="#dadada" stop-opacity="0"/>
      <stop offset="0.736" stop-color="#c3c3c3" stop-opacity="0.078"/>
      <stop offset="1" stop-opacity="0.749"/>
    </radialGradient>
    <radialGradient id="radial-gradient-2" cx="0.5" cy="0.5" r="0.5" gradientUnits="objectBoundingBox">
      <stop offset="0" stop-color="#fff" stop-opacity="0.839"/>
      <stop offset="0.678" stop-color="#fff" stop-opacity="0.49"/>
      <stop offset="1" stop-color="#fff" stop-opacity="0"/>
    </radialGradient>
    <radialGradient id="radial-gradient-3" cx="0.5" cy="0.5" r="0.5" gradientUnits="objectBoundingBox">
      <stop offset="0" stop-color="#fff" stop-opacity="0.859"/>
      <stop offset="0.126" stop-color="#fff" stop-opacity="0.812"/>
      <stop offset="1" stop-color="#fff" stop-opacity="0"/>
    </radialGradient>
    <radialGradient id="radial-gradient-4" cx="0.5" cy="0.5" r="0.5" gradientUnits="objectBoundingBox">
      <stop offset="0" stop-color="#fff" stop-opacity="0.859"/>
      <stop offset="0.165" stop-color="#fff" stop-opacity="0.812"/>
      <stop offset="1" stop-color="#fff" stop-opacity="0"/>
    </radialGradient>
  </defs>
  <g id="组_1412" data-name="组 1412" transform="translate(-2 -2)">
    <g id="组_1408" data-name="组 1408" transform="translate(0 0)">
      <path id="路径_437" data-name="路径 437" d="M38,66.2h0a30.116,30.116,0,0,1-30-30H8a30.116,30.116,0,0,1,30-30h0a30.116,30.116,0,0,1,30,30h0A30.116,30.116,0,0,1,38,66.2Z" transform="translate(0 1.8)" fill="url(#linear-gradient)"/>
      <path id="路径_440" data-name="路径 440" d="M38,9.962A26.238,26.238,0,1,1,11.762,36.2,26.294,26.294,0,0,1,38,9.962M38,8.9h0A27.428,27.428,0,0,0,10.7,36.2h0A27.428,27.428,0,0,0,38,63.5h0A27.428,27.428,0,0,0,65.3,36.2h0A27.291,27.291,0,0,0,38,8.9Z" transform="translate(0 1.8)" fill="#707070"/>
      <g id="组_755" data-name="组 755" transform="translate(10.2 10)" opacity="0.2">
        <path id="路径_442" data-name="路径 442" d="M38,8.931A27.4,27.4,0,0,1,65.269,36.2h0A27.4,27.4,0,0,1,38,63.469h0A27.4,27.4,0,0,1,10.731,36.2h0A27.329,27.329,0,0,1,38,8.931h0M38,8.4A27.8,27.8,0,1,0,65.8,36.2,27.827,27.827,0,0,0,38,8.4Z" transform="translate(-10.2 -8.4)"/>
      </g>
    </g>
    <g id="组_876" data-name="组 876" transform="translate(154.834 19.68)">
      <g id="组_875" data-name="组 875" transform="translate(-143.483 -8.004)">
        <circle class="shapeChangeFill" cx="25" cy="25" r="25" transform="translate(1.649 1.324)" fill="#00a900"/>
        <circle id="椭圆_73" data-name="椭圆 73" cx="25" cy="25" r="25" transform="translate(1.649 1.324)" opacity="0.23" fill="url(#radial-gradient)"/>
        <ellipse id="椭圆_74" data-name="椭圆 74" cx="24" cy="23.5" rx="24" ry="23.5" transform="translate(-0.351 0.324)" opacity="0.55" fill="url(#radial-gradient-2)"/>
        <circle id="椭圆_75" data-name="椭圆 75" cx="14.088" cy="14.088" r="14.088" transform="translate(12.839 13.684)" opacity="0.8" fill="url(#radial-gradient-3)"/>
        <ellipse id="椭圆_76" data-name="椭圆 76" cx="7.164" cy="7.402" rx="7.164" ry="7.402" transform="translate(8.482 8.845)" fill="url(#radial-gradient-4)"/>
      </g>
    </g>
  </g>
  <rect id="矩形_2559" data-name="矩形 2559" width="72" height="72" fill="none"/>
</svg>
